<svg xmlns="http://www.w3.org/2000/svg" width="554" height="539" viewBox="0 0 554 539"><defs><clipPath id="213sa"><path d="M157.847 181.436c12.645-1.559 29.685-1.707 43.316-.28 12.264 1.283 21.583 11.7 21.545 24.03-.067 22.155-3.62 46.632-7.313 80.657-10.475 10.847-66.75-.433-66.75-.433.188-9.093 1.958-23.157 4.566-36.745-1.917-14.03-6.78-30.091-9.527-48.72-1.332-9.042 5.094-17.39 14.163-18.509z"/></clipPath></defs><g><g><g><g><g><g><g><path fill="#e6e6e6" d="M14.531 324.356V51.913h125.98v272.443z"/></g><g><path fill="#f5f5f5" d="M19.351 324.356V51.913h125.98v272.443z"/></g><g transform="rotate(90 82.5 188.5)"><path fill="#fff" d="M-45.802 242.472V133.798h256.286v108.674z"/></g><g transform="rotate(90 135 188.5)"><path fill="#e6e6e6" d="M6.714 189.957v-3.644h256.285v3.644z"/></g><g><path fill="#f5f5f5" d="M22.93 293.922v-10.845h118.822v10.845z"/></g><g><path fill="#f5f5f5" d="M22.93 265.33v-10.846h118.822v10.845z"/></g></g></g></g><g><g><g><g><path fill="#e6e6e6" d="M187.836 324.356V51.913h125.98v272.443z"/></g><g><path fill="#f5f5f5" d="M192.656 324.356V51.913h125.98v272.443z"/></g><g transform="rotate(90 255.5 188.5)"><path fill="#fff" d="M127.503 242.472V133.798h256.285v108.674z"/></g><g transform="rotate(90 308 188.5)"><path fill="#e6e6e6" d="M180.018 189.957v-3.644h256.286v3.644z"/></g><g><path fill="#f5f5f5" d="M196.235 293.922v-10.845h118.822v10.845z"/></g><g><path fill="#f5f5f5" d="M196.235 265.33v-10.846h118.822v10.845z"/></g></g></g></g><g><g><path fill="#f5f5f5" d="M408.782 246.88c18.678 4.85 39.005 20.365 44.78 35.727a489.153 489.153 0 0 1 6.552-40.195c-1.345 1.639-2.973 3.237-4.926 4.79-26.047 22.138-40.988-27.714-30.597-65.419 17.922 7.144 36.156 25.12 39.966 41.117a487.21 487.21 0 0 1 11.545-39.226c-1.537 1.468-3.36 2.86-5.494 4.166-28.635 18.839-37.234-32.654-22.052-69.075 16.888 9.342 32.683 29.553 34.429 45.99a486.302 486.302 0 0 1 15.217-35.13c-19.622-.365-11.487-37.63 6.179-58.23 13.697 18.568 22.21 52.367-.132 57.553a481.447 481.447 0 0 0-6.223 13.233c13.068-10.57 38.519-9.844 55.974-1.768-15.746 25.544-50.264 57.078-62.276 26.803-.832-2.323-1.337-4.538-1.555-6.644a482.556 482.556 0 0 0-13.567 38.244c11.604-12.002 36.9-14.371 55.23-8.544-12.289 27.015-42.566 62.38-58.299 33.984-1.117-2.187-1.905-4.312-2.38-6.363a481.432 481.432 0 0 0-8.643 39.412c10.008-13.286 34.792-18.721 53.707-15.22-8.785 28.145-34.435 66.92-53.58 40.755-1.392-2.027-2.42-4.032-3.154-6a481.919 481.919 0 0 0-3.678 40.1c8.282-14.415 32.197-22.857 51.4-21.73-5.208 28.935-25.873 70.667-48.107 47.051l-.05-.055c-2.238-2.546-6.181-2.56-8.297.087l-.687.862c-.06-13.58.448-27.153 1.517-40.68-1.132 1.79-2.55 3.576-4.295 5.355-23.103 25.179-44.096-22.43-38.504-60.95z"/></g><g><path fill="#ebebeb" d="M479.685 277.767c-12.315 3.916-25.464 15.154-28.93 25.811a338.31 338.31 0 0 0-5.359-27.18c.936 1.072 2.06 2.108 3.4 3.102 17.89 14.239 26.601-20.226 18.747-45.585-11.756 5.454-23.45 18.301-25.59 29.329a335.082 335.082 0 0 0-8.662-26.359c1.06.95 2.309 1.84 3.761 2.66 19.535 11.905 23.98-23.47 12.967-47.798-11.011 6.918-21.025 21.209-21.78 32.468a331.645 331.645 0 0 0-11.005-23.445c13.055-.89 6.714-26.023-5.56-39.487-8.66 13.103-13.489 36.416 1.516 39.221a324.172 324.172 0 0 1 4.472 8.818c-8.962-6.78-25.89-5.454-37.311.621 11.117 16.896 34.885 37.261 42.13 16.235.497-1.61.777-3.136.87-4.58a330.24 330.24 0 0 1 9.983 25.623c-8.025-7.801-24.926-8.59-36.986-4.02 8.854 18.011 29.892 41.127 39.662 21.26.69-1.528 1.16-3.001 1.426-4.414a332.13 332.13 0 0 1 6.734 26.58c-6.994-8.73-23.631-11.626-36.138-8.623 6.549 18.898 24.59 44.489 36.688 26.03a19.23 19.23 0 0 0 1.951-4.192 335.997 335.997 0 0 1 3.446 27.21c-5.874-9.554-22.008-14.527-34.764-13.132 4.186 19.552 18.983 47.32 33.2 30.498l.032-.04c1.427-1.808 4.051-1.945 5.526-.21l.48.565a340.571 340.571 0 0 0-2.022-27.676c.798 1.182 1.787 2.353 2.993 3.509 16.009 16.406 28.803-16.727 24.123-42.8z"/></g><g><g><g><path fill="#f0f0f0" d="M511.25 323.556s-1.315 152.001-51.691 152.001c-50.377 0-51.691-152.001-51.691-152.001z"/></g></g></g></g><g><g><g transform="rotate(180 195.5 390.5)"><path fill="#f5f5f5" d="M59.037 436.865v-92.772h272.674v92.772z"/></g><g transform="rotate(90 195.5 390.5)"><path fill="#ebebeb" d="M156.487 519.316V261.641h77.774v257.675z"/></g><g transform="rotate(90 152 390.5)"><path fill="#e6e6e6" d="M113.33 476.159v-171.36h77.773v171.36z"/></g><g transform="rotate(90 179.5 390.5)"><path fill="#e0e0e0" d="M140.968 448.522V332.436h77.773v116.086z"/></g><g transform="rotate(90 314.5 390.5)"><path fill="#e0e0e0" d="M301.119 391.66v-2.362h26.109v2.361z"/></g><g transform="rotate(90 195.5 354.5)"><path fill="#e0e0e0" d="M192.319 483.485V225.81h6.11v257.675z"/></g><g><path fill="#e6e6e6" d="M21.262 436.865v-92.772h37.775v92.772z"/></g></g><g><path fill="#f5f5f5" d="M62.699 475.555h-3.662v-38.69h6.32z"/></g><g><path fill="#f5f5f5" d="M328.05 475.555h3.661v-38.69h-6.319z"/></g><g><path fill="#e6e6e6" d="M24.923 475.555h-3.661v-38.69h6.319z"/></g><g><path fill="#e6e6e6" d="M290.274 475.555h3.662v-38.69h-6.32z"/></g></g></g><g><path fill="#f5f5f5" d="M.655 523.13c0-8.792 122.04-15.92 272.584-15.92 150.544 0 272.583 7.128 272.583 15.92 0 8.791-122.04 15.919-272.583 15.919-150.544 0-272.584-7.128-272.584-15.92z"/></g><g><g><g><path fill="#fff" d="M306.21 124.369c17.342-9.63 29.645-27.531 31.185-48.792 2.43-33.5-22.76-62.625-56.258-65.054-33.5-2.428-62.626 22.76-65.054 56.26-1.983 27.343 14.438 51.766 38.755 61.141-6.658 11.195-17.24 15.624-17.24 15.624s20.055-2.65 27.287-12.732a61.4 61.4 0 0 0 7.456 1.02 60.574 60.574 0 0 0 24.987-3.434c6.089 10.07 22.313 16.321 22.313 16.321s-9.81-7.194-13.43-20.354z"/></g><g opacity=".3"><path fill="#407bff" d="M306.21 124.369c17.342-9.63 29.645-27.531 31.185-48.792 2.43-33.5-22.76-62.625-56.258-65.054-33.5-2.428-62.626 22.76-65.054 56.26-1.983 27.343 14.438 51.766 38.755 61.141-6.658 11.195-17.24 15.624-17.24 15.624s20.055-2.65 27.287-12.732a61.4 61.4 0 0 0 7.456 1.02 60.574 60.574 0 0 0 24.987-3.434c6.089 10.07 22.313 16.321 22.313 16.321s-9.81-7.194-13.43-20.354z"/></g></g><g><g><path fill="#263238" d="M340.718 101.19l-12.815 1.043a14.05 14.05 0 0 1 1.151 6.354c-.372 7.061-6.159 12.93-13.216 13.382-7.68.494-14.37-5.266-14.995-12.965-.13-1.588.018-3.14.403-4.604l-21.661 1.763-1.762-21.662c3.138.792 6.692.636 10.138-1.326 4.916-2.8 7.968-8.207 7.382-13.835-.793-7.617-7.537-13.246-15.209-12.622-1.59.13-3.095.526-4.479 1.126l-1.76-21.646 21.66-1.761a13.818 13.818 0 0 1-1.175-6.192c.28-7.003 5.898-12.899 12.878-13.517 7.823-.693 14.707 5.123 15.342 12.938.13 1.589-.02 3.14-.388 4.603l12.816-1.043a8.86 8.86 0 0 1 9.549 8.113l4.254 52.303a8.86 8.86 0 0 1-8.113 9.548z"/></g><g><path fill="#407bff" d="M281.782 56.683a13.984 13.984 0 0 0-6.127 1.167l-1.76-21.652-21.632 1.759a14.196 14.196 0 0 1 1.139 4.877c.393 7.237-4.989 13.766-12.17 14.755-8.109 1.116-15.388-4.811-16.044-12.859-.129-1.59.005-3.139.373-4.601l-12.8 1.04a8.859 8.859 0 0 0-8.112 9.55l4.252 52.302a8.86 8.86 0 0 0 9.55 8.113l12.82-1.043c-.656 2.6-.626 5.45.44 8.355 1.893 5.145 6.715 8.825 12.184 9.204 8.867.617 15.855-6.74 15.164-15.248a14.108 14.108 0 0 0-1.13-4.479l21.656-1.76-1.762-21.656c1.466.37 3.011.521 4.603.392 7.784-.633 13.58-7.458 12.944-15.242-.577-7.038-6.532-12.71-13.588-12.974z"/></g></g><g><path fill="#263238" d="M254.664 13.133c-1.37-1.301-2.715-2.426-3.995-3.341l1.04-1.458c1.35.963 2.76 2.14 4.19 3.502z"/></g><g><path fill="#407bff" d="M265.5 28.019c-1.002-2.7-3.263-6.301-6.2-9.88l1.384-1.137c3.06 3.726 5.428 7.513 6.496 10.394z"/></g><g><path fill="#263238" d="M277.44 24.275l-1.792-.04c.172-7.501 2.594-14.09 7.198-19.589l1.372 1.152c-4.335 5.177-6.616 11.394-6.777 18.477z"/></g><g><path fill="#407bff" d="M268.924 15.92c-.019-.089-1.895-8.902-5.414-14.152l1.489-.998c3.714 5.542 5.6 14.408 5.68 14.782z"/></g><g><path fill="#263238" d="M293.803 130.368c-1.24-1.102-2.516-2.424-3.793-3.928l1.364-1.16c1.225 1.44 2.444 2.7 3.622 3.748z"/></g><g><path fill="#407bff" d="M287.501 123.655c-3.286-4.349-5.594-9.514-6.346-12.472l1.738-.441c.708 2.789 2.901 7.681 6.038 11.833z"/></g><g><path fill="#407bff" d="M275.537 122.243c-1.255-5.668 1.226-10.712 1.333-10.925l1.602.803c-.023.046-2.3 4.703-1.186 9.736z"/></g></g><g><g><path fill="#263238" d="M179.16 393.744c-9.042-50.457-12.805-111.289-12.805-111.289l48.174-.759s-4.122 81.992-6.113 116.335c-2.063 35.709-3.517 104.42-3.517 104.42H188.28s-14.137-64.56-9.12-108.707z"/></g><g opacity=".2"><path d="M188.931 296.202s-6.547 48.968-11.908 84.88c-4.768-30.18-7.795-61.891-9.364-80.963z"/></g><g><path fill="#263238" d="M227.221 519.321s-22.314-5.236-23.292-12.854l-14.232 1.853-1.55 14.81h5.876l.93-1.838 1.973 1.838c19.96 0 27.357-.211 31.057-1.444.218-1.748-.762-2.365-.762-2.365z"/></g><g><g><path fill="#407bff" d="M187.678 510.997c5.337.31 16.01-.468 18.088-1.495 2.078-1.027.85-9.313.85-9.313s-18.655-1.855-20.307-.824c-1.653 1.029 1.37 11.632 1.37 11.632z"/></g><g opacity=".3"><path fill="#fff" d="M187.678 510.997c5.337.31 16.01-.468 18.088-1.495 2.078-1.027.85-9.313.85-9.313s-18.655-1.855-20.307-.824c-1.653 1.029 1.37 11.632 1.37 11.632z"/></g></g><g><path fill="#263238" d="M134.424 392.323c8.219-50.74 7.953-84.645 16.176-109.653l47.03-.644s-22.74 80.496-33.119 114.015c-10.419 33.648-29.223 106.41-29.223 106.41h-15.234s.618-70.878 14.37-110.128z"/></g><g><path fill="#263238" d="M151.325 519.321s-16.83-5.236-17.81-12.854l-14.232 1.853-1.551 14.81h3.678l.929-1.838 1.974 1.838c19.959 0 24.073-.211 27.774-1.444.218-1.748-.762-2.365-.762-2.365z"/></g><g><g><path fill="#407bff" d="M117.732 510.637c3.283.67 15.688-.108 17.92-1.135 2.229-1.027 1.526-9.725 1.526-9.725s-16.879-2.008-18.685-.979c-1.806 1.03-.761 11.839-.761 11.839z"/></g><g opacity=".3"><path fill="#fff" d="M117.732 510.637c3.283.67 15.688-.108 17.92-1.135 2.229-1.027 1.526-9.725 1.526-9.725s-16.879-2.008-18.685-.979c-1.806 1.03-.761 11.839-.761 11.839z"/></g></g><g/><g><g><path fill="#cf7a64" d="M214.279 193.143l4.038 3.474 4.154 3.52c2.77 2.337 5.584 4.6 8.37 6.783 1.397 1.09 2.801 2.14 4.203 3.134a76.966 76.966 0 0 0 4.144 2.861 59.452 59.452 0 0 0 3.96 2.328 22.825 22.825 0 0 0 2.978 1.34l-1.917-.143c-.266.132.406.137 1.258-.06.869-.19 1.968-.593 3.097-1.095 2.269-1.013 4.776-2.342 7.233-3.843 2.494-1.475 4.997-3.106 7.519-4.77l7.565-5.063.173-.115a5.6 5.6 0 0 1 7.816 7.697c-1.872 2.893-3.826 5.445-5.945 8.027a95.39 95.39 0 0 1-6.823 7.404c-2.487 2.35-5.089 4.688-8.256 6.807-1.588 1.063-3.285 2.1-5.343 3.042-2.065.925-4.455 1.803-7.864 2.039a5.9 5.9 0 0 1-1.264-.045l-.655-.099c-3.165-.47-5.608-1.297-7.889-2.162-2.259-.869-4.268-1.88-6.216-2.894-3.886-2.035-7.385-4.262-10.751-6.595-3.383-2.307-6.561-4.772-9.678-7.287-1.542-1.275-3.085-2.545-4.576-3.876a122.541 122.541 0 0 1-4.5-4.149c-4.416-4.265-4.54-11.303-.275-15.72 4.108-4.256 10.79-4.527 15.223-.73z"/></g><g><path fill="#ce7a63" d="M272.943 211.75l12.458-.106-4.308-14.307s-11.268 1.464-11.458 7.577z"/></g><g><path fill="#ce7a63" d="M294.544 202.486l-2.354-4.759a4.318 4.318 0 0 0-5.132-2.214l-5.965 1.824 4.308 14.307 7.108-3.333a4.318 4.318 0 0 0 2.035-5.825z"/></g><g><path fill="#263238" d="M202.866 185.5c-9.364 6.836-11.887 19.922-6.101 29.97.854 1.485 1.809 2.792 2.879 3.81 4.932 4.688 17.164 8.818 25.189 12.3 10.216-3.639 15.422-14.467 13.91-20.467-7.776-10.3-21.973-25.404-29.35-27.405-2.247-.609-4.389.23-6.527 1.791z"/></g></g><g><path fill="#407bff" d="M157.847 181.436c12.645-1.559 29.685-1.707 43.316-.28 12.264 1.283 21.583 11.7 21.545 24.03-.067 22.155-3.62 46.632-7.313 80.657-10.475 10.847-66.75-.433-66.75-.433.188-9.093 1.958-23.157 4.566-36.745-1.917-14.03-6.78-30.091-9.527-48.72-1.332-9.042 5.094-17.39 14.163-18.509z"/></g><g><g><g/><g clip-path="url(#213sa)" opacity=".2"><g opacity=".2"><path fill="#fff" d="M165.873 190.466c.41 0 .786.124 1.032.415.227.268.32.654.374.957.354 1.997-.295 3.913-.902 5.171-.66 1.37-1.59 2.61-2.705 3.658-.415-.146-.816-.378-1.111-.74-.308-.38-.47-.872-.589-1.304-.725-2.685-.073-6.326 2.566-7.787.409-.227.892-.37 1.335-.37zm-10.399 14.528c3.07-.149 6.07-1.45 8.386-3.497.302.073.596.113.859.136 2.366.19 4.777-.824 6.497-2.713 1.528-1.678 2.473-4.002 2.662-6.545a.37.37 0 0 0-.343-.396.36.36 0 0 0-.398.341c-.175 2.378-1.054 4.546-2.471 6.1-1.542 1.695-3.796 2.645-5.885 2.472-.082-.007-.166-.014-.253-.027a13.141 13.141 0 0 0 2.52-3.534c.653-1.355 1.35-3.432.96-5.622-.07-.397-.195-.904-.533-1.306-.81-.955-2.275-.782-3.297-.217-3.002 1.662-3.743 5.6-2.922 8.631.138.508.334 1.092.729 1.577.3.37.674.634 1.068.82-2.142 1.781-4.847 2.905-7.614 3.04a.372.372 0 0 0 .018.742z"/></g><g opacity=".2"><path fill="#fff" d="M182.724 205.976c.454-.192.962-.211 1.417-.201 2.78.052 6.095 1.694 6.762 4.636.199.879.02 1.939-.705 2.262-.32.142-.716.124-1.024.09-2.013-.216-3.673-1.375-4.71-2.307a12.516 12.516 0 0 1-2.76-3.621c.255-.357.59-.677 1.02-.86zm4.223 12.998a.367.367 0 0 0 .348-.241.37.37 0 0 0-.217-.478c-2.235-.834-4.071-2.282-5.168-4.076-1.198-1.954-1.478-4.385-.731-6.342.028-.076.059-.155.094-.235a13.165 13.165 0 0 0 2.692 3.405c1.12 1.007 2.918 2.257 5.13 2.494.401.043.923.065 1.405-.15 1.143-.509 1.386-1.966 1.127-3.104-.759-3.348-4.334-5.157-7.472-5.215-.495-.007-1.136.013-1.72.26a3.019 3.019 0 0 0-1.083.798c-1.112-2.556-1.437-5.468-.794-8.16a.372.372 0 1 0-.722-.173c-.714 2.989-.3 6.232 1.018 9.028-.154.27-.275.54-.37.788-.837 2.201-.54 4.815.792 6.994 1.185 1.934 3.152 3.492 5.54 4.385a.4.4 0 0 0 .131.022z"/></g><g opacity=".2"><path fill="#fff" d="M218.855 199.504c.322.377.5.888.62 1.29.792 2.664.23 6.32-2.375 7.847-.773.456-1.836.609-2.367.011-.232-.261-.333-.645-.395-.947-.405-1.985.197-3.918.772-5.19a12.505 12.505 0 0 1 2.617-3.725c.417.137.824.36 1.128.714zm-3.136 10.282c.608 0 1.242-.203 1.758-.505 2.961-1.735 3.604-5.69 2.71-8.698-.141-.473-.353-1.077-.768-1.56a3.026 3.026 0 0 0-1.088-.794c2.1-1.833 4.777-3.022 7.54-3.225a.372.372 0 0 0 .342-.396.362.362 0 0 0-.397-.345c-3.067.225-6.033 1.6-8.3 3.703a5.603 5.603 0 0 0-.861-.115c-2.345-.138-4.752.94-6.426 2.87-1.488 1.716-2.376 4.062-2.503 6.609a.372.372 0 0 0 .353.389.364.364 0 0 0 .39-.352c.118-2.383.943-4.569 2.32-6.159 1.502-1.732 3.744-2.737 5.825-2.615.08.005.165.01.25.02-1 1.06-1.832 2.273-2.429 3.595-.89 1.968-1.175 3.92-.825 5.644.081.396.218.899.568 1.294.405.457.961.64 1.54.64z"/></g><g opacity=".2"><path fill="#fff" d="M191.613 187.308c.113 0 .223.008.322.015 2.02.167 3.71 1.284 4.768 2.193a12.52 12.52 0 0 1 2.847 3.55c-.25.364-.575.691-1.001.884-.45.202-.966.233-1.412.236h-.044c-2.77 0-6.094-1.56-6.83-4.47-.22-.874-.067-1.937.652-2.278.215-.101.464-.13.698-.13zm9.663 15.083a.37.37 0 0 0 .361-.294c.641-3.007.15-6.24-1.237-9.002.148-.273.262-.547.35-.796.783-2.221.423-4.827-.963-6.973-1.231-1.906-3.238-3.415-5.649-4.246a.372.372 0 0 0-.472.23.372.372 0 0 0 .232.47c2.254.78 4.123 2.181 5.265 3.948 1.244 1.926 1.583 4.349.886 6.324a6.387 6.387 0 0 1-.089.236 13.128 13.128 0 0 0-2.774-3.337c-1.143-.979-2.972-2.184-5.19-2.368-.402-.032-.922-.042-1.399.184-1.132.537-1.337 2-1.052 3.131.837 3.31 4.419 5.03 7.547 5.03h.05c.494-.003 1.134-.04 1.712-.302.434-.195.784-.49 1.067-.822 1.174 2.527 1.569 5.43.992 8.137a.37.37 0 0 0 .363.45z"/></g><g opacity=".2"><path fill="#fff" d="M171.962 228.468c.41 0 .786.124 1.032.416.226.267.32.653.374.958.354 1.995-.295 3.912-.903 5.17-.659 1.37-1.59 2.608-2.704 3.657-.415-.146-.816-.378-1.111-.74-.31-.382-.471-.874-.588-1.304-.727-2.685-.074-6.326 2.565-7.787.409-.226.894-.37 1.335-.37zm-10.4 14.529c3.071-.15 6.071-1.45 8.387-3.498.302.073.596.115.86.136 2.36.187 4.776-.824 6.495-2.713 1.529-1.677 2.473-4 2.663-6.545a.37.37 0 0 0-.343-.396c-.229-.021-.38.14-.398.342-.175 2.378-1.054 4.545-2.471 6.1-1.542 1.694-3.792 2.646-5.885 2.471a3.393 3.393 0 0 1-.253-.027 13.15 13.15 0 0 0 2.519-3.534c.654-1.355 1.351-3.432.962-5.622-.07-.396-.196-.904-.535-1.306-.81-.955-2.274-.782-3.296-.217-3.002 1.662-3.743 5.6-2.922 8.631.131.477.33 1.085.728 1.578.301.37.675.632 1.069.82-2.143 1.78-4.849 2.904-7.614 3.039a.372.372 0 0 0 .018.742z"/></g><g opacity=".2"><path fill="#fff" d="M188.627 246.357c.258-.358.592-.678 1.022-.86.453-.19.97-.215 1.418-.2 2.779.05 6.094 1.692 6.76 4.635.2.878.021 1.938-.705 2.262-.322.143-.716.123-1.022.09-2.014-.217-3.674-1.375-4.714-2.307a12.518 12.518 0 0 1-2.759-3.62zm5.246 12.138a.371.371 0 0 0 .13-.718c-2.235-.836-4.071-2.282-5.168-4.076-1.197-1.956-1.477-4.386-.732-6.342.03-.077.06-.155.095-.235a13.148 13.148 0 0 0 2.691 3.404c1.607 1.444 3.381 2.307 5.13 2.494.402.042.921.066 1.405-.15 1.143-.508 1.387-1.966 1.129-3.105-.76-3.346-4.335-5.157-7.474-5.214-.496-.004-1.134.014-1.718.26a3.03 3.03 0 0 0-1.087.797c-1.11-2.556-1.434-5.467-.791-8.16a.37.37 0 1 0-.723-.173c-.714 2.99-.3 6.234 1.02 9.029-.156.27-.276.541-.372.787-.836 2.2-.54 4.814.793 6.994 1.184 1.936 3.152 3.493 5.54 4.385a.394.394 0 0 0 .132.023z"/></g><g opacity=".2"><path fill="#fff" d="M172.5 253.248c.442-.046.898-.008 1.32.193.446.21.802.585 1.092.923 1.812 2.11 2.79 5.677 1.036 8.132-.525.734-1.433 1.303-2.158.978-.322-.144-.57-.452-.75-.704-1.176-1.646-1.415-3.658-1.41-5.054.007-1.523.314-3.04.87-4.468zm-5.301 12.115a.37.37 0 0 0 .346-.506c-.863-2.225-1.004-4.557-.394-6.57.664-2.193 2.293-4.018 4.252-4.765.074-.028.154-.056.237-.084a13.189 13.189 0 0 0-.752 4.275c-.007 1.506.257 3.68 1.55 5.489.234.327.563.732 1.047.949 1.134.514 2.385-.273 3.067-1.223 1.995-2.792.969-6.664-1.077-9.047-.322-.374-.763-.84-1.337-1.11a3.022 3.022 0 0 0-1.31-.282h-.005c1.168-2.53 3.128-4.708 5.565-6.019a.371.371 0 1 0-.351-.653c-2.708 1.455-4.855 3.92-6.065 6.765a5.525 5.525 0 0 0-.834.247c-2.201.838-3.959 2.798-4.698 5.243-.657 2.17-.51 4.676.413 7.054a.373.373 0 0 0 .346.237z"/></g><g opacity=".2"><path fill="#fff" d="M157.075 279.912c.145-.415.374-.817.734-1.114.385-.314.897-.485 1.3-.597 2.682-.742 6.324-.111 7.802 2.52.443.787.572 1.854-.03 2.37-.268.227-.652.322-.957.378-1.995.365-3.914-.273-5.175-.87a12.52 12.52 0 0 1-3.674-2.687zm8.376 10.16a.372.372 0 0 0 .027-.742c-2.38-.163-4.552-1.028-6.115-2.435-1.704-1.535-2.665-3.785-2.506-5.872.006-.082.013-.166.024-.252a13.15 13.15 0 0 0 3.55 2.497c1.36.646 3.436 1.333 5.628.93.396-.073.901-.2 1.303-.544.95-.812.768-2.279.197-3.296-1.682-2.994-5.624-3.71-8.646-2.871-.475.13-1.083.333-1.575.738-.368.302-.63.678-.814 1.073-1.792-2.133-2.931-4.832-3.083-7.598-.013-.204-.185-.347-.39-.35a.37.37 0 0 0-.35.391c.167 3.069 1.485 6.06 3.546 8.365a5.736 5.736 0 0 0-.132.86c-.176 2.348.852 4.77 2.75 6.48 1.688 1.517 4.018 2.449 6.561 2.625z"/></g><g opacity=".2"><path fill="#fff" d="M145.45 247.6zm0 0c.144-.415.373-.816.734-1.114.38-.312.87-.477 1.3-.596 2.681-.744 6.324-.111 7.802 2.52.441.786.573 1.852-.033 2.368-.265.23-.65.322-.954.378-1.995.364-3.914-.271-5.175-.87a12.505 12.505 0 0 1-3.674-2.685zm8.746 9.814a.37.37 0 0 0-.344-.395c-2.38-.165-4.551-1.03-6.116-2.437-1.702-1.533-2.663-3.783-2.505-5.872.005-.08.014-.164.025-.252a13.149 13.149 0 0 0 3.549 2.499c1.36.646 3.437 1.331 5.627.929.395-.072.903-.2 1.305-.543.952-.812.769-2.279.195-3.297-1.68-2.993-5.627-3.712-8.646-2.872-.475.132-1.082.336-1.574.74a3.02 3.02 0 0 0-.813 1.071c-1.794-2.133-2.933-4.832-3.083-7.596-.011-.205-.183-.344-.392-.35a.37.37 0 0 0-.35.39c.167 3.068 1.487 6.062 3.548 8.366a5.542 5.542 0 0 0-.132.859c-.177 2.348.85 4.77 2.75 6.48 1.685 1.518 4.015 2.45 6.56 2.624l.025.002c.194 0 .357-.15.371-.346z"/></g><g opacity=".2"><path fill="#fff" d="M223.816 233.258c.418.136.824.36 1.128.714.322.378.5.887.62 1.29.791 2.665.23 6.32-2.375 7.847-.776.454-1.839.605-2.367.011-.232-.261-.333-.644-.395-.947-.404-1.987.197-3.92.772-5.19a12.505 12.505 0 0 1 2.617-3.725zm-2.009 10.995c.61 0 1.243-.202 1.76-.504 2.96-1.735 3.602-5.69 2.708-8.698-.14-.473-.353-1.077-.767-1.561a3.014 3.014 0 0 0-1.089-.793c2.1-1.833 4.778-3.023 7.54-3.225a.371.371 0 0 0 .343-.396c-.017-.206-.17-.366-.398-.343-3.066.223-6.032 1.598-8.299 3.701a5.607 5.607 0 0 0-.861-.115c-2.32-.128-4.75.94-6.427 2.87-1.487 1.716-2.375 4.062-2.502 6.61a.372.372 0 0 0 .353.388.36.36 0 0 0 .39-.352c.117-2.383.943-4.569 2.319-6.159 1.503-1.732 3.735-2.731 5.826-2.615.08.004.164.01.25.02-1 1.06-1.832 2.273-2.43 3.595-.62 1.372-1.267 3.464-.824 5.644.081.395.217.9.568 1.292.404.457.961.641 1.54.641z"/></g><g opacity=".2"><path fill="#fff" d="M208.317 257.799c1.505 0 2.893.47 3.881.922a12.518 12.518 0 0 1 3.713 2.633c-.138.418-.363.823-.72 1.125-.378.32-.888.496-1.29.613-2.667.782-6.323.203-7.837-2.408-.454-.779-.599-1.843-.001-2.37.261-.231.645-.33.95-.39a6.683 6.683 0 0 1 1.304-.125zm11.739 12.058a.37.37 0 0 0 .345-.395c-.209-3.066-1.57-6.038-3.665-8.313a5.66 5.66 0 0 0 .12-.863c.143-2.35-.92-4.756-2.843-6.439-1.707-1.494-4.05-2.393-6.595-2.533-.192.005-.38.146-.392.351-.01.205.146.38.35.391 2.383.13 4.565.964 6.148 2.35 1.726 1.508 2.717 3.744 2.59 5.835-.005.082-.013.166-.022.253a13.138 13.138 0 0 0-3.583-2.448c-1.967-.9-3.917-1.193-5.642-.85-.395.079-.9.214-1.296.562-.938.827-.735 2.289-.15 3.298 1.725 2.971 5.676 3.63 8.688 2.749.472-.138 1.078-.349 1.563-.76a3.05 3.05 0 0 0 .799-1.083c1.823 2.107 3.001 4.79 3.19 7.55a.371.371 0 0 0 .37.347z"/></g><g opacity=".2"><path fill="#fff" d="M210.574 279.007c.425.108.845.3 1.174.634.345.352.55.828.708 1.245.97 2.605.659 6.292-1.832 7.99-.747.509-1.798.73-2.365.174-.247-.244-.375-.62-.458-.918-.537-1.955-.07-3.924.417-5.231a12.51 12.51 0 0 1 2.356-3.894zm-1.434 11.113c.664 0 1.359-.26 1.901-.63 2.834-1.933 3.207-5.923 2.109-8.864-.173-.462-.429-1.05-.872-1.504a3.026 3.026 0 0 0-1.14-.717c1.97-1.973 4.558-3.342 7.3-3.733a.37.37 0 0 0 .316-.419.363.363 0 0 0-.42-.315c-3.044.433-5.91 2.008-8.025 4.262a6.38 6.38 0 0 0-.87-.057c-2.354.028-4.678 1.263-6.214 3.303-1.364 1.812-2.091 4.213-2.045 6.763.003.207.215.393.379.365a.373.373 0 0 0 .364-.379c-.045-2.384.63-4.622 1.895-6.302 1.379-1.83 3.536-2.982 5.63-3.007.08-.003.166 0 .255.002a13.1 13.1 0 0 0-2.18 3.754c-.525 1.41-1.028 3.54-.44 5.687.109.39.282.883.657 1.251.391.384.886.54 1.4.54z"/></g><g opacity=".2"><path fill="#fff" d="M185.696 277.723c.207 0 .406.048.584.155.302.181.511.516.659.787.977 1.776.981 3.799.81 5.185a12.491 12.491 0 0 1-1.387 4.334c-.44-.006-.894-.097-1.289-.344-.419-.263-.728-.677-.977-1.048-1.55-2.307-2.103-5.963-.074-8.196.447-.493 1.093-.873 1.674-.873zm-5.841 17.22a.384.384 0 0 0 .136-.026c2.86-1.13 5.282-3.325 6.816-6.009.31-.028.601-.083.859-.147 2.283-.574 4.257-2.316 5.279-4.657.905-2.079 1.054-4.584.417-7.053a.371.371 0 1 0-.72.186c.598 2.31.463 4.643-.38 6.57-.914 2.101-2.746 3.722-4.778 4.234-.078.02-.16.038-.247.056a13.121 13.121 0 0 0 1.248-4.157c.185-1.493.179-3.684-.895-5.634-.194-.351-.474-.791-.928-1.064-1.07-.648-2.403-.01-3.19.854-2.307 2.54-1.743 6.506.007 9.111.276.41.66.922 1.2 1.261.403.253.84.383 1.273.433-1.457 2.375-3.658 4.31-6.234 5.324a.372.372 0 0 0 .137.717z"/></g><g opacity=".2"><path fill="#fff" d="M198.024 221.79c2.019.168 3.709 1.285 4.769 2.192a12.547 12.547 0 0 1 2.845 3.551c-.248.364-.575.692-1 .885-.453.203-.992.233-1.412.234l-.045.002c-2.771 0-6.092-1.56-6.828-4.47-.221-.872-.068-1.937.65-2.278.214-.102.464-.13.698-.13.114 0 .223.007.323.014zm9.34 15.069a.37.37 0 0 0 .362-.294c.641-3.006.15-6.24-1.238-9.002.147-.274.262-.547.351-.796.783-2.221.423-4.826-.963-6.973-1.232-1.906-3.238-3.413-5.647-4.246a.37.37 0 1 0-.242.702c2.253.777 4.123 2.179 5.266 3.946 1.243 1.926 1.583 4.348.884 6.324a6.44 6.44 0 0 1-.088.236 13.128 13.128 0 0 0-2.774-3.338c-1.143-.978-2.973-2.183-5.19-2.367-.402-.032-.925-.042-1.4.185-1.13.536-1.336 1.998-1.05 3.13.836 3.31 4.416 5.03 7.543 5.03h.052c.494-.003 1.133-.04 1.712-.302.435-.196.785-.49 1.068-.823 1.173 2.528 1.568 5.431.992 8.138a.37.37 0 0 0 .363.45z"/></g><g opacity=".2"><path fill="#fff" d="M149.85 217.6c.114 0 .224.006.324.015 2.019.167 3.709 1.283 4.767 2.192a12.526 12.526 0 0 1 2.847 3.55c-.249.365-.575.693-1 .885-.45.203-.967.234-1.412.236h-.044c-2.77 0-6.094-1.56-6.83-4.47-.22-.873-.067-1.936.651-2.278.214-.101.463-.13.696-.13zm9.663 15.083a.37.37 0 0 0 .363-.294c.64-3.007.15-6.24-1.24-9.003.149-.273.264-.545.351-.796.785-2.22.425-4.826-.961-6.971-1.232-1.907-3.238-3.415-5.65-4.248a.374.374 0 0 0-.472.231.372.372 0 0 0 .231.47c2.255.78 4.125 2.181 5.266 3.949 1.245 1.926 1.583 4.348.886 6.323a6.384 6.384 0 0 1-.088.236 13.188 13.188 0 0 0-2.774-3.337c-1.143-.979-2.974-2.183-5.19-2.368-.404-.032-.924-.04-1.4.185-1.131.537-1.338 1.999-1.051 3.13.835 3.31 4.419 5.03 7.547 5.03h.05c.494-.002 1.133-.04 1.711-.302.435-.196.785-.49 1.067-.822 1.174 2.528 1.57 5.43.993 8.137a.37.37 0 0 0 .361.45z"/></g></g></g></g><g><path fill="#ce7a63" d="M170.89 154.604c.362 12.302-1.894 19.173-4.502 25.87 4.55 4.23 11.923 9.476 21.749 9.334 9.827-.143 8.206-5.17 5.57-8.593-7.04-3.552-7.492-8.764-5.77-11.92z"/></g><g opacity=".2"><path d="M187.943 169.296l-7.788-4.855c-3.586.565-5.31 5.124-.864 8.566 3.045 2.354 7.836 3.278 8.479 2.651-1.063-2.334-.766-4.656.173-6.362z"/></g><g><path fill="#263238" d="M191.006 135.312c10.02-2.1 8.337 10.328 5.732 16.785"/></g><g><path fill="#ce7a63" d="M165.371 148.53c1.935 11.02 2.544 16.73 9.63 20.477 17.672 9.34 21.672 2.904 23.072-8.503 1.261-10.268-2.114-26.568-13.485-29.662-11.203-3.05-21.151 6.666-19.217 17.688z"/></g><g><path fill="#263238" d="M168.671 157.604c9.6 1.968-.68-8.142 1.546-12.25 2.229-4.106 14.291-1.051 10.835-7.756 9.375 2.382 18.073 3.232 19.974-3.094 2.762-9.195-6.165-10.945-11.445-8.29-4.428 2.23-4.392 2.97-11.011.743-6.62-2.227-23.075-.928-18.869 6.619-7.484.31-7.484 9.899-1.299 12.559 6.186 2.66 3.032 9.984 10.269 11.469z"/></g><g><path fill="#fff" d="M166.66 152.468a.369.369 0 0 1-.352-.261.37.37 0 0 1 .243-.464l14.954-4.64a.368.368 0 0 1 .464.245.37.37 0 0 1-.244.464l-14.953 4.64a.345.345 0 0 1-.111.016z"/></g><g><path fill="#263238" d="M161.405 134.096c-3.618-2.909-8.412-3.623-8.381-1.905.03 1.72 6.742 1.348 7.392 2.555.65 1.206.99-.65.99-.65z"/></g><g><path fill="#fff" d="M192.527 160.414s-3.409-.696-12.997-.998c1.105 2.196 3.186 4.024 8.096 4.144 4.913.12 4.901-3.146 4.901-3.146z"/></g><g><path fill="#ce7a63" d="M162.04 157.043c1.269 2.605 3.445 4.375 5.484 5.107 3.063 1.101 4.525-1.923 3.616-5.221-.82-2.97-3.401-7.12-6.448-6.785-3.003.33-4.102 3.92-2.651 6.899z"/></g><g><path fill="#263238" d="M184.078 148.703c.143.942.758 1.627 1.375 1.527.616-.098 1-.943.857-1.885-.143-.944-.759-1.628-1.374-1.528-.616.098-1 .943-.858 1.886z"/></g><g><path fill="#263238" d="M194.265 148.485c.142.944.758 1.628 1.373 1.528.618-.098 1.001-.943.858-1.886-.142-.942-.758-1.627-1.373-1.527-.618.098-1.001.943-.858 1.885z"/></g><g><path fill="#263238" d="M180.253 146.312a.558.558 0 0 1-.413-.872c1.752-2.573 4.34-2.566 4.449-2.563.31.004.555.259.547.568a.567.567 0 0 1-.571.553c-.084-.002-2.102.014-3.5 2.068a.57.57 0 0 1-.512.246z"/></g><g><path fill="#263238" d="M197.105 143.253a.555.555 0 0 1-.504-.16c-1.712-1.77-3.7-1.42-3.783-1.404a.557.557 0 0 1-.65-.444.564.564 0 0 1 .444-.656c.11-.02 2.651-.5 4.796 1.72a.563.563 0 0 1-.303.944z"/></g><g><path fill="#fff" d="M196.586 141.107c.468 0 .908.218 1.303.647 1.03 1.119 1.56 3.467 1.35 5.982-.304 3.627-2.056 6.69-3.825 6.69-.47 0-.91-.216-1.305-.646-1.03-1.118-1.558-3.466-1.348-5.982.303-3.627 2.054-6.69 3.825-6.69zm-1.172 14.063c2.215 0 4.22-3.237 4.564-7.372.23-2.754-.36-5.262-1.542-6.546-.534-.58-1.174-.887-1.85-.887-2.216 0-4.219 3.238-4.565 7.371-.23 2.755.36 5.264 1.541 6.547.534.58 1.174.887 1.852.887z"/></g><g><path fill="#ba4d3c" d="M191.36 148.523s2.728 5.227 5.378 7.598c-1.514 1.757-4.443 1.365-4.443 1.365z"/></g><g><g><path fill="#cf7a64" d="M157.94 206.095l-3.686 3.844-3.741 3.956a295.926 295.926 0 0 0-7.226 7.99 113.422 113.422 0 0 0-3.36 4.026 77.392 77.392 0 0 0-3.08 3.984 60.663 60.663 0 0 0-2.541 3.826 22.948 22.948 0 0 0-1.499 2.903l.248-1.908c-.119-.26-.144.524.032 1.465.166.961.519 2.154.98 3.385.92 2.468 2.117 5.175 3.485 7.85 1.338 2.703 2.82 5.426 4.331 8.172l4.59 8.244.084.153a5.596 5.596 0 0 1-8.365 7.11c-2.766-2.19-5.2-4.436-7.643-6.84a104.551 104.551 0 0 1-6.96-7.624c-2.19-2.735-4.356-5.575-6.272-8.928-.964-1.674-1.89-3.467-2.712-5.587-.801-2.137-1.557-4.555-1.615-8.06a5.941 5.941 0 0 1 .112-1.252l.135-.657c.641-3.132 1.602-5.528 2.589-7.757.988-2.21 2.108-4.162 3.226-6.051 2.242-3.77 4.656-7.145 7.169-10.378 2.488-3.252 5.121-6.293 7.802-9.268 1.357-1.472 2.708-2.942 4.118-4.36a122.044 122.044 0 0 1 4.386-4.266c4.5-4.18 11.534-3.921 15.714.578 4.025 4.332 3.933 11.019-.099 15.24z"/></g><g><path fill="#ce7a63" d="M139.243 260.587l12.458.177-4.392 14.282s-11.26-1.53-11.413-7.643z"/></g><g><path fill="#ce7a63" d="M160.791 269.974l-2.383 4.746a4.318 4.318 0 0 1-5.144 2.183l-5.955-1.857 4.392-14.282 7.088 3.374a4.317 4.317 0 0 1 2.002 5.836z"/></g><g><path fill="#263238" d="M155.335 181.946c-6.165 1.482-13.512 3.929-20.13 11.29-4.684 5.208-12.697 16.65-16.608 24.473 6.998 12.17 18.38 13.572 21.432 12.78 10.706-7.206 17.198-10.874 20.208-20.405 3.012-9.534-.282-20.765-4.902-28.138z"/></g></g><g><path fill="#fff" d="M187.085 141.754c1.028 1.119 1.556 3.467 1.348 5.982-.303 3.627-2.054 6.69-3.825 6.69-.47 0-.91-.216-1.305-.645-1.027-1.119-1.557-3.467-1.35-5.983.304-3.627 2.056-6.69 3.827-6.69.47 0 .91.217 1.305.646zm-2.477 13.416c2.214 0 4.219-3.237 4.563-7.372.23-2.754-.36-5.264-1.54-6.546-.535-.58-1.173-.887-1.85-.887-2.216 0-4.221 3.238-4.565 7.371-.23 2.755.362 5.264 1.543 6.547.533.58 1.173.887 1.849.887z"/></g><g><path fill="#fff" d="M192.39 148.138a.373.373 0 0 1-.34-.225.56.56 0 0 0-.338-.315c-.745-.288-2.24.267-2.753.505a.371.371 0 1 1-.313-.672c.216-.101 2.158-.977 3.33-.526.353.136.614.382.756.717a.372.372 0 0 1-.341.516z"/></g></g><g><g><path fill="#263238" d="M392.397 179.611c11.007-12.636 5.336-26.478-7.026-34.09-12.362-7.615-26.802-2.066-32.382 10.864-5.578 12.93-3.57 16.267-6.988 16.973-1.575 6.79 3.313 13.932 8.965 10.173 8.545 3.613 23.527 12.041 37.431-3.92z"/></g><g><path fill="#263238" d="M377.287 189.852c-6.052 0-11.382-2.625-15.299-4.553a131.7 131.7 0 0 0-1.746-.85l.563-1.19c.558.263 1.147.553 1.765.858 7.446 3.667 18.697 9.209 30.706-3.278 4.423-4.6 6.481-9.77 5.953-14.952-.559-5.486-4.072-10.824-9.64-14.646l.746-1.086c5.888 4.042 9.606 9.728 10.205 15.599.568 5.578-1.615 11.11-6.314 15.997-5.889 6.124-11.687 8.1-16.939 8.1z"/></g><g><path fill="#263238" d="M351.83 161.5c-2.376-8.33.333-25.216 21.048-25.239 20.786-.024 29.53 14.67 20.869 26.841-24.992 5.657-41.917-1.601-41.917-1.601z"/></g><g><path fill="#263238" d="M343.25 178.214c-12.913 3.402-1.724 24.941 10.964 15.113-2.737-.19-8.998-6.41-4.256-10.432-5.034-4.415-6.707-4.681-6.707-4.681z"/></g><g><path fill="#263238" d="M343.417 197.452c-1.451 0-2.63-.415-3.445-.825-3.562-1.801-5.91-6.368-5.461-10.623.388-3.678 2.778-6.359 6.554-7.353l.334 1.274c-4.404 1.161-5.386 4.393-5.577 6.217-.396 3.74 1.644 7.742 4.745 9.308 2.744 1.386 5.913.637 8.925-2.116l.89.973c-2.65 2.418-5.045 3.145-6.965 3.145z"/></g><g><path fill="#407bff" d="M353.303 184.34c-3.318-.684-8.386-9.292-6.33-11.335-2.678-.09-4.902 2.012-5.675 4.393-.862 2.656.835 7.641 6.774 9.126 3.012.754 5.23-2.185 5.23-2.185z"/></g><g><path fill="#ffb573" d="M354.006 219.83c-.1 3.214-.343 6.39-.527 9.584l-.819 9.569c-.282 3.198-.674 6.387-1.07 9.619a145.943 145.943 0 0 1-.743 4.923 41.246 41.246 0 0 1-1.256 5.358c-2.166 6.747-5.23 12.56-8.533 18.221a150.487 150.487 0 0 1-10.976 16.133 3.05 3.05 0 0 1-5.123-3.255l.034-.066a359.097 359.097 0 0 0 8.09-16.917c1.234-2.847 2.445-5.682 3.484-8.532 1.055-2.838 1.994-5.681 2.617-8.428.312-1.396.53-2.618.65-3.983.126-1.465.226-3.007.306-4.56l.513-9.4.485-9.47c.22-3.154.363-6.33.618-9.467l.002-.015a6.135 6.135 0 0 1 6.612-5.617c3.268.267 5.729 3.064 5.636 6.304z"/></g><g><path fill="#ffb573" d="M353.063 277.08s.016 73.614 4.472 113.481c.46 37.427 9.006 121.995 9.006 121.995h9.444c1.59-41.956 13.276-81.134 5.511-118.143 18.166-72.668 9.736-117.292 9.736-117.292z"/></g><g><path fill="#ffb573" d="M363.35 277.121s7.098 90.092 21.204 122.344c14.815 33.871 41.126 100.248 43.718 111.492l7.893-2.101s-5.21-72.844-29.298-114.017c7.455-101.535-11.323-117.718-11.323-117.718z"/></g><g><path fill="#263238" d="M350.06 201.505c-7.924 6.696-10.466 17.589-10.367 24.97 4.737 7.774 19.544 10.185 19.544 10.185s2.347-15.19 1.219-22.349c-1.129-7.159-5.834-16.66-10.396-12.806z"/></g><g><path fill="#263238" d="M344.381 215.49c-.935-8.398 4.85-15.962 13.162-17.427 2.303-.406 4.717-.787 7.056-1.084 7.06-.894 13.69-.87 21.785-.766 2.083.027 4.12.117 6.047.24 7.207.469 12.557 7.037 11.492 14.109-4.595 30.503-7.32 52.562-4.313 65.936 0 0 9.512 12.686 13.822 41.779 3.764 25.407 2.839 68.25 6.955 91.266-14.807 10.58-61.849 9.934-68.792 3.743 1.958-46.535-7.555-107.509-.32-135.656-2.898-15.608-1.322-27.538-2.953-36.99-10.875-7.382-2.716-14.141-3.94-25.15z"/></g><g><path fill="#fff" d="M371.77 282.01c-8.335 0-16.064-.802-19.47-2.3-1.401-.618-2.068-1.359-1.982-2.202a.4.4 0 0 1 .442-.36c.219.024.38.22.358.44-.062.603.917 1.128 1.506 1.386 8.202 3.61 41.829 3.207 47.234-2.865a.4.4 0 0 1 .566-.032.4.4 0 0 1 .032.566c-3.277 3.684-16.613 5.367-28.686 5.367z"/></g><g><path fill="#fff" d="M371.37 279.144c-8.336 0-16.065-.801-19.472-2.3-1.4-.615-2.068-1.356-1.98-2.201a.407.407 0 0 1 .44-.359c.22.023.38.22.358.44-.062.602.918 1.126 1.507 1.385 8.202 3.609 41.83 3.208 47.233-2.864a.4.4 0 1 1 .599.533c-3.277 3.685-16.613 5.366-28.685 5.366z"/></g><g opacity=".2"><path d="M378.687 373.778c1.292-18.722.01-46.737-11.443-62.44"/></g><g><path fill="#ffb573" d="M382.81 171.864c-.97 7.028-1.6 19.865 3.575 24.35 0 0-16.705 6.603-26.244 23.26-6.869-15.648 4.46-22.494 4.46-22.494 7.708-2.135 7.17-7.901 5.495-13.278z"/></g><g opacity=".2"><path d="M377.627 176.694l-7.525 7.003c.402 1.272.73 2.564.895 3.827 2.961-.535 6.874-3.943 7.01-7.068.069-1.557-.083-3.048-.38-3.762z"/></g><g><path fill="#ffb573" d="M385.696 156.323c.587 11.62 1.084 16.53-4.05 22.99-7.722 9.72-22.046 7.595-26.075-3.69-3.628-10.156-3.98-27.451 6.74-33.076 10.563-5.542 22.797 2.156 23.385 13.776z"/></g><g><path fill="#263238" d="M374.796 147.148c-.866 12.25 12.373 22.766 16.518 18.126"/></g><g><path fill="#263238" d="M356.368 146.159c14.957 11.383 32.41 11.321 31.296 3.03"/></g><g><path fill="#263238" d="M367.79 160.985c.105.942-.316 1.75-.939 1.806-.622.058-1.213-.659-1.318-1.6-.106-.94.315-1.748.937-1.806.623-.056 1.214.66 1.32 1.6z"/></g><g><path fill="#263238" d="M356.087 162.222c.105.94-.314 1.75-.937 1.807-.624.057-1.214-.66-1.32-1.6-.104-.94.315-1.75.938-1.807.623-.057 1.213.66 1.319 1.6z"/></g><g><path fill="#263238" d="M355.049 160.649l-2.362-.443"/></g><g><path fill="#ed893e" d="M359.781 162.67s-1.164 4.197-2.724 6.314c1.387 1.045 3.466.32 3.466.32z"/></g><g><path fill="#ffb573" d="M389.48 166.85c-.908 2.266-2.66 3.741-4.364 4.295-2.564.834-4.04-1.939-3.49-4.84.495-2.614 2.426-6.196 5.078-5.748 2.612.442 3.817 3.704 2.776 6.293z"/></g><g><path fill="#263238" d="M370.806 156.277a.574.574 0 0 1-.39-.218c-1.544-1.978-3.61-1.866-3.634-1.864a.577.577 0 0 1-.608-.518.546.546 0 0 1 .514-.59c.109-.007 2.7-.15 4.617 2.305a.549.549 0 0 1-.499.885z"/></g><g><path fill="#263238" d="M352.6 158.177a.562.562 0 0 1-.419-.008.56.56 0 0 1-.31-.728c1.172-2.823 3.716-3.297 3.826-3.315a.571.571 0 0 1 .66.45c.06.3-.14.587-.443.642-.1.018-2.068.413-3 2.659a.543.543 0 0 1-.314.3z"/></g><g><path fill="#263238" d="M366.751 159.412l-2.361-.442"/></g><g><path fill="#ffb573" d="M384.326 258.766l-9.293-4.735-2.142 11.745s7.503 1.794 12.79-.412l.826-1.386c.181-2.584-.118-3.646-2.18-5.212z"/></g><g><path fill="#ffb573" d="M367.61 257.193l-.219 5.162a2.961 2.961 0 0 0 2.6 3.067l2.9.354 2.143-11.745-4.675.333a2.963 2.963 0 0 0-2.748 2.829z"/></g><g><path fill="#ffb573" d="M404 207.155a309.613 309.613 0 0 1 6.177 19.386c1.859 6.561 3.602 13.087 4.741 20.19.26 1.813.503 3.613.541 5.799.062 2.31-.395 5.104-1.823 7.589-1.416 2.523-3.742 4.373-5.933 5.405-2.217 1.07-4.365 1.492-6.381 1.724-4.038.444-7.7-.056-11.232-.682a48.316 48.316 0 0 1-5.182-1.25c-1.712-.502-3.327-1.02-5.058-1.718a3.055 3.055 0 0 1 1.501-5.867l.152.02c1.499.18 3.156.373 4.732.495 1.596.114 3.182.188 4.742.236 3.112.082 6.203-.163 8.787-.773 1.278-.314 2.406-.776 3.155-1.27.763-.514 1.071-.967 1.212-1.425.167-.475.256-1.102.164-2.124-.09-1.16-.355-2.677-.667-4.159-.62-3.009-1.46-6.156-2.347-9.277a357.716 357.716 0 0 0-2.793-9.434c-1.983-6.273-4.03-12.619-6.08-18.848l-.016-.05A6.134 6.134 0 0 1 404 207.156z"/></g><g><path fill="#ffb573" d="M325.918 287.854l-10.397-.83 2.502 11.673s6.801-1.075 10.964-4.615c.47-.4.75-.98.84-1.589.063-.43.027-.874-.125-1.282-.736-1.984-1.507-2.756-3.784-3.357z"/></g><g><path fill="#ffb573" d="M309.867 292.779l1.767 4.855a2.96 2.96 0 0 0 3.573 1.842l2.816-.779-2.502-11.673-4.193 2.09a2.96 2.96 0 0 0-1.461 3.665z"/></g><g><path fill="#263238" d="M396.954 197.633c6.95 2.919 10.257 7.643 15.985 20.78-1.447 8.988-16.608 16.646-16.608 16.646s-5.015-11.39-6.676-18.444c-1.662-7.053.243-21.944 7.299-18.982z"/></g><g><path fill="#263238" d="M376.716 512.62c-.059-.305-.413-.524-.85-.528l-8.779-.13c-.922-.01-1.964.093-2.644.561-2.6 1.79-7.308 3.837-13.214 4.72-1.867.278-1.02 3.426 3.37 3.474 7.261.081 8.576-.468 14.769-.4 5.294.06 2.77.302 6.977.4 1.008.022 1.833-.631 1.697-1.333z"/></g><g><path fill="#263238" d="M437.71 507.292c-.133-.278-.531-.402-.956-.296l-8.525 2.093c-.897.224-1.877.588-2.418 1.213-2.063 2.389-4.916 6.058-10.823 6.941-1.867.278-1.02 3.426 3.37 3.474 7.262.082 8.18-2.62 14.188-4.12 5.139-1.281 2.756-.408 6.853-1.377.98-.232 1.614-1.073 1.304-1.717z"/></g><g><path fill="#fafafa" d="M364.242 213.39c3.225-1.212 12.324-1.933 16.435 1.897 6.716-3.459 10.392-13.335 9.557-19.383-2.98-2.047-5.503-1.696-5.503-1.696s-14.964 9.397-20.489 19.182z"/></g><g><path fill="#fafafa" d="M358.27 213.535s-1.864-7.9 6.963-16.745c-1.06-.695-4.785.635-4.785.635s-10.795 6.117-9.07 18.686c3.24-2.92 6.892-2.576 6.892-2.576z"/></g><g><path fill="#263238" d="M370.74 169.867c.423-.395.835-.848 1.226-1.37a.298.298 0 0 0-.086-.434.349.349 0 0 0-.465.08c-2.849 3.812-7.06 3.739-7.103 3.737-.185-.005-.339.13-.344.301-.006.172.14.315.325.32.163.005 3.554.067 6.447-2.634z"/></g></g><g><g><g><path fill="#407bff" d="M246.85 523.13h-2.47l-10.692-205.715c-.316-6.224-5.457-11.1-11.681-11.1h-37.292c-6.238 0-11.378 4.876-11.694 11.1L162.329 523.13h-2.471l10.704-205.847a14.163 14.163 0 0 1 14.153-13.426h37.292c7.533 0 13.756 5.895 14.14 13.426z"/></g><g opacity=".7"><path fill="#fff" d="M246.85 523.13h-2.47l-10.692-205.715c-.316-6.224-5.457-11.1-11.681-11.1h-37.292c-6.238 0-11.378 4.876-11.694 11.1L162.329 523.13h-2.471l10.704-205.847a14.163 14.163 0 0 1 14.153-13.426h37.292c7.533 0 13.756 5.895 14.14 13.426z"/></g><g><path fill="#407bff" d="M385.961 523.13h-2.471L372.8 317.415c-.318-6.224-5.46-11.1-11.683-11.1h-37.292c-6.237 0-11.378 4.876-11.694 11.1L301.439 523.13h-2.47l10.703-205.847a14.163 14.163 0 0 1 14.153-13.426h37.292c7.532 0 13.756 5.895 14.14 13.426z"/></g><g opacity=".7"><path fill="#fff" d="M385.961 523.13h-2.471L372.8 317.415c-.318-6.224-5.46-11.1-11.683-11.1h-37.292c-6.237 0-11.378 4.876-11.694 11.1L301.439 523.13h-2.47l10.703-205.847a14.163 14.163 0 0 1 14.153-13.426h37.292c7.532 0 13.756 5.895 14.14 13.426z"/></g><g><path fill="#407bff" d="M163.846 307.981v-11.95H381.18v11.95z"/></g><g opacity=".3"><path d="M305.996 307.981v-11.95h75.184v11.95z"/></g></g><g><g><g><path fill="#407bff" d="M323.401 293.144h-102.28c-.793 0-1.442.65-1.442 1.442 0 .795.65 1.444 1.442 1.444h102.28c.793 0 1.443-.65 1.443-1.444 0-.792-.65-1.442-1.443-1.442z"/></g><g opacity=".1"><path fill="#fff" d="M323.401 293.144h-102.28c-.793 0-1.442.65-1.442 1.442 0 .795.65 1.444 1.442 1.444h102.28c.793 0 1.443-.65 1.443-1.444 0-.792-.65-1.442-1.443-1.442z"/></g></g><g><g><path fill="#407bff" d="M297.68 296.03h-82.895c-1.497 0-3.023-1.224-3.391-2.721l-11.669-47.51c-.368-1.498.556-2.722 2.053-2.722h82.896c1.497 0 3.022 1.224 3.39 2.721l11.67 47.51c.368 1.498-.556 2.722-2.053 2.722z"/></g><g opacity=".3"><path fill="#fff" d="M297.68 296.03h-82.895c-1.497 0-3.023-1.224-3.391-2.721l-11.669-47.51c-.368-1.498.556-2.722 2.053-2.722h82.896c1.497 0 3.022 1.224 3.39 2.721l11.67 47.51c.368 1.498-.556 2.722-2.053 2.722z"/></g></g></g><g><g><path fill="#fff" d="M265.474 263.268c1.401 0 2.838.454 3.807 1.082 1.417.921 2.34 2.431 2.937 3.61a4.502 4.502 0 0 1-.564 1.007c-.777 1.035-2.103 1.748-3.735 2.006-1.351.216-2.634.093-3.715-.354-1.202-.498-2.14-1.406-2.575-2.491-.464-1.159-.307-2.491.402-3.397.826-1.056 2.118-1.463 3.443-1.463zm7.764 18.313a.401.401 0 0 0 .38-.269c1.593-4.535 1.407-9.405-.507-13.358l-.019-.041a7.381 7.381 0 0 0 .345-1.652c.194-2.054-.459-3.922-1.886-5.403-1.973-2.045-5.348-3.236-8.649-3.055-1.128.066-2.22.279-3.237.633a.4.4 0 0 0-.248.512c.073.21.301.323.51.247.951-.33 1.967-.53 3.023-.59 3.037-.176 6.206.926 8.024 2.811 1.278 1.325 1.836 2.93 1.663 4.769a6.8 6.8 0 0 1-.097.676c-.636-1.113-1.538-2.352-2.823-3.184-2.19-1.423-6.301-2.019-8.317.558-.883 1.128-1.084 2.772-.518 4.191.515 1.285 1.614 2.355 3.014 2.934 1.218.505 2.652.645 4.15.408 1.837-.293 3.348-1.117 4.25-2.319.131-.174.252-.358.362-.555 1.566 3.653 1.646 8.042.2 12.152a.404.404 0 0 0 .38.535z"/></g><g><path fill="#407bff" d="M281.444 276.142h-18.365l1.916 19.888h14.532z"/></g><g><path fill="#fff" d="M270.798 259.93c-.047-.722.003-2.816 1.861-4.403 1.794-1.534 4.776-2.154 6.05-2.356-.401 1.226-1.475 4.074-3.27 5.608-1.858 1.587-3.931 1.31-4.641 1.151zm1.177.928a6.033 6.033 0 0 0 3.984-1.469c2.512-2.144 3.655-6.42 3.703-6.6a.403.403 0 0 0-.428-.501c-.186.018-4.587.484-7.096 2.628-2.586 2.21-2.129 5.267-2.108 5.395.024.15.13.272.272.318.057.02.72.23 1.673.23z"/></g><g><path fill="#fff" d="M258.06 267.6c1.556-.25 2.617.601 2.956.926-.22.416-.95 1.558-2.513 1.81-1.512.245-3.368-.416-4.141-.732.632-.544 2.189-1.759 3.697-2.003zm-.264 3.31c.266 0 .532-.018.789-.06 2.175-.352 2.951-2.2 2.982-2.276a.26.26 0 0 0-.042-.269c-.055-.063-1.386-1.573-3.547-1.217-2.112.341-4.186 2.322-4.274 2.406a.265.265 0 0 0-.075.23.26.26 0 0 0 .144.192c.097.047 2.104.994 4.023.994z"/></g></g></g><g><g><path fill="#263238" d="M67.537 488.986a.403.403 0 0 1-.401-.364c-3.269-34.303 2.7-125.86 9.678-148.432a.4.4 0 1 1 .766.238c-6.957 22.513-12.909 113.877-9.644 148.118.02.221-.14.418-.361.439z"/></g><g><path fill="#407bff" d="M82.977 460.06H50.642l4.217 63.07h23.9z"/></g><g><path fill="#263238" d="M67.897 363.433c5.495 5.9 3.482 13.092 3.482 13.092s-7.318 1.497-12.812-4.403c-5.494-5.9-7.087-16.964-7.087-16.964s10.922 2.375 16.417 8.275z"/></g><g><path fill="#263238" d="M87.038 394.398c-8.914 5.412-17.492.978-17.492.978s.02-9.657 8.933-15.07c8.913-5.412 23.34-4.529 23.34-4.529s-5.87 13.208-14.781 18.62z"/></g><g><path fill="#407bff" d="M85.32 338.704a5.389 5.389 0 1 1-10.778 0 5.39 5.39 0 1 1 10.778 0z"/></g><g><path fill="#263238" d="M46.255 425.892c8.992 9.73 21.023 7.318 21.023 7.318s3.353-11.805-5.639-21.535c-8.992-9.732-26.925-13.703-26.925-13.703s2.547 18.19 11.54 27.92z"/></g></g></g></g></svg>