<svg xmlns="http://www.w3.org/2000/svg" width="752" height="545" viewBox="0 0 752 545"><g><g><g><path fill="#ebebeb" d="M626.451 501.796v-.375h49.74v.375z"/></g><g><path fill="#ebebeb" d="M484.913 505.871v-.375h13.055v.375z"/></g><g><path fill="#ebebeb" d="M596.127 487.852v-.376h28.82v.376z"/></g><g><path fill="#ebebeb" d="M79.354 490.375v-.376h64.863v.376z"/></g><g><path fill="#ebebeb" d="M157.587 490.375v-.376h9.51v.376z"/></g><g><path fill="#ebebeb" d="M198.006 496.715v-.375H338.68v.375z"/></g><g><path fill="#ebebeb" d="M.577 477.625v-.375h750.846v.375z"/></g><g><g><g><path fill="#f0f0f0" d="M82.5 478.92V242.332h139.783V478.92z"/></g><g><path fill="#e6e6e6" d="M82.5 259.983v-17.651h146.12v17.651z"/></g></g><g><g><g><g><g><g><path fill="#ebebeb" d="M180.39 230.146h-50.383l-7.92-48.643h66.224z"/></g></g><g><g><path fill="#e0e0e0" d="M188.125 182.958l-17.505.047-3.012 47.068 12.782.066z"/></g></g><g><g><path fill="#ebebeb" d="M115.876 182.966a8.67 8.67 0 0 1-8.67-8.67v-20.503a8.67 8.67 0 0 1 8.67-8.67h79.538a8.67 8.67 0 0 1 8.67 8.67v20.503a8.67 8.67 0 0 1-8.67 8.67z"/></g></g><g><g><path fill="#e0e0e0" d="M204.36 160.254v7.565c0 8.362-6.739 15.06-16.612 15.06h-18.842c9.875 0 15.018-6.698 15.018-15.06v-7.565c0-8.362-6.657-15.218-15.018-15.218h20.355c8.36 0 15.098 6.856 15.098 15.218z"/></g></g></g><g><g><g><path fill="#e0e0e0" d="M146.08 205.774v-10.407h18.166v10.407z"/></g></g><g><g><path fill="#f5f5f5" d="M146.08 205.774v-10.407h10.597v10.407z"/></g></g><g><g><path fill="#e0e0e0" d="M203.637 236.444a6.207 6.207 0 0 1-1.827 4.407 6.222 6.222 0 0 1-4.417 1.82h-84.389c-3.45 0-6.244-2.78-6.244-6.227a6.25 6.25 0 0 1 1.828-4.426 6.238 6.238 0 0 1 4.416-1.835h84.39c3.449 0 6.243 2.81 6.243 6.26z"/></g></g><g><g><path fill="#ebebeb" d="M170.762 236.444a6.203 6.203 0 0 1-1.829 4.407 6.221 6.221 0 0 1-4.415 1.82h-51.514c-3.45 0-6.244-2.78-6.244-6.227a6.25 6.25 0 0 1 1.828-4.426 6.238 6.238 0 0 1 4.416-1.835h51.514c3.45 0 6.244 2.81 6.244 6.26z"/></g></g><g><g><path fill="#e0e0e0" d="M164.66 164.116a9.46 9.46 0 0 1-12.11 9.084c-3.936-1.146-6.812-4.777-6.812-9.084 0-4.305 2.876-7.938 6.812-9.084a9.411 9.411 0 0 1 2.649-.377c5.224 0 9.46 4.237 9.46 9.461z"/></g></g><g><g><path fill="#fafafa" d="M159.361 164.116c0 4.307-2.875 7.938-6.811 9.084-3.936-1.146-6.812-4.777-6.812-9.084 0-4.305 2.876-7.938 6.812-9.084 3.936 1.146 6.811 4.779 6.811 9.084z"/></g></g><g><g><path fill="#e0e0e0" d="M139.837 195.178v-12.11h30.274v12.11z"/></g></g><g><g><path fill="#f5f5f5" d="M139.837 195.178v-12.11h21.003v12.11z"/></g></g><g><g><path fill="#e0e0e0" d="M171.67 164.08a3.973 3.973 0 1 1 7.947 0 3.973 3.973 0 0 1-7.947 0z"/></g></g><g><g><path fill="#e0e0e0" d="M185.294 164.08a3.973 3.973 0 1 1 7.946 0 3.973 3.973 0 0 1-7.946 0z"/></g></g><g><g><path fill="#e0e0e0" d="M118.122 164.08a3.973 3.973 0 1 1 7.947 0 3.973 3.973 0 0 1-7.947 0z"/></g></g><g><g><path fill="#fafafa" d="M164.38 203.673v-4.73h15.138v4.73z"/></g></g></g></g></g><g><g><g><path fill="#e0e0e0" d="M170.146 184.433h-30.18a1.419 1.419 0 1 1 0-2.839h30.18a1.419 1.419 0 1 1 0 2.839z"/></g></g><g><g><path fill="#fafafa" d="M178.197 164.08a2.557 2.557 0 0 1-2.553 2.554 2.557 2.557 0 0 1-2.554-2.554 2.557 2.557 0 0 1 2.554-2.554 2.557 2.557 0 0 1 2.553 2.554zm2.84 0a5.399 5.399 0 0 0-5.393-5.392 5.399 5.399 0 0 0-5.392 5.392 5.399 5.399 0 0 0 5.392 5.393 5.399 5.399 0 0 0 5.393-5.393z"/></g></g><g><g><path fill="#fafafa" d="M191.822 164.08a2.557 2.557 0 0 1-2.555 2.554 2.557 2.557 0 0 1-2.554-2.554 2.557 2.557 0 0 1 2.554-2.554 2.557 2.557 0 0 1 2.555 2.554zm2.838 0a5.399 5.399 0 0 0-5.393-5.392 5.399 5.399 0 0 0-5.392 5.392 5.399 5.399 0 0 0 5.392 5.393 5.399 5.399 0 0 0 5.393-5.393z"/></g></g><g><g><path fill="#fafafa" d="M124.65 164.08a2.557 2.557 0 0 1-2.555 2.554 2.557 2.557 0 0 1-2.554-2.554 2.557 2.557 0 0 1 2.554-2.554 2.557 2.557 0 0 1 2.555 2.554zm2.838 0a5.399 5.399 0 0 0-5.393-5.392 5.399 5.399 0 0 0-5.392 5.392 5.399 5.399 0 0 0 5.392 5.393 5.399 5.399 0 0 0 5.393-5.393z"/></g></g><g><g><path fill="#e6e6e6" d="M155.068 161.057a1.42 1.42 0 0 1-1.418-1.42v-4.73a1.419 1.419 0 1 1 2.839 0v4.73c0 .783-.637 1.42-1.421 1.42z"/></g></g></g></g><g><g><path fill="#e6e6e6" d="M93.805 273.016h113.4v194.94h-113.4zm114.902-1.502H92.303v197.944h116.404z"/><path fill="none" stroke="#fafafa" stroke-miterlimit="20" d="M93.805 273.016h113.4v194.94h-113.4zm114.902-1.502H92.303v197.944h116.404z"/></g></g><g><path fill="#e0e0e0" d="M100.018 374.386v-27.525h8.993v27.525z"/></g></g><g><g><g><g><g><g><path fill="#e0e0e0" d="M633.022 436.319l-1.227.152c-.076-.624-7.519-62.91 7.835-113.81 15.26-50.588 4.753-82.822 4.644-83.142l1.172-.396c.11.324 10.74 32.933-4.633 83.896-15.277 50.646-7.867 112.68-7.79 113.3z"/></g></g><g><g><g><path fill="#e0e0e0" d="M646.462 246.455a19.313 19.313 0 0 0-10.343-6.376l.282-1.204a20.553 20.553 0 0 1 11.01 6.79z"/></g></g></g><g><g transform="rotate(-29.462 650.5 253)"><path fill="#e0e0e0" d="M648.222 253.784v-1.236h4.062v1.236z"/></g></g><g><g><path fill="#e0e0e0" d="M645.133 280.325c-3.04-6.971-8.834-12.592-15.894-15.421l.458-1.148c7.362 2.948 13.4 8.808 16.57 16.075z"/></g></g><g><g><path fill="#e0e0e0" d="M641.82 319.238l-1.237.017c-.061-5.027-2.452-9.89-6.395-13.005l.767-.97c4.232 3.346 6.798 8.564 6.864 13.958z"/></g></g><g><g><path fill="#e0e0e0" d="M639.062 329.188l-1.15-.452c1.239-3.147 3.867-5.74 7.03-6.938l.436 1.157c-2.841 1.075-5.203 3.406-6.316 6.233z"/></g></g><g><g><path fill="#e0e0e0" d="M631.052 392.318l-.95-.788c1.503-1.815 2.64-8.72 3.25-12.428.146-.888.27-1.643.375-2.19l1.214.231c-.102.538-.225 1.284-.369 2.16-.912 5.538-1.936 11.103-3.52 13.015z"/></g></g><g><g><path fill="#e0e0e0" d="M630.337 412.142c-1.596-4.882-6.667-8.384-11.797-8.145l-.059-1.233c5.668-.266 11.27 3.6 13.03 8.993z"/></g></g><g><g transform="rotate(-48.222 636 430.5)"><path fill="#e0e0e0" d="M629.36 430.953v-1.235h13.072v1.235z"/></g></g></g><g><g><path fill="#f0f0f0" d="M645.941 361.506c1.974 6.388-11.794 18.55-11.794 18.55s-18.227-2.277-20.202-8.667c-1.973-6.388 2.644-16.843 11.479-19.572 8.836-2.73 18.543 3.3 20.517 9.69z"/></g><g><path fill="#ebebeb" d="M661.22 283.97c-1.748 6.785-14.786 11.606-14.786 11.606s-9.091-10.518-7.343-17.303c1.746-6.784 8.953-14.261 15.063-12.687 6.112 1.572 8.812 11.6 7.066 18.385z"/></g><g><path fill="#f5f5f5" d="M608.9 385.368c8.186 3.187 13.205 17.667 13.205 17.667s-13.488 7.275-21.675 4.087c-8.188-3.189-16.852-12.172-14.514-18.178 2.34-6.007 14.796-6.764 22.985-3.576z"/></g><g><path fill="#e6e6e6" d="M626.85 305.703c1.73 1.286 3.514 2.595 5.596 3.16 2.078.564 4.551.22 5.966-1.407 1.75-2.017 1.28-5.142.177-7.575-2.186-4.82-10.254-13-16.451-10.653-8.946 3.388.722 13.515 4.712 16.475z"/></g><g><path fill="#ebebeb" d="M645.159 317.987c-1.173 1.455-2.42 3.287-1.777 5.043.57 1.557 2.483 2.272 4.121 2.024 1.64-.25 3.065-1.22 4.427-2.165 3.158-2.193 9.632-6.794 5.5-11.098-4.296-4.473-9.798 3.131-12.271 6.196z"/></g><g><path fill="#e0e0e0" d="M618.738 256.745c-1.351.149-2.72 1.053-2.95 2.394-.27 1.566 1.03 2.937 2.29 3.907 3.135 2.416 12.56 8.938 14.663 2.646 1.987-5.945-9.837-9.408-14.003-8.947z"/></g><g><g><path fill="#e6e6e6" d="M636.111 236.047c-1.944.185-3.883-.52-5.834-.396-1.95.123-4.111 1.69-3.679 3.596.401 1.76 2.589 2.349 4.391 2.463a35.16 35.16 0 0 0 9.192-.635c.701-.143 1.462-.35 1.865-.942.788-1.16-.466-2.716-1.807-3.128-1.342-.411-2.856-.275-4.074-.97z"/></g></g><g><g><path fill="#f0f0f0" d="M655.115 249.429c1.952.055 3.841-.777 5.795-.781 1.952-.006 4.214 1.416 3.908 3.346-.283 1.782-2.427 2.515-4.219 2.746a35.04 35.04 0 0 1-9.213-.027c-.708-.096-1.483-.252-1.923-.817-.862-1.105.285-2.74 1.598-3.24 1.31-.499 2.83-.461 4-1.236z"/></g></g><g><g><path fill="#f0f0f0" d="M653.191 393.291c.483-.407 1.03-.826 1.66-.821.838.006 1.503.795 1.66 1.618.154.823-.076 1.664-.316 2.466-1.322 4.427-16.182 36.497-19.602 30.738-2.02-3.404 2.947-14.68 4.412-17.871 2.834-6.17 6.994-11.745 12.186-16.13z"/></g></g></g></g><g><g><path fill="#e6e6e6" d="M644.304 237.267c1.18-2.646 2.456-5.417 4.798-7.121 2.344-1.705 6.1-1.832 7.806.51 1.909 2.618 0 6.597-2.924 7.994-2.923 1.395-6.35.974-9.558.524l-.078-1.428z"/></g></g></g><g><g><path fill="#e6e6e6" d="M654.54 478.761c-15.64 3.157-32.142 3.157-47.782 0L594.29 423.92h72.716z"/></g></g></g><g><g transform="rotate(-80.783 511 100)"><path fill="#f0f0f0" d="M413.52 99.835c0-53.88 43.678-97.558 97.558-97.558 53.88 0 97.558 43.678 97.558 97.558 0 53.88-43.678 97.558-97.558 97.558-53.88 0-97.558-43.678-97.558-97.558z"/></g><g><g><g><path fill="#fff" d="M511.354 199.567c-55.001 0-99.75-44.75-99.75-99.753 0-55.006 44.749-99.755 99.75-99.755v4.39c-52.582 0-95.36 42.78-95.36 95.365 0 52.583 42.778 95.363 95.36 95.363z"/></g></g><g><g><g><g><path fill="#fff" d="M511.354 199.567v-4.39c52.583 0 95.365-42.78 95.365-95.363 0-52.585-42.782-95.365-95.365-95.365V.059c55.005 0 99.756 44.75 99.756 99.755 0 55.004-44.75 99.753-99.756 99.753z"/></g></g><g><g><g><path fill="#fff" d="M562.329 99.835h-4.39c0-32.332-16.407-75.59-47.769-95.71L512.537.43c32.69 20.971 49.792 65.88 49.792 99.405z"/></g></g><g><g><path fill="#fff" d="M512.537 196.264l-2.367-3.697c31.362-20.12 47.77-63.377 47.77-95.709h4.389c0 33.524-17.102 78.435-49.792 99.406z"/></g></g></g><g><g><g><path fill="#fff" d="M464.773 99.814h-4.39c0-33.524 17.101-78.432 49.783-99.41l2.375 3.698c-31.361 20.12-47.768 63.382-47.768 95.712z"/></g></g><g><g><path fill="#fff" d="M510.166 196.242c-32.682-20.974-49.783-65.884-49.783-99.406h4.39c0 32.33 16.407 75.589 47.768 95.71z"/></g></g></g><g><g><path fill="#fff" d="M509.159 197.372V2.253h4.39v195.12z"/></g></g></g></g><g><g><g><path fill="#fff" d="M428.778 50.041v-4.39h165.157v4.39z"/></g></g><g><g><path fill="#fff" d="M413.841 103.67v-4.39h195.03v4.39z"/></g></g><g><g><path fill="#fff" d="M430.96 157.254v-4.39h160.792v4.39z"/></g></g></g></g></g><g><path fill="#f5f5f5" d="M84.838 527.247c0-9.39 130.358-17.004 291.162-17.004 160.805 0 291.162 7.613 291.162 17.004 0 9.392-130.357 17.005-291.162 17.005-160.804 0-291.162-7.613-291.162-17.005z"/></g><g><g><g><g><path fill="#263238" d="M347.837 525.812a7.371 7.371 0 1 0 14.744 0 7.372 7.372 0 0 0-14.744 0z"/></g><g><path fill="#263238" d="M239.56 525.812a7.372 7.372 0 1 1-14.746.002 7.372 7.372 0 0 1 14.745-.002z"/></g><g><path fill="#263238" d="M303.419 523.456a7.372 7.372 0 1 1-7.372-7.373c4.07 0 7.372 3.3 7.372 7.373z"/></g></g><g><g><path fill="#263238" d="M216.125 515.915a3.597 3.597 0 0 0 3.631 2.883l76.884-1.051 71.997 1.63c1.748.05 3.292-1.172 3.613-2.886a3.575 3.575 0 0 0-2.815-4.207l-39.316-7.637a67.19 67.19 0 0 0-12.37-1.154h-42.251c-4.14 0-8.28.39-12.353 1.154l-44.186 7.076a3.576 3.576 0 0 0-2.834 4.192z"/></g></g><g><g><path fill="#263238" d="M283.573 514.622v-75.276h26.15v75.276z"/></g><g><path fill="#263238" d="M287.318 439.714v-48.063h18.643v48.063z"/></g><g opacity=".2"><path d="M305.96 400.565l-18.642 4.695v-13.61h18.643z"/></g></g><g><g><g><path fill="#263238" d="M214.945 391.463v.182h2.535c-.873 0-1.696-.066-2.535-.182z"/></g><g><path fill="#407bff" d="M270.245 185.215L269 170.362l1.064-2.609.21-.479 1.138-2.833 5.876 2.833 9.536 8.121 2.119 11.54zm-46.641-3.041c-.135 1.048-.27 2.098-.406 3.118l-3.296.839h-.015l-9.069 2.323.631-9.367.194-2.699 12.545-11.347.555 4.002.254 1.92s-.659 5.44-1.393 11.211zm188.96 191.048a31.676 31.676 0 0 0-27.264-15.557h-67.419V201.914c0-.12 0-.24-.015-.36l.316.06-2.819-18.9a22.06 22.06 0 0 0-10.282-15.588l-21.732-13.385-11.392-33.214a10.266 10.266 0 0 0-9.698-6.926h-27.203a10.26 10.26 0 0 0-10.059 8.274l-6.07 30.876-11.81 12.35a22.099 22.099 0 0 0-6.115 13.97l-1.11 18.525.195-.06a22.569 22.569 0 0 0-.195 3.014v173.497c0 8.843 6.52 16.188 15.033 17.416h.015c.84.12 1.664.18 2.534.18h184.598c6.73.016 12.2-5.44 12.215-12.17 0-2.219-.6-4.346-1.724-6.25z"/></g><g opacity=".3"><path d="M270.245 185.215L269 170.362l1.064-2.609.21-.479 1.138-2.833 5.876 2.833 9.536 8.121 2.119 11.54zm-46.641-3.041c-.135 1.048-.27 2.098-.406 3.118l-3.296.839h-.015l-9.069 2.323.631-9.367.194-2.699 12.545-11.347.555 4.002.254 1.92s-.659 5.44-1.393 11.211zm188.96 191.048a31.676 31.676 0 0 0-27.264-15.557h-67.419V201.914c0-.12 0-.24-.015-.36l.316.06-2.819-18.9a22.06 22.06 0 0 0-10.282-15.588l-21.732-13.385-11.392-33.214a10.266 10.266 0 0 0-9.698-6.926h-27.203a10.26 10.26 0 0 0-10.059 8.274l-6.07 30.876-11.81 12.35a22.099 22.099 0 0 0-6.115 13.97l-1.11 18.525.195-.06a22.569 22.569 0 0 0-.195 3.014v173.497c0 8.843 6.52 16.188 15.033 17.416h.015c.84.12 1.664.18 2.534.18h184.598c6.73.016 12.2-5.44 12.215-12.17 0-2.219-.6-4.346-1.724-6.25z"/></g></g></g></g><g><g><g><path fill="#407bff" d="M300.107 329.508c20.34-8.599 66.096-2.931 87.369 2.997a9.154 9.154 0 0 0 11.039-5.04c1.667-4.198-1.868-17.143-7.23-18.649-24.843-6.932-73.797-4.523-97.55 5.528-5.128 2.162-7.376 7.623-5.186 11.575a9.17 9.17 0 0 0 11.558 3.59z"/></g></g><g opacity=".3"><g opacity=".3"><path fill="#fff" d="M300.107 329.508c20.34-8.599 66.096-2.931 87.369 2.997a9.154 9.154 0 0 0 11.039-5.04c1.667-4.198-1.868-17.143-7.23-18.649-24.843-6.932-73.797-4.523-97.55 5.528-5.128 2.162-7.376 7.623-5.186 11.575a9.17 9.17 0 0 0 11.558 3.59z"/></g></g><g><g><path fill="#263238" d="M349.737 363.399v-40.42h9.474v40.42z"/></g><g><path fill="#263238" d="M349.737 391.65V322.98h9.474v68.672z"/></g></g></g><g><g><g><g><path fill="#b55b52" d="M390.132 478.914l1.784 32.301 16.099-1.294 1.527-30.662z"/></g><g><g><path fill="#407bff" d="M411.999 508.852a17.126 17.126 0 0 1 5.955-2.389 2.47 2.47 0 0 1 .712.059c.31.037.587.214.75.482.297.446.211.672.112.803-.674 1.051-4.609 1.264-7.53 1.045zm-1.173.553c1.589.212 3.192.284 4.793.213 1.94-.093 3.929-.543 4.53-1.408a1.393 1.393 0 0 0-.104-1.607 1.933 1.933 0 0 0-1.206-.808c-2.64-.592-7.934 2.78-8.166 2.928a.366.366 0 0 0-.161.393c.037.15.16.265.314.289z"/></g><g><path fill="#407bff" d="M414.394 502.895l.211-.028c.667.023.724.29.756.382.146 1.055-2.185 3.82-4.064 5.055a8.702 8.702 0 0 1 1.843-4.883 1.93 1.93 0 0 1 1.254-.526zm-3.767 6.5a.357.357 0 0 0 .256.002.217.217 0 0 0 .153-.02c1.826-.918 5.412-4.482 4.996-6.22-.058-.423-.402-.921-1.425-.974a2.742 2.742 0 0 0-2.026.73c-1.91 1.729-2.123 5.957-2.135 6.154a.371.371 0 0 0 .181.327z"/></g><g><path fill="#263238" d="M409.127 507.298l-17.032.818a1.376 1.376 0 0 0-1.288 1.136l-2.412 14.005a2.283 2.283 0 0 0 2.325 2.685c6.134-.401 11.578-1 19.223-1.358 9.02-.431 6.783.758 17.395.4 6.395-.223 7.214-7.544 4.489-7.77-12.476-.964-13.943-4.648-18.94-8.856a5.481 5.481 0 0 0-3.76-1.06z"/></g></g><g opacity=".1"><path d="M391.374 499.597l17.123-1.151 1.045-20.989-19.41-.345z"/></g><g opacity=".4"><path d="M385.073 357.764c.066.291.134.581.201.872-.477-4.876-1.078-8.915-1.83-11.839-5.504-21.422-62.853-24.996-86.319-25.559l-28.197 3.092s-2.631 22.586 4.087 36.88c6.72 14.293 112.058-3.446 112.058-3.446z"/></g></g><g><g><path fill="#b55b52" d="M351.71 486.617l1.455 32.833 15.911-.58 1.883-34.766z"/></g><g><g><path fill="#407bff" d="M378.602 511.21c.238-.024.478-.014.714.031.31.026.594.194.767.454.312.436.236.665.141.8-.633 1.074-4.557 1.436-7.486 1.325a17.144 17.144 0 0 1 5.864-2.61zm-2.215 3.24c1.935-.165 3.905-.69 4.474-1.578a1.393 1.393 0 0 0-.165-1.6 1.933 1.933 0 0 0-1.236-.763c-2.66-.493-7.824 3.074-8.05 3.231a.37.37 0 0 0-.146.4c.043.148.17.258.324.276 1.595.152 3.2.164 4.8.035z"/></g><g><path fill="#407bff" d="M375.12 507.741c.668-.002.734.263.77.354.187 1.049-2.04 3.897-3.872 5.204a8.705 8.705 0 0 1 1.659-4.948 1.925 1.925 0 0 1 1.234-.572zm-3.73 6.67c.082.03.174.029.255-.006.053.011.107.002.152-.025 1.79-.985 5.242-4.68 4.76-6.402-.073-.42-.435-.905-1.46-.92a2.75 2.75 0 0 0-1.998.805c-1.843 1.8-1.898 6.033-1.903 6.23a.367.367 0 0 0 .194.318z"/></g><g><path fill="#263238" d="M369.812 512.374l-16.99 1.455a1.375 1.375 0 0 0-1.244 1.183l-1.888 14.085a2.284 2.284 0 0 0 2.424 2.596c6.115-.63 11.533-1.433 19.159-2.075 8.998-.768 6.807.504 17.4-.251 6.38-.463 6.927-7.807 4.194-7.932-12.503-.499-14.108-4.124-19.26-8.142a5.489 5.489 0 0 0-3.795-.92z"/></g></g><g opacity=".1"><path d="M369.843 503.836l.899-16.574-18.946.432.77 17.347z"/></g><g><path fill="#407bff" d="M313.465 319.384s100.06-7.66 106.996 19.338c6.936 27-8.44 154.257-8.44 154.257l-24.739 2.09s-3.251-75.146-3.707-137.204c0 0-105.338 17.739-112.057 3.446-6.72-14.295-4.089-36.88-4.089-36.88z"/></g><g><path fill="#263238" d="M313.465 319.384s100.06-7.66 106.996 19.338c6.936 27-8.44 154.257-8.44 154.257l-24.739 2.09s-3.251-75.146-3.707-137.204c0 0-105.338 17.739-112.057 3.446-6.72-14.295-4.089-36.88-4.089-36.88z"/></g><g opacity=".1"><path d="M313.465 319.384s100.06-7.66 106.996 19.338c6.936 27-8.44 154.257-8.44 154.257l-24.739 2.09s-3.251-75.146-3.707-137.204c0 0-105.338 17.739-112.057 3.446-6.72-14.295-4.089-36.88-4.089-36.88z"/></g><g><path fill="#263238" d="M288.193 323.306s100.872-3.906 102.255 23.936c1.08 21.758-17.297 151.017-17.297 151.017l-23.063 1.789s-4.227-77.67-1.345-130.694c0 0-87.049 9.98-102.374-2.268-14.617-11.683-3.234-43.94-3.234-43.94z"/></g></g></g><g><g><g><g><g><g><path fill="#407bff" d="M328.302 256.038a139.107 139.107 0 0 0 42.442 25.416l2.514.949 1.31-6.815-30.503-30.951s-25.326-47.63-39.861-44.973c-17.253 3.154 24.098 56.374 24.098 56.374z"/></g></g><g opacity=".1"><g opacity=".1"><path fill="#fff" d="M328.302 256.038a139.107 139.107 0 0 0 42.442 25.416l2.514.949 1.31-6.815-30.503-30.951s-25.326-47.63-39.861-44.973c-17.253 3.154 24.098 56.374 24.098 56.374z"/></g></g><g><path fill="#b55b52" d="M373.258 282.403l1.31-6.815 18.29-2.982s17.875 8.836 13.808 10.785h-19.755z"/></g></g><g><path fill="#407bff" d="M321.933 321.331a143.09 143.09 0 0 1-45.196 4.538l-32.773-1.943c-.783-6.726-5.815-21.496-12.747-59.57-1.727-19.18-7.097-25.253-.9-54.245-.013-.054-.023-.108-.034-.162-.958-4.91 2.522-9.633 7.771-10.55l.173-.004c4.848-.817 10.931-1.688 16.91-2.141a324.437 324.437 0 0 1 34.302-1.038c3.816.265 7.608.754 11.355 1.467 5.307.838 9.686 4.331 11.411 9.1 5.394 15.38 7.246 52.072 9.728 114.548z"/></g></g></g><g><g><g><path fill="#b55b52" d="M277.475 205.84c-16.963 1.448-23.453-8.557-23.453-8.557 7.232-7.679 3.756-27.711.883-38.689l9.399 7.33 12.812 9.992a44.904 44.904 0 0 0-.642 5.1 21.018 21.018 0 0 0 .036 3.68l-.01.046.023.204c.57 5.124 3.414 9.384 11.457 11.032 0 0 3.954 8.57-10.505 9.863z"/></g><g><path fill="#263238" d="M258.296 175.733a21.558 21.558 0 0 0-8.261-5.996c-2.669-1.09-5.535-1.632-8.214-2.702-2.678-1.069-5.276-2.814-6.419-5.461-.965-2.236-.717-4.954.634-6.98-2.1-1.278-4.21-2.633-5.33-4.82-1.117-2.19-.595-5.408 1.68-6.336-2.212-2.813-3.364-7.504-2.214-10.892 1.15-3.39 4.09-6.11 7.557-6.995 2.155-.551 4.22-2.083 4.996-4.167.775-2.086.808-4.41 1.743-6.429.996-2.147 3.025-3.789 5.333-4.313 2.31-.524 4.847.081 6.672 1.59.745-2.36 2.143-4.387 4.323-5.553 2.182-1.166 4.954-1.28 7.117-.08 2.164 1.198 3.562 3.757 3.179 6.2.844-1.793 3.254-2.289 5.15-1.712 1.897.575 3.337 2.167 4.26 3.92.921 1.755 1.41 3.695 2.046 5.572.635 1.877 1.455 3.759 2.88 5.136 2.215 2.141 5.816 2.69 8.57 1.308.885 1.324.444 3.231-.531 4.491-.976 1.26-2.789 1.796-4.292 1.27 1.14 1.534 1.332 3.617.796 5.45a6.303 6.303 0 0 1-3.759 4.057c-5.125-.888-10.057 2.423-12.449 7.041-2.393 4.62-3.113 9.907-4.918 14.786-1.805 4.877-5.451 10.584-10.55 11.615z"/></g></g><g opacity=".2"><path d="M277.116 175.916a44.904 44.904 0 0 0-.642 5.1 21.018 21.018 0 0 0 .036 3.68l-.01.046.023.204c-4.679-.838-10.98-5.558-11.816-10.312a22.4 22.4 0 0 1-.334-4.738z"/></g></g><g><g><path fill="#fff" d="M250.505 196.12l5.176-2.09a51.855 51.855 0 0 0 20.658 11.845 19.986 19.986 0 0 0-7.067 9.242c-18.283-5.596-18.767-18.997-18.767-18.997z"/></g><g><path fill="#fff" d="M287.9 195.027l-4.918-.875s-1.662 10.219-6.64 11.8c8.87 3.134 10.45 7.417 10.45 7.417 12.49-4.457 1.108-18.342 1.108-18.342z"/></g></g><g><g><g><path fill="#b55b52" d="M244.736 141.854c-.071-10.918 8.721-19.826 19.639-19.896 15.936-.494 27.49 18.672 30.38 32.076a19.51 19.51 0 0 1-.821 11.584c-3.928 10.039-15.25 14.991-25.287 11.063-10.269-3.869-13.897-11.885-21.219-24.994a19.767 19.767 0 0 1-2.692-9.833z"/></g><g><path fill="#263238" d="M240.322 141.185c-.054 4.007 1.649 8.006 4.576 10.743 2.926 2.738 7.03 4.17 11.025 3.848 1.547-.126 2.843-.503 4.034-1.497-2.32-.082-4.574-1.487-6.127-3.213a8.772 8.772 0 0 1-2.2-6.41c1.996-.114 3.945-1.083 5.027-2.763 1.082-1.682 1.305-3.887.582-5.75-.25-.017.734-5.186 1.435-7.219.703-2.033 1.936-3.957 3.771-5.079 1.837-1.122 4.33-1.296 6.103-.078 1.066.732 1.784 1.868 2.76 2.715.978.847 9.552-4.533-1.913-8.481-6.677-2.298-14.481-.618-20.016 3.769-5.534 4.385-8.96 12.354-9.057 19.415z"/></g><g><g><path fill="#263238" d="M287.912 156.881s-4.105.242-14.8 3.676c2.27 3.199 5.439 5.348 10.926 3.586 2.822-.585 4.612-3.607 3.997-6.748a6.55 6.55 0 0 0-.123-.514z"/></g><g><path fill="#e83f3f" d="M280.69 162.083a9.555 9.555 0 0 1 6.476-.156c-.805 1.067-1.895 1.824-3.122 2.17a9.445 9.445 0 0 1-6.463.154c.791-1.076 1.88-1.836 3.108-2.168z"/></g><g><path fill="#fff" d="M287.396 156.94c.039.967-.412 1.859-1.169 2.317a54.7 54.7 0 0 1-9.74 2.116c-1.045.214-2.135-.163-2.905-1.007a83.361 83.361 0 0 1 13.814-3.426z"/></g></g><g opacity=".2"><path d="M283.837 153.47a6.886 6.886 0 0 0 4.788-3.296 44.872 44.872 0 0 1-9.85-7.038z"/></g><g><path fill="#b55b52" d="M248.42 155.088c3.449-1.488 8.463 1.99 10.852 4.871 2.65 3.22 2.349 6.971-1.697 7.085a14.088 14.088 0 0 1-8.86-3.368c-3.127-2.653-3.744-7.1-.294-8.588z"/></g><g><path fill="#263238" d="M270.393 145.08c.735-.313 1.811.426 2.28 1.426.47 1.001.308 2.146-.416 2.476-.724.33-1.66-.354-2.27-1.407-.528-1.102-.326-2.179.406-2.494z"/></g><g><path fill="#263238" d="M282.632 138.913c.733-.315 1.742.307 2.27 1.407.528 1.103.376 2.263-.358 2.577-.734.314-1.753-.323-2.28-1.425-.518-1.084-.366-2.245.368-2.559z"/></g><g><path fill="#263238" d="M278.623 135.155a.754.754 0 0 0 .675-.007 6.07 6.07 0 0 1 5.252-.624.697.697 0 0 0 .93-.323l.013-.033a.732.732 0 0 0-.356-.943 7.398 7.398 0 0 0-6.564.694.732.732 0 0 0-.242.986.895.895 0 0 0 .292.25z"/></g><g><path fill="#263238" d="M265.942 144.387a.754.754 0 0 0 .53-.42c.618-1.75 2-3.121 3.756-3.722a.697.697 0 0 0 .535-.826l-.01-.036a.733.733 0 0 0-.86-.524 7.4 7.4 0 0 0-4.75 4.583c-.133.371.052.781.416.93a.89.89 0 0 0 .383.015z"/></g></g></g><g><g><g><path fill="#407bff" d="M246.611 238.145l1.89-3.988c2.49-5.256 12.917-26.184 17.991-28.403l1.868-1.18 7.082 10.786c-1.22 1.038-14.557 35.49-17.742 42.708-.487 1.105-.925 2.221-1.247 3.385-2.186 7.902-15.622 20.01-24.6-2.717-2.244-4.79-4.3-9.5-6.14-14.26-.952-2.475-1.8-4.8-2.662-7.26l-.875-2.502c-4.151-11.877-4.855-25.487 6.484-32.477l7.625-2.574z"/></g></g></g><g opacity=".1"><g opacity=".1"><g opacity=".1"><path fill="#fff" d="M246.611 238.145l1.89-3.988c2.49-5.256 12.917-26.184 17.991-28.403l1.868-1.18 7.082 10.786c-1.22 1.038-14.557 35.49-17.742 42.708-.487 1.105-.925 2.221-1.247 3.385-2.186 7.902-15.622 20.01-24.6-2.717-2.244-4.79-4.3-9.5-6.14-14.26-.952-2.475-1.8-4.8-2.662-7.26l-.875-2.502c-4.151-11.877-4.855-25.487 6.484-32.477l7.625-2.574z"/></g></g></g><g><g><g><g><g><path fill="#fff" d="M290.14 196.156c.169-.663.56-1.064 1.228-1.216.057-.015.238-.038.456-.05.185 1.034.437 2.019.665 3.004.293 1.302.687 2.565 1.092 3.828.123.36.467 1.362.812 1.766-.108-.086-.6-.458-.744-.565-.733-.59-1.337-1.313-1.886-2.074-.56-.77-1.1-1.578-1.427-2.488-.248-.709-.392-1.436-.195-2.205zm6.791-2.464c-.823-.149-1.626-.354-2.39-.679-.19-.08-.388-.138-.533-.291 0 0 .303-.706 1.02-1.216.288-.2.586-.39.897-.546a10.312 10.312 0 0 1 1.706-.693c.89-.281 1.843-.496 2.762-.664a26.992 26.992 0 0 1 2.7-.338c.845-.07 1.523-.075 2.372-.078 1.011.012 2.184.07 3.18.209 1.075.145 2.13.348 3.15.726.834.32 1.706.729 2.286 1.43-.021.024-.044.038-.065.062-.078.061-.155.123-.231.174a5.63 5.63 0 0 1-.655.392c-.857.452-1.78.769-2.72 1.004-.214.059-.429.118-.645.164-.125.03-.237.06-.362.078-.703.167-1.407.277-2.114.374a21.06 21.06 0 0 1-2.076.21c-.537.03-1.075.084-1.611.115a.358.358 0 0 1-.116-.005c-.01.012-.034.003-.057.003l-.297.018a46.1 46.1 0 0 1-2.137-.027c-.63-.01-1.263-.02-1.898-.075-.727-.063-1.446-.216-2.166-.347zm-10.07 3.124c.053.512.185 1.01.35 1.506.237.72.506 1.416.877 2.084.509.865 1.126 1.634 1.866 2.326.025.021.47.398.496.431.437.422.927.762 1.428 1.1.967.668 2.008 1.193 3.158 1.449.233.055.379.186.494.396.13.28.305.535.458.8.128.235.256.457.36.691.148.349.358.623.691.822.607.378 1.283.569 1.956.702 1.802.38 3.622.505 5.45.401.951-.043 1.89-.097 2.822-.241 1.013-.15 2.011-.356 2.993-.654.778-.24 1.543-.501 2.229-.953.288-.19.539-.398.682-.729.07-.175.094-.337.177-.503.203-.482.404-.964.595-1.446.301-.74.545-1.5.777-2.258.233-.736.478-1.485.63-2.24.15-.777.324-1.545.44-2.331.2-1.32.354-2.65.495-3.989.057-.622.05-1.345.083-1.978-.006-.504-.014-1.02-.167-1.516-.1-.35-.28-.65-.535-.922-.708-.729-1.55-1.232-2.48-1.615-.87-.363-1.789-.575-2.715-.718-.392-.057-.766-.162-1.16-.208-6.705-.868-11.47.701-12.225.928-.79.24-1.566.503-2.328.856a9.252 9.252 0 0 0-1.836 1.195c-.416.358-.795.746-1.04 1.254a2.527 2.527 0 0 0-.198.596c-.066.245-.064.257-.297.212-1.356-.233-2.566.066-3.517 1.108-.356.4-.58.894-.746 1.407-.203.667-.337 1.328-.263 2.037z"/></g><g opacity=".7"><path fill="#fff" d="M293.996 192.72s.3-.708 1.016-1.21c.289-.203.583-.392.897-.553a10.76 10.76 0 0 1 1.712-.695c.883-.275 1.84-.495 2.754-.658a28.18 28.18 0 0 1 2.701-.336c.849-.07 1.524-.081 2.376-.075 1.01.006 2.186.069 3.182.203 1.07.145 2.128.351 3.145.731.833.31 1.704.728 2.284 1.427-.02.02-.04.036-.06.055-.077.07-.154.13-.235.185a5.438 5.438 0 0 1-.648.392c-.864.452-1.78.758-2.718 1.003-.217.058-.434.111-.654.164-.12.027-.24.055-.36.08-.698.154-1.403.274-2.11.372-.688.096-1.382.172-2.078.208-.54.027-1.079.087-1.618.108-.037.002-.072.005-.108.005a13.556 13.556 0 0 1-.305.009c-.018.002-.036.002-.055.002-.709.013-1.42 0-2.131-.019-.632-.015-1.266-.028-1.895-.082-.727-.063-1.455-.209-2.175-.343-.82-.151-1.623-.35-2.389-.68-.185-.078-.387-.138-.528-.293zm-.718.567c1.613 1.327 5.15 1.997 10.913 1.668 5.762-.329 9.199-1.4 10.65-2.9.96-.994.468-2.373-.289-3.188a8.075 8.075 0 0 0-1.38-.72c-.872-.357-1.784-.577-2.715-.716-.389-.06-.77-.163-1.16-.213-6.701-.862-11.475.71-12.22.937-.793.24-1.577.496-2.33.853-.399.19-.775.412-1.134.66-1.161.965-1.52 2.645-.335 3.619z"/></g><g><g><g/></g><g><g/></g></g><g><g><g><path fill="#263238" d="M294.008 192.722c.145.153.343.21.533.291.764.325 1.567.53 2.39.679.72.13 1.439.284 2.166.347.635.055 1.267.064 1.898.075.713.027 1.425.033 2.137.027l.297-.018c.023 0 .047.009.057-.003.035.009.07.007.116.004.536-.03 1.074-.084 1.611-.114a21.058 21.058 0 0 0 2.076-.21 22.332 22.332 0 0 0 2.114-.374c.125-.018.237-.048.362-.078.216-.046.43-.105.646-.164.938-.235 1.862-.552 2.72-1.004.221-.116.444-.244.654-.392.076-.051.153-.113.231-.174.021-.024.044-.038.065-.062-.58-.701-1.452-1.11-2.286-1.43-1.02-.378-2.075-.58-3.15-.726-.996-.139-2.169-.197-3.18-.21-.85.004-1.527.008-2.372.079-.925.077-1.792.171-2.7.338-.92.168-1.871.383-2.762.664-.587.181-1.16.41-1.706.693a7.53 7.53 0 0 0-.898.545c-.716.511-1.02 1.217-1.02 1.217z"/></g></g></g><g opacity=".3"><path d="M293.935 190.935c.218-.258.454-.487.624-.623.93-.742 3.002-1.87 7.2-2.52a21.321 21.321 0 0 1 4.342-.227c3.752.194 6.247 1.063 7.22 1.674.186.116.446.316.69.549.483.456.537 1.205.125 1.727-.082.08-.17.151-.258.216l-.002-.003c-2.224-2.172-8.041-2.253-9.95-2.218-1.902.183-7.672.926-9.633 3.338l-.002.002a2.07 2.07 0 0 1-.282-.185c-.468-.47-.5-1.221-.074-1.73z"/></g></g></g></g></g><g><g><g><path fill="#b55b52" d="M291.018 198.571l1.263 6.164-3.81 4.678s-5.522 4.938-13.029 5.947c-2.623.347-5.184-1.086-6.4-3.446l-.61-1.188a7.671 7.671 0 0 1-.605-1.676c-.754-3.191.327-4.986 2.999-6.854l9.297-8.166c.69-.485 11.293-1.457 11.293-1.457 1.157-.009-.176 4.858-.398 5.998z"/></g></g></g></g></g><g><g><g><path fill="#263238" d="M261.87 363.399v-40.42h9.473v40.42z"/></g><g><path fill="#407bff" d="M261.87 391.65V322.98h9.473v68.672z"/></g><g opacity=".5"><path fill="#fff" d="M261.87 391.65V322.98h9.473v68.672z"/></g></g></g><g><g><path fill="#407bff" d="M212.24 329.508c20.34-8.599 66.096-2.931 87.369 2.997a9.154 9.154 0 0 0 11.039-5.04c1.667-4.198-1.868-17.143-7.23-18.649-24.843-6.932-73.797-4.523-97.55 5.528-5.128 2.162-7.376 7.623-5.186 11.575a9.17 9.17 0 0 0 11.558 3.59z"/></g></g><g opacity=".3"><g opacity=".3"><path fill="#fff" d="M212.24 329.508c20.34-8.599 66.096-2.931 87.369 2.997a9.154 9.154 0 0 0 11.039-5.04c1.667-4.198-1.868-17.143-7.23-18.649-24.843-6.932-73.797-4.523-97.55 5.528-5.128 2.162-7.376 7.623-5.186 11.575a9.17 9.17 0 0 0 11.558 3.59z"/></g></g></g><g><g><g><g><path fill="#407bff" d="M532.012 113.73H336.617a2.84 2.84 0 0 1-2.828-3.088l1.937-22.154a2.84 2.84 0 0 1 2.83-2.592H533.95a2.84 2.84 0 0 1 2.83 3.087l-1.94 22.155a2.84 2.84 0 0 1-2.829 2.592z"/></g><g opacity=".5"><path fill="#fff" d="M532.012 113.73H336.617a2.84 2.84 0 0 1-2.828-3.088l1.937-22.154a2.84 2.84 0 0 1 2.83-2.592H533.95a2.84 2.84 0 0 1 2.83 3.087l-1.94 22.155a2.84 2.84 0 0 1-2.829 2.592z"/></g></g><g><g><text fill="#fff" style="line-height:22px;font-kerning:normal" dominant-baseline="text-before-edge" font-family="'Montserrat-SemiBoldItalic','Montserrat-SemiBoldItalic'" font-size="18" transform="translate(342 87)"><tspan font-family="Montserrat">Https://www...</tspan></text></g></g><g><g><g transform="rotate(-40.682 315.5 96.5)"><path fill="none" stroke="#407bff" stroke-linecap="round" stroke-linejoin="round" stroke-miterlimit="20" stroke-width="3" d="M307.525 96.533c0-4.08 3.613-7.388 8.07-7.388 4.457 0 8.07 3.308 8.07 7.388s-3.613 7.388-8.07 7.388c-4.457 0-8.07-3.308-8.07-7.388z"/></g><g><path fill="none" stroke="#407bff" stroke-linecap="round" stroke-linejoin="round" stroke-miterlimit="20" stroke-width="3" d="M319.822 103.05l6.018 8.278"/></g></g><g opacity=".5"><g opacity=".5"><g opacity=".5"><path fill="#fff" d="M316.275 91.1c1.44 0 2.733.546 3.638 1.536.895.977 1.32 2.291 1.196 3.7-.274 3.104-3.052 5.63-6.193 5.63-1.44 0-2.733-.546-3.639-1.535-.896-.978-1.32-2.292-1.195-3.7.273-3.104 3.051-5.63 6.193-5.63zm-1.36 15.37c5.416 0 10.208-4.368 10.682-9.74.236-2.681-.602-5.216-2.362-7.137-1.769-1.933-4.24-2.997-6.96-2.997-5.415 0-10.207 4.37-10.682 9.738-.237 2.682.602 5.217 2.36 7.14 1.77 1.932 4.243 2.997 6.963 2.997z"/></g></g><g opacity=".5"><g opacity=".5"><path fill="#fff" d="M325.842 113.581a2.254 2.254 0 0 1-1.825-.928L318 104.376a2.254 2.254 0 0 1 .497-3.148 2.256 2.256 0 0 1 3.146.497l6.019 8.278a2.254 2.254 0 0 1-1.82 3.578z"/></g></g></g></g></g><g opacity=".1"><path d="M536.741 88.209a2.611 2.611 0 0 0-.916-.166H340.44a2.855 2.855 0 0 0-2.838 2.598l-1.937 22.15c-.015.256 0 .526.045.766a2.788 2.788 0 0 1-1.923-2.913l1.938-22.15a2.84 2.84 0 0 1 2.823-2.598h195.4a2.84 2.84 0 0 1 2.793 2.313z"/></g></g><g><g><g><g><path fill="#407bff" d="M243.62 302.178l-19.197 231.439h5.827l31.493-231.44z"/></g><g><path fill="#407bff" d="M457.264 302.178l31.492 231.439h5.828l-19.198-231.44z"/></g><g><path fill="#407bff" d="M261.375 533.786h5.827l34.05-231.608h-18.123z"/></g><g><path fill="#407bff" d="M512.56 302.178h-18.122l34.765 231.608h5.827z"/></g><g><path fill="#407bff" d="M529.26 298.524c0-3.056-2.627-5.536-5.869-5.536H211.632c-3.242 0-5.87 2.48-5.87 5.536 0 3.059 2.628 5.536 5.87 5.536h311.76c3.241 0 5.868-2.477 5.868-5.536z"/></g></g><g opacity=".5"><path fill="#fff" d="M529.203 533.786h5.826L512.743 304.06h10.648c3.242 0 5.869-2.477 5.869-5.536 0-3.056-2.627-5.536-5.869-5.536H211.632c-3.242 0-5.87 2.48-5.87 5.536 0 3.059 2.628 5.536 5.87 5.536h31.832l-19.042 229.557h5.828l31.237-229.557h21.465l-21.578 229.726h5.828l33.772-229.726h156.545l31.237 229.557h5.828L475.543 304.06h19.178z"/></g></g><g><g><g><g><g><path fill="#407bff" d="M395.981 288.645h4.024a.768.768 0 0 0 .768-.767v-4.256a.768.768 0 0 0-.769-.767h-2.887a.767.767 0 0 0-.742.57l-1.135 4.255a.767.767 0 0 0 .741.965z"/></g><g><path fill="#407bff" d="M390.422 288.645h4.023a.768.768 0 0 0 .768-.767v-4.256a.768.768 0 0 0-.768-.767h-2.889a.77.77 0 0 0-.742.57l-1.135 4.255a.769.769 0 0 0 .743.965z"/></g><g><path fill="#407bff" d="M384.861 288.645h4.023a.768.768 0 0 0 .77-.767v-4.256a.768.768 0 0 0-.77-.767h-2.887a.767.767 0 0 0-.742.57l-1.135 4.255a.767.767 0 0 0 .741.965z"/></g><g><path fill="#407bff" d="M379.302 288.645h4.023a.769.769 0 0 0 .77-.767v-4.256a.769.769 0 0 0-.77-.767h-2.889a.77.77 0 0 0-.742.57l-1.134 4.255a.767.767 0 0 0 .742.965z"/></g><g><path fill="#407bff" d="M373.743 288.645h4.023a.768.768 0 0 0 .767-.767v-4.256a.768.768 0 0 0-.767-.767h-2.89a.768.768 0 0 0-.741.57L373 287.68a.768.768 0 0 0 .743.965z"/></g><g><path fill="#407bff" d="M368.182 288.645h4.023a.768.768 0 0 0 .77-.767v-4.256a.768.768 0 0 0-.77-.767h-2.888a.767.767 0 0 0-.741.57l-1.136 4.255a.767.767 0 0 0 .742.965z"/></g><g><path fill="#407bff" d="M362.623 288.645h4.023a.768.768 0 0 0 .767-.767v-4.256a.768.768 0 0 0-.767-.767h-2.89a.77.77 0 0 0-.741.57l-1.134 4.255a.767.767 0 0 0 .742.965z"/></g><g><path fill="#407bff" d="M357.064 288.645h4.021a.768.768 0 0 0 .769-.767v-4.256a.768.768 0 0 0-.769-.767h-2.888a.768.768 0 0 0-.741.57l-1.136 4.255a.768.768 0 0 0 .744.965z"/></g><g><path fill="#407bff" d="M351.503 288.645h4.023a.768.768 0 0 0 .769-.767v-4.256a.768.768 0 0 0-.77-.767h-2.887a.767.767 0 0 0-.742.57l-1.135 4.255a.767.767 0 0 0 .742.965z"/></g><g><path fill="#407bff" d="M345.944 288.645h4.023a.768.768 0 0 0 .767-.767v-4.256a.768.768 0 0 0-.767-.767h-2.89a.768.768 0 0 0-.741.57l-1.136 4.255a.769.769 0 0 0 .744.965z"/></g><g><path fill="#407bff" d="M340.383 288.645h4.023a.768.768 0 0 0 .769-.767v-4.256a.768.768 0 0 0-.77-.767h-2.887a.767.767 0 0 0-.742.57l-1.135 4.255a.768.768 0 0 0 .742.965z"/></g><g><path fill="#407bff" d="M334.824 288.645h4.023a.769.769 0 0 0 .768-.767v-4.256a.769.769 0 0 0-.768-.767h-2.888a.77.77 0 0 0-.744.57l-1.133 4.255a.767.767 0 0 0 .742.965z"/></g><g><path fill="#407bff" d="M329.264 288.645h4.023a.768.768 0 0 0 .768-.767v-4.256a.768.768 0 0 0-.768-.767h-2.889a.768.768 0 0 0-.742.57l-1.135 4.255a.768.768 0 0 0 .743.965z"/></g><g><path fill="#407bff" d="M323.704 288.645h4.023a.768.768 0 0 0 .768-.767v-4.256a.768.768 0 0 0-.768-.767h-2.888a.767.767 0 0 0-.742.57l-1.135 4.255a.767.767 0 0 0 .742.965z"/></g><g><path fill="#407bff" d="M318.144 288.645h4.023a.768.768 0 0 0 .768-.767v-4.256a.768.768 0 0 0-.768-.767h-2.889a.77.77 0 0 0-.742.57l-1.134 4.255a.767.767 0 0 0 .742.965z"/></g></g><g opacity=".6"><g opacity=".6"><path fill="#fff" d="M395.981 288.645h4.024a.768.768 0 0 0 .768-.767v-4.256a.768.768 0 0 0-.769-.767h-2.887a.767.767 0 0 0-.742.57l-1.135 4.255a.767.767 0 0 0 .741.965z"/></g><g opacity=".6"><path fill="#fff" d="M390.422 288.645h4.023a.768.768 0 0 0 .768-.767v-4.256a.768.768 0 0 0-.768-.767h-2.889a.77.77 0 0 0-.742.57l-1.135 4.255a.769.769 0 0 0 .743.965z"/></g><g opacity=".6"><path fill="#fff" d="M384.861 288.645h4.023a.768.768 0 0 0 .77-.767v-4.256a.768.768 0 0 0-.77-.767h-2.887a.767.767 0 0 0-.742.57l-1.135 4.255a.767.767 0 0 0 .741.965z"/></g><g opacity=".6"><path fill="#fff" d="M379.302 288.645h4.023a.769.769 0 0 0 .77-.767v-4.256a.769.769 0 0 0-.77-.767h-2.889a.77.77 0 0 0-.742.57l-1.134 4.255a.767.767 0 0 0 .742.965z"/></g><g opacity=".6"><path fill="#fff" d="M373.743 288.645h4.023a.768.768 0 0 0 .767-.767v-4.256a.768.768 0 0 0-.767-.767h-2.89a.768.768 0 0 0-.741.57L373 287.68a.768.768 0 0 0 .743.965z"/></g><g opacity=".6"><path fill="#fff" d="M368.182 288.645h4.023a.768.768 0 0 0 .77-.767v-4.256a.768.768 0 0 0-.77-.767h-2.888a.767.767 0 0 0-.741.57l-1.136 4.255a.767.767 0 0 0 .742.965z"/></g><g opacity=".6"><path fill="#fff" d="M362.623 288.645h4.023a.768.768 0 0 0 .767-.767v-4.256a.768.768 0 0 0-.767-.767h-2.89a.77.77 0 0 0-.741.57l-1.134 4.255a.767.767 0 0 0 .742.965z"/></g><g opacity=".6"><path fill="#fff" d="M357.064 288.645h4.021a.768.768 0 0 0 .769-.767v-4.256a.768.768 0 0 0-.769-.767h-2.888a.768.768 0 0 0-.741.57l-1.136 4.255a.768.768 0 0 0 .744.965z"/></g><g opacity=".6"><path fill="#fff" d="M351.503 288.645h4.023a.768.768 0 0 0 .769-.767v-4.256a.768.768 0 0 0-.77-.767h-2.887a.767.767 0 0 0-.742.57l-1.135 4.255a.767.767 0 0 0 .742.965z"/></g><g opacity=".6"><path fill="#fff" d="M345.944 288.645h4.023a.768.768 0 0 0 .767-.767v-4.256a.768.768 0 0 0-.767-.767h-2.89a.768.768 0 0 0-.741.57l-1.136 4.255a.769.769 0 0 0 .744.965z"/></g><g opacity=".6"><path fill="#fff" d="M340.383 288.645h4.023a.768.768 0 0 0 .769-.767v-4.256a.768.768 0 0 0-.77-.767h-2.887a.767.767 0 0 0-.742.57l-1.135 4.255a.768.768 0 0 0 .742.965z"/></g><g opacity=".6"><path fill="#fff" d="M334.824 288.645h4.023a.769.769 0 0 0 .768-.767v-4.256a.769.769 0 0 0-.768-.767h-2.888a.77.77 0 0 0-.744.57l-1.133 4.255a.767.767 0 0 0 .742.965z"/></g><g opacity=".6"><path fill="#fff" d="M329.264 288.645h4.023a.768.768 0 0 0 .768-.767v-4.256a.768.768 0 0 0-.768-.767h-2.889a.768.768 0 0 0-.742.57l-1.135 4.255a.768.768 0 0 0 .743.965z"/></g><g opacity=".6"><path fill="#fff" d="M323.704 288.645h4.023a.768.768 0 0 0 .768-.767v-4.256a.768.768 0 0 0-.768-.767h-2.888a.767.767 0 0 0-.742.57l-1.135 4.255a.767.767 0 0 0 .742.965z"/></g><g opacity=".6"><path fill="#fff" d="M318.144 288.645h4.023a.768.768 0 0 0 .768-.767v-4.256a.768.768 0 0 0-.768-.767h-2.889a.77.77 0 0 0-.742.57l-1.134 4.255a.767.767 0 0 0 .742.965z"/></g></g></g><g transform="rotate(180 359.5 289)"><path fill="#407bff" d="M314.097 292.45v-6.7h89.955v6.7z"/></g><g opacity=".6" transform="rotate(180 359.5 289)"><path fill="#fff" d="M314.097 292.45v-6.7h89.955v6.7z"/></g></g><g><g><path fill="#407bff" d="M420.617 292.254h26.41v-2.347c0-4.606-3.867-8.268-8.466-8.02l-10.344.558a8.034 8.034 0 0 0-7.6 8.02z"/></g><g opacity=".6"><path fill="#fff" d="M420.617 292.254h26.41v-2.347c0-4.606-3.867-8.268-8.466-8.02l-10.344.558a8.034 8.034 0 0 0-7.6 8.02z"/></g></g><g><g><g><g><path fill="#407bff" d="M336.867 151.07h9.943l-7.345 105.038h-9.944c-1.647 0-2.89-1.336-2.774-2.984l6.928-99.07c.114-1.648 1.544-2.985 3.192-2.985z"/></g><g opacity=".7"><path fill="#fff" d="M336.867 151.07h9.943l-7.345 105.038h-9.944c-1.647 0-2.89-1.336-2.774-2.984l6.928-99.07c.114-1.648 1.544-2.985 3.192-2.985z"/></g></g><g><g><g><path fill="#263238" d="M335.229 256.108H484.26c1.649 0 3.077-1.336 3.193-2.984l6.927-99.07c.116-1.648-1.126-2.985-2.775-2.985H342.574c-1.649 0-3.079 1.337-3.193 2.984l-6.927 99.071c-.116 1.648 1.126 2.984 2.775 2.984z"/></g></g><g><g opacity=".1"><path d="M461.753 251.645c.522 0 .98-.428 1.016-.95l.25-3.567a.876.876 0 0 0-.885-.95c-.522 0-.98.428-1.017.95l-.249 3.567c-.037.522.36.95.885.95z"/></g><g opacity=".1"><path d="M457.353 251.645c.524 0 .982-.428 1.018-.95l.25-3.567a.878.878 0 0 0-.885-.95c-.523 0-.981.428-1.019.95l-.249 3.567a.878.878 0 0 0 .885.95z"/></g><g opacity=".1"><path d="M452.954 251.645c.523 0 .98-.428 1.018-.95l.25-3.567a.878.878 0 0 0-.885-.95c-.524 0-.98.428-1.018.95l-.25 3.567a.878.878 0 0 0 .885.95z"/></g><g opacity=".1"><path d="M469.946 250.842c-1.066 0-1.862-.856-1.787-1.937a2.088 2.088 0 0 1 2.057-1.922c1.066 0 1.877.856 1.802 1.922a2.104 2.104 0 0 1-2.072 1.937zm.33-4.67c-1.501 0-2.823 1.231-2.928 2.733-.105 1.516 1.036 2.748 2.553 2.748 1.502 0 2.808-1.232 2.913-2.748.105-1.502-1.021-2.733-2.538-2.733z"/></g></g><g opacity=".1"><path d="M397.944 246.978c.289-4.137 3.876-7.49 8.013-7.49 4.136 0 7.255 3.353 6.965 7.49-.288 4.136-3.876 7.489-8.011 7.489-4.138 0-7.257-3.353-6.967-7.489zm-4.867-14.116c-2.083 0-3.913 1.635-4.158 3.715l-2.305 19.531h36.362l.426-19.53c.046-2.08-1.555-3.716-3.638-3.716z"/></g></g></g><g><g><path fill="#407bff" d="M403.83 246.978a7.49 7.49 0 1 1 14.981 0 7.49 7.49 0 0 1-14.98 0zm-12.426 45.214h39.833l-2.675-55.615a3.903 3.903 0 0 0-3.897-3.715h-26.688a3.903 3.903 0 0 0-3.898 3.715z"/></g><g opacity=".7"><path fill="#fff" d="M403.83 246.978a7.49 7.49 0 1 1 14.981 0 7.49 7.49 0 0 1-14.98 0zm-12.426 45.214h39.833l-2.675-55.615a3.903 3.903 0 0 0-3.897-3.715h-26.688a3.903 3.903 0 0 0-3.898 3.715z"/></g></g></g></g><g><g><g><path fill="#407bff" d="M476.076 281.763l-11.42-17.106 1.11-.25 11.92 16.994z"/></g></g><g><g><path fill="#407bff" d="M522.868 281.7l11.42-17.106-1.109-.25-11.92 16.994z"/></g></g><g><path fill="#407bff" d="M497.704 278.975h2.006l-.539-27.013h-.928z"/></g><g><path fill="#263238" d="M522.497 281.638l-.643 1.208h-1.338l1.155-1.415z"/></g><g><path fill="#263238" d="M476.406 281.638l.644 1.208h1.338l-1.155-1.415z"/></g><g transform="rotate(-89.758 499 280.5)"><path fill="#263238" d="M497.621 280.776v-1.434h2.167v1.434z"/></g></g><g><g><g><g transform="rotate(180 518.5 290.5)"><path fill="#407bff" d="M515.728 292.375v-3.52h5.651v3.52z"/></g><g transform="rotate(180 480.5 290.5)"><path fill="#407bff" d="M477.397 292.375v-3.52h5.651v3.52z"/></g></g><g><path fill="#407bff" d="M475.421 290.413l12.28 1.329a108.76 108.76 0 0 0 23.433 0l12.278-1.329v-7.62l-9.971-1.294a108.785 108.785 0 0 0-28.049 0l-9.97 1.294z"/></g><g><path fill="#263238" d="M475.421 290.413l12.28 1.329a108.76 108.76 0 0 0 23.433 0l12.278-1.329v-7.62l-9.971-1.294a108.785 108.785 0 0 0-28.049 0l-9.97 1.294z"/></g></g><g><g><path fill="#fff" d="M516.28 286.82a2.274 2.274 0 1 0 4.548.001 2.274 2.274 0 0 0-4.549-.002z"/></g><g><path fill="#407bff" d="M517.193 286.837a1.36 1.36 0 1 1 2.72 0 1.36 1.36 0 0 1-2.72 0z"/></g></g><g><g><path fill="#fff" d="M505.677 286.837a.72.72 0 1 0 1.441-.002.72.72 0 0 0-1.44.002z"/></g><g><path fill="#fff" d="M503.114 286.837a.72.72 0 1 0 1.44-.002.72.72 0 0 0-1.44.002z"/></g><g><path fill="#fff" d="M500.55 286.837a.72.72 0 1 0 1.441-.002.72.72 0 0 0-1.44.002z"/></g><g><path fill="#fff" d="M497.989 286.837a.72.72 0 1 0 1.438.001.72.72 0 0 0-1.438 0z"/></g><g><path fill="#fff" d="M495.424 286.837a.72.72 0 1 0 0 0z"/></g><g><path fill="#fff" d="M492.862 286.837a.72.72 0 1 0 1.438.001.72.72 0 0 0-1.438 0z"/></g><g><path fill="#fff" d="M490.298 286.837a.72.72 0 1 0 1.44 0 .72.72 0 0 0-1.44 0z"/></g></g></g></g></g></g></svg>