<svg xmlns="http://www.w3.org/2000/svg" width="320" height="301" viewBox="0 0 320 301"><g><g><g><path fill="#006e87" d="M.825 150.5C.825 67.381 72.196 0 160.238 0 248.279 0 319.65 67.381 319.65 150.5S248.279 301 160.238 301C72.196 301 .825 233.619.825 150.5z"/></g><g opacity=".33"><path fill="#85a9db" d="M1.33 161.929L318.47 132.44c-.852-6.707-2.126-13.29-3.881-19.697L108.956 98.436l182.186-33.787a153.254 153.254 0 0 0-13.751-16.182L56.68 36.13c-1.159.937-2.33 1.863-3.46 2.83l166.897 24.365L14.616 89.281c-2.582 5.462-4.856 11.079-6.743 16.861l167.18 15.716L.885 152.771c.05 3.078.204 6.128.446 9.158z"/></g><g><path fill="#85a9db" d="M6.579 190.557C25.16 254.224 86.896 301 160.237 301c73.343 0 135.076-46.775 153.66-110.442z"/></g><g opacity=".36"><g opacity=".36"><path fill="#fff" d="M35.064 190.557l-13.326 34.417c6.977 11.542 15.532 22.12 25.375 31.492l26.523-65.909z"/></g><g opacity=".36"><path fill="#fff" d="M100.045 190.557h-16.36l-28.342 73.205a158.275 158.275 0 0 0 11.7 8.81z"/></g><g opacity=".36"><path fill="#fff" d="M176.625 190.557h-38.733l-38.37 99.104a165.29 165.29 0 0 0 33.54 9.155z"/></g><g opacity=".36"><path fill="#fff" d="M203.035 190.557h-16.522l-42.45 109.646c4.79.456 9.638.718 14.542.763z"/></g><g opacity=".36"><path fill="#fff" d="M263.196 190.557l-37.65 97.247c19.443-8.26 36.816-20.088 51.18-34.612l25.203-62.635z"/></g></g><g><g><path fill="#c9d9ef" d="M161.413 158.496s1.889 22.037 0 27.704c-1.889 5.667 3.778 20.149 7.556 20.149s20.556 3.868 22.037 0c1.481-3.869 6.297-13.852 6.297-13.852l1.259-39.668-7.556-19.519-14.983 5.037z"/></g><g><path fill="#c9d9ef" d="M42.41 152.83s-5.037 17.629-3.148 25.185c1.89 7.555-1.476 13.222-.423 18.89 1.053 5.666 1.053 12.64 3.571 12.615 2.52-.023 17.63 3.125 24.557-2.542 6.926-5.666 8.815-25.38 8.815-25.38z"/></g><g><path fill="#fff" d="M278.423 177.594s4.62 14.273 3.778 17.63c-.838 3.358-17.21 4.617-20.987 2.94-3.778-1.68-15.95-20.57-15.95-20.57s-4.62-3.778-7.556-6.296c-2.939-2.519-11.754-1.26-13.013-9.236l-5.876 10.075s13.852 31.482 14.27 33.162c.42 1.68-31.9 4.616-37.358 0-5.458-4.617-20.57-18.051-21.828-25.607-1.26-7.556 0-28.122 0-28.122s-26.025 36.937-66.322 21.408v32.32s-3.357 3.778-18.89 4.199c-15.531.418-18.05-4.815-21.828-9.125-3.778-4.309-34.418-55.52-37.358-72.31-2.939-16.79 13.014-43.234 32.742-58.346 19.728-15.111 47.014-23.508 72.2-14.693 25.185 8.815 38.617-1.26 59.604-.418 20.99.838 29.384 4.196 40.718 17.21 11.334 13.013 6.717 18.889 20.57 29.802 13.851 10.915 25.389 28.963 26.965 35.68 1.577 6.717-.737 6.297 0 15.111.738 8.816 1.156 19.729-3.88 25.186z"/></g><g><path fill="#c9d9ef" d="M260.897 143.384s6.926-15.74-8.186-18.889c-15.111-3.148-11.963 9.445-11.963 9.445s-.194-4.587 10.732-.63c10.923 3.954 9.417 10.074 9.417 10.074z"/></g><g opacity=".44"><path fill="#c9d9ef" d="M269.525 189.225c-3.183-6.997-5.077-17.836-10.502-23.33-3.957-4.004-8-2.435-12.45-4.344-4.835-2.075-6.938-6.828-11.678-9.349-7.788-4.138-15.595-4.188-24.073-3.012-8.27 1.148-20.707 4.047-22.961-6.402-1.708-7.919 3.578-17.442-9.33-15.142-20.74 3.695-27.205 30.238-49.227 33.948-7.775 1.312-16.306-.637-23.007-4.597-7.692-4.543-6.01-12.88-16.719-10.54-17.315 3.778-30.762 16.278-49.205 8.276 10.175 20.131 24.03 42.834 26.49 45.64 3.778 4.309 6.297 9.542 21.829 9.124 15.532-.42 18.889-4.198 18.889-4.198v-32.321c40.297 15.53 66.322-21.408 66.322-21.408s-1.26 20.567 0 28.122c1.259 7.556 16.37 20.99 21.828 25.607 5.458 4.616 37.779 1.68 37.358 0-.418-1.68-14.27-33.162-14.27-33.162l5.876-10.075c1.259 7.977 10.074 6.717 13.013 9.236 2.937 2.518 7.556 6.296 7.556 6.296s12.172 18.89 15.95 20.57c2.317 1.03 9.364.949 14.666-.038-2.454-3.217-5.216-6.395-6.355-8.901z"/></g><g opacity=".44"><path fill="#c9d9ef" d="M235.081 89.865c-3.269-7.85-11.522-17.336-19.934-17.655-8.556-.323-23.894.48-31.52 4.432 15.585 6.443 33.376 6.496 48.936 13.852"/></g><g opacity=".44"><path fill="#c9d9ef" d="M101.597 68.457c-21.793-1.718-58.53 21.277-55.817 45.254 7.327 1.848 13.893-9.344 19.471-13.036 6.508-4.307 13.563-8.52 20.638-11.93 6.28-3.026 37.33-17.17 15.078-19.658"/></g></g><g><g><text fill="#1c3e60" style="line-height:53px;font-kerning:normal" dominant-baseline="text-before-edge" font-family="'AbrilFatface-Regular','AbrilFatface-Regular'" font-size="45" transform="translate(64 205)"><tspan font-family="Abril Fatface" font-style="none" font-weight="400">ALASKA</tspan></text></g></g><g><path fill="#fff" d="M161.038 14.308l3.234 6.552 7.23 1.05-5.232 5.1 1.235 7.202-6.467-3.4-6.467 3.4 1.235-7.201-5.231-5.1 7.23-1.05z"/></g><g><path fill="#fff" d="M257.14 63.09l1.948 3.946 4.356.633-3.152 3.072.744 4.338-3.896-2.048-3.895 2.048.744-4.338-3.152-3.072 4.355-.633z"/></g><g><path fill="#fff" d="M22.852 146.236l1.948 3.947 4.355.632-3.152 3.072.744 4.338-3.895-2.048-3.896 2.048.744-4.338-3.151-3.072 4.355-.632z"/></g><g><path fill="#fff" d="M80.95 34.808l1.947 3.947 4.355.633-3.151 3.072.744 4.338-3.896-2.049-3.896 2.049.744-4.338-3.151-3.072L79 38.755z"/></g><g><path fill="#fff" d="M303.164 135.51l1.948 3.946 4.356.633-3.152 3.072.744 4.338-3.896-2.048-3.895 2.048.744-4.338-3.152-3.072 4.356-.633z"/></g></g></g></svg>