<?xml version="1.0" standalone="no"?>
<!DOCTYPE svg PUBLIC "-//W3C//DTD SVG 20010904//EN"
 "http://www.w3.org/TR/2001/REC-SVG-20010904/DTD/svg10.dtd">
<svg version="1.0" xmlns="http://www.w3.org/2000/svg"
 width="568.000000pt" height="791.000000pt" viewBox="0 0 568.000000 791.000000"
 preserveAspectRatio="xMidYMid meet">

<g transform="translate(0.000000,791.000000) scale(0.100000,-0.100000)"
fill="#000000" stroke="none">
<path d="M1278 6881 c-31 -10 -72 -28 -92 -40 -55 -34 -123 -116 -148 -179
l-23 -57 0 -2650 0 -2650 24 -60 c33 -82 124 -173 206 -206 l60 -24 1540 0
1540 0 58 27 c75 35 160 117 194 187 l28 56 0 2670 0 2670 -29 58 c-37 72
-118 150 -193 185 l-58 27 -1525 2 c-1450 2 -1528 1 -1582 -16z m1768 -495
c162 -35 374 -137 374 -181 0 -7 -12 -28 -26 -45 -82 -97 -366 -159 -669 -147
-174 7 -295 31 -384 76 -139 71 -116 135 82 226 191 88 419 114 623 71z m-886
-255 c-19 -36 -12 -125 13 -161 78 -115 225 -156 527 -147 261 8 453 48 625
132 108 52 162 95 185 147 l17 39 57 -61 c68 -74 88 -111 88 -161 -3 -194
-393 -326 -857 -290 -395 32 -684 129 -772 260 -44 65 -30 100 86 224 40 42
46 46 31 18z m1634 -403 c42 -126 33 -205 -33 -280 -135 -154 -523 -237 -973
-209 -423 27 -711 116 -866 266 l-65 64 6 53 c3 29 17 82 30 118 25 64 26 64
26 27 3 -157 216 -296 524 -341 193 -29 430 -15 677 40 362 81 594 206 626
338 8 35 14 27 48 -76z m46 -471 c-15 -96 -38 -144 -99 -204 -128 -126 -361
-201 -699 -223 -414 -28 -778 49 -1029 216 -135 90 -164 134 -177 274 l-6 64
27 -53 c17 -32 57 -81 100 -121 187 -174 506 -250 881 -209 409 44 867 224
981 385 l26 37 3 -48 c2 -26 -2 -79 -8 -118z m-105 -326 c-94 -179 -253 -284
-529 -349 -101 -24 -130 -26 -311 -26 -141 0 -228 5 -295 17 -279 48 -494 153
-609 297 -38 47 -34 46 39 -12 183 -145 535 -220 885 -189 347 31 643 134 789
273 34 31 62 57 64 58 2 0 -13 -31 -33 -69z m-310 -355 c-50 -41 -195 -112
-280 -139 -248 -78 -519 -56 -750 59 -49 25 -101 54 -115 65 l-25 20 30 -14
c182 -88 551 -123 817 -78 105 18 260 65 318 97 37 20 39 17 5 -10z m1143
-1958 l-3 -1283 -23 -50 c-28 -61 -62 -98 -122 -133 l-45 -27 -1515 -3 c-1712
-3 -1572 -9 -1659 78 -87 87 -81 -24 -81 1422 l0 1278 1725 0 1725 0 -2 -1282z"/>
<path d="M2981 3258 c-63 -32 -83 -64 -83 -128 0 -43 6 -61 32 -98 l32 -45
-29 -23 c-15 -13 -31 -23 -34 -24 -12 0 -57 -76 -64 -107 -9 -45 10 -106 46
-141 74 -73 224 -66 310 14 l25 24 39 -40 c37 -38 42 -40 98 -40 l59 0 -71 77
-70 77 18 25 c15 21 65 111 79 144 2 4 -17 7 -42 7 -45 0 -45 0 -78 -60 -18
-33 -35 -59 -38 -57 -3 1 -29 28 -58 59 l-54 57 29 15 c16 8 46 33 66 55 31
34 37 48 37 86 0 88 -47 133 -148 142 -46 4 -65 0 -101 -19z m137 -74 c36 -25
29 -70 -18 -116 -23 -21 -45 -38 -49 -38 -5 0 -20 15 -35 34 -51 67 -26 136
49 136 17 0 41 -7 53 -16z m26 -415 c-22 -25 -77 -49 -111 -49 -15 0 -42 9
-60 20 -59 36 -52 119 14 168 l28 21 72 -72 c67 -66 71 -72 57 -88z"/>
<path d="M2032 3218 c-11 -29 -63 -167 -116 -307 -53 -139 -96 -255 -96 -257
0 -2 24 -4 53 -4 l53 0 26 73 25 72 124 3 124 2 26 -72 25 -73 57 -3 57 -3
-19 48 c-10 26 -63 166 -117 310 l-99 263 -52 0 -52 0 -19 -52z m158 -320 c0
-4 -40 -8 -90 -8 -49 0 -90 1 -90 3 0 3 69 199 86 247 5 12 94 -218 94 -242z"/>
<path d="M2340 3225 l0 -45 95 0 95 0 0 -265 0 -265 55 0 55 0 0 265 0 265 95
0 95 0 0 45 0 45 -245 0 -245 0 0 -45z"/>
<path d="M3370 3225 l0 -44 98 -3 97 -3 3 -262 2 -263 50 0 50 0 0 265 0 265
95 0 95 0 0 45 0 45 -245 0 -245 0 0 -45z"/>
<path d="M3140 2080 l0 -330 50 0 50 0 0 330 0 330 -50 0 -50 0 0 -330z"/>
<path d="M1560 2060 l0 -312 153 4 c172 5 201 14 272 79 59 55 85 124 85 228
0 96 -20 157 -70 214 -64 73 -118 90 -292 95 l-148 4 0 -312z m304 195 c80
-38 121 -143 98 -252 -23 -111 -96 -162 -234 -163 l-68 0 0 221 0 222 83 -5
c49 -3 99 -13 121 -23z"/>
<path d="M2261 2198 c-140 -69 -161 -297 -37 -406 60 -52 155 -66 252 -37 74
23 77 25 60 67 l-15 35 -58 -19 c-67 -23 -128 -18 -167 13 -26 20 -56 68 -56
89 0 6 55 10 160 10 l160 0 0 48 c0 97 -46 179 -117 208 -49 21 -131 17 -182
-8z m158 -74 c21 -15 51 -70 51 -94 0 -6 -43 -10 -115 -10 -63 0 -115 2 -115
5 0 21 32 75 55 93 33 26 91 29 124 6z"/>
<path d="M2750 2214 c-29 -10 -90 -37 -90 -39 0 -2 7 -18 15 -37 l14 -35 58
19 c102 35 167 11 180 -65 l6 -37 -100 0 c-88 0 -104 -3 -134 -23 -61 -41 -75
-151 -28 -211 40 -51 153 -59 227 -16 28 17 37 18 43 8 5 -7 9 -16 9 -20 0 -5
18 -8 41 -8 l41 0 -4 178 c-3 155 -5 181 -23 211 -36 60 -66 76 -158 78 -45 1
-89 0 -97 -3z m180 -309 c0 -44 -2 -47 -42 -65 -55 -25 -89 -25 -122 1 -31 25
-34 61 -6 89 16 16 33 20 95 20 l75 0 0 -45z"/>
<path d="M3455 2203 c-87 -45 -130 -129 -123 -239 11 -166 134 -251 309 -215
82 17 95 29 80 74 l-12 36 -37 -16 c-47 -20 -128 -22 -169 -4 -34 14 -73 65
-73 95 0 14 19 16 161 16 l162 0 -6 65 c-13 136 -82 205 -204 205 -33 -1 -71
-8 -88 -17z m160 -85 c15 -14 28 -38 32 -60 l6 -38 -112 0 c-74 0 -111 4 -111
11 0 26 35 81 59 94 40 22 96 19 126 -7z"/>
<path d="M4020 2213 c-8 -3 -27 -14 -42 -24 -33 -24 -34 -24 -41 1 -4 16 -14
20 -46 20 l-41 0 0 -230 0 -230 50 0 50 0 0 170 0 170 40 20 c22 11 59 20 85
20 43 0 45 1 45 29 0 16 3 36 6 45 5 13 -2 16 -42 15 -27 0 -56 -3 -64 -6z"/>
</g>
</svg>
