<?xml version="1.0" standalone="no"?>
<!DOCTYPE svg PUBLIC "-//W3C//DTD SVG 20010904//EN"
 "http://www.w3.org/TR/2001/REC-SVG-20010904/DTD/svg10.dtd">
<svg version="1.0" xmlns="http://www.w3.org/2000/svg"
 width="1396.000000pt" height="491.000000pt" viewBox="0 0 1396.000000 491.000000"
 preserveAspectRatio="xMidYMid meet">

<g transform="translate(0.000000,491.000000) scale(0.100000,-0.100000)"
fill="#000000" stroke="none">
<path d="M4204 2861 c-281 -80 -360 -364 -169 -606 17 -22 34 -45 38 -51 4 -7
-19 -28 -57 -53 -84 -55 -161 -137 -194 -208 -24 -51 -27 -70 -27 -158 0 -121
18 -167 96 -250 89 -94 199 -135 369 -135 163 0 279 39 377 125 l48 43 75 -74
76 -74 179 2 180 3 -164 172 -163 173 55 92 c30 51 84 146 120 211 l66 117
-144 0 -144 0 -24 -42 c-13 -24 -43 -78 -67 -121 l-44 -77 -34 32 c-71 69
-177 191 -167 195 31 10 143 92 185 135 99 101 129 221 86 347 -22 63 -89 137
-154 170 -100 51 -281 66 -398 32z m232 -227 c51 -34 70 -115 40 -173 -15 -29
-75 -87 -122 -117 l-27 -18 -34 39 c-95 109 -103 215 -21 265 42 25 128 27
164 4z m-61 -750 c135 -143 137 -145 119 -166 -40 -43 -103 -71 -174 -76 -61
-4 -76 -1 -122 22 -71 35 -91 66 -96 142 -5 77 12 117 78 178 27 26 51 46 54
46 2 0 66 -66 141 -146z"/>
<path d="M1989 2833 c-6 -16 -116 -309 -244 -653 -128 -344 -244 -655 -259
-692 l-25 -68 174 0 174 0 44 138 44 137 261 3 261 2 41 -132 c23 -73 45 -136
49 -141 4 -4 84 -6 178 -5 l170 3 -266 715 -267 715 -162 3 -162 2 -11 -27z
m256 -591 l81 -257 -164 -3 c-91 -1 -167 -1 -169 1 -5 6 161 526 166 521 3 -3
41 -120 86 -262z"/>
<path d="M2617 2853 c-4 -3 -7 -69 -7 -145 l0 -138 215 0 215 0 0 -575 0 -575
165 0 165 0 0 575 0 575 210 0 210 0 0 145 0 145 -583 0 c-321 0 -587 -3 -590
-7z"/>
<path d="M4930 2715 l0 -145 215 0 215 0 0 -575 0 -575 160 0 160 0 0 575 0
575 215 0 215 0 0 145 0 145 -590 0 -590 0 0 -145z"/>
</g>
</svg>
