<?xml version="1.0" standalone="no"?>
<!DOCTYPE svg PUBLIC "-//W3C//DTD SVG 20010904//EN"
 "http://www.w3.org/TR/2001/REC-SVG-20010904/DTD/svg10.dtd">
<svg version="1.0" xmlns="http://www.w3.org/2000/svg"
 width="1440.000000pt" height="810.000000pt" viewBox="0 0 1440.000000 810.000000"
 preserveAspectRatio="xMidYMid meet">

<g transform="translate(0.000000,810.000000) scale(0.100000,-0.100000)"
fill="#000000" stroke="none">
<path d="M0 4050 l0 -4050 7200 0 7200 0 0 4050 0 4050 -7200 0 -7200 0 0
-4050z m8772 662 l477 -2 11 -43 c6 -23 19 -67 30 -97 10 -30 35 -111 55 -180
20 -69 43 -141 50 -160 8 -19 17 -46 20 -60 4 -14 19 -68 35 -120 16 -52 34
-114 40 -138 9 -36 14 -41 25 -32 8 6 21 37 30 68 9 32 26 91 39 132 13 41 39
124 57 184 25 81 35 103 41 90 6 -14 7 -11 3 8 -3 16 5 61 19 105 13 43 35
114 49 158 l25 80 256 3 c276 3 270 4 242 -49 -7 -15 -22 -51 -31 -80 -10 -30
-21 -58 -25 -64 -4 -5 -15 -35 -25 -65 -10 -30 -21 -59 -25 -65 -4 -5 -15 -32
-24 -60 -29 -89 -63 -165 -70 -158 -4 4 -4 0 -1 -8 3 -9 0 -29 -6 -45 -7 -16
-22 -56 -34 -89 -12 -33 -48 -127 -79 -210 -32 -82 -66 -172 -76 -200 -10 -27
-33 -86 -50 -130 -17 -44 -41 -108 -53 -143 -14 -40 -26 -61 -34 -58 -7 3 -10
-1 -6 -10 4 -12 -30 -14 -239 -14 l-244 0 -16 48 c-20 58 -95 256 -112 297 -8
17 -19 48 -26 70 -7 22 -18 54 -26 70 -14 33 -57 146 -79 210 -8 22 -40 110
-72 195 l-59 155 -287 3 -287 2 0 -282 c0 -404 -11 -389 289 -389 99 0 182 -3
184 -7 2 -4 -13 -50 -33 -102 -20 -52 -52 -135 -71 -184 l-33 -88 -221 4
c-215 4 -222 5 -290 33 -38 16 -92 45 -119 64 -59 42 -131 137 -148 194 -6 23
-16 48 -22 56 -8 10 -12 232 -14 705 l-3 691 123 33 c68 18 154 43 193 54 38
12 86 22 105 22 19 1 40 8 45 16 7 10 12 -52 15 -200 l5 -215 477 -3z m-2381
8 c146 -40 227 -205 162 -334 -22 -43 -89 -111 -144 -146 -27 -18 -49 -35 -49
-39 0 -4 33 -43 73 -87 l74 -78 38 69 c69 127 51 115 170 115 58 0 105 -3 105
-8 0 -4 -38 -74 -85 -155 -47 -81 -85 -150 -85 -153 0 -3 51 -60 113 -126 61
-66 114 -124 115 -129 2 -5 -53 -9 -131 -9 l-135 0 -50 55 -50 54 -38 -30
c-94 -75 -203 -106 -331 -95 -238 20 -371 214 -284 411 22 50 105 136 154 161
18 9 34 18 36 20 2 2 -13 25 -33 52 -73 100 -93 188 -64 284 24 82 116 156
219 178 49 10 164 5 220 -10z m-1635 -65 c148 -396 363 -975 369 -993 l7 -23
-133 3 -132 3 -32 100 -32 100 -195 3 -196 2 -34 -102 -33 -103 -127 -3 c-71
-1 -128 1 -128 6 0 9 148 417 175 482 8 19 44 114 79 210 96 259 135 360 141
371 4 6 55 8 128 7 l121 -3 22 -60z m1079 -45 l0 -105 -158 -5 -158 -5 -2
-425 -2 -425 -122 -3 -123 -3 0 431 0 430 -160 0 -160 0 0 110 0 110 443 -2
442 -3 0 -105z m1740 0 l0 -105 -157 -3 -158 -3 -2 -427 -3 -427 -120 0 -120
0 -3 427 -2 427 -158 3 -157 3 -3 94 c-1 52 0 101 2 108 5 11 85 13 443 11
l438 -3 0 -105z"/>
<path d="M6210 4552 c-48 -23 -66 -63 -51 -112 11 -38 57 -105 78 -114 7 -3
38 19 68 48 47 46 55 60 55 91 0 49 -15 74 -55 91 -44 18 -53 18 -95 -4z"/>
<path d="M6112 4044 c-50 -56 -61 -106 -36 -159 20 -42 45 -62 98 -76 51 -14
123 3 167 40 l33 28 -98 107 c-54 58 -104 106 -111 106 -7 0 -31 -20 -53 -46z"/>
<path d="M4546 4268 c-32 -100 -60 -187 -63 -195 -4 -10 20 -13 121 -13 69 0
126 3 126 8 0 4 -25 84 -55 177 -30 94 -55 175 -55 182 0 6 -4 14 -8 17 -5 3
-35 -76 -66 -176z"/>
</g>
</svg>
