<?xml version="1.0" standalone="no"?>
<!DOCTYPE svg PUBLIC "-//W3C//DTD SVG 20010904//EN"
 "http://www.w3.org/TR/2001/REC-SVG-20010904/DTD/svg10.dtd">
<svg version="1.0" xmlns="http://www.w3.org/2000/svg"
 width="1248.000000pt" height="502.000000pt" viewBox="0 0 1248.000000 502.000000"
 preserveAspectRatio="xMidYMid meet">

<g transform="translate(0.000000,502.000000) scale(0.100000,-0.100000)"
fill="#000000" stroke="none">
<path d="M1289 3996 c-103 -27 -199 -111 -247 -214 l-27 -57 0 -1215 0 -1215
31 -65 c38 -80 105 -149 182 -187 l57 -28 4955 0 4955 0 57 28 c79 39 143 104
181 185 l32 67 0 1215 0 1215 -27 57 c-37 80 -107 152 -187 191 l-66 32 -4925
2 c-3881 1 -4935 -1 -4971 -11z m9883 -106 c53 -15 118 -68 153 -125 l30 -48
3 -1194 2 -1194 -21 -49 c-24 -55 -88 -120 -146 -147 -36 -17 -194 -18 -3518
-18 l-3480 0 -3 1393 -2 1392 3472 0 c2362 0 3485 -3 3510 -10z m-8381 -390
c128 -24 323 -106 369 -156 50 -52 -12 -113 -165 -163 -145 -47 -220 -56 -440
-55 -212 0 -294 11 -410 55 -57 21 -135 83 -135 107 0 26 57 74 138 115 121
62 211 89 367 111 44 6 213 -2 276 -14z m-874 -288 c-23 -87 24 -172 125 -221
87 -43 193 -61 358 -61 372 0 722 101 848 244 17 20 32 47 32 59 0 18 8 13 56
-33 78 -77 108 -130 101 -181 -16 -122 -175 -220 -427 -265 -189 -34 -544 -19
-770 32 -317 72 -514 215 -444 322 15 23 123 142 129 142 1 0 -2 -17 -8 -38z
m1642 -376 c47 -144 40 -197 -42 -283 -132 -140 -397 -207 -807 -206 -392 1
-697 61 -908 179 -77 43 -168 129 -178 168 -4 16 4 59 22 117 l28 92 12 -51
c22 -99 95 -172 236 -236 136 -62 311 -96 496 -96 282 0 670 87 887 198 103
53 192 133 201 181 4 17 10 31 14 31 4 0 22 -42 39 -94z m52 -408 c-15 -148
-32 -191 -106 -263 -134 -133 -350 -202 -705 -225 -479 -32 -929 90 -1131 307
-48 51 -69 109 -69 190 l0 36 38 -59 c136 -209 444 -325 827 -311 252 10 529
69 757 162 194 80 349 185 379 256 19 47 22 22 10 -93z m-111 -386 c-100 -189
-277 -301 -568 -359 -107 -22 -425 -24 -547 -4 -304 50 -534 164 -645 321 -24
35 -24 35 25 -8 101 -89 252 -154 448 -194 137 -29 439 -31 602 -4 296 47 530
139 661 260 27 25 50 45 52 46 2 0 -11 -26 -28 -58z m-290 -342 c-43 -33 -151
-94 -218 -123 -263 -112 -585 -99 -843 34 -115 60 -123 71 -29 39 140 -47 223
-61 415 -67 259 -8 455 24 619 101 84 40 89 42 56 16z"/>
<path d="M9535 2927 c-3 -6 -4 -188 -3 -402 l3 -390 58 -3 57 -3 0 406 0 405
-55 0 c-35 0 -57 -5 -60 -13z"/>
<path d="M6215 2871 c-119 -55 -139 -178 -49 -297 27 -35 27 -36 8 -46 -10 -6
-42 -34 -70 -63 -40 -40 -54 -63 -62 -100 -13 -59 4 -134 39 -171 88 -94 267
-97 370 -5 l44 39 52 -49 c51 -48 53 -49 117 -49 36 0 66 3 66 8 0 4 -36 43
-80 87 -44 44 -80 83 -80 87 0 5 27 55 60 112 33 57 60 107 60 111 0 3 -25 5
-56 3 l-57 -3 -40 -72 c-23 -40 -44 -73 -47 -73 -4 0 -35 31 -69 69 l-61 69
34 21 c46 29 114 104 122 136 10 39 -2 105 -23 134 -49 67 -189 93 -278 52z
m154 -86 c69 -35 46 -123 -48 -178 l-30 -18 -31 43 c-39 54 -47 85 -29 117 27
48 86 63 138 36z m-20 -405 l82 -89 -42 -30 c-71 -52 -149 -53 -201 -4 -23 22
-28 35 -28 76 0 45 4 54 44 93 24 24 48 44 53 44 5 0 46 -40 92 -90z"/>
<path d="M5085 2868 c-3 -7 -66 -174 -140 -371 -74 -197 -135 -361 -135 -363
0 -2 29 -4 64 -4 l64 0 29 88 30 87 154 3 154 2 30 -87 30 -88 63 -3 c48 -2
62 0 62 11 0 8 -57 165 -126 348 -69 184 -131 346 -136 362 -9 26 -13 27 -74
27 -43 0 -66 -4 -69 -12z m174 -435 c1 -10 -27 -13 -109 -13 -60 0 -110 2
-110 4 0 4 93 272 106 306 5 13 112 -267 113 -297z"/>
<path d="M5440 2825 l0 -55 115 0 115 0 2 -317 3 -318 60 0 60 0 3 318 2 317
120 0 120 0 0 55 0 55 -300 0 -300 0 0 -55z"/>
<path d="M6690 2825 l0 -55 115 0 115 0 2 -317 3 -318 60 0 60 0 3 318 2 317
115 0 115 0 0 55 0 55 -295 0 -295 0 0 -55z"/>
<path d="M7622 2508 l3 -373 165 0 c133 0 175 4 219 18 158 53 235 171 234
357 0 130 -25 195 -103 272 -84 82 -140 98 -356 98 l-164 0 2 -372z m376 234
c138 -73 165 -321 45 -434 -47 -45 -92 -58 -198 -58 l-95 0 0 261 0 261 103
-4 c80 -3 111 -9 145 -26z"/>
<path d="M8533 2700 c-51 -12 -118 -56 -146 -97 -68 -98 -77 -241 -21 -343 70
-128 230 -172 397 -110 31 12 57 23 57 26 0 13 -33 84 -40 84 -4 0 -25 -7 -46
-16 -51 -21 -160 -22 -201 -1 -36 19 -68 61 -78 100 l-7 27 190 0 191 0 6 33
c9 48 -11 143 -39 192 -51 86 -159 130 -263 105z m112 -104 c40 -17 64 -50 72
-100 l6 -36 -138 0 -137 0 7 28 c11 45 43 89 78 106 40 19 68 20 112 2z"/>
<path d="M9110 2703 c-56 -9 -150 -45 -150 -58 0 -12 28 -85 33 -85 1 0 26 9
55 20 62 24 142 26 181 5 28 -14 51 -58 51 -96 0 -17 -9 -19 -88 -19 -155 0
-228 -37 -252 -129 -31 -116 45 -220 161 -221 48 0 131 25 163 51 28 22 25 23
41 -26 3 -10 18 -15 50 -15 l45 0 0 196 c0 113 -5 214 -11 240 -26 104 -141
160 -279 137z m170 -378 c0 -52 -2 -57 -32 -75 -43 -26 -111 -35 -147 -20 -36
15 -56 57 -42 91 17 47 40 55 154 58 l67 1 0 -55z"/>
<path d="M9942 2691 c-138 -48 -210 -208 -167 -368 15 -55 27 -76 69 -119 64
-66 134 -90 237 -81 67 6 169 41 169 59 0 12 -28 78 -33 78 -3 0 -21 -7 -42
-16 -51 -21 -162 -21 -208 1 -36 17 -68 57 -82 103 l-6 22 195 0 196 0 0 58
c0 135 -64 235 -169 266 -69 20 -93 20 -159 -3z m175 -125 c24 -26 33 -45 33
-71 l0 -35 -136 0 -135 0 7 23 c27 88 82 131 159 122 30 -3 48 -13 72 -39z"/>
<path d="M10602 2691 c-28 -10 -60 -25 -70 -34 -25 -23 -30 -21 -34 11 -3 25
-6 27 -53 27 l-50 0 0 -280 0 -280 57 -3 58 -3 2 207 3 208 34 20 c20 11 62
22 100 25 l66 6 7 50 c10 71 -17 82 -120 46z"/>
</g>
</svg>
