<svg xmlns="http://www.w3.org/2000/svg" width="38" height="58" viewBox="0 0 38 58"><g><g><g><path fill="#396ab3" d="M23.292 30.315l-3.399 3.399c-1.575 1.575-3.995-.811-2.404-2.404l1.733-1.731-4.69-2.344a1.702 1.702 0 0 1-.441-2.722l3.398-3.399c1.589-1.588 3.995.813 2.404 2.404l-1.732 1.731 4.689 2.344a1.702 1.702 0 0 1 .442 2.722zm12.392-19.893h-5.098V1.699a1.7 1.7 0 0 0-3.399 0v8.723H10.195V1.699a1.7 1.7 0 0 0-3.398 0v8.723H1.699A1.7 1.7 0 0 0 0 12.122v6.796a1.7 1.7 0 0 0 1.7 1.7h1.698v8.495c0 7.888 6.002 14.4 13.68 15.208C17.885 51.998 24.397 58 32.284 58a1.7 1.7 0 0 0 0-3.398c-6.018 0-11.007-4.494-11.787-10.302 7.584-.896 13.486-7.366 13.486-15.187v-8.496h1.7a1.7 1.7 0 0 0 1.699-1.699v-6.797a1.7 1.7 0 0 0-1.7-1.7z"/></g></g></g></svg>