<svg xmlns="http://www.w3.org/2000/svg" width="75" height="46" viewBox="0 0 75 46"><g><g><g><path fill="#396ab3" d="M24.736 22.102c0-3.352 1.305-6.504 3.676-8.874a12.469 12.469 0 0 1 8.874-3.676c3.353 0 6.505 1.305 8.875 3.676a12.469 12.469 0 0 1 3.676 8.874v15.934H24.736zm27.061 0c0-3.875-1.51-7.52-4.25-10.26a14.416 14.416 0 0 0-10.26-4.25c-3.877 0-7.52 1.51-10.261 4.25a14.415 14.415 0 0 0-4.25 10.26v17.894h29.021z"/></g><g><g><path fill="#396ab3" d="M39.042 12.2a9.07 9.07 0 0 0-2.726.417 9.075 9.075 0 0 1 6.345 8.654v14.793h5.452V21.271a9.071 9.071 0 0 0-9.07-9.072z"/></g></g><g><g><path fill="#396ab3" d="M58.84 13.024a1.47 1.47 0 0 1-1.04-2.509L67.887.43a1.47 1.47 0 0 1 2.078 2.079L59.88 12.594c-.287.287-.663.43-1.039.43z"/></g></g><g><g><path fill="#396ab3" d="M68.925 44.81c-.376 0-.752-.143-1.04-.43L57.802 34.295a1.47 1.47 0 0 1 2.078-2.079l10.085 10.085a1.47 1.47 0 0 1-1.04 2.51z"/></g></g><g><g><path fill="#396ab3" d="M73.102 23.875H58.84a1.47 1.47 0 0 1 0-2.94h14.262a1.47 1.47 0 0 1 0 2.94z"/></g></g><g><g><path fill="#396ab3" d="M15.732 13.024c-.376 0-.752-.143-1.039-.43L4.608 2.509A1.47 1.47 0 1 1 6.687.43l10.085 10.085a1.47 1.47 0 0 1-1.04 2.51z"/></g></g><g><g><path fill="#396ab3" d="M5.648 44.81a1.47 1.47 0 0 1-1.04-2.509l10.085-10.085a1.47 1.47 0 1 1 2.079 2.079L6.687 44.38c-.287.287-.663.43-1.04.43z"/></g></g><g><g><path fill="#396ab3" d="M15.732 23.875H1.47a1.47 1.47 0 1 1 0-2.94h14.262a1.47 1.47 0 1 1 0 2.94z"/></g></g><g><g><path fill="#396ab3" d="M53.207 42.286a2.842 2.842 0 0 1-2.842 2.842h-26.16a2.841 2.841 0 1 1 0-5.683h26.16a2.841 2.841 0 0 1 2.842 2.841z"/></g></g></g></g></svg>