<svg xmlns="http://www.w3.org/2000/svg" width="49" height="56" viewBox="0 0 49 56"><g><g><g><path fill="#396ab3" d="M31.337 7.178c3.37 1.21 6.63 1.846 9.513 2.408 0 0 2.605.633 3.056.73 0 0 .111-.016.079.712-.005.112-.02.128-.03.255-.52 6.624-1.49 17.843-1.864 19.768-1.143 5.856-6.44 11.27-10.665 14.763a66.954 66.954 0 0 1-7.331 5.24 68.184 68.184 0 0 1-7.16-5.265c-4.197-3.55-9.41-8.98-10.52-14.786-.363-1.892-1.297-12.902-1.8-19.394-.01-.125-.007-.142-.027-.25a2.874 2.874 0 0 1 .046-.794c.924-.23 1.924-.447 2.978-.675 2.8-.606 5.984-1.297 9.294-2.563 3.73-1.427 6.386-2.145 7.454-2.355.694.138 2.532.608 6.977 2.206zM24.389.94L24.35.938v.005c-1.314.13-4.752 1.07-9.024 2.714C11.019 5.314 6.803 5.92 3.279 6.831-.22 7.733.424 11.928.424 11.928s1.312 16.97 1.846 19.766c2.552 13.358 21.824 24.094 21.824 24.094h.006s19.642-10.415 22.3-24.021c.559-2.857 1.932-20.229 1.932-20.229s.674-4.309-2.984-5.156c-3.661-.85-8.005-1.368-12.404-2.938-4.328-1.546-7.222-2.406-8.517-2.502V.938c-.011 0-.025 0-.038.002z"/></g><g><path fill="#396ab3" d="M24.313 6.457a.311.311 0 0 0-.028-.002v.004c-.971.099-3.517.826-6.683 2.107-3.193 1.291-6.324 1.758-8.944 2.465-2.602.704-2.123 4.004-2.123 4.004s.977 13.343 1.374 15.541c1.897 10.496 16.186 18.877 16.186 18.877h.004s14.493-8.2 16.448-18.842c.41-2.233 1.42-15.81 1.42-15.81s.496-3.365-2.194-4.036c-2.694-.672-5.895-1.086-9.14-2.327-3.194-1.221-5.334-1.902-6.29-1.98v-.004l-.03.003"/></g></g></g></svg>