<svg xmlns="http://www.w3.org/2000/svg" width="561" height="496" viewBox="0 0 561 496"><g><g><g><g><g><g><g><path fill="#f0f0f0" d="M228.91 441.112c-.655 0-1.186-.531-1.186-1.186v-69.58h4.811v69.58c0 .655-.53 1.186-1.186 1.186z"/></g></g><g><path fill="#e6e6e6" d="M334.967 370.346v-6.292h41.706v6.292z"/></g><g><g><path fill="#e6e6e6" d="M258.72 441.112c-.655 0-1.186-.531-1.186-1.186v-69.58h4.81v69.58c0 .655-.53 1.186-1.185 1.186z"/></g></g><g><path fill="#e6e6e6" d="M370.266 441.112c-.655 0-1.186-.531-1.186-1.186v-69.58h4.812v69.58c0 .655-.531 1.186-1.186 1.186z"/></g><g><path fill="#f5f5f5" d="M224.942 370.346v-6.292h121.921v6.292z"/></g><g><path fill="#f0f0f0" d="M340.456 441.112c-.655 0-1.186-.531-1.186-1.186v-69.58h4.812v69.58c0 .655-.531 1.186-1.186 1.186z"/></g></g><g><g><path fill="#f0f0f0" d="M367.639 364.053h-11.062v-.983a3.365 3.365 0 0 1 3.546-3.36l4.332.236a3.364 3.364 0 0 1 3.184 3.36z"/></g><g><g><path fill="#e0e0e0" d="M337.775 341.188a1.633 1.633 0 0 0-1.632-1.556h-11.18c-.872 0-1.591.684-1.633 1.556l2.655 23.295h16.685z"/></g><g><path fill="#e0e0e0" d="M368.135 305.37h-4.165l-4.681 43.998h4.164c.69 0 1.31-.558 1.384-1.249l4.415-41.498c.073-.69-.427-1.25-1.118-1.25z"/></g><g><path fill="#ebebeb" d="M361.692 349.368h-62.427c-.689 0-1.19-.558-1.116-1.249l4.415-41.498c.074-.69.694-1.25 1.384-1.25h62.425c.69 0 1.19.56 1.118 1.25l-4.415 41.498c-.074.69-.693 1.25-1.384 1.25z"/></g><g><path fill="#fafafa" d="M360.526 345.305h-58.868a.962.962 0 0 1-.974-1.09l3.852-36.206a1.243 1.243 0 0 1 1.207-1.091h58.868a.962.962 0 0 1 .974 1.09l-3.853 36.206a1.242 1.242 0 0 1-1.206 1.091z"/></g><g><path fill="#e0e0e0" d="M343.296 362.675h-20.522a.905.905 0 0 0 0 1.808h20.522a.904.904 0 1 0 0-1.808z"/></g></g><g><path fill="#ebebeb" d="M302.293 364.054v-2.592h34.809v2.592z"/></g><g><g transform="rotate(45 323 327)"><path fill="#f0f0f0" d="M316.25 333.909v-13.573h13.572v13.573z"/></g><g><path fill="#ebebeb" d="M331.925 336.162l5.252-5.252 5.252 5.252z"/></g><g><path fill="#e6e6e6" d="M339.582 321.993a6.49 6.49 0 1 1 12.98 0 6.49 6.49 0 0 1-12.98 0z"/></g></g></g><g><g><g><path fill="#f5f5f5" d="M234.985 441.377v-68.175h51.235v68.175z"/></g><g><path fill="#e6e6e6" d="M286.22 441.377v-68.175h9.774v68.175z"/></g><g><path fill="#fafafa" d="M238.573 394.817V378.26h44.322v16.556z"/></g><g><path fill="#fafafa" d="M238.573 413.181v-16.556h44.322v16.556z"/></g><g><path fill="#fafafa" d="M238.573 431.546V414.99h44.322v16.556z"/></g></g><g><g><path fill="#ebebeb" d="M262.58 386.539a1.847 1.847 0 1 1-3.693 0 1.847 1.847 0 0 1 3.693 0z"/></g><g><path fill="#ebebeb" d="M262.58 404.903a1.847 1.847 0 1 1-3.693 0 1.847 1.847 0 0 1 3.693 0z"/></g><g><path fill="#ebebeb" d="M262.58 423.267a1.846 1.846 0 1 1-3.691.003 1.846 1.846 0 0 1 3.691-.003z"/></g></g></g></g><g><g><g><path fill="#f0f0f0" d="M87.552 437.38v-80.066h84.196v80.066z"/></g><g><path fill="#e6e6e6" d="M171.748 437.38v-80.066h11.479v80.066z"/></g><g><path fill="#fafafa" d="M91.767 382.699v-19.444h76.076v19.444z"/></g><g><path fill="#fafafa" d="M91.767 404.266v-19.443h76.076v19.443z"/></g><g><path fill="#fafafa" d="M91.767 425.834V406.39h76.076v19.444z"/></g><g><path fill="#e6e6e6" d="M167.843 441.377H92.399l-.632-4.004h76.076z"/></g><g><path fill="#e0e0e0" d="M178.59 441.377h-10.747v-4.004h11.38z"/></g></g><g><g><path fill="#ebebeb" d="M122.863 363.255l.227 2.592a1.657 1.657 0 0 0 1.65 1.51h9.822c.857 0 1.573-.656 1.648-1.51l.227-2.592z"/></g><g><path fill="#ebebeb" d="M122.863 384.822l.227 2.592a1.657 1.657 0 0 0 1.65 1.512h9.822c.857 0 1.573-.657 1.648-1.512l.227-2.592z"/></g><g><path fill="#ebebeb" d="M122.863 406.39l.227 2.592c.075.855.791 1.51 1.65 1.51h9.822c.857 0 1.573-.655 1.648-1.51l.227-2.592z"/></g></g></g><g><g><g><path fill="#ebebeb" d="M459.004 339.908l-11.904-3.68c-.87-.268-.638-1.56.271-1.51 4.448.234 8.09.426 13.718.726-3.24-5.635-5.153-9.152-7.336-13.563-.4-.809.672-1.532 1.27-.857 2.93 3.293 5.38 5.97 9.307 10.184.938-5.455 2.023-10.474 3.383-15.521.244-.908 1.6-.673 1.518.266a108.99 108.99 0 0 0-.397 12.216l.374.131a175.293 175.293 0 0 1 10.363-10.832c.695-.666 1.732.29 1.135 1.046-3.499 4.437-6.739 9.078-9.685 13.902a654.832 654.832 0 0 1 14.196-5.166c.887-.312 1.456.939.638 1.404a550.16 550.16 0 0 0-14.674 8.613l12.545 3.995c.868.276.629 1.563-.28 1.51-4.16-.253-7.613-.461-12.891-.778a445.974 445.974 0 0 0 6.378 7.345c.603.677-.25 1.66-1.005 1.16-2.591-1.722-4.87-3.248-8.189-5.475.336 2.652.63 4.702.98 6.715.16.92-1.142 1.283-1.482.413-.862-2.203-1.65-4.398-2.65-7.306-3.747 17.926-2.775 35.304.847 53.123l-4.49-.81c-2.624-18.27-1.944-34.63 2.105-52.591-2.25 2.322-3.904 4.075-5.48 5.839-.624.698-1.723-.113-1.24-.915 1.06-1.756 2.21-3.544 3.748-5.851-4.008.878-6.754 1.485-9.78 2.166-.892.202-1.333-1.038-.515-1.446 2.82-1.404 5.41-2.65 9.222-4.453z"/></g></g><g><g><path fill="#f0f0f0" d="M452.672 346.102l9.14-4.847c1.078-.572.452-2.212-.733-1.92-3.472.85-6.703 1.643-11.289 2.77 1.84-5.3 3.003-8.865 4.135-12.79.336-1.162-1.257-1.857-1.883-.821-1.855 3.076-3.623 5.924-6.228 10.054a172.337 172.337 0 0 0-4.975-11.986c-.527-1.142-2.248-.521-1.936.697a108.575 108.575 0 0 1 1.92 9.144l-.343.199a175.284 175.284 0 0 0-9.082-6.628c-1.066-.727-2.24.744-1.287 1.615a140.934 140.934 0 0 1 9.356 9.396c-4-.699-8.011-1.36-12.028-1.985-1.246-.194-1.683 1.589-.49 2.001a548.455 548.455 0 0 1 13.266 4.778l-9.725 5.263c-1.073.582-.435 2.215.747 1.916l10.476-2.652a496.564 496.564 0 0 1-3.871 6.684c-.615 1.043.752 2.113 1.617 1.267 1.687-1.655 3.366-3.307 5.586-5.5.096 1.578.17 2.946.22 4.224.048 1.244 1.851 1.355 2.057.128.256-1.536.506-3.175.787-5.114 7.026 16.912 9.315 34.165 9.083 52.348 1.703-.655 2.555-.98 4.258-1.635-.831-18.44-4.552-34.384-11.883-51.274a255.67 255.67 0 0 1 4.209 3.016c1.017.747 2.235-.624 1.372-1.542-.843-.895-1.767-1.85-2.834-2.94 3.124.088 5.5.158 7.824.232 1.226.04 1.49-1.709.307-2.034a552.117 552.117 0 0 0-7.773-2.064z"/></g></g><g><g><path fill="#f5f5f5" d="M468.817 355.925l-6.819-3.615c-.763-.405-.32-1.566.519-1.36 2.596.636 4.982 1.222 8.4 2.062-1.365-3.935-2.22-6.557-3.06-9.481-.237-.825.89-1.317 1.333-.582a418.09 418.09 0 0 0 4.625 7.47 125.268 125.268 0 0 1 3.725-8.948c.375-.807 1.595-.366 1.372.495a79.142 79.142 0 0 0-1.466 6.938l.22.126a127.69 127.69 0 0 1 6.904-5.028c.756-.513 1.578.537.902 1.153a103.114 103.114 0 0 0-7.03 7.04 479.869 479.869 0 0 1 9.006-1.483c.88-.137 1.192 1.125.35 1.416a406.35 406.35 0 0 0-9.9 3.562l7.242 3.921c.76.411.31 1.568-.527 1.355-2.402-.608-4.641-1.175-7.808-1.975 1.142 2 2.007 3.495 2.906 5.014.436.737-.53 1.498-1.143.897a1379.96 1379.96 0 0 1-4.191-4.125 137.73 137.73 0 0 0-.17 3.291c-.032.881-1.307.963-1.454.094-.2-1.18-.393-2.437-.61-3.941-5.122 12.329-6.79 24.906-6.621 38.16l-3.105-1.191c.606-13.441 3.32-25.065 8.663-37.377a184.202 184.202 0 0 0-3.261 2.34c-.717.529-1.58-.441-.971-1.091a150.61 150.61 0 0 1 2.23-2.317c-2.36.065-4.134.118-5.887.174-.869.029-1.056-1.209-.217-1.44 1.727-.477 3.487-.943 5.843-1.554z"/></g></g><g><g><path fill="#ebebeb" d="M470.591 441.377h-23.228a3.073 3.073 0 0 1-3.067-2.885l-2.462-40.061a3.074 3.074 0 0 1 3.068-3.263h28.152a3.073 3.073 0 0 1 3.066 3.263l-2.46 40.06a3.075 3.075 0 0 1-3.069 2.886z"/></g><g><path fill="#f5f5f5" d="M441.058 397.553a2.273 2.273 0 0 1-2.273-2.273v-1.6a2.273 2.273 0 0 1 2.273-2.273h35.552a2.273 2.273 0 0 1 2.272 2.273v1.6a2.273 2.273 0 0 1-2.272 2.273z"/></g></g></g><g><g><g><path fill="#e6e6e6" d="M280.568 37.62V-.014h1.813V37.62z"/></g><g><g><path fill="#f0f0f0" d="M224.035 67.492l57.44-34.714 57.44 34.714z"/></g><g><path fill="#fafafa" d="M285.44 67.492l-3.966-34.714 25.82 34.714z"/></g></g></g><g><g><g><path fill="#e6e6e6" d="M139.958 37.62V-.014h1.813V37.62z"/></g><g><g><path fill="#f0f0f0" d="M83.425 67.492l57.44-34.714 57.44 34.714z"/></g><g><path fill="#fafafa" d="M144.83 67.492l-3.966-34.714 25.82 34.714z"/></g></g></g><g><g><path fill="#e6e6e6" d="M421.178 37.62V-.014h1.813V37.62z"/></g><g><g><path fill="#f0f0f0" d="M364.645 67.492l57.44-34.714 57.439 34.714z"/></g><g><path fill="#fafafa" d="M426.05 67.492l-3.966-34.714 25.82 34.714z"/></g></g></g></g></g></g><g><path fill="#f5f5f5" d="M9.65 480.128c0-8.4 116.607-15.21 260.45-15.21 143.842 0 260.45 6.81 260.45 15.21 0 8.4-116.608 15.211-260.45 15.211-143.843 0-260.45-6.81-260.45-15.21z"/></g><g><g><g><path fill="#407bff" d="M470.47 138.641l-295.275.06-2.225 2.014-1.226 37.42-.504 5.757-1.194 13.655-.952 10.88-.532 6.084H93.117l-2.243 2.015-10.432 142.865c-.327 3.726 2.43 6.746 6.155 6.746h69.066l.56-6.38h-.369l1.352-15.45.952-10.878.747-8.533.95-10.879.764-8.711.936-10.7.374-4.282h75.812l-1.31 14.982-.016.178-4.748 54.272-.2 2.284-.067.768-.29 3.329 73.567 2.034 2.233-1.733 1.92-22.131.953-10.878 2.46-28.123.936-10.7.375-4.282h75.813l2.07-23.663.759-8.673.94-10.74.95-10.877L396 214.51h69.432l4.156 2.015 2.224-2.015 5.841-68.03c.327-3.726-2.978-7.84-7.182-7.84z"/></g><g><path fill="#407bff" d="M383.522 368.152h69.067c3.726 0 7.01-3.02 7.337-6.746l5.856-70.593-76.348-.263-2.29 1.79z"/></g></g></g><g><g><g><path fill="#407bff" d="M467.118 216.527l5.726-65.44H172.063l-5.726 65.44H94.451L81.477 364.823h71.886l6.341-72.484h75.813l-6.341 72.484h75.812l6.342-72.484h75.814l-6.343 72.484h73.343l6.342-72.484h-73.342l6.631-75.812z"/></g><g opacity=".8"><path fill="#fff" d="M467.118 216.527l5.726-65.44H172.063l-5.726 65.44H94.451L81.477 364.823h71.886l6.341-72.484h75.813l-6.341 72.484h75.812l6.342-72.484h75.814l-6.343 72.484h73.343l6.342-72.484h-73.342l6.631-75.812z"/></g></g><g><g><path fill="#407bff" d="M268.867 229.852H116.294c-1.507 0-2.623-1.223-2.492-2.73l.475-5.417c.131-1.509 1.461-2.731 2.97-2.731h152.572c1.509 0 2.623 1.222 2.492 2.73l-.474 5.418c-.132 1.507-1.462 2.73-2.97 2.73z"/></g><g opacity=".5"><path fill="#fff" d="M268.867 229.852H116.294c-1.507 0-2.623-1.223-2.492-2.73l.475-5.417c.131-1.509 1.461-2.731 2.97-2.731h152.572c1.509 0 2.623 1.222 2.492 2.73l-.474 5.418c-.132 1.507-1.462 2.73-2.97 2.73z"/></g></g><g><g><path fill="#407bff" d="M352.628 229.852h-73.556c-1.508 0-2.624-1.223-2.492-2.73l.474-5.417c.132-1.509 1.461-2.731 2.97-2.731h73.555c1.508 0 2.624 1.222 2.491 2.73l-.472 5.418c-.133 1.507-1.462 2.73-2.97 2.73z"/></g><g opacity=".5"><path fill="#fff" d="M352.628 229.852h-73.556c-1.508 0-2.624-1.223-2.492-2.73l.474-5.417c.132-1.509 1.461-2.731 2.97-2.731h73.555c1.508 0 2.624 1.222 2.491 2.73l-.472 5.418c-.133 1.507-1.462 2.73-2.97 2.73z"/></g></g><g><g><path fill="#407bff" d="M267.169 249.264H114.596c-1.508 0-2.623-1.223-2.491-2.731l.474-5.416c.131-1.509 1.461-2.731 2.97-2.731h152.57c1.51 0 2.626 1.222 2.494 2.73l-.474 5.417c-.132 1.508-1.462 2.73-2.97 2.73z"/></g><g opacity=".5"><path fill="#fff" d="M267.169 249.264H114.596c-1.508 0-2.623-1.223-2.491-2.731l.474-5.416c.131-1.509 1.461-2.731 2.97-2.731h152.57c1.51 0 2.626 1.222 2.494 2.73l-.474 5.417c-.132 1.508-1.462 2.73-2.97 2.73z"/></g></g><g><path fill="#407bff" d="M232.767 288.087H111.2c-1.508 0-2.624-1.222-2.493-2.73l.475-5.418c.132-1.508 1.461-2.73 2.97-2.73h121.567c1.509 0 2.624 1.222 2.492 2.73l-.474 5.418c-.132 1.508-1.461 2.73-2.97 2.73z"/></g><g><path fill="#407bff" d="M174.926 199.562h-7.104l-.953 10.88h7.106c1.507 0 2.837-1.223 2.97-2.732l.473-5.417c.133-1.509-.983-2.731-2.492-2.731z"/></g><g><g><path fill="#407bff" d="M256.209 180.15h-86.69l-.95 10.88h86.687c1.509 0 2.839-1.223 2.97-2.732l.475-5.417c.131-1.509-.985-2.731-2.492-2.731z"/></g><g opacity=".5"><path fill="#fff" d="M256.209 180.15h-86.69l-.95 10.88h86.687c1.509 0 2.839-1.223 2.97-2.732l.475-5.417c.131-1.509-.985-2.731-2.492-2.731z"/></g></g><g><g><path fill="#407bff" d="M390.164 257.798H113.85c-1.507 0-2.837 1.222-2.968 2.73l-.474 5.417c-.132 1.508.983 2.73 2.491 2.73h276.314z"/></g><g opacity=".5"><path fill="#fff" d="M390.164 257.798H113.85c-1.507 0-2.837 1.222-2.968 2.73l-.474 5.417c-.132 1.508.983 2.73 2.491 2.73h276.314z"/></g></g><g><path fill="#407bff" d="M391.862 238.386H278.326c-1.508 0-2.838 1.222-2.97 2.73l-.474 5.417c-.132 1.508.983 2.73 2.492 2.73H390.91z"/></g><g><g><g><path fill="#407bff" d="M269.575 296.62h-34.432l-.952 10.88h34.431c1.509 0 2.838-1.223 2.97-2.731l.474-5.418c.132-1.509-.984-2.73-2.491-2.73z"/></g><g><path fill="#407bff" d="M159.33 296.62h-48.876c-1.509 0-2.839 1.222-2.97 2.731l-.475 5.418c-.131 1.508.984 2.73 2.492 2.73h48.877z"/></g></g><g opacity=".5"><g opacity=".5"><path fill="#fff" d="M269.575 296.62h-34.432l-.952 10.88h34.431c1.509 0 2.838-1.223 2.97-2.731l.474-5.418c.132-1.509-.984-2.73-2.491-2.73z"/></g><g opacity=".5"><path fill="#fff" d="M159.33 296.62h-48.876c-1.509 0-2.839 1.222-2.97 2.731l-.475 5.418c-.131 1.508.984 2.73 2.492 2.73h48.877z"/></g></g></g><g><g><path fill="#407bff" d="M157.631 316.032h-48.875c-1.509 0-2.839 1.222-2.97 2.731l-.475 5.417c-.131 1.508.984 2.731 2.492 2.731h48.877z"/></g><g opacity=".5"><path fill="#fff" d="M157.631 316.032h-48.875c-1.509 0-2.839 1.222-2.97 2.731l-.475 5.417c-.131 1.508.984 2.731 2.492 2.731h48.877z"/></g></g><g><g><g><path fill="#407bff" d="M155.933 335.444h-48.877c-1.508 0-2.837 1.222-2.97 2.73l-.472 5.417c-.133 1.508.983 2.73 2.491 2.73h48.876z"/></g><g><path fill="#407bff" d="M242.621 335.444h-10.875l-.952 10.878h10.876c1.509 0 2.839-1.223 2.97-2.731l.475-5.416c.131-1.509-.985-2.731-2.494-2.731z"/></g></g><g opacity=".5"><g opacity=".5"><path fill="#fff" d="M155.933 335.444h-48.877c-1.508 0-2.837 1.222-2.97 2.73l-.472 5.417c-.133 1.508.983 2.73 2.491 2.73h48.876z"/></g><g opacity=".5"><path fill="#fff" d="M242.621 335.444h-10.875l-.952 10.878h10.876c1.509 0 2.839-1.223 2.97-2.731l.475-5.416c.131-1.509-.985-2.731-2.494-2.731z"/></g></g></g><g><g><path fill="#407bff" d="M475.63 147.461c.326-3.726-2.43-6.746-6.156-6.746H172.97l-1.659 18.953h292.403c2.467 0 4.293 2 4.077 4.467l-4.584 52.391h6.381z"/></g><g opacity=".3"><path fill="#fff" d="M475.63 147.461c.326-3.726-2.43-6.746-6.156-6.746H172.97l-1.659 18.953h292.403c2.467 0 4.293 2 4.077 4.467l-4.584 52.391h6.381z"/></g></g><g><g><path fill="#407bff" d="M456.574 292.339l-5.683 64.964c-.217 2.468-2.391 4.468-4.859 4.468h-64.964l-.558 6.38h69.066c3.726 0 7.01-3.019 7.337-6.745l6.042-69.067z"/></g><g opacity=".3"><path fill="#fff" d="M456.574 292.339l-5.683 64.964c-.217 2.468-2.391 4.468-4.859 4.468h-64.964l-.558 6.38h69.066c3.726 0 7.01-3.019 7.337-6.745l6.042-69.067z"/></g></g><g><g><path fill="#407bff" d="M97.273 216.526L84.957 357.303c-.217 2.468 1.609 4.468 4.076 4.468h64.965l-.56 6.38H84.375c-3.727 0-6.483-3.019-6.157-6.745l12.657-144.88z"/></g><g opacity=".3"><path fill="#fff" d="M97.273 216.526L84.957 357.303c-.217 2.468 1.609 4.468 4.076 4.468h64.965l-.56 6.38H84.375c-3.727 0-6.483-3.019-6.157-6.745l12.657-144.88z"/></g></g><g><g><path fill="#407bff" d="M305.255 361.771h-75.812l-.559 6.381h75.813z"/></g><g opacity=".3"><path fill="#fff" d="M305.255 361.771h-75.812l-.559 6.381h75.813z"/></g></g><g><g><path fill="#407bff" d="M307.559 335.444h-54.733c-1.507 0-2.837 1.222-2.968 2.73l-.474 5.417c-.132 1.508.983 2.73 2.491 2.73h54.731z"/></g><g><path fill="#407bff" d="M388.391 335.444h-5.02l-.952 10.878h5.021c1.509 0 2.839-1.223 2.97-2.731l.475-5.416c.131-1.509-.985-2.731-2.494-2.731z"/></g></g><g><path fill="#407bff" d="M310.955 296.62H279.78c-1.509 0-2.839 1.222-2.97 2.731l-.475 5.418c-.131 1.508.984 2.73 2.492 2.73h31.177z"/></g></g><g><g><g><path fill="#407bff" d="M481.703 170.458c-.019 0-.039 0-.06-.002a.672.672 0 0 1-.609-.729l2.465-28.18c.179-2.04-.446-3.954-1.76-5.387-1.307-1.425-3.142-2.21-5.17-2.21h-22.821a.671.671 0 1 1 0-1.343h22.821c2.408 0 4.597.939 6.16 2.645 1.57 1.714 2.32 3.992 2.108 6.411l-2.465 28.181a.672.672 0 0 1-.669.614z"/></g></g><g><g><path fill="#407bff" d="M448.64 133.95h-5.76a.672.672 0 0 1 0-1.343h5.76a.671.671 0 1 1 0 1.343z"/></g></g></g><g><g><path fill="#407bff" d="M305.948 380.599h-8.61a.671.671 0 1 1 0-1.344h8.61a.671.671 0 1 1 0 1.344z"/></g></g><g><g><path fill="#407bff" d="M290.21 380.599h-61.96a.671.671 0 1 1 0-1.344h61.96a.672.672 0 0 1 0 1.344z"/></g></g><g><g><g><path fill="#407bff" d="M174.79 133.625h8.611a.672.672 0 0 0 0-1.343h-8.612a.671.671 0 1 0 0 1.343z"/></g></g><g><g><path fill="#407bff" d="M190.529 133.625h61.96a.671.671 0 1 0 0-1.343h-61.96a.671.671 0 1 0 0 1.343z"/></g></g></g><g><g><path fill="#263238" d="M555.066 467.007h-53.469l-3.312-37.873h53.467zm-60.43-79.572h53.467l3.314 37.871H497.95zm-3.648-41.701h53.467l3.314 37.872H494.3zm-3.648-41.7h53.467l3.313 37.871h-53.467zm-3.649-41.7h53.469l3.312 37.871h-53.467zm-3.648-41.701h53.468l3.313 37.873h-53.467zm-5.184-15.496l24.267 277.366h3.828l-1.021-11.667H555.4l1.021 11.667h3.828l-24.266-277.366h-3.829l1.021 11.667h-53.467l-1.02-11.667z"/></g><g opacity=".3"><path fill="#fff" d="M555.066 467.007h-53.469l-3.312-37.873h53.467zm-60.43-79.572h53.467l3.314 37.871H497.95zm-3.648-41.701h53.467l3.314 37.872H494.3zm-3.648-41.7h53.467l3.313 37.871h-53.467zm-3.649-41.7h53.469l3.312 37.871h-53.467zm-3.648-41.701h53.468l3.313 37.873h-53.467zm-5.184-15.496l24.267 277.366h3.828l-1.021-11.667H555.4l1.021 11.667h3.828l-24.266-277.366h-3.829l1.021 11.667h-53.467l-1.02-11.667z"/></g></g><g><g><path fill="#7f3e3b" d="M508.311 220.644l-6.818 6.463-13.07-3.018v-2.59c0-.794-.827-1.319-1.546-.98 0 0-.63.44-.869.41-1.089-.147-3.344-2.85-3.344-2.85a1.083 1.083 0 0 0-1.094-.185l-.94.363a1.086 1.086 0 0 0-.666 1.25l1.481 6.542c.097.426.438.752.87.829l4.12.726s11.79 7.245 16.052 6.25c4.26-.993 10.645-6.96 10.645-6.96z"/></g><g><g><path fill="#407bff" d="M407.832 208.463l-2.966 1.797-4.677 74.212 73.088 2.301 2.66-1.597 7.323-76.1z"/></g><g><g><g><g><path fill="#407bff" d="M478.146 210.94l-73.28-.68-7.337 75.809 73.28.681z"/></g><g opacity=".8"><path fill="#fff" d="M478.146 210.94l-73.28-.68-7.337 75.809 73.28.681z"/></g></g><g><path fill="#407bff" d="M441.752 232.48l-39-.363-1.054 10.879 39.001.361c1.507.015 2.848-1.197 2.993-2.705l.525-5.416c.145-1.509-.958-2.742-2.465-2.757z"/></g><g><g><path fill="#407bff" d="M402.44 251.542l-1.568-.013-1.053 10.877 1.57.015c1.506.014 2.846-1.198 2.992-2.705l.525-5.418c.145-1.508-.958-2.741-2.465-2.756z"/></g><g opacity=".5"><path fill="#fff" d="M402.44 251.542l-1.568-.013-1.053 10.877 1.57.015c1.506.014 2.846-1.198 2.992-2.705l.525-5.418c.145-1.508-.958-2.741-2.465-2.756z"/></g></g></g><g><g><path fill="#407bff" d="M466.902 286.714l6.375.059 7.337-75.81-6.376-.059z"/></g><g opacity=".3"><path fill="#fff" d="M466.902 286.714l6.375.059 7.337-75.81-6.376-.059z"/></g></g></g></g><g><g><path fill="#263238" d="M497.58 191.767s-4.939.387-4.917 3.796c.012 2.163 1.698-1.413 4.123-2.512 2.424-1.097.795-1.284.795-1.284z"/></g><g><g><path fill="#7f3e3b" d="M516.492 306.94s2.42 8.184 3.511 10.807c5.748 13.813 17.354 33.795 24.683 54.515l5.889-2.282s-2.852-14.01-8.839-31.09c-2.947-8.407-8.107-16.94-11.15-26.145-.85-2.572-1.686-10.705-1.686-10.705z"/></g><g><path fill="#263238" d="M521.55 254.864s6.503 6.535 7.64 14.916c1.136 8.382-1.373 22.445 2.557 37.646l-15.058 4.118s-12.194-42.612-13.341-52.914z"/></g><g opacity=".4"><path d="M511.786 293.912l3.858-13.53 4.7-7.577s1.288 11.324-1.281 22.728a7370.18 7370.18 0 0 1-3.07 13.562c-.863-3.056-2.442-8.685-4.207-15.183z"/></g><g><g><path fill="#407bff" d="M501.652 376.952c.908.155 1.778.48 2.565.959-1.244.123-2.923.07-3.222-.371-.044-.055-.083-.15.04-.344a.44.44 0 0 1 .315-.213c.098-.025.2-.035.302-.031zm3.07 1.183a.165.165 0 0 0 .131-.126.158.158 0 0 0-.072-.167c-.101-.06-2.393-1.445-3.512-1.167a.822.822 0 0 0-.506.357.592.592 0 0 0-.03.685c.266.363 1.118.536 1.947.556.684.014 1.366-.032 2.042-.138z"/></g><g><path fill="#407bff" d="M503.135 375.395c.2.002.393.078.54.212.484.586.774 1.306.835 2.063-.813-.509-1.835-1.664-1.783-2.115.012-.04.034-.153.318-.171l.09.01zm1.563 2.737c.034.012.073.011.108-.004a.157.157 0 0 0 .074-.14c-.006-.085-.14-1.885-.971-2.604a1.17 1.17 0 0 0-.872-.291c-.435.032-.576.248-.598.43-.16.745 1.406 2.23 2.193 2.601.02.011.043.014.066.008z"/></g><g><path fill="#263238" d="M505.426 377.219l7.27.18a.586.586 0 0 1 .561.471l1.167 5.949a.974.974 0 0 1-.964 1.168c-2.62-.11-4.948-.311-8.21-.388-3.852-.094-2.886.39-7.415.344-2.729-.032-3.152-3.145-1.991-3.27 5.31-.534 5.9-2.12 7.988-3.964a2.34 2.34 0 0 1 1.594-.49z"/></g></g><g><g><path fill="#407bff" d="M543.361 372.868c-1.121.55-2.713 1.09-3.147.783-.059-.036-.13-.113-.083-.337a.437.437 0 0 1 .22-.309.996.996 0 0 1 .273-.136 7.301 7.301 0 0 1 2.737-.001zm.553.034a.167.167 0 0 0 .077-.166.159.159 0 0 0-.124-.13c-.117-.021-2.749-.516-3.7.138a.822.822 0 0 0-.348.512c-.075.24.011.503.212.653.377.246 1.236.109 2.018-.162.645-.227 1.27-.51 1.865-.845z"/></g><g><path fill="#407bff" d="M541.466 370.89a.822.822 0 0 1 .58.01c.659.38 1.184.953 1.506 1.64-.94-.19-2.302-.914-2.412-1.355-.002-.043-.022-.156.239-.273l.087-.021zm2.423 2.017a.158.158 0 0 0 .101-.042.16.16 0 0 0 .02-.158c-.036-.077-.792-1.716-1.823-2.097a1.168 1.168 0 0 0-.918.032c-.397.184-.453.435-.409.613.11.753 2.097 1.596 2.965 1.668a.092.092 0 0 0 .064-.016z"/></g><g><path fill="#263238" d="M544.25 371.797l6.874-2.381c.26-.09.546.012.69.246l3.18 5.16a.973.973 0 0 1-.495 1.432c-2.492.816-4.742 1.443-7.825 2.515-3.64 1.263-2.566 1.378-6.824 2.922-2.567.927-4.054-1.84-3.01-2.363 4.785-2.364 4.782-4.054 6.09-6.514.301-.49.771-.851 1.32-1.017z"/></g></g><g><path fill="#7f3e3b" d="M499.026 306.809s-.227 8.533 0 11.366c1.198 14.911 6.062 37.502 6.63 59.474h6.251s1.882-16.542 1.061-36.66c-.314-7.702-2.345-15.813-2.387-23.95-.015-2.71 1.705-10.703 1.705-10.703z"/></g><g><path fill="#263238" d="M515.127 256.427s8.945 12.744 3.41 29.264c-5.872 17.52-4.406 26.138-4.406 26.138h-16.335s0-22.938-.71-30.543c-.5-5.35-1.848-11.221-1.42-21.45z"/></g><g><g><path fill="#263238" d="M514.312 308.556l.5 3.906h-17.686v-3.906z"/></g><g opacity=".4"><path fill="#fff" d="M514.312 308.556l.5 3.906h-17.686v-3.906z"/></g></g><g><g><path fill="#263238" d="M531.747 303.868l-16.438 4.9 1.183 3.694 16.361-4.759z"/></g><g opacity=".4"><path fill="#fff" d="M531.747 303.868l-16.438 4.9 1.183 3.694 16.361-4.759z"/></g></g></g><g><path fill="#7f3e3b" d="M509.501 216.286s-3.675-.379-3.616-7.141c0 0-3.395-1.552-5.593.447-2.2 1.998 1.982 6.667-.75 8.63 0 0 2.4 1.614 9.96-1.936z"/></g><g><path fill="#263238" d="M493.408 199.655c-.033-.453-.3-.802-.596-.78-.297.022-.509.408-.475.86.035.453.302.802.597.78.296-.022.508-.408.474-.86z"/></g><g><path fill="#a02724" d="M493.1 200.475l-2.39 3.157s1.038.905 2.629.476z"/></g><g><path fill="#7f3e3b" d="M509.06 198.947c-.275 5.728-.268 8.163-3.119 11.138-4.377 3.05-11.274 2.89-12.714-2.81-1.299-5.127-.632-13.611 4.945-15.996a7.829 7.829 0 0 1 10.889 7.668z"/></g><g><path fill="#263238" d="M494.258 198.315a.283.283 0 0 1-.248-.053 2.1 2.1 0 0 0-1.847-.516.266.266 0 0 1-.325-.183.273.273 0 0 1 .182-.33 2.636 2.636 0 0 1 2.34.623c.114.087.134.25.047.363l-.01.01a.236.236 0 0 1-.14.086z"/></g><g><path fill="#263238" d="M492.922 198.897l-1.248-.183"/></g><g opacity=".2"><path d="M503.259 211.449a7.602 7.602 0 0 1-3.063 2.794c-.185-.744-.4-1.495-.502-2.197a10.57 10.57 0 0 0 3.565-.597z"/></g><g><path fill="#407bff" d="M512.286 217.22s0-4.546-5.304-3.695c-5.304.853-9.282 3.41-9.471 6.063z"/></g><g opacity=".1"><path d="M512.286 217.22s0-4.546-5.304-3.695c-5.304.853-9.282 3.41-9.471 6.063z"/></g><g><g><path fill="#407bff" d="M515.508 216.72s7.109.215 7.109 5.898c0 5.682-4.08 8.05-4.08 8.05z"/></g><g opacity=".1"><path d="M515.508 216.72s7.109.215 7.109 5.898c0 5.682-4.08 8.05-4.08 8.05z"/></g></g><g><path fill="#407bff" d="M523.65 255.575s-3.552-6.961-4.262-15.342c-.71-8.381 4.404-23.298-4.688-23.582-9.092-.284-14.063.994-19.462 3.125-5.397 2.132-4.26 16.763-3.41 22.304.854 5.54 3.41 19.604 3.41 19.604s15.484 1.988 28.412-6.11z"/></g><g opacity=".1"><path d="M491.394 238.454c-.27-2.92-.42-6.534-.125-9.823l6.161-.762s-2.373 6.584-6.036 10.585z"/></g><g><path fill="#7f3e3b" d="M486.29 226.88l-6.82 6.463-13.068-3.018v-2.778a.965.965 0 0 0-1.376-.873s-.885.224-1.17.186c-1.107-.147-3.268-2.59-3.268-2.59a.96.96 0 0 0-.973-.166l-2.768 2.58c-.415.282-.645.719-.539 1.185l2.97 4.27c.109.372.7.87 1.087.913l4.047.788s11.792 7.244 16.053 6.25c4.262-.994 10.645-6.96 10.645-6.96z"/></g><g><path fill="#407bff" d="M495.238 219.776s-4.26 1.232-10.417 6.63c0 0 .236 4.261 5.647 8.945 0 0 5.812-3.641 7.611-9.04 1.8-5.397-2.84-6.535-2.84-6.535z"/></g><g><path fill="#263238" d="M497.43 190.648s-4.001 1.848-2.97 4.76c1.032 2.911 1.671 5.398.89 6.322-.78.923 1.918 1.186 1.777-2.035 0 0 .357 4.04 2.415 4.53 2.06.487 3.463 6.501 1.738 9.354-1.723 2.853-2.118 9.54-.412 11.022 1.706 1.48 4.957 2.977 4.568 5.61-.388 2.634 3.907.855 3.055-2.342 0 0 2.344 3.622 5.185.353 2.841-3.266-1.705-6.25-1.705-6.25s3.453 1.065 3.537 2.912c.085 1.847 1.221 2.77 2.571.711 1.35-2.06.495-4.477-.853-5.82 0 0 2.29-.38 2.563 1.216.274 1.596 2.907-1.071.634-3.17-2.272-2.1-6.25-3.164-6.179-11.262.071-8.097-1.492-14.987-7.671-16.407-6.18-1.421-9.143.496-9.143.496z"/></g><g><path fill="#7f3e3b" d="M498.876 200.89a4.4 4.4 0 0 0-1.444 3.056c-.062 1.553 1.418 1.986 2.7 1.267 1.16-.65 2.576-2.24 2.03-3.664-.549-1.424-2.213-1.608-3.286-.659z"/></g></g></g><g><g><path fill="#407bff" d="M401.655 298.828l-76.283-.328-2.255 1.774-.531 43.072-1.01 10.878-1.433 15.449-.283 3.052-.309 3.329 72.336.383 3.311-3.354z"/></g><g><g><g><path fill="#407bff" d="M316.42 372.706l75.776.402 6.726-72.482-75.805-.352z"/></g><g opacity=".8"><path fill="#fff" d="M316.42 372.706l75.776.402 6.726-72.482-75.805-.352z"/></g></g><g><path fill="#407bff" d="M358.796 304.696l-36.047-.192-1.01 10.88 36.048.19c1.507.008 2.843-1.208 2.982-2.716l.503-5.416c.14-1.509-.969-2.738-2.476-2.746z"/></g><g><path fill="#407bff" d="M318.137 354.206l75.776.402 1.01-10.879-75.777-.402z"/></g><g><g><path fill="#407bff" d="M316.703 369.654l-.592 6.381 75.776.402.593-6.38z"/></g><g opacity=".3"><path fill="#fff" d="M316.703 369.654l-.592 6.381 75.776.402.593-6.38z"/></g></g></g></g><g><g><path fill="#ffc3bd" d="M370.28 386.995s.862 17.689 1.26 23.578c1.086 16.05 5.255 64.138 5.255 64.138h7.145s2.735-22.074 1.953-41.043c-.323-7.84-2.69-14.804-3.215-20.153-.528-5.396 2.523-13.909.42-21.685-1.98-7.33-12.818-4.835-12.818-4.835z"/></g><g><path fill="#ffc3bd" d="M387.278 387.43s1.51 18.569 2.393 24.715c2.256 15.725 11.905 62.422 11.905 62.422l7.138-.326s-.16-24.127-3.403-43.268c-1.08-6.379-2.811-11.882-3.499-16.424-.86-5.663.949-15.205-1.507-22.878-2.313-7.23-13.027-4.242-13.027-4.242z"/></g><g><path fill="#263238" d="M394.642 350.77s12.61 11.724 12.167 49.995c0 0-17.277 7.745-38.358 1.993 0 0-3.403-28.097 0-48.78z"/></g><g><g><path fill="#263238" d="M368.845 296.58c-.032-.443-.294-.786-.584-.763-.29.021-.497.397-.465.84.034.444.296.787.584.764.29-.022.499-.398.465-.841z"/></g><g><path fill="#263238" d="M368.368 295.837l-1.22-.177"/></g></g><g><path fill="#ffc3bd" d="M384.69 311.842s-3.598-.37-3.54-6.989c0 0-3.324-1.52-5.476.437-2.153 1.956 1.941 6.527-.732 8.448 0 0 2.347 1.58 9.747-1.896z"/></g><g><path fill="#ed893e" d="M368.811 297.206l-2.34 3.09s1.017.886 2.574.465z"/></g><g><path fill="#ffc3bd" d="M384.258 294.871c-.269 5.606-.262 7.989-3.053 10.902-4.285 2.985-11.035 2.828-12.446-2.75-1.27-5.02-.618-13.325 4.841-15.658a7.661 7.661 0 0 1 10.658 7.506z"/></g><g><path fill="#263238" d="M369.855 295.267a.269.269 0 0 1-.24-.052 2.054 2.054 0 0 0-1.808-.505.26.26 0 0 1-.319-.177.266.266 0 0 1 .18-.324 2.572 2.572 0 0 1 2.29.61c.11.084.13.244.044.354l-.008.011a.232.232 0 0 1-.139.083z"/></g><g opacity=".2"><path d="M378.579 307.107a7.43 7.43 0 0 1-2.997 2.736c-.182-.728-.393-1.464-.492-2.15a10.32 10.32 0 0 0 3.489-.586z"/></g><g><path fill="#407bff" d="M387.473 312.803s-2.077-5.01-8.506-2.937c-6.43 2.074-7.86 5.664-7.86 5.664z"/></g><g opacity=".2"><path d="M387.473 312.803s-2.077-5.01-8.506-2.937c-6.43 2.074-7.86 5.664-7.86 5.664z"/></g><g><g><path fill="#407bff" d="M392.378 313.883s8.32 7.685 4.738 15.207c-3.58 7.521-9.644-3.097-9.644-3.097z"/></g><g opacity=".2"><path d="M392.378 313.883s8.32 7.685 4.738 15.207c-3.58 7.521-9.644-3.097-9.644-3.097z"/></g></g><g><path fill="#263238" d="M376.65 473.947l8.011.197a.648.648 0 0 1 .618.52l1.287 6.553a1.073 1.073 0 0 1-1.064 1.286c-2.886-.122-5.45-.343-9.044-.427-4.244-.103-3.18.43-8.17.378-3.005-.035-3.47-3.465-2.193-3.6 5.85-.59 6.5-2.336 8.802-4.369a2.58 2.58 0 0 1 1.754-.538z"/></g><g><path fill="#263238" d="M401.586 473.86l8.013.07a.643.643 0 0 1 .625.508l1.393 6.531a1.072 1.072 0 0 1-1.041 1.303c-2.888-.073-5.455-.253-9.051-.279-4.244-.035-3.172.482-8.16.51-3.007.015-3.528-3.406-2.252-3.565 5.84-.683 6.46-2.44 8.727-4.51a2.588 2.588 0 0 1 1.746-.567z"/></g><g><path fill="#407bff" d="M397.116 351.046s-11.538 8.483-29.55 3.997c0 0-5.668-26.743-1.866-34.81 3.39-7.194 10.161-8.146 15.552-8.506 5.389-.36 13.823-1.027 13.535 9.8-.288 10.827-.375 17.166 2.329 29.52z"/></g><g opacity=".2"><path d="M365.095 339.7c-.415-3.583-.714-7.33-.707-10.685l6.72-2.407z"/></g><g><path fill="#ffc3bd" d="M352.72 334.372l-15.43-2.656-.66-1.281a2.413 2.413 0 0 0-2.62-1.264l-.703.14-1.808-1.312a2.414 2.414 0 0 0-2.95.09 2.417 2.417 0 0 0-.883 1.866v1.581c0 .496.152.98.437 1.385l1.221 1.745c.42.6 1.09.978 1.823 1.025l5.23.34 16.343 4.148z"/></g><g><path fill="#407bff" d="M374.023 316.295s-4.493-2.958-9.12 1.503c-4.624 4.462-12.507 15.219-12.507 15.219l-2.8-.335-.367 7.977s4.074 1.573 8.076-.457c4.002-2.03 17.013-17.27 17.013-17.27s1.703-4.478-.295-6.637z"/></g><g><g><path fill="#407bff" d="M351.724 331.468v4.397l-1.244.58 1.244.83v4.812l-3.816-.847v-9.772z"/></g><g opacity=".5"><path fill="#fff" d="M351.724 331.468v4.397l-1.244.58 1.244.83v4.812l-3.816-.847v-9.772z"/></g></g><g opacity=".3"><path d="M389.264 404.697c-1.053.08-2.14.135-3.26.161-.674-18.529 4.7-25.338 4.7-25.338-2.46 11.26-1.793 21.577-1.44 25.177z"/></g><g><path fill="#263238" d="M376.835 285.285s9.013-3.136 10.637 6.03c1.625 9.167 9.8 11.499 5.27 17.61-4.53 6.11-17.562 1.527-17.8-3.62-.239-5.145-.162-13.746-2.068-14.873 0 0 1.144 3.536 0 3.536-1.145 0-1.919-1.3-1.767-3.135 0 0-.06 2.252-2.695 1.447-2.634-.803 1.555-3.779 1.555-3.779s-1.99.805-2.727 1.608c-.738.805-.945-.401 0-1.929.733-1.186 3.926-3.94 9.595-2.895z"/></g><g><path fill="#ffc3bd" d="M374.288 296.773a4.318 4.318 0 0 0-1.413 2.992c-.06 1.519 1.389 1.942 2.642 1.24 1.137-.637 2.523-2.193 1.988-3.588-.536-1.395-2.166-1.573-3.217-.644z"/></g></g><g><g><g><path fill="#ffb573" d="M157.897 331.594l7.402-1.011.57-1.814a1.448 1.448 0 0 1 1.76-.962l.84.227 3.197-1.668a1.448 1.448 0 0 1 2.117 1.32l-.07 2.917a1.458 1.458 0 0 1-.017.188l-.344 2.208a1.448 1.448 0 0 1-1.205 1.208l-4.626.728-8.503 1.805z"/></g><g><path fill="#263238" d="M163.077 329.55s-5.743.478-11.485 0c-2.023-.17-3.794-1.663-5.4-3.739l-6.4 9.359c1.823 1.8 3.596 3.13 5.182 3.63 8.057 2.553 19.38-2.072 19.38-2.072 1.434-4.466-1.277-7.178-1.277-7.178z"/></g><g opacity=".3"><path d="M163.077 329.55s-5.743.478-11.485 0c-2.023-.17-3.794-1.663-5.4-3.739l-6.4 9.359c1.823 1.8 3.596 3.13 5.182 3.63 8.057 2.553 19.38-2.072 19.38-2.072 1.434-4.466-1.277-7.178-1.277-7.178z"/></g></g><g><g><path fill="#407bff" d="M149.92 298.259l-7.134 77.58 73.532.287 2.285-1.869 7.183-75.648z"/></g><g><g><g><path fill="#407bff" d="M140.835 372.502l75.787.286 6.615-72.483-75.788-.286z"/></g><g opacity=".8"><path fill="#fff" d="M140.835 372.502l75.787.286 6.615-72.483-75.788-.286z"/></g></g><g><g><path fill="#407bff" d="M142.523 354.002l75.787.286.993-10.879-75.787-.286z"/></g><g opacity=".5"><path fill="#fff" d="M142.523 354.002l75.787.286.993-10.879-75.787-.286z"/></g></g><g><g><path fill="#407bff" d="M201.137 323.923l-55.85-.211-.992 10.879 55.849.21c1.507.006 2.84-1.212 2.98-2.72l.494-5.418c.137-1.507-.973-2.735-2.482-2.74z"/></g><g opacity=".5"><path fill="#fff" d="M201.137 323.923l-55.85-.211-.992 10.879 55.849.21c1.507.006 2.84-1.212 2.98-2.72l.494-5.418c.137-1.507-.973-2.735-2.482-2.74z"/></g></g><g><g><path fill="#407bff" d="M146.066 315.179l75.787.286.993-10.879-75.787-.286z"/></g><g opacity=".5"><path fill="#fff" d="M146.066 315.179l75.787.286.993-10.879-75.787-.286z"/></g></g><g><g><path fill="#407bff" d="M141.113 369.45l-.582 6.381 75.787.286.582-6.38z"/></g><g opacity=".3"><path fill="#fff" d="M141.113 369.45l-.582 6.381 75.787.286.582-6.38z"/></g></g></g></g><g><g><path fill="#ffb573" d="M136.058 307.592s4.054-.418 3.988-7.877c0 0 3.745-1.713 6.171.492 2.426 2.204-2.188 7.356.827 9.521 0 0-2.647 1.781-10.986-2.136z"/></g><g><path fill="#263238" d="M153.81 289.245c.037-.5.331-.885.658-.86.326.025.561.45.524.95-.038.499-.332.883-.658.859-.327-.024-.562-.449-.524-.949z"/></g><g><path fill="#ed893e" d="M154.15 290.15l2.638 3.484s-1.146.998-2.9.524z"/></g><g><path fill="#ffb573" d="M136.544 288.465c.303 6.317.296 9.004 3.44 12.286 4.83 3.365 12.438 3.187 14.026-3.1 1.433-5.656.697-15.016-5.455-17.646a8.636 8.636 0 0 0-12.01 8.46z"/></g><g><path fill="#263238" d="M152.873 287.768a.311.311 0 0 0 .273-.06 2.312 2.312 0 0 1 2.038-.569.292.292 0 0 0 .357-.2.3.3 0 0 0-.2-.365 2.903 2.903 0 0 0-2.58.687.285.285 0 0 0-.051.4l.009.011c.038.05.094.084.154.096z"/></g><g opacity=".2"><path d="M142.944 302.255a8.392 8.392 0 0 0 3.377 3.083c.205-.82.442-1.65.555-2.423a11.625 11.625 0 0 1-3.932-.66z"/></g><g><g><path fill="#263238" d="M133.256 308.755s.76-4.763 6.523-4.784c8.135-.031 10.527 3.81 10.527 3.81z"/></g><g opacity=".3"><path d="M133.256 308.755s.76-4.763 6.523-4.784c8.135-.031 10.527 3.81 10.527 3.81z"/></g></g><g><g><path fill="#ffb573" d="M131.462 467.548l.72 12.044 6.75-.245.385-11.556z"/></g><g><g><path fill="#407bff" d="M140.602 478.355zm0 0a7.718 7.718 0 0 1 2.727-.959c.11-.002.217.01.32.04a.46.46 0 0 1 .328.232c.125.206.082.307.035.364-.324.46-2.1.48-3.41.323zm-.538.227c.71.125 1.43.19 2.153.19.875-.004 1.779-.17 2.067-.547a.628.628 0 0 0-.016-.725.871.871 0 0 0-.528-.387c-1.176-.319-3.624 1.096-3.733 1.159a.165.165 0 0 0-.079.175c.014.067.067.12.136.135z"/></g><g><path fill="#407bff" d="M141.892 475.712c.3.024.32.145.333.188.044.477-1.058 1.675-1.927 2.196.079-.8.401-1.554.924-2.163a.87.87 0 0 1 .575-.212zm-1.917 2.861a.16.16 0 0 0 .114.007.097.097 0 0 0 .07-.007c.84-.378 2.523-1.912 2.37-2.703-.02-.19-.163-.422-.622-.466a1.237 1.237 0 0 0-.927.29c-.893.74-1.072 2.64-1.08 2.729a.164.164 0 0 0 .075.15z"/></g><g><path fill="#263238" d="M139.34 477.6l-7.683.038a.618.618 0 0 0-.601.485l-1.358 6.257a1.028 1.028 0 0 0 .994 1.255c2.768-.062 5.23-.226 8.679-.238 4.068-.019 3.038.473 7.823.518 2.881.025 3.393-3.254 2.17-3.41-5.595-.677-6.185-2.363-8.353-4.355a2.47 2.47 0 0 0-1.671-.55z"/></g></g><g opacity=".2"><path d="M131.834 473.771h7.283l.2-5.98-7.855-.243z"/></g><g><path fill="#407bff" d="M126.486 362.565s-1.427 10.1 2.126 27.012c1.5 7.139 3.897 21.631 3.829 28.925-.046 4.835-1.063 7.02-2.765 19.142-1.702 12.123.85 34.03.85 34.03l9.777.114s6.098-40.5 7.239-54.562c.58-7.157.85-28.713.85-28.713l-3.402-25.948z"/></g><g opacity=".1"><path d="M138.526 379.708s2.185 15.428 9.458 28.065c.277-8.774.408-19.26.408-19.26l-.087-.666-4.999-6.965z"/></g></g><g><g><g><path fill="#ffb573" d="M160.45 467.812l1.22 12.003 6.735-.526-.097-11.562z"/></g><g><g><path fill="#407bff" d="M172.718 477.157c.107-.007.215.003.32.027a.457.457 0 0 1 .338.218c.133.201.094.303.05.36-.305.475-2.078.568-3.393.467a7.71 7.71 0 0 1 2.685-1.072zm-1.055 1.42c.875-.04 1.77-.243 2.042-.631a.63.63 0 0 0-.046-.724.87.87 0 0 0-.542-.366c-1.189-.268-3.577 1.247-3.682 1.314a.166.166 0 0 0-.073.177c.018.067.073.12.141.13.716.097 1.439.13 2.16.1z"/></g><g><path fill="#407bff" d="M171.115 475.547l.096-.013c.3.011.326.13.34.174.065.474-.986 1.718-1.834 2.274.046-.8.337-1.568.833-2.2a.88.88 0 0 1 .565-.235zm-1.7 2.925a.152.152 0 0 0 .114.002.09.09 0 0 0 .07-.01c.823-.41 2.442-2.015 2.255-2.798-.027-.19-.18-.415-.642-.44-.336-.02-.666.099-.913.327-.861.778-.96 2.684-.966 2.773a.166.166 0 0 0 .082.146z"/></g><g><path fill="#263238" d="M168.74 477.527l-7.675.358a.618.618 0 0 0-.58.51l-1.097 6.309a1.03 1.03 0 0 0 1.047 1.211c2.763-.177 5.216-.443 8.661-.599 4.065-.188 3.056.346 7.837.191 2.881-.095 3.256-3.393 2.027-3.498-5.619-.442-6.278-2.102-8.527-4.001a2.474 2.474 0 0 0-1.693-.481z"/></g></g><g opacity=".2"><path d="M168.307 467.727l-7.858.085.603 5.923 7.302-.434z"/></g></g><g><path fill="#407bff" d="M136.907 362.565s-1.453 15.314 6.398 29.565c7.853 14.25 8.627 18.439 9.192 25.096.542 6.369.575 8.507 1.425 21.694.85 13.187 5.641 32.868 5.641 32.868l10.099-.645s.015-41.714-1.702-56.47c-1.531-13.155-9.571-52.108-9.571-52.108z"/></g></g><g><path fill="#263238" d="M133.256 307.1s-12.779 1.655-14.375 8.994c-1.594 7.337 2.092 21.374 7.188 23.129 5.095 1.755 7.187-32.123 7.187-32.123z"/></g><g opacity=".4"><path d="M128.134 313.966l-2.253-1.363s-3.156 4.091-5.128 19.472c1.351 3.584 3.209 6.422 5.316 7.148 2.058.709 3.626-4.397 4.764-10.733z"/></g><g><path fill="#263238" d="M125.104 364.427s13.239 3.668 35.411 0c0 0-1.5-19.546.798-37.168 2.393-18.344-2.074-19.62-14.515-20.258-12.443-.638-21.282-1.31-21.694 10.05-.958 26.32 0 47.376 0 47.376z"/></g><g opacity=".4"><path d="M155.553 317.573s.95 10.371 5.004 17.154l.001.002c.187-2.489.433-4.998.755-7.47.571-4.38.747-7.779.521-10.437l-4.35-6.47z"/></g><g><g><path fill="#ffb573" d="M187.24 332.814l7.402-1.012.57-1.813a1.447 1.447 0 0 1 1.76-.962l.84.227 3.197-1.668a1.448 1.448 0 0 1 2.117 1.32l-.07 2.916a1.78 1.78 0 0 1-.017.188l-.344 2.207a1.447 1.447 0 0 1-1.205 1.208l-4.626.73-8.504 1.805z"/></g><g><path fill="#263238" d="M154.299 307.782s9.247 0 13.555 6.238c3.594 5.206 7.337 16.27 13.08 16.75 5.742.478 11.485 0 11.485 0s2.712 2.71 1.276 7.176c0 0-11.322 4.627-19.38 2.075-8.057-2.553-20.978-26.32-20.978-26.32z"/></g></g><g><path fill="#263238" d="M147.382 291.873s1.515-3.51 1.116-7.019c0 0 5.942 2.233 6.839-.559.899-2.79-1.973-3.508-1.973-3.508s2.95-.4 1.27-2.394c-1.646-1.95-4.7-1.275-4.7-1.275s3.027-1.915.716-3.032c-2.31-1.116-5.741 2.314-5.741 2.314s1.977-3.19-.328-3.75c-2.303-.557-5.095 5.383-5.095 5.383s-6.08.6-6.23 2.754c-.15 2.153 1.996 2.153 1.996 2.153s-3.981.638-3.343 2.712c.638 2.073 2.393.853 2.393.853s-2.55 2.214-1.675 4.252c.629 1.461 1.755.714 1.755.714s-.718 2.89.478 4.277c1.197 1.39 1.668-1.084 1.668-1.084s.036 3.012 2.096 4.417c0 0 1.9-1.864 5.728-.588z"/></g><g><path fill="#ffb573" d="M147.778 290.609a4.853 4.853 0 0 1 1.593 3.37c.069 1.714-1.565 2.19-2.978 1.397-1.28-.716-2.842-2.47-2.239-4.042.605-1.571 2.44-1.773 3.624-.725z"/></g></g></g><g><g><g><g><path fill="#263238" d="M8.97 426.197h53.468l-3.314 37.872H5.655zm53.802-3.829H9.304l3.314-37.87h53.468zm3.649-41.698H12.952l3.314-37.873h53.467zm3.648-41.701H16.6l3.313-37.872h53.467zm3.648-41.7H20.25l3.314-37.871H77.03zm3.649-41.7H23.897l3.314-37.873h53.467zm4.669-53.37l-1.021 11.669H27.546l1.02-11.67h-3.828L.472 479.568H4.3l1.02-11.67h53.47l-1.022 11.67h3.829l24.266-277.368z"/></g><g opacity=".3"><path fill="#fff" d="M8.97 426.197h53.468l-3.314 37.872H5.655zm53.802-3.829H9.304l3.314-37.87h53.468zm3.649-41.698H12.952l3.314-37.873h53.467zm3.648-41.701H16.6l3.313-37.872h53.467zm3.648-41.7H20.25l3.314-37.871H77.03zm3.649-41.7H23.897l3.314-37.873h53.467zm4.669-53.37l-1.021 11.669H27.546l1.02-11.67h-3.828L.472 479.568H4.3l1.02-11.67h53.47l-1.022 11.67h3.829l24.266-277.368z"/></g></g><g><g><path fill="#ff8b7b" d="M43.926 200.535l8.659 5.048 15.031-6.63.175-3.68a1.742 1.742 0 0 1 1.734-1.66l1.473-.003 1.564-1.428a1.742 1.742 0 0 1 2.63.328l.89 1.355c.222.337.32.739.278 1.14l-.47 4.462c-.07.66-.508 1.223-1.132 1.452l-4.052 1.487s-12.48 8.882-17.052 9.898c-4.571 1.019-13.614-3.766-13.614-3.766z"/></g><g><g><path fill="#407bff" d="M157.3 127.274l-69.187.33c-3.722-.008-7.617 2.511-7.95 6.24l-4.79 69.19 72.498 2.56 2.465-1.84z"/></g><g><g><g><path fill="#407bff" d="M147.872 205.555l5.824-65.496-71.816-.11-5.824 65.496z"/></g><g opacity=".8"><path fill="#fff" d="M147.872 205.555l5.824-65.496-71.816-.11-5.824 65.496z"/></g></g><g><path fill="#407bff" d="M149.382 188.577l-48.83-.076c-1.506-.002-2.837 1.219-2.971 2.728l-.481 5.422c-.134 1.51.978 2.735 2.485 2.738l48.829.075z"/></g><g><g><path fill="#407bff" d="M151.11 169.148l-48.829-.075c-1.507-.002-2.837 1.219-2.971 2.728l-.483 5.422c-.134 1.51.978 2.735 2.485 2.738l48.83.075z"/></g><g opacity=".5"><path fill="#fff" d="M151.11 169.148l-48.829-.075c-1.507-.002-2.837 1.219-2.971 2.728l-.483 5.422c-.134 1.51.978 2.735 2.485 2.738l48.83.075z"/></g></g><g><g><path fill="#407bff" d="M83.171 153.013c.22-2.47 2.395-4.47 4.86-4.465l64.901.1 1.688-18.97-68.998-.106c-3.723-.005-7.01 3.013-7.342 6.742l-6.146 69.125 6.373.01z"/></g><g opacity=".3"><path fill="#fff" d="M83.171 153.013c.22-2.47 2.395-4.47 4.86-4.465l64.901.1 1.688-18.97-68.998-.106c-3.723-.005-7.01 3.013-7.342 6.742l-6.146 69.125 6.373.01z"/></g></g><g><g><path fill="#407bff" d="M127.285 138.742c-.215 2.423-2.35 4.384-4.77 4.382-2.42-.004-4.206-1.972-3.99-4.396.215-2.424 2.351-4.386 4.77-4.381 2.42.004 4.206 1.97 3.99 4.395z"/></g><g opacity=".5"><path fill="#fff" d="M127.285 138.742c-.215 2.423-2.35 4.384-4.77 4.382-2.42-.004-4.206-1.972-3.99-4.396.215-2.424 2.351-4.386 4.77-4.381 2.42.004 4.206 1.97 3.99 4.395z"/></g></g><g><path fill="#407bff" d="M111.014 138.716c-.217 2.424-2.352 4.386-4.772 4.382-2.419-.004-4.204-1.972-3.99-4.395.217-2.423 2.353-4.386 4.772-4.382 2.418.004 4.205 1.972 3.99 4.395z"/></g><g><g><path fill="#407bff" d="M94.741 138.69c-.215 2.425-2.35 4.387-4.77 4.383-2.42-.005-4.206-1.971-3.99-4.396.215-2.423 2.351-4.384 4.77-4.382 2.42.005 4.206 1.972 3.99 4.396z"/></g><g opacity=".2"><path d="M94.741 138.69c-.215 2.425-2.35 4.387-4.77 4.383-2.42-.005-4.206-1.971-3.99-4.396.215-2.423 2.351-4.384 4.77-4.382 2.42.005 4.206 1.972 3.99 4.396z"/></g></g><g><path fill="#fff" d="M92.61 140.073l-1.386-1.397 1.397-1.386c.569-.566-.307-1.448-.877-.883l-1.397 1.386c-.462-.464-.924-.93-1.386-1.397-.566-.568-1.448.308-.883.878.462.464.925.93 1.387 1.397l-1.397 1.386c-.57.565.307 1.448.877.882l1.397-1.386 1.386 1.397c.564.568 1.448-.307.883-.877z"/></g><g><g><path fill="#fff" d="M109.229 138.105l-5.182-.019c-.8-.002-.806 1.241-.004 1.244l5.181.019c.801.003.806-1.241.005-1.244z"/></g></g><g><g><path fill="#fff" d="M120.704 140.928l2.665.01-2.655-2.675z"/></g><g><path fill="#fff" d="M122.48 136.51l2.654 2.674.01-2.664z"/></g></g></g></g><g><g><path fill="#ff8b7b" d="M18.444 360.449l-1.018 12.022 6.715.727 2.042-11.38z"/></g><g><g><path fill="#407bff" d="M28.722 372.499c.108.013.211.041.31.086a.457.457 0 0 1 .292.275c.094.223.036.316-.019.365-.386.409-2.146.174-3.42-.169a7.715 7.715 0 0 1 2.837-.557zm-3.402.703c.685.227 1.389.394 2.103.497.867.121 1.786.09 2.124-.243a.627.627 0 0 0 .089-.72.867.867 0 0 0-.466-.46c-1.12-.483-3.745.565-3.86.612a.164.164 0 0 0-.106.16c.004.07.05.13.116.154z"/></g><g><path fill="#407bff" d="M27.542 370.625c.292.067.295.19.302.233-.024.479-1.288 1.508-2.223 1.897.193-.779.62-1.479 1.225-2.007a.864.864 0 0 1 .599-.127zm-2.31 2.556a.16.16 0 0 0 .113.023c.022.01.047.01.07.003.885-.253 2.771-1.53 2.734-2.334.01-.19-.101-.44-.55-.55a1.238 1.238 0 0 0-.957.153c-.99.605-1.44 2.46-1.462 2.545-.013.06.008.12.053.16z"/></g><g><path fill="#263238" d="M24.745 372.127l-7.609-1.067a.617.617 0 0 0-.664.395l-2.245 5.996a1.028 1.028 0 0 0 .805 1.384c2.75.337 5.209.53 8.622 1.013 4.03.565 2.94.904 7.668 1.636 2.849.438 3.827-2.732 2.638-3.063-5.44-1.473-5.782-3.226-7.64-5.509a2.477 2.477 0 0 0-1.575-.785z"/></g></g><g opacity=".2"><path fill="#263238" d="M26.183 361.818l-7.739-1.37-.532 6.281 7.199 1.065z"/></g></g><g><g><path fill="#263238" d="M56.606 170.339s5.434-2.553 4.91-.4c-.522 2.154-4.499 3.112-5.622 2.314-1.122-.798.712-1.914.712-1.914z"/></g><g><path fill="#ff8b7b" d="M42.578 195.696s4.054-.418 3.99-7.877c0 0 3.744-1.711 6.17.492 2.427 2.204-2.187 7.355.826 9.52 0 0-2.645 1.782-10.986-2.135z"/></g><g><path fill="#263238" d="M60.33 177.35c.038-.5.332-.885.66-.86.326.024.56.448.522.948-.037.5-.332.884-.658.86-.327-.025-.562-.449-.524-.949z"/></g><g><path fill="#ff5652" d="M60.671 178.253l2.637 3.485s-1.144.998-2.9.524z"/></g><g><path fill="#ff8b7b" d="M43.065 176.569c.303 6.317.295 9.004 3.44 12.287 4.829 3.363 12.437 3.186 14.027-3.1 1.431-5.657.697-15.017-5.456-17.647a8.636 8.636 0 0 0-12.011 8.46z"/></g><g><path fill="#263238" d="M59.395 175.872a.31.31 0 0 0 .271-.06 2.313 2.313 0 0 1 2.038-.569.294.294 0 0 0 .359-.2.302.302 0 0 0-.2-.366 2.906 2.906 0 0 0-2.582.688.285.285 0 0 0-.051.4l.01.011c.038.05.093.084.155.096z"/></g><g opacity=".2"><path d="M49.464 190.36a8.39 8.39 0 0 0 3.379 3.082c.204-.82.441-1.65.553-2.423a11.63 11.63 0 0 1-3.932-.66z"/></g><g><path fill="#263238" d="M46.475 189.808s.44-.53 2.215.249c0 0 4.138-4.643 4.874-7.994 0 0 2.177-1.221 2.33-4 .154-2.78.234-4.613 1.35-5.251 1.117-.638 4.171-3.43 1.927-6.302-2.246-2.87-2.086.478-2.086.478s-6.603-7.576-5.654-2.552c0 0-7.48-1.72-3.68 2.394 0 0-8.452 2.153-5.66 10.128 0 0-2.925 7.763 4.384 12.85z"/></g><g><path fill="#ff8b7b" d="M54.3 178.713a4.854 4.854 0 0 1 1.592 3.37c.07 1.714-1.565 2.19-2.977 1.398-1.281-.717-2.844-2.471-2.24-4.043.604-1.57 2.442-1.773 3.625-.725z"/></g></g><g><g><path fill="#407bff" d="M49.35 193.755c1.439.129 3.346.426 5.32 1.065-.76-1.209-2.353-3.202-5.56-3.617-3.695-.479-5.156 1.336-5.943 2.662 1.823-.263 3.874-.317 6.183-.11z"/></g><g opacity=".5"><path fill="#fff" d="M49.35 193.755c1.439.129 3.346.426 5.32 1.065-.76-1.209-2.353-3.202-5.56-3.617-3.695-.479-5.156 1.336-5.943 2.662 1.823-.263 3.874-.317 6.183-.11z"/></g></g><g><path fill="#263238" d="M28.134 241.45s-3.456 7.923-1.968 29.404c0 0 2.785 25.378 1.064 33.604-3.096 14.807-8.295 17.442-10.103 59.66l9.253 1.276s12.205-42.691 14.993-57.107c1.73-8.944 4.042-36.05 4.042-36.05l.856-28.713z"/></g><g><g><path fill="#ff8b7b" d="M41.698 362.7l.018 12.064 6.753.148 1.057-11.514z"/></g><g><g><path fill="#407bff" d="M52.974 373.22c.108.004.214.024.316.06.137.03.254.123.314.249.113.214.063.312.014.365-.351.44-2.124.358-3.423.125.868-.439 1.81-.709 2.78-.8zm-1.191 1.308c.874.047 1.786-.065 2.095-.425a.626.626 0 0 0 .026-.725.873.873 0 0 0-.504-.417c-1.157-.386-3.682.884-3.793.94-.064.032-.1.1-.09.17.009.07.06.126.127.143.703.167 1.419.273 2.139.314z"/></g><g><path fill="#407bff" d="M51.636 371.455c.298.042.312.164.321.207.018.48-1.152 1.612-2.05 2.08a3.915 3.915 0 0 1 1.047-2.104.871.871 0 0 1 .587-.18zm-1.966 2.758a.09.09 0 0 0 .07-.003c.86-.328 2.63-1.761 2.522-2.559-.006-.192-.137-.431-.593-.502a1.242 1.242 0 0 0-.942.235c-.935.689-1.224 2.573-1.237 2.66-.008.061.017.12.066.155a.154.154 0 0 0 .114.014z"/></g><g><path fill="#263238" d="M48.98 373.192l-7.674-.409a.617.617 0 0 0-.628.45l-1.72 6.167a1.028 1.028 0 0 0 .92 1.31c2.769.1 5.235.08 8.678.267 4.064.218 3.006.65 7.78.972 2.876.192 3.578-3.05 2.366-3.278-5.548-1-6.038-2.719-8.087-4.833a2.476 2.476 0 0 0-1.636-.646z"/></g></g><g opacity=".2"><path fill="#263238" d="M41.709 369.625l7.235.119.582-6.346-7.828-.699z"/></g></g><g opacity=".4"><path d="M45.058 276.277l-1.876-3.508-4.999-4.68s-1.582 20.251 3.822 36.35c1.174-8.1 2.447-21.49 3.053-28.162z"/></g><g><path fill="#263238" d="M39.46 243.524s-1.595 7.657-1.277 24.565c.32 16.909 6.467 29.783 6.374 39.88-.134 14.704-6.415 22.65-3.822 58.701h9.891s7.829-44.663 8.933-59.66c1.14-15.513-.078-62.21-.078-62.21z"/></g><g><g><path fill="#407bff" d="M40.174 194.546s-7.175.564-8.77 5.51c-1.595 4.945 1.15 8.467 1.15 8.467l3.875 1.104z"/></g><g opacity=".1"><path d="M40.174 194.546s-7.175.564-8.77 5.51c-1.595 4.945 1.15 8.467 1.15 8.467l3.875 1.104z"/></g></g><g><path fill="#407bff" d="M49.35 193.755c4.607.412 14.037 2.552 14.994 12.123.958 9.571-3.509 43.388-3.509 43.388s-17.866.638-34.455-4.148c0 0 5.529-18.716 6.38-40.516.286-7.333 5.744-11.818 16.59-10.847z"/></g><g opacity=".1"><path d="M55.526 204.285s3.197 9.492 8.454 15.551c.361-4.771.57-9.127.471-12.16z"/></g><g><g><path fill="#ff8b7b" d="M69.66 205.79l7.659 6.469 15.951-3.935.806-3.594a1.743 1.743 0 0 1 1.995-1.336l1.452.25 1.787-1.136a1.742 1.742 0 0 1 2.533.778l.644 1.49c.16.369.186.781.076 1.17l-1.232 4.313a1.742 1.742 0 0 1-1.366 1.234l-4.25.766s-13.824 6.593-18.504 6.805c-4.679.213-12.76-6.061-12.76-6.061z"/></g><g><path fill="#407bff" d="M56.647 195.58s7.618 1.924 16.55 10.377c0 0-1.955 6.69-9.153 10.045 0 0-15.653-16.123-7.397-20.422z"/></g></g><g><g><path fill="#263238" d="M16.755 361.512l-.266 3.403 10.05 1.436.963-3.029z"/></g><g opacity=".3"><path fill="#fff" d="M16.755 361.512l-.266 3.403 10.05 1.436.963-3.029z"/></g></g><g><g><path fill="#263238" d="M40.235 364.394l.33 3.397 10.22-.013.585-3.324z"/></g><g opacity=".3"><path fill="#fff" d="M40.235 364.394l.33 3.397 10.22-.013.585-3.324z"/></g></g></g></g></g></g></g></svg>