<svg xmlns="http://www.w3.org/2000/svg" width="587" height="526" viewBox="0 0 587 526"><defs><clipPath id="blmga"><path d="M190.256 116.772c0-54.573 44.24-98.814 98.814-98.814 54.573 0 98.814 44.24 98.814 98.814 0 54.574-44.24 98.815-98.814 98.815-54.574 0-98.814-44.241-98.814-98.815z"/></clipPath></defs><g><g><g><g><path fill="#e6e6e6" d="M16.807 456.409v-.347H74v.347z"/></g><g><path fill="#e6e6e6" d="M133.218 453.633v-.347h57.359v.347z"/></g><g><path fill="#e6e6e6" d="M251.336 453.633v-.347h13.878v.347z"/></g><g><path fill="#e6e6e6" d="M62.314 465.485v-.347h64.187v.347z"/></g><g><path fill="#e6e6e6" d="M318.534 456.228v-.346h29.977v.346z"/></g><g><path fill="#e6e6e6" d="M360.863 456.228v-.346h38.762v.346z"/></g><g><path fill="#e6e6e6" d="M499.91 462.099v-.347h86.655v.347z"/></g></g><g><g><path fill="#e6e6e6" d="M8.45 54.745h133.553c17.11 0 21.238-23.956 5.078-29.576a25.193 25.193 0 0 0-.623-.21c17.874-14.893-21.345-46.292-63.943-2.817 3.32-14.496-34.543-9.258-46.127 10.52C32.273 19.674-3.836 42.236 8.45 54.745z"/></g><g><path fill="#ebebeb" d="M350.998 46.153h75.466s17.696-6.666 15.408-24.32c-2.289-17.65-29.006-2.943-29.006-2.943s8.098-24.63-17.775-17.642c-25.873 6.99-28.395 31.407-28.395 31.407s-33.984-5.932-15.698 13.498z"/></g></g><g><path fill="#f0f0f0" d="M549.226 346.328l-44.466-.166a6.524 6.524 0 0 0-6.523 6.522v15.669a6.537 6.537 0 0 1-6.537 6.536h-65.158a6.548 6.548 0 0 1-6.55-6.522v-57.539a6.512 6.512 0 0 0-6.537-6.496h-13.879a6.537 6.537 0 0 1-6.536-6.536v-31.393a6.522 6.522 0 0 0-6.523-6.523h-22.746a6.522 6.522 0 0 0-6.523 6.523v9.243a6.537 6.537 0 0 1-6.537 6.537h-2.123a6.522 6.522 0 0 1-6.523-6.523v-34.168a6.537 6.537 0 0 0-6.537-6.537h-22.524c-3.596 0-6.537 2.94-6.537 6.537v34.224a6.524 6.524 0 0 1-6.523 6.522h-7.022a6.524 6.524 0 0 1-6.523-6.522v-68.984h.068v-34.555h-1.388v21.284c-.133-.178-.25-.364-.4-.528l-51.836-29.77c-1.096-1.194-1.72.014-1.72-1.596v-42.606l-3.567-2.554L162.8 70.002V51.54h-1.388v17.467l-.264-.188v206.91a6.537 6.537 0 0 1-6.537 6.537h-8.507c-3.608 0-6.537-2.914-6.537-6.523l-2.038-77.259a5.275 5.275 0 0 0-.517-2.14l-12.655-26.422h-.944v-29.873a5.281 5.281 0 0 0-5.28-5.28h-2.547V113.61h-1.388v21.157h-1.34a5.281 5.281 0 0 0-5.28 5.28v1.343h-5.926v-1.342a5.281 5.281 0 0 0-5.28-5.28h-2.249V113.61h-1.388v21.157h-1.637a5.281 5.281 0 0 0-5.281 5.28v29.874h-.944l-12.67 26.421a5.26 5.26 0 0 0-.517 2.141l-2.079 77.176a6.539 6.539 0 0 1-6.536 6.537H51.12a6.522 6.522 0 0 0-6.522 6.522v8.994a6.522 6.522 0 0 1-6.523 6.522H29.54a6.5 6.5 0 0 0-6.44 5.399L.37 429.098a6.114 6.114 0 0 0-.125 1.235 6.548 6.548 0 0 0 6.55 6.523h542.362c1.374 0 .07-90.528.07-90.528z"/></g><g><g><path fill="#f0f0f0" d="M497.045 66.566c-1.259-9.712-9.739-7.454-9.739-7.454s4.455-13.55-9.778-9.705c-4.627 1.25-7.896 3.513-10.2 5.997-5.796 6.245-5.74 16.118.187 22.238 4.144 4.28 10.097 10.236 21.144 4.22 3.01-1.638 9.645-5.584 8.386-15.296z"/></g><g><path fill="#f5f5f5" d="M504.635 110.96a6.43 6.43 0 1 1-12.861.001 6.43 6.43 0 0 1 12.86-.001z"/></g><g><g><path fill="#ebebeb" d="M486.55 207.372v-67.765h36.503v67.765z"/></g><g><path fill="#f5f5f5" d="M476.378 207.372v-67.765h36.502v67.765z"/></g><g><path fill="#f5f5f5" d="M471.591 139.61v-14.769h54.458v14.77z"/></g><g><path fill="#ebebeb" d="M517.663 139.61v-14.769h8.386v14.77z"/></g></g><g><path fill="#e6e6e6" d="M308.344 437.014V253.262h247.563v183.752z"/></g><g><g><path fill="#f5f5f5" d="M434.218 113.212l-140.05 140.05h280.1z"/></g><g><path fill="#e0e0e0" d="M294.168 269.423v-16.161h280.1v16.161z"/></g></g></g><g><g><path fill="#e0e0e0" d="M43.45 149.668a2.607 2.607 0 0 0-2.599 2.606v313.011h5.206v-313.05a2.607 2.607 0 0 0-2.608-2.567z"/></g><g><g><path fill="#e0e0e0" d="M12.837 193.594c0-18.71 15.167-33.877 33.877-33.877s33.877 15.167 33.877 33.877-15.168 33.877-33.877 33.877c-18.71 0-33.877-15.167-33.877-33.877z"/></g><g><path fill="#fafafa" d="M17.014 193.594c0-18.71 15.167-33.877 33.877-33.877s33.877 15.167 33.877 33.877S69.6 227.471 50.89 227.471c-18.71 0-33.877-15.167-33.877-33.877z"/></g></g><g><g><path fill="#e0e0e0" d="M70.482 201.818H66.71l-1.253-14.326h3.77zm-7.244-9.465h-4.861l-.426-4.861h4.861zm-7.832 0h-4.862l-.426-4.861h4.862zm-7.822 0H42.71l-.426-4.861h4.874zm-7.833 0h-4.862l-.424-4.861h4.861zm-5.766 9.465h-3.771l-1.253-14.326h3.77zm38.406-14.315l-.008-.09c-.132-1.51-1.466-2.735-2.974-2.735H30.043c-1.542 0-2.692 1.26-2.556 2.814h.517l.784 8.958h-.517l.597 6.82h7.483s-.104-.81-.143-1.25c-.193-2.206 1.44-3.995 3.646-3.995 2.205 0 4.15 1.79 4.345 3.996.037.438.154 1.249.154 1.249h12.424s-.025-.81-.064-1.25c-.193-2.206 1.44-3.995 3.646-3.995 2.205 0 4.15 1.79 4.344 3.996.039.438.076 1.249.076 1.249h8.992l-.955-10.917-1.034.011-.425-4.85z"/></g><g><path fill="#e0e0e0" d="M40.402 203.653c-.866 0-1.638-.72-1.714-1.588a1.424 1.424 0 0 1 1.438-1.575c.888 0 1.66.71 1.736 1.575a1.439 1.439 0 0 1-1.46 1.588zm-.415-4.75c-1.734 0-3.04 1.406-2.887 3.162.154 1.756 1.707 3.163 3.44 3.163 1.756 0 3.051-1.407 2.897-3.163-.154-1.756-1.695-3.161-3.45-3.161z"/></g><g><path fill="#e0e0e0" d="M60.896 203.653c-.866 0-1.64-.72-1.714-1.588a1.424 1.424 0 0 1 1.438-1.575c.877 0 1.648.71 1.723 1.575a1.435 1.435 0 0 1-1.447 1.588zm-.415-4.75c-1.745 0-3.04 1.406-2.887 3.162.154 1.756 1.695 3.163 3.44 3.163 1.755 0 3.05-1.407 2.897-3.163-.154-1.756-1.695-3.161-3.45-3.161z"/></g></g></g><g><g><g><path fill="#e6e6e6" d="M194.868 334.437h-8.15V317.71h8.15zM175.5 325.86h-8.15v-8.15h8.15zm-19.369 0h-8.159v-8.15h8.16zm-19.368 0h-8.16v-8.15h8.16zm-19.377 0h-8.15v-8.15h8.15zm-19.369 8.578h-8.149V317.71h8.15zm-11.305-20.635v24.306H197.9v-24.306z"/></g><g><path fill="#e6e6e6" d="M100.71 313.803v-2.21h16.674v2.21z"/></g><g><path fill="#e6e6e6" d="M167.277 313.803v-2.21h16.674v2.21z"/></g><g><path fill="#e6e6e6" d="M105.773 342.044a3.698 3.698 0 1 1-7.396-.001 3.698 3.698 0 0 1 7.396 0z"/></g><g><path fill="#e6e6e6" d="M119.753 342.044a3.698 3.698 0 1 1-7.395-.001 3.698 3.698 0 0 1 7.395 0z"/></g><g><path fill="#e6e6e6" d="M172.321 342.044a3.698 3.698 0 1 1-7.395-.001 3.698 3.698 0 0 1 7.395 0z"/></g><g><path fill="#e6e6e6" d="M186.301 342.044a3.697 3.697 0 1 1-7.394 0 3.697 3.697 0 0 1 7.394 0z"/></g></g><g><g><path fill="#e6e6e6" d="M306.796 334.437h-8.15V317.71h8.15zm-19.368-8.578h-8.15v-8.15h8.15zm-19.369 0H259.9v-8.15h8.16zm-19.368 0h-8.16v-8.15h8.16zm-19.377 0h-8.15v-8.15h8.15zm-19.369 8.578h-8.149V317.71h8.15zm-11.305-20.635v24.306h111.187v-24.306z"/></g><g><path fill="#e6e6e6" d="M212.637 313.803v-2.21h16.675v2.21z"/></g><g><path fill="#e6e6e6" d="M279.205 313.803v-2.21h16.674v2.21z"/></g><g><path fill="#e6e6e6" d="M217.7 342.044a3.698 3.698 0 1 1-7.395-.001 3.698 3.698 0 0 1 7.396 0z"/></g><g><path fill="#e6e6e6" d="M231.682 342.044a3.698 3.698 0 1 1-7.396-.001 3.698 3.698 0 0 1 7.396 0z"/></g><g><path fill="#e6e6e6" d="M284.25 342.044a3.698 3.698 0 1 1-7.396-.001 3.698 3.698 0 0 1 7.396 0z"/></g><g><path fill="#e6e6e6" d="M298.23 342.044a3.697 3.697 0 1 1-7.394 0 3.697 3.697 0 0 1 7.393 0z"/></g></g></g><g><path fill="#e6e6e6" d="M308.344 436.856H44.67l14.506-91.1h249.17z"/></g><g><g><path fill="#f5f5f5" d="M20.027 510.266c0-8.677 120.474-15.71 269.086-15.71 148.611 0 269.085 7.033 269.085 15.71 0 8.676-120.474 15.71-269.085 15.71-148.612 0-269.086-7.034-269.086-15.71z"/></g></g><g><g><g><path fill="#ffb573" d="M91.768 273.295s10.532 73.609 28.006 109.072c18.182 36.879 54.843 96.554 54.843 96.554l9.408-4.388s-12.77-50.55-41.438-100.425c-11.886-43.014-17.893-114.544-17.893-114.544z"/></g><g opacity=".8"><path fill="#263238" d="M91.768 273.295s10.532 73.609 28.006 109.072c18.182 36.879 54.843 96.554 54.843 96.554l9.408-4.388s-12.77-50.55-41.438-100.425c-11.886-43.014-17.893-114.544-17.893-114.544z"/></g></g><g><g><path fill="#ffb573" d="M91.749 262.204s-16.742 71.16-15.895 110.687c.888 41.106 8.886 110.686 8.886 110.686h10.381s9.797-51.21 4.898-108.528c28.413-58.197 35.689-108.211 35.689-108.211z"/></g><g opacity=".8"><path fill="#263238" d="M91.749 262.204s-16.742 71.16-15.895 110.687c.888 41.106 8.886 110.686 8.886 110.686h10.381s9.797-51.21 4.898-108.528c28.413-58.197 35.689-108.211 35.689-108.211z"/></g></g><g><g><path fill="#407bff" d="M89.613 254.983c-3.609 4.363-8.516 7.436-13.326 10.418-3.502 2.17-7.005 4.339-10.495 6.513-3.597 2.228-7.447 4.537-11.681 4.476-4.216-.067-7.991-7.823-6.987-9.376 5.93-9.043 19.953-18.483 24.68-25.352.827-1.207 2.16-5.233 2.157-5.313-.039-2.91.33-14.01.33-14.01-1.021-16.972 4.039-35.314 7.875-38.457 5.516-4.544 8.535-7.644 12.48-3.11 2.593 3.022-1.475 32.71-1.301 47.974l.005.018c.056.444 1.002 7.442 1.148 9.268.727 9.255-1.278 12.588-4.885 16.95z"/></g><g opacity=".2"><path d="M89.613 254.983c-3.609 4.363-8.516 7.436-13.326 10.418-3.502 2.17-7.005 4.339-10.495 6.513-3.597 2.228-7.447 4.537-11.681 4.476-4.216-.067-7.991-7.823-6.987-9.376 5.93-9.043 19.953-18.483 24.68-25.352.827-1.207 2.16-5.233 2.157-5.313-.039-2.91.33-14.01.33-14.01-1.021-16.972 4.039-35.314 7.875-38.457 5.516-4.544 8.535-7.644 12.48-3.11 2.593 3.022-1.475 32.71-1.301 47.974l.005.018c.056.444 1.002 7.442 1.148 9.268.727 9.255-1.278 12.588-4.885 16.95z"/></g></g><g><g><path fill="#ffb573" d="M47.395 271.001l-10.467.46 5.841 10.773s5.85-2.961 7.627-7.495z"/></g><g><path fill="#ffb573" d="M30.963 276.635l3.97 8.82 7.783-3.206-5.855-10.769z"/></g></g><g><g><path fill="#407bff" d="M42.629 266.491l7.562 15.077 8.158-.81-10.801-20.323z"/></g><g opacity=".4"><path fill="#fff" d="M42.629 266.491l7.562 15.077 8.158-.81-10.801-20.323z"/></g></g><g><path fill="#263238" d="M96.235 486.693a8.972 8.972 0 0 1 .875 4.233c-.097 5.329-.68 19.429-.68 19.429h-1.25s-.277-6.94-.888-10.45c-.61-3.511-1.387-.57-3.539 3.08-2.15 3.65-7.702 7.176-15.807 7.37-9.506.222-13.35-.194-10.589-2.498 2.762-2.304 9.063-3.789 9.063-3.789s9.118-12.698 9.242-21.664c.125-9.603 11.27.139 13.643-1.055.79.167-.472 4.539-.07 5.344z"/></g><g><path fill="#263238" d="M186.351 476.885a8.979 8.979 0 0 1 2.583 3.467c2.163 4.871 7.597 17.896 7.597 17.896l-1.133.527s-3.185-6.172-5.222-9.094c-2.037-2.925-1.499.07-1.906 4.287-.406 4.217-3.947 9.759-11.21 13.36-8.522 4.22-12.181 5.468-10.652 2.214 1.53-3.256 6.612-7.265 6.612-7.265s2.895-15.362-.782-23.54c-3.947-8.756 10.272-4.639 11.917-6.723.787-.184 1.491 4.312 2.196 4.87z"/></g><g><g><path fill="#263238" d="M64.914 239.534L52.96 282.62c-.866 3.123-1.7 6.605-.195 9.475 2.29 4.372 8.33 4.665 13.256 4.37l22.871-1.367c3.985-.238 8.602-.84 10.666-4.258 1.236-2.047 1.186-4.592 1.081-6.982a455.156 455.156 0 0 0-3.685-40.952c-1.072-7.898-3.428-17.384-12.808-17.406-9.91-.025-16.62 4.616-19.232 14.033z"/></g><g opacity=".1"><path fill="#fafafa" d="M64.914 239.534L52.96 282.62c-.866 3.123-1.7 6.605-.195 9.475 2.29 4.372 8.33 4.665 13.256 4.37l22.871-1.367c3.985-.238 8.602-.84 10.666-4.258 1.236-2.047 1.186-4.592 1.081-6.982a455.156 455.156 0 0 0-3.685-40.952c-1.072-7.898-3.428-17.384-12.808-17.406-9.91-.025-16.62 4.616-19.232 14.033z"/></g></g><g><path fill="#263238" d="M138.711 358.244c-6.231.873-11.971 4.83-28.181 5.33-.32 0-.638.013-.971.013-.68.028-1.388.028-2.124.014-4.344-.056-28.979-2.779-33.406-5.651 6.578-39.456 14.551-83.117 15.883-91.097v-.07l1.083-6.467-.555-2.22.055-.57 22.108.806 24.884.916s18.78 31.124 1.224 98.996z"/></g><g><g><path fill="#407bff" d="M89.29 179.444c4.15-1.125 11.298-2.929 17.82-4.095a168.28 168.28 0 0 1 23.135-2.11c4.913-.207 9.73-.055 13.56.167a6.4 6.4 0 0 1 5.76 8.133c-10.451 37.346-12.08 53.963-12.468 73.24l-45.73-1.395a2.21 2.21 0 0 1-2.115-1.922c-2.229-16.307-6.663-29.654-7.056-39.227-.573-13.952 1.777-23.514 2.473-27.615a6.41 6.41 0 0 1 4.622-5.177z"/></g><g opacity=".1"><path d="M89.29 179.444c4.15-1.125 11.298-2.929 17.82-4.095a168.28 168.28 0 0 1 23.135-2.11c4.913-.207 9.73-.055 13.56.167a6.4 6.4 0 0 1 5.76 8.133c-10.451 37.346-12.08 53.963-12.468 73.24l-45.58-1.39a2.393 2.393 0 0 1-2.286-2.076c-2.234-16.24-6.643-29.534-7.035-39.078-.573-13.952 1.777-23.514 2.473-27.615a6.41 6.41 0 0 1 4.622-5.177z"/></g></g><g><g><path fill="#263238" d="M72.108 235.795l-2.608-.95c5.25-14.412 7.475-25.814 9.1-34.14 2.578-13.204 3.999-20.476 13.881-22.426l.536 2.723c-8.052 1.59-9.193 7.432-11.692 20.235-1.644 8.415-3.893 19.941-9.217 34.558z"/></g><g opacity=".1"><path fill="#fafafa" d="M72.108 235.795l-2.608-.95c5.25-14.412 7.475-25.814 9.1-34.14 2.578-13.204 3.999-20.476 13.881-22.426l.536 2.723c-8.052 1.59-9.193 7.432-11.692 20.235-1.644 8.415-3.893 19.941-9.217 34.558z"/></g></g><g><path fill="#407bff" d="M149.81 176.235c-4.615-3.851-12.713-3.01-15.179 4.6-1.528 4.715 9.76 47.398 9.767 47.416 0 5.584 16.534 13.883 16.534 13.883 5.351-7.173-8.083-63.325-11.122-65.9z"/></g><g><path fill="#407bff" d="M135.626 203.396c-1.532-4.123-4.943-13.869-9.34-14.027-2.65-.096-8.022.375-9.287 2.706-1.265 2.332.219 10.855 3.139 24.612 1.77 8.33 5.873 17.89 11.36 24.404 5.487 6.513 12.158 11.108 20.496 9.376 3.855-.801 7.651-3.145 9.003-6.844 4.158-11.38-4.919-17.458-11.187-22.206-7.632-5.779-10.966-9.364-14.184-18.021z"/></g><g><g><path fill="#407bff" d="M137.097 173.225l-1.72 2.623c-6.635 10.159-21.165 22.774-26.564 23.745a19.443 19.443 0 0 0-5.051-7.674 11.52 11.52 0 0 0-6.398 6.495c-4.067-7.606-3.054-16.82-1.596-21.331 2.734-.625 5.648-1.25 8.424-1.735a168.484 168.484 0 0 1 23.135-2.096 79.28 79.28 0 0 1 9.77-.027z"/></g><g opacity=".2"><path fill="#fff" d="M137.097 173.225l-1.72 2.623c-6.635 10.159-21.165 22.774-26.564 23.745a19.443 19.443 0 0 0-5.051-7.674 11.52 11.52 0 0 0-6.398 6.495c-4.067-7.606-3.054-16.82-1.596-21.331 2.734-.625 5.648-1.25 8.424-1.735a168.484 168.484 0 0 1 23.135-2.096 79.28 79.28 0 0 1 9.77-.027z"/></g></g><g><g><g><path fill="#263238" d="M77.798 133.933c.754 5.323.046 14.992-7.1 25.588-9.155 13.59 10.901 22.203 24.263 21.24 11.845-.86 38.143-12.61 42.682-22.294 4.538-9.686-7.593-9.658-11.333-27.203s-16.925-15.007-27.676-15.018c-14.753-3.339-22.368 6.82-20.836 17.687z"/></g><g><path fill="#ffb573" d="M104.37 167.251c3.147 4.261 5.46 9.306.516 14.932-1.045 1.188-1.743 2.684-1.78 4.265-.056 2.533 1.416 4.996 9.67.133 11.961-7.04 10.96-14.997 10.96-14.997-6.29-1.905-10.05-15.11-11.506-22.667z"/></g><g opacity=".2"><path d="M111.561 160.257c.923 3.217-2.484 8.345-5.068 10.38a21.497 21.497 0 0 0-2.111-3.391l4.65-10.843c1.098 1.098 1.959 2.41 2.53 3.854z"/></g><g><path fill="#ffb573" d="M114.978 129.186c-4.696-7.998-14.987-10.674-22.984-5.976-11.28 6.533-10.424 24.828-6.284 35.397 4.536 11.764 19.875 13.259 27.825 2.574 5.332-7.128 4.663-12.308 3.719-24.59a16.787 16.787 0 0 0-2.276-7.405z"/></g><g><path fill="#263238" d="M98.664 143.314a1.081 1.081 0 0 0-.953.128c-.218.25-.297.593-.213.915l-1.027.131a1.834 1.834 0 0 1 2.426-2.176 6.002 6.002 0 0 1 3.303 2.246l-.881.54a5.07 5.07 0 0 0-2.655-1.784z"/></g><g><path fill="#263238" d="M87.548 145.518a1.097 1.097 0 0 0-.532-.7 1.145 1.145 0 0 0-.883.017 1.594 1.594 0 0 0-1.025 1.53l-1.03-.067a2.612 2.612 0 0 1 1.692-2.427 1.983 1.983 0 0 1 2.759 1.32z"/></g><g><path fill="#ed893e" d="M92.179 153.178a4.341 4.341 0 0 1-3.628-.173 26.53 26.53 0 0 0 2.65-6.826z"/></g><g><path fill="#263238" d="M101.59 152.757a.295.295 0 1 0-.535-.253 7.859 7.859 0 0 1-5.971 3.961.304.304 0 0 0-.243.33l.001.016a.277.277 0 0 0 .315.233 8.63 8.63 0 0 0 1.403-.28 8.325 8.325 0 0 0 5.03-4.007z"/></g><g><path fill="#263238" d="M80.071 125.918c-4.2 5.333 2.994 11.617 4.017 8.263 1.658-5.483 6.362-6.771 6.325-11.36-.055-7.19-6.14-2.238-10.342 3.097z"/></g><g><path fill="#263238" d="M100.363 136.35l.003-.003a.583.583 0 0 0-.124-.814c-2.673-2.02-6.471-.857-6.635-.795a.587.587 0 0 0 .36 1.114c.03-.011 3.333-1.09 5.548.593a.568.568 0 0 0 .68.016z"/></g><g><path fill="#263238" d="M82.324 140.18a4.608 4.608 0 0 1 3.683-2.112.59.59 0 1 0 .026-1.178 5.854 5.854 0 0 0-4.688 2.616l-.005.01a.582.582 0 0 0 .16.808c.17.12.39.138.577.05a.838.838 0 0 0 .247-.193z"/></g></g><g><path fill="#263238" d="M97.412 126.734c3.696.663 7.035 3.084 8.814 6.39.844 1.566 1.372 3.339 2.564 4.658 1.156 1.281 5.008 6.572 6.384 7.614 1.375 1.042.886-3.059 2.2-3.84 1.315-.781 2.832-1.245 3.987-2.248 1.586-1.38 2.237-3.628 2.036-5.722-.202-2.093-1.16-4.049-2.35-5.782-3.343-4.873-8.699-8.319-14.518-9.343-5.82-1.023-12.03.387-16.836 3.826-1.551 1.11-5.952 5.803-2.015 6.373 1.194.174 3.286-1.43 4.5-1.733a12.542 12.542 0 0 1 5.234-.193z"/></g><g><g><path fill="#263238" d="M121.719 144.244c-3.652-4.383-8.728-4.913-13.214-5.378-2.512-.26-4.678-.487-6.234-1.37-4.312-2.442-6.417-9.167-6.696-11.34-.272-2.126-2.52-3.808-3.398-3.948-.635-.123-2.775-.098-3.945 1.273-.929 1.088-1.023 2.782-.28 5.036l-.658.218c-.826-2.5-.686-4.42.41-5.705 1.383-1.62 3.768-1.62 4.584-1.507 1.191.191 3.664 2.11 3.975 4.543.257 1.999 2.318 8.542 6.348 10.827 1.43.812 3.538 1.031 5.965 1.282 4.394.458 9.844 1.026 13.677 5.625z"/></g><g opacity=".1"><path fill="#fff" d="M121.719 144.244c-3.652-4.383-8.728-4.913-13.214-5.378-2.512-.26-4.678-.487-6.234-1.37-4.312-2.442-6.417-9.167-6.696-11.34-.272-2.126-2.52-3.808-3.398-3.948-.635-.123-2.775-.098-3.945 1.273-.929 1.088-1.023 2.782-.28 5.036l-.658.218c-.826-2.5-.686-4.42.41-5.705 1.383-1.62 3.768-1.62 4.584-1.507 1.191.191 3.664 2.11 3.975 4.543.257 1.999 2.318 8.542 6.348 10.827 1.43.812 3.538 1.031 5.965 1.282 4.394.458 9.844 1.026 13.677 5.625z"/></g></g><g><path fill="#ffb573" d="M122.111 144.289a4.04 4.04 0 0 0-4.532-3.476c-3.052.463-4.44 4.573-4.443 7.26.042 2.976 2.217 5.171 4.897 3.503a9.06 9.06 0 0 0 3.953-5.63 4.052 4.052 0 0 0 .125-1.657z"/></g><g><g><path fill="#fff" d="M120.568 147.714a2.85 2.85 0 1 1-5.45-1.667 2.85 2.85 0 0 1 5.45 1.667z"/></g><g transform="rotate(17.014 116.5 152)"><path fill="#fff" d="M115.688 154.866v-5.98h2.229v5.98z"/></g><g><path fill="#263238" d="M119.201 146.055a.53.53 0 1 1-1.011-.31.53.53 0 0 1 1.011.31z"/></g></g></g><g transform="rotate(-41.276 119.5 173)"><path fill="#407bff" d="M105.231 180.073a1.345 1.345 0 0 1-1.344-1.345v-12.717c0-.743.602-1.345 1.344-1.345h27.82c.744 0 1.346.602 1.346 1.345v12.717c0 .743-.602 1.345-1.345 1.345z"/></g><g><g><path fill="#ffb573" d="M122.891 186.147l3.395-9.912-12.207 1.53s.628 6.516 4.18 9.853z"/></g><g><path fill="#ffb573" d="M122.813 166.52l-8.822 2.796.127 8.41 12.169-1.491z"/></g></g><g><g><path fill="#407bff" d="M129.619 184.69l-16.783 3.288.415 7.642 19.595-4.327z"/></g><g opacity=".4"><path fill="#fff" d="M129.619 184.69l-16.783 3.288.415 7.642 19.595-4.327z"/></g></g><g><g><path fill="#407bff" d="M136.682 259.886l-23.052-.93-1.929-.083-4.982-.208-1.915-.07-13.531-.555c-.417-.07-.778-.25-.778-.513l-.25-4.275c-.027-.291.361-.527.833-.513l13.407.374 1.61.042 6.62.194 1.568.042 22.233.625a.884.884 0 0 1 .777.388l.194 4.844c.153.333-.264.652-.805.638z"/></g><g opacity=".2"><path fill="#fff" d="M136.682 259.886l-23.052-.93-1.929-.083-4.982-.208-1.915-.07-13.531-.555c-.417-.07-.778-.25-.778-.513l-.25-4.275c-.027-.291.361-.527.833-.513l13.407.374 1.61.042 6.62.194 1.568.042 22.233.625a.884.884 0 0 1 .777.388l.194 4.844c.153.333-.264.652-.805.638z"/></g></g><g><g><path fill="#263238" d="M97.612 258.86l1.478.078c.299.051.526-.136.528-.33l-.421-6.06c.03-.173-.264-.353-.568-.374l-1.48-.061c-.3-.052-.526.136-.525.315l.418 6.076c.08.191.262.352.57.356z"/></g><g><path fill="#263238" d="M123.274 260.207l1.404.058c.283.048.498-.13.496-.298l-.392-6.089c.027-.164-.266-.337-.542-.338l-1.403-.059c-.283-.048-.495.115-.497.299l.399 6.057c.01.203.247.35.535.37z"/></g></g><g><g opacity=".4"><path fill="#fff" d="M101.486 201.853a1.806 1.806 0 1 1 3.613 0 1.806 1.806 0 0 1-3.613 0z"/></g><g opacity=".4"><path fill="#fff" d="M106.183 221.668a1.806 1.806 0 1 1-3.611.002 1.806 1.806 0 0 1 3.611-.002z"/></g></g></g><g><g><g><g><g><path fill="#7f3e3b" d="M397.609 250.39s.717 7.888 14.679 12.873c13.961 4.985 9.445-4.09 9.445-4.09-6.419-4.37-6.086-9.14-3.778-13.754a31.768 31.768 0 0 1 1.898-3.364l-6.103-10.657-4.478-7.81c-1.124 8.49-4.407 23.504-11.663 26.803z"/></g><g><path fill="#263238" d="M441.465 220.364c.582.141.91.996.722 1.894-.189.895-.802 1.511-1.396 1.368-.596-.144-.897-.993-.722-1.893.187-.896.816-1.51 1.396-1.37z"/></g><g><path fill="#263238" d="M437.425 217.657a.554.554 0 0 1-.02-.767 5.549 5.549 0 0 1 4.67-1.78.54.54 0 0 1 .445.624.554.554 0 0 1-.623.444 4.512 4.512 0 0 0-3.704 1.458.528.528 0 0 1-.485.161.606.606 0 0 1-.283-.14z"/></g><g><path fill="#630f0f" d="M438.319 229.437a4.44 4.44 0 0 0 3.758.447 29.444 29.444 0 0 1-1.779-7.583z"/></g><g><path fill="#7f3e3b" d="M413.746 204.094c4.992-6.545 14.346-7.804 20.891-2.812 9.773 7.044 7.873 23.822 3.454 33.187a14.739 14.739 0 0 1-5.804 6.562c-6.965 4.226-16.039 2.004-20.263-4.963-4.376-6.957-2.85-13.503-1.224-24.724a14.887 14.887 0 0 1 2.946-7.25z"/></g><g><path fill="#7f3e3b" d="M433.128 217.87c2.69 1.511 2.905 6.882 2.277 10.125-.724 3.578-3.279 5.528-5.288 2.693a13.296 13.296 0 0 1-2.185-7.973c.154-3.632 2.507-6.357 5.196-4.845z"/></g></g><g><g><path d="M437.77 234.843c-.604 0-1.189-.24-1.62-.678a2.274 2.274 0 0 1-.612-2.01l.03-.155.682.13-.03.156c-.095.511.059 1.02.425 1.392a1.56 1.56 0 0 0 1.39.449l.116.684a2.23 2.23 0 0 1-.382.032z"/></g></g></g><g><path fill="#263238" d="M445.734 207.707c-1.214 1.841-2.683 3.584-4.538 4.718a7.697 7.697 0 0 1-1.14.632c-2.413 1.102-5.098 1.326-7.088-.41.471 1.634.238 3.352-.374 4.962-.8 2.13-2.245 4.081-3.62 5.416.45-1.52.64-2.985.252-4.26-.244-.837-.748-1.595-1.595-2.225-1.808-1.368-4.442-.924-5.638 1-1.002 1.6-.776 3.673-.338 5.502.453 1.843 1.087 3.72.805 5.58-.297 1.873-1.914 3.718-3.787 3.423-.57 1.302-1.756 2.17-3.087 2.56-1.62.47-3.46.257-4.768-.757a3.906 3.906 0 0 1-.725-.705c-.784.852-1.886 1.399-3.03 1.572a5.122 5.122 0 0 1-2.551-.212c-1.918-.683-3.333-2.582-3.445-4.605-2.444.352-5.027-1.262-5.779-3.618-.752-2.358.407-5.171 2.595-6.305-2.333-.985-3.9-3.545-3.714-6.066.185-2.522 2.117-4.827 4.562-5.443-2.166-2.979-.028-7.264 2.527-8.594.232-.107.478-.215.712-.266.439-.13.882-.163 1.302-.07l.211.062c.211.06.425.162.625.292.027.013.083-.002.15-.06.31-.25.992-1.168 1.714-2.157.079-.114.158-.216.237-.33.091-.114.184-.23.262-.343 1.066-1.435 2.094-2.729 2.12-2.09-.234-4.242 2.366-8.49 6.238-10.223 3.886-1.734 8.785-.843 11.786 2.156 1.65-2.042 4.498-3.024 7.052-2.423 2.552.587 4.684 2.719 5.278 5.264 4.001-1.307 8.446 1.992 9.534 6.058 1.09 4.079-.436 8.435-2.745 11.965z"/></g></g><g><g><g><path fill="#7f3e3b" d="M481.19 468.62l9.98-3.449 3.402 24.68-9.98 3.448z"/></g><g opacity=".2"><path d="M482.851 482.098l10.14-2.33-1.903-13.825-9.981 3.435z"/></g><g><path fill="#7f3e3b" d="M496.995 489.377c3.376 1.704 8.983 2.552 17.57 2.287 1.984-.057 3.135 4.16-1.169 5.215-4.304 1.058-12.846 3.029-15.986 3.661-3.775.766-5.753 1.447-8.158 2.11-2.304.635-4.848-.605-5.43-2.921a3.426 3.426 0 0 1-.105-1.054s.733-8.574 1.136-8.647l8.793-3.637c.627-.115 1.372 2.4 3.349 2.986z"/></g></g><g><g><path fill="#407bff" d="M379.782 347.726a78.637 78.637 0 0 0 5.826 27.813c7.262 17.405 52.046 13.794 71.64 12.968-1.392 23.977 20.537 89.082 20.537 89.082l17.796-4.734s-8.427-60.967-7.95-94.103c.432-30.259-69.324-33.193-69.324-33.193z"/></g><g opacity=".3"><path fill="#fff" d="M379.782 347.726a78.637 78.637 0 0 0 5.826 27.813c7.262 17.405 52.046 13.794 71.64 12.968-1.392 23.977 20.287 88.314 20.287 88.314l18.046-5.195s-8.427-59.738-7.95-92.874c.432-30.259-69.324-33.193-69.324-33.193z"/></g></g><g><path fill="#407bff" d="M473.019 468.679l23.433-6.253.801 10.092-21.836 6.957z"/></g><g><g><g><path fill="#7f3e3b" d="M522.162 474.571l9.44-4.732 7.657 23.458-9.44 4.732z"/></g><g><path fill="#7f3e3b" d="M541.04 491.772c3.378 1.706 8.984 2.552 17.571 2.287 1.984-.055 3.134 4.161-1.17 5.217-4.302 1.058-12.845 3.028-15.986 3.661-5.096 1.034-11.882 3.263-12.196-1.225 0 0-.762-9.214-.36-9.289l8.792-3.635c.63-.115 1.156 1.566 3.35 2.984z"/></g></g><g opacity=".2"><path d="M525.686 485.237l9.44-4.732-3.94-12.099-9.441 4.732z"/></g></g><g><g><path fill="#407bff" d="M402.61 346.221s-2.072 19.396 3.876 33.619c7.263 17.39 61.96 4.79 83.53 10.007 1.026 33.891 30.52 90.988 30.52 90.988l17.61-7.98s-10.096-51.997-19.684-97.21c-2.45-33.705-79.01-30.977-79.467-30.957z"/></g><g opacity=".5"><path fill="#fff" d="M402.61 346.221s-2.072 19.396 3.876 33.619c7.263 17.39 61.96 4.79 83.53 10.007 1.026 33.891 30.52 90.988 30.52 90.988l17.61-7.98s-10.096-51.997-19.684-97.21c-2.584-35.977-90.711-31.747-91.168-31.728z"/></g></g><g><path fill="#407bff" d="M515.605 473.42l22.822-8.973 2.144 8.916-21.54 10.807z"/></g><g><g><g><g><g><g><path fill="#407bff" d="M505.451 341.492l-81.624-5.222 7.838-51.454 81.624 5.223z"/></g><g><path fill="#407bff" d="M504.068 345.47l-80.434-5.146c-2.281-.145-3.85-2.104-3.505-4.373l7.788-51.133c.346-2.269 2.476-3.99 4.758-3.844l80.435 5.146c2.282.147 3.851 2.104 3.506 4.373l-7.789 51.133c-.347 2.27-2.476 3.99-4.758 3.844z"/></g><g><g><path fill="#407bff" d="M505.451 341.492l-81.624-5.222 7.838-51.454 81.624 5.223z"/></g><g opacity=".9"><path fill="#fff" d="M505.451 341.492l-81.624-5.222 7.838-51.454 81.624 5.223z"/></g></g><g><g><path fill="#407bff" d="M502.51 304.426l-14.988-.96 1.277-8.383 14.988.96z"/></g></g><g><g><path fill="#407bff" d="M499.991 320.961l-14.987-.959 1.277-8.383 14.987.96z"/></g></g><g><g><path fill="#407bff" d="M497.472 337.497l-14.987-.959 1.277-8.383 14.987.959z"/></g></g><g><g opacity=".1"><path fill="#fff" d="M495.673 284.92l-19.759 58.61 5.363.343 19.583-58.621z"/></g><g opacity=".1"><path fill="#fff" d="M503.95 285.45l-19.759 58.61 10.638.68 19.583-58.621z"/></g></g><g><path fill="#407bff" d="M433.526 326.922l-.073.478 43.254 2.768.073-.479z"/></g><g><path fill="#407bff" d="M477.614 324.218l-43.2-2.764 4.52-29.672 43.2 2.764z"/></g><g><path fill="#407bff" d="M434.845 333.294c-1.221-.08-2.062-1.127-1.877-2.343.184-1.216 1.326-2.137 2.549-2.06 1.221.078 2.062 1.127 1.878 2.343-.186 1.216-1.327 2.137-2.55 2.06z"/></g><g><path fill="#407bff" d="M455.458 326.483l-21.6-1.382.29-1.897 21.6 1.382z"/></g><g><path fill="#407bff" d="M475.996 334.661l-8.346-.534.289-1.896 8.346.534z"/></g><g><g><path fill="#407bff" d="M477.058 327.865l-1.907-.122.289-1.897 1.907.122z"/></g><g><path fill="#407bff" d="M473.826 327.658l-1.908-.122.29-1.897 1.907.122z"/></g><g><path fill="#407bff" d="M470.593 327.451l-1.907-.122.289-1.897 1.907.122z"/></g></g><g opacity=".2"><path fill="#fff" d="M455.458 326.483l-21.6-1.382.29-1.897 21.6 1.382z"/></g><g opacity=".2"><path d="M476.78 329.69l-43.254-2.768-.073.478 43.254 2.768z"/></g></g></g></g><g><path fill="#407bff" d="M478.574 343.43l27.127 2.095c.134 3.187-1.331 4.227-3.058 4.087l-8.674-.693-5.792-.484-9.005-.693-41.42-2.727-.027-3.97z"/></g><g opacity=".4"><path d="M478.574 343.43l27.127 2.095c.134 3.187-1.331 4.227-3.058 4.087l-8.674-.693-5.792-.484-9.005-.693-41.42-2.727-.027-3.97z"/></g></g><g><g><path fill="#407bff" d="M465.093 316.927zm-1.808-1.896c.909.435 1.95.476 2.885.071l.075-.035.201-2.313 1.29.076c-.226 2.56-1.093 3.908-2.643 4.097-.564-.884-1.214-1.314-1.808-1.896zm-1.47-.985a9.368 9.368 0 0 1-.08-1.567l1.29.075-.067 2.186a8.363 8.363 0 0 0-1.143-.694zm-8.369-13.186c-.036.082-.062.167-.093.25-.06-.024-.122-.05-.186-.054-.244-.014-.478.129-.69.37-.013-.612.1-1.351.583-1.952.804-1 2.422-1.382 4.804-1.137 1.879.194 3.096.719 3.616 1.56.347.56.333 1.184.23 1.699-.058-.02-.112-.046-.171-.05-.028-.002-.053.012-.08.014-.442-1.266-1.21-2.337-2.424-2.868a4.24 4.24 0 0 0-5.589 2.168zm14.671 11.812c.001-.025-.014-.043-.022-.065-.007-.023-.007-.047-.022-.064-.016-.018-.04-.02-.062-.03-.02-.012-.036-.03-.06-.031l-.003-.002-1.47-.086.068-.774.115.007.038-.637-.116-.007.107-3.503-.072-.04a3.47 3.47 0 0 0-3.146-.185l-.074.032-.304 3.492-.1-.006-.038.637.102.006-.023.777-1.47-.086h-.004c-.024-.001-.042.015-.064.024-.022.008-.047.008-.064.023-.017.016-.02.04-.029.063-.011.02-.028.036-.03.06v.002c-.024.583.006 1.1.062 1.585a15.4 15.4 0 0 0-1.817-.724 11.26 11.26 0 0 0-1.084-.293c-.372-.401-.484-.858-.45-1.335.076-.325.183-.641.323-.943l-.068-.058a4.337 4.337 0 0 0 3.206-2.925c.197-.107.381-.304.544-.575.56-.012 1.068-1.015 1.142-2.284.07-1.21-.276-2.218-.788-2.38.223-.694.466-1.856-.196-2.925-.676-1.09-2.12-1.758-4.291-1.981-2.708-.28-4.591.213-5.6 1.466-.875 1.087-.848 2.449-.723 3.272-.274.415-.476 1.075-.52 1.838-.076 1.27.312 2.325.867 2.403.21.46.494.758.827.777.21.012.412-.093.6-.273.192.873.532 1.625 1.17 2.331-.062 1.302-.355 2.619-1.133 3.359-.947.126-1.876.369-2.73.794-.591.294-2.998 1.404-3.342 1.965-1.236 2.015-.748 6.864-.748 6.864l19.302 1.23-.143-5.022a6.646 6.646 0 0 0-.495-1.178c1.67-.282 2.623-1.818 2.828-4.592v-.002z"/></g><g opacity=".2"><path d="M465.093 316.927zm-1.808-1.896c.909.435 1.95.476 2.885.071l.075-.035.201-2.313 1.29.076c-.226 2.56-1.093 3.908-2.643 4.097-.564-.884-1.214-1.314-1.808-1.896zm-1.47-.985a9.368 9.368 0 0 1-.08-1.567l1.29.075-.067 2.186a8.363 8.363 0 0 0-1.143-.694zm-8.369-13.186c-.036.082-.062.167-.093.25-.06-.024-.122-.05-.186-.054-.244-.014-.478.129-.69.37-.013-.612.1-1.351.583-1.952.804-1 2.422-1.382 4.804-1.137 1.879.194 3.096.719 3.616 1.56.347.56.333 1.184.23 1.699-.058-.02-.112-.046-.171-.05-.028-.002-.053.012-.08.014-.442-1.266-1.21-2.337-2.424-2.868a4.24 4.24 0 0 0-5.589 2.168zm14.671 11.812c.001-.025-.014-.043-.022-.065-.007-.023-.007-.047-.022-.064-.016-.018-.04-.02-.062-.03-.02-.012-.036-.03-.06-.031l-.003-.002-1.47-.086.068-.774.115.007.038-.637-.116-.007.107-3.503-.072-.04a3.47 3.47 0 0 0-3.146-.185l-.074.032-.304 3.492-.1-.006-.038.637.102.006-.023.777-1.47-.086h-.004c-.024-.001-.042.015-.064.024-.022.008-.047.008-.064.023-.017.016-.02.04-.029.063-.011.02-.028.036-.03.06v.002c-.024.583.006 1.1.062 1.585a15.4 15.4 0 0 0-1.817-.724 11.26 11.26 0 0 0-1.084-.293c-.372-.401-.484-.858-.45-1.335.076-.325.183-.641.323-.943l-.068-.058a4.337 4.337 0 0 0 3.206-2.925c.197-.107.381-.304.544-.575.56-.012 1.068-1.015 1.142-2.284.07-1.21-.276-2.218-.788-2.38.223-.694.466-1.856-.196-2.925-.676-1.09-2.12-1.758-4.291-1.981-2.708-.28-4.591.213-5.6 1.466-.875 1.087-.848 2.449-.723 3.272-.274.415-.476 1.075-.52 1.838-.076 1.27.312 2.325.867 2.403.21.46.494.758.827.777.21.012.412-.093.6-.273.192.873.532 1.625 1.17 2.331-.062 1.302-.355 2.619-1.133 3.359-.947.126-1.876.369-2.73.794-.591.294-2.998 1.404-3.342 1.965-1.236 2.015-.748 6.864-.748 6.864l19.302 1.23-.143-5.022a6.646 6.646 0 0 0-.495-1.178c1.67-.282 2.623-1.818 2.828-4.592v-.002z"/></g></g><g opacity=".2"><path d="M505.7 345.525l.048 1.11a2.87 2.87 0 0 1-3.105 2.977l-8.674-.693-16.118-1.121.723-4.368z"/></g></g><g><g><path fill="#407bff" d="M395.606 248.92L422 252.292s-2.693-6.878-12.075-7.94c-9.38-1.061-14.32 4.566-14.32 4.566z"/></g><g><g><g><path fill="#407bff" d="M376.645 294.115c1.048 20.876.608 42.092 3.135 53.569l6.344 1.696a68.747 68.747 0 0 0 33.964.386l18.844-4.576c-.11-19.764 1.595-58.287 2.512-77.436a14.902 14.902 0 0 0-10.546-14.965c-1.829-.557-3.45-1.019-4.444-1.237a212.006 212.006 0 0 0-23.738-2.971c-4.182-.311-8.477-.407-11.916-.263l-1.97.084c-2.98.126-7.717 3.103-8.64 5.92-3.803 11.593-4.17 27.263-3.545 39.793z"/></g><g><path fill="#263238" d="M376.645 294.115c1.048 20.876.608 42.092 3.135 53.569l6.344 1.696a68.747 68.747 0 0 0 33.964.386l18.844-4.576c-.11-19.764 1.595-58.287 2.512-77.436a14.902 14.902 0 0 0-10.546-14.965c-1.829-.557-3.45-1.019-4.444-1.237a212.006 212.006 0 0 0-23.738-2.971c-4.182-.311-8.477-.407-11.916-.263l-1.97.084c-2.98.126-7.717 3.103-8.64 5.92-3.803 11.593-4.17 27.263-3.545 39.793z"/></g><g><path fill="#7f3e3b" d="M436.817 256.246c.611 8.97 1.345 18.128 2.228 27.12.443 4.51.921 9.003 1.507 13.446.584 4.444 1.223 8.861 2.083 13.106.43 2.122.881 4.224 1.42 6.164.27.992.562 1.92.859 2.788.164.412.314.906.466 1.224l.224.534c.026.054.076.204.076.204a1.871 1.871 0 0 0-.26-.385c-.277-.347-.388-.284-.309-.256.183.194.389.367.615.51.688.448 1.411.84 2.162 1.174 1.872.799 3.786 1.503 5.733 2.104 8.262 2.525 18.22 7.141 27.052 9.1l-.632 7.899c-9.548.378-29.558-3.003-36.966-6.262a27.916 27.916 0 0 1-4.155-1.653c-.816-.423-1.602-.9-2.351-1.43a11.772 11.772 0 0 1-3.493-3.79l-.297-.575-.52-1.036c-.37-.703-.588-1.296-.883-1.96-.52-1.284-.995-2.525-1.387-3.752-.79-2.441-1.42-4.825-2.05-7.224a244.04 244.04 0 0 1-4.799-28.171c-.538-4.662-.97-9.286-1.38-13.977-.41-4.69-.746-9.295-.939-14.056z"/></g><g><path fill="#7f3e3b" d="M476.368 339.923c1.217 3.4 12.855 2.729 12.855 2.729l-1.052-10.934-10.435 1.89z"/></g><g><path fill="#7f3e3b" d="M488.17 331.718l1.053 10.934 7.084 1.065-1.774-7.67z"/></g></g><g><path fill="#263238" d="M416.602 261.606c-2.002 6.762.072 27.148 3.64 36.703l24.289-2.574s2.888-27.626-2.623-35.645c-8.85-12.811-22.314-8.903-25.306 1.516z"/></g></g></g></g><g><g><path fill="#263238" d="M538.09 488.665l-9.883 3.805a.92.92 0 0 0-.591 1.085l2.313 14.727a1.908 1.908 0 0 0 2.557 1.261c4.273-1.696 6.259-2.727 11.709-4.78 3.339-1.255 14.146-3.545 18.35-6.136 4.205-2.592 1.854-6.89-.128-6.189-6.372 2.292-15.177.615-20.539-3.015-.692-.232-3.112-1.033-3.788-.758z"/></g><g><g><path fill="#407bff" d="M542.107 489.722c1.372 1.163 3.05 2.898 2.94 3.745a.446.446 0 0 1-.29.35c-.33.197-.739.212-1.083.038-.683-.398-1.304-1.887-1.542-4.1zm1.172 4.55l.094.12c.514.274 1.131.261 1.635-.03.33-.146.558-.46.593-.819.179-1.57-3.352-4.426-3.702-4.716a.278.278 0 0 0-.323-.029.307.307 0 0 0-.153.278c.192 1.615.639 4.386 1.856 5.196z"/></g><g><path fill="#407bff" d="M546.56 489.102a.92.92 0 0 1 .4.622c.074.365-.06.487-.177.562-.754.433-3.109-.276-4.386-1.092 1.155-.306 3.129-.692 4.08-.132.024.02.052.034.084.04zm-4.623.47c1.268.875 4.017 1.859 5.147 1.254a1.04 1.04 0 0 0 .47-1.2 1.528 1.528 0 0 0-.804-1.025c-1.562-.91-4.958.204-5.1.246a.279.279 0 0 0-.23.18.327.327 0 0 0 .095.278c.136.098.276.187.422.267z"/></g></g></g><g><g><path fill="#263238" d="M493.354 485.534l-10.095 3.027c-.453.122-.761.55-.71.992l.412 14.046c.147.976 1.096 1.599 2.12 1.392.071-.014.142-.033.212-.054 4.37-1.357 6.432-2.218 11.993-3.841 3.407-.996 14.212-2.537 18.628-4.744 4.417-2.208 2.666-6.405.648-5.855-6.487 1.8-14.849-.29-19.614-4.03-.646-.259-2.902-1.154-3.594-.933z"/></g><g><g><path fill="#407bff" d="M497.734 487.356c1.59.842 3.602 2.178 3.674 3.028a.44.44 0 0 1-.208.404c-.28.264-.676.365-1.048.27-.754-.243-1.68-1.565-2.386-3.676zm2.12 4.193l.118.097c.56.158 1.161.014 1.59-.38a.996.996 0 0 0 .404-.926c-.162-1.573-4.223-3.606-4.627-3.812a.277.277 0 0 0-.322.04.307.307 0 0 0-.089.304c.533 1.536 1.564 4.148 2.926 4.677z"/></g><g><path fill="#407bff" d="M501.952 485.796a.922.922 0 0 1 .523.522c.152.34.048.488-.052.586-.643.585-3.097.398-4.518-.127 1.062-.545 2.908-1.345 3.955-1.002.03.014.06.022.092.021zm-4.415 1.452c1.426.581 4.32.953 5.295.12a1.04 1.04 0 0 0 .204-1.272 1.531 1.531 0 0 0-1.008-.83c-1.72-.554-4.797 1.261-4.93 1.334a.276.276 0 0 0-.184.224.33.33 0 0 0 .153.252c.153.066.31.123.47.172z"/></g></g></g><g><g><path fill="#407bff" d="M427.246 214.647a9.19 9.19 0 0 1-10.096 15.355c-2.37-1.359-4.403-7.028-1.612-11.257 2.795-4.24 7.489-6.87 11.708-4.098z"/></g><g><g><g><path fill="#407bff" d="M417.958 201.349c-2.377-2.516-5.79-5.58-9.688-6.5 0 0-3.016 4.034-3.357 4.238-.24-.121 6.676 2.664 9.163 5.637 4.278 5.085 6.81 12.317 6.81 12.317l4.27-2.6s-1.853-7.5-7.198-13.092z"/></g></g><g opacity=".3"><g opacity=".3"><path d="M417.958 201.349c-2.377-2.516-5.79-5.58-9.688-6.5 0 0-3.016 4.034-3.357 4.238-.24-.121 6.676 2.664 9.163 5.637 4.278 5.085 6.81 12.317 6.81 12.317l4.27-2.6s-1.853-7.5-7.198-13.092z"/></g></g></g><g opacity=".3"><path d="M428.39 217.803c2.508 1.726 2.808 5.739.649 9.008-2.16 3.27-5.945 4.584-8.475 2.923-2.528-1.66-2.045-5.787.102-9.061 2.119-3.284 5.217-4.596 7.724-2.87z"/></g><g><path fill="#263238" d="M420.885 227.514l8.534-6.814.247 1.6-7.419 6.099z"/></g></g></g><g><g><path fill="#263238" d="M410.372 430.42l-10.448 76.92h3.75l13.538-76.92z"/></g><g><path fill="#407bff" d="M397.665 281.561c-7.771-4.817-21.149-3.944-29.592-.436-8.444 3.51-15.355 9.968-21.09 17.09-20.674 25.679-27.458 70.28-21.516 102.706 2.133 11.642 5.955 23.295 13.477 32.432 6.246 7.587 14.716 13.041 23.522 17.406 15.84 7.851 33.373 12.567 51.052 12.513 17.68-.054 35.486-5.019 50.001-15.114 10.505-7.305 19.324-17.478 23.38-29.614 4.055-12.137 2.88-25.846-4.576-36.245-6.683-9.32-17.842-14.078-28.868-17.23a55.154 55.154 0 0 0-3.531-.881c-19.2-4.137-33.494-29.869-36.199-49.323-.02-.145-5.348-26.665-16.06-33.304z"/></g><g><path fill="#263238" d="M363.373 444.39l-13.362 68.277h4.796l17.314-68.277z"/></g><g><path fill="#263238" d="M444.223 444.39l13.362 68.277h-4.797l-17.313-68.277z"/></g></g><g><g><g><g><path fill="#407bff" d="M185.745 87.182a.695.695 0 0 1-.66-.908 89.002 89.002 0 0 1 5.835-13.955.694.694 0 1 1 1.23.644 87.514 87.514 0 0 0-5.746 13.738.694.694 0 0 1-.66.481z"/></g></g><g><g><path fill="#407bff" d="M192.054 162.214a.695.695 0 0 1-.605-.357c-10.687-19.137-13.876-43.47-8.75-66.761a.694.694 0 1 1 1.357.298c-5.056 22.963-1.918 46.942 8.604 65.787a.693.693 0 0 1-.606 1.033z"/></g></g><g><g><path fill="#407bff" d="M172.757 136.506a.694.694 0 0 1-.676-.539c-4.482-19.436-1.972-40.29 6.888-57.213.18-.339.601-.469.936-.293a.693.693 0 0 1 .294.937c-8.709 16.633-11.174 37.14-6.766 56.258a.692.692 0 0 1-.676.85z"/></g></g><g><g><path fill="#407bff" d="M180.028 155.59a.694.694 0 0 1-.605-.356 70.235 70.235 0 0 1-4.55-9.906.697.697 0 0 1 .412-.892c.356-.13.759.052.89.41a68.849 68.849 0 0 0 4.46 9.711.694.694 0 0 1-.607 1.033z"/></g></g><g><g><path fill="#407bff" d="M162.095 101.21a.697.697 0 0 1-.676-.854c1.27-5.392 3.156-10.495 5.601-15.167a.694.694 0 1 1 1.231.644c-2.394 4.57-4.238 9.562-5.482 14.84a.694.694 0 0 1-.674.536z"/></g></g><g><g><path fill="#407bff" d="M168.003 148.967a.694.694 0 0 1-.605-.355c-6.222-11.143-8.89-24.969-7.52-38.929a.7.7 0 0 1 .76-.623c.381.037.659.376.623.758-1.347 13.682 1.264 27.22 7.348 38.118a.693.693 0 0 1-.606 1.03z"/></g></g></g><g><g><g><path fill="#407bff" d="M393.793 143.409a.696.696 0 0 1-.67-.877c6.416-23.427 3.848-48.784-7.046-69.57a.693.693 0 1 1 1.228-.643c11.057 21.092 13.665 46.818 7.157 70.579a.694.694 0 0 1-.669.51z"/></g></g><g><g><path fill="#407bff" d="M386.17 162.214a.694.694 0 0 1-.605-1.034 80.528 80.528 0 0 0 4.84-10.358.696.696 0 0 1 .899-.4c.358.14.534.54.398.899a82.22 82.22 0 0 1-4.925 10.537.697.697 0 0 1-.607.356z"/></g></g><g><g><path fill="#407bff" d="M407.466 122.275l-.037-.002a.695.695 0 0 1-.655-.73c.823-15.093-2.203-29.667-8.748-42.145a.695.695 0 0 1 1.228-.645c6.662 12.7 9.742 27.522 8.905 42.865a.694.694 0 0 1-.693.657z"/></g></g><g><g><path fill="#407bff" d="M398.197 155.59a.694.694 0 0 1-.606-1.033c3.97-7.104 6.718-15.095 8.165-23.753a.691.691 0 0 1 .798-.569c.38.063.635.421.57.798-1.472 8.816-4.272 16.958-8.322 24.201a.694.694 0 0 1-.605.356z"/></g></g><g><g><path fill="#407bff" d="M415.065 97.22a.695.695 0 0 1-.665-.494 61.893 61.893 0 0 0-4.425-10.891.693.693 0 1 1 1.229-.646 63.085 63.085 0 0 1 4.524 11.138.693.693 0 0 1-.663.893z"/></g></g><g><g><path fill="#407bff" d="M410.222 148.967a.692.692 0 0 1-.606-1.031c6.799-12.171 9.217-27.21 6.806-42.347a.694.694 0 0 1 1.372-.218c2.457 15.444-.016 30.8-6.966 43.24a.694.694 0 0 1-.606.356z"/></g></g></g><g><g><g><path fill="#407bff" d="M261.677 15.802a.694.694 0 0 1-.188-1.361c15.419-4.365 32.162-4.783 48.417-1.203a.692.692 0 0 1 .53.825.688.688 0 0 1-.827.53c-16.035-3.529-32.543-3.12-47.744 1.183a.681.681 0 0 1-.188.026z"/></g></g><g><g><path fill="#407bff" d="M243.484 23.287a.696.696 0 0 1-.339-1.3 83.172 83.172 0 0 1 10.49-4.922.696.696 0 0 1 .897.396.692.692 0 0 1-.395.898 82.129 82.129 0 0 0-10.315 4.84.694.694 0 0 1-.338.088z"/></g></g></g><g><g><g><path fill="#407bff" d="M190.256 116.772c0-54.573 44.24-98.814 98.814-98.814 54.573 0 98.814 44.24 98.814 98.814 0 54.574-44.24 98.815-98.814 98.815-54.574 0-98.814-44.241-98.814-98.815z"/></g><g opacity=".9"><path fill="#fff" d="M190.256 116.772c0-54.573 44.24-98.814 98.814-98.814 54.573 0 98.814 44.24 98.814 98.814 0 54.574-44.24 98.815-98.814 98.815-54.574 0-98.814-44.241-98.814-98.815z"/></g></g><g><g><g><path fill="#407bff" d="M386.738 117.365c0 53.721-43.706 97.426-97.427 97.426-53.721 0-97.428-43.705-97.428-97.426 0-53.722 43.707-97.427 97.428-97.427s97.427 43.705 97.427 97.427zm2.775 0c0-55.252-44.951-100.203-100.202-100.203-55.252 0-100.204 44.95-100.204 100.203 0 55.252 44.952 100.202 100.204 100.202 55.25 0 100.202-44.95 100.202-100.202z"/></g></g></g><g><g><g/><g clip-path="url(#blmga)"><g><g><g><path fill="#263238" d="M238.221 81.637c-.286-.72-6.885-17.816 2.504-30.992 7.183-10.08 21.422-14.718 42.345-13.792 16.786.745 28.177 5.217 33.857 13.29 6.82 9.69 3.269 21.167 1.934 25.487l-.157.51-6.641-2.016.168-.545c1.161-3.753 3.879-12.54-.979-19.444-4.378-6.221-13.964-9.705-28.49-10.349-18.4-.821-30.656 2.845-36.386 10.886-7.224 10.137-1.76 24.27-1.704 24.411z"/></g></g><g><g><g><path fill="#263238" d="M310.813 90.448c0 10.014 3.595 18.135 8.03 18.135 4.436 0 8.032-8.12 8.032-18.135 0-10.015-3.596-18.135-8.031-18.135-4.436 0-8.031 8.12-8.031 18.135z"/></g><g opacity=".2"><path fill="#fff" d="M310.813 90.448c0 10.014 3.595 18.135 8.03 18.135 4.436 0 8.032-8.12 8.032-18.135 0-10.015-3.596-18.135-8.031-18.135-4.436 0-8.031 8.12-8.031 18.135z"/></g></g><g><path fill="#263238" d="M301.954 90.448c0-13.07 4.693-23.666 10.481-23.666 5.79 0 10.482 10.596 10.482 23.666s-4.693 23.665-10.482 23.665c-5.788 0-10.481-10.595-10.481-23.665z"/></g></g><g><g><path fill="#407bff" d="M352.646 194.682l-18.236 37.746H225.375l-12.244-53.262c0-5.067 17.092-13.874 21.504-16.401 10.105-5.804 21.822-8.426 33.471-8.945 11.65-.533 23.531-.11 34.797 2.881 19.051 5.053 27.532 11.582 27.532 11.582 7.351 7.007 15.848 9.666 22.21 26.399z"/></g><g><path fill="#ff8b7b" d="M292.761 134.403c-4.013 10.482-5.143 21.824 14.266 26.566 0 0 9.405 14.447-21.2 16.647-32.676 2.254-33.463-19.668-33.463-19.668 12.834-8.51 10.731-33.94 8.083-47.796z"/></g><g opacity=".2"><path d="M268.309 134.682c.487 6.076 10.325 15.914 22.02 10.468a36.884 36.884 0 0 1 2.12-7.653l-19.141-14.34c-.702 1.39-5.16 8.204-4.999 11.525z"/></g><g><path fill="#ff8b7b" d="M248.095 80.04c2.28 23.768 2.385 37.816 14.853 49.65 18.67 17.842 47.788 5.873 52.697-18.107 4.38-21.611-.042-56.863-23.724-65.591-16.877-6.295-35.662 2.284-41.956 19.161a32.602 32.602 0 0 0-1.87 14.888z"/></g><g><path fill="#ff8b7b" d="M241.312 96.175a22.655 22.655 0 0 0 10.28 14c6.832 4.07 12.327-1.552 12.17-9.095-.144-6.806-3.933-17.044-11.684-18.03-7.75-.989-12.476 5.985-10.766 13.125z"/></g><g><path fill="#263238" d="M284.5 85.467c.058 1.954 1.155 3.483 2.398 3.425 1.242-.058 2.248-1.635 2.19-3.589-.056-1.954-1.154-3.483-2.288-3.53-1.132-.049-2.481 1.82-2.3 3.694z"/></g><g><path fill="#263238" d="M306.403 84.752c.057 1.954 1.13 3.5 2.27 3.506 1.143.007 2.25-1.634 2.192-3.588-.057-1.954-1.154-3.483-2.438-3.433-1.284.048-2.055 1.545-2.024 3.515z"/></g><g><path fill="#ff5652" d="M299.485 85.928a69.998 69.998 0 0 0 9.834 16.278 11.124 11.124 0 0 1-9.297 2.112z"/></g><g><path fill="#263238" d="M313.606 74.45a1.134 1.134 0 0 0-.576-1.974 11.307 11.307 0 0 0-9.923 3.172 1.135 1.135 0 0 0 .068 1.603l.02.017a1.165 1.165 0 0 0 1.62-.118 8.95 8.95 0 0 1 7.885-2.541c.31.086.644.027.906-.159z"/></g><g><path fill="#263238" d="M291.662 77.08a1.136 1.136 0 0 0 .4-2.018 11.311 11.311 0 0 0-10.269-1.762 1.134 1.134 0 0 0-.677 1.454l.008.023c.24.584.902.87 1.492.643a8.948 8.948 0 0 1 8.169 1.383c.236.22.558.32.877.277z"/></g><g><g><path fill="#263238" d="M306.18 111.933s-7.335-2.405-27.493-3.345c3.006 7.639 7.918 13.952 18.239 14.377 10.323.426 9.254-11.032 9.254-11.032z"/></g><g><path fill="#ff5652" d="M291.63 116.814c3.922-.133 7.924 1.28 11.545 4.079-1.818 1.48-3.972 2.153-6.206 1.941-3.91.133-7.9-1.285-11.502-4.087 1.801-1.482 3.943-2.154 6.163-1.933z"/></g><g><path fill="#fff" d="M305.259 111.668c-.31 1.93-1.416 3.32-2.854 3.584-5.977-.312-11.984-1.23-17.97-2.745-1.888-.248-3.687-1.703-4.853-3.924 8.529.21 17.108 1.242 25.677 3.085z"/></g></g></g><g><g><g><path fill="#ff8b7b" d="M289.311 209.597l7.167-20.856 18.266 18.21s-9.466 10.046-19.675 10.93z"/></g><g><path fill="#ff8b7b" d="M315.727 178.222l9.533 13.873c.388.566.36 1.321-.071 1.857l-10.384 12.9-18.251-18.236 17.056-10.827a1.557 1.557 0 0 1 2.117.433z"/></g></g><g><path fill="#ff8b7b" d="M290.328 206.637l.376-25.611a1.062 1.062 0 0 1 1.045-1.047l2.883-.05c.505-.008.945.339 1.055.832l3.27 14.622z"/></g><g><path fill="#ff8b7b" d="M290.328 206.636l-21.479 21.166h20.461l9.3-10.583z"/></g></g><g><g><path fill="#263238" d="M237.427 90.448c0-13.07 4.692-23.666 10.481-23.666s10.482 10.596 10.482 23.666-4.693 23.665-10.482 23.665-10.481-10.595-10.481-23.665z"/></g><g><g><path fill="#263238" d="M249.532 90.448c0 10.014-3.598 18.135-8.033 18.135s-8.031-8.12-8.031-18.135c0-10.015 3.596-18.135 8.031-18.135 4.436 0 8.033 8.12 8.033 18.135z"/></g><g opacity=".2"><path fill="#fff" d="M249.532 90.448c0 10.014-3.598 18.135-8.033 18.135s-8.031-8.12-8.031-18.135c0-10.015 3.596-18.135 8.031-18.135 4.436 0 8.033 8.12 8.033 18.135z"/></g></g></g></g><g><g><g><g><g><path fill="#263238" d="M341.994 186.564c-16.584 0-25.573-12.884-25.995-37.26a1.387 1.387 0 0 1 1.363-1.411c.759.02 1.399.596 1.413 1.364.395 22.913 8.209 34.532 23.22 34.532 15.254 0 22.843-11.296 23.204-34.53a1.388 1.388 0 0 1 1.388-1.366h.022a1.387 1.387 0 0 1 1.365 1.408c-.383 24.726-9.125 37.263-25.98 37.263z"/></g></g></g><g><g><path fill="#263238" d="M366.586 150.668h-49.2a1.387 1.387 0 1 1 0-2.775h49.2a1.387 1.387 0 1 1 0 2.776z"/></g></g></g><g><g><g><path fill="#263238" d="M355.5 139.285l-27.022-.016.827-29.228.551-.275a26.723 26.723 0 0 1 24.247 0l.569.275z"/></g><g opacity=".1"><g opacity=".1"><path fill="#fafafa" d="M355.5 139.285l-27.022-.016.827-29.228.551-.275a26.723 26.723 0 0 1 24.247 0l.569.275z"/></g></g></g><g><g><path fill="#263238" d="M328.478 139.285l27.021.035-.827 29.21-.569.293a26.723 26.723 0 0 1-24.247 0l-.55-.293z"/></g><g><g><path fill="#263238" d="M327.753 141.916v-4.914h28.562v4.914z"/></g><g opacity=".12"><path fill="#fff" d="M327.753 141.916v-4.914h28.562v4.914z"/></g></g><g><g><g><g><path fill="#263238" d="M345.344 153.025a4.25 4.25 0 0 1-6.62-5.328 4.248 4.248 0 0 1 6.62 5.328z"/></g><g opacity=".2"><path fill="#fff" d="M337.786 150.361a4.248 4.248 0 1 1 8.497 0 4.248 4.248 0 0 1-8.497 0z"/></g></g></g><g><path fill="#407bff" d="M343.851 148.365a.909.909 0 1 1-1.817 0 .909.909 0 0 1 1.817 0z"/></g></g></g></g><g><g><path fill="#263238" d="M341.994 222.846a1.388 1.388 0 0 1-1.388-1.387v-36.282a1.387 1.387 0 1 1 2.776 0v36.282c0 .766-.62 1.387-1.388 1.387z"/></g></g></g></g></g></g></g></g></g></g></svg>