<svg xmlns="http://www.w3.org/2000/svg" width="110" height="110" viewBox="0 0 110 110"><g><g opacity=".2"><path fill="#9ec5fd" d="M0 55C0 24.624 24.624 0 55 0s55 24.624 55 55-24.624 55-55 55S0 85.376 0 55z"/></g><g><g><path fill="#396ab3" d="M54.77 66.66c-11.52 0-20.893-9.372-20.893-20.891 0-11.52 9.373-20.892 20.892-20.892 11.52 0 20.892 9.372 20.892 20.892S66.289 66.66 54.769 66.66zM36.36 85.197h-2.483v-5.963h2.482zm36.819-5.963h2.482v5.963h-2.482zm3.42-19.4a.94.94 0 0 0 .94-.94V45.77C77.538 33.214 67.323 23 54.768 23S32 33.214 32 45.769v22.325a.939.939 0 0 0 1.877 0V54.817a22.792 22.792 0 0 0 2.482 4.333v18.207h-2.482v-5.51a.938.938 0 1 0-1.877 0v14.288c0 .518.42.938.939.938h4.36c.518 0 .938-.42.938-.938V61.407c4.153 4.388 10.028 7.13 16.532 7.13s12.38-2.742 16.533-7.13v24.728c0 .518.42.938.938.938h4.36c.518 0 .938-.42.938-.938V62.649a.94.94 0 0 0-1.877 0v14.708h-2.482V59.265c0-.037-.003-.072-.006-.107a22.799 22.799 0 0 0 2.488-4.341v4.077c0 .519.42.94.938.94z"/></g><g><path fill="#396ab3" d="M54.77 62.3c-9.117 0-16.533-7.415-16.533-16.531s7.416-16.533 16.532-16.533 16.533 7.417 16.533 16.533c0 9.116-7.417 16.532-16.533 16.532zm0-34.941c-10.152 0-18.41 8.258-18.41 18.41 0 10.15 8.258 18.41 18.41 18.41 10.15 0 18.409-8.26 18.409-18.41 0-10.152-8.259-18.41-18.41-18.41z"/></g><g><path fill="#396ab3" d="M54.77 57.956c-6.72 0-12.188-5.468-12.188-12.187 0-6.72 5.467-12.187 12.187-12.187s12.187 5.467 12.187 12.187-5.467 12.187-12.187 12.187zm0-26.252c-7.756 0-14.065 6.31-14.065 14.065s6.31 14.064 14.064 14.064c7.755 0 14.064-6.31 14.064-14.064 0-7.755-6.31-14.065-14.064-14.065z"/></g></g></g></svg>