<svg xmlns="http://www.w3.org/2000/svg" width="46" height="65" viewBox="0 0 46 65"><g><g><g><path fill="#396ab3" d="M22.77 43.66c-11.52 0-20.892-9.372-20.892-20.891 0-11.52 9.372-20.893 20.892-20.893S43.662 11.25 43.662 22.77c0 11.52-9.372 20.891-20.892 20.891zM4.36 62.197H1.878v-5.963H4.36zm36.82-5.963h2.482v5.963H41.18zm3.42-19.401a.94.94 0 0 0 .94-.939V22.77c0-12.555-10.215-22.77-22.77-22.77S.001 10.215.001 22.77v22.325a.939.939 0 0 0 1.877 0V31.817a22.792 22.792 0 0 0 2.482 4.332v18.207H1.878v-5.508a.938.938 0 1 0-1.877 0v14.287c0 .518.42.938.939.938H5.3c.518 0 .938-.42.938-.938V38.407c4.153 4.388 10.028 7.13 16.532 7.13s12.38-2.742 16.533-7.13v24.728c0 .518.42.938.938.938h4.36c.518 0 .938-.42.938-.938V39.649a.94.94 0 0 0-1.877 0v14.707H41.18V36.264c0-.036-.003-.071-.006-.106a22.799 22.799 0 0 0 2.488-4.341v4.077c0 .518.42.939.938.939z"/></g><g><path fill="#396ab3" d="M22.77 39.3c-9.116 0-16.532-7.415-16.532-16.531S13.654 6.236 22.77 6.236s16.533 7.417 16.533 16.533c0 9.116-7.417 16.532-16.533 16.532zm0-34.941c-10.151 0-18.41 8.258-18.41 18.41 0 10.15 8.259 18.409 18.41 18.409s18.41-8.259 18.41-18.41-8.259-18.41-18.41-18.41z"/></g><g><path fill="#396ab3" d="M22.77 34.956c-6.72 0-12.187-5.468-12.187-12.187 0-6.72 5.467-12.188 12.187-12.188S34.957 16.05 34.957 22.77c0 6.72-5.467 12.187-12.187 12.187zm0-26.252c-7.755 0-14.064 6.31-14.064 14.065s6.31 14.064 14.064 14.064c7.755 0 14.064-6.31 14.064-14.064 0-7.756-6.31-14.065-14.064-14.065z"/></g></g></g></svg>