<svg xmlns="http://www.w3.org/2000/svg" width="790" height="520" viewBox="0 0 790 520"><g><g><g><g><g><path fill="#d1e3ff" d="M.117 448.164v-.395h789.768v.395z"/></g><g><path fill="#d1e3ff" d="M170.254 466.313v-.395h20.856v.395z"/></g><g><path fill="#d1e3ff" d="M127.046 466.51v-.394h31.624v.395z"/></g><g><path fill="#d1e3ff" d="M263.9 463.856v-.395h82.119v.395z"/></g><g><path fill="#d1e3ff" d="M333.557 459.578v-.395h44.07v.395z"/></g><g><path fill="#d1e3ff" d="M529.788 472.083v-.395h102.83v.395z"/></g><g><path fill="#d1e3ff" d="M495.72 472.083v-.395h25.297v.395z"/></g><g><path fill="#d1e3ff" d="M616.195 462.54v-.395h45.222v.395z"/></g></g><g><g><g><g><path fill="#f3f8ff" d="M238.974 153.093l58.466-44.775v339.45h-58.466z"/></g><g><path fill="#e3eeff" d="M327.783 131.232l-30.343-22.914v339.45h30.343z"/></g><g><g transform="rotate(180 366 322)"><path fill="#f3f8ff" d="M324.175 447.769V196.543h83.189v251.226z"/></g><g><path fill="#e3eeff" d="M407.364 447.769V196.543h43.174v251.226z"/></g><g transform="rotate(180 371.5 185.5)"><path fill="#f3f8ff" d="M335.369 196.543v-21.727h71.995v21.727z"/></g><g transform="rotate(180 371.5 194)"><path fill="#e3eeff" d="M335.369 196.543v-4.879h71.995v4.879z"/></g><g><path fill="#e3eeff" d="M407.364 196.543v-21.727h31.98v21.727z"/></g><g transform="rotate(180 377 164)"><path fill="#f3f8ff" d="M346.562 174.816v-21.727h60.802v21.727z"/></g><g transform="rotate(180 377 172)"><path fill="#e3eeff" d="M346.562 174.816v-4.879h60.802v4.879z"/></g><g><path fill="#e3eeff" d="M407.364 174.816v-21.727h20.787v21.727z"/></g><g><path fill="#e3eeff" d="M385.338 153.089v-30.364h4.037v30.364z"/></g></g><g transform="rotate(180 467 341)"><path fill="#f3f8ff" d="M436.756 447.769V234.553h60.748v213.216z"/></g><g><path fill="#e3eeff" d="M497.504 447.769V234.553h31.528v213.216z"/></g><g><path fill="#f3f8ff" d="M152.007 208.279l46.069-11.902V447.77h-46.069z"/></g><g><path fill="#e3eeff" d="M198.076 447.769V196.377h23.909V447.77z"/></g><g transform="rotate(180 566.5 341.5)"><path fill="#f3f8ff" d="M545.705 447.769V235.033h41.959v212.736z"/></g><g><path fill="#e3eeff" d="M609.44 290.843l-21.776-55.81v212.736h21.776z"/></g><g transform="rotate(180 614 366.5)"><path fill="#f3f8ff" d="M596.819 447.769V285.578h34.257v162.19z"/></g><g><path fill="#e3eeff" d="M648.856 320.25l-17.78-34.672v162.19h17.78z"/></g></g><g><path fill="#e6f0ff" d="M725.153 447.768H142.858s125.654-31.644 186.082-60.076c60.43-28.432 71.01-16.02 106.659 4.514 35.648 20.534 69.73 20.23 119.286-2.105 121.076-54.57 118.64 38.348 170.268 57.667z"/></g><g><path fill="#d1e3ff" d="M25.565 447.768H648.96s-36.855-.103-110.04-28.534c-73.186-28.432-102.67-25.273-145.845-4.739-43.173 20.534-51.057-20.712-157.957-44.052-133.031-29.042-155.058 77.325-209.552 77.325z"/></g></g><g><g transform="rotate(-23.875 488 51)"><path fill="#f3f8ff" d="M437.484 50.564c0-27.953 22.66-50.613 50.612-50.613 27.953 0 50.613 22.66 50.613 50.613 0 27.952-22.66 50.613-50.613 50.613-27.952 0-50.612-22.66-50.612-50.613z"/></g><g><path fill="#e3eeff" d="M101.029 48.795c-9.163-19.798-1.89-33.893 20.506-33.893 14.045 0 31.46 5.55 48.419 14.581 1.916-5.15 7.311-8.235 15.992-8.235 15.278 0 36.336 9.535 52.857 22.988 3.997-3 9.782-4.836 17.215-5.132 14.62-.606 32.33 4.871 47.726 13.783 1.333-1.49 3.62-2.428 6.776-2.567 8.427-.345 19.83 5.184 25.497 12.345.352.45.665.882.979 1.317H89.652c-7.816-7.018.821-14.834 11.377-15.187z"/></g><g><path fill="#e3eeff" d="M466.641 91.123a19.52 19.52 0 0 1 2.118-.114c-.658-7.343 3.148-12.031 11.275-12.031 5.863 0 13.06 2.448 20.393 6.59-2.097-14.254 4.622-23.516 19.84-23.516 12.274 0 27.815 6.024 43.163 15.853 1.346-5.593 5.868-8.943 13.468-8.943 13.35 0 32.317 10.356 47.526 24.966 0 0 .007.02.02 0 3.285-3.257 8.222-5.272 14.713-5.591 12.712-.66 28.494 5.29 42.487 14.986 1.065-1.638 3.003-2.655 5.775-2.786 6.952-.358 16.53 4.99 22.095 12.145H455.452c-5.963-10.847-1.212-20.335 11.19-21.559z"/></g></g></g></g><g><g><g><path fill="#f0f6ff" d="M88.747 501.22c0-9.878 137.115-17.886 306.254-17.886 169.14 0 306.255 8.008 306.255 17.886S564.14 519.105 395 519.105 88.747 511.098 88.747 501.22z"/></g><g><g><path fill="#ff8b7b" d="M399.358 473.402l9.283 8.308 17.665-18.398-9.284-8.307z"/></g><g><path fill="#ff8b7b" d="M431.153 490.696h11.71l1.521-27.118h-11.71z"/></g><g><path fill="#0f264c" d="M443.477 489.34h-13.156c-.478 0-.84.332-.868.8l-.639 10.408c-.066 1.08.948 2.101 2.05 2.082 4.581-.079 6.769-.347 12.555-.347 3.559 0 18.69.37 23.606.37 4.807 0 4.775-4.86 2.692-5.302-9.34-1.972-20.917-4.694-24.224-7.29a3.29 3.29 0 0 0-2.016-.721z"/></g><g><path fill="#0f264c" d="M411.201 478.375l-11.284-7.598c-.423-.284-.96-.268-1.292.038l-8.626 8.705c-.766.706-.517 1.922.415 2.64 7.2 5.545 12.401 9.73 16.499 14.34 4.792 5.391 7.305 6.152 18.362 6.152 5.114 0 8.008-4.307 5.923-4.967-18.427-5.835-13.5-8.372-17.977-16.916-.485-.928-1.127-1.792-2.02-2.394z"/></g><g><path fill="#ff8b7b" d="M487.692 101.867c.214.69.57 1.747.889 2.641l1.012 2.82a103.626 103.626 0 0 0 2.262 5.59c1.607 3.681 3.354 7.284 5.303 10.69 3.882 6.795 8.605 12.94 14.168 16.876l.981.676c.013.02-.001.052-.008.064-.02.034-.004.105.23.138.465.09 1.699-.166 3.051-.826 2.76-1.337 5.934-3.74 8.845-6.427 2.981-2.678 5.851-5.696 8.664-8.811 2.824-3.087 5.582-6.423 8.193-9.63l7.525 4.547c-3.996 8.248-8.588 15.89-14.633 23.183-3.111 3.577-6.408 7.163-11.224 10.178-2.428 1.468-5.321 2.913-9.218 3.368-1.937.2-4.127.05-6.225-.572-1.05-.3-2.057-.731-3.001-1.224l-1.81-1.027c-4.594-2.704-8.512-6.116-11.875-9.793-3.398-3.663-6.258-7.62-8.78-11.687-2.534-4.066-4.689-8.273-6.584-12.568a123.477 123.477 0 0 1-2.626-6.53c-.402-1.103-.807-2.208-1.17-3.34a86.668 86.668 0 0 1-1.073-3.59z"/></g><g><path fill="#0f264c" d="M466.338 99.63c-3.582 10.478 17.48 41.329 17.48 41.329l20.198-11.18s-5.497-15.693-12.13-28.119c-7.116-13.334-21.617-13.529-25.548-2.03z"/></g><g><path fill="#0c203d" d="M466.032 100.956c4.517-2.175 9.726-.356 15.196 8.297 5.4 8.564 10.147 23.116 10.657 27.242l-8.07 4.464s-19.448-28.489-17.783-40.003z"/></g><g><path fill="#ff8b7b" d="M540.856 115.372l4.189-10.178 9.385 7.18s-5.71 11.475-9.584 10.435z"/></g><g><path fill="#ff8b7b" d="M558.352 103.897l4.387 5.38-8.31 3.096-9.384-7.18z"/></g><g><g><path fill="#ea7063" d="M426.3 463.315l-9.104 9.485-9.288-8.31 9.104-9.485z"/></g><g><path fill="#ea7063" d="M432.67 463.585h11.716l-.79 13.978H431.88z"/></g></g><g><path fill="#0f264c" d="M479.965 91.616s15.046 35.36 4.204 101.215h-62.633c-.766-9.615 3.649-56.516-7.196-101.819 0 0 10.662-2.154 20.875-2.647 7.99-.385 19.567-.641 26.624.002 9.305.846 18.126 3.249 18.126 3.249z"/></g><g><path fill="#0c203d" d="M428.333 102.197c1.301 7.456-.431 25.295-6.816 45.906-.573-15.863-2.166-34.257-6.15-52.584l-.004-.089c4.112-.421 11.73-.22 12.97 6.767z"/></g><g><path fill="#ff8b7b" d="M436.813 58.386c1.976 8.567 4.197 24.263-1.598 29.98 0 0 2.5 7.096 18.419 7.096 17.503 0 8.205-7.095 8.205-7.095-9.632-2.283-9.63-9.37-8.197-16.026z"/></g><g><path fill="#ea7063" d="M443.673 64.08l9.96 8.253c-.344 1.576-.6 3.173-.656 4.726-3.668-.528-8.82-4.533-9.34-8.354-.26-1.905-.243-3.738.036-4.625z"/></g><g><path fill="#0f264c" d="M457.581 29.349c5.997 2.038 10.774 17.91 3.797 22.102"/></g><g><path fill="#ff8b7b" d="M433.07 49.41c3.568 11.092 5.089 17.747 12.287 22.266 10.826 6.8 23.499-1.412 23.334-13.229-.146-10.636-5.958-26.991-18.193-29.04-12.053-2.018-20.998 8.907-17.428 20.002z"/></g><g><path fill="#0f264c" d="M421.152 32.687c-5.266 2.983-7.833 10.796-2.282 17.288 7.283 8.516 19.856 13.75 23.309 10.314 5.759-2.439 3.96-6.52-4.522-18.872 3.546-.35 27.872-2.02 32.987-15.925 2.808-7.636-8.705-17.333-20.883-17.99 4.737 11.934-27.71 11.583-28.609 25.185z"/></g><g><path fill="#ff8b7b" d="M431.117 62.924c2.269 2.233 5.34 3.26 7.933 3.258 3.901-.003 4.688-3.691 2.628-6.78-1.854-2.78-6.119-6.128-9.565-4.64-3.396 1.466-3.59 5.607-.996 8.162z"/></g><g><path fill="#9fc6ff" d="M484.17 192.831s12.334 85.387 16.545 131.868c3.379 37.281-77.258 148.527-77.258 148.527l-15.598-14.68s58.896-99.685 54.363-141.192c-4.391-40.204-19.277-124.523-19.277-124.523z"/></g><g><path fill="#77b3fc" d="M462.215 317.349c-2.258-20.708-7.313-53.151-11.657-79.72 2.275-4.453 8.653-13.468 8.653-13.468 5.718 19.76 18.146 94.246.414 194.847-18.48 29.79-36.171 54.21-36.171 54.21l-2.417-38.415c17.075-32.127 44.322-88.722 41.178-117.454z"/></g><g><path fill="#0053cc" d="M406.91 457.655l17.495 16.463 5.632-6.05-20.007-18.23z"/></g><g><path fill="#9fc6ff" d="M461.898 192.831s1.113 89.49-.785 123.016c-2.08 36.715-12.494 158.342-12.494 158.342H427.17s.64-118.664-.652-155.014c-1.401-39.452-5.036-126.344-5.036-126.344z"/></g><g><path fill="#0053cc" d="M426.306 474.19h23.177l1.286-8.14-25.58 1.272z"/></g><g><path fill="#0f264c" d="M450.231 49.071c.234.915.913 1.55 1.515 1.418.604-.132.904-.98.67-1.897-.234-.916-.913-1.55-1.516-1.418-.604.131-.902.98-.669 1.897z"/></g><g><path fill="#0f264c" d="M460.661 46.789c.234.916.911 1.55 1.515 1.418.603-.131.903-.98.67-1.897-.236-.915-.913-1.551-1.517-1.418-.603.13-.902.98-.668 1.897z"/></g><g><path fill="#ff5652" d="M458.29 47.69s3.447 4.824 6.408 6.867c-1.246 1.87-4.198 1.786-4.198 1.786z"/></g><g><path fill="#0f264c" d="M457.106 60.464c-3.204 0-5.16-1.796-5.257-1.886a.279.279 0 0 1-.013-.391.28.28 0 0 1 .392-.013c.025.024 2.647 2.415 6.696 1.535a.277.277 0 1 1 .116.542 9.026 9.026 0 0 1-1.934.213z"/></g><g><path fill="#0f264c" d="M446.927 46.158a.556.556 0 0 1-.509-.776c1.207-2.78 3.75-3.182 3.858-3.198a.553.553 0 0 1 .63.47.557.557 0 0 1-.466.628c-.084.013-2.049.344-3.004 2.542a.552.552 0 0 1-.509.334z"/></g><g><path fill="#0f264c" d="M465.182 42.544a.552.552 0 0 1-.46-.093c-2.03-1.504-3.984-.856-4.007-.854-.345.107-.607-.057-.705-.346a.554.554 0 0 1 .346-.703c.11-.035 2.539-.831 5.026 1.012a.555.555 0 0 1-.2.984z"/></g><g><path fill="#ff8b7b" d="M426.294 108.616l-2.777 4.793a185.693 185.693 0 0 0-2.749 4.982 290.307 290.307 0 0 0-5.187 10.096c-1.617 3.394-3.175 6.808-4.563 10.23-1.324 3.428-2.643 6.873-3.554 10.274l-.188.641-.095.32c-.031.108-.014.042-.027.072-.033.014-.057.14-.09.283-.052.325-.05.854.005 1.469.101 1.244.44 2.797.927 4.39.995 3.2 2.392 6.643 4.003 10.017 3.192 6.782 6.994 13.693 10.827 20.366l-6.927 5.415c-5.781-5.938-10.937-12.161-15.605-19.157-2.279-3.53-4.506-7.17-6.31-11.396-.903-2.118-1.734-4.372-2.306-7.039a22.524 22.524 0 0 1-.48-4.45c.01-.846.047-1.713.2-2.672l.11-.66.08-.401.163-.806c1.655-8.641 4.531-16.586 7.83-24.238a162.449 162.449 0 0 1 5.412-11.197 202.85 202.85 0 0 1 3.013-5.427c1.034-1.83 2.069-3.516 3.307-5.428z"/></g><g><path fill="#0f264c" d="M414.34 91.012c-11.022 1.612-22.38 40.004-22.38 40.004l23.725 13.143s9.615-18.26 14.199-31.82c4.802-14.206-3.722-23.055-15.544-21.327z"/></g><g><path fill="#407bff" d="M445.257 490.566c1.357-.864 3.306-1.845 4.076-1.55.162.063.257.185.303.384.095.43.032.749-.194.975-.545.543-2.092.608-4.185.19zm2.371.813c.909 0 1.733-.156 2.198-.617.364-.362.48-.861.34-1.482-.083-.376-.304-.643-.636-.772-1.409-.566-4.743 1.705-5.118 1.964a.273.273 0 0 0-.112.274.273.273 0 0 0 .207.215c.842.195 2.04.418 3.121.418z"/></g><g><path fill="#407bff" d="M446.169 486.22c.04 0 .084.004.128.008.398.05.486.239.521.398.177.838-.986 2.695-2.004 3.556-.032-1.112.063-3.042.767-3.72a.82.82 0 0 1 .588-.242zm-1.6 4.748a.29.29 0 0 0 .139-.037c1.167-.695 2.912-3.139 2.644-4.417-.1-.467-.452-.761-.99-.826a1.331 1.331 0 0 0-1.158.382c-1.182 1.138-.92 4.505-.907 4.649a.272.272 0 0 0 .147.218c.038.02.08.031.125.031z"/></g><g><path fill="#407bff" d="M419.874 483.167c.075.09.095.177.063.292-.078.302-.248.504-.516.613-.88.376-2.876-.232-5.405-1.616 2.266-.098 5.279.015 5.858.711zm-1.088 1.556c.314 0 .599-.044.844-.147.43-.177.71-.505.835-.978a.836.836 0 0 0-.172-.78c-1.058-1.273-6.606-.897-7.234-.851a.272.272 0 0 0-.119.505c1.539.902 4.126 2.251 5.846 2.251z"/></g><g><path fill="#407bff" d="M417.5 479.422c.341.163.496.33.458.498-.158.744-2.72 1.79-4.4 2.006.494-.855 1.725-2.684 3.171-2.684.252 0 .509.054.771.18zm-4.416 3.09c1.614-.038 5.135-1.207 5.408-2.479.067-.306-.012-.745-.756-1.102-2.701-1.29-4.815 3.004-4.903 3.189a.277.277 0 0 0 .016.267c.05.076.137.125.229.125z"/></g><g><path fill="#ff8b7b" d="M419.694 183.956l11.659-2.032-5.984 13.494s-10.642-.061-10.154-5.546z"/></g><g><path fill="#ff8b7b" d="M440.051 188.706l-5.476 10.904-9.205-4.19 5.983-13.496z"/></g></g><g><g><path fill="#318fff" d="M346.9 350.963c-92.525 0-167.798-115.278-167.798-256.975a1.58 1.58 0 0 1 3.16 0c0 139.955 73.855 253.816 164.638 253.816 90.78 0 164.636-113.86 164.636-253.816a1.58 1.58 0 0 1 3.16 0c0 141.697-75.273 256.975-167.796 256.975z"/></g><g><g><g><g><g><path fill="#318fff" d="M180.682 314.206v-18.551h91.394v18.55z"/></g><g><path fill="#318fff" d="M180.682 249.663v-18.551h91.394v18.55z"/></g><g><path fill="#318fff" d="M180.682 185.12v-18.551h91.394v18.55z"/></g><g><path fill="#318fff" d="M180.682 127.828v-18.551h91.394v18.55z"/></g></g><g><path fill="#0053cc" d="M252.91 314.206v-18.551h20.11v18.55z"/></g><g><path fill="#0053cc" d="M254.344 249.662v-18.55h20.11v18.55z"/></g><g><path fill="#0053cc" d="M255.617 185.12v-18.551h20.11v18.55z"/></g><g><path fill="#0053cc" d="M256.89 127.827v-18.55H277v18.55z"/></g></g><g><path fill="#318fff" d="M258.986 500.926v-38.78h26.18v38.78z"/></g><g><path fill="#318fff" d="M260.42 295.655v-64.543h23.312v64.543z"/></g><g><path fill="#318fff" d="M261.693 231.112v-64.543h20.766v64.543z"/></g><g><path fill="#318fff" d="M262.965 166.569v-64.543h18.222v64.543z"/></g></g><g><g><path fill="#318fff" d="M500.027 462.145v-166.49h26.18v166.49z"/></g><g><path fill="#0053cc" d="M526.207 376.929h-26.18v20.982l26.18 13.162z"/></g><g><path fill="#318fff" d="M167.591 462.145v-166.49h26.181v166.49z"/></g><g><path fill="#0053cc" d="M193.772 376.929h-26.18v20.982l26.18 13.162z"/></g><g><path fill="#318fff" d="M115.543 364.433v-1.58h23.75v1.58z"/></g><g><path fill="#318fff" d="M105.715 364.433v-1.58h6.318v1.58z"/></g><g><path fill="#318fff" d="M88.747 386.267V368.38h612.509v17.886z"/></g><g><path fill="#0053cc" d="M272.076 386.267V368.38h23.415v17.886z"/></g><g><path fill="#318fff" d="M258.986 462.145v-166.49h26.18v166.49z"/></g><g><path fill="#318fff" d="M256.28 500.926v-38.78h31.591v38.78z"/></g><g><path fill="#318fff" d="M164.886 500.926v-38.78h31.591v38.78z"/></g><g><path fill="#318fff" d="M169.026 295.655v-64.543h23.311v64.543z"/></g><g><path fill="#318fff" d="M170.298 231.112v-64.543h20.767v64.543z"/></g><g><path fill="#318fff" d="M171.57 166.569v-64.543h18.223v64.543z"/></g><g><path fill="#318fff" d="M277.604 102.025h-11.057V91.48a5.528 5.528 0 0 1 11.057 0z"/></g><g><path fill="#318fff" d="M186.21 102.025h-11.056V91.48a5.528 5.528 0 1 1 11.057 0z"/></g><g><g><g><g><path fill="#318fff" d="M513.117 314.206v-18.551h91.394v18.55z"/></g><g><path fill="#318fff" d="M513.117 249.663v-18.551h91.394v18.55z"/></g><g><path fill="#318fff" d="M513.117 185.12v-18.551h91.394v18.55z"/></g><g><path fill="#318fff" d="M513.117 127.828v-18.551h91.394v18.55z"/></g></g><g><path fill="#0053cc" d="M585.345 314.206v-18.551h20.11v18.55z"/></g><g><path fill="#0053cc" d="M586.78 249.662v-18.55h20.11v18.55z"/></g><g><path fill="#0053cc" d="M588.052 185.12v-18.551h20.11v18.55z"/></g><g><path fill="#0053cc" d="M589.325 127.827v-18.55h20.11v18.55z"/></g></g><g><path fill="#318fff" d="M591.42 500.926v-38.78h26.182v38.78z"/></g><g><path fill="#318fff" d="M592.856 295.655v-64.543h23.311v64.543z"/></g><g><path fill="#318fff" d="M594.128 231.112v-64.543h20.767v64.543z"/></g><g><path fill="#318fff" d="M595.4 166.569v-64.543h18.222v64.543z"/></g></g><g><path fill="#0053cc" d="M604.511 386.267V368.38h23.415v17.886z"/></g><g><path fill="#318fff" d="M591.42 462.145v-166.49h26.182v166.49z"/></g><g><path fill="#318fff" d="M588.716 500.926v-38.78h31.59v38.78z"/></g><g><path fill="#318fff" d="M497.322 500.926v-38.78h31.59v38.78z"/></g><g><path fill="#318fff" d="M501.461 295.655v-64.543h23.312v64.543z"/></g><g><path fill="#318fff" d="M502.734 231.112v-64.543H523.5v64.543z"/></g><g><path fill="#318fff" d="M504.006 166.569v-64.543h18.222v64.543z"/></g><g><path fill="#318fff" d="M610.04 102.025h-11.057V91.48a5.528 5.528 0 0 1 11.057 0z"/></g><g><path fill="#318fff" d="M518.646 102.025h-11.057V91.48a5.528 5.528 0 0 1 11.057 0z"/></g></g></g><g><path fill="#318fff" d="M438.293 350.963c-92.524 0-167.797-115.278-167.797-256.975a1.58 1.58 0 0 1 3.159 0c0 139.955 73.858 253.816 164.638 253.816 90.782 0 164.64-113.86 164.64-253.816a1.58 1.58 0 1 1 3.16 0c0 141.697-75.275 256.975-167.8 256.975z"/></g></g></g></g></g></g></svg>