<svg xmlns="http://www.w3.org/2000/svg" width="62" height="62" viewBox="0 0 62 62"><defs><linearGradient id="fz61a" x1="31.3" x2="31.3" y1="61.5" y2="0" gradientUnits="userSpaceOnUse"><stop offset="0" stop-color="#5558ff"/><stop offset="1" stop-color="#00c0ff"/></linearGradient></defs><g><g><path fill="url(#fz61a)" d="M40.427 16.216a1.802 1.802 0 1 1-3.603 0 1.802 1.802 0 0 1 3.603 0zm7.207 0a1.802 1.802 0 1 1-3.604 0 1.802 1.802 0 0 1 3.604 0zm.155 36.263a1.802 1.802 0 0 0-.275-2.773l-9.172-6.115a1.807 1.807 0 0 0-2.274.225l-3.007 3.007a1.802 1.802 0 0 1-1.274.528c-.239 0-5.907-.064-11.466-5.624-5.56-5.56-5.624-11.228-5.624-11.466 0-.478.19-.936.528-1.274l3.007-3.007c.605-.606.7-1.562.225-2.274l-6.115-9.173a1.802 1.802 0 0 0-2.773-.274l-3.824 3.823c-1.094 1.094-1.672 2.577-1.584 4.066.258 4.39 2.205 13.268 12.338 23.401s19.01 12.08 23.4 12.338c1.49.088 2.972-.49 4.067-1.585l3.823-3.823zm4.105-1.806a5.386 5.386 0 0 1-1.557 4.354l-3.823 3.823c-1.824 1.824-4.313 2.782-6.826 2.634-4.9-.288-14.761-2.411-25.737-13.387C2.975 37.121.852 27.261.564 22.36c-.148-2.516.812-5.005 2.633-6.826l3.824-3.823a5.384 5.384 0 0 1 4.354-1.557 5.386 5.386 0 0 1 3.965 2.38l6.115 9.173a5.42 5.42 0 0 1-.675 6.82l-2.413 2.414c.205 1.417 1.048 4.784 4.502 8.238 3.454 3.454 6.821 4.297 8.238 4.502l2.413-2.413a5.42 5.42 0 0 1 6.82-.676l9.173 6.116a5.386 5.386 0 0 1 2.38 3.965zm2.947-34.457a1.802 1.802 0 1 1-3.604 0 1.802 1.802 0 0 1 3.604 0zm-9.009 12.612c6.955 0 12.612-5.658 12.612-12.612 0-6.955-5.657-12.613-12.612-12.613-6.954 0-12.612 5.658-12.612 12.613 0 2.393.677 4.723 1.956 6.738.29.458.36 1.022.188 1.536l-1.097 3.29 3.291-1.096a1.802 1.802 0 0 1 1.536.188 12.551 12.551 0 0 0 6.738 1.956zm0-28.828c8.942 0 16.216 7.274 16.216 16.216 0 8.94-7.274 16.215-16.216 16.215-2.785 0-5.504-.712-7.918-2.067l-5.926 1.975a1.802 1.802 0 0 1-2.279-2.28l1.975-5.925a16.15 16.15 0 0 1-2.067-7.918C29.617 7.274 36.89 0 45.832 0z"/></g></g></svg>