<?xml version="1.0" encoding="utf-8"?>
<!-- Generator: Adobe Illustrator 25.1.0, SVG Export Plug-In . SVG Version: 6.00 Build 0)  -->
<svg version="1.1" id="Layer_1" xmlns="http://www.w3.org/2000/svg" xmlns:xlink="http://www.w3.org/1999/xlink" x="0px" y="0px"
	 viewBox="0 0 786 338" style="enable-background:new 0 0 786 338;" xml:space="preserve">
<style type="text/css">
	.st0{fill:#8DC63F;}
	.st1{fill:#007F3E;}
</style>
<g>
	<polygon points="761.9,156 757,156 757,154.3 768.7,154.3 768.7,156 763.9,156 763.9,168.7 761.9,168.7 	"/>
	<polygon points="784,155.7 784,155.7 779.3,168.7 777.5,168.7 772.8,155.7 772.8,155.7 772.8,168.7 770.8,168.7 770.8,154.3 
		774.4,154.3 778.5,166.2 778.6,166.2 782.7,154.3 786,154.3 786,168.7 784,168.7 	"/>
	<path d="M245.4,151.6c-0.5-6.9-7.9-11.4-15.2-11.4c-17.7,0-21,16.2-21,28.8c0,14.8,4.5,28.8,20.1,28.8c7.6,0,14.6-3.8,15.8-11.4
		h10.4c-1,12-13.1,20-27.1,20c-21.2,0-29.6-17.3-29.6-37.4c0-17.6,7.8-38.1,31.8-37.4c13.8,0.4,24.2,7.2,25.2,20H245.4z"/>
	<path d="M273,181.7c-0.7,8.8,2.9,17.8,12.5,17.8c7.4,0,11-2.9,12.1-10.1h9.9c-1.5,11.3-10.2,17-22.2,17c-16,0-22.4-11.3-22.4-26
		c0-14.6,7.3-26.8,23.2-26.8c14.9,0.3,22,9.7,22,23.6v4.7H273z M298.3,175.2c0.2-8.4-3.6-14.8-12.7-14.8c-7.9,0-12.5,6.7-12.5,14.8
		H298.3z"/>
	<path d="M327.1,162.3h0.2c3.2-6.3,10.1-8.8,15.1-8.8c3.5,0,18.9,0.9,18.9,16.9v34.5h-9.4v-31.4c0-8.3-3.5-12.7-11.4-12.7
		c0,0-5.2-0.3-9.1,3.7c-1.4,1.4-4,3.6-4,13.3v27.1h-9.4V155h9.2V162.3z"/>
	<path d="M376.3,155v-10.6l9.4-3V155h11.5v6.9h-11.5v32c0,3.6,2.8,5.3,6.2,5.3c1.5,0,3.5-0.2,5-0.6v7.2c-2.2,0.1-4.3,0.6-6.4,0.6
		c-2.3,0-4.1-0.1-6.4-0.5c-1.5-0.3-4-1.1-5.6-3.3c-1.7-2.4-2.2-2.6-2.2-9.2v-31.5h-8.5V155H376.3z"/>
	<path d="M438.7,155h9.4v49.9h-9.2v-7.4h-0.2c-3.8,6.3-10.1,8.8-17.1,8.8c-10.4,0-16.4-8-16.4-18V155h9.5v29.5c0,8.6,2,15,11,15
		c3.9,0,9.1-2,11.1-7.2c1.8-4.7,1.9-10.5,1.9-11.7V155z"/>
	<path d="M470.2,204.9h-9.4V155h9.4v9.6h0.2c1.4-6.9,7.7-10.3,14.6-10.3c1.2,0,2.2,0.1,3.3,0.1v8.9c-1.3-0.5-2.8-0.5-4.1-0.5
		c-11.9,0.4-14,6.8-14,17.3V204.9z"/>
	<polygon points="516.2,224 506.6,224 514.1,204.7 493.4,155 503.9,155 519.5,194.3 535.4,155 545.5,155 	"/>
	<polygon points="552.6,204.9 552.6,133.1 568,133.1 568,192.9 599.1,192.9 599.1,204.9 	"/>
	<path d="M623.9,145.9H608v-12.8h15.9V145.9z M623.4,204.9h-14.9V155h14.9V204.9z"/>
	<path d="M652.5,160.8l0.2,0.3c3.1-4.6,7.7-7.6,15.3-7.6c5,0,14.6,3.7,16.4,10.9c0.8,3.1,1,6.3,1,8v32.5h-14.9v-30
		c-0.1-5.4-1.6-11.4-8.9-11.4c-4.7,0-8.7,4.2-8.9,11.4v30h-14.9V155h14.8V160.8z"/>
	<polygon points="714.7,175.2 714.9,175.4 729.6,154.4 746.2,154.4 729,176.3 747.3,204.9 729.9,204.9 714.9,177.5 714.7,177.7 
		714.7,204.9 699.8,204.9 699.8,133.1 714.7,133.1 	"/>
	<path class="st0" d="M13.9,214c5.2,7.3,11.6,13.7,18.9,18.9l25.8-44.7L13.9,214z"/>
	<path class="st0" d="M32.8,105.1c-7.3,5.2-13.7,11.6-18.9,18.9l44.7,25.8L32.8,105.1z"/>
	<path class="st0" d="M110.7,98c-8-3.7-16.7-6.1-25.8-6.9v51.6L110.7,98z"/>
	<path class="st0" d="M45,240c8,3.7,16.7,6.1,25.8,6.9v-51.6L45,240z"/>
	<path class="st0" d="M141.8,124c-5.2-7.3-11.6-13.7-18.9-18.9l-25.8,44.7L141.8,124z"/>
	<path class="st0" d="M122.9,232.9c7.3-5.2,13.7-11.6,18.9-18.9l-44.7-25.8L122.9,232.9z"/>
	<path class="st1" d="M155.7,162c-0.8-9.1-3.2-17.8-6.9-25.8L104.1,162H155.7z"/>
	<path class="st1" d="M0,176c0.8,9.2,3.2,17.8,6.9,25.8L51.6,176H0z"/>
	<path class="st1" d="M6.9,136.1c-3.7,8-6.1,16.7-6.9,25.8h51.6L6.9,136.1z"/>
	<path class="st1" d="M104.1,176l44.7,25.8c3.7-8,6.1-16.7,6.9-25.8H104.1z"/>
	<path class="st1" d="M70.8,91.1C61.7,91.9,53,94.3,45,98l25.8,44.7V91.1z"/>
	<path class="st1" d="M84.9,246.9c9.1-0.8,17.8-3.2,25.8-6.9l-25.8-44.7V246.9z"/>
	<polygon class="st1" points="137.3,92.9 132.4,92.9 132.4,91.1 144.1,91.1 144.1,92.9 139.3,92.9 139.3,105.6 137.3,105.6 	"/>
	<polygon class="st1" points="159.4,92.6 159.4,92.6 154.8,105.6 152.9,105.6 148.3,92.6 148.2,92.6 148.2,105.6 146.2,105.6 
		146.2,91.1 149.8,91.1 154,103 154,103 158.1,91.1 161.4,91.1 161.4,105.6 159.4,105.6 	"/>
</g>
</svg>
