<svg xmlns="http://www.w3.org/2000/svg" width="192.667" height="33.482" viewBox="0 0 192.667 33.482">
  <g id="cleverping" transform="translate(0 -2.6)">
    <g id="Group_1" data-name="Group 1" transform="translate(40.886 2.6)">
      <path id="Path_1" data-name="Path 1" d="M64.1,29.424a11.194,11.194,0,0,1-5.183,1.234c-5.347,0-9.214-3.62-9.214-8.638,0-5.183,4.2-8.72,9.378-8.72a10.121,10.121,0,0,1,4.689,1.069v3.949a9,9,0,0,0-4.689-1.481,5.056,5.056,0,0,0-5.347,5.183c0,2.962,2.221,5.018,5.43,5.018a7.861,7.861,0,0,0,4.854-1.645v4.031Z" transform="translate(-49.7 -4.498)" fill="#020202"/>
      <path id="Path_2" data-name="Path 2" d="M71.1,2.6h4.113V28.349H71.1Z" transform="translate(-53.495 -2.6)" fill="#020202"/>
      <path id="Path_3" data-name="Path 3" d="M84.213,23.107c.494,2.8,2.715,4.2,5.512,4.2A9.989,9.989,0,0,0,95.4,25.411V29.2a12.167,12.167,0,0,1-6.088,1.563c-5.347,0-9.214-3.455-9.214-8.638a8.417,8.417,0,0,1,8.473-8.72c4.113,0,7.733,2.8,7.733,8.144a9.974,9.974,0,0,1-.082,1.645H84.213Zm8.309-2.879a3.9,3.9,0,0,0-3.949-3.62,4.264,4.264,0,0,0-4.278,3.62Z" transform="translate(-55.091 -4.515)" fill="#020202"/>
      <path id="Path_4" data-name="Path 4" d="M100.3,13.8h4.278l2.386,6.088c.74,1.81,1.4,3.7,2.139,5.594h.082c.74-1.974,1.4-3.7,2.221-5.594l2.468-6.088h4.113l-6.828,16.618h-4.031Z" transform="translate(-58.673 -4.586)" fill="#020202"/>
      <path id="Path_5" data-name="Path 5" d="M126.213,23.107c.494,2.8,2.715,4.2,5.512,4.2a9.989,9.989,0,0,0,5.676-1.892V29.2a12.167,12.167,0,0,1-6.088,1.563c-5.347,0-9.214-3.455-9.214-8.638a8.417,8.417,0,0,1,8.473-8.72c4.113,0,7.733,2.8,7.733,8.144a9.974,9.974,0,0,1-.082,1.645H126.213Zm8.309-2.879a3.9,3.9,0,0,0-3.949-3.62,4.264,4.264,0,0,0-4.278,3.62Z" transform="translate(-62.539 -4.515)" fill="#020202"/>
      <path id="Path_6" data-name="Path 6" d="M145.1,13.747h4.031v2.3h.082a5.793,5.793,0,0,1,4.854-2.55,2.8,2.8,0,0,1,1.152.165v3.949a6.394,6.394,0,0,0-1.316-.165,5.394,5.394,0,0,0-4.607,2.468V30.365h-4.113V13.747Z" transform="translate(-66.618 -4.533)" fill="#020202"/>
      <path id="Path_7" data-name="Path 7" d="M164.713,37.651H160.6V13.711h4.031v.9h.082a8.111,8.111,0,0,1,4.442-1.316c4.36,0,7.9,3.373,7.9,8.556a8.427,8.427,0,0,1-8.638,8.8,8.793,8.793,0,0,1-3.62-.74h-.082ZM168.169,27.2a4.775,4.775,0,0,0,4.854-5.1c0-2.879-1.81-5.265-4.689-5.265a5.452,5.452,0,0,0-3.537,1.234V26.38A7.523,7.523,0,0,0,168.169,27.2Z" transform="translate(-69.367 -4.498)" fill="#020202"/>
      <path id="Path_8" data-name="Path 8" d="M185.85,4a2.55,2.55,0,1,1-2.55,2.55A2.511,2.511,0,0,1,185.85,4Zm-2.057,8.062h4.113V28.68h-4.113Z" transform="translate(-73.392 -2.848)" fill="#020202"/>
      <path id="Path_9" data-name="Path 9" d="M192.165,13.711H196.2v1.81h.082a8.325,8.325,0,0,1,5.43-2.221,5.58,5.58,0,0,1,4.36,1.728c.987,1.069,1.4,2.468,1.4,4.854V30.165h-4.113V20.622c0-1.481-.165-2.3-.658-2.8a2.786,2.786,0,0,0-2.221-.9,6.259,6.259,0,0,0-4.36,2.057v11.27H192V13.711Z" transform="translate(-74.935 -4.498)" fill="#020202"/>
      <path id="Path_10" data-name="Path 10" d="M216.439,32.779a9.943,9.943,0,0,0,5.347,1.645c2.8,0,4.689-1.563,4.689-4.36V29l-.082-.082a7.648,7.648,0,0,1-4.2,1.234,7.877,7.877,0,0,1-7.9-8.227,8.4,8.4,0,0,1,8.638-8.72,10.534,10.534,0,0,1,4.2.9l3.537-.576V29.982c0,5.018-3.455,7.98-8.638,7.98a12.023,12.023,0,0,1-5.43-1.234V32.779Zm9.954-15.055a7.327,7.327,0,0,0-3.373-.9,4.6,4.6,0,0,0-4.689,4.936c0,2.879,1.892,5.018,4.689,5.018a5.684,5.684,0,0,0,3.373-1.069Z" transform="translate(-78.89 -4.48)" fill="#020202"/>
    </g>
    <g id="Group_3" data-name="Group 3" transform="translate(0 11.238)">
      <g id="Group_2" data-name="Group 2">
        <path id="Path_11" data-name="Path 11" d="M8.8,13.1A8.779,8.779,0,0,0,0,21.738a8.69,8.69,0,0,0,8.638,8.638,8.779,8.779,0,0,0,8.8-8.638A8.744,8.744,0,0,0,8.8,13.1ZM8.72,26.345A4.607,4.607,0,1,1,8.8,17.131a4.6,4.6,0,0,1,4.607,4.607A4.724,4.724,0,0,1,8.72,26.345Zm17.194-9.214v9.214h4.113V17.131ZM19.662,30.376h4.113V13.1H19.662Z" transform="translate(0 -13.1)" fill="#3c69b2"/>
      </g>
    </g>
  </g>
</svg>
