<?xml version="1.0" encoding="utf-8"?>
<!-- Generator: Adobe Illustrator 24.1.3, SVG Export Plug-In . SVG Version: 6.00 Build 0)  -->
<svg version="1.1" id="Layer_1" xmlns="http://www.w3.org/2000/svg" xmlns:xlink="http://www.w3.org/1999/xlink" x="0px" y="0px"
	 viewBox="0 0 234 46" style="enable-background:new 0 0 234 46;" xml:space="preserve">
<style type="text/css">
	.st0{fill:#020202;}
	.st1{fill:#3C69B2;}
</style>
<g>
	<g>
		<path class="st0" d="M67.2,32.9c-1.8,1-4.2,1.5-6.3,1.5c-6.5,0-11.2-4.4-11.2-10.5c0-6.3,5.1-10.6,11.4-10.6
			c2.2,0,4.2,0.5,5.7,1.3v4.8c-1.8-1.1-3.7-1.8-5.7-1.8c-3.9,0-6.5,2.7-6.5,6.3c0,3.6,2.7,6.1,6.6,6.1c2.1,0,4.3-0.7,5.9-2V32.9z"/>
		<path class="st0" d="M71.1,2.6h5v31.3h-5V2.6z"/>
		<path class="st0" d="M85.1,25.2c0.6,3.4,3.3,5.1,6.7,5.1c2.5,0,4.9-0.9,6.9-2.3v4.6c-1.9,1.2-4.8,1.9-7.4,1.9
			c-6.5,0-11.2-4.2-11.2-10.5c0-6.4,4.8-10.6,10.3-10.6c5,0,9.4,3.4,9.4,9.9c0,0.7,0,1.5-0.1,2H85.1z M95.2,21.7
			c-0.4-3-2.6-4.4-4.8-4.4c-2.3,0-4.6,1.4-5.2,4.4H95.2z"/>
		<path class="st0" d="M100.3,13.8h5.2l2.9,7.4c0.9,2.2,1.7,4.5,2.6,6.8h0.1c0.9-2.4,1.7-4.5,2.7-6.8l3-7.4h5l-8.3,20.2h-4.9
			L100.3,13.8z"/>
		<path class="st0" d="M127.1,25.2c0.6,3.4,3.3,5.1,6.7,5.1c2.5,0,4.9-0.9,6.9-2.3v4.6c-1.9,1.2-4.8,1.9-7.4,1.9
			c-6.5,0-11.2-4.2-11.2-10.5c0-6.4,4.8-10.6,10.3-10.6c5,0,9.4,3.4,9.4,9.9c0,0.7,0,1.5-0.1,2H127.1z M137.2,21.7
			c-0.4-3-2.6-4.4-4.8-4.4c-2.3,0-4.6,1.4-5.2,4.4H137.2z"/>
		<path class="st0" d="M145.1,13.8h4.9v2.8l0.1,0c1.4-2,3.5-3.1,5.9-3.1c0.5,0,0.9,0,1.4,0.2v4.8c-0.5-0.1-1-0.2-1.6-0.2
			c-2.3,0-4.2,1-5.6,3v12.7h-5V13.8z"/>
		<path class="st0" d="M165.6,42.9h-5V13.8h4.9v1.1l0.1,0c1.4-0.9,3.2-1.6,5.4-1.6c5.3,0,9.6,4.1,9.6,10.4c0,6.5-4.7,10.7-10.5,10.7
			c-1.8,0-3.3-0.4-4.4-0.9l-0.1,0V42.9z M169.8,30.2c3.6,0,5.9-2.7,5.9-6.2s-2.2-6.4-5.7-6.4c-1.6,0-3.1,0.5-4.3,1.5v10.1
			C166.6,29.7,168.2,30.2,169.8,30.2z"/>
		<path class="st0" d="M186.4,4c1.7,0,3.1,1.4,3.1,3.1c0,1.7-1.4,3.1-3.1,3.1c-1.7,0-3.1-1.4-3.1-3.1C183.3,5.4,184.6,4,186.4,4z
			 M183.9,13.8h5v20.2h-5V13.8z"/>
		<path class="st0" d="M192.2,13.8h4.9v2.2l0.1,0c1.7-1.5,4-2.7,6.6-2.7c2.2,0,4.1,0.7,5.3,2.1c1.2,1.3,1.7,3,1.7,5.9v12.5h-5V22.2
			c0-1.8-0.2-2.8-0.8-3.4c-0.6-0.7-1.5-1.1-2.7-1.1c-2,0-4,1.1-5.3,2.5v13.7h-5V13.8z"/>
		<path class="st0" d="M216.9,37c2,1.3,4.3,2,6.5,2c3.4,0,5.7-1.9,5.7-5.3v-1.3l-0.1-0.1c-1.3,0.9-3.2,1.5-5.1,1.5
			c-5.2,0-9.6-4-9.6-10c0-5.8,4.1-10.6,10.5-10.6c2,0,3.7,0.5,5.1,1.1l4.3-0.7v20c0,6.1-4.2,9.7-10.5,9.7c-2.5,0-4.9-0.6-6.6-1.5V37
			z M229,18.7c-1.1-0.6-2.6-1.1-4.1-1.1c-3.6,0-5.7,2.7-5.7,6c0,3.5,2.3,6.1,5.7,6.1c1.5,0,3.1-0.5,4.1-1.3V18.7z"/>
	</g>
	<g>
		<g>
			<path class="st1" d="M10.7,13.1C4.8,13.1,0,17.9,0,23.6c0,5.8,4.8,10.5,10.5,10.5c5.9,0,10.7-4.8,10.7-10.5
				C21.2,17.9,16.4,13.1,10.7,13.1z M10.6,29.2c-3.1,0-5.6-2.5-5.6-5.6c0-3.1,2.5-5.6,5.7-5.6c3.1,0,5.6,2.5,5.6,5.6
				C16.2,26.7,13.7,29.2,10.6,29.2z M31.5,18v11.2h5V18H31.5z M23.9,34.1h5V13.1h-5V34.1z"/>
		</g>
	</g>
</g>
</svg>
