<svg xmlns="http://www.w3.org/2000/svg" width="490" height="426" viewBox="0 0 490 426"><g><g><g><g><path fill="#f5f5f5" d="M387 247.338c-30.386-39.394-44.452-78.008-81.392-21.182-16.626-17.562-31.236-35.134-41.871-51.702-57.554-89.657-115.422-34.483-162.413 26.437C54.334 261.811 0 371.615 0 371.615H489.151S417.57 286.971 387 247.338z"/></g><g><g><path fill="#f0f0f0" d="M282.695 278.984c-15.746-29.539-22.978-58.522-42.263-15.048-18.343 41.348-65.384 107.68-65.384 107.68H335.31s-36.868-63.091-52.614-92.632z"/></g></g><g opacity=".7"><path fill="#bfd8ff" d="M22.777 23.625c1.52.055 2.634.425 3.298 1.016 7.26-3.53 15.685-5.699 22.721-5.459 3.577.118 6.386.845 8.354 2.033 7.731-5.328 17.704-9.103 25.045-9.103 4.172 0 6.813 1.222 7.814 3.26 8.01-3.576 16.294-5.773 23.044-5.773 10.764 0 14.477 5.581 10.382 13.421 5.077.14 9.352 3.235 5.705 6.015H10.266c.144-.172.288-.344.45-.523 2.613-2.835 8.007-5.025 12.061-4.887z"/></g><g opacity=".7"><path fill="#bfd8ff" d="M145.541 58.215c.894.034 1.528.304 1.888.738 4.401-2.57 9.418-4.148 13.515-3.974 2.092.086 3.702.619 4.792 1.483.005.006.007 0 .007 0 4.741-3.874 10.737-6.62 15.032-6.62 2.446 0 3.936.89 4.426 2.372 4.838-2.607 9.775-4.203 13.725-4.203 4.896 0 7.155 2.455 6.628 6.235 2.317-1.099 4.607-1.747 6.493-1.747 2.615 0 3.889 1.242 3.754 3.19.23 0 .458.009.683.029 4.003.324 5.63 2.842 3.824 5.716h-81.75c1.717-1.897 4.744-3.314 6.983-3.219z"/></g><g opacity=".7"><path fill="#bfd8ff" d="M36.975 95.013c.618.025 1.058.212 1.306.511 3.043-1.777 6.512-2.867 9.344-2.746 1.447.058 2.56.427 3.315 1.025h.003c3.279-2.679 7.425-4.577 10.394-4.577 1.692 0 2.722.614 3.062 1.64 3.344-1.803 6.758-2.908 9.489-2.908 3.385 0 4.946 1.7 4.583 4.311 1.601-.759 3.185-1.208 4.49-1.208 1.807 0 2.689.86 2.595 2.206.159 0 .317.007.471.022 2.768.224 3.894 1.963 2.645 3.952H32.148c1.186-1.313 3.28-2.293 4.827-2.228z"/></g><g><path fill="#f0f0f0" d="M376.48 42.29c0-22.89 18.556-41.446 41.445-41.446 22.89 0 41.446 18.556 41.446 41.445 0 22.89-18.556 41.446-41.446 41.446-22.89 0-41.445-18.556-41.445-41.446z"/></g><g opacity=".7"><path fill="#bfd8ff" d="M316.765 41.08c1.519.055 2.633.426 3.296 1.016 7.26-3.528 15.687-5.697 22.723-5.457 3.577.116 6.385.844 8.352 2.032 7.731-5.328 17.704-9.104 25.046-9.104 4.172 0 6.813 1.222 7.814 3.26 8.01-3.576 16.294-5.772 23.044-5.772 10.764 0 14.477 5.582 10.382 13.42 5.078.14 9.35 3.235 5.705 6.015H304.253c.144-.17.288-.343.45-.521 2.612-2.836 8.007-5.026 12.062-4.889z"/></g><g opacity=".7"><path fill="#bfd8ff" d="M395.978 107.575c.893.034 1.528.304 1.888.739 4.4-2.571 9.417-4.149 13.515-3.974 2.09.084 3.701.619 4.792 1.482.004.005.006 0 .006 0 4.742-3.873 10.737-6.62 15.033-6.62 2.445 0 3.935.889 4.426 2.372 4.836-2.606 9.774-4.204 13.724-4.204 4.896 0 7.155 2.457 6.628 6.236 2.317-1.098 4.606-1.748 6.494-1.748 2.615 0 3.888 1.244 3.753 3.19.23 0 .458.01.683.03 4.003.325 5.63 2.841 3.824 5.716h-81.749c1.716-1.896 4.742-3.314 6.983-3.22z"/></g></g><g><g><path fill="#f5f5f5" d="M10.824 411.82c0-7.43 103.121-13.452 230.327-13.452s230.326 6.023 230.326 13.452-103.12 13.451-230.326 13.451c-127.206 0-230.327-6.022-230.327-13.451z"/></g></g><g><g><g><g><g transform="rotate(-17.053 410.5 260.5)"><path fill="#407bff" d="M409.52 265.113v-9.646h1.188v9.646z"/></g><g transform="rotate(-17.051 402 233.5)"><path fill="#407bff" d="M401.392 248.137V219.44h1.187v28.697z"/></g><g><path fill="#407bff" d="M358.77 105.047h-42.273l-88.075 287.161c-2.95 9.619 4.243 19.35 14.304 19.35h189.816c10.062 0 17.255-9.731 14.305-19.35z"/></g><g opacity=".2"><path fill="#263238" d="M358.77 105.047h-21.136l-26.791 306.51h121.7c10.061 0 17.254-9.73 14.304-19.349z"/></g><g opacity=".2"><path fill="#263238" d="M358.77 105.047h-9.918l30.23 306.51h53.46c10.062 0 17.255-9.73 14.305-19.349z"/></g><g opacity=".2"><path fill="#fff" d="M316.497 105.047h10.184l-72.859 306.51h-11.096c-10.06 0-17.255-9.73-14.304-19.349z"/></g></g><g><g><path fill="#407bff" d="M337.304 93.634a28.042 28.042 0 0 1 27.08 20.76l13.642 50.714-3.628 16.037-13.875-13.167-13.15 30.194-11.971-20.987-14.873 20.987-6.468-31.48-13.544 17.95-3.204-20.722 12.854-49.315c3.22-12.351 14.372-20.97 27.137-20.97z"/></g><g opacity=".7"><path fill="#fff" d="M337.304 93.634a28.042 28.042 0 0 1 27.08 20.76l13.642 50.714-3.628 16.037-13.875-13.167-13.15 30.194-11.971-20.987-14.873 20.987-6.468-31.48-13.544 17.95-3.204-20.722 12.854-49.315c3.22-12.351 14.372-20.97 27.137-20.97z"/></g></g></g><g><g><path fill="#fff" d="M310.843 412.745c-.45 0-.88-.255-1.08-.69l-20.13-43.643a1.189 1.189 0 0 1 .268-1.365l78.367-73.436-48.692-94.897a1.188 1.188 0 0 1-.114-.74l17.036-101.369a1.189 1.189 0 0 1 2.343.393l-16.97 100.982 48.92 95.344a1.186 1.186 0 0 1-.244 1.409l-78.398 73.461 19.772 42.865a1.188 1.188 0 0 1-1.078 1.686z"/></g><g><g><g transform="rotate(-76.718 369.5 293.5)"><path fill="#407bff" d="M357.657 293.866c0-6.67 5.408-12.077 12.078-12.077 6.67 0 12.077 5.407 12.077 12.077s-5.407 12.077-12.077 12.077-12.078-5.407-12.078-12.077z"/></g><g><path fill="#fff" d="M380.624 293.865c0 6.005-4.885 10.89-10.89 10.89-6.004 0-10.888-4.885-10.888-10.89 0-6.003 4.884-10.888 10.888-10.888 6.005 0 10.89 4.885 10.89 10.888zm2.376 0c0-7.314-5.95-13.264-13.266-13.264-7.314 0-13.264 5.95-13.264 13.264 0 7.316 5.95 13.266 13.264 13.266 7.315 0 13.266-5.95 13.266-13.266z"/></g></g><g><g transform="rotate(-80.783 290.5 367.5)"><path fill="#407bff" d="M278.635 367.913c0-6.67 5.407-12.077 12.077-12.077s12.078 5.407 12.078 12.078c0 6.67-5.408 12.077-12.078 12.077-6.67 0-12.077-5.407-12.077-12.078z"/></g><g><path fill="#fff" d="M301.602 367.914c0 6.004-4.885 10.888-10.89 10.888-6.004 0-10.888-4.884-10.888-10.888s4.884-10.89 10.888-10.89c6.005 0 10.89 4.886 10.89 10.89zm2.376 0c0-7.314-5.95-13.266-13.266-13.266-7.314 0-13.264 5.952-13.264 13.266s5.95 13.264 13.264 13.264c7.315 0 13.266-5.95 13.266-13.264z"/></g></g><g><g><path fill="#407bff" d="M308.556 198.172c0-6.67 5.408-12.077 12.078-12.077 6.67 0 12.077 5.407 12.077 12.077s-5.407 12.077-12.077 12.077-12.078-5.407-12.078-12.077z"/></g><g><path fill="#fff" d="M331.523 198.172c0 6.004-4.884 10.89-10.89 10.89-6.003 0-10.89-4.886-10.89-10.89 0-6.005 4.887-10.89 10.89-10.89 6.006 0 10.89 4.885 10.89 10.89zm2.376 0c0-7.315-5.951-13.266-13.265-13.266-7.314 0-13.266 5.95-13.266 13.266 0 7.314 5.952 13.266 13.266 13.266s13.265-5.952 13.265-13.266z"/></g></g><g><g transform="rotate(-80.783 337.5 96.5)"><path fill="#407bff" d="M325.592 96.802c0-6.67 5.408-12.077 12.078-12.077 6.67 0 12.077 5.407 12.077 12.077s-5.407 12.077-12.077 12.077-12.078-5.407-12.078-12.077z"/></g><g><path fill="#fff" d="M348.56 96.803c0 6.003-4.887 10.888-10.89 10.888-6.004 0-10.89-4.885-10.89-10.888 0-6.005 4.886-10.89 10.89-10.89 6.003 0 10.89 4.885 10.89 10.89zm2.375 0c0-7.316-5.951-13.266-13.265-13.266-7.314 0-13.266 5.95-13.266 13.266 0 7.314 5.952 13.264 13.266 13.264s13.265-5.95 13.265-13.264z"/></g></g></g></g><g><g><path fill="#407bff" d="M337.634 96.868a1.188 1.188 0 0 1-1.188-1.188V42.289a1.188 1.188 0 0 1 2.376 0v53.39c0 .658-.532 1.189-1.188 1.189z"/></g><g><path fill="#407bff" d="M289.725 64.497c10.647 3.63 21.294-3.63 31.94 0v-18.15c-10.646-3.628-21.293 3.631-31.94 0z"/></g><g opacity=".2"><path d="M301.39 47.025v18.14c6.76-.892 13.519-2.97 20.278-.666V46.348c-6.76-2.305-13.518-.226-20.278.677z"/></g><g><path fill="#407bff" d="M305.695 60.438c10.647 3.63 21.293-3.63 31.939 0V42.29c-10.646-3.63-21.292 3.629-31.939 0z"/></g></g></g></g><g><g><g><g><g><path fill="#7f3e3b" d="M132.714 173.515l3.696 5.945-10.607 1.354s.22-2.328 1.01-5.815a2.716 2.716 0 0 1 3.221-2.067z"/></g><g><path fill="#7f3e3b" d="M135.535 188.978l-8.256-2.534-1.476-5.63 10.607-1.355z"/></g></g><g><g><g opacity=".2"><path d="M89.326 105.304"/></g></g></g><g><g><g><path fill="#7f3e3b" d="M163.657 107.003c1.268-.392 2.782-.923 4.186-1.4 1.43-.497 2.854-1.024 4.264-1.576 2.813-1.12 5.612-2.263 8.294-3.56 5.36-2.531 10.53-5.528 14.253-9.092a18.316 18.316 0 0 0 2.384-2.71l.24-.344c.058-.018.31-.607-.171.505a4.58 4.58 0 0 0-.246 1.98c.012.119.03.237.057.354l.055.25c.021.078.05.159.076.229l.05.139c.16.351.207.331.178.264a3.792 3.792 0 0 0-.282-.438c-.58-.783-1.605-1.791-2.66-2.732a89.462 89.462 0 0 0-3.415-2.876c-4.786-3.795-9.98-7.534-15.062-11.275l3.09-5.778c6.15 2.383 12.02 5.101 17.827 8.484 1.446.86 2.907 1.735 4.35 2.759 1.455 1.037 2.897 2.083 4.474 3.668.786.866 1.648 1.654 2.565 3.78l.157.42.15.519c.046.181.088.338.124.541.038.216.067.434.09.652.1.864.02 2.042-.38 3.16-.623 1.488-.61 1.225-.76 1.548l-.397.674a30.207 30.207 0 0 1-3.595 4.77c-5.25 5.612-11.263 9.257-17.324 12.398-3.055 1.53-6.137 2.926-9.281 4.132-1.57.611-3.148 1.19-4.741 1.742a79.65 79.65 0 0 1-4.946 1.54z"/></g></g><g><path fill="#7f3e3b" d="M168.49 66.734l-6.33 4.13 9.055 2.071 2.322-6.384z"/></g><g><path fill="#7f3e3b" d="M181.293 69.909l-7.756-3.358-2.322 6.385s6.164 6.461 10.078 2.148z"/></g><g><path fill="#7f3e3b" d="M135.105 118.35a741.677 741.677 0 0 0-8.695 16.178c-2.81 5.421-5.585 10.888-7.89 16.332a80.249 80.249 0 0 0-1.633 4.052l-.173.445c.012-.045.003-.097.006-.129-.01-.078-.023-.108-.044-.096-.029.033-.054.257.027.613.147.713.623 1.77 1.265 2.823a32.82 32.82 0 0 0 2.29 3.283c3.506 4.406 7.973 8.761 12.367 12.846l-3.658 5.436c-5.849-3.066-11.227-6.545-16.296-11.255-1.252-1.198-2.5-2.466-3.664-3.953-1.159-1.496-2.303-3.152-3.2-5.392a12.971 12.971 0 0 1-.899-3.965 11.129 11.129 0 0 1 .114-2.432c.058-.419.163-.845.276-1.267l.198-.668a93.092 93.092 0 0 1 1.541-4.772c2.192-6.228 4.824-12.057 7.58-17.828 2.82-5.75 5.757-11.31 9.04-16.877z"/></g><g><path fill="#7f3e3b" d="M143.433 80.295c-.771 8.027.367 15.797-1.43 22.776 0 0 1.995 6.476 13.858 6.476 13.045 0 5.985-6.476 5.985-6.476-7.186-1.7-7.206-6.981-6.157-11.942z"/></g><g><path fill="#263238" d="M140.38 105.294c-1.015-2.05-2.135-4.397-.033-5.13 2.311-.81 15.104-1.634 19.584-.116 4.48 1.517 3.386 5.675 3.386 5.675z"/></g><g><path fill="#407bff" d="M117.014 395.85c.054.043.11.116.086.289-.053.356-.208.597-.472.738-.6.32-1.83.118-3.346-.537 1.372-.447 3.256-.88 3.732-.49zm-2.07 1.52c.71.15 1.4.17 1.897-.094.393-.21.63-.57.706-1.07.054-.372-.104-.589-.246-.705-.919-.75-4.32.457-4.706.598a.226.226 0 0 0-.02.415c.614.294 1.506.672 2.369.856z"/></g><g><path fill="#407bff" d="M115.312 393.152a.623.623 0 0 1 .1.028c.28.096.276.233.274.29-.014.64-1.53 1.931-2.645 2.455.275-.763.907-2.268 1.724-2.687a.794.794 0 0 1 .547-.086zm-2.687 3.379a.222.222 0 0 0 .112-.004c1.076-.318 3.377-1.964 3.4-3.045.005-.196-.065-.552-.579-.73a1.238 1.238 0 0 0-1.001.085c-1.273.654-2.067 3.297-2.1 3.409a.226.226 0 0 0 .055.224c.032.031.071.053.113.061z"/></g><g><path fill="#407bff" d="M174.322 402.93zm0 0c1.25-.723 3.002-1.538 3.55-1.257.06.031.132.09.143.265.022.36-.078.628-.307.82-.521.438-1.766.497-3.386.172zm1.84.66c.726 0 1.405-.124 1.836-.486.342-.287.499-.688.468-1.194-.024-.376-.225-.554-.387-.638-1.055-.542-4.13 1.347-4.479 1.564a.226.226 0 0 0 .068.411c.662.16 1.613.344 2.495.344z"/></g><g><path fill="#407bff" d="M175.747 399.395c.293.037.32.171.33.228.119.629-1.096 2.206-2.076 2.951.11-.803.415-2.407 1.126-2.986a.797.797 0 0 1 .62-.193zm-2.027 3.86c.037 0 .075-.01.108-.028.986-.535 2.894-2.625 2.693-3.688-.037-.193-.18-.525-.718-.592a1.239 1.239 0 0 0-.963.29c-1.108.905-1.336 3.657-1.344 3.774a.227.227 0 0 0 .225.244z"/></g><g><path fill="#7f3e3b" d="M163.457 402.909h8.727l.088-20.21h-8.726z"/></g><g><path fill="#7f3e3b" d="M102.32 394.883l8.333 1.616 6.936-19.817-8.335-1.616z"/></g><g><path fill="#263238" d="M111.78 395.332l-9.589-2.042a.724.724 0 0 0-.828.433l-3.009 7.29c-.312.757.177 1.64.985 1.796 3.359.656 5.02.804 9.236 1.702 2.595.552 7.893 1.963 11.476 2.726 3.503.746 4.667-2.71 3.257-3.346-6.326-2.85-8.458-5.379-10.233-7.735a2.198 2.198 0 0 0-1.295-.824z"/></g><g><path fill="#263238" d="M172.087 401.898h-9.53a.726.726 0 0 0-.72.596l-1.425 7.757a1.326 1.326 0 0 0 1.316 1.553c3.436-.058 8.395-.26 12.717-.26 5.052 0 5.3.276 11.223.276 3.583 0 4.438-3.622 2.925-3.95-6.884-1.494-8.338-1.654-14.377-5.291-.657-.396-1.376-.681-2.13-.681z"/></g><g><path fill="#263238" d="M127.636 104.816c-8.028 2.19-17.526 24.403-17.526 24.403l18.44 10.414s4.311-7.86 8.562-17.601c4.453-10.207 3.918-20.871-9.476-17.216z"/></g><g><path fill="#263238" d="M179.795 144.027c-.063 9.741-.653 21.858-2.104 36.896h-46.685c-.564-6.775 2.226-38.424-4.417-70.402-.63-3.043 1.392-5.997 4.466-6.446 2.824-.413 6.368-.84 9.846-1.007 5.952-.285 14.58-.476 19.839 0 2.937.266 5.812.74 8.149 1.2 3.794.747 6.876 3.531 7.913 7.256 1.04 3.733 2.121 9.585 2.657 18.569.238 4.003.368 8.612.336 13.934z"/></g><g><path fill="#263238" d="M158.803 121.665c7.274 4.016 23.988-.576 23.988-.576l-.872-22.634s-7.414.61-17.606 4.759c-11.383 4.634-13.704 13.927-5.51 18.45z"/></g><g><g><g><path fill="#407bff" d="M168.358 101.224s-3.379 1.188-4.626 1.554c-4.48 4.919-7.266 15.604-7.266 15.604l5.694 7.525c-2.157-11.154 6.198-24.683 6.198-24.683z"/></g><g opacity=".2"><path d="M168.358 101.224s-3.379 1.188-4.626 1.554c-4.48 4.919-7.266 15.604-7.266 15.604l5.694 7.525c-2.157-11.154 6.198-24.683 6.198-24.683z"/></g></g><g><g><path fill="#407bff" d="M179.8 157.254c-4.449 3.432-13.304-4.554-13.304-4.554l.265 4.051c8.117 6.781 12.919 3.416 12.919 3.416s.28-1.263.12-2.913z"/></g><g opacity=".2"><path d="M179.8 157.254c-4.449 3.432-13.304-4.554-13.304-4.554l.265 4.051c8.117 6.781 12.919 3.416 12.919 3.416s.28-1.263.12-2.913z"/></g></g><g><g><path fill="#407bff" d="M138.3 102.778c-2.573.245-3.954.64-3.954.64s-3.247 7.103-1.317 16.062l5.122-2.302s-1.633-7.764.149-14.4z"/></g><g opacity=".2"><path d="M138.3 102.778c-2.573.245-3.954.64-3.954.64s-3.247 7.103-1.317 16.062l5.122-2.302s-1.633-7.764.149-14.4z"/></g></g><g><path fill="#407bff" d="M132.283 118.416c2.78-4.359 24.216-3.87 28.848-.297 4.631 3.572 10.228 42.567 3.374 46.923-6.852 4.356-38.478 6.435-38.702-2.376-.224-8.81 6.975-24.136 6.112-29.203-.863-5.068-3.423-9.108.368-15.047z"/></g><g opacity=".4"><path fill="#263238" d="M132.577 132.03s7.812 3.045 24.345-.648"/></g><g opacity=".4"><path fill="#263238" d="M142.012 130.889c.103.73-.302 1.32-.903 1.32-.6 0-1.172-.59-1.274-1.32-.103-.73.301-1.32.902-1.32.603 0 1.173.59 1.275 1.32z"/></g><g opacity=".4"><path fill="#263238" d="M160.228 165.67a.298.298 0 0 1-.285-.384c2.522-8.258 2.208-19.643-.93-33.84-1.3-5.885.184-11.59.968-12.765a.295.295 0 0 1 .41-.084.298.298 0 0 1 .084.413c-.81 1.213-2.085 6.864-.882 12.308 3.16 14.298 3.47 25.784.919 34.14a.298.298 0 0 1-.284.211z"/></g></g><g opacity=".2"><g opacity=".2"><path d="M172.27 382.705l-.044 10.417h-8.73l.044-10.417z"/></g><g opacity=".2"><path d="M109.25 375.071l8.338 1.617-3.579 10.214-8.337-1.617z"/></g></g><g><path fill="#407bff" d="M161.13 180.924s-7.328 66.693-11.8 91.679c-4.898 27.36-30.262 113.245-30.262 113.245l-15.634-3.33s17.459-80.345 19.81-107.435c2.553-29.402 7.768-94.159 7.768-94.159z"/></g><g><path fill="#263238" d="M122.57 380.572c.066.015-2.662 5.71-2.662 5.71l-17.59-3.746 1.257-5.334z"/></g><g opacity=".2"><path d="M155.788 204.687c-11.365 2.245-8.504 44.95-6.278 66.916 2.704-15.527 6.385-45.403 8.868-66.608-.774-.38-1.634-.499-2.59-.308z"/></g><g><path fill="#407bff" d="M177.689 180.924s3.72 65.25 3.799 91.862c.082 27.682-6.088 118.318-6.088 118.318h-14.783s-3.98-89.02-5.687-116.205c-1.862-29.638-7.924-93.975-7.924-93.975z"/></g><g><path fill="#263238" d="M178.018 385.216c.068 0-.597 6.138-.597 6.138h-17.983l-.699-5.478z"/></g><g><path fill="#263238" d="M163.247 71.982c.099.697.55 1.225 1.008 1.178.457-.047.748-.65.65-1.348-.099-.697-.55-1.225-1.008-1.177-.457.046-.748.65-.65 1.347z"/></g><g><path fill="#630f0f" d="M163.732 73.214s2.162 3.86 4.19 5.622c-1.075 1.279-3.256.968-3.256.968z"/></g><g><path fill="#263238" d="M163.529 67.427a.414.414 0 0 0-.033-.788c-.08-.02-1.952-.5-3.614 1.018a.413.413 0 0 0 .557.61c1.332-1.217 2.827-.832 2.843-.829a.416.416 0 0 0 .247-.01z"/></g><g><path fill="#7f3e3b" d="M139.682 72.895c1.74 8.512 2.326 13.565 7.293 17.518 7.47 5.944 17.53.933 18.371-7.826.757-7.886-2.217-20.482-11.117-23.028-8.77-2.51-16.288 4.825-14.547 13.336z"/></g><g><path fill="#263238" d="M158.042 74.162c-1.445 4.491-9.517 13.07-12.37 13.731-2.853.66-10.678-6.105-11.387-9.639-2.853-.326-5.984-6.019-1.622-8.25-3.2-1.629-2.35-10.114 4.154-9.505-3.975-3.822.796-10.29 6.206-8.574 1.297-3.3 8.62-5.412 12.833-.33 3.29-1.849 9.05 1.88 8.628 7.465-.29 3.82-3.788 6.938-6.35 7.49 1.374 1.69-.092 7.612-.092 7.612z"/></g><g><path fill="#7f3e3b" d="M153.682 72.982c.474 2.238 1.834 4.241 3.293 5.485 2.195 1.87 3.96.35 3.908-2.23-.046-2.321-1.245-6.092-3.715-6.979-2.436-.875-4.029 1.165-3.486 3.724z"/></g></g></g></g></g></g></g></svg>