<svg xmlns="http://www.w3.org/2000/svg" width="62" height="54" viewBox="0 0 62 54"><defs><linearGradient id="94wka" x1="31" x2="31" y1="54.05" y2="0" gradientUnits="userSpaceOnUse"><stop offset="0" stop-color="#5558ff"/><stop offset="1" stop-color="#00c0ff"/></linearGradient></defs><g><g><g><g><path fill="url(#94wka)" d="M16.585 36.035a1.802 1.802 0 1 0 0-3.604 1.802 1.802 0 0 0 0 3.604zm28.828-3.604h-21.62a1.802 1.802 0 0 0 0 3.604h21.62a1.802 1.802 0 0 0 0-3.604zm0-3.603a1.802 1.802 0 0 0 0-3.604h-1.802V9.01a1.802 1.802 0 0 0-3.603 0v16.215h-3.604V12.612a1.802 1.802 0 0 0-3.603 0v12.612h-3.604v-9.008a1.802 1.802 0 0 0-3.603 0v9.008H21.99V19.82a1.802 1.802 0 0 0-3.603 0v5.405h-1.802a1.802 1.802 0 0 0 0 3.604zm12.732 10.81H3.853V3.603h54.292zm-21.74 10.81H25.593v-7.206h10.81zM2.05 0C1.056 0 .25.807.25 1.802V41.44c0 .995.806 1.802 1.801 1.802h19.94v7.206h-5.406a1.802 1.802 0 0 0 0 3.604h28.828a1.802 1.802 0 0 0 0-3.604h-5.405v-7.206h19.939c.995 0 1.802-.807 1.802-1.802V1.802C61.749.807 60.942 0 59.947 0z"/></g></g></g></g></svg>