<?xml version="1.0" encoding="UTF-8" standalone="no"?>
<!-- Generator: Adobe Illustrator 16.0.0, SVG Export Plug-In . SVG Version: 6.00 Build 0)  -->

<svg
   xmlns:dc="http://purl.org/dc/elements/1.1/"
   xmlns:cc="http://creativecommons.org/ns#"
   xmlns:rdf="http://www.w3.org/1999/02/22-rdf-syntax-ns#"
   xmlns:svg="http://www.w3.org/2000/svg"
   xmlns="http://www.w3.org/2000/svg"
   xmlns:sodipodi="http://sodipodi.sourceforge.net/DTD/sodipodi-0.dtd"
   xmlns:inkscape="http://www.inkscape.org/namespaces/inkscape"
   version="1.1"
   id="Layer_1"
   x="0px"
   y="0px"
   width="1000.945px"
   height="279.73px"
   viewBox="-0.422 23.458 1000.945 279.73"
   enable-background="new -0.422 23.458 1000.945 279.73"
   xml:space="preserve"
   inkscape:version="0.91 r13725"
   sodipodi:docname="DirecTV_2016.svg"><metadata
     id="metadata27"><rdf:RDF><cc:Work
         rdf:about=""><dc:format>image/svg+xml</dc:format><dc:type
           rdf:resource="http://purl.org/dc/dcmitype/StillImage" /></cc:Work></rdf:RDF></metadata><defs
     id="defs25" /><sodipodi:namedview
     pagecolor="#ffffff"
     bordercolor="#666666"
     borderopacity="1"
     objecttolerance="10"
     gridtolerance="10"
     guidetolerance="10"
     inkscape:pageopacity="0"
     inkscape:pageshadow="2"
     inkscape:window-width="1366"
     inkscape:window-height="709"
     id="namedview23"
     showgrid="false"
     inkscape:zoom="1.0059694"
     inkscape:cx="476.18767"
     inkscape:cy="148.2711"
     inkscape:window-x="-8"
     inkscape:window-y="-8"
     inkscape:window-maximized="1"
     inkscape:current-layer="Layer_1" /><g
     id="g3"><path
       fill="#00A8E0"
       d="M53.694,273.781c23.722,18.362,53.495,29.395,85.798,29.395c35.351,0,67.577-13.124,92.172-34.668   c0.299-0.264,0.151-0.438-0.143-0.264c-11.036,7.371-42.493,23.461-92.028,23.461c-43.048,0-70.253-9.605-85.616-18.18   C53.583,273.379,53.473,273.6,53.694,273.781 M148.989,280.93c34.431,0,72.267-9.386,94.895-27.965   c6.192-5.063,12.091-11.8,17.374-20.854c3.041-5.21,6.016-11.399,8.438-17.483c0.107-0.297-0.076-0.441-0.3-0.107   c-21.042,30.967-81.979,50.282-144.897,50.282c-44.475,0-92.328-14.223-111.063-41.378c-0.186-0.251-0.369-0.144-0.257,0.145   C30.631,260.665,83.58,280.93,148.989,280.93 M111.37,219.391c-71.609,0-105.375-33.352-111.5-56.112   c-0.075-0.33-0.292-0.257-0.292,0.039c0,7.662,0.767,17.55,2.087,24.113c0.629,3.194,3.229,8.208,7.041,12.204   c17.34,18.074,60.57,43.4,135.439,43.4c102.006,0,125.329-33.979,130.092-45.153c3.405-7.991,5.17-22.433,5.17-34.564   c0-2.936-0.073-5.28-0.185-7.583c0-0.374-0.217-0.404-0.291-0.04C273.834,183.038,186.682,219.391,111.37,219.391 M13.067,103.319   c-4.104,8.143-8.652,21.881-10.004,28.992c-0.594,3.046-0.341,4.509,0.729,6.783c8.582,18.21,51.996,47.347,153.264,47.347   c61.78,0,109.773-15.178,117.549-42.875c1.432-5.099,1.508-10.482-0.331-17.736c-2.055-8.106-5.904-17.558-9.161-24.196   c-0.107-0.216-0.297-0.184-0.259,0.072c1.21,36.328-100.097,59.741-151.213,59.741c-55.367,0-101.559-22.06-101.559-49.914   c0-2.676,0.554-5.354,1.245-8.139C13.396,103.138,13.178,103.095,13.067,103.319 M231.89,58.716   c0.589,0.921,0.882,1.904,0.882,3.228c0,15.54-47.56,43.03-123.268,43.03c-55.628,0-66.043-20.636-66.043-33.76   c0-4.691,1.799-9.491,5.762-14.366c0.217-0.29,0.033-0.401-0.217-0.186c-7.227,6.124-13.867,13.015-19.691,20.454   c-2.783,3.518-4.511,6.634-4.511,8.502c0,27.196,68.194,46.916,131.958,46.916c67.941,0,98.265-22.179,98.265-41.671   c0-6.966-2.712-11.032-9.648-18.917c-4.503-5.128-8.762-9.305-13.271-13.415C231.89,58.35,231.739,58.496,231.89,58.716    M211.061,43.179c-20.969-12.568-45.317-19.719-71.568-19.719c-26.434,0-51.517,7.4-72.561,20.301   c-6.313,3.885-9.865,6.998-9.865,11c0,11.797,27.57,24.48,76.482,24.48c48.404,0,85.947-13.893,85.947-27.267   C219.497,48.784,216.708,46.551,211.061,43.179"
       id="path7" /><path
       d="M361.444,123.1H379.7c8.341,0,13.9,2.616,18.086,7.657c4.512,5.584,5.206,13.396,5.206,32.176   c0,18.764-0.694,27.633-5.206,33.201c-4.186,5.036-9.745,7.656-18.086,7.656h-18.256V123.1z M337.273,101.565v123.793h44.691   c12.852,0,24.504-3.663,32.683-11.853c13.896-13.89,12.517-31.97,12.517-50.572c0-18.593,1.379-35.652-12.517-49.551   c-8.179-8.174-19.831-11.817-32.683-11.817H337.273z"
       id="path9" /><rect
       x="449.514"
       y="101.62"
       width="24.142"
       height="123.738"
       id="rect11" /><path
       d="M522.171,123.161h22.758c10.604,0,17.563,6.787,17.563,16.334c0,9.553-6.958,16.344-17.563,16.344h-22.758V123.161z    M498.03,101.62v123.738h24.142v-49.371h17.386l24.146,49.371h27.971l-27.622-53.364c11.986-4.337,22.581-15.107,22.581-32.498   c0-20.676-14.931-37.875-40.113-37.875H498.03z"
       id="path13" /><polygon
       points="607.258,101.62 607.258,225.358 688.738,225.358 688.738,203.79 631.401,203.79 631.401,173.733 680.237,173.733    680.237,152.193 631.401,152.193 631.401,123.161 688.738,123.161 688.738,101.62  "
       id="polygon15" /><path
       d="M714.439,114.156c-5.397,5.362-8.691,11.454-10.081,18.572c-1.389,6.942-2.082,17.185-2.082,30.752   c0,13.563,0.693,23.805,2.082,30.762c1.39,6.942,4.684,13.2,10.081,18.594c9.03,9.035,20.152,13.547,33.353,13.547   c23.64,0,41.367-13.899,45.542-39.098H768.81c-2.606,10.6-9.186,17.547-20.837,17.547c-6.6,0-11.822-2.093-15.469-6.419   c-5.021-5.393-6.072-10.941-6.072-34.933c0-23.985,1.052-29.534,6.072-34.927c3.646-4.356,8.869-6.429,15.469-6.429   c11.651,0,18.23,6.952,20.837,17.546h24.523c-4.175-25.188-21.732-39.087-45.542-39.087   C734.591,100.584,723.469,105.091,714.439,114.156"
       id="path17" /><polygon
       points="799.918,101.62 799.918,123.161 832.245,123.161 832.245,225.358 856.392,225.358 856.392,123.161    888.713,123.161 888.713,101.62  "
       id="polygon19" /><polygon
       points="975.34,101.62 950.479,182.24 925.618,101.62 900.621,101.62 941.444,225.358 959.524,225.358 1000.523,101.62     "
       id="polygon21" /></g></svg>