<?xml version="1.0" encoding="utf-8"?>
<!-- Generator: Adobe Illustrator 25.1.0, SVG Export Plug-In . SVG Version: 6.00 Build 0)  -->
<svg version="1.1" id="Layer_1" xmlns="http://www.w3.org/2000/svg" xmlns:xlink="http://www.w3.org/1999/xlink" x="0px" y="0px"
	 viewBox="0 0 786 338" style="enable-background:new 0 0 786 338;" xml:space="preserve">
<style type="text/css">
	.st0{fill:#ED1944;}
	.st1{fill-rule:evenodd;clip-rule:evenodd;fill:#ED1944;}
</style>
<g>
	<path class="st0" d="M382.7,168.8c0,37.3,27.3,55.8,57.8,73l27.2,15.4c14.8,8.3,21.4,17.8,21.4,30.5c0,16.9-12.5,27.4-32.6,27.4
		c-37.1,0-48.2-30.8-54.2-60.9l-0.9-4.7h-18.1v84.8h14.1l1.7-2c3.3-3.7,3.3-3.7,6.4-3.7c5.4-0.2,12.5,1.5,20.6,3.4
		c10.2,2.4,21.7,5.1,33.8,5.1c30.7,0,73.8-20.6,73.8-66.3c0-31.9-19.1-46.2-42.2-60.3c0,0-50.7-30-50.7-30
		c-11.6-6.9-17.3-16.2-17.3-28.3c0-9.9,7.9-24.6,29.8-24.6c16.2,0,36.2,6,46.3,53l1,4.6h17.8l-2.2-75.9h-14.2l-1.7,2.9
		c-0.8,1.4-2,2.2-3.4,2.2c-0.7,0-4.7-1.3-7.1-2.1c-9.1-2.9-22.7-7.3-36.4-7.3C412.4,105.3,382.7,132,382.7,168.8"/>
	<path class="st0" d="M53.5,211.5c0-60,28.2-81.3,52.3-81.3c26.5,0,42.4,22.3,42.4,43.8c0,0,0,103.6,0,104.1
		c-3.2,13.4-18.3,23.2-35.9,23.2C85.2,301.2,53.5,277.7,53.5,211.5 M190.6,0.6l-1.5,0.6v0c-8.4,3-41.6,13.9-68.3,20.5l-4.5,1.1v18.6
		l6.4-0.7c15-1.5,20.7,0.4,22.8,2.3c2.5,2.2,2.6,6.7,2.6,13.9c0,0,0,56.9,0,62.5c-13.7-9.7-27-14-43.8-14
		c-26.7,0-53.2,13.4-72.7,36.7C12.6,165,1.6,195.8,1.6,226.5c0,107.7,81.8,110.8,91.1,110.8c22.8,0,41.4-7.1,55.5-20.9
		c0,4.9,0,16.6,0,16.6l6.7,5l75.7-26.8v-18l-6.3,0.5c-14.7,1.1-20.4-1-22.5-3c-2.2-2-2.6-5.6-2.6-11.8V3.7l-8.1-3.2L190.6,0.6z"/>
	<path class="st0" d="M756.2,314c-20.6-3.6-23.3-4.1-23.3-34.1v-94.2c0-53.3-21.4-80.4-63.5-80.4c-23.8,0-45.5,10.1-63,29.1
		c0-7.5,0-129.7,0-129.7l-7.7-4.6L598,0.5l-2,0.8c-9.9,4.1-48.3,15.5-65.9,20.4l-4.3,1.2v18.5l6.5-0.7c3.9-0.4,6.9-0.4,11.1-0.4
		c4.3,0,7.4,0.9,9.2,2.7c2.9,3,2.9,8.9,2.8,13.7c0,0,0,2.1,0,2.1v220.3c0,29.9-1.9,32.5-24.7,35l-5.3,0.6v18.1H634V314l-0.9-0.1
		c-21-2.2-26.6-2.8-26.6-34.5c0,0,0-109.9,0-111c2.6-3.3,21.9-26,45.7-26c20.6,0,29.8,14,29.8,45.2v92.3c0,29.1-5,32.4-26.5,34
		l-0.4,0v18.7h106.1v-17.8L756.2,314"/>
	<path class="st1" d="M306,328.3c35.8,0,54-20.7,66.7-45.3c0.8-1.6,0.2-2.7-1.4-2c-9.5,4.4-34.5,16-65.3,16
		c-30.8,0-55.7-11.6-65.3-16c-1.6-0.7-2.3,0.4-1.4,2C252.1,307.5,270.2,328.3,306,328.3"/>
	<path class="st1" d="M253.7,223.6c9.9,19.1,24.1,35.9,52.4,35.9c28.3,0,42.5-16.7,52.4-35.9c0.7-1.3,0.1-2.3-1.2-1.7
		c-6.3,2.9-26,11.7-51.1,11.7c-25.1,0-44.8-8.8-51.1-11.7C253.5,221.3,253,222.3,253.7,223.6"/>
	<path class="st1" d="M266.8,169.1c7.3,14.2,17.9,27.2,39.3,27.2c21.4,0,32-13,39.3-27.2c0.5-1,0.1-1.8-1.1-1.3
		c-3.4,1.5-18.3,7.7-38.2,7.7c-19.9,0-34.8-6.2-38.2-7.7C266.7,167.3,266.3,168.1,266.8,169.1"/>
	<path class="st1" d="M306,137c14.9,0,22.2-9.6,26.9-19.1c0.4-0.7,0-1.4-0.9-1c-0.6,0.2-11,4.1-26,4.1c-15,0-25.4-3.8-26-4.1
		c-0.9-0.4-1.3,0.3-0.9,1C283.9,127.5,291.1,137,306,137"/>
	<path class="st0" d="M265.2,40.8C265.2,18.3,283.5,0,306,0c22.5,0,40.8,18.3,40.8,40.8c0,22.5-18.3,40.8-40.8,40.8
		C283.5,81.6,265.2,63.4,265.2,40.8"/>
	<g>
		<path class="st0" d="M777.1,324.4l2.9,4.4h-1.7l-2.7-4.3h-1.8v4.3h-1.5v-10h3.8c2.4,0,3.5,0.9,3.5,2.8
			C779.7,323.4,778.5,324.2,777.1,324.4z M775.6,323.1c1.3,0,2.4-0.1,2.4-1.6c0-1.3-1.1-1.5-2.2-1.5h-2.1v3.1H775.6z"/>
		<path class="st0" d="M784.4,323.7c0,5-4,8.7-8.8,8.7c-4.8,0-8.8-3.7-8.8-8.7c0-5,4-8.7,8.8-8.7
			C780.4,315.1,784.4,318.7,784.4,323.7z M782.7,323.7c0-4.1-3.1-7.2-7-7.2c-4,0-7.1,3.1-7.1,7.2c0,4.2,3.1,7.3,7.1,7.3
			C779.6,331,782.7,327.9,782.7,323.7z"/>
	</g>
</g>
</svg>
