<svg xmlns="http://www.w3.org/2000/svg" width="170" height="92" viewBox="0 0 170 92"><g><g><g><path fill="#284782" d="M124.19 64.733c-1.526 0-2.777.056-4.02-.02-.81-.049-1.068.272-1.181 1.012-.622 4.067-1.28 8.128-1.926 12.19-.629 3.96-1.262 7.92-1.88 11.883-.102.654-.396.967-1.093.955a135.06 135.06 0 0 0-4.885 0c-.741.014-.99-.251-.869-.995.557-3.412 1.08-6.83 1.623-10.244 1.21-7.613 2.427-15.225 3.637-22.838.44-2.766.889-5.531 1.292-8.303.139-.959.544-1.355 1.564-1.292 1.45.09 2.91.068 4.363.008.957-.04 1.13.401.995 1.205-.531 3.136-1.049 6.273-1.576 9.41-.228 1.357-.233 1.366 1.131 1.3 3.805-.184 7.61-.326 11.403.19 4.07.553 5.814 2.505 5.957 6.615.124 3.594-.627 7.09-1.163 10.608-.64 4.202-1.347 8.395-2.003 12.595-.27 1.725-.248 1.732-1.994 1.732-1.317 0-2.636-.051-3.95.018-.943.05-1.158-.365-1.027-1.18.444-2.765.897-5.529 1.32-8.297.6-3.93 1.361-7.836 1.717-11.802.076-.84-.02-1.667-.21-2.473-.27-1.161-1.06-1.813-2.22-2.058-1.75-.369-3.523-.146-5.005-.219z"/></g><g><path fill="#284782" d="M65.871 85.193c1.457 0 2.67-.021 3.882.008.615.015.92-.138 1.027-.828 1.225-7.963 2.493-15.92 3.727-23.88.138-.885.44-1.365 1.453-1.313 1.486.077 2.982.077 4.468 0 .994-.052 1.194.35 1.052 1.22-.578 3.55-1.129 7.104-1.696 10.655-.949 5.94-1.914 11.88-2.842 17.823-.118.752-.372 1.15-1.188 1.282-6.113.993-12.253 1.291-18.41.606-5.096-.567-6.387-3.13-6.29-7.908.077-3.745.903-7.412 1.45-11.106.563-3.796 1.224-7.577 1.797-11.372.126-.84.445-1.22 1.33-1.193 1.557.047 3.118.032 4.677.005.761-.013 1.079.23.944 1.044a4013.14 4013.14 0 0 0-2.76 16.89c-.26 1.611-.374 3.235-.284 4.866.1 1.805 1.024 2.75 2.824 3.018 1.69.252 3.388.152 4.84.183z"/></g><g><path fill="#284782" d="M88.644 85.367c2.21-.058 4.738.11 7.261-.158 1.906-.203 2.62-.81 3.016-2.67.289-1.357-.034-2.131-1.26-2.87-1.46-.882-3.1-1.355-4.658-2.013-1.4-.591-2.83-1.116-4.234-1.7-2.989-1.243-4.525-3.774-4.23-7.01.092-.996.262-1.988.452-2.97.75-3.892 3.416-5.77 7.046-6.538 3.936-.833 7.914-.652 11.888-.335 1 .08 1.994.215 2.988.35.726.1 1.116.411.896 1.267-.206.798-.284 1.634-.367 2.459-.1 1-.542 1.409-1.614 1.388-3.359-.064-6.72-.019-10.08-.028a7.675 7.675 0 0 0-1.748.193c-1.53.351-2.32 1.174-2.524 2.643-.24 1.73.138 2.71 1.692 3.396 2.464 1.088 5 2.012 7.508 3 .903.356 1.79.739 2.61 1.267 1.895 1.22 2.713 3.012 2.654 5.198a18.671 18.671 0 0 1-.58 4.102c-1.015 3.981-3.84 5.804-7.68 6.402-4.312.67-8.633.301-12.951.107-1.07-.049-2.135-.204-3.205-.265-.662-.037-.94-.281-.82-.973.198-1.123.342-2.256.518-3.383.105-.675.533-.876 1.183-.868 1.974.025 3.948.01 6.239.01z"/></g><g><path fill="#284782" d="M47.167 64.75c-1.275.031-2.694-.062-4.106.184-1.628.283-2.464 1.017-2.733 2.666-.92 5.628-1.808 11.26-2.706 16.892-.283 1.774-.572 3.548-.836 5.326-.1.665-.425.948-1.111.935a93.128 93.128 0 0 0-4.676.005c-.874.028-1.187-.243-1.038-1.147.53-3.205 1.003-6.42 1.512-9.628.728-4.573 1.43-9.151 2.214-13.715.757-4.41 2.734-6.447 7.135-7.158 3.369-.545 6.758-.29 10.124.257.899.146 1.256.543 1.051 1.482-.213.977-.315 1.978-.467 2.968-.097.63-.39.978-1.104.946-1.037-.048-2.078-.012-3.258-.012z"/></g><g><path fill="#284782" d="M9.428 51.054c11.119 0 22.238.093 33.356-.03 8.486-.095 16.973-.035 25.457-.196 8.59-.163 17.18-.055 25.769-.21 5.575-.102 11.15-.09 16.726-.166.907-.012 1.239.17 1.016 1.173-.419 1.885-.362 1.915-2.273 1.894-7.723-.085-15.447-.12-23.168-.297-4.71-.108-9.419-.103-14.128-.179-9.868-.158-19.737-.231-29.604-.445-4.64-.1-9.28-.098-13.92-.179-9.071-.157-18.143-.282-27.214-.42-.139-.002-.279.01-.416-.005-.256-.027-.623.06-.585-.375.028-.328.322-.301.565-.302h8.419z"/></g><g><path fill="#284782" d="M163.2 56.301c.007-.034.019-.068.02-.102.071-1.783.07-1.77-1.782-1.811-7.68-.169-15.36-.34-23.04-.522-4.6-.11-9.2-.253-13.8-.35-.83-.018-1.096-.23-.892-1.117.524-2.279.055-1.895 2.306-1.93 9.759-.157 19.517-.302 29.276-.458 2.629-.043 5.258-.136 7.887-.154.741-.005 1.175-.134 1.199-.994.012-.443-.027-1.046.528-1.254.58-.218.854.325 1.193.643 1.136 1.065 2.251 2.153 3.395 3.21.509.472.617.923.031 1.375-1.727 1.332-3.466 2.648-5.201 3.969-.226.172-.465.323-.76.18-.284-.136-.381-.382-.36-.685z"/></g><g><path fill="#284782" d="M147.571 17.834c-1.282.002-2.565.037-3.845-.012-.65-.025-.913.191-1.012.835-1.24 8.028-2.507 16.052-3.75 24.08-.12.77-.396 1.16-1.266 1.11-1.277-.071-2.562-.017-3.844-.018-1.36-.001-1.337.002-1.122-1.318.543-3.344 1.06-6.693 1.594-10.039.955-5.973 1.933-11.943 2.849-17.922.113-.741.447-1.017 1.09-1.12 5.147-.83 10.329-.966 15.525-.755 1.172.048 2.357.138 3.505.365 3.606.714 5.069 2.605 5.12 6.556.039 3.06-.552 6.057-1.013 9.063-.724 4.715-1.508 9.42-2.223 14.137-.118.777-.411 1.072-1.198 1.046a81.872 81.872 0 0 0-4.364-.004c-.664.014-.82-.206-.712-.86.93-5.628 1.837-11.259 2.733-16.89.24-1.506.375-3.023.306-4.553-.099-2.191-1.114-3.266-3.29-3.532-1.691-.207-3.387-.15-5.083-.169zm.577.755c1.33.035 2.889-.062 4.442.169 1.83.272 2.516 1.004 2.602 2.875.092 1.987-.216 3.937-.53 5.885-.842 5.224-1.706 10.444-2.548 15.668-.159.985.22 1.385 1.27 1.392 1.559.012 3.118.007 4.678.003 1.307-.004 1.642-.309 1.841-1.577.737-4.68 1.505-9.355 2.215-14.038.476-3.145 1.095-6.278 1.037-9.48-.08-4.526-2.01-6.684-6.43-7.306-2.758-.388-5.528-.352-8.296-.314-3.359.047-6.711.22-10.033.777-1.563.263-1.725.407-1.965 1.906-1.154 7.204-2.307 14.409-3.459 21.614-.349 2.185-.695 4.37-1.04 6.557-.245 1.561.006 1.86 1.558 1.861 1.455.002 2.911.002 4.367.002 1.251-.001 1.604-.261 1.802-1.497.66-4.133 1.294-8.27 1.94-12.404.576-3.69 1.172-7.377 1.723-11.071.12-.8.438-1.103 1.274-1.042 1.103.08 2.216.02 3.552.02z"/></g><g><path fill="#284782" d="M78.03 12.956h1.455c1.729 0 1.697.003 1.867 1.686.667 6.609 1.357 13.215 2.037 19.822.096.93.155 1.864.292 2.787.107.719.238 1.515 1.132 1.673.97.171 1.9.038 2.44-.93.353-.632.65-1.299.925-1.97 3.005-7.324 6.017-14.645 8.98-21.987.34-.845.759-1.16 1.668-1.103 1.346.084 2.703.065 4.051.007.924-.04 1.048.21.691 1.044-2.327 5.435-4.611 10.888-6.914 16.333-1.28 3.025-2.565 6.048-3.857 9.068-.217.509-.496.99-.716 1.498-1.141 2.628-3.394 3.25-5.955 3.3-1.59.03-3.18.065-4.77-.135-1.948-.246-2.75-.91-3.178-2.84-.444-1.997-.586-4.037-.827-6.062-.685-5.77-1.344-11.543-2.014-17.315-.155-1.34-.301-2.681-.471-4.02-.078-.612.105-.9.774-.866.794.042 1.593.01 2.39.01zm.024-.752c-.866 0-1.732-.007-2.598.001-1.12.011-1.444.328-1.345 1.437.124 1.378.313 2.75.472 4.123.598 5.153 1.182 10.308 1.798 15.459.32 2.677.505 5.374 1.035 8.022.481 2.406 1.59 3.332 4.026 3.565 1.52.145 3.04.091 4.56.128 3.564.088 5.949-1.443 7.318-4.793 2.433-5.952 5.004-11.847 7.512-17.768 1.2-2.832 2.402-5.664 3.572-8.509.516-1.252.224-1.66-1.098-1.664-1.559-.006-3.124.081-4.675-.029-1.19-.084-1.704.415-2.127 1.462-3 7.437-6.055 14.851-9.101 22.27a17.533 17.533 0 0 1-.81 1.678c-.304.563-.837.69-1.427.613-.644-.084-.69-.627-.741-1.094-.432-3.99-.845-7.98-1.261-11.97-.42-4.026-.836-8.051-1.252-12.077-.06-.573-.346-.867-.948-.857-.97.016-1.94.004-2.91.003z"/></g><g><path fill="#284782" d="M111.09 30.66c-.73-.008-1.03.166-1.077.963-.058.966-.176 1.93-.146 2.9.078 2.564 1.373 3.962 3.924 4.232 3.664.388 7.34.123 11.01.188 1.735.031 1.737.006 1.493 1.687-.05.342-.106.683-.165 1.024-.312 1.796-.304 1.885-2.016 2.056-4.757.475-9.522.825-14.29.11-4.14-.62-6.196-2.891-6.273-7.072-.1-5.513.812-10.885 2.465-16.134 1.42-4.51 4.414-7.137 9.176-7.699 3.63-.428 7.252-.567 10.841.247 3.366.763 5.002 2.738 5.224 6.202.22 3.447-.273 6.84-.858 10.222-.17.985-.935 1.086-1.738 1.086-2.945.003-5.891.001-8.837.001-2.911.001-5.823.021-8.734-.012zm9.155.753c2.702 0 5.405 0 8.108-.003.345 0 .692-.02 1.036-.048 1.002-.08 1.582-.642 1.747-1.616.572-3.382 1.055-6.772.89-10.22-.191-3.967-2.075-6.289-5.98-7.134-3.659-.792-7.356-.664-11.052-.207-4.48.554-7.71 2.804-9.282 7.09-2.13 5.81-3.11 11.849-2.875 18.027.155 4.067 2.163 6.317 6.155 7.091 5.47 1.062 10.961.518 16.436-.098.564-.063 1.075-.362 1.19-1.003.225-1.259.445-2.52.618-3.786.126-.922-.328-1.324-1.263-1.317-3.153.021-6.307.024-9.46-.003a21.623 21.623 0 0 1-2.895-.219c-1.86-.268-2.785-1.212-2.96-3.057-.08-.856.009-1.728.03-2.593.016-.67.314-.932 1.033-.922 2.84.042 5.682.018 8.524.017z"/></g><g><path fill="#284782" d="M18.34 30.673c-2.806.001-5.613.06-8.416-.029-1.081-.034-1.486.34-1.49 1.347-.003 1.072-.118 2.153-.02 3.215.195 2.135 1.543 3.301 3.909 3.556 3.42.368 6.85.128 10.276.18 2.454.037 2.435.004 2.052 2.429-.398 2.519-.08 2.13-2.605 2.397-3.99.424-8 .636-12.018.277-1.038-.093-2.064-.24-3.063-.515-3.005-.826-4.688-2.698-4.857-5.858-.335-6.254.663-12.343 2.834-18.212 1.449-3.915 4.42-5.958 8.505-6.514 3.381-.46 6.757-.516 10.132.011 4.123.643 6.053 2.834 6.208 7.003.119 3.203-.39 6.345-.88 9.49-.16 1.023-.861 1.226-1.736 1.225-2.944-.005-5.888-.002-8.832-.002zm.374.74c2.841-.001 5.683.013 8.524-.007 1.597-.011 2.14-.417 2.393-1.865.546-3.138.996-6.288.912-9.49-.117-4.486-2.2-7.057-6.518-7.794-3.398-.58-6.817-.487-10.244-.124-5.307.563-8.608 3.486-10.113 8.493C2.036 26.056 1.077 31.6 1.31 37.298c.158 3.871 2.157 6.306 5.948 7.061 5.54 1.104 11.099.553 16.643-.06.706-.078 1.158-.533 1.264-1.309.154-1.13.385-2.25.558-3.377.147-.966-.245-1.407-1.267-1.412-2.391-.012-4.782.002-7.173-.007-1.66-.006-3.321.05-4.978-.185-2.146-.304-3.144-1.362-3.18-3.504-.012-.658.03-1.317.01-1.975-.023-.815.274-1.153 1.158-1.137 2.805.052 5.613.02 8.42.02z"/></g><g><path fill="#284782" d="M60.43 30.673c-2.911.002-5.822.027-8.731-.015-.805-.012-1.127.243-1.123 1.05.005.899-.14 1.798-.122 2.695.056 2.755 1.347 4.087 4.105 4.373 3.215.334 6.438.1 9.657.17.658.015 1.32.049 1.974-.008.802-.07.944.302.822.982-.165.919-.302 1.842-.44 2.765-.075.506-.333.84-.85.898-5.237.596-10.488 1.057-15.724.16-3.962-.68-5.83-2.91-5.888-7.086a48.44 48.44 0 0 1 2.72-16.708c1.448-4.152 4.429-6.465 8.811-7.013 3.699-.461 7.388-.593 11.043.242 3.295.753 4.91 2.768 5.129 6.16.222 3.449-.248 6.836-.843 10.216-.177 1.005-.903 1.116-1.706 1.117-2.945.005-5.89.002-8.835.002zm.437.74h4.782c1.316-.002 2.634.03 3.95-.015 1.298-.045 1.903-.51 2.096-1.596.614-3.446 1.072-6.906.876-10.423-.215-3.834-2.063-6.134-5.788-6.958-3.622-.8-7.282-.672-10.948-.274-5.052.549-8.347 3.237-9.907 8.04-1.722 5.302-2.62 10.756-2.581 16.327.033 4.638 2.01 7.121 6.458 7.936 5.399.988 10.829.485 16.234-.167.631-.077 1.086-.46 1.194-1.131.199-1.229.403-2.457.562-3.691.11-.863-.289-1.28-1.19-1.271-2.253.022-4.505.02-6.758.002-1.798-.013-3.6.083-5.394-.18-2.172-.317-3.118-1.267-3.253-3.462-.042-.686.084-1.381.07-2.07-.019-.845.328-1.103 1.177-1.087 2.806.052 5.613.02 8.42.02z"/></g><g><path fill="#284782" d="M34.055 43.83H32.29c-1.26-.004-1.283-.015-1.079-1.292 1.561-9.758 3.133-19.514 4.693-29.273.589-3.685 1.162-7.372 1.731-11.06.225-1.457.21-1.46 1.674-1.463 1.213-.002 2.426.039 3.636-.013.832-.036 1.11.243.973 1.079-.803 4.91-1.58 9.825-2.365 14.74l-3.645 22.826c-.19 1.194-.433 2.382-.57 3.583-.084.73-.438.918-1.1.881-.725-.04-1.454-.009-2.182-.009zm-.047.759c.867 0 1.733-.014 2.6.004.826.016 1.295-.36 1.425-1.18.762-4.815 1.527-9.63 2.295-14.444 1.077-6.76 2.158-13.521 3.237-20.282.37-2.322.763-4.64 1.105-6.967C44.87.352 44.558.015 43.2.006c-1.559-.01-3.118-.006-4.678 0-.84.004-1.34.36-1.48 1.257-.738 4.75-1.506 9.494-2.265 14.24-1.146 7.17-2.297 14.338-3.438 21.509-.331 2.082-.65 4.167-.948 6.254-.129.903.254 1.374 1.226 1.324.795-.041 1.593-.009 2.39-.009z"/></g><g><path fill="#284782" d="M112.515 25.73c-.653.012-.844-.16-.693-.835.227-1.015.496-2.013.884-2.977.755-1.878 2.172-2.873 4.161-3.142 1.765-.24 3.514-.284 5.25.182 1.257.338 1.91 1.199 2.076 2.442.157 1.173.05 2.35-.037 3.525-.044.595-.319.82-.938.807-1.8-.037-3.602-.013-5.403-.013-1.767 0-3.534-.02-5.3.01zm11.38.74c.4 0 .79.098.88-.556.205-1.515.321-3.031.168-4.548-.16-1.59-.987-2.71-2.586-3.13-2.079-.546-4.173-.482-6.265-.077-1.959.38-3.263 1.555-4.045 3.359-.567 1.307-.847 2.694-1.145 4.077-.138.644.004.914.751.895 2.04-.052 4.08-.018 6.121-.018 2.04 0 4.081.002 6.122-.002z"/></g><g><path fill="#284782" d="M16.251 25.72c-1.733 0-3.466-.015-5.198.007-.64.008-.919-.066-.76-.866.99-4.959 2.919-6.495 7.986-6.252 3.616.174 4.496 1.102 4.456 4.697-.026 2.414-.026 2.414-2.43 2.414zm-.11.752c2.078 0 4.156-.004 6.233.003.439.002.82.007.892-.585.176-1.446.316-2.895.196-4.348-.156-1.886-1.17-3.045-3.06-3.428-1.952-.395-3.917-.35-5.873.05-1.962.402-3.255 1.591-4.026 3.395-.573 1.344-.849 2.768-1.144 4.191-.138.669.093.738.654.732 2.043-.025 4.086-.01 6.129-.01z"/></g><g><path fill="#284782" d="M58.343 25.72c-1.766 0-3.533-.024-5.299.011-.633.013-.807-.219-.659-.791.035-.134.057-.271.082-.407 1.05-5.685 4.415-6.731 10.48-5.482 1.03.212 1.55 1.076 1.787 2.098.306 1.316.06 2.618-.025 3.926-.042.645-.484.649-.962.647-1.801-.007-3.602-.003-5.404-.003zm-.03.752c2.074 0 4.148-.012 6.222.008.489.005.738-.093.81-.65.158-1.234.344-2.47.271-3.712-.14-2.4-1.07-3.593-3.146-4.011-1.916-.387-3.846-.34-5.764.042-1.99.396-3.325 1.565-4.107 3.425-.54 1.282-.791 2.637-1.12 3.976-.191.774.09.95.82.935 2.003-.038 4.009-.013 6.014-.013z"/></g></g></g></svg>