<svg xmlns="http://www.w3.org/2000/svg" width="662" height="360" viewBox="0 0 662 360"><g><g><g><g><path fill="#dde8fd" d="M14.356 319.022c.116 1.824.318 3.696.607 5.62.07.475.147.95.229 1.43a80.231 80.231 0 0 0 1.959 8.578 99.05 99.05 0 0 0 2.291 7.033c1.952 5.328 4.51 11.02 7.765 17.14l105.425-.03h.19l489.098-.147s.598-.643 1.64-1.87c2.98-3.496 9.597-11.763 16.495-23.629a174.548 174.548 0 0 0 8.538-16.66 158.106 158.106 0 0 0 2.603-6.165 153.162 153.162 0 0 0 2.432-6.51c.73-2.08 1.421-4.209 2.073-6.379 2.76-9.18 4.796-19.135 5.575-29.677.876-11.875.157-24.5-2.92-37.605-3.732-15.904-10.942-32.518-22.987-49.366-58.636-82.035-127.004-76.428-177.162-43.138-21.362 14.178-82.955 1.747-135.383-81.728C303.266 24.776 270.51 7.32 234.167 1.98a151.5 151.5 0 0 0-3.705-.5C152.887-8.109 60.637 36.566 45.414 120.505c-3.591 19.801-2.895 41.786 3.29 65.759 6.547 25.386 3.205 43.446-3.484 58.564-6.643 15.016-16.582 27.136-23.404 40.654-1.699 3.367-3.205 6.816-4.417 10.423-2.349 6.97-3.601 14.518-3.043 23.116z"/></g><g><path fill="#bed2fa" d="M14.356 319.022c.116 1.824.318 3.696.607 5.62.07.475.147.95.229 1.43a80.238 80.238 0 0 0 1.959 8.578 99.05 99.05 0 0 0 2.291 7.033c1.952 5.328 4.51 11.02 7.765 17.14l105.425-.03h.19l25.522-.108 114.165-.467 3.475-.016 8.035-.031 104.442-.431 235.1-.963c2.978-3.497 9.596-11.764 16.494-23.63a174.551 174.551 0 0 0 8.538-16.66 157.956 157.956 0 0 0 2.603-6.165 152.973 152.973 0 0 0 2.432-6.511c.73-2.08 1.421-4.208 2.073-6.378 2.76-9.18 4.796-19.134 5.575-29.676.876-11.876.157-24.5-2.92-37.606-11.616 2.019-24.448 4.938-37.86 8.412a892.1 892.1 0 0 0-23.008 6.31c-55.507 15.963-114.561 37.684-136.265 42.827-37.311 8.84-164.838 17.682-203.566 31.573-38.73 13.892-79.82 9.472-100.602 5.05-12.711-2.703-44.13-5.174-71.602-10.296-12.597-2.346-24.364-5.253-33.116-8.993-3.31-1.416-6.187-2.95-8.516-4.62a3.646 3.646 0 0 1-.12-.084c-3.652-2.645-7.819-5.522-12.223-8.479a767.227 767.227 0 0 0-9.662-6.368c-1.699 3.367-3.205 6.816-4.417 10.422-2.349 6.97-3.601 14.519-3.043 23.117z"/></g><g><path fill="#fff" d="M14.356 319.022c.116 1.824.319 3.696.607 5.62.07.475.147.95.229 1.43a80.34 80.34 0 0 0 1.959 8.578 99.146 99.146 0 0 0 2.291 7.034c1.952 5.327 4.51 11.019 7.765 17.139l105.425-.03h.19l25.523-.108 114.164-.467 3.475-.015 8.036-.032 104.441-.43 235.1-.964c2.978-3.497 9.596-11.764 16.494-23.63a174.621 174.621 0 0 0 8.538-16.66 157.921 157.921 0 0 0 2.603-6.165 152.766 152.766 0 0 0 2.432-6.51c.73-2.08 1.421-4.208 2.073-6.379 2.76-9.18 4.796-19.134 5.575-29.677a4807.184 4807.184 0 0 0-41.1 5.082c-53.617 6.869-128.193 17.306-212.744 31.554-159.453 26.872-246.708 45.093-333.203 14.931a280.768 280.768 0 0 1-14.941-5.696 2374.04 2374.04 0 0 1-11.804-4.923h-.002c-3.004-1.264-5.93-2.5-8.783-3.708a4365.534 4365.534 0 0 1-12.478-5.318l-8.822-3.772c-2.349 6.97-3.6 14.518-3.043 23.116z"/></g><g><path fill="#93b3f4" d="M15.192 326.073a80.347 80.347 0 0 0 1.958 8.577 99.13 99.13 0 0 0 2.292 7.034c1.951 5.327 4.51 11.02 7.764 17.139l105.426-.03h.19l25.522-.107 114.165-.468 3.475-.015 8.035-.032 104.442-.43 233.46.905c2.978-3.496 11.236-13.633 18.134-25.498-28.803-13.168-70.318-28.761-110.047-11.741-70.853 30.35-354.977 35.086-405.282 22.773-22.712-5.56-48.185-12.314-70.976-15.967-9.464-1.519-18.465-2.502-26.615-2.641-4.229-.077-8.228.077-11.943.5z"/></g></g><g><path fill="#93b3f4" d="M45.414 120.506c5.97-7.31 12.41-14.703 23.848-13.89 22.848 1.626 61.252-1.878 73.272-29.863 12.018-27.987 52.701-6.65 77.689-42.067 8.606-12.2 10.913-23.557 10.239-33.206C152.887-8.108 60.637 36.567 45.414 120.506z"/></g><g><g><path fill="#09091e" d="M127.514 357.725h36.729l8.932-10.425L404.417 77.356l-3.763-3.377-252.889 262.707z"/></g></g><g><path fill="#a83f3f" d="M150.567 259.435l359.876 50.653c17.316 2.437 33.477-9.738 35.916-27.054l22.974-163.247c2.44-17.316-9.735-33.477-27.05-35.916l-18.854-2.653L182.406 33.22c-17.317-2.436-33.479 9.736-35.915 27.051l-20.65 146.711-2.327 16.54c-2.437 17.316 9.738 33.476 27.053 35.913z"/></g><g><path fill="#ab4e49" d="M150.567 259.435l359.876 50.653c17.316 2.436 33.477-9.738 35.916-27.054l22.974-163.247c2.44-17.316-9.735-33.477-27.05-35.916l-18.854-2.653c-56.278 38.855-206.14 127.984-397.588 125.764l-2.327 16.54c-2.437 17.315 9.738 33.476 27.053 35.913z"/></g><g><path fill="#dde8fd" d="M155.489 248.488l56.014 7.883 22.631 3.186h.002l5.458.77 17.352 2.441 7.984 1.125 20.12 2.83.253.036.122.018 1.71.239 17.105 2.41h.002l8.105 1.14.27.038 3.133.44 3.783.533 52.223 7.35 17.972 2.53 11.832 1.665 24.683 3.474 2.055.289 28.11 3.957 9.842 1.386 43.936 6.183c12.715 1.789 24.583-7.15 26.375-19.867l4.93-35.029 5.016-35.647 11.118-79 1.052-7.47a23.16 23.16 0 0 0-.094-7.092c-1.649-9.77-9.472-17.835-19.77-19.285L315.132 63.54 199.372 47.247 184.115 45.1c-12.713-1.792-24.583 7.15-26.373 19.866l-10.7 76.028-6.073 43.154-5.345 37.965c-1.789 12.717 7.15 24.587 19.865 26.374z"/></g><g><path fill="#6d89cf" d="M550.015 182.943s-56.245 12.628-76.723 23.322c-20.478 10.693-68.602 14.236-99.373 0-30.77-14.237-145.78-25.84-172.01-50.052-26.23-24.213-32.283-45.903-50.947-46.66l-9.823 73.39 392.1 61.886z"/></g><g><path fill="#93b3f4" d="M155.489 248.489l354.697 49.923c12.714 1.788 24.583-7.15 26.374-19.867l9.947-70.678c-22.959-.671-59.682.124-85.006 9.864-39.348 15.133-231.364-25.521-268.142-59.026-12.457-11.347-29.38-16.222-46.316-17.71l-11.418 81.12c-1.791 12.716 7.15 24.585 19.864 26.374z"/></g><g><path fill="#bed2fa" d="M155.49 248.489l354.696 49.923c12.714 1.788 24.583-7.15 26.374-19.867l4.93-35.03c-5.026-4.228-14.085-8.903-27.634-5.307-22.311 5.922-76.787 18.53-89.458 14.369-12.669-4.16-38.392-11.965-54.133.827-15.74 12.793-185.166-25.975-191.31-33.587-6.144-7.612-21.988-39.906-37.615-36.874l-.37 1.206-5.345 37.965c-1.791 12.717 7.15 24.586 19.864 26.375z"/></g><g><path fill="#fff" d="M199.372 47.247l239.65 72.688-123.889-56.396z"/></g><g><path fill="#ab4e49" d="M546.01 154.09l-12.77 90.739c-.613 4.35 2.446 8.41 6.795 9.022 4.35.612 8.41-2.446 9.022-6.796l12.771-90.738c.612-4.35-2.446-8.41-6.796-9.022-4.35-.612-8.409 2.447-9.021 6.796z"/></g><g><g><g><path fill="#100c57" d="M429.545 129.136c.224-1.223 3.098-14.336 23.383-12.099 0 0-10.097-.257-12.446 3.857 0 0 7.541-4.41 12.793-1.878 5.252 2.533 7.085 12.645 6.657 15.821-.428 3.176-4.97 12.956-8.588 13.318-1.371.138-2.883-.172-4.232-.608a48.006 48.006 0 0 1 2.009 5.232c5.654 17.702-4.997 32.653-11.556 29.879-4.206-1.78-6.527 5.502-6.527 5.502l-37.491-40.559s20.29-30.023 35.998-18.465z"/></g><g><path fill="#fc9796" d="M371.756 278.927l17.972 2.53 11.832 1.665a137.438 137.438 0 0 0 2.536-6.59c.196-.457.327-.9.457-1.344 3.368-9.724 5.251-19.108 4.263-26.152a38.36 38.36 0 0 0-.214-1.426v-.003a36.095 36.095 0 0 0-1.772-6.728 31.73 31.73 0 0 0-1.176-2.77 29.006 29.006 0 0 0-5.77-8.145 27.354 27.354 0 0 0-1.067-1.002c-.347-.36-.69-.717-1.159-.984-3.958-3.281-7.443-4.338-7.443-4.338a3.102 3.102 0 0 0-1.186-.03c-1.302.227-2.525 1.306-3.665 3.079 0 0-2.4 4.57-3.425 7.84-.055.08-.11.16-.098.227-.229.673-.447 1.413-.72 2.234-.112.16-.142.376-.187.523a184.866 184.866 0 0 0-1.36 5.295c-2.777 10.792-5.212 24.427-7.818 36.119z"/></g><g><path fill="#fdb5b4" d="M395.517 241.696c4.831 3.153 10.849 5.697 18.355 7.207 28.139 5.672 38.186-18.259 41.753-34.591-3.874-2.075-7.475-2.454-9.554-2.643a90.332 90.332 0 0 0-5.919-.318c-3.207-2.316-8.162-12.024-9.627-27.274l-1.305.39-21.863 6.65s1.207 6.977 1.888 13.582c.528 5.17.728 10.118-.22 11.357-1.708.422-2.733.694-2.733.694s-.001.008-.01.021c-.283.493-6.378 11.186-10.764 24.925z"/></g><g><path fill="#09091e" d="M389.029 223.61a5.444 5.444 0 0 0-.49-.485s4.92-3.37 17.752-6.376c0 0 0 .009-.01.022l-.01.017c-.25.581-3.426 7.84-5.414 14.188-1.166 3.722-1.922 7.132-1.443 8.697.35 1.146 3.266 1.441 7.416 1.206 11.565-.652 32.706-5.426 34.484-7.417 1.931-2.17 3.819-14.859 4.492-19.809.172-1.231.265-1.984.265-1.984s12.681.118 20.042 3.817l.004.001c.317.156.623.322.917.495 0 0-3.953 6.09-6.103 13.129-.09.295-.176.592-.257.89-.062.213-.12.43-.177.645l-.122.483a27.757 27.757 0 0 0-.736 4.302c-.162 1.886.563 3.684 1.867 5.529 1.184 1.691 2.871 3.433 4.795 5.315 1.26 1.22 2.615 2.508 4.009 3.891-.52 4.022-1.38 9.25-2.206 15.24-.917 6.656-1.79 14.26-2.1 22.206-.06 1.552.024 3.096.246 4.616l-9.841-1.386-28.111-3.957-2.054-.29-24.684-3.473-11.832-1.666c-1.086-8.74-2.286-16.176-3.545-20.39a28.807 28.807 0 0 1-.461-1.79c-3.387-15.404 8.761-29.564 3.307-35.666z"/></g><g><path fill="#fc9796" d="M407.356 191.122s1.21 6.97 1.887 13.58c12.448-1.6 17.905-13.648 19.977-20.23z"/></g><g><path fill="#fdb5b4" d="M403.814 197.801s29.582-2.47 27.76-20.868c-1.821-18.399.77-31.11-18.194-30.31-18.965.799-21.934 8.183-22.82 14.471-.885 6.29 5.512 36.876 13.254 36.707z"/></g><g><path fill="#100c57" d="M390.415 150.778c4.01-5.99 7.583-5.122 9.682-3.652 15.254-10.49 26.97 1.589 26.97 1.589 3.296 13.002 13.573 19.61 13.573 19.61s-5.05 3.865-17.78 1.916c-3.888-.595-7.542-2.95-10.746-5.93 5.864 7.915 13.308 13.296 13.308 13.296-15.51-5.368-23.526-25.389-24.337-27.51-1.642 1.8-4.843 5.673-5.582 9.229-1.003 4.832-.7 14.543-3.543 14.496 0 0-7.56-14.06-1.545-23.044z"/></g><g><path fill="#0b0754" d="M428.298 286.885l28.11 3.957 9.842 1.386a25.21 25.21 0 0 1-.246-4.616c.31-7.947 1.182-15.55 2.1-22.206.825-5.99 1.686-11.218 2.206-15.24-1.394-1.383-2.75-2.67-4.009-3.89-1.924-1.883-3.61-3.624-4.795-5.316-8.337 10.342-22.713 28.847-33.208 45.925z"/></g><g><g><path fill="#fc9796" d="M429.643 279a379.543 379.543 0 0 1-3.4 7.596l2.055.289 28.111 3.958a222.36 222.36 0 0 0 1.556-3.011c1.253-2.454 2.437-4.915 3.612-7.307 2.44-5.134 4.65-10.242 6.527-15.118 1.385-3.595 2.591-7.062 3.577-10.327 1.441-4.582 2.497-8.785 2.94-12.281.175-1.231.343-2.395.371-3.502.002-.015.002-.032.005-.047.049-.618.086-1.225.113-1.811-2.557-2.238-7.586-5.916-14.436-7.438a28.894 28.894 0 0 0-7.84-.654c-.009.002-.015.002-.023.002-.227.387-.45.778-.676 1.178-4.688 8.529-9.807 19.65-14.65 30.727-2.677 6.07-5.278 12.149-7.842 17.746z"/></g><g><path fill="#09091e" d="M452.156 230.558c13.552-2.5 22.864 8.72 22.864 8.72 1.562-19.92-8.11-23.504-8.11-23.504-3.842-1.997-9.06 4.506-14.754 14.784z"/></g></g><g><path fill="#fff" d="M410.87 187.16s-.415 2.437-6.409 2.442c0 0-5.032.005-5.044-2.642 0 0 4.742-2.182 11.452.2z"/></g></g><g><g><g><path fill="#fc9290" d="M311.66 144.685s-19.07 9.022-23.403 7.885c-4.333-1.138-20.793-4.044-23.105-3.02 0 0-2.621 4.181-.644 6.932 1.979 2.75 17.994 10.19 23.779 10.46 5.784.269 27.745-3.71 32.404-7.35z"/></g><g><path fill="#fc9290" d="M265.73 149.633s-7.354-3.052-9.761.358c-2.407 3.41-3.772 6.865-3.474 8.613.299 1.747 5.264 2.516 7.25 1.157 1.987-1.358 6.902-3.255 6.902-3.255z"/></g></g><g><path fill="#fdb5b4" d="M273.317 133.391s2.869 19.348 1.613 25.127c-1.257 5.778-20.478 8.92-28.52 4.146-8.04-4.774-5.621-6.55-5.621-6.55s1.227-22.148 2.355-23.728c1.13-1.58 30.173 1.005 30.173 1.005z"/></g><g><path fill="#fc9796" d="M211.967 195.104c5.914-34.008 22.447-40.332 27.52-41.323.783-.157 1.292-.182 1.45-.163.034.002.051.008.051.015 0 5.435 11.694 10.45 21.122 9.833a16.21 16.21 0 0 0 8.394-2.987c2.987-2.137 4.71-4.953 4.712-6.843l-.001-.003h.001c0-.007.009-.01.026-.015.051-.01.184-.005.39.017l.004.001c2.075.02 11.495.193 20.395 1.735 6.464 1.115 12.652 2.951 15.558 5.978 1.5 1.56 6.848 5.932 13.72 11.876 17.499 15.132 44.862 40.463 43.652 55.558 0 0-33.822 24.837-55.256 9.268a399.323 399.323 0 0 0 .297 7.823c.027.611.058 1.223.088 1.834v.002a551.98 551.98 0 0 0 .359 6.278c.31 4.996.688 9.937 1.099 14.737l.113 1.295.09 1.024-3.135-.44-.27-.038-8.104-1.14h-.002l-17.105-2.41-1.71-.239-.122-.017-.252-.037-20.12-2.83-7.984-1.125-17.353-2.442-5.458-.769h-.002l-22.631-3.186.01-.36c.005-.116.007-.234.01-.348.003-.229.008-.453.012-.667.002-.072.005-.143.005-.214l.001-.175c.003-.106.003-.21.003-.312.002-.102.004-.201.002-.3.002-.07.002-.138.002-.207 0-.124 0-.243-.002-.361 0-.1 0-.201-.002-.297-.003-.057-.003-.114-.004-.169 0-.068-.003-.132-.005-.197a15.453 15.453 0 0 0-.017-.528 9.294 9.294 0 0 0-.015-.26 10.848 10.848 0 0 0-.04-.515c-.071-.672-.14-1.341-.204-2.004l-.162-1.68a381.394 381.394 0 0 1-.511-6.057l-.133-1.867c-.042-.618-.08-1.232-.12-1.843a584.56 584.56 0 0 1-.134-2.347 195.997 195.997 0 0 1-.118-2.415c-.019-.431-.038-.863-.053-1.29l-.024-.602c-.008-.199-.015-.397-.021-.596v-.003a231.353 231.353 0 0 1-.143-7.338c-.043-11.104.756-20.45 2.127-28.315z"/></g><g><path fill="#ef7875" d="M211.967 195.104a1766.147 1766.147 0 0 1 16.857-9.514s12.84 6.262 26.296 17.848c9.096 7.832 18.475 18.099 24.357 30.505 1.704 3.592 3.113 7.364 4.137 11.308.326 1.243.61 2.504.853 3.782a57.135 57.135 0 0 1 .973 13.068v.003a51.648 51.648 0 0 1-.336 4.185v.002c-.017.146-.034.29-.053.432l-20.12-2.83-7.985-1.125-17.351-2.442-5.46-.769h-.001l-22.631-3.186.01-.36c.005-.116.007-.234.01-.348.006-.229.01-.453.012-.667a6.37 6.37 0 0 0 .004-.214c.002-.06.002-.117.002-.175.003-.107.003-.21.003-.312.002-.102.004-.201.002-.3.002-.07.002-.138.002-.207 0-.124 0-.243-.002-.36 0-.102 0-.202-.002-.298-.003-.057-.003-.113-.005-.17a5.07 5.07 0 0 0-.004-.196c-.002-.122-.006-.24-.01-.353l-.007-.175c-.004-.092-.009-.177-.015-.26a10.904 10.904 0 0 0-.04-.515c-.071-.672-.14-1.341-.204-2.004-.055-.562-.111-1.123-.162-1.68-.052-.559-.103-1.113-.152-1.662-.045-.517-.09-1.033-.132-1.543-.081-.962-.157-1.912-.227-2.853-.047-.626-.09-1.248-.133-1.866-.043-.618-.08-1.232-.12-1.843a241.041 241.041 0 0 1-.226-4.19l-.026-.571c-.02-.432-.038-.864-.053-1.292l-.024-.6-.021-.597v-.003c-.011-.254-.02-.508-.026-.76-.017-.554-.034-1.102-.047-1.647a228.021 228.021 0 0 1-.07-4.93c-.043-11.105.756-20.45 2.127-28.316z"/></g><g><path fill="#fc9290" d="M273.621 135.571s-7.455 10.51-15.337 10.604c-7.884.094-15.932-10.439-15.932-10.439z"/></g><g><path fill="#fdb5b4" d="M274.342 135.048c-2.063 1.624-6.677 3.867-10.449 5.35a12.906 12.906 0 0 1-8.935.19c-4.35-1.5-10.937-3.845-12.606-4.852-3.948-2.393-3.694-7.237-3.896-13.972-.243-7.972-1.046-14.232-.156-18.827 1.058-5.498 4.543-8.625 14.301-9.475 17.914-1.555 25.377 2.93 25.69 8.937.08 1.612.156 3.15.207 4.607.718 18.73-.762 25.371-4.156 28.042z"/></g><g><path fill="#100c57" d="M278.399 104.612s-2.933-4.325-8.446-2.629c-5.514 1.696-6.08 6.407-15.501 5.653-9.423-.753-11.685-5.212-13.38-2.983-1.696 2.23-2.677 15.403-2.677 15.403S219.45 76.86 257.848 76.86c0 0 39.57-2.39 20.55 41.518z"/></g><g><path fill="#fdb5b4" d="M348.167 145.523l-.052.029"/></g><g><path fill="#e75755" d="M368.86 83.803c.322-.718.55-1.186.55-1.186"/></g><g><path fill="#fc9290" d="M264.93 263.893l20.12 2.83.253.036.122.018.554-.7c.186-.235.372-.47.556-.705 2.794-3.57 5.3-7.036 6.734-9.63h.002c.242-.433.451-.844.627-1.224.226-.484.396-.922.504-1.31.79-2.795 7.421-4.752 15.185-6.426h.002l.004-.002a285.183 285.183 0 0 1 4.408-.906c4.837-.96 9.765-1.852 13.755-2.804 3.983-.949 7.031-1.956 8.118-3.143 1.345-1.464.158-3.617-2.115-5.89-2.497-2.492-6.305-5.129-9.51-7.153-3.26-2.062-5.899-3.488-5.899-3.488l-.006.003c-.122.017-1.971.303-4.827.812-.993.178-2.107.38-3.312.61-2.08.395-4.432.865-6.902 1.402-2.149.463-4.387.979-6.613 1.54-6.799 1.707-13.497 3.824-17.213 6.18-1.007.638-1.796 1.294-2.31 1.963-1.087 1.424-2.447 4.009-3.923 7.229-1.425 3.113-2.965 6.818-4.47 10.64a483.08 483.08 0 0 0-3.844 10.118z"/></g><g><path fill="#ef7875" d="M309.903 180.222s-6.787-13.174-10.138-12.79c-3.352.383 7.704 27.268 8.708 40.334 1.006 13.065 1.43-27.544 1.43-27.544z"/></g><g><path fill="#fdb5b4" d="M284.946 260.456c.156.546.32 1.093.494 1.645v.002a97.848 97.848 0 0 0 1.696 4.912l17.104 2.41h.002l8.105 1.14a233.435 233.435 0 0 0-.193-5.095c-.245-4.851-.658-9.135-1.349-11.397 0 0 1.36-.009 3.643-.086.584-.02 1.23-.045 1.929-.072 3.478-.148 8.274-.43 13.478-.97h.002c15.202-1.573 33.88-5.331 33.321-14.311-.115-1.862-.641-3.616-1.505-5.245-1.869-3.525-5.322-6.467-9.615-8.659a36.609 36.609 0 0 0-4.488-1.917c-3.634-1.281-7.615-2.094-11.617-2.365-.002-.002-.005 0-.005 0-5.454-.372-10.944.263-15.637 2.091l-.002.002c-.67.26-1.324.546-1.959.855l-.006.003c-.113.04-1.967.72-4.81 1.91-.216.09-.437.182-.663.279-2.153.91-4.788 2.082-7.627 3.468-2.824 1.377-5.851 2.966-8.804 4.718-3.827 2.271-7.53 4.817-10.517 7.541-1.114 1.016-1.862 2.352-2.309 3.936-.263.932-.419 1.952-.485 3.04-.208 3.496.536 7.716 1.817 12.165z"/></g><g><path fill="#09091e" d="M361.593 217.489s7.098 10.432 5.433 20.166c-1.664 9.734-21.915 14.935-36.087 15.555 0 0-40.534-9.289-34.249-25.448 1.426-3.664 64.903-10.273 64.903-10.273z"/></g><g><g><path fill="#ab4e49" d="M346.873 89.284s6.438-13.538 21.987-5.48c15.55 8.057.411 38.775 8.572 46.362 8.161 7.588-2.957 12.556-1.3 17.997 1.655 5.44-3.076 11.628-13.959 10.9-10.88-.728-22.34-.142-27.255-9.661-4.917-9.52-3.799-30.468-1.9-33.412 1.9-2.944 13.855-26.706 13.855-26.706z"/></g><g><path fill="#fdb5b4" d="M321.674 161.508l26.441-15.956c-.146-.059-.68-.856-2.658-6.576-.842-2.438-1.288-4.553-1.509-6.23-.021-.17-.043-.33-.058-.491-.27-2.438-.073-3.844-.073-3.844l-5.792 2.094-10.713 3.88c.125 2.717-.256 4.628-.834 5.94-1.4 3.184-4.006 3.206-4.079 3.206z"/></g><g><path fill="#fc9796" d="M326.478 140.324c10.354.879 16.182-5.872 17.47-7.578.191-.25.286-.389.286-.389l-.344-.102c-.842-.25-3.127-.938-5.865-1.75l-10.713 3.88c.125 2.717-.256 4.628-.834 5.94z"/></g><g><path fill="#fdb5b4" d="M325.959 136.605s23.002 2.527 23.474-13.026c.47-15.555 3.87-22.672-12.045-24.058-15.915-1.385-19.674 4.347-20.612 9.61-2.93 16.438 2.703 26.777 9.183 27.474z"/></g><g><path fill="#ab4e49" d="M336.152 107.119c8.14-2.06 5.027 12.36 7.084 11.373 2.3-1.105 6.255-1.088 5.631 1.69-.623 2.779-1.525 3.772-1.994 5.507-.47 1.735.003 5.17 1.895 4.478 1.893-.693 19.496-20.792 7.068-36.45-12.43-15.655-49.49-6.01-37.82 10.366 2.052 2.88 12.34 4.504 18.136 3.036z"/></g><g><path fill="#6d89cf" d="M306.61 223.386s6.912 3.668 17.795 3.495c6.932-.105 21.655-3.118 31.119-6.534 5.394-1.942 9.083-4.019 8.638-5.76-.638-2.512-5.258-21.792-9.528-39.633-3.903-16.313-7.513-31.422-7.513-31.422s-10.772 7.654-17.05 4.955c-6.279-2.705-5.473-5.756-5.473-5.756s-7.397-.907-9.403-.671c-3.204.377-14.516 4.501-14.516 4.501s-1.488 4.18 2.455 10.7c3.266 5.403 6.443 6.45 6.443 6.45s-9.244 29.147-2.966 59.675z"/></g><g><path fill="#fdb5b4" d="M341.225 197.363s-6.643-1.24-9.242.46c-2.599 1.7-3.367 4.363-1.496 5.451 5.864 3.408 11.808-.36 11.808-.36z"/></g><g><path fill="#3662c1" d="M355.524 220.346c5.394-1.94 9.083-4.018 8.638-5.76-.638-2.511-5.258-21.79-9.528-39.632-1.26-2.312-2.06-3.693-2.06-3.693s-8.1 37.031 2.95 49.085z"/></g><g><path fill="#fdb5b4" d="M346.854 145.612s20.462 4.331 28.532 36.142a9.648 9.648 0 0 1-2.178 8.82c-3.71 4.112-11.891 10.126-30.913 12.34-2.077.241-2.356-5.028-2.356-5.028.206.42 12.921-8.216 18.334-12.857.979-.84.938-2.6.23-3.68-1.828-2.79-4.896-7.615-5.927-10.09-1.505-3.613-11.441-24.008-5.722-25.647z"/></g><g><path fill="#6d89cf" d="M347.119 143.531s12.03.856 21.84 13.935c0 0-3.319 12.032-18.903 15.244 0 0-9.605-21.664-2.937-29.179z"/></g></g><g><path fill="#f4f8fe" d="M304.242 269.426l8.104 1.14a230.16 230.16 0 0 0-.149-4.183c-.012-.307-.028-.612-.042-.913a9.577 9.577 0 0 1-.563.494c-1.154.937-3.418 2.371-7.35 3.462z"/></g><g><path fill="#f4f8fe" d="M264.93 263.893l20.12 2.83.253.036.122.018.554-.7c-.27-.115-.54-.237-.808-.365-.12-.054-.238-.111-.358-.169-6.747-3.262-13.591-9.445-16.04-11.768a481.474 481.474 0 0 0-3.843 10.118z"/></g><g><path fill="#fc9796" d="M283.578 261.242s.325 1.877 1.235 4.301c.09.244.189.494.29.746v.002c.065.157.131.31.2.468l.122.018 1.71.24 17.105 2.409h.002l8.104 1.14.27.038a609.53 609.53 0 0 0 3.045-.583c.442-.089.889-.176 1.338-.266 6.115-1.21 12.743-2.649 19.227-4.289 16.068-4.062 31.264-9.367 35.611-15.543 10.267-14.57-5.37-32.308-5.37-32.308s-.114.056-.334.16c-.53.26-1.685.82-3.372 1.647a1461.312 1461.312 0 0 0-10.703 5.308 1687.61 1687.61 0 0 0-32.267 16.602 1222.1 1222.1 0 0 0-5.853 3.113c-1.076.576-2.158 1.155-3.244 1.741-.368.197-.733.393-1.1.594-.003 0-.003.002-.005.002h-.002a1107.025 1107.025 0 0 0-16.316 8.96h-.002a1032.625 1032.625 0 0 0-8.323 4.715c-.458.26-.913.524-1.368.785z"/></g><g><path fill="#ef7875" d="M283.578 261.242s.325 1.877 1.235 4.301c.09.244.189.494.29.747v.002c.065.156.131.31.2.468l.122.017 1.71.24 17.105 2.409h.002l8.105 1.14.269.038c.996-.188 2.012-.383 3.045-.583l1.338-.266c6.115-1.21 12.743-2.649 19.227-4.289-6.05-5.261-13.194-8.966-19.85-11.551a74.672 74.672 0 0 0-1.979-.745 99.2 99.2 0 0 0-10.703-3.192c-3.002 1.64-6.025 3.308-9.046 4.995-.46.254-.917.511-1.377.77h-.002a1020.26 1020.26 0 0 0-8.323 4.714c-.458.261-.913.524-1.368.785z"/></g><g><path fill="#fc9796" d="M203.926 165.347c4.693-11.147 35.56-11.573 35.56-11.573l.001.006c.351.918.695 1.827 1.033 2.73v.003c.293.785.581 1.565.868 2.339v.002c6.393 17.376 10.635 32.113 13.732 44.584 3.744 15.07 5.818 26.837 7.997 35.942.671-.066 4.81 1.146 10.127 3.755a241.232 241.232 0 0 1 9.885 5.157 306.362 306.362 0 0 1 11.52 6.681 361.339 361.339 0 0 1 16.943 10.991l.605.42a380.035 380.035 0 0 1 4.802 3.371c.836.597 1.683 1.203 2.534 1.822l-3.783-.533-3.134-.44-.27-.038-8.104-1.14h-.002l-17.105-2.41-1.71-.239-.122-.017-.252-.037-20.12-2.83-7.985-1.125-17.352-2.442-5.458-.769h-.002c-11.092-8.948-18.853-18.834-24.151-28.797v-.003c-14.36-26.994-10.635-54.534-6.057-65.41z"/></g></g><g><path fill="#100c57" d="M278.676 83.997s-7.23-8.896-19.573-10.018c0 0 1.123 1.22.579 2.04 0 0-4.013-1.497-7.48-.749 0 0 1.971.409 2.379.885 0 0-10.158.969-14.94 6.4-4.781 5.433 39.035 1.442 39.035 1.442z"/></g></g><g><path fill="#fff" d="M265.965 130.882s-.504 2.97-7.816 2.977c0 0-6.139.007-6.154-3.223 0 0 5.785-2.661 13.97.246z"/></g><g><path fill="#f07e7b" d="M347.387 45.397l23.323 3.283a3.206 3.206 0 0 0 3.609-2.718l.833-5.93a3.203 3.203 0 0 0-2.717-3.609l-1.884-.266-21.44-3.016a3.205 3.205 0 0 0-3.608 2.717l-.426 3.024-.408 2.906a3.205 3.205 0 0 0 2.718 3.609z"/></g><g><g><path fill="#fdb5b4" d="M533.122 217.772s7.103 13.771 11.703 14.474c4.094.626 18.178-6.717 18.178-6.717s-13.023 7.865-15.318 12.178c-2.29 4.3 4.65 18.927 4.65 18.927s-6.672-13.861-11.174-15.39c-3.462-1.177-14.025 4.151-14.025 4.151s10.086-5.958 11.15-9.454c1.374-4.518-5.164-18.169-5.164-18.169z"/></g><g><path fill="#fdb5b4" d="M545.07 237.204a2.065 2.065 0 1 0-4.13 0 2.065 2.065 0 0 0 4.13 0z"/></g></g><g><path fill="#fff" d="M453.625 94.557l104 34.311 1.052-7.47c.34-2.416.292-4.802-.094-7.092z"/></g><g><path fill="#fff" d="M449.05 104.54a5.014 5.014 0 1 0-10.03 0 5.014 5.014 0 0 0 10.03 0z"/></g><g><path fill="#010117" d="M222.023 272.622l-77.396 85.982 19.616-.879 67.485-79.379z"/></g><g><path fill="#0b0754" d="M211.303 270.68s13.707 10.06 7.692 23.13l18.916-22.081-24.322-3.424z"/></g><g><path fill="#f07e7b" d="M127.513 357.725h36.73l8.931-10.424-.027-.048c-.32-.52-3.41-5.348-10.828-8.304-3.706-1.478-8.492-2.49-14.549-2.263h-.005z"/></g><g><path fill="#ed6966" d="M144.627 358.604l19.615-.88 8.905-10.471c-.32-.52-3.41-5.348-10.828-8.305l-16.9 18.777z"/></g><g><path fill="#0b0754" d="M0 359.481v-1.755h661.62v1.755z"/></g><g><path fill="#ed6966" d="M347.387 45.397l23.323 3.283a3.206 3.206 0 0 0 3.609-2.718l.833-5.93a3.203 3.203 0 0 0-2.717-3.61l-1.884-.265-.005.002s-8.285 5.89-25.469 2.723l-.408 2.906a3.205 3.205 0 0 0 2.718 3.609z"/></g><g><path fill="#09091e" d="M317.371 56.782l79.044 11.125a2.213 2.213 0 0 0 2.493-1.877l.518-3.683.196-1.391.697-4.96.197-1.391.41-2.914a2.214 2.214 0 0 0-1.878-2.491l-79.043-11.127a2.214 2.214 0 0 0-2.491 1.877l-.411 2.916-.197 1.391-.697 4.958-.196 1.39-.518 3.686a2.214 2.214 0 0 0 1.877 2.491z"/></g><g transform="rotate(-171.99 358.5 49)"><path fill="#100c57" d="M316.594 50.134v-1.405h84.235v1.405z"/></g><g transform="rotate(-171.988 358 56)"><path fill="#100c57" d="M315.7 56.483v-1.405h84.236v1.405z"/></g><g><g><path fill="#9e332e" d="M547.297 210.33a1.996 1.996 0 0 0 2.242-1.703l5.857-42.904a1.996 1.996 0 0 0-1.704-2.242 1.997 1.997 0 0 0-2.241 1.704l-5.857 42.904a1.996 1.996 0 0 0 1.703 2.241z"/></g><g><path fill="#9e332e" d="M548.474 215.836a1.929 1.929 0 1 0-3.858.017 1.929 1.929 0 0 0 3.858-.017z"/></g></g><g><path fill="#93b3f4" d="M17.15 334.65a99.068 99.068 0 0 0 2.292 7.033c9.11-3.394 21.412-8.113 34.308-13.47 6.787-2.82 13.74-5.816 20.479-8.89a440.812 440.812 0 0 0 11.224-5.296c26.227-12.864 45.193-26.036 30.52-32.5-15.785-6.954-41.097 6.81-63.636 23.507a289.888 289.888 0 0 0-4.853 3.67s0-.002-.003 0c-7.336 5.659-14.27 11.5-20.346 16.868a474.586 474.586 0 0 0-9.985 9.078z"/></g><g><path fill="#93b3f4" d="M14.355 319.022c.117 1.824.32 3.696.608 5.62 5.76-4.517 14.68-11.682 23.736-19.646 1.71-1.5 3.422-3.03 5.122-4.581 17.789-16.2 33.882-34.146 24.943-39.51-8.941-5.365-24.311 12.222-37.287 30.946a331.131 331.131 0 0 0-5.256 7.827 432.883 432.883 0 0 0-11.865 19.344z"/></g><g><path fill="#93b3f4" d="M597.487 244.874c5.363 8.887 13.74 18.7 22.689 27.964 12.115 12.545 25.282 24.085 33.452 30.973a147.83 147.83 0 0 0 2.073-6.378c-3.723-7.366-8.922-17.101-14.785-27.205-6.371-10.983-13.525-22.398-20.42-31.665-11.497-15.46-22.26-24.941-27.421-16.46-3.4 5.585-1.063 13.695 4.412 22.77z"/></g><g><path fill="#93b3f4" d="M648.593 316.486a158.112 158.112 0 0 0 2.603-6.164c-9.065-6.657-21.344-14.456-24.642-6.329-3.183 7.852 10.863 11.132 22.04 12.493z"/></g></g></g></svg>