<svg xmlns="http://www.w3.org/2000/svg" width="110" height="110" viewBox="0 0 110 110"><g><g opacity=".2"><path fill="#9ec5fd" d="M0 55C0 24.624 24.624 0 55 0s55 24.624 55 55-24.624 55-55 55S0 85.376 0 55z"/></g><g><path fill="#396ab3" d="M63.69 51.589h-2.967c1.149-5.477 4.268-12.267 12.396-16.042l.462 1.1c.014.04.03.08.049.116l.605 1.439a19.194 19.194 0 0 0-10.544 13.387zm2.207 6.365H44.955v-3.297c0-.683.553-1.238 1.237-1.238l18.467.003c.683.001 1.237.554 1.238 1.237zm-1.238 27.288H46.192a1.238 1.238 0 0 1-1.237-1.237v-24.22h20.942v24.22a1.239 1.239 0 0 1-1.238 1.237zM36.911 38.204l.542-1.288v-.002l.574-1.365c8.125 3.774 11.247 10.563 12.397 16.04h-2.938A19.1 19.1 0 0 0 36.91 38.203zm16.656-9.254h3.717v22.639h-3.717zm26.261 5.22a.916.916 0 0 0-1.069-.73 10.347 10.347 0 0 0-3.912 1.496l-.401-.952v-.001a.915.915 0 0 0-1.2-.489c-9.38 3.948-12.85 11.652-14.132 16.926V28.034a.915.915 0 0 0-.916-.915h-1.857v-3.204a.915.915 0 0 0-1.831 0v3.204h-1.858a.915.915 0 0 0-.915.915V49.31c-1.489-5.196-5.097-12.138-13.84-15.818a.914.914 0 0 0-1.196.488l-.467 1.108a9.977 9.977 0 0 0-4.135-1.652l-.021-.003a.916.916 0 1 0-.324 1.801 8.385 8.385 0 0 1 3.752 1.584l-.63 1.499a.916.916 0 0 0 .488 1.198 17.463 17.463 0 0 1 10.277 12.128 3.073 3.073 0 0 0-2.517 3.016v29.346a3.07 3.07 0 0 0 3.068 3.068h18.467a3.071 3.071 0 0 0 3.068-3.068V54.66a3.072 3.072 0 0 0-2.182-2.936c1.084-4.245 3.756-9.474 10.237-12.204a.916.916 0 0 0 .489-1.198l-.702-1.667a8.603 8.603 0 0 1 3.528-1.416.915.915 0 0 0 .731-1.068z"/></g></g></svg>