<svg xmlns="http://www.w3.org/2000/svg" width="598" height="438" viewBox="0 0 598 438"><g><g><g><g><path fill="#f5f5f5" d="M.573 421.858c0-8.412 84.938-15.231 189.713-15.231 104.776 0 189.714 6.819 189.714 15.23 0 8.412-84.938 15.232-189.714 15.232-104.775 0-189.713-6.82-189.713-15.231z"/></g></g><g><g><g><g><path fill="#e0e0e0" d="M597.349 353.562c0 .125-130.014.227-290.358.227-160.398 0-290.385-.102-290.385-.227s129.987-.225 290.385-.225c160.344 0 290.358.1 290.358.225z"/></g></g></g><g><g><g><g><path fill="#e0e0e0" d="M436.837 353.251V219.704h70.368V353.25z"/></g></g><g><g><path fill="#ebebeb" d="M474.21 353.251V219.704h32.995V353.25z"/></g></g></g><g><g><g><path fill="#f5f5f5" d="M451.592 247.641V232.27h6.327v15.372z"/></g></g><g><g><path fill="#f5f5f5" d="M451.592 307.803v-15.372h6.327v15.372z"/></g></g><g><g><g><path fill="#f5f5f5" d="M474.211 253.674c0 .133-8.368.24-18.687.24-10.322 0-18.687-.107-18.687-.24 0-.132 8.365-.24 18.687-.24 10.32 0 18.687.108 18.687.24z"/></g></g></g></g><g><g><g><path fill="#f5f5f5" d="M451.592 277.95V262.58h6.327v15.371z"/></g></g><g><g><g><path fill="#f5f5f5" d="M474.211 283.984c0 .132-8.368.24-18.687.24-10.322 0-18.687-.108-18.687-.24 0-.133 8.365-.24 18.687-.24 10.32 0 18.687.107 18.687.24z"/></g></g></g></g><g><g><path fill="#e0e0e0" d="M481.217 247.641V232.27h6.327v15.372z"/></g></g><g><g><path fill="#e0e0e0" d="M494.943 247.641V232.27h6.327v15.372z"/></g></g><g><g><path fill="#e0e0e0" d="M481.217 276.81v-15.372h6.327v15.372z"/></g></g><g><g><path fill="#e0e0e0" d="M494.943 276.81v-15.372h6.327v15.372z"/></g></g><g><g><path fill="#e0e0e0" d="M481.217 305.978v-15.372h6.327v15.372z"/></g></g><g><g><path fill="#e0e0e0" d="M494.943 305.978v-15.372h6.327v15.372z"/></g></g><g><g><path fill="#e0e0e0" d="M431.547 219.82v-3.347h80.947v3.347z"/></g></g><g><g><g><path fill="#ebebeb" d="M507.696 220.135c0 .132-15.728.24-35.124.24-19.404 0-35.128-.108-35.128-.24s15.724-.24 35.128-.24c19.396 0 35.124.108 35.124.24z"/></g></g></g></g><g><g><g><g><path fill="#f5f5f5" d="M208.245 306.079V40.102h83.925v265.977z"/></g></g><g><g><path fill="#ebebeb" d="M250.208 305.347V40.102h41.962v265.245z"/></g></g><g><g><path fill="#f5f5f5" d="M217.828 40.102V13.99h29.636v26.112z"/></g></g><g><g><path fill="#ebebeb" d="M240.4 40.102V13.99h7.064v26.112z"/></g></g><g><g><path fill="#e0e0e0" d="M201.251 40.102v-1.523h93.375v1.523"/></g></g><g><g><path fill="#fafafa" d="M224.811 66.47V51.49h7.104v14.98z"/></g></g><g><g><g><path fill="#e0e0e0" d="M250.208 72.348c0 .158-9.395.286-20.98.286-11.59 0-20.983-.128-20.983-.286 0-.158 9.392-.286 20.982-.286 11.586 0 20.981.128 20.981.286z"/></g></g></g><g><g><g><path fill="#e0e0e0" d="M267.139 66.47V51.49h7.104v14.98z"/></g></g><g><g><g><path fill="#e0e0e0" d="M292.536 72.348c0 .158-9.395.286-20.981.286-11.59 0-20.982-.128-20.982-.286 0-.158 9.392-.286 20.982-.286 11.586 0 20.98.128 20.98.286z"/></g></g></g></g><g><g><g><path fill="#e0e0e0" d="M267.139 96.209v-14.98h7.104v14.98z"/></g></g><g><g><g><path fill="#e0e0e0" d="M292.536 102.088c0 .158-9.395.286-20.981.286-11.59 0-20.982-.128-20.982-.286 0-.158 9.392-.286 20.982-.286 11.586 0 20.98.128 20.98.286z"/></g></g></g></g><g><g><g><path fill="#e0e0e0" d="M267.139 126.846v-14.98h7.104v14.98z"/></g></g><g><g><g><path fill="#e0e0e0" d="M292.536 132.725c0 .158-9.395.286-20.981.286-11.59 0-20.982-.128-20.982-.286 0-.158 9.392-.286 20.982-.286 11.586 0 20.98.128 20.98.286z"/></g></g></g></g><g><g><g><path fill="#e0e0e0" d="M267.139 157.483v-14.98h7.104v14.98z"/></g></g><g><g><g><path fill="#e0e0e0" d="M292.536 163.362c0 .158-9.395.285-20.981.285-11.59 0-20.982-.127-20.982-.285 0-.158 9.392-.286 20.982-.286 11.586 0 20.98.128 20.98.286z"/></g></g></g></g><g><g><g><path fill="#e0e0e0" d="M267.139 187.243v-14.979h7.104v14.98z"/></g></g><g><g><g><path fill="#e0e0e0" d="M292.536 193.122c0 .159-9.395.286-20.981.286-11.59 0-20.982-.127-20.982-.286 0-.158 9.392-.286 20.982-.286 11.586 0 20.98.128 20.98.286z"/></g></g></g></g><g><g><g><path fill="#e0e0e0" d="M267.139 217.124v-14.98h7.104v14.98z"/></g></g><g><g><path fill="#e0e0e0" d="M267.139 247.396v-14.979h7.104v14.98z"/></g></g><g><g><g><path fill="#e0e0e0" d="M292.536 223.003c0 .158-9.395.286-20.981.286-11.59 0-20.982-.128-20.982-.286 0-.158 9.392-.286 20.982-.286 11.586 0 20.98.128 20.98.286z"/></g></g></g></g><g><g><path fill="#fafafa" d="M224.811 96.663v-14.98h7.104v14.98z"/></g></g><g><g><g><path fill="#e0e0e0" d="M250.208 102.542c0 .158-9.395.285-20.98.285-11.59 0-20.983-.127-20.983-.285 0-.158 9.392-.286 20.982-.286 11.586 0 20.981.128 20.981.286z"/></g></g></g><g><g><path fill="#fafafa" d="M224.811 126.856v-14.979h7.104v14.98z"/></g></g><g><g><g><path fill="#e0e0e0" d="M250.208 132.735c0 .158-9.395.287-20.98.287-11.59 0-20.983-.129-20.983-.287 0-.158 9.392-.286 20.982-.286 11.586 0 20.981.128 20.981.286z"/></g></g></g><g><g><path fill="#fafafa" d="M224.811 157.05v-14.98h7.104v14.98z"/></g></g><g><g><g><path fill="#e0e0e0" d="M250.208 162.928c0 .158-9.395.287-20.98.287-11.59 0-20.983-.129-20.983-.287 0-.157 9.392-.285 20.982-.285 11.586 0 20.981.128 20.981.285z"/></g></g></g><g><g><path fill="#fafafa" d="M224.811 187.243v-14.979h7.104v14.98z"/></g></g><g><g><g><path fill="#e0e0e0" d="M250.208 193.123c0 .158-9.395.285-20.98.285-11.59 0-20.983-.127-20.983-.285 0-.158 9.392-.287 20.982-.287 11.586 0 20.981.128 20.981.286z"/></g></g></g><g><g><path fill="#fafafa" d="M224.811 217.437v-14.98h7.104v14.98z"/></g></g><g><g><g><path fill="#e0e0e0" d="M250.208 223.316c0 .158-9.395.285-20.98.285-11.59 0-20.983-.127-20.983-.285 0-.158 9.392-.286 20.982-.286 11.586 0 20.981.128 20.981.286z"/></g></g></g><g><g><g><path fill="#fafafa" d="M224.811 247.63v-14.979h7.104v14.98z"/></g></g></g></g><g><g><g><g><path fill="#ebebeb" d="M281.97 355.469V193.868h122.52v161.6z"/></g></g><g><g><path fill="#e0e0e0" d="M347.043 355.469V193.868h57.448v161.6z"/></g></g></g><g><g><g><path fill="#f5f5f5" d="M307.66 242.511v-26.764h11.016v26.764z"/></g></g><g><g><path fill="#f5f5f5" d="M307.66 347.263v-26.765h11.016v26.765z"/></g></g><g><g><g><path fill="#f5f5f5" d="M347.043 253.015c0 .301-14.568.545-32.535.545-17.973 0-32.539-.244-32.539-.545 0-.3 14.566-.543 32.539-.543 17.967 0 32.535.243 32.535.543z"/></g></g></g></g><g><g><g><path fill="#f5f5f5" d="M307.66 295.284V268.52h11.016v26.764z"/></g></g><g><g><g><path fill="#f5f5f5" d="M347.043 305.788c0 .302-14.568.546-32.535.546-17.973 0-32.539-.244-32.539-.546 0-.3 14.566-.544 32.539-.544 17.967 0 32.535.244 32.535.544z"/></g></g></g></g><g><g><path fill="#f5f5f5" d="M359.243 242.511v-26.764h11.016v26.764z"/></g></g><g><g><path fill="#f5f5f5" d="M383.142 242.511v-26.764h11.017v26.764z"/></g></g><g><g><path fill="#f5f5f5" d="M359.243 293.298v-26.764h11.016v26.764z"/></g></g><g><g><path fill="#f5f5f5" d="M383.142 293.298v-26.764h11.017v26.764z"/></g></g><g><g><path fill="#f5f5f5" d="M359.243 344.085V317.32h11.016v26.765z"/></g></g><g><g><path fill="#f5f5f5" d="M383.142 344.085V317.32h11.017v26.765z"/></g></g><g><g><path fill="#e0e0e0" d="M272.76 194.07v-5.828H413.7v5.827z"/></g></g><g><g><g><path fill="#ebebeb" d="M405.346 194.618c0 .3-27.384.545-61.157.545-33.785 0-61.163-.244-61.163-.545 0-.3 27.378-.544 61.163-.544 33.773 0 61.157.244 61.157.544z"/></g></g></g></g><g><g><g><g><path fill="#ebebeb" d="M283.984 355.495H160.486l-.537-195.18h123.497z"/></g></g><g><g><path fill="#e0e0e0" d="M221.697 355.495v-195.18h61.75v195.18z"/></g></g><g><g><path fill="#ebebeb" d="M174.05 160.315v-38.424h43.61v38.424z"/></g></g><g><g><path fill="#e0e0e0" d="M207.266 160.315v-38.424h10.394v38.424z"/></g></g><g><g><path fill="#e0e0e0" d="M149.657 160.315v-2.24H287.06v2.24z"/></g></g><g><g><path fill="#fff" d="M184.326 199.116v-22.042h10.454v22.042z"/></g></g><g><g><g><path fill="#e0e0e0" d="M221.697 207.767c0 .232-13.824.42-30.873.42-17.054 0-30.876-.188-30.876-.42 0-.233 13.822-.421 30.876-.421 17.05 0 30.873.188 30.873.42z"/></g></g></g><g><g><g><path fill="#f5f5f5" d="M246.612 199.116v-22.042h10.454v22.042z"/></g></g><g><g><g><path fill="#ebebeb" d="M283.984 207.767c0 .232-13.824.42-30.874.42-17.054 0-30.875-.188-30.875-.42 0-.233 13.82-.421 30.875-.421 17.05 0 30.874.188 30.874.42z"/></g></g></g></g><g><g><g><path fill="#f5f5f5" d="M246.612 242.878v-22.042h10.454v22.042z"/></g></g><g><g><g><path fill="#ebebeb" d="M283.984 251.529c0 .232-13.824.42-30.874.42-17.054 0-30.875-.188-30.875-.42 0-.232 13.82-.42 30.875-.42 17.05 0 30.874.188 30.874.42z"/></g></g></g></g><g><g><g><path fill="#f5f5f5" d="M246.612 287.961V265.92h10.454v22.042z"/></g></g><g><g><g><path fill="#ebebeb" d="M283.984 296.612c0 .233-13.824.421-30.874.421-17.054 0-30.875-.188-30.875-.42 0-.234 13.82-.422 30.875-.422 17.05 0 30.874.188 30.874.421z"/></g></g></g></g><g><g><g><path fill="#f5f5f5" d="M246.612 333.044v-22.042h10.454v22.042z"/></g></g><g><g><g><path fill="#ebebeb" d="M283.984 341.695c0 .232-13.824.42-30.874.42-17.054 0-30.875-.188-30.875-.42 0-.232 13.82-.42 30.875-.42 17.05 0 30.874.188 30.874.42z"/></g></g></g></g><g><g><path fill="#fff" d="M184.326 243.546v-22.042h10.454v22.042z"/></g></g><g><g><g><path fill="#e0e0e0" d="M221.697 252.197c0 .233-13.824.421-30.873.421-17.054 0-30.876-.188-30.876-.42 0-.233 13.822-.422 30.876-.422 17.05 0 30.873.189 30.873.421z"/></g></g></g><g><g><path fill="#fff" d="M184.326 287.977v-22.043h10.454v22.043z"/></g></g><g><g><g><path fill="#e0e0e0" d="M221.697 296.628c0 .232-13.824.42-30.873.42-17.054 0-30.876-.188-30.876-.42 0-.233 13.822-.421 30.876-.421 17.05 0 30.873.188 30.873.42z"/></g></g></g><g><g><path fill="#fff" d="M184.326 332.407v-22.042h10.454v22.042z"/></g></g><g><g><g><path fill="#e0e0e0" d="M221.697 341.058c0 .233-13.824.421-30.873.421-17.054 0-30.876-.188-30.876-.42 0-.234 13.822-.422 30.876-.422 17.05 0 30.873.188 30.873.421z"/></g></g></g></g></g></g><g><g><g><g><path fill="#ebebeb" d="M507.173 353.251V159.703h73.945v193.548z"/></g></g><g><g><path fill="#e0e0e0" d="M544.145 353.251V159.703h36.973v193.548z"/></g></g><g><g><path fill="#ebebeb" d="M515.616 159.703v-23.006h26.112v23.006z"/></g></g><g><g><path fill="#e0e0e0" d="M535.505 159.703v-23.006h6.223v23.006z"/></g></g><g><g><path fill="#e0e0e0" d="M501.01 159.703v-1.341h82.272v1.341z"/></g></g><g><g><path fill="#fff" d="M521.769 182.935v-13.197h6.26v13.197z"/></g></g><g><g><g><path fill="#e0e0e0" d="M544.146 188.115c0 .14-8.278.252-18.487.252-10.21 0-18.486-.113-18.486-.252 0-.14 8.275-.252 18.486-.252 10.21 0 18.487.113 18.487.252z"/></g></g></g><g><g><g><path fill="#f5f5f5" d="M559.063 182.935v-13.197h6.26v13.197z"/></g></g><g><g><g><path fill="#ebebeb" d="M581.44 188.115c0 .14-8.277.252-18.486.252-10.211 0-18.487-.113-18.487-.252 0-.14 8.276-.252 18.487-.252 10.209 0 18.485.113 18.485.252z"/></g></g></g></g><g><g><g><path fill="#f5f5f5" d="M559.063 209.139V195.94h6.26v13.198z"/></g></g><g><g><g><path fill="#ebebeb" d="M581.44 214.318c0 .14-8.277.252-18.486.252-10.211 0-18.487-.113-18.487-.252s8.276-.251 18.487-.251c10.209 0 18.485.112 18.485.251z"/></g></g></g></g><g><g><g><path fill="#f5f5f5" d="M559.063 236.132v-13.198h6.26v13.198z"/></g></g><g><g><g><path fill="#ebebeb" d="M581.44 241.312c0 .14-8.277.252-18.486.252-10.211 0-18.487-.113-18.487-.252 0-.14 8.276-.252 18.487-.252 10.209 0 18.485.113 18.485.252z"/></g></g></g></g><g><g><g><path fill="#f5f5f5" d="M559.063 263.126v-13.198h6.26v13.198z"/></g></g><g><g><g><path fill="#ebebeb" d="M581.44 268.305c0 .14-8.277.252-18.486.252-10.211 0-18.487-.113-18.487-.252s8.276-.251 18.487-.251c10.209 0 18.485.112 18.485.251z"/></g></g></g></g><g><g><g><path fill="#f5f5f5" d="M559.063 289.347V276.15h6.26v13.198z"/></g></g><g><g><g><path fill="#ebebeb" d="M581.44 294.527c0 .14-8.277.252-18.486.252-10.211 0-18.487-.113-18.487-.252 0-.14 8.276-.252 18.487-.252 10.209 0 18.485.113 18.485.252z"/></g></g></g></g><g><g><g><path fill="#f5f5f5" d="M559.063 315.675v-13.198h6.26v13.198z"/></g></g><g><g><path fill="#f5f5f5" d="M559.063 342.347v-13.198h6.26v13.198z"/></g></g><g><g><g><path fill="#ebebeb" d="M581.44 320.855c0 .138-8.277.251-18.486.251-10.211 0-18.487-.113-18.487-.251 0-.14 8.276-.252 18.487-.252 10.209 0 18.485.113 18.485.252z"/></g></g></g></g><g><g><path fill="#fff" d="M521.769 209.538V196.34h6.26v13.198z"/></g></g><g><g><g><path fill="#e0e0e0" d="M544.146 214.718c0 .14-8.278.252-18.487.252-10.21 0-18.486-.112-18.486-.252s8.275-.252 18.486-.252c10.21 0 18.487.113 18.487.252z"/></g></g></g><g><g><path fill="#fff" d="M521.769 236.141v-13.197h6.26v13.197z"/></g></g><g><g><g><path fill="#e0e0e0" d="M544.146 241.321c0 .139-8.278.252-18.487.252-10.21 0-18.486-.113-18.486-.252s8.275-.252 18.486-.252c10.21 0 18.487.113 18.487.252z"/></g></g></g><g><g><path fill="#fff" d="M521.769 262.744v-13.198h6.26v13.198z"/></g></g><g><g><g><path fill="#e0e0e0" d="M544.146 267.924c0 .14-8.278.252-18.487.252-10.21 0-18.486-.113-18.486-.252 0-.14 8.275-.252 18.486-.252 10.21 0 18.487.112 18.487.252z"/></g></g></g><g><g><path fill="#fff" d="M521.769 289.347V276.15h6.26v13.198z"/></g></g><g><g><g><path fill="#e0e0e0" d="M544.146 294.527c0 .14-8.278.252-18.487.252-10.21 0-18.486-.113-18.486-.252 0-.14 8.275-.252 18.486-.252 10.21 0 18.487.113 18.487.252z"/></g></g></g><g><g><path fill="#fff" d="M521.769 315.95v-13.198h6.26v13.198z"/></g></g><g><g><g><path fill="#e0e0e0" d="M544.146 321.13c0 .14-8.278.252-18.487.252-10.21 0-18.486-.112-18.486-.252s8.275-.252 18.486-.252c10.21 0 18.487.113 18.487.252z"/></g></g></g><g><g><g><path fill="#fff" d="M521.769 342.553v-13.198h6.26v13.198z"/></g></g></g></g></g><g><path fill="#e7e7e7" d="M57.207 346.515c-9.527-13.436-32.183-18.439-40.01-26.922-10.255-11.116-10.196-27.788-1.466-33.805 7.587-5.23 32.71 30.126 35.54 34.075 9.734 13.585 12.563 23.668 14.388 33.435-.208-8.303-.407-15.925-.57-21.808-.532-19.184-1.197-25.355-1.5-27.254-1.05-.927-2.288-2.008-3.008-2.587-6.08-4.9-19.525-8.683-26.267-15.806-9.843-10.4-7.91-26.814-2.605-29.81 7.572-4.273 23.083 5.95 27.97 18.233 3.727 9.364 5.068 19.391 5.78 31.637.111 1.888.807 8.871 1.19 18.611 2.056-10.48 6.15-17.502 13.738-24.044 9.333-8.046 17.39-17.846 25.08-16.58 7.69 1.268 3.55 14.233-2.533 23.335-5.419 8.107-32.146 16.192-36.083 22.71.463 13.202.877 29.927 1.172 45.5 2.107-8.044.658-8.72 9.293-21.034 5.134-7.32 26.178-16.35 28.687-11.319 2.463 4.937-1.305 14.537-9.25 21.197-6.408 5.37-20.628 5.365-23.919 8.698-.767.777-3.306 3.758-4.756 5.472.344 19.012.498 35.794.328 41.516l-1.38.058c.066-1.478-.1-11.149-.372-23.947-3.452-6.81-26.698-10.785-33.88-17.867-7.514-7.412-12.914-16.06-9.691-21.853 2.687-4.828 23.87 1.738 32.468 9.74 5.725 5.328 9.223 11.017 10.856 18.657-.196-8.718-.418-18.085-.636-26.925-1.739-2.205-5.708-7.286-8.564-11.313z"/></g><g><g><path fill="#263238" d="M149.544 188.909c.269-.29 3.026-3.116 1.997-4.825-.9 1.798-2.527 4.525-7.632 4.975.9-2.228.86-4.835.86-4.835s-1.23 2.977-3.667 4.866c-2.458-.141-5.494-.71-9.3-1.889-12.868 1.18-13.178-8.951-13.288-11.209-.229 1.42-.608 3.547-.44 4.605-2.776-4.414-2.336-11.108 1.33-12.357.669-14.235 10.959-15.505 13.546-16.073 4.665-1.02 12.818-4.935 16.863 3.447 5.664 3.046 7.832 10.209 5.384 21.137 4.866 7.852-5.145 11.958-5.653 12.158z"/></g><g><path fill="#263238" d="M131.004 432.282c6.718 0 7.606-.103 11.381-.23 3.233-.115 4.006.288 6.604.23 2.17-.046 2.09-2.123 1.42-4.514-.335-1.2-.851-3.737-1.313-5.677l-10.209 1.072c-1.386 2.643-4.145 4.629-7.931 5.137-3.614.485-2.63 3.982.048 3.982z"/></g><g><path fill="#263238" d="M125.495 407.968c3.98-5.269 4.987-7.293 7.132-10.332 1.834-2.608 2.189-1.957 4.138-4.526 1.291-1.703.1-4.115-1.758-4.65-1.447-.415-3.358-.678-5.028-1.496l-6.703 4.943c1.225 3.162 1.36 10.41-1.39 14.628-1.958 3.02 2.01 3.539 3.609 1.433z"/></g><g><path fill="#007cff" d="M100.196 246.87s-19.309 55.2-21.807 75.406c-2.441 19.757 45.414 71.136 45.414 71.136 1.16.878 5.949-5.083 6.222-6.647 0 0-19.002-41.846-32.234-63.86 28.64-42.449 33.626-71.091 33.626-71.091z"/></g><g><path fill="#007cff" d="M109.558 248.353s10.79 55.59 14.908 82.341c4.324 28.097 15.502 74.096 14.421 92.469 1.574.914 7.354-.64 10.453-1.61 0 0 7.943-60.264-5.752-88.084 8.86-65.008-7.57-80.927-7.57-80.927z"/></g><g><path fill="#263238" d="M138.114 415.127c-.03 1.65-.114 4.527-.355 6.722-.087.793.213 1.526.661 1.654 3.735 1.065 9.14-.479 10.856-1.028.33-.106.578-.57.63-1.158l.557-6.288c.076-.86-.302-1.633-.79-1.616l-10.79.37c-.418.015-.756.6-.769 1.344z"/></g><g><path fill="#263238" d="M117.91 387.51a352.494 352.494 0 0 1 4.21 5.83c.44.628 1.097.964 1.496.778 2.99-1.387 6.565-5.174 7.715-6.447.227-.252.173-.76-.131-1.264l-3.276-5.428c-.447-.74-1.242-1.167-1.65-.885L117.741 386c-.349.241-.278.904.168 1.51z"/></g><g><path fill="#cd5b51" d="M112.474 205.587a39.5 39.5 0 0 1-.694-1.075l-.597-.985a56.66 56.66 0 0 1-1.088-1.974 71.753 71.753 0 0 1-1.947-4.005 64.048 64.048 0 0 1-3.027-8.35 59.605 59.605 0 0 1-1.842-8.744c-.213-1.48-.336-2.98-.421-4.479-.021-.754-.07-1.502-.063-2.256l-.005-1.13c.018-.483.025-1.01.073-1.457.174-1.823.536-3.35.946-4.83.41-1.472.882-2.861 1.373-4.23.998-2.724 2.125-5.32 3.312-7.87 2.382-5.102 5.044-9.953 7.999-14.725a2.734 2.734 0 0 1 4.901 2.355l-.017.048c-1.814 5.086-3.604 10.248-5.255 15.328-.815 2.545-1.586 5.09-2.225 7.592-.32 1.246-.616 2.488-.83 3.682-.208 1.185-.364 2.356-.377 3.266-.009.235.02.393.018.594l.079.922c.04.614.132 1.23.196 1.842.178 1.226.354 2.45.6 3.67a61.357 61.357 0 0 0 1.923 7.232 71.36 71.36 0 0 0 2.753 7.015 60.732 60.732 0 0 0 1.634 3.383l.885 1.627.442.787.395.667.146.248a5.491 5.491 0 0 1-1.93 7.521c-2.516 1.49-5.746.725-7.357-1.67z"/></g><g><path fill="#cd5b51" d="M126.228 137.034c-.176 1.37-.765 2.56-1.641 3.314l-4.299 3.7c-.617.53-1.43.63-2.169.247l-2.351-1.213c-.35-5.11 2.175-9.632 2.175-9.632l1.06-4.085c.188-.72.805-1.062 1.377-.765l5.614 2.92c.509.265.82.955.734 1.627z"/></g><g><path fill="#263238" d="M115.483 212.316c14.217-4.813 7.44-15.194 3.587-24.982-3.727-2.835-14.77 8.815-14.77 8.815s-2.794 15.092 11.183 16.167z"/></g><g><path fill="#263238" d="M104.843 204.378c-.666 3.505-1.516 7.94-2.359 16.424-.849 7.16-1.469 14.24-2.288 26.069l35.822 5.671c.876-10.205 3.873-21.519 13.9-43.205 2.325-5.028-.2-10.61-5.426-11.99a86.228 86.228 0 0 0-4.415-1.047c-5.96-1.24-10.855-2.213-16.267-2.574-1.793-.12-3.661-.188-5.451-.221-6.46-.124-12.322 4.592-13.516 10.873z"/></g><g><path fill="#cd5b51" d="M141.835 177.804c-2.245 5.01-5.501 14.324-2.653 18.355 0 0-4.84-1.53-16.395 3.314-2.356-4.854.13-5.889.13-5.889 6.16-.453 7.017-4.756 6.947-8.935z"/></g><g><path fill="#fff" d="M125.207 198.512c3.389 1.042 3.645 6.45 3.645 6.45s9.259-4.57 12.555-8.307c-1.133-.843-2.735-2.41-2.735-2.41s-11.124 2.587-13.465 4.267z"/></g><g><path fill="#fff" d="M122 197.433s-3.122.333-4.873 4.374c.416-7.759 4.186-8.494 4.186-8.494s1.21-.603 3.206.044c-2.98 1.016-2.519 4.076-2.519 4.076z"/></g><g opacity=".2"><path d="M136.954 180.598l-7.084 4.047c.02.99-.018 1.984-.17 2.932 2.304.035 5.936-1.899 6.717-4.168.389-1.131.6-2.245.537-2.811z"/></g><g><path fill="#cd5b51" d="M147.967 168.007c-2.926 8.2-3.99 11.723-9.453 15.013-8.219 4.949-17.674.145-17.262-8.62.37-7.892 5.092-19.975 14.242-21.387 9.015-1.39 15.399 6.795 12.473 14.994z"/></g><g><path fill="#263238" d="M145.69 156.5c-4.42 2.661-4.279 16.95 3.087 15.908"/></g><g><path fill="#263238" d="M149.817 155.61c-5.114 8.027-24.443 1.078-28.994-2.751 3.28.976 8.804.121 12.798-.85 3.994-.973 15.064-6.222 16.196 3.602z"/></g><g><path fill="#263238" d="M124.103 151.282c3.922 1.11 10.453 1.554 16.717-.445l5.846-.477c-4.26-2.808-15.83.81-22.563.922z"/></g><g><path fill="#263238" d="M136.95 167.707c-.214.699-.756 1.18-1.21 1.073-.452-.107-.644-.759-.427-1.458.215-.699.757-1.179 1.21-1.073.452.107.644.76.428 1.458z"/></g><g><path fill="#263238" d="M128.204 165.368c-.216.699-.757 1.18-1.21 1.073-.453-.107-.645-.759-.429-1.458.216-.699.757-1.179 1.21-1.073.453.106.645.76.429 1.458z"/></g><g><path fill="#263238" d="M127.963 163.996l-1.513-.874"/></g><g><path fill="#ba221f" d="M130.42 167.535s-2.104 2.732-3.846 3.88c.648 1.076 2.323 1.047 2.323 1.047z"/></g><g><path fill="#263238" d="M132.081 175.98a6.78 6.78 0 0 1-1.192-.172.194.194 0 0 1-.14-.254.23.23 0 0 1 .267-.157c3.035.714 5.118-1.096 5.139-1.114.09-.08.225-.078.3.006.075.083.062.217-.028.298-.08.071-1.757 1.53-4.346 1.392z"/></g><g><path fill="#cd5b51" d="M148.58 175.93c-1.295 1.59-3.116 2.425-4.683 2.558-2.358.2-2.956-2.193-1.814-4.337 1.028-1.93 3.493-4.36 5.624-3.555 2.101.791 2.356 3.513.874 5.333z"/></g><g><path fill="#263238" d="M140.304 162.581a.386.386 0 0 1-.274-.172c-.986-1.53-2.551-1.484-2.569-1.483a.391.391 0 0 1-.412-.404.464.464 0 0 1 .44-.439c.082-.002 2.046-.062 3.27 1.836.12.19.056.454-.144.588a.445.445 0 0 1-.311.074z"/></g><g><path fill="#263238" d="M126.446 160.764a.391.391 0 0 1-.283-.12c-.155-.163-.138-.43.038-.596 1.767-1.664 3.668-1.305 3.749-1.289.226.046.359.268.296.496a.462.462 0 0 1-.523.332c-.075-.016-1.553-.273-2.959 1.05a.458.458 0 0 1-.318.127z"/></g><g><path fill="#263238" d="M136.71 166.335l-1.513-.874"/></g><g><path fill="#cd5b51" d="M126.418 250.708l1.792-2.028a3.148 3.148 0 0 1 2.687-1.045l4.729.495a5.874 5.874 0 0 1 4.503 2.957l.577 1.026c-2.743 3.566-8.333 5.398-8.333 5.398l-1.536.7c-1.368.621-2.9.089-3.519-1.225l-1.425-3.025c-.492-1.046-.284-2.34.525-3.253z"/></g><g><path fill="#cd5b51" d="M153.252 208.56c.296.7.522 1.261.764 1.88.235.604.449 1.213.661 1.818.427 1.213.824 2.43 1.206 3.654a84.459 84.459 0 0 1 1.907 7.469 71.724 71.724 0 0 1 1.18 7.725c.263 2.62.312 5.305.192 8.021l-.013.283c-.01.256-.056.522-.118.76-.508 1.874-1.417 3.291-2.345 4.388-.939 1.102-1.914 1.937-2.884 2.673-1.94 1.453-3.908 2.447-5.858 3.33a49.307 49.307 0 0 1-5.904 2.126c-1.996.572-3.933 1.043-6.042 1.373a2.748 2.748 0 0 1-1.722-5.14l.12-.063c1.608-.856 3.327-1.755 4.932-2.68 1.62-.924 3.2-1.874 4.667-2.88 1.471-.985 2.831-2.065 3.889-3.113.519-.522.953-1.05 1.21-1.492.26-.444.334-.762.28-.794l-.132 1.043a59.302 59.302 0 0 0-.675-6.524 91.145 91.145 0 0 0-1.39-6.624 131.924 131.924 0 0 0-1.877-6.61 94.825 94.825 0 0 0-1.072-3.274l-.572-1.611-.552-1.52-.073-.202a5.493 5.493 0 0 1 3.289-7.037c2.756-1.001 5.797.355 6.932 3.021z"/></g><g><path fill="#263238" d="M143.84 197.177c5.887 1.023 8.24 4.327 12.841 16.281-2.272 4.384-12.601 8.424-12.601 8.424s-5.273-16.894-.24-24.705z"/></g></g><g><g><path fill="#ff8b7b" d="M273.825 416.894l8.292-2.277-4.529-19.454-8.291 2.276z"/></g><g><path fill="#263238" d="M280.979 411.162l-9.098 2.337a.707.707 0 0 0-.536.745l.622 7.747c.066.803.871 1.373 1.654 1.158 3.264-.899 7.948-2.307 12.073-3.367 4.823-1.24 4.39-.926 10.047-2.38 3.42-.878 3.31-4.541 1.783-4.484-6.955.265-7.643.357-14.34-1.63-.728-.215-1.486-.311-2.205-.126z"/></g><g opacity=".2"><path d="M277.588 395.169l2.336 10.027-8.295 2.278-2.336-10.028z"/></g><g><g><path fill="#007cff" d="M286.885 409.025c.09.025.14.078.169.18a.778.778 0 0 1-.107.705c-.42.592-1.776 1.025-3.681 1.19 1.192-.979 2.867-2.148 3.541-2.089a.433.433 0 0 1 .078.014zm-4.249 2.527c.01 0 .018.002.028 0 1.4-.074 3.86-.356 4.607-1.41.225-.318.282-.677.17-1.067a.61.61 0 0 0-.434-.448c-1.13-.311-4.133 2.27-4.472 2.565a.216.216 0 0 0-.063.233c.026.072.09.12.164.127z"/></g><g><path fill="#007cff" d="M284.37 407.568c.174.016.208.103.221.137.209.548-.854 2.33-1.754 3.22-.029-.691-.01-2.126.57-2.885a1.128 1.128 0 0 1 .963-.472zm-1.734 3.984c.05.004.103-.01.144-.044.914-.715 2.536-3.052 2.188-3.967-.081-.216-.296-.454-.85-.37a1.554 1.554 0 0 0-1.026.624c-.881 1.155-.64 3.485-.63 3.583a.194.194 0 0 0 .174.174z"/></g></g><g><path fill="#263238" d="M245.519 319.307c-18.737-41.108-32.165-57.91-32.468-80.06l29.85-5.468s23.215 56.363 25.663 82.147c2.547 26.808 12.614 83.033 12.614 83.033l-13.613 2.581s-21.379-51.864-22.046-82.233z"/></g><g opacity=".2"><path d="M215.868 256.133c3.43 11.028 9.798 22.701 18.052 39.093"/></g><g><path fill="#263238" d="M282.388 394.975l.324 6.04-14.722 3.965-1.956-5.295z"/></g><g><path fill="#ff8b7b" d="M201.896 405.125l-.68 19.97 9.552-.136.68-19.969z"/></g><g><path fill="#263238" d="M210.544 422.355l-9.385.147a.664.664 0 0 0-.665.6l-.817 7.677c-.086.796.603 1.538 1.412 1.512 3.38-.111 4.442-.386 8.697-.453 4.976-.078 2.68.126 8.515.034 3.527-.055 4.093-3.627 2.582-3.944-4.781-1-6.036-2.904-8.192-4.936-.564-.531-1.405-.65-2.147-.637z"/></g><g opacity=".2"><path d="M201.89 405.13l-.349 10.294 9.556-.135.349-10.294z"/></g><g><g><path fill="#007cff" d="M212.625 420.03c.028 0 .055 0 .081.004.093.014.152.061.198.157.119.25.12.48.006.7-.326.629-1.62 1.212-3.508 1.599 1.041-1.097 2.536-2.437 3.223-2.46zm-3.782 2.976c.009 0 .018 0 .028-.002 1.394-.24 3.82-.806 4.401-1.924.175-.337.175-.695 0-1.063a.647.647 0 0 0-.509-.386c-1.185-.169-3.787 2.708-4.08 3.036a.203.203 0 0 0-.025.234c.038.068.11.108.185.105z"/></g><g><path fill="#007cff" d="M209.945 418.91c.179-.005.226.075.244.107.298.511-.484 2.378-1.245 3.353-.14-.672-.352-2.076.108-2.885.16-.282.384-.458.683-.54a.905.905 0 0 1 .21-.035zm-.964 4.036c.803-.807 2.057-3.282 1.56-4.134-.116-.2-.37-.407-.913-.26-.404.11-.717.356-.93.731-.7 1.231-.085 3.48-.058 3.574a.205.205 0 0 0 .203.15.205.205 0 0 0 .138-.06z"/></g></g><g><path fill="#263238" d="M202.011 326.073c-2.71-30.788-10.234-60.953-7.72-83.654l31.213-5.239s4.498 63.63 1.068 89.857c-3.565 27.268-12.826 82.054-12.826 82.054l-13.88.197s-1.533-53.083 2.145-83.215z"/></g><g><path fill="#263238" d="M215.77 406.013l-.908 5.939-15.561.272-.88-5.612z"/></g><g><path fill="#ff8b7b" d="M221.97 155.983c2.625.797 5.445 1.641 8.177 2.418 2.75.795 5.509 1.522 8.248 2.216 2.742.672 5.475 1.282 8.144 1.755 1.33.23 2.647.4 3.91.542 1.26.136 2.484.2 3.507.16l-2.733.993c-.253.183-.464.54-.476.657-.026.12.069.018.139-.255.153-.559.159-1.651.017-2.793-.289-2.332-.977-5.012-1.842-7.645-.847-2.658-1.863-5.339-2.936-8.02-1.064-2.672-2.244-5.39-3.376-8.005l-.038-.089a3.252 3.252 0 0 1 5.537-3.31c1.951 2.47 3.655 4.958 5.32 7.569a87.323 87.323 0 0 1 4.585 8.15 59.17 59.17 0 0 1 1.944 4.435c.597 1.542 1.147 3.143 1.549 4.912.392 1.776.733 3.674.56 6.079-.099 1.2-.355 2.564-1.021 4.028-.651 1.46-1.853 2.989-3.325 4.021-.771.54-1.63.859-2.504.968l-.23.027c-3.816.464-7.052.235-10.272-.088-3.191-.338-6.27-.858-9.299-1.483-3.03-.61-6.003-1.349-8.95-2.148-2.962-.82-5.812-1.672-8.803-2.73a6.525 6.525 0 0 1 4.057-12.398z"/></g><g><path fill="#ff8b7b" d="M244.22 140.086l-6.89-5.945 9.004-5.3s6.286 6.085 3.023 9.9z"/></g><g><path fill="#ff8b7b" d="M235.95 127.548l3.97-2.504a2.508 2.508 0 0 1 3.15.387l3.264 3.41-9.003 5.3-2.107-3.046a2.507 2.507 0 0 1 .725-3.547z"/></g><g><g><path fill="#007cff" d="M216.352 153.258c8.414-1.272 22.148 6.57 22.148 6.57l-3.002 18.673s-6.388-.486-14.77-4.713c-2.538-1.28-14.341-19.024-4.376-20.53z"/></g></g><g><path fill="#007cff" d="M217.324 153.156c-9.295.906-23.515 4.17-32.879 7.955-4.991 2.019-8.127 6.988-7.718 12.356.95 12.447 8.018 32.328 17.014 69.557 4.67.962 17.956-.543 28.442-2.424 1.14-.205 3.668-3.199 3.668-3.199s2.763 1.932 4.206 1.601c6.911-1.584 12.36-3.385 13.499-4.9-3.54-8.452-6.524-33.28-9.31-48.133-.682-5.893-2.458-16.716-5.378-22.699-2.76-5.653-5.282-10.723-11.544-10.114z"/></g><g><path fill="#ff8b7b" d="M194.507 141.53c1.112 6.366 2.11 13.839-1.109 18.666 2.947 3.71 9.318 6.295 15.531 7.34 3.512-4.95 2.67-9.32.716-11.74-3.76-2.236-3.522-6.124-3.603-8.81z"/></g><g><path fill="#263238" d="M208.93 167.535s1.18-1.808 1.194-3.74c.014-1.934 3.472-.932 3.472-.932s-1.465 2.805-4.667 4.672z"/></g><g><path fill="#263238" d="M208.93 167.535s-.618-2.138-3.294-2.32c-2.677-.181-4.956.877-4.956.877s4.939 1.8 8.25 1.443z"/></g><g opacity=".2"><path d="M197.258 143.943c-.082-.402-.144-.81-.202-1.208l8.985 4.256c.046 1.606-.016 3.65.729 5.506-4.177-1.22-8.76-4.72-9.512-8.554z"/></g><g><path fill="#e0e0e0" d="M205.201 117.208c5.214-.87 8.846 5.234 4.376 13.812-3.093-1.48-5.65-6.432-5.65-6.432z"/></g><g><path fill="#ff8b7b" d="M189.415 133.382c3.58 7.745 5.284 12.465 10.874 14.94 8.408 3.722 16.77-3.827 15.571-12.51-1.078-7.815-6.754-19.169-15.74-19.226-8.854-.056-14.286 9.05-10.705 16.796z"/></g><g><g><path fill="#263238" d="M212.925 137.468s-2.658-.008-9.652 1.596c1.434 1.937 3.464 3.32 7.036 2.465 3.573-.856 2.616-4.061 2.616-4.061z"/></g><g><path fill="#ff5551" d="M208.165 140.24c1.724-.413 3.088-.301 4.199.132-.401.49-1.054.914-2.053 1.153-1.723.412-3.077.309-4.19-.134.401-.49 1.046-.912 2.044-1.151z"/></g><g><path fill="#fff" d="M212.59 137.48c-.067.498-.133.997-.791 1.306-1.429.434-5.28.871-6.342.89-.673.041-1.284-.055-1.881-.68 5.389-1.223 8.124-1.468 9.014-1.516z"/></g></g><g opacity=".2"><path d="M202.716 137.893s-1.973.274-1.261 1.735"/></g><g><path fill="#e0e0e0" d="M193.892 138.583l3.53-.656s-2.443-6.838-5.375-8.683c1.736-1.683 4.369-5.082 5.153-7.448 1.732-5.21-.433-9.321-2.712-11.328-.602 3.31-2.773 6.675-6.189 8.52-3.416 1.845-7.052 6.486-2.765 8.316-4.613 2.863-2.279 8.677 8.358 11.278z"/></g><g><path fill="#e0e0e0" d="M196.073 123.774c6.953.168 11.753-6.95 5.737-15.537-.773 4.864-7.484 7.77-7.484 7.77z"/></g><g><path fill="#e0e0e0" d="M202.226 120.975c4.468 1.074 7.99-3.998 4.638-11.709-.793 3.804-5.292 5.233-5.292 5.233z"/></g><g opacity=".2"><path d="M199.859 131.644s-2.115-.365-3.462.814"/></g><g opacity=".2"><path d="M199.997 132.481s-1.957.076-2.853 1.498"/></g><g opacity=".2"><path d="M210.952 127.295s.636-1.201 1.379-1.05"/></g><g opacity=".2"><path d="M211.106 127.9s.687-.842 1.335-.327"/></g><g><path fill="#ff8b7b" d="M188.674 140.466c1.261 1.916 3.295 3.064 5.155 3.406 2.798.513 3.964-2.054 2.991-4.561-.874-2.257-3.384-5.244-6.098-4.622-2.674.612-3.489 3.585-2.048 5.777z"/></g><g><path fill="#263238" d="M201.155 131.669c.253.646.799 1.034 1.22.865.422-.169.56-.83.307-1.476-.251-.647-.798-1.034-1.22-.865-.42.168-.559.829-.307 1.476z"/></g><g><path fill="#263238" d="M209.205 128.463c.252.646.798 1.034 1.22.865.421-.168.56-.83.307-1.476-.252-.647-.798-1.034-1.22-.866-.421.17-.56.83-.307 1.477z"/></g><g><path fill="#ff5551" d="M206.544 129.556s3.039 3.029 5.397 4.092c-.666 1.551-2.783 1.92-2.783 1.92z"/></g><g><path fill="#263238" d="M197.925 128.48a.403.403 0 0 1-.487-.504c.612-2.18 2.398-2.777 2.474-2.801a.404.404 0 0 1 .51.264.414.414 0 0 1-.266.514c-.06.02-1.447.499-1.935 2.24a.412.412 0 0 1-.296.288z"/></g><g><path fill="#263238" d="M210.415 123.567a.401.401 0 0 1-.384 0c-1.576-.854-2.878-.176-2.933-.146a.404.404 0 0 1-.549-.166.41.41 0 0 1 .164-.553c.073-.038 1.732-.926 3.706.145a.409.409 0 0 1-.004.72z"/></g><g><g><path fill="#ff8b7b" d="M188.476 174.624c-.936 2.714-1.977 5.456-2.945 8.194l-3.008 8.189-2.994 8.168c-.969 2.723-1.958 5.432-2.887 8.139l-.038-3.446c.714 2.554 2.02 5.594 3.389 8.503a223.877 223.877 0 0 0 4.449 8.854c1.544 2.96 3.15 5.914 4.761 8.872l4.847 8.882.01.019a3.251 3.251 0 0 1-5.294 3.703c-2.305-2.62-4.444-5.289-6.567-8.016a211.181 211.181 0 0 1-6.144-8.355c-1.966-2.86-3.908-5.76-5.708-8.823-1.796-3.098-3.56-6.158-4.97-10.068a5.128 5.128 0 0 1-.149-3.01l.111-.437a225.89 225.89 0 0 1 2.351-8.675 282.419 282.419 0 0 1 2.616-8.526c.902-2.826 1.86-5.63 2.847-8.421 1.019-2.787 1.99-5.561 3.111-8.345a6.527 6.527 0 0 1 12.228 4.551z"/></g><g><g><path fill="#007cff" d="M183.935 161.334c-9.334 3.365-14.437 21.525-14.437 21.525l14.874 13.25s6.134-4.391 7.379-13.696c.955-7.14 1.665-24.497-7.816-21.079z"/></g></g><g><path fill="#ff8b7b" d="M191.185 234.875l7.664 4.142-7.343 7.43s-6.484-4.592-4.601-8.431z"/></g><g><path fill="#ff8b7b" d="M201.503 247.667l-3.012 2.17a3.02 3.02 0 0 1-3.896-.311l-3.09-3.078 7.344-7.431 3.301 4.385a3.019 3.019 0 0 1-.647 4.265z"/></g></g><g><path fill="#fff" d="M194.733 156.448c.398 1.936 2.165 8.409 10.903 8.767-3.017.984-3.723 6.725-3.723 6.725s-8.986-5.665-9.866-12.745c.234-1.868 2.686-2.747 2.686-2.747z"/></g><g><path fill="#fff" d="M207.208 153.064c.388 1.893 3.33 5.063 2.916 10.73 3.033-.93 6.858 1.631 6.858 1.631s-.843-5.942-6.105-11.57c-2.067-.896-3.67-.79-3.67-.79z"/></g></g></g><g><g><g><g><g><path fill="#ebebeb" d="M415.874 87.845c.641-4.653-5.926-8.48-10.86-8.878-2.354-.19-4.798.17-7.028-.607-4.83-1.684-6.759-7.923-11.471-9.912-3.525-1.485-7.58-.162-10.996 1.557-3.417 1.72-6.793 3.883-10.608 4.127-3.32.212-6.924-1.019-9.829.603-2.164 1.208-3.298 3.702-5.292 5.173-1.952 1.44-4.498 1.744-6.92 1.876-2.42.131-4.927.156-7.132 1.165-2.205 1.01-4.028 3.341-3.57 5.723z"/></g></g></g><g><g><g><path fill="#ebebeb" d="M516.893 27.725c.465-3.378-4.303-6.157-7.885-6.446-1.709-.138-3.483.124-5.102-.44-3.507-1.222-4.907-5.753-8.329-7.196-2.557-1.079-5.502-.118-7.982 1.13-2.48 1.248-4.93 2.818-7.701 2.996-2.41.154-5.027-.74-7.136.438-1.57.877-2.394 2.687-3.842 3.756-1.417 1.044-3.265 1.266-5.023 1.361-1.758.096-3.578.114-5.178.847-1.6.732-2.925 2.425-2.592 4.154z"/></g></g></g><g><g><g><path fill="#f5f5f5" d="M196.603 25.202c.801-5.825-7.419-10.617-13.596-11.114-2.945-.238-6.005.213-8.796-.76-6.047-2.107-8.461-9.918-14.362-12.407-4.41-1.86-9.487-.204-13.763 1.948s-8.502 4.86-13.28 5.166c-4.155.266-8.667-1.275-12.303.755-2.71 1.513-4.128 4.634-6.625 6.476-2.443 1.802-5.63 2.183-8.66 2.348-3.032.165-6.17.195-8.93 1.46-2.76 1.263-5.043 4.182-4.47 7.162z"/></g></g></g><g><g><path fill="#fafafa" d="M144.194 84.268c.402-2.92-3.72-5.323-6.817-5.572-1.477-.12-3.01.107-4.41-.381-3.031-1.057-4.242-4.973-7.2-6.221-2.212-.933-4.758-.102-6.901.977-2.144 1.079-4.262 2.437-6.658 2.59-2.083.133-4.345-.64-6.168.378-1.358.759-2.07 2.324-3.321 3.247-1.225.903-2.823 1.095-4.343 1.178-1.52.082-3.093.098-4.477.73-1.383.634-2.528 2.097-2.24 3.593z"/></g></g><g><g><path fill="#fafafa" d="M570.794 84.268c.402-2.92-3.72-5.323-6.816-5.572-1.477-.119-3.011.107-4.41-.381-3.032-1.057-4.243-4.973-7.201-6.221-2.211-.932-4.757-.102-6.9.977-2.144 1.079-4.263 2.437-6.658 2.59-2.083.133-4.346-.64-6.169.378-1.358.759-2.07 2.324-3.32 3.247-1.226.903-2.823 1.095-4.343 1.178-1.52.082-3.093.098-4.477.73-1.383.634-2.529 2.097-2.241 3.593z"/></g></g></g></g></g></g></svg>