<svg xmlns="http://www.w3.org/2000/svg" width="693" height="578" viewBox="0 0 693 578"><defs><clipPath id="hfmpa"><path d="M314.081 481.66V210.025h155.577v271.633z"/></clipPath></defs><g><g><path fill="#a7cdf2" d="M328.254 521.16s-8.883-92.874-27.455-117.103c-18.572-24.228-44.418 8.076-16.96 80.761 0 0-59.762-159.097-91.259-118.717-31.497 40.379 26.651 92.874 45.226 111.451 0 0-83.991-62.186-88.029-16.96-4.037 45.227 92.875 61.379 92.875 61.379z"/></g><g><path fill="#7794bf" d="M110.29 482.532l9.225-4.072-6.683-2.92z"/></g><g><path fill="#ea9313" d="M105.019 395.916a3.066 3.066 0 0 1-4.099 1.914 3.57 3.57 0 0 1-1.745-4.49 3.064 3.064 0 0 1 4.097-1.916 3.574 3.574 0 0 1 1.747 4.492"/></g><g><path fill="#ea9313" d="M132.611 408.075a3.064 3.064 0 0 1-4.095 1.916 3.57 3.57 0 0 1-1.75-4.491 3.063 3.063 0 0 1 4.098-1.915 3.569 3.569 0 0 1 1.747 4.49"/></g><g><path fill="#2a4d82" d="M103.559 394.294c1.517-3.843 4.38-6.598 8.09-7.662 3.149-.903 6.016.073 8.912 1.346 2.744 1.21 5.078 2.547 6.922 5.207 2.422 3.498 2.729 8.228 1.365 12.25-.559 1.644 1.748 2.666 2.306 1.016a17.321 17.321 0 0 0-.847-13.453c-1.953-3.902-5.19-5.946-8.817-7.546-3.583-1.579-6.98-2.443-10.824-1.338-4.311 1.238-7.667 4.744-9.412 9.163-.64 1.615 1.67 2.626 2.307 1.016z"/></g><g><path fill="#7794bf" d="M145.047 408.252l-52.386-22.884-.685 11.938 38.1 16.644z"/></g><g><path fill="#396ab3" d="M110.29 482.532l-51.571-22.53 24.233-66.638 51.572 22.529z"/></g><g><path fill="#2a4d82" d="M112.832 475.54l6.684 2.92 25.532-70.21-13.076.495 2.552 7.147z"/></g><g><path fill="#9ec5fd" d="M131.97 408.747l-1.893 5.204 4.446 1.942z"/></g><g><path fill="#396ab3" d="M92.66 385.368l-3.002 8.26 8.683.34z"/></g><g><path fill="#9ec5fd" d="M82.952 393.364l15.389.604-1.92 5.28z"/></g><g><path fill="#423565" d="M93.126 403.176a3.067 3.067 0 0 1-4.098 1.915 3.571 3.571 0 0 1-1.745-4.49 3.063 3.063 0 0 1 4.092-1.916 3.574 3.574 0 0 1 1.751 4.49"/></g><g><path fill="#423565" d="M120.72 415.334a3.067 3.067 0 0 1-4.098 1.914 3.572 3.572 0 0 1-1.745-4.49 3.064 3.064 0 0 1 4.098-1.916 3.574 3.574 0 0 1 1.745 4.492"/></g><g><path fill="#2a4d82" d="M91.665 401.552c1.518-3.843 4.382-6.597 8.09-7.662 3.15-.903 6.018.072 8.913 1.348 2.744 1.208 5.078 2.545 6.92 5.206 2.422 3.498 2.73 8.228 1.364 12.248-.558 1.645 1.745 2.666 2.308 1.015a17.322 17.322 0 0 0-.847-13.45c-1.95-3.904-5.19-5.95-8.819-7.549-3.583-1.58-6.98-2.439-10.823-1.338-4.31 1.238-7.667 4.742-9.413 9.162-.64 1.615 1.672 2.627 2.307 1.017z"/></g><g><path fill="#a7cdf2" d="M110.107 433.501l-41.197-.092-4.426 52.876 49.815.11z"/></g><g><path fill="#7794bf" d="M89.523 426.908l-20.599-.046-.014 6.547 20.598.045 20.599.047.015-6.547z"/></g><g><path fill="#d84a9b" d="M68.912 433.41l5.351-4.12-.01 4.13z"/></g><g><path fill="#fd9ecc" d="M74.263 429.29l-5.337-2.428-.014 6.547z"/></g><g><path fill="#2a4d82" d="M110.107 433.501l-5.332-4.143-.008 4.13z"/></g><g><path fill="#396ab3" d="M104.775 429.358l5.347-2.404-.015 6.547z"/></g><g><path fill="#423565" d="M81.063 438.573a1.978 1.978 0 1 1-3.955.001 1.978 1.978 0 0 1 3.955 0"/></g><g><path fill="#423565" d="M102.806 438.559a1.978 1.978 0 1 1-3.956 0 1.978 1.978 0 0 1 3.956 0"/></g><g><path fill="#fff" d="M100.05 438.56a10.222 10.222 0 0 1-10.084 10.098c-5.584.117-9.988-4.667-10.1-10.085a.78.78 0 0 0-1.56 0c.091 6.4 5.261 11.562 11.66 11.645 6.44.122 11.526-5.413 11.644-11.662a.78.78 0 0 0-1.56 0z"/></g><g><path fill="#423565" d="M71.603 488.61l7.88-7.532-7.886.005z"/></g><g><path fill="#ea9313" d="M34.114 410.318a3.452 3.452 0 1 1-6.905-.016 3.452 3.452 0 0 1 6.905.016"/></g><g><path fill="#ea9313" d="M66.706 410.39a3.452 3.452 0 1 1-6.905-.011 3.452 3.452 0 0 1 6.905.008z"/></g><g><path fill="#fff" d="M32.023 409.403a13.147 13.147 0 0 1 5.393-10.405c2.87-2.119 6.15-2.378 9.57-2.372 3.243.008 6.114.3 8.975 2.022 3.763 2.264 5.83 6.532 5.934 10.82.042 1.753 2.768 1.764 2.725.005a15.945 15.945 0 0 0-5.851-12.149c-3.432-2.831-7.489-3.415-11.775-3.425-4.232-.009-8.012.574-11.514 3.159a15.738 15.738 0 0 0-6.18 12.336c-.051 1.759 2.676 1.76 2.725.005z"/></g><g><path fill="#9ec5fd" d="M79.429 405.499l-61.81.045 3.732 11.366 44.955-.033z"/></g><g><path fill="#9ec5fd" d="M10.73 488.632v-71.737h60.847v71.737z"/></g><g><path fill="#294b7f" d="M71.597 481.084l7.886-.005-.054-75.58-13.126 5.776 5.249 5.6z"/></g><g><path fill="#396ab3" d="M66.303 411.272v5.603l5.246-.004z"/></g><g><path fill="#294b7f" d="M17.62 405.543l.007 8.892 8.964-3.214z"/></g><g><path fill="#396ab3" d="M10.704 416.917l15.887-5.696.004 5.684z"/></g><g><path fill="#2a4d82" d="M24.698 421.892a3.452 3.452 0 1 1-3.446-3.46h.001a3.454 3.454 0 0 1 3.445 3.46"/></g><g><path fill="#2a4d82" d="M57.294 421.964a3.452 3.452 0 1 1-6.904-.015 3.452 3.452 0 0 1 6.904.015"/></g><g><path fill="#fff" d="M22.608 420.979a13.153 13.153 0 0 1 5.394-10.403c2.87-2.12 6.151-2.38 9.571-2.373 3.242.007 6.112.3 8.974 2.02 3.764 2.266 5.83 6.532 5.934 10.82.04 1.755 2.767 1.765 2.725.007a15.95 15.95 0 0 0-5.851-12.148c-3.433-2.831-7.489-3.415-11.776-3.424-4.234-.01-8.01.572-11.513 3.159a15.745 15.745 0 0 0-6.182 12.335c-.05 1.759 2.676 1.76 2.725.007z"/></g><g><path fill="#2a4d82" d="M322.097 166.831h139.547c9.117 0 16.508 7.391 16.508 16.509v324.768c0 9.118-7.39 16.508-16.508 16.508H322.097c-9.117 0-16.509-7.39-16.51-16.508V183.34c0-9.117 7.392-16.509 16.51-16.509"/></g><g><path fill="#fff" d="M470 209.66H313.74v179.158L470 233.638z"/></g><g><path fill="#fff" d="M313.74 388.818v93.208H470V233.639z"/></g><g><g/><g clip-path="url(#hfmpa)"><path fill="#4f627b" d="M459.334 249.945h7.618c.048 0 .087.038.087.086v.306a.086.086 0 0 1-.087.086h-7.618a.086.086 0 0 1-.086-.086v-.306c0-.048.038-.086.086-.086"/></g><g clip-path="url(#hfmpa)"><path fill="#4f627b" d="M459.334 251.663h7.618c.048 0 .087.038.087.085v.307a.086.086 0 0 1-.087.086h-7.618a.086.086 0 0 1-.086-.086v-.307c0-.047.038-.085.086-.085"/></g><g clip-path="url(#hfmpa)"><path fill="#4f627b" d="M459.334 253.38h7.618c.048 0 .087.038.087.086v.306a.086.086 0 0 1-.087.086h-7.618a.086.086 0 0 1-.086-.086v-.306c0-.048.038-.086.086-.086"/></g><g clip-path="url(#hfmpa)"><path fill="#4f627b" d="M459.334 255.097h7.618c.048 0 .087.039.087.087v.306a.086.086 0 0 1-.087.086h-7.618a.086.086 0 0 1-.086-.086v-.306c0-.048.038-.087.086-.087"/></g><g clip-path="url(#hfmpa)"><path fill="#cbcbcb" d="M314.081 461.966v-251.94H469.66v251.94z"/></g><g clip-path="url(#hfmpa)"><path fill="#9ec5fd" d="M314.422 461.625v-251.26h154.895v251.26z"/></g><g clip-path="url(#hfmpa)"><path fill="#cbcbcb" d="M314.422 220.245v-9.878h154.895v9.878z"/></g><g clip-path="url(#hfmpa)"><path fill="#353b6e" d="M416.026 213.313a3.268 3.268 0 0 0-2.317.96l2.317 3.375 2.316-3.374a3.264 3.264 0 0 0-2.316-.96"/></g><g clip-path="url(#hfmpa)"><path fill="#9082b5" d="M414.17 214.943l1.856 2.7 1.854-2.7a3.27 3.27 0 0 0-3.709 0z"/></g><g clip-path="url(#hfmpa)"><path fill="#9082b5" d="M421.816 217.687h4.339v-3.365z"/></g><g clip-path="url(#hfmpa)"><path fill="#353b6e" d="M425.1 215.164v2.547h1.058v-3.366z"/></g><g clip-path="url(#hfmpa)"><path fill="#353b6e" d="M433.732 213.141v-.24h-.613v.24h-.872v4.57h2.353v-4.57z"/></g><g clip-path="url(#hfmpa)"><path fill="#9082b5" d="M432.249 217.71v-2.829h2.353v2.83z"/></g><g clip-path="url(#hfmpa)"><path fill="#fff" d="M314.422 251.938v-31.692h154.895v31.692z"/></g><g clip-path="url(#hfmpa)"><path fill="#ddd" d="M338.561 231.788v-7.09h99.257v7.09z"/></g><g clip-path="url(#hfmpa)"><path fill="#fff" d="M314.422 481.66V267.969h154.895v213.69z"/></g><g clip-path="url(#hfmpa)"><path fill="#9082b5" d="M320.576 225.787h9.877c.048 0 .086.038.086.086v.444a.086.086 0 0 1-.086.087h-9.877a.086.086 0 0 1-.086-.087v-.444c0-.048.038-.086.086-.086"/></g><g clip-path="url(#hfmpa)"><path fill="#9082b5" d="M320.576 228.002h9.877c.048 0 .086.039.086.087v.444a.086.086 0 0 1-.086.086h-9.877a.086.086 0 0 1-.086-.086v-.444c0-.048.038-.086.086-.086"/></g><g clip-path="url(#hfmpa)"><path fill="#9082b5" d="M320.576 230.217h9.877c.048 0 .086.039.086.087v.444a.086.086 0 0 1-.086.086h-9.877a.086.086 0 0 1-.086-.086v-.444c0-.048.038-.087.086-.087"/></g><g clip-path="url(#hfmpa)"><path fill="#9ec5fd" d="M383.307 303.283c20.545-3.393 39.95 10.512 43.343 31.056 3.393 20.546-10.512 39.951-31.057 43.344-20.545 3.393-39.95-10.511-43.343-31.056-3.393-20.545 10.511-39.95 31.057-43.344"/></g><g clip-path="url(#hfmpa)"><path fill="#fff" d="M382.237 360.422a1.396 1.396 0 1 1 1.396-1.396zm0-5.019a3.625 3.625 0 1 0 3.624 3.626 3.624 3.624 0 0 0-3.623-3.626z"/></g><g clip-path="url(#hfmpa)"><path fill="#fff" d="M400.46 360.422a1.396 1.396 0 1 1 1.396-1.396zm0-5.019a3.625 3.625 0 1 0 3.625 3.625z"/></g><g clip-path="url(#hfmpa)"><path fill="#fff" d="M372.424 331.23h35.937l-2.454 9.06-28.107 4.516zm32.95 22.885v-2.385h-24.83l-1.846-4.653 29.11-4.678 3.664-13.554h-39.995l-2.775-7.004h-8.597v2.385h6.98l11.837 29.89z"/></g><g clip-path="url(#hfmpa)"><path fill="#9ec5fd" d="M341.777 418.612v-14.595h100.186v14.595z"/></g><g clip-path="url(#hfmpa)"><path fill="#9ec5fd" d="M341.777 441.986V427.39h100.186v14.595z"/></g><g clip-path="url(#hfmpa)"><path fill="#f1f1f2" d="M348.907 409.495a1.339 1.339 0 0 1-1.328 1.348h-.041a1.339 1.339 0 0 1 .02-2.676zm-3.765 4.686c.087-1.62 1.122-2.885 2.39-2.903h.048c1.27.015 2.308 1.281 2.395 2.903zm5.272.433v-.216a4.32 4.32 0 0 0-.038-.546l-.013-.104c-.06-.4-.18-.788-.355-1.153l-.068-.14a3.047 3.047 0 0 0-1.475-1.425 1.778 1.778 0 1 0-1.814 0 3.044 3.044 0 0 0-1.478 1.428l-.066.138a4.098 4.098 0 0 0-.355 1.155l-.012.1c-.025.182-.037.365-.038.547v.216z"/></g><g clip-path="url(#hfmpa)"><path fill="#f1f1f2" d="M346.333 433.543v-1.005a1.225 1.225 0 0 1 2.45 0v1.005zm3.248 4.448h-4.046v-4.046h4.046zm.404.402v-4.85h-.797v-1.005a1.628 1.628 0 0 0-3.258 0v1.005h-.797v4.85z"/></g><g clip-path="url(#hfmpa)"><path fill="#f1f1f2" d="M347.81 435.764l-.045.03v1.105h-.412v-1.105l-.046-.03a.458.458 0 0 1-.216-.382.467.467 0 1 1 .935 0 .457.457 0 0 1-.215.382zm-.25-1.055a.672.672 0 0 0-.673.673.652.652 0 0 0 .26.519v1.199h.822v-1.2a.655.655 0 0 0 .261-.518z"/></g><g clip-path="url(#hfmpa)"><path fill="#9082b5" d="M445.985 217.727v-4.843h15.79v4.843z"/></g></g><g><path fill="#fff" d="M380.484 497.019c2.992-6.288 10.515-8.96 16.803-5.969 6.288 2.992 8.96 10.515 5.969 16.803-2.992 6.288-10.515 8.96-16.803 5.969-6.288-2.992-8.96-10.515-5.969-16.803"/></g><g><path fill="#fff" d="M405.589 191.048h-27.437a1.175 1.175 0 0 1-1.172-1.172 1.175 1.175 0 0 1 1.172-1.171h27.437c.646.002 1.17.525 1.171 1.171a1.175 1.175 0 0 1-1.171 1.172"/></g><g><path fill="#fff" d="M393.501 178.29a1.629 1.629 0 1 0-3.257 0 1.629 1.629 0 0 0 3.257 0"/></g><g><path fill="#fff" d="M364.703 186.865a3.011 3.011 0 1 1 0 6.023 3.011 3.011 0 0 1 0-6.023"/></g><g><path fill="#353b6e" d="M136.21 568.935a4.125 4.125 0 1 1-.005-8.251 4.125 4.125 0 0 1 .007 8.25zm0-14.725c-5.855 0-10.6 4.746-10.6 10.6 0 5.854 4.745 10.6 10.6 10.6 5.854 0 10.6-4.746 10.6-10.6.001-5.852-4.742-10.598-10.595-10.6z"/></g><g><path fill="#353b6e" d="M22.7 568.935a4.125 4.125 0 1 1-.005-8.25 4.125 4.125 0 0 1 .008 8.25zm0-14.725c-5.853 0-10.6 4.746-10.6 10.6 0 5.854 4.747 10.6 10.6 10.6 5.855 0 10.601-4.746 10.601-10.6.002-5.852-4.742-10.598-10.594-10.6z"/></g><g><path fill="#f0f6ff" d="M23.235 488.465v-67.647c0-.361.293-.654.654-.654h.68c.36 0 .654.293.654.654v67.647a.654.654 0 0 1-.655.654h-.679a.655.655 0 0 1-.654-.654"/></g><g><path fill="#f0f6ff" d="M43.662 488.465v-67.647c0-.361.293-.654.654-.654h.68c.36 0 .654.293.654.654v67.647a.655.655 0 0 1-.655.654h-.679a.654.654 0 0 1-.654-.654"/></g><g><path fill="#f0f6ff" d="M64.09 488.465v-67.647c0-.361.292-.654.654-.654h.679c.361 0 .654.293.654.654v67.647a.654.654 0 0 1-.654.654h-.68a.654.654 0 0 1-.654-.654"/></g><g><path fill="#f0f6ff" d="M84.516 488.465v-67.647c0-.361.293-.654.655-.654h.679c.361 0 .654.293.654.654v67.647a.654.654 0 0 1-.654.654h-.68a.654.654 0 0 1-.654-.654"/></g><g><path fill="#f0f6ff" d="M104.944 488.465v-67.647c0-.361.293-.654.654-.654h.68c.36 0 .654.293.654.654v67.647a.655.655 0 0 1-.655.654h-.679a.655.655 0 0 1-.654-.654"/></g><g><path fill="#f0f6ff" d="M125.37 488.465v-67.647c0-.361.294-.654.655-.654h.68c.36 0 .654.293.654.654v67.647a.654.654 0 0 1-.655.654h-.679a.654.654 0 0 1-.654-.654"/></g><g><path fill="#f0f6ff" d="M5.073 437.463h139.196c.346 0 .627.28.627.627v.734c0 .346-.28.626-.627.626H5.073a.627.627 0 0 1-.627-.626v-.734c0-.346.28-.627.627-.627"/></g><g><path fill="#f0f6ff" d="M5.057 454.246H137.09a.61.61 0 0 1 .61.61v.767a.61.61 0 0 1-.61.61H5.057a.61.61 0 0 1-.611-.61v-.766a.61.61 0 0 1 .61-.61"/></g><g><path fill="#f0f6ff" d="M5.04 471.03h124.89c.328 0 .593.266.593.594v.8a.594.594 0 0 1-.594.593H5.04a.594.594 0 0 1-.593-.594v-.8c0-.327.266-.594.594-.594"/></g><g><path fill="#2a4d82" d="M169.459 368.71h64.787a1.89 1.89 0 0 1 1.891 1.89v1.962a1.89 1.89 0 0 1-1.89 1.89h-64.788a1.89 1.89 0 0 1-1.891-1.89V370.6a1.89 1.89 0 0 1 1.89-1.891"/></g><g><path fill="#2a4d82" d="M1.817 485.973h124.766c.723 0 1.309.586 1.309 1.308v1.358c0 .723-.586 1.309-1.31 1.309H1.818a1.309 1.309 0 0 1-1.31-1.309v-1.358c0-.722.587-1.308 1.31-1.308"/></g><g><path fill="#485194" d="M2.002 552.414h154.246c.734 0 1.328.595 1.328 1.328v1.377c0 .734-.594 1.329-1.328 1.329H2.002a1.328 1.328 0 0 1-1.328-1.329v-1.377c0-.733.594-1.328 1.328-1.328"/></g><g><path fill="#485194" d="M2.808 488.156v-67.03c0-.531.43-.962.962-.962h2.05c.532 0 .963.43.963.962v67.03a.963.963 0 0 1-.963.963H3.77a.963.963 0 0 1-.962-.963"/></g><g><path fill="#2a4d82" d="M123.16 487.079l44.62-116.453a1.383 1.383 0 0 1 1.787-.797l1.361.522a1.384 1.384 0 0 1 .797 1.787l-44.62 116.452a1.383 1.383 0 0 1-1.787.797l-1.361-.521a1.383 1.383 0 0 1-.797-1.787"/></g><g><path fill="#2a4d82" d="M127.044 485.4l30.399 68.164a1.093 1.093 0 0 1-.554 1.444l-1.86.83a1.094 1.094 0 0 1-1.444-.554l-30.399-68.164a1.094 1.094 0 0 1 .554-1.444l1.86-.83a1.094 1.094 0 0 1 1.444.553"/></g><g><path fill="#353535" d="M151.447 419.844a1.718 1.718 0 0 1 0 3.436H2.495a1.717 1.717 0 1 1 0-3.436zm.072 3.975a2.257 2.257 0 1 0-.072-4.514H2.495a2.257 2.257 0 0 0 0 4.514z"/></g><g><path fill="#2a4d82" d="M1.817 428.653h150.309c.723 0 1.31.586 1.31 1.309v1.358c0 .722-.587 1.308-1.31 1.308H1.816a1.308 1.308 0 0 1-1.308-1.308v-1.358c0-.723.586-1.309 1.309-1.309"/></g><g><path fill="#fff" d="M502.257 399.243h110.858s-8.833-63.158-32.683-22.525c0 0-20.317-55.65-41.517 3.092 0 0-36.658-12.367-36.658 19.433"/></g><g><path fill="#cde2ff" d="M179.389 257.286h-93.7s7.467-53.381 27.624-19.038c0 0 17.173-47.036 35.091 2.613.002 0 30.985-10.452 30.985 16.425"/></g><g><path fill="#cde2ff" d="M512.318 136.56h69.152s-2.756-33.074-27.81-15.284c0 0-12.528-27.06-22.3 4.009 0 0-19.042-11.776-19.042 11.275"/></g><g><path fill="#353b6e" d="M436.743 316.833l-7.877 17.298 11.778 4.932c12.366 5.079 10.677 11.226 8.98 11.925l-9.127-1.472-19.614-4.18a6.867 6.867 0 0 1-5.136-8.726l8.41-27.507z"/></g><g><path fill="#7794bf" d="M417.604 164.68s83.033-14.136 75.969 22.67c-7.065 36.807-43.873 109.242-51.234 136.623l-21.2-6.478s8.834-30.916 11.483-48.29c2.65-17.372 12.956-57.71 20.022-72.433 0 0-103.939 38.573-89.806-38.866z"/></g><g><path fill="#272e56" d="M446.165 143.037s13.25-15.753 13.395-24.88l-14.869-3.387s-1.767 18.697 1.474 28.267"/></g><g><path fill="#ffd5c0" d="M436.448 76.05c6.273 2.953 20.147 34.874 24.548 45.306a1.382 1.382 0 0 0 2.573-.062c3.404-9.295 15.357-31.992 19.993-44.506 4.828-13.03 27.015-29.077 10.6 9.569-5.02 11.82-16.911 60.496-28.414 60.802-11.042.295-24.292-15.753-39.456-39.897-15.164-24.144 10.156-31.211 10.156-31.211"/></g><g><path fill="#396ab3" d="M438.51 69.28s4.857-1.988 9.274 12.366c4.417 14.354 12.367 36.438 12.367 36.438s-13.048 9.697-13.987 25.542c0 0-19.137-25.1-23.113-35.48-3.976-10.38-5.963-41.958 15.458-38.867"/></g><g><path fill="#ffd5c0" d="M474.443 74.505c1.913-5.52-.673-12.046 2.796-16.341 3.092-3.828 3.902-2.43 7.73-1.105 3.828 1.324 12.956-.074 12.073 1.84-.884 1.915-9.533 26.206-16.305 22.82-6.773-3.386-6.294-7.214-6.294-7.214"/></g><g><path fill="#423565" d="M504.2 46.165a2.021 2.021 0 0 1 .993 2.319c-.222 1.158-15.734 23.907-16.783 25.45-1.05 1.544-1.159 2.43-5.852 2.485-4.693.056-7.177 0-8.502 0-1.326 0-1.656-1.877-1.27-2.484.387-.609 31.414-27.77 31.414-27.77"/></g><g><path fill="#423565" d="M483.681 75.094h-9.924c-1.117 0-1.395-.914-.618-2.032l17.345-24.938c.778-1.118 2.327-2.032 3.446-2.032h9.924c1.118 0 1.396.914.619 2.032l-17.345 24.938c-.779 1.118-2.329 2.032-3.447 2.032"/></g><g><path fill="#f0ede6" d="M502.81 49.564h-12.667l-10.1 14.522 21.416-12.58z"/></g><g><path fill="#f0ede6" d="M480.043 64.086l-5.255 7.555h12.667l14.004-20.134z"/></g><g><path fill="#f0ede6" d="M479.549 72.704c.647-.46 1.36-.567 1.592-.24.233.327-.103.965-.75 1.425-.648.46-1.36.567-1.593.24-.232-.327.104-.965.75-1.425"/></g><g><path fill="#f0ede6" d="M498.638 48.053h-2.225c-.052 0-.065-.043-.028-.095a.229.229 0 0 1 .16-.095h2.225c.052 0 .064.043.028.095a.233.233 0 0 1-.16.095"/></g><g><path fill="#f0ede6" d="M498.377 47.022c.051-.072.033-.131-.04-.131a.318.318 0 0 0-.224.131c-.051.073-.033.133.04.133a.315.315 0 0 0 .224-.133"/></g><g><path fill="#f0ede6" d="M495.289 47.818c.154-.11.324-.135.38-.057.055.078-.025.23-.18.34-.154.11-.324.136-.38.057-.055-.077.025-.23.18-.34"/></g><g><path fill="#ffd5c0" d="M476.505 60.125c1.003-2.304 2.458-5.439 4.966-3.903 2.507 1.537 6.27.448 6.872.96.601.511-.3 5.182-6.27 4.095-3.161-.576-3.361 4.35-6.221 4.542-1.304 0 .653-5.694.653-5.694"/></g><g><path fill="#ffd5c0" d="M495.147 59.486c4.305.084 7.05 2.443 3.118 3.788-3.932 1.346-5.585-1.92-4.496-2.826a4.969 4.969 0 0 1 1.378-.962"/></g><g><path fill="#ffd5c0" d="M492.14 67.153c3.766 2.08 5.094 5.45.987 4.804-4.105-.646-4.045-4.304-2.659-4.595a4.93 4.93 0 0 1 1.671-.209"/></g><g><path fill="#ffd5c0" d="M489.923 70.338c2.796 2.389 3.328 5.437.005 4.192-3.324-1.245-2.646-4.298-1.436-4.304.48-.044.964-.006 1.431.112"/></g><g><path fill="#ffd5c0" d="M494.143 63.427c4.889 1.01 7.462 4.04 2.66 4.583-4.803.543-5.92-3.183-4.462-3.881a6.155 6.155 0 0 1 1.802-.702"/></g><g><path fill="#353b6e" d="M566.295 275.52l12.444 14.369 9.391-8.652c9.772-9.126 14.653-5.03 14.582-3.196l-5.14 7.685-11.974 16.09a6.868 6.868 0 0 1-10.072 1.034l-21.501-19.105z"/></g><g><path fill="#353b6e" d="M371.67 47.784c-10.159.442-5.373 20.391-8.907 49.982s-1.766 70.004-1.766 70.004 53.441-1.325 62.275-1.105c0 0 7.103-63.29 20.036-93.588a1.729 1.729 0 0 0-.465-2.008c-2.727-2.303-15.67-9.19-28.955-16.588-17.575-9.783-32.059-7.138-42.218-6.697"/></g><g><path fill="#272e56" d="M374.026 128.168s10.011-34.45 28.709-15.605c0 0-14.575 15.605-28.709 15.605"/></g><g><path fill="#ffd5c0" d="M401.189 106.157s2.21 14.135 7.287 18.329c5.077 4.194 45.713 30.033 56.533 34.669 10.82 4.635 27.384 2.87 26.5 17.225-.883 14.354-24.733-1.546-30.475-3.976-5.742-2.429-58.08-19.212-70.446-32.02-12.367-12.809-19.434-32.905-25.837-77.071 0 .004 20.096-28.925 36.438 42.844"/></g><g><path fill="#396ab3" d="M366.946 48.341c1.251-.68 6.09-.989 7.521-1.144 4.671-.513 9.479 4.72 12.22 8.538 4.122 5.742 8.097 15.017 16.047 56.83 0 0-22.673 7.51-28.708 15.606 0 0-11.337-30.328-11.778-53-.141-7.21-.95-14.594 1.072-21.634a9.643 9.643 0 0 1 1.862-3.816 6.471 6.471 0 0 1 1.764-1.38"/></g><g><path fill="#423565" d="M419.977 18.574s3.946-6.696 3.528-9.147c-.419-2.451-.24-5.68-4.722-7.772C414.3-.436 408.44.22 403.179 2.732c-5.261 2.512-16.74 1.793-15.902 15.363.838 13.57 11.599 14.647 10.582 18.951l8.55-7.353z"/></g><g><path fill="#ffd5c0" d="M420.336 16.123s8.43 26.018-7.294 24.57c-9.743-.896-13.271-8.25-13.271-8.25s-3.408 1.076-3.826-5.858c-.249-4.12 4.902-6.337 5.141.116 0 0 3.707 1.136 4.422-4.362.714-5.499 3.587-5.26 6.696-4.305 3.107.956 7.655-.237 8.132-1.911"/></g><g><path fill="#ffd5c0" d="M398.635 31.607s-1.674 11.298-5.081 16.38c0 0-5.664-.494-8.968-.539-3.334-.044 15.066 36.947 21.164 27.381 6.097-9.566 3.466-17.456 3.466-17.456s-2.75-3.467-2.51-4.422c.238-.953 4.782-13.75 4.782-13.75s.12-12.439-12.853-7.594"/></g><g><path fill="#9ec5fd" d="M361.954 162.029s-7.952 43.577 10.895 45.638c18.846 2.061 70.666-3.828 78.028 3.533 7.362 7.36 35.039 36.512 61.54 53 26.5 16.489 40.926 30.327 40.926 30.327l17.96-13.84s-57.121-70.077-68.605-83.032c-11.485-12.957-22.672-28.267-42.696-29.444-20.024-1.178-97.46-2.944-98.048-6.182"/></g><g><path fill="#353b6e" d="M247.73 221.563c-5.637 3.657-6.39 10.806-6.478 11.779-.698 7.728 4.22 15.607 9.864 17.077 2.75.716 4.233-.465 5.448.736 2.691 2.66-3.715 9.329-1.915 15.753 1.702 6.07 10.4 10.731 17.815 9.714 10.193-1.396 15.383-13.163 16.342-20.906 2.053-16.602-13.728-27.804-15.9-29.297-2.274-1.558-15.87-10.893-25.176-4.856"/></g><g><path fill="#7794bf" d="M181.191 546.922l-6.094 17.785-12.64 1.803c-13.248 1.798-13.264 9.782-11.8 10.888l29.342.164c3.564.16 4.653-2.75 6.212-5.803 2.006-3.931 14.225-29.18 14.225-29.18z"/></g><g><path fill="#7794bf" d="M303.9 543.005l9.191 18.69-12.191 3.8c-12.791 3.888-11.534 11.772-9.91 12.629l28.992-4.52c3.544-.41 4.155-3.457 5.206-6.72 1.354-4.202-8.61-28.017-8.61-28.017z"/></g><g><path fill="#353b6e" d="M274.501 318.063c11.435 4.904 19.053 16.64 32.009 45.273.395 29.713-5.65 67.802-6.537 78.969-.886 11.166 16.024 20.01 17.474 62.124 1.45 42.114 4.375 46.838 4.375 46.838l-19.73 4.712s-37.39-103.478-38.308-118.604c-.919-15.127-4.741-79.916-3.374-94.06 1.367-14.143 14.091-25.252 14.091-25.252"/></g><g><path fill="#3b427b" d="M298.118 340.444c6.625 11.042 18.624 31.431.957 56.606-17.667 25.175-47.332 54.253-54.84 63.085-7.508 8.833 1.325 26.5-22.967 62.717-24.292 36.216-23.85 41.958-23.85 41.958l-21.2-3.533s32.242-113.95 40.634-127.2c8.391-13.25 43.283-70.667 53-81.708 9.716-11.04 28.266-11.925 28.266-11.925"/></g><g><path fill="#ffd5c0" d="M248.19 226.322s-.735 27.466 11.322 21.633c7.067-3.42 8.509-11.415 8.509-11.415s3.674-.47 3.114-4.968c-.374-2.996-4.97-4.363-4.627 1.16 0 0-1.487.502-3.862-2.432-1.485-1.836-2.65-4.453-5.382-2.845-2.733 1.609-8.244.347-9.075-1.133"/></g><g><path fill="#ffd5c0" d="M257.634 246.84s7.12 10.216 5.742 16.12c-1.377 5.904 22.072 8.276 16.995-2.577-5.077-10.854-8.842-13.321-13.33-23.576-4.49-10.254-9.407 10.033-9.407 10.033"/></g><g><path fill="#7794bf" d="M260.576 264.33c3.92-8.465 18.698-1.546 18.256-7.51 1.766-2.87 18.182 8.099 18.182 35.923 0 27.825 4.858 56.754 8.612 62.275 0 0-11.704-10.379-45.27 10.159 0 0-3.093-8.171-7.51-24.955-4.416-16.783-11.703-28.045-7.286-42.4 4.417-14.353 10.498-23.732 15.016-33.493"/></g><g><path fill="#396ab3" d="M222.555 327.71s5.3 17.004 15.605 21.274 12.366 2.87 12.366 2.87 3.019-25.396-6.55-25.763c-9.57-.368-21.421 1.619-21.421 1.619"/></g><g><path fill="#ffd5c0" d="M262.195 282.143c-4.564 6.626-22.083 41.811-25.616 44.167-3.534 2.356-49.762 28.855-57.859 35.333-8.096 6.479-1.62 10.16 3.975 8.245 5.595-1.915 59.332-19.875 68.31-34.302 8.979-14.427 33.618-46.015 21.495-54.473-6.33-4.417-10.305 1.03-10.305 1.03"/></g><g><path fill="#ffd5c0" d="M184.463 357.669c-6.923 3.533-8.245 7.95-14.723 5.003-6.478-2.948-13.815.432-17.372 6.922-2.502 4.563 7.213 0 11.483-.148 4.27-.148 8.072 6.185 21.495-.295 8.538-4.121-.883-11.482-.883-11.482"/></g><g><path fill="#9ec5fd" d="M268.065 267.791a5.31 5.31 0 0 0-3.398 2.036c-3.06 3.545-4.957 7.826-7.039 11.972-2.698 5.379-5.21 10.85-7.794 16.283-2.017 4.236-4.047 8.476-6.329 12.576-1.46 2.625-3.018 5.652-5.345 7.633a54.258 54.258 0 0 1-15.605 9.423s17.077 3.24 16.783 14.426c-.294 11.187 11.483 9.714 11.483 9.714s12.166-23.648 21.2-41.517c2.961-5.857 6.071-11.666 8.676-17.695 1.668-3.86 3.446-8.17 3.264-12.46a9.892 9.892 0 0 0-3.942-7.513 20.652 20.652 0 0 0-4.951-2.751c-2.529-1.04-4.804-2.4-7.003-2.127"/></g><g><path fill="#423565" d="M246.7 221.269c1.608-6.19 18.617-10.737 30.327-4.712 8.571 4.41 6.7 10.574 16.783 17.961 10.754 7.88 16.798 3.736 23.85 10.305 8.47 7.889 12.273 25.523 3.533 37.985-10.014 14.273-32.303 15.784-37.984 8.833-4.954-6.06 4.595-16.264-1.767-26.795-3.9-6.456-9.911-6.626-11.778-12.955-2.07-7.017.833-8.345-1.288-12.293-2.572-4.785-8.963-2.591-17.262-9.79-.632-.55-5.393-4.777-4.414-8.54"/></g><g><g><path fill="#aacef2" d="M603.884 525.195s4.393-65.347 13.577-82.395c9.183-17.048 21.963 5.682 8.386 56.824 0 0 29.55-111.943 45.124-83.53 15.573 28.413-13.178 65.348-22.363 78.418 0 0 41.53-43.755 43.526-11.933 1.997 31.823-45.922 43.186-45.922 43.186z"/></g><g><path fill="#7794bf" d="M604.12 532.803l7.995-7.642-8.001.004z"/></g><g><path fill="#ea9313" d="M566.08 453.369a3.504 3.504 0 1 1-7.008-.017 3.504 3.504 0 0 1 7.008.017"/></g><g><path fill="#ea9313" d="M599.151 453.441a3.501 3.501 0 1 1 0-.005z"/></g><g><path fill="#fff" d="M563.963 452.44a13.337 13.337 0 0 1 5.471-10.554c2.913-2.153 6.24-2.414 9.71-2.408 3.29.009 6.203.304 9.106 2.051 3.818 2.297 5.914 6.628 6.018 10.98.043 1.778 2.81 1.79 2.766.005a16.181 16.181 0 0 0-5.939-12.327c-3.483-2.872-7.597-3.464-11.945-3.474-4.295-.009-8.129.582-11.682 3.204a15.97 15.97 0 0 0-6.27 12.517c-.052 1.784 2.713 1.786 2.764.005z"/></g><g><path fill="#2a4d82" d="M612.06 448.48l-62.711.045 3.786 11.532 45.61-.033z"/></g><g><path fill="#7794bf" d="M542.358 532.826V460.04h61.736v72.785z"/></g><g><path fill="#396ab3" d="M604.114 525.167l8.001-.005-.054-76.682-13.318 5.858 5.325 5.682z"/></g><g><path fill="#7794bf" d="M598.743 454.339v5.685l5.322-.004z"/></g><g><path fill="#396ab3" d="M549.349 448.525l.007 9.02 9.096-3.26z"/></g><g><path fill="#7794bf" d="M542.332 460.065l16.12-5.778.003 5.766z"/></g><g><path fill="#ff90c6" d="M556.53 465.112a3.503 3.503 0 1 1-3.496-3.51 3.504 3.504 0 0 1 3.496 3.51"/></g><g><path fill="#2a4d82" d="M589.602 465.186a3.503 3.503 0 1 1-7.006-.016 3.503 3.503 0 0 1 7.006.016"/></g><g><path fill="#fff" d="M554.411 464.186a13.347 13.347 0 0 1 5.472-10.556c2.912-2.152 6.241-2.415 9.714-2.406 3.289.005 6.2.303 9.104 2.05 3.82 2.298 5.915 6.626 6.02 10.978.042 1.78 2.807 1.79 2.764.006a16.181 16.181 0 0 0-5.933-12.326c-3.483-2.872-7.598-3.465-11.947-3.474-4.296-.01-8.127.581-11.68 3.204a15.97 15.97 0 0 0-6.273 12.517c-.051 1.784 2.714 1.785 2.765.007z"/></g><g><path fill="#9ec5fd" d="M572.662 470.507l-50.849-.116-5.463 65.265 61.484.136z"/></g><g><path fill="#2a4d82" d="M547.256 462.369l-25.425-.059-.018 8.081 25.424.058 25.425.058.019-8.08z"/></g><g><path fill="#423565" d="M521.813 470.393l6.605-5.084-.012 5.1z"/></g><g><path fill="#396ab3" d="M528.418 465.307l-6.587-2.996-.018 8.08z"/></g><g><path fill="#423565" d="M572.662 470.506l-6.582-5.114-.01 5.1z"/></g><g><path fill="#396ab3" d="M566.08 465.392l6.6-2.967-.018 8.08z"/></g><g><path fill="#423565" d="M536.813 476.767a2.44 2.44 0 1 1 0-.003z"/></g><g><path fill="#423565" d="M563.65 476.749a2.44 2.44 0 1 1 0-.006z"/></g><g><path fill="#fff" d="M560.248 476.75c-.082 6.844-5.605 12.374-12.448 12.466-6.892.14-12.33-5.759-12.465-12.448-.027-1.24-1.953-1.242-1.927 0 .113 7.898 6.493 14.27 14.392 14.372 7.948.15 14.227-6.682 14.373-14.392.022-1.244-1.903-1.24-1.927 0z"/></g><g><path fill="#404884" d="M516.986 544.281l9.098-8.696-9.104.005z"/></g><g><path fill="#ea9313" d="M473.706 453.901a3.987 3.987 0 1 1-7.973-.018 3.987 3.987 0 0 1 7.973.018"/></g><g><path fill="#ea9313" d="M511.333 453.983a3.984 3.984 0 1 1-7.968-.01 3.984 3.984 0 0 1 7.968.007z"/></g><g><path fill="#fff" d="M471.296 452.845a15.183 15.183 0 0 1 6.224-12.01c3.315-2.446 7.1-2.745 11.048-2.739 3.744.01 7.057.35 10.36 2.334 4.344 2.614 6.73 7.542 6.848 12.493.049 2.023 3.196 2.035 3.146.007a18.408 18.408 0 0 0-6.755-14.026c-3.964-3.268-8.644-3.942-13.592-3.956-4.886-.01-9.248.662-13.29 3.647-4.535 3.35-6.981 8.684-7.135 14.241-.059 2.03 3.087 2.032 3.145.006z"/></g><g><path fill="#2a4d82" d="M526.021 448.339l-71.352.051 4.308 13.122 51.895-.038z"/></g><g><path fill="#9ec5fd" d="M446.715 544.306v-82.812h70.242v82.812z"/></g><g><path fill="#396ab3" d="M516.98 535.592l9.104-.005-.062-87.248-15.154 6.666 6.06 6.461z"/></g><g><path fill="#7794bf" d="M510.869 455.005l.002 6.469 6.056-.005z"/></g><g><path fill="#396ab3" d="M454.67 448.39l.007 10.265 10.35-3.71z"/></g><g><path fill="#7794bf" d="M446.685 461.52l18.341-6.574.005 6.562z"/></g><g><path fill="#404884" d="M462.84 467.263a3.985 3.985 0 1 1-7.97-.017 3.985 3.985 0 0 1 7.97.017"/></g><g><path fill="#404884" d="M500.468 467.346a3.986 3.986 0 1 1-3.978-3.993h.001a3.988 3.988 0 0 1 3.977 3.993"/></g><g><path fill="#fff" d="M460.429 466.21a15.189 15.189 0 0 1 6.224-12.01c3.316-2.448 7.101-2.748 11.052-2.74 3.742.009 7.056.35 10.36 2.335 4.345 2.613 6.73 7.538 6.848 12.49.047 2.024 3.194 2.035 3.146.006a18.41 18.41 0 0 0-6.755-14.024c-3.963-3.269-8.646-3.942-13.595-3.955-4.887-.012-9.247.66-13.29 3.647-4.536 3.349-6.98 8.68-7.137 14.24-.058 2.03 3.09 2.03 3.147.008z"/></g></g></g></svg>