<svg xmlns="http://www.w3.org/2000/svg" width="658" height="460" viewBox="0 0 658 460"><g><g opacity=".1" transform="rotate(175 329 230)"><path fill="#396ab3" d="M333.145 385.657c-41.538-8.432-83.017-4.817-122.919.44-39.902 5.258-79.705 12.123-121.26 10.054-26.731-1.328-56.5-7.69-75.166-26.183C-4.166 352.183-6.965 328.181-7 306.515c-.047-16.296 1.129-33.16 10.744-46.142 6.68-9.005 16.965-15.458 24.711-23.77 26.953-28.874 18.758-74.339 1.071-112.994-8.3-18.135-18.45-35.97-24.1-54.532C-.227 50.515-.978 30.625 9.138 15.49 19.16.479 38.547-7.981 58.76-12.364c41.055-8.907 86.794-3.377 131.05 4.118C287.753 8.4 384.686 34.35 481.41 60.24c35.787 9.585 71.731 19.212 106.21 33.027 19.147 7.69 38.644 17.262 51.012 32.16 15.714 18.877 16.11 44.695.966 60.125-25.41 25.868-82.924 20.128-102.578 49.701-10.813 16.283-6.105 38.396 2.503 57.93 18.455 41.892 54.126 83.28 49.505 125.046-3.19 28.665-27.523 52.386-60.139 58.566-34.186 6.474-78.092-5.802-97.776-34.648-20.236-29.72-61.29-49.023-97.968-56.49z"/></g><g><g><path fill="#1e386a" d="M589.16 111.15v278.7c0 21.249-17.222 38.47-38.47 38.47H120.17a38.341 38.341 0 0 1-18.693-4.842 38.701 38.701 0 0 1-10.115-8.134c-6.014-6.794-9.663-15.721-9.663-25.493v-278.7c0-21.249 17.221-38.463 38.47-38.463h430.52c10.872 0 20.688 4.507 27.679 11.76 6.677 6.918 10.792 16.34 10.792 26.703z"/></g><g><path fill="#8ba8ef" d="M139.543 387.245c-8.595 0-15.562-6.967-15.562-15.562V129.32c0-8.595 6.967-15.562 15.562-15.562H531.32c8.595 0 15.562 6.967 15.562 15.562v242.364c0 8.595-6.967 15.562-15.562 15.562z"/></g><g><path fill="#6988e0" d="M578.205 251.079c0 5.34-4.344 9.685-9.685 9.685-5.34 0-9.685-4.345-9.685-9.685 0-5.341 4.344-9.685 9.685-9.685 5.34 0 9.685 4.344 9.685 9.685zm2.185 0c0-6.545-5.325-11.87-11.87-11.87-6.545 0-11.87 5.325-11.87 11.87 0 6.545 5.325 11.87 11.87 11.87 6.545 0 11.87-5.325 11.87-11.87z"/></g><g><path fill="#8ba8ef" d="M81.7 282.025a.698.698 0 0 1-.7-.699V111.151c0-21.594 17.571-39.162 39.17-39.162h430.519a.698.698 0 1 1 0 1.397h-430.52c-20.827 0-37.772 16.941-37.772 37.765v170.175a.698.698 0 0 1-.698.699z"/></g><g><path fill="#fff" d="M252.262 132.968a2.933 2.933 0 0 1-2.933 2.933h-95.193a2.933 2.933 0 0 1 0-5.866h95.193a2.933 2.933 0 0 1 2.933 2.933z"/></g><g><path fill="#fff" d="M205.853 143.356a2.662 2.662 0 0 1-2.662 2.663h-49.324a2.663 2.663 0 1 1 0-5.326h49.324a2.663 2.663 0 0 1 2.662 2.663z"/></g><g><path fill="#fff" d="M520.012 240.9a2.328 2.328 0 0 1-2.328 2.328h-43.122a2.328 2.328 0 0 1 0-4.656h43.122a2.328 2.328 0 0 1 2.328 2.328z"/></g><g><path fill="#fff" d="M520.012 252.227a2.328 2.328 0 0 1-2.328 2.328h-43.122a2.328 2.328 0 0 1 0-4.656h43.122a2.328 2.328 0 0 1 2.328 2.328z"/></g><g><path fill="#fff" d="M206.025 367.307H458.01v3.27H206.025zm253.033 3.793v-4.317a.524.524 0 0 0-.524-.524H205.5a.524.524 0 0 0-.523.524v4.317c0 .29.234.524.523.524h253.033a.524.524 0 0 0 .524-.524z"/></g><g><path fill="#fff" d="M216.646 304.131h138.767v62.128H216.646zm139.814 62.652v-63.176a.524.524 0 0 0-.524-.523H216.122a.524.524 0 0 0-.524.523v63.176c0 .289.235.523.524.523h139.814c.29 0 .524-.234.524-.523z"/></g><g><path fill="#fff" d="M356.46 251.293l48.346-23.588 47.183 23.585v114.97H356.46zm96.053 116.014c.289 0 .523-.235.523-.524V250.967a.522.522 0 0 0-.29-.47l-47.704-23.845a.525.525 0 0 0-.464-.002l-48.871 23.846a.522.522 0 0 0-.294.47v115.817c0 .289.234.524.523.524h96.577z"/></g><g><path fill="#fff" d="M355.936 296.777H211.465a.524.524 0 0 1 0-1.048h144.471a.524.524 0 0 1 0 1.048z"/></g><g><path fill="#fff" d="M254.59 296.777a.524.524 0 0 1-.523-.524v-53.007c0-.197.11-.378.287-.467l61.367-31.126a.523.523 0 0 1 .478.003l54.219 28.182a.523.523 0 1 1-.484.929l-53.979-28.058-60.841 30.859v52.685c0 .29-.235.524-.524.524z"/></g><g><path fill="#fff" d="M321.74 226.696a6.233 6.233 0 0 1-6.226 6.226 6.233 6.233 0 0 1-6.227-6.226 6.233 6.233 0 0 1 6.227-6.226 6.233 6.233 0 0 1 6.226 6.226zm1.047 0c0-4.01-3.263-7.274-7.273-7.274-4.012 0-7.274 3.263-7.274 7.274 0 4.01 3.262 7.273 7.274 7.273 4.01 0 7.273-3.263 7.273-7.273z"/></g><g><path fill="#fff" d="M318.513 226.872a2.914 2.914 0 0 1-2.91 2.91 2.914 2.914 0 0 1-2.912-2.91 2.914 2.914 0 0 1 2.911-2.91 2.914 2.914 0 0 1 2.91 2.91zm1.047 0a3.963 3.963 0 0 0-3.958-3.958 3.963 3.963 0 0 0-3.958 3.958 3.963 3.963 0 0 0 3.958 3.958 3.963 3.963 0 0 0 3.958-3.958z"/></g><g><path fill="#fff" d="M355.936 251.49h-6.433a.524.524 0 0 1-.24-.989l55.305-28.605a.516.516 0 0 1 .486.002l53.707 28.493a.522.522 0 0 1-.245.986h-6.003a.524.524 0 0 1 0-1.047h3.899l-51.607-27.379-53.15 27.492h4.281a.523.523 0 1 1 0 1.047z"/></g><g><path fill="#fff" d="M404.808 227.644a.524.524 0 0 1-.524-.523v-4.647a.524.524 0 0 1 1.048 0v4.647c0 .289-.234.523-.524.523z"/></g><g><path fill="#fff" d="M254.648 243.687h-6.633a.524.524 0 0 1-.241-.989l67.944-35.146a.521.521 0 0 1 .48 0l58.413 30.086a.524.524 0 1 1-.48.931l-58.172-29.963-65.792 34.034h4.481a.524.524 0 0 1 0 1.047z"/></g><g><path fill="#fff" d="M315.958 212.718a.524.524 0 0 1-.524-.523v-3.915a.524.524 0 0 1 1.048 0v3.915a.524.524 0 0 1-.524.523z"/></g><g><path fill="#fff" d="M216.33 304.131H205.9a.524.524 0 0 1-.422-.832l22.102-30.245a.524.524 0 0 1 .422-.214h26.588a.524.524 0 0 1 0 1.047h-26.322l-21.337 29.197h9.4a.524.524 0 0 1 0 1.047z"/></g><g><path fill="#fff" d="M237.5 313.55h98.496v52.71H237.5zm99.543 53.233v-53.758a.523.523 0 0 0-.523-.523h-99.544a.523.523 0 0 0-.523.523v53.758c0 .289.234.524.523.524h99.544c.289 0 .523-.235.523-.524z"/></g><g><path fill="#fff" d="M242.436 318.966h89.024v4.786h-89.024zm90.071 5.31v-5.834a.523.523 0 0 0-.523-.524h-90.071a.524.524 0 0 0-.524.524v5.834c0 .289.234.524.524.524h90.07c.29 0 .524-.235.524-.524z"/></g><g><path fill="#fff" d="M242.436 327.044h89.024v4.785h-89.024zm90.071 5.309v-5.833a.523.523 0 0 0-.523-.524h-90.071a.524.524 0 0 0-.524.524v5.833c0 .289.234.523.524.523h90.07c.29 0 .524-.234.524-.523z"/></g><g><path fill="#fff" d="M242.436 335.12h89.024v4.787h-89.024zm90.071 5.31v-5.833a.523.523 0 0 0-.523-.524h-90.071a.524.524 0 0 0-.524.524v5.834c0 .289.234.524.524.524h90.07c.29 0 .524-.235.524-.524z"/></g><g><path fill="#fff" d="M242.436 343.198h89.024v4.787h-89.024zm90.071 5.31v-5.834a.523.523 0 0 0-.523-.523h-90.071a.524.524 0 0 0-.524.523v5.834c0 .29.234.524.524.524h90.07c.29 0 .524-.234.524-.524z"/></g><g><path fill="#fff" d="M242.436 351.276h89.024v4.786h-89.024zm90.071 5.31v-5.833a.523.523 0 0 0-.523-.524h-90.071a.524.524 0 0 0-.524.524v5.832c0 .29.234.524.524.524h90.07c.29 0 .524-.235.524-.524z"/></g><g><path fill="#fff" d="M242.436 359.353h89.024v4.787h-89.024zm90.071 5.31v-5.833a.523.523 0 0 0-.523-.524h-90.071a.524.524 0 0 0-.524.524v5.834c0 .289.234.523.524.523h90.07c.29 0 .524-.234.524-.523z"/></g><g><g><path fill="#fff" d="M393.156 250.462h23.304v27.997h-23.304zm24.352 28.52V249.94a.524.524 0 0 0-.524-.524h-24.352a.524.524 0 0 0-.523.524v29.043c0 .29.234.524.523.524h24.352c.29 0 .524-.235.524-.524z"/></g><g><g><g><path fill="#fff" d="M395.458 252.562h7.679v10.297h-7.679zm8.726 10.82v-11.344a.524.524 0 0 0-.523-.523h-8.727a.524.524 0 0 0-.523.523v11.344c0 .29.234.524.523.524h8.727c.289 0 .523-.235.523-.524z"/></g><g><path fill="#fff" d="M406.48 252.562h7.679v10.297h-7.68zm8.726 10.82v-11.344a.524.524 0 0 0-.524-.523h-8.727a.524.524 0 0 0-.523.523v11.344c0 .29.234.524.523.524h8.727c.29 0 .524-.235.524-.524z"/></g></g><g><g><path fill="#fff" d="M395.458 266.062h7.679v10.297h-7.679zm8.726 10.82V265.54a.524.524 0 0 0-.523-.524h-8.727a.524.524 0 0 0-.523.524v11.344c0 .289.234.523.523.523h8.727c.289 0 .523-.234.523-.523z"/></g><g><path fill="#fff" d="M406.48 266.062h7.679v10.297h-7.68zm8.726 10.82V265.54a.524.524 0 0 0-.524-.524h-8.727a.524.524 0 0 0-.523.524v11.344c0 .289.234.523.523.523h8.727c.29 0 .524-.234.524-.523z"/></g></g></g></g><g><path fill="#fff" d="M390.289 279.506h29.038v3.226h-29.038zm30.085 3.75v-4.274a.524.524 0 0 0-.523-.523h-30.086a.524.524 0 0 0-.524.523v4.274c0 .289.235.523.524.523h30.086a.524.524 0 0 0 .523-.523z"/></g><g><g><path fill="#fff" d="M322.354 250.462h23.305v27.997h-23.305zm24.352 28.52V249.94a.523.523 0 0 0-.524-.524H321.83a.524.524 0 0 0-.523.524v29.043c0 .29.234.524.523.524h24.352c.29 0 .524-.235.524-.524z"/></g><g><g><g><path fill="#fff" d="M324.656 252.562h7.679v10.297h-7.679zm8.726 10.82v-11.344a.524.524 0 0 0-.523-.523h-8.727a.524.524 0 0 0-.523.523v11.344c0 .29.234.524.523.524h8.727c.289 0 .523-.235.523-.524z"/></g><g><path fill="#fff" d="M335.678 252.562h7.68v10.297h-7.68zm8.727 10.82v-11.344a.524.524 0 0 0-.524-.523h-8.727a.523.523 0 0 0-.524.523v11.344c0 .29.234.524.524.524h8.727c.289 0 .524-.235.524-.524z"/></g></g><g><g><path fill="#fff" d="M324.656 266.062h7.679v10.297h-7.679zm8.726 10.82V265.54a.524.524 0 0 0-.523-.524h-8.727a.524.524 0 0 0-.523.524v11.344c0 .289.234.523.523.523h8.727c.289 0 .523-.234.523-.523z"/></g><g><path fill="#fff" d="M335.678 266.062h7.68v10.297h-7.68zm8.727 10.82V265.54a.524.524 0 0 0-.524-.524h-8.727a.523.523 0 0 0-.524.524v11.344c0 .289.234.523.524.523h8.727c.289 0 .524-.234.524-.523z"/></g></g></g></g><g><path fill="#fff" d="M319.488 279.506h29.038v3.226h-29.038zm30.085 3.75v-4.274a.524.524 0 0 0-.524-.523h-30.085a.524.524 0 0 0-.524.523v4.274c0 .289.235.523.524.523h30.085c.29 0 .524-.234.524-.523z"/></g><g><g><path fill="#fff" d="M270.279 250.462h23.305v27.997h-23.305zm24.352 28.52V249.94a.524.524 0 0 0-.524-.524h-24.352a.524.524 0 0 0-.524.524v29.043c0 .29.235.524.524.524h24.352c.29 0 .524-.235.524-.524z"/></g><g><g><g><path fill="#fff" d="M272.58 252.562h7.68v10.297h-7.68zm8.727 10.82v-11.344a.524.524 0 0 0-.523-.523h-8.727a.524.524 0 0 0-.523.523v11.344c0 .29.234.524.523.524h8.726c.29 0 .524-.235.524-.524z"/></g><g><path fill="#fff" d="M283.602 252.562h7.68v10.297h-7.68zm8.727 10.82v-11.344a.523.523 0 0 0-.524-.523h-8.727a.524.524 0 0 0-.524.523v11.344c0 .29.235.524.524.524h8.727c.29 0 .524-.235.524-.524z"/></g></g><g><g><path fill="#fff" d="M272.58 266.062h7.68v10.297h-7.68zm8.727 10.82V265.54a.524.524 0 0 0-.523-.524h-8.727a.524.524 0 0 0-.523.524v11.344c0 .289.234.523.523.523h8.726c.29 0 .524-.234.524-.523z"/></g><g><path fill="#fff" d="M283.602 266.062h7.68v10.297h-7.68zm8.727 10.82V265.54a.523.523 0 0 0-.524-.524h-8.727a.524.524 0 0 0-.524.524v11.344c0 .289.235.523.524.523h8.727c.29 0 .524-.234.524-.523z"/></g></g></g></g><g><path fill="#fff" d="M267.412 279.506h29.039v3.226h-29.039zm30.086 3.75v-4.274a.524.524 0 0 0-.524-.523H266.89a.524.524 0 0 0-.524.523v4.274c0 .289.235.523.524.523h30.085c.29 0 .524-.234.524-.523z"/></g><g><path fill="#fff" d="M183.174 312.755l12.007 41.576h-24.407zm13.122 42.415c.099-.131.13-.302.084-.46l-12.695-43.96a.523.523 0 0 0-.5-.379c-.22.031-.439.153-.505.375l-13.11 43.96a.523.523 0 0 0 .502.673h25.805c.164 0 .32-.078.419-.209z"/></g><g><path fill="#fff" d="M182.1 355.379h1.762v15.197h-1.763zm2.809 15.721v-16.245a.524.524 0 0 0-.524-.524h-2.81a.524.524 0 0 0-.523.524V371.1c0 .29.234.524.523.524h2.81a.524.524 0 0 0 .524-.524z"/></g><g><path fill="#fff" d="M482.659 312.755l12.006 41.576h-24.407zm13.12 42.415a.526.526 0 0 0 .085-.46l-12.694-43.96a.523.523 0 0 0-.501-.379h-.003a.523.523 0 0 0-.5.375l-13.112 43.96a.525.525 0 0 0 .502.673h25.805c.164 0 .32-.078.419-.209z"/></g><g><path fill="#fff" d="M481.584 355.379h1.761v15.197h-1.761zm2.809 15.721v-16.245a.524.524 0 0 0-.524-.524h-2.81a.524.524 0 0 0-.523.524V371.1c0 .29.235.524.524.524h2.809c.289 0 .524-.235.524-.524z"/></g><g><path fill="#fff" d="M355.936 300.487H208.564a.524.524 0 0 1 0-1.048h147.372a.523.523 0 1 1 0 1.048z"/></g><g><path fill="#fff" d="M392.992 316.98h23.633v43.474h-23.633zm24.68 43.998v-44.522a.524.524 0 0 0-.524-.524h-24.68a.524.524 0 0 0-.524.524v44.522c0 .29.235.524.524.524h24.68c.29 0 .524-.235.524-.524z"/></g><g><path fill="#fff" d="M390.619 361.59h28.378v1.871H390.62zm29.426 2.395v-2.919a.524.524 0 0 0-.524-.524h-29.426a.524.524 0 0 0-.523.524v2.919c0 .289.234.524.523.524h29.426c.289 0 .524-.235.524-.524z"/></g><g><path fill="#fff" d="M388.492 364.508h32.632v1.69h-32.632zm33.679 2.214v-2.737a.524.524 0 0 0-.524-.524h-33.679a.524.524 0 0 0-.523.524v2.737c0 .29.235.524.523.524h33.68c.288 0 .523-.235.523-.524z"/></g><g><g><path fill="#fff" d="M396.385 321.276h6.201v12.787h-6.2zm7.249 13.311v-13.834a.524.524 0 0 0-.524-.524h-7.248a.524.524 0 0 0-.524.524v13.834c0 .29.235.524.524.524h7.248c.289 0 .524-.235.524-.524z"/></g><g><path fill="#fff" d="M407.03 321.276h6.2v12.787h-6.2zm7.248 13.311v-13.834a.524.524 0 0 0-.524-.524h-7.247a.524.524 0 0 0-.524.524v13.834c0 .29.235.524.524.524h7.247c.29 0 .524-.235.524-.524z"/></g></g><g><g><path fill="#fff" d="M396.385 338.744h6.201v18.947h-6.2zm7.249 19.471V338.22a.524.524 0 0 0-.524-.523h-7.248a.524.524 0 0 0-.524.523v19.995c0 .29.235.524.524.524h7.248c.289 0 .524-.235.524-.524z"/></g><g><path fill="#fff" d="M407.03 338.744h6.2v18.947h-6.2zm7.248 19.471V338.22a.524.524 0 0 0-.524-.523h-7.247a.524.524 0 0 0-.524.523v19.995c0 .29.235.524.524.524h7.247c.29 0 .524-.235.524-.524z"/></g></g><g><path fill="#fff" d="M414.746 336.515a.4.4 0 1 1-.8-.001.4.4 0 0 1 .8.001zm1.047 0c0-.797-.65-1.447-1.448-1.447-.798 0-1.447.65-1.447 1.447a1.449 1.449 0 0 0 2.895 0z"/></g><g><path fill="#fff" d="M369.775 296.052h70.663l4.457 7.032h-80.112zm76.072 8.08a.524.524 0 0 0 .443-.805l-5.12-8.079a.526.526 0 0 0-.443-.243h-71.223a.524.524 0 0 0-.427.22l-5.734 8.08a.522.522 0 0 0 .427.826h82.077z"/></g><g><path fill="#fff" d="M367.219 304.131h7.33v62.067h-7.33zm8.378 62.591v-63.115a.524.524 0 0 0-.524-.523h-8.378a.524.524 0 0 0-.523.523v63.115c0 .29.234.524.523.524h8.378a.524.524 0 0 0 .524-.524z"/></g><g><path fill="#fff" d="M435.163 304.131h7.33v62.067h-7.33zm8.377 62.591v-63.115a.524.524 0 0 0-.524-.523h-8.377a.524.524 0 0 0-.524.523v63.115c0 .29.235.524.524.524h8.377c.29 0 .524-.235.524-.524z"/></g><g><path fill="#fff" d="M443.016 300.091h-76.074a.524.524 0 0 1 0-1.047h76.074a.524.524 0 0 1 0 1.047z"/></g><g><path fill="#fff" d="M434.64 361.59h-59.318a.524.524 0 0 1 0-1.048h59.317a.524.524 0 0 1 0 1.048z"/></g><g><path fill="#fff" d="M254.59 292.828h-40.429a.524.524 0 0 1 0-1.048h40.43a.524.524 0 0 1 0 1.048z"/></g><g><path fill="#fff" d="M254.59 289.01h-37.654a.524.524 0 0 1 0-1.048h37.654a.524.524 0 0 1 0 1.047z"/></g><g><path fill="#fff" d="M254.59 285.19h-34.848a.524.524 0 0 1 0-1.047h34.848a.524.524 0 0 1 0 1.048z"/></g><g><path fill="#fff" d="M254.59 281.372h-32.058a.523.523 0 1 1 0-1.047h32.058a.524.524 0 0 1 0 1.047z"/></g><g><path fill="#fff" d="M254.59 277.555h-29.267a.524.524 0 1 1 0-1.047h29.267a.524.524 0 0 1 0 1.047z"/></g><g><path fill="#fff" d="M459.492 192.351a.524.524 0 0 1-.523-.523c0-2.016.99-3.897 2.65-5.033a.524.524 0 0 1 .592.864 5.05 5.05 0 0 0-2.195 4.169c0 .289-.234.523-.524.523z"/></g><g><path fill="#fff" d="M463.34 187.05a.523.523 0 0 1-.16-1.021c.6-.194 1.224-.29 1.856-.29a.524.524 0 1 1 0 1.047c-.524 0-1.04.08-1.536.239a.509.509 0 0 1-.16.025z"/></g><g><path fill="#fff" d="M468.716 201.969l-.038-.002-7.473-.531a.523.523 0 0 1-.486-.56c.021-.289.298-.5.56-.485l7.473.532a.523.523 0 0 1-.036 1.046z"/></g><g><path fill="#fff" d="M468.716 203.942c-.013 0-.025 0-.038-.002l-7.473-.531a.523.523 0 0 1-.486-.56c.021-.288.298-.493.56-.485l7.473.532a.523.523 0 0 1-.036 1.046z"/></g><g><path fill="#fff" d="M465.371 196.104a.527.527 0 0 1-.313-.104l-1.882-1.404a.524.524 0 0 1 .626-.84l1.55 1.157 1.597-1.337a.523.523 0 1 1 .673.803l-1.915 1.603a.52.52 0 0 1-.336.122z"/></g><g><path fill="#fff" d="M472.292 191.828c0 4.017-3.255 7.287-7.256 7.287-4 0-7.255-3.27-7.255-7.287 0-4.018 3.255-7.287 7.255-7.287 4.001 0 7.256 3.269 7.256 7.287zm1.048 0c0-4.596-3.726-8.334-8.304-8.334s-8.302 3.738-8.302 8.334c0 4.595 3.724 8.334 8.302 8.334 4.578 0 8.304-3.74 8.304-8.334z"/></g><g><path fill="#fff" d="M467.613 205.914h-3.756c-1.511 0-3.26-2.227-3.26-3.68v-3.303a.698.698 0 1 1 1.397 0v3.303c0 .768 1.236 2.283 1.863 2.283h3.756c.3 0 .665-1.053.665-2.283v-3.303a.698.698 0 1 1 1.397 0v3.303c0 1.697-.54 3.68-2.062 3.68z"/></g><g><path fill="#fff" d="M466.368 208.707h-1.266c-.794 0-1.712-1.073-1.712-1.773v-1.719a.698.698 0 1 1 1.397 0v1.667c.056.127.264.355.389.428h.949c.032-.107.058-.257.058-.376v-1.719a.697.697 0 1 1 1.397 0v1.719c0 .712-.323 1.773-1.212 1.773z"/></g><g><path fill="#fff" d="M467.58 199.63a.698.698 0 0 1-.698-.699v-4.888a.698.698 0 1 1 1.396 0v4.888a.698.698 0 0 1-.698.698z"/></g><g><path fill="#fff" d="M463.39 199.63a.698.698 0 0 1-.698-.699v-4.888a.698.698 0 1 1 1.397 0v4.888a.698.698 0 0 1-.699.698z"/></g><g><g><path fill="#fff" d="M478.752 193.345h-3.491a.698.698 0 1 1 0-1.396h3.491a.698.698 0 1 1 0 1.396z"/></g><g><path fill="#fff" d="M455.011 193.345h-3.491a.698.698 0 1 1 0-1.396h3.491a.698.698 0 1 1 0 1.396z"/></g><g><path fill="#fff" d="M474.634 202.016a.52.52 0 0 1-.372-.154l-2.296-2.305a.524.524 0 1 1 .742-.74l2.297 2.306a.523.523 0 0 1-.371.893z"/></g><g><path fill="#fff" d="M457.783 185.098a.523.523 0 0 1-.372-.155l-2.232-2.24a.524.524 0 0 1 .742-.74l2.232 2.241a.524.524 0 0 1-.37.894z"/></g><g><path fill="#fff" d="M472.39 185.109a.522.522 0 0 1-.371-.893l2.243-2.253a.524.524 0 0 1 .743.74l-2.244 2.252a.52.52 0 0 1-.37.154z"/></g><g><path fill="#fff" d="M455.55 202.016a.523.523 0 0 1-.371-.893l2.29-2.299a.524.524 0 0 1 .742.739l-2.29 2.299a.52.52 0 0 1-.371.154z"/></g><g><path fill="#fff" d="M464.787 182.173a.698.698 0 0 1-.698-.698v-2.793a.698.698 0 1 1 1.396 0v2.793a.698.698 0 0 1-.698.698z"/></g></g><g><path fill="#fff" d="M486.96 192.647c0 12.004-9.766 21.77-21.77 21.77s-21.77-9.766-21.77-21.77 9.766-21.77 21.77-21.77 21.77 9.766 21.77 21.77zm1.048 0c0-12.581-10.236-22.817-22.818-22.817-12.581 0-22.817 10.236-22.817 22.817s10.236 22.817 22.817 22.817c12.582 0 22.818-10.236 22.818-22.817z"/></g><g><path fill="#fff" d="M192.522 199.79a.523.523 0 0 1-.21-1.002 8.347 8.347 0 0 1 2.507-.658.523.523 0 1 1 .105 1.042 7.286 7.286 0 0 0-2.192.575.52.52 0 0 1-.21.044z"/></g><g><path fill="#fff" d="M187.813 206.996a.524.524 0 0 1-.524-.524 8.39 8.39 0 0 1 3.652-6.923.525.525 0 0 1 .592.865 7.342 7.342 0 0 0-3.196 6.058c0 .29-.235.524-.524.524z"/></g><g><path fill="#fff" d="M204.703 206.496c0 4.964-4.05 9.003-9.027 9.003-4.977 0-9.027-4.039-9.027-9.003s4.05-9.003 9.027-9.003c4.977 0 9.027 4.04 9.027 9.003zm1.047 0c0-5.541-4.52-10.05-10.074-10.05-5.555 0-10.074 4.509-10.074 10.05 0 5.542 4.519 10.05 10.074 10.05s10.074-4.508 10.074-10.05z"/></g><g><path fill="#fff" d="M200.041 205.987a4.37 4.37 0 0 1-4.365 4.365 4.37 4.37 0 0 1-4.366-4.365 4.37 4.37 0 0 1 4.366-4.366 4.37 4.37 0 0 1 4.365 4.366zm1.048 0a5.419 5.419 0 0 0-5.413-5.414 5.419 5.419 0 0 0-5.413 5.414 5.419 5.419 0 0 0 5.413 5.412 5.418 5.418 0 0 0 5.413-5.412z"/></g><g><path fill="#fff" d="M198.185 205.987a2.512 2.512 0 0 1-2.509 2.509 2.512 2.512 0 0 1-2.51-2.509 2.512 2.512 0 0 1 2.51-2.51 2.512 2.512 0 0 1 2.51 2.51zm1.048 0a3.56 3.56 0 0 0-3.557-3.557 3.56 3.56 0 0 0-3.557 3.557 3.56 3.56 0 0 0 3.557 3.556 3.56 3.56 0 0 0 3.557-3.556z"/></g><g><g><path fill="#fff" d="M189.531 223.02a.522.522 0 0 1-.521-.575l.766-7.87a.523.523 0 1 1 1.042.103l-.766 7.869a.523.523 0 0 1-.52.472z"/></g><g><path fill="#fff" d="M201.789 223.02a.523.523 0 0 1-.52-.473l-.767-7.87a.523.523 0 0 1 .47-.572.514.514 0 0 1 .572.47l.766 7.87a.522.522 0 0 1-.521.574z"/></g></g><g><path fill="#fff" d="M204.976 224.069c.368 0 .704-.192.947-.542.266-.384.46-1.043.262-1.579l-2.36-6.568a3.097 3.097 0 0 0-.916-1.285.698.698 0 0 0-.67-.5h-.65a.698.698 0 1 0 0 1.396c.326 0 .75.402.925.869l2.353 6.545a.61.61 0 0 1-.057.267h-18.254a.694.694 0 0 1-.028-.285l2.432-6.743c.14-.376.655-.72 1.08-.72a.698.698 0 1 0 0-1.396c-1.017 0-2.044.7-2.392 1.636l-2.432 6.743c-.183.49-.08 1.206.237 1.662.223.322.54.5.89.5h18.633z"/></g><g><path fill="#fff" d="M217.43 210.103c0 12.004-9.766 21.77-21.77 21.77s-21.77-9.766-21.77-21.77 9.766-21.77 21.77-21.77 21.77 9.766 21.77 21.77zm1.047 0c0-12.581-10.236-22.817-22.817-22.817s-22.817 10.236-22.817 22.817c0 12.582 10.236 22.818 22.817 22.818s22.817-10.236 22.817-22.818z"/></g><g><path fill="#fff" d="M389.778 179.347a.524.524 0 0 1 0-1.047c.443 0 .803-.36.803-.804a.524.524 0 0 1 1.047 0c0 1.021-.83 1.85-1.85 1.85z"/></g><g><path fill="#fff" d="M396.43 172.165a.52.52 0 0 1-.304-.098c-1.926-1.416-4.167-2.132-6.522-2.087h-.01a.524.524 0 0 1-.01-1.047c2.433-.044 4.77.651 6.787 2.026l.153-.153a.524.524 0 0 1 .74.74l-.464.466a.52.52 0 0 1-.37.153z"/></g><g><path fill="#fff" d="M403.013 165.584a.52.52 0 0 1-.344-.13 19.6 19.6 0 0 0-12.894-4.856h-.025a.524.524 0 0 1-.525-.523c0-.298.267-.52.55-.524 4.82 0 9.491 1.699 13.21 4.797l.2-.2a.524.524 0 0 1 .742.739l-.543.543a.523.523 0 0 1-.37.154z"/></g><g><path fill="#fff" d="M389.778 175.239c.578 0 1.156.22 1.597.66.427.427.661.994.661 1.597a2.24 2.24 0 0 1-.661 1.597c-.854.854-2.34.854-3.194 0a2.261 2.261 0 0 1 0-3.193 2.25 2.25 0 0 1 1.597-.661zm0 5.563c.883 0 1.713-.343 2.337-.968a3.282 3.282 0 0 0 .968-2.338c0-.883-.343-1.713-.968-2.337a3.31 3.31 0 0 0-4.675 0 3.31 3.31 0 0 0 0 4.674 3.282 3.282 0 0 0 2.338.97z"/></g><g><path fill="#fff" d="M383.086 172.902l-3.032-3.032a14.182 14.182 0 0 1 9.724-3.82c3.64 0 7.073 1.352 9.723 3.82l-3.032 3.032a9.97 9.97 0 0 0-6.691-2.564 9.97 9.97 0 0 0-6.692 2.564zm13.393 1.255a.522.522 0 0 0 .37-.154l3.77-3.77a.523.523 0 0 0 0-.74 15.227 15.227 0 0 0-10.841-4.491 15.227 15.227 0 0 0-10.84 4.491.523.523 0 0 0 0 .74l3.769 3.77a.524.524 0 0 0 .74 0c3.492-3.491 9.17-3.491 12.661 0a.524.524 0 0 0 .371.154z"/></g><g><path fill="#fff" d="M389.778 161.045c-4.78 0-9.558 1.76-13.27 5.278l-3.096-3.096c9.132-8.741 23.6-8.741 32.732 0l-3.096 3.096a19.242 19.242 0 0 0-13.27-5.278zm13.275 6.538a.522.522 0 0 0 .37-.154l3.835-3.835a.524.524 0 0 0 0-.74c-9.639-9.64-25.321-9.64-34.96 0a.524.524 0 0 0 0 .74l3.834 3.835a.524.524 0 0 0 .741 0c7.116-7.117 18.693-7.117 25.81 0a.52.52 0 0 0 .37.154z"/></g><g><path fill="#fff" d="M411.547 168.207c0 12.004-9.765 21.77-21.77 21.77-12.003 0-21.77-9.766-21.77-21.77 0-12.003 9.767-21.77 21.77-21.77 12.005 0 21.77 9.767 21.77 21.77zm1.048 0c0-12.58-10.236-22.817-22.817-22.817-12.582 0-22.817 10.236-22.817 22.817 0 12.582 10.235 22.818 22.817 22.818 12.581 0 22.817-10.236 22.817-22.818z"/></g><g><path fill="#fff" d="M308.903 167.51c0 12.003-9.766 21.769-21.77 21.769s-21.77-9.766-21.77-21.77 9.766-21.77 21.77-21.77 21.77 9.766 21.77 21.77zm1.047 0c0-12.582-10.236-22.818-22.817-22.818-12.582 0-22.817 10.236-22.817 22.817 0 12.582 10.235 22.817 22.817 22.817 12.581 0 22.817-10.235 22.817-22.817z"/></g><g><path fill="#fff" d="M282.519 178.11h-1.807a.934.934 0 0 1-.933-.933v-5.396a.524.524 0 0 1 1.048 0v5.282h1.692a.524.524 0 0 1 0 1.047z"/></g><g><path fill="#fff" d="M293.788 165.414c1.113 0 2.019.906 2.019 2.02v11.324a2.021 2.021 0 0 1-2.019 2.018H279.67a2.021 2.021 0 0 1-2.018-2.018v-11.325c0-1.113.906-2.019 2.018-2.019zm3.415 13.344v-11.325a3.42 3.42 0 0 0-3.415-3.415H279.67a3.419 3.419 0 0 0-3.415 3.415v11.325a3.419 3.419 0 0 0 3.415 3.415h14.118a3.42 3.42 0 0 0 3.415-3.415z"/></g><g><path fill="#fff" d="M278.35 165.414a.698.698 0 0 1-.698-.698v-2.372c0-4.77 4.157-8.8 9.077-8.8 4.921 0 9.078 4.03 9.078 8.8v1.674a.698.698 0 1 1-1.397 0v-1.674c0-4.013-3.517-7.404-7.68-7.404-4.165 0-7.682 3.391-7.682 7.404v2.372a.698.698 0 0 1-.698.698z"/></g><g><path fill="#fff" d="M292.315 164.716a.698.698 0 0 1-.698-.698v-1.684c0-2.596-1.994-4.63-4.539-4.63s-4.538 2.034-4.538 4.63v1.684a.698.698 0 1 1-1.397 0v-1.684c0-3.38 2.607-6.026 5.935-6.026 3.33 0 5.936 2.647 5.936 6.026v1.684a.698.698 0 0 1-.699.698z"/></g><g><path fill="#fff" d="M286.904 172.947a.7.7 0 0 0-.338-.832c-.414-.218-.917-1.24-.865-1.987.053-.76.768-1.455 1.53-1.486.441-.004.861.139 1.179.445.318.305.494.716.494 1.157 0 .715-.429 1.642-.866 1.87a.697.697 0 0 0-.342.833l.947 2.941h-2.686zm2.698 4.338a.698.698 0 0 0 .665-.913l-1.088-3.378c.71-.675 1.121-1.832 1.121-2.75 0-.826-.328-1.594-.923-2.166a2.95 2.95 0 0 0-2.202-.831c-1.48.06-2.765 1.31-2.867 2.784-.066.938.367 2.233 1.115 2.957l-1.09 3.384a.697.697 0 0 0 .665.913h4.604z"/></g><g><path fill="#fff" d="M215.734 236.348a.518.518 0 0 1-.254-.066l-4.27-2.379a.523.523 0 1 1 .51-.915l4.27 2.38a.523.523 0 0 1-.256.98zm8.54 4.758a.528.528 0 0 1-.255-.065l-4.27-2.38a.524.524 0 0 1 .51-.915l4.27 2.38a.525.525 0 0 1-.255.98zm8.539 4.759a.517.517 0 0 1-.254-.066l-4.27-2.38a.524.524 0 1 1 .51-.915l4.27 2.38a.523.523 0 0 1-.256.981zm8.54 4.759a.528.528 0 0 1-.255-.066l-4.27-2.38a.524.524 0 0 1 .51-.914l4.27 2.379a.525.525 0 0 1-.256.98zm8.539 4.758a.517.517 0 0 1-.255-.066l-4.27-2.379a.524.524 0 1 1 .51-.915l4.27 2.38a.523.523 0 0 1-.255.98z"/></g><g><path fill="#fff" d="M287.441 200.502a.524.524 0 0 1-.523-.523v-4.888a.524.524 0 0 1 1.047 0v4.888c0 .289-.234.523-.524.523zm0 9.776a.524.524 0 0 1-.523-.524v-4.888a.524.524 0 0 1 1.047 0v4.888c0 .29-.234.524-.524.524z"/></g><g><path fill="#fff" d="M389.686 202.586a.524.524 0 0 1-.524-.524v-4.888a.524.524 0 0 1 1.047 0v4.888c0 .29-.234.524-.523.524zm0 9.776a.524.524 0 0 1-.524-.524v-4.888a.524.524 0 0 1 1.047 0v4.888a.524.524 0 0 1-.523.524zm0 9.775a.524.524 0 0 1-.524-.523v-4.888a.524.524 0 0 1 1.047 0v4.888a.524.524 0 0 1-.523.523zm0 5.267a.524.524 0 0 1-.524-.523v-.38a.524.524 0 0 1 1.047 0v.38c0 .289-.234.523-.523.523z"/></g><g><path fill="#fff" d="M464.003 220.27a.522.522 0 0 1-.457-.779l1.187-2.135a.522.522 0 1 1 .915.508L464.46 220a.522.522 0 0 1-.458.27z"/></g><g><path fill="#fff" d="M460.064 227.359a.523.523 0 0 1-.457-.778l1.97-3.544a.523.523 0 1 1 .915.508l-1.969 3.544a.524.524 0 0 1-.459.27zm-3.938 7.089a.524.524 0 0 1-.457-.778l1.97-3.545a.523.523 0 1 1 .915.508l-1.97 3.546a.523.523 0 0 1-.458.269z"/></g><g><path fill="#fff" d="M452.97 240.129a.523.523 0 0 1-.457-.778l1.187-2.137a.523.523 0 1 1 .915.51l-1.187 2.135a.522.522 0 0 1-.458.27z"/></g></g></g></svg>