<svg xmlns="http://www.w3.org/2000/svg" width="658" height="416" viewBox="0 0 658 416"><defs><linearGradient id="xv3ga" x1="312" x2="522.03" y1="143.47" y2="342.44" gradientUnits="userSpaceOnUse"><stop offset="0" stop-color="#fff200"/><stop offset=".09" stop-color="#ddd204"/><stop offset=".27" stop-color="#a59c0d"/><stop offset=".44" stop-color="#766f13"/><stop offset=".61" stop-color="#524c19"/><stop offset=".76" stop-color="#38331c"/><stop offset=".89" stop-color="#28241f"/><stop offset="1" stop-color="#231f20"/></linearGradient></defs><g><g><g opacity=".3"><g opacity=".3"><path fill="#9ec5fd" d="M1.32 402.156c0-5.701 146.945-10.323 328.21-10.323 181.266 0 328.211 4.622 328.211 10.323 0 5.702-146.945 10.324-328.21 10.324-181.266 0-328.21-4.622-328.21-10.324z"/></g><g opacity=".3"><g opacity=".3"><g opacity=".3"><path fill="#9ec5fd" d="M277.644 405.28c222.848 13.965 364.793-63.646 304.244-112.698-44.784-36.283-.971-43.64-18.17-72.278-16.412-27.322-82.254-38.115-72.282-101.879 9.972-63.766-90.11-64.87-141.318-96.63-51.209-31.763-152.46-30.932-188.805 17.228-21.48 28.458 6.49 69.273-38.941 82.46-45.435 13.19-63.219 79.74-25.117 105.96 38.097 26.224-108.153 93.169-42.822 140.876 39.378 28.752 141.853 31.865 223.211 36.961z"/></g><g opacity=".3"><path fill="#9ec5fd" d="M585.538 149.25c3.4 12.287 12.01 19.058 14.534 13.906"/></g><g opacity=".3"><path fill="#9ec5fd" d="M515.023 108.878c-6.95 46.382 31.391 80.486 52.063 86.246 20.671 5.763 23.412-16.287 12.088-30.976-11.323-14.686-1.235-27.738-11.323-47.309-11.228-21.782-50.019-26.702-52.828-7.961z"/></g></g></g></g><g><g><g><path fill="#1b687a" d="M118.27 395.85c-45.793-77.427-18.316-182.332-18.316-182.332s74.096 20.816 109.066 179z"/></g><g><path fill="#155263" d="M177.381 393.352c-16.65-71.046-43.569-104.07-43.569-104.07s30.956 67.636 34.287 104.825z"/></g></g><g><g><path fill="#155263" d="M275.154 395.394c-15.488-65.593-78.346-87.458-78.346-87.458s2.734 56.937 29.15 87.914z"/></g><g><path fill="#123f49" d="M258.584 395.337l-36.212-56.71 28.355 56.71z"/></g></g><g><g><g><path fill="#869964" d="M99.31 397.16l-1.503 1.239C72.6 367.82 43.089 340.779 10.329 318.47l1.098-1.61c32.914 22.412 62.56 49.58 87.882 80.3z"/></g></g><g><path fill="#869964" d="M29.498 315.092c-.244 6.319-5.393 11.097-5.393 11.097s-1.139-1.334-2.257-3.454c-1.139-2.09-2.264-4.974-2.192-8.127.127-6.312 5.09-11.248 5.09-11.248s4.978 5.42 4.752 11.732z"/></g><g><path fill="#869964" d="M24.774 342.802c5.873-2.071 9.187-8.233 9.187-8.233s-6.377-2.987-12.23-.806c-5.838 2.179-8.946 8.47-8.946 8.47s1.54.655 3.818 1.04c2.26.404 5.242.572 8.171-.47z"/></g><g><path fill="#869964" d="M12.47 328.467c3.793-1.51 5.773-5.664 5.773-5.664s-4.244-1.79-8.048-.209c-3.79 1.571-5.674 5.77-5.674 5.77s4.172 1.595 7.948.103z"/></g><g><path fill="#869964" d="M4.761 317.802c3.472 2.1 7.973 1.149 7.973 1.149s-1.156-4.466-4.703-6.607C4.456 310.241 0 311.315 0 311.315s1.262 4.432 4.761 6.487z"/></g><g><path fill="#869964" d="M49.504 326.947c-.686 7.736-7.334 13.248-7.334 13.248s-5.249-6.785-4.748-14.48c.497-7.718 6.888-13.49 6.888-13.49s1.465 1.735 2.861 4.435c1.383 2.72 2.648 6.435 2.333 10.287z"/></g><g><path fill="#869964" d="M41.792 360.579c7.317-2.113 11.849-9.4 11.849-9.4s-7.588-4.147-14.902-1.852c-7.282 2.274-11.519 9.777-11.519 9.777s7.286 3.57 14.572 1.475z"/></g><g><path fill="#869964" d="M71.702 346.343c-1.208 7.673-8.206 12.723-8.206 12.723s-1.197-1.787-2.25-4.539c-1.067-2.73-2.038-6.394-1.503-10.243 1.023-7.667 7.78-12.99 7.78-12.99s5.386 7.354 4.179 15.049z"/></g><g><path fill="#869964" d="M61.743 379.374c7.427-1.595 12.453-8.573 12.453-8.573s-1.818-1.163-4.556-2.12c-2.775-.923-6.473-1.619-10.171-.754-7.434 1.794-12.16 8.99-12.16 8.99s7.021 4.059 14.434 2.457z"/></g><g><path fill="#869964" d="M91.594 366.174c-1.68 7.56-8.997 12.153-8.997 12.153s-4.302-7.423-2.81-14.97c1.523-7.601 8.61-12.48 8.61-12.48s4.91 7.681 3.197 15.297z"/></g><g><path fill="#869964" d="M79.526 398.495c7.53-1.13 12.988-7.763 12.988-7.763s-6.974-5.108-14.528-3.801c-7.502 1.283-12.692 8.17-12.692 8.17s6.754 4.491 14.232 3.394z"/></g></g><g><g><g><path fill="#e5a1ac" d="M149.335 399.685l-2.357 1.125c-22.984-47.953-51.452-93.292-84.816-134.71l2.037-1.637c33.491 41.573 62.063 87.083 85.136 135.222z"/></g></g><g><path fill="#e5a1ac" d="M88.061 269.118c-2.737 8.01-11.173 12.205-11.173 12.205s-.953-2.15-1.584-5.296c-.656-3.125-.988-7.259.322-11.276 2.614-8.037 10.902-12.456 10.902-12.456s4.25 8.813 1.533 16.823z"/></g><g><path fill="#e5a1ac" d="M71.503 302.99c8.346-.45 14.908-7.16 14.908-7.16s-7.09-6.23-15.45-5.66c-8.346.573-14.734 7.482-14.734 7.482s1.746 1.444 4.542 2.82c2.768 1.392 6.562 2.75 10.734 2.517z"/></g><g><path fill="#e5a1ac" d="M61.05 279.78c5.462-.47 9.599-5.05 9.599-5.05s-4.769-3.931-10.264-3.386c-5.475.535-9.526 5.19-9.526 5.19s4.75 3.702 10.191 3.246z"/></g><g><path fill="#e5a1ac" d="M55.274 263.06c3.64 4.061 9.787 4.59 9.787 4.59s.253-6.178-3.455-10.305c-3.742-4.1-9.883-4.49-9.883-4.49s-.134 6.181 3.55 10.205z"/></g><g><path fill="#e5a1ac" d="M109.257 291.748c-3.756 9.691-14.345 14.373-14.345 14.373s-4.271-10.692-.72-20.4c3.553-9.729 13.947-14.761 13.947-14.761s1.218 2.762 1.983 6.737c.744 3.99.981 9.214-.865 14.051z"/></g><g><path fill="#e5a1ac" d="M87.035 332.34c10.233-.062 18.696-7.873 18.696-7.873s-8.308-8.078-18.593-7.821c-10.24.243-18.455 8.37-18.455 8.37s8.16 7.382 18.352 7.324z"/></g><g><path fill="#e5a1ac" d="M130.783 324.608c-4.281 9.471-15.107 13.557-15.107 13.557s-.92-2.734-1.307-6.659c-.412-3.91-.354-8.99 1.722-13.756 4.085-9.522 14.737-13.972 14.737-13.972s4.246 11.334-.045 20.83z"/></g><g><path fill="#e5a1ac" d="M106.37 363.91c10.194.514 19.09-6.827 19.09-6.827s-1.956-2.13-5.18-4.315c-3.273-2.158-7.822-4.353-12.926-4.535-10.257-.306-18.905 7.351-18.905 7.351s7.735 7.825 17.92 8.326z"/></g><g><path fill="#e5a1ac" d="M149.588 356.97c-4.75 9.217-15.783 12.737-15.783 12.737s-3.087-11.097 1.462-20.353c4.596-9.303 15.467-13.186 15.467-13.186s3.657 11.533-1.146 20.802z"/></g><g><path fill="#e5a1ac" d="M123.137 394.934c10.178 1.04 19.44-5.818 19.44-5.818s-7.39-8.926-17.64-9.777c-10.187-.868-19.237 6.333-19.237 6.333s7.327 8.209 17.437 9.262z"/></g></g></g><g><g><g><g><path fill="#414042" d="M489.934 214.911c-5.015 5.688-3.472 9.612-1.753 11.598 0 0 8.778.885 11.128.707 0 0-.734 6.325-.086 7.807l6.1-2.435s2.46-3.993 1.372-7.732c-1.088-3.74-3.956-6.7-7.28-7.345-3.327-.648-7.903 1.709-9.176-2.51z"/></g><g><path fill="#fae09e" d="M488.18 226.51s.176 3.872-1.78 5.364c-1.958 1.493-2.679 1.328-2.679 1.328s1.784 2.5 2.028 4.744c.24 2.244 2.013 4.364 5.365 4.768 3.351.409 3.914-.243 3.914-.243l1.101 6.706s5.8-2.995 7.235-5.307l-.223-7.053s3.454-3.437 1.063-4.96c-2.387-1.52-4.98 3.166-4.98 3.166l.366-7.92z"/></g><g opacity=".47"><path fill="#7f7fc6" d="M495.028 242.47s6.322-2.877 8.113-5.652l.096 3.063s-5.39 3.763-7.993 3.41z"/></g></g><g><path fill="#ff9a00" d="M423.196 334.13l-6.552 8.01s-15.78-6.58-20.047-8.675c-4.264-2.096 7.807-5.043 11.876-3.033 4.068 2.007 10.809-1.104 10.809-1.104z"/></g><g><path fill="#ff9a00" d="M534.628 354.517l11.694 5.54s-14.26 11.523-18.136 14.274c-3.873 2.751-3.616-6.264 1.86-10.782 3.498-2.888-.543-6.308-.543-6.308z"/></g><g><path fill="#353535" d="M477.694 296.496l-17.313-7.06a11.247 11.247 0 0 0-12.771 3.077l-31.254 36.328 6.13 7.523 33.56-32.565 27.051 10.833 2.817 24.078a7.355 7.355 0 0 0 4.74 6.037l39.443 14.676 5.228-5.16-30.013-16.38a7.354 7.354 0 0 1-3.828-6.528l.353-37.21z"/></g><g><path fill="#fae09e" d="M537.081 277.416s2.02 6 2.6 8.103c.58 2.106-4.847 3.8-6.497 2.758-1.653-1.043-1.571-4.127-1.571-4.127s-1.76.384-1.293-.943c.466-1.328 3.142-4.662 3.142-4.662z"/></g><g><path fill="#f67280" d="M487.272 260.56l26.513 3.45a6.452 6.452 0 0 1 3.921 2.03l14.16 15.39s7.28-.944 6.927-1.976c-.292-.84-10.466-16.792-14.24-22.692a6.434 6.434 0 0 0-3.9-2.786l-23.124-4.933z"/></g><g><path fill="#ccc" d="M513.255 252.422l-.206 11.47-6.459.419-2.433-13.444z"/></g><g><path fill="#f67280" d="M494.308 248.155l9.056-4.285a9.26 9.26 0 0 1 4.94 9.111l-1.41 45.576a3.872 3.872 0 0 1-4.412 3.716l-24.788-5.777 13.56-44.132z"/></g><g><path fill="#ccc" d="M486.212 268.336s15.697-10.864 18.123-15.063c0 0-11.406 18.71-19.948 21z"/></g><g><path fill="#fae09e" d="M448.718 251.647s-5.142-3.694-6.844-5.063c-1.698-1.372 1.719-5.914 3.67-6.03 1.95-.117 3.685 2.435 3.685 2.435s1.2-1.338 1.599.01c.394 1.352.168 5.619.168 5.619z"/></g><g><path fill="#f67280" d="M494.767 249.579l-19.196 9.248a8.487 8.487 0 0 1-9.125-1.136l-15.516-12.97s-5.358 5.015-4.47 5.647c.653.46 12.38 13.529 18.693 20.582a8.445 8.445 0 0 0 9.478 2.192l20.397-12.04c6.154-2.481 4.363-4.488.72-10.028z"/></g><g><g><path fill="#414042" d="M487.884 227.387h14.644v1.411h-5.558l-2.47 2.559h-8.027z"/></g><g><path fill="#fff" d="M488.267 228.567h6.035l-1.814 1.72h-4.306z"/></g></g><g><g><path fill="#ef3554" d="M499.97 214.42l.705-9.88 1.765.175z"/></g><g><path fill="#ef3554" d="M504.734 214.42l3.881-7.587 1.588.882z"/></g><g><path fill="#ef3554" d="M509.497 216.89l5.646-5.47 1.235 1.411z"/></g></g></g><g><g><g><path fill="#f67280" d="M226.049 388.471c-5.636 0-11.043-1.15-14.802-4.514-4.981-4.46-10.97-8.816-17.31-13.43-26.239-19.104-58.896-42.873-47.765-95.567 10.48-49.586-1.372-94.96-10.026-128.087-7.125-27.261-12.268-46.955-3.249-58.285 5.17-6.494 14.178-9.328 28.417-8.902l-.195 6.583c-11.784-.333-19.351 1.753-23.07 6.421-6.967 8.751-1.92 28.064 4.467 52.516 8.823 33.765 20.901 80.007 10.102 131.116-10.25 48.519 19.207 69.959 45.195 88.877 6.477 4.714 12.597 9.17 17.828 13.849 6.974 6.243 26.877.483 33.302-2.024l2.395 6.133c-1.942.762-14.075 5.314-25.29 5.314z"/></g></g><g><path fill="#fff" d="M246.072 193.753l-1.286 3.228c-3.952 9.879-15.214 14.688-25.097 10.737l-11.427-4.58c-9.78-3.917-14.59-14.919-10.901-24.733l1.45-3.622z"/></g><g><path fill="#fff" d="M229.195 200.25l-35.556 88.754-22.675-9.084 35.556-88.753z"/></g><g><path fill="#e1edff" d="M225.685 209.035l-4.25 10.603c-2.007-.1-4.017-.559-5.993-1.348l-11.43-4.58c-1.976-.788-3.753-1.842-5.269-3.159l4.25-10.572a19.129 19.129 0 0 0 5.27 3.16l11.426 4.579c1.945.758 3.986 1.217 5.996 1.317z"/></g><g><path fill="#fff" d="M215.442 218.29c1.976.789 3.986 1.249 5.993 1.348l-27.796 69.359-22.658-9.087 27.762-69.359c1.516 1.317 3.293 2.37 5.269 3.16z"/></g><g><path fill="#fff" d="M229.208 200.24l-3.523 8.795c-2.01-.1-4.051-.56-5.996-1.317l-11.427-4.58a19.128 19.128 0 0 1-5.269-3.16l3.523-8.826z"/></g><g><path fill="#fff" d="M176.46 381.676v-85.374h24.426v85.374z"/></g><g><path fill="#404a5b" d="M151.963 109.647c-.298-.175-.69.051-.68.398.625 20.263 11.242 39.816 29.962 51.013l105.415 63.03 32.002-53.521-34.513-20.637-33.655 18.633z"/></g><g><path fill="#37404f" d="M338.263 161.137l51.844 31c10.013-20.473 9.632-41.497-1.07-50.677a16.53 16.53 0 0 0-2.639-1.935c-13.23-7.91-33.837 1.678-48.135 21.612z"/></g><g><path fill="#e2b5c9" d="M293.497 169.757c-14.274 23.872-17.92 47.964-8.144 53.809 9.777 5.849 29.275-8.768 43.549-32.64 14.274-23.875 17.92-47.967 8.144-53.812-9.777-5.846-29.275 8.768-43.55 32.643z"/></g><g><path fill="#3c4756" d="M281.539 162.591c-13.506 22.59-17.536 45.322-9.64 52.677l14.758 8.823 32.002-53.52-30.3-18.117a111.252 111.252 0 0 0-6.82 10.137z"/></g><g><path fill="#535e70" d="M293.497 169.757c-14.274 23.872-17.92 47.964-8.144 53.809 9.777 5.849 29.275-8.768 43.549-32.64 14.274-23.875 17.92-47.967 8.144-53.812-9.777-5.846-29.275 8.768-43.55 32.643z"/></g><g><path fill="#758fbc" d="M300.611 174.01c-8.538 14.278-10.72 28.689-4.87 32.188 5.845 3.496 17.508-5.245 26.046-19.526 8.538-14.28 10.72-28.691 4.871-32.187-5.849-3.495-17.508 5.245-26.047 19.526z"/></g><g><path fill="#758fbc" d="M328.497 156.368l-1.846-1.886"/></g><g><path fill="#323d49" d="M304.937 176.597c-5.046 8.442-6.336 16.963-2.878 19.032 3.458 2.065 10.353-3.101 15.399-11.543 5.05-8.446 6.34-16.967 2.881-19.032-3.457-2.068-10.352 3.101-15.402 11.543z"/></g><g><path fill="url(#xv3ga)" d="M602.509 331.897l-145.174 83.39-162.48-209.761c-4.686-4.46-2.322-18.068 5.746-31.522 8.542-14.27 20.215-23.028 26.05-19.522l1.846 1.886z"/></g><g><path fill="#444e63" d="M159.966 76.489c-6.082 10.174-8.93 21.433-8.706 32.496a.444.444 0 0 0 .22.373l99.014 59.205 33.655-18.633 45.134 26.986c1.42-3.3 3.09-6.6 5.029-9.845 14.284-23.889 37.59-36.214 52.086-27.546L245.128 55.06c-29.432-17.598-67.56-8.006-85.162 21.43z"/></g><g><path fill="#e1edff" d="M200.884 296.31v23.516a35.038 35.038 0 0 1-12.216 2.171c-4.285 0-8.401-.755-12.219-2.171V296.31z"/></g><g><path fill="#fff" d="M153.313 275.249c0-19.529 15.831-35.36 35.36-35.36 19.528 0 35.36 15.831 35.36 35.36 0 19.528-15.832 35.36-35.36 35.36-19.529 0-35.36-15.832-35.36-35.36z"/></g><g><path fill="#404a5b" d="M173.785 275.249c0-8.223 6.665-14.889 14.888-14.889 8.222 0 14.888 6.666 14.888 14.889 0 8.222-6.666 14.888-14.888 14.888-8.223 0-14.888-6.666-14.888-14.888z"/></g><g><path fill="#fff" d="M164.48 374.57a5.572 5.572 0 0 1 5.57-5.572h37.245a5.572 5.572 0 0 1 5.571 5.572v27.927H164.48z"/></g></g></g><g><g><g><g><path fill="#e5a1ac" d="M527.654 366.053l1.952.947c19.35-39.706 43.236-77.21 71.173-111.432l-1.684-1.372c-28.04 34.352-52.019 72-71.441 111.857z"/></g></g><g><path fill="#e5a1ac" d="M579.25 257.935c2.233 6.669 9.214 10.198 9.214 10.198s.806-1.78 1.345-4.39c.562-2.59.86-6.024-.206-9.365-2.127-6.693-8.988-10.405-8.988-10.405s-3.574 7.297-1.365 13.962z"/></g><g><path fill="#e5a1ac" d="M592.824 286.16c-6.933-.418-12.346-6.03-12.346-6.03s5.92-5.136 12.864-4.614c6.93.518 12.195 6.29 12.195 6.29s-1.458 1.191-3.784 2.32c-2.308 1.142-5.468 2.25-8.929 2.034z"/></g><g><path fill="#e5a1ac" d="M601.63 266.94c-4.535-.422-7.945-4.247-7.945-4.247s3.98-3.238 8.542-2.758c4.545.473 7.883 4.363 7.883 4.363s-3.966 3.047-8.48 2.642z"/></g><g><path fill="#e5a1ac" d="M606.515 253.08c-3.043 3.356-8.15 3.76-8.15 3.76s-.18-5.131 2.922-8.541c3.132-3.382 8.236-3.674 8.236-3.674s.076 5.135-3.008 8.456z"/></g><g><path fill="#e5a1ac" d="M561.525 276.62c3.067 8.068 11.835 12.013 11.835 12.013s3.605-8.857.71-16.939c-2.899-8.099-11.505-12.339-11.505-12.339s-1.026 2.292-1.685 5.588c-.638 3.31-.86 7.646.645 11.677z"/></g><g><path fill="#e5a1ac" d="M579.761 310.454c-8.497-.106-15.485-6.641-15.485-6.641s6.944-6.665 15.485-6.398c8.504.26 15.282 7.053 15.282 7.053s-6.816 6.089-15.282 5.986z"/></g><g><path fill="#e5a1ac" d="M543.468 303.796c3.506 7.89 12.476 11.34 12.476 11.34s.775-2.264 1.122-5.522c.36-3.246.34-7.465-1.359-11.437-3.344-7.928-12.164-11.68-12.164-11.68s-3.588 9.388-.075 17.299z"/></g><g><path fill="#e5a1ac" d="M563.532 336.57c-8.47.373-15.817-5.774-15.817-5.774s1.636-1.756 4.325-3.554c2.73-1.777 6.521-3.574 10.761-3.698 8.521-.199 15.66 6.21 15.66 6.21s-6.466 6.455-14.929 6.815z"/></g><g><path fill="#e5a1ac" d="M527.674 330.573c3.897 7.684 13.043 10.665 13.043 10.665s2.62-9.2-1.108-16.915c-3.767-7.753-12.775-11.036-12.775-11.036s-3.098 9.56.84 17.286z"/></g><g><path fill="#e5a1ac" d="M549.437 362.25c-8.456.805-16.113-4.94-16.113-4.94s6.185-7.372 14.703-8.024c8.466-.666 15.944 5.362 15.944 5.362s-6.13 6.781-14.534 7.601z"/></g></g><g><g><path fill="#155263" d="M430.57 374.475c29.046-83.674 128.623-101.656 128.623-101.656s-22.82 91.976-63.62 121.017h-68.46z"/></g><g><path fill="#123f49" d="M450.395 393.836s29.505-59.932 60.851-76.065c0 0-31.81 34.115-48.865 75.605z"/></g></g><g><g><path fill="#1b687a" d="M574.406 396.604c36.65-40.107 18.672-89.9 18.672-89.9s-89.207 33.193-105.803 87.825z"/></g><g><path fill="#155263" d="M523.695 395.681l36.42-42.413-22.128 42.874z"/></g></g><g><g><g><path fill="#869964" d="M436.011 395.033l-1.512.172-2.069-22.48c-.631-7.481-1.63-14.987-1.297-22.667.25-7.695 2.566-15.341 6.134-22.233 3.56-6.926 8.195-13.23 13.083-19.244l1.18.899c-4.854 5.972-9.426 12.198-12.908 18.977-3.492 6.757-5.725 14.126-5.969 21.625-.333 7.498.655 14.977 1.29 22.472z"/></g></g><g><path fill="#869964" d="M452.745 322.772c-2.381-.096-4.573-.998-6.151-1.897-1.581-.898-2.562-1.804-2.562-1.804s1.018-.926 2.627-1.821c1.637-.882 3.863-1.709 6.281-1.551 4.792.316 8.436 4.202 8.436 4.202s-.982.772-2.566 1.513c-1.554.741-3.709 1.451-6.065 1.358z"/></g><g><path fill="#869964" d="M430.897 321.613c1.036 2.206 2.967 3.63 4.559 4.494 1.602.871 2.909 1.228 2.909 1.228s.329-1.3.476-3.125c.124-1.835.09-4.213-.837-6.425-.926-2.21-2.614-3.846-4.095-4.899-1.476-1.06-2.745-1.533-2.745-1.533s-.604 1.416-.943 3.416c-.34 2.014-.384 4.618.676 6.844z"/></g><g><path fill="#869964" d="M442.354 310.128c1.043 2.974 4.281 4.408 4.281 4.408s1.458-3.224.494-6.181c-.97-2.96-4.127-4.535-4.127-4.535s-1.67 3.337-.648 6.308z"/></g><g><path fill="#869964" d="M451.3 304.355c-1.955 2.57-1.471 6.037-1.471 6.037s3.516-.72 5.43-3.235c1.918-2.521 1.544-5.982 1.544-5.982s-3.55.617-5.503 3.18z"/></g><g><path fill="#869964" d="M447.222 336.662c-2.786.33-5.695-.127-7.863-.755-2.171-.617-3.612-1.406-3.612-1.406s.24-.347.686-.875a13.243 13.243 0 0 1 1.973-1.941c1.715-1.43 4.247-2.817 7.173-2.975 2.919-.16 5.615.865 7.629 1.867 2.003 1.008 3.293 1.996 3.293 1.996s-.947.892-2.59 1.828c-1.616.93-3.87 1.935-6.69 2.261z"/></g><g><path fill="#869964" d="M420.98 342.58c2.15 2.301 5.015 3.056 7.248 3.375 2.247.298 3.924.14 3.924.14s-.226-1.612-.768-3.8c-.597-2.189-1.5-5.019-3.283-7.444-1.79-2.419-4.288-3.97-6.363-4.796-2.083-.847-3.77-1.005-3.77-1.005s-.402 2.154-.22 4.96c.185 2.82 1.094 6.278 3.231 8.57z"/></g><g><path fill="#869964" d="M444.038 353.251c-2.483 1.462-5.361 2.134-7.632 2.36-2.271.237-3.931.042-3.931.042s.315-1.623 1.344-3.589c1.02-1.962 2.806-4.212 5.461-5.372 2.649-1.17 5.602-1.108 7.85-.895 2.256.23 3.858.628 3.858.628s-.542.878-1.657 2.206c-1.125 1.31-2.809 3.152-5.293 4.62z"/></g><g><path fill="#869964" d="M420.925 366.96c5.272 2.644 11.742.726 11.742.726s-.522-1.536-1.695-3.413c-1.173-1.88-2.974-4.127-5.56-5.622-2.58-1.5-5.493-1.928-7.774-1.918-2.278.004-3.917.443-3.917.443s.435 1.876 1.581 4c1.142 2.13 2.985 4.452 5.623 5.783z"/></g><g><path fill="#869964" d="M445.493 372.753c-4.686 3.753-11.372 3.334-11.372 3.334s.913-6.497 5.599-10.246c4.689-3.722 11.375-3.286 11.375-3.286s-.237 1.553-1.047 3.667c-.816 2.092-2.212 4.655-4.555 6.531z"/></g><g><path fill="#869964" d="M422.804 387.404c5.273 2.624 11.743.717 11.743.717s-2.076-6.16-7.348-8.782c-5.273-2.624-11.742-.717-11.742-.717s2.075 6.161 7.347 8.782z"/></g></g></g><g><g><g><g><path fill="#f67280" d="M253.824 268.353c-5.941 0-10.764-4.823-10.764-10.765 0-5.94 4.823-10.764 10.764-10.764 5.942 0 10.765 4.823 10.765 10.764 0 5.942-4.823 10.765-10.765 10.765zm0-30.27c-10.778 0-19.505 8.734-19.505 19.505 0 10.779 8.727 19.509 19.505 19.509 10.772 0 19.509-8.73 19.509-19.509 0-10.77-8.737-19.505-19.509-19.505z"/></g><g><path fill="#f67280" d="M259.759 257.588a5.937 5.937 0 0 1-5.935 5.935 5.937 5.937 0 0 1-5.934-5.935 5.937 5.937 0 0 1 5.934-5.934 5.937 5.937 0 0 1 5.935 5.934z"/></g><g><g><path fill="#f67280" d="M250.75 239.738v-8.489h6.148v8.489z"/></g><g><path fill="#f67280" d="M250.75 283.929v-8.489h6.148v8.489z"/></g></g><g><g><path fill="#f67280" d="M268.62 247.14l-4.346-4.347 6.002-6.003 4.347 4.347z"/></g><g><path fill="#f67280" d="M237.373 278.388l-4.347-4.347 6.002-6.003 4.347 4.347z"/></g></g><g><g><path fill="#f67280" d="M271.675 260.662v-6.147h8.49v6.147z"/></g><g><path fill="#f67280" d="M227.484 260.662v-6.147h8.49v6.147z"/></g></g><g><g><path fill="#f67280" d="M270.276 278.387l-6.002-6.002 4.346-4.347 6.003 6.003z"/></g><g><path fill="#f67280" d="M239.028 247.14l-6.002-6.003 4.346-4.347 6.003 6.003z"/></g></g></g></g><g><g><g><path fill="#fff" d="M247.15 387.857a2.088 2.088 0 0 1-2.088-2.088V265.862c0-1.153.935-2.088 2.088-2.088h166.46c1.153 0 2.088.935 2.088 2.088V385.77a2.088 2.088 0 0 1-2.088 2.088z"/></g><g><path fill="#355c7d" d="M252.053 374.644V270.765h156.654v103.88z"/></g><g><path fill="#b5b5b5" d="M428.255 399.091v5.173a.858.858 0 0 1-.854.937H233.36a.858.858 0 0 1-.855-.937v-5.173z"/></g><g><path fill="#e6e7e8" d="M427.398 400.08H233.362c-.792 0-1.16-.982-.563-1.5l12.02-10.51a.859.859 0 0 1 .566-.213h169.993c.206 0 .405.075.562.213l12.02 10.51c.597.518.23 1.5-.562 1.5z"/></g><g><path fill="#b5b5b5" d="M369.074 397.565h-72.748a.32.32 0 0 1-.209-.563l4.508-3.938a.314.314 0 0 1 .209-.082h63.733c.079 0 .154.03.213.082l4.507 3.938a.322.322 0 0 1-.213.563z"/></g><g><path fill="#355c7d" d="M332.527 380.468a3.145 3.145 0 1 1-6.292 0 3.145 3.145 0 0 1 6.292 0z"/></g></g><g><g><path fill="#404a5b" d="M263.44 288.572a.442.442 0 0 1-.441-.442v-3.208c0-.244.198-.442.442-.442h79.274c.244 0 .442.198.442.442v3.208a.442.442 0 0 1-.442.442z"/></g><g><path fill="#f67280" d="M263.44 300.847a.442.442 0 0 1-.441-.442v-3.208c0-.244.198-.442.442-.442h60.365c.244 0 .442.198.442.442v3.208a.442.442 0 0 1-.442.442z"/></g><g><path fill="#fff" d="M263.44 311.633a.442.442 0 0 1-.441-.442v-3.207c0-.245.198-.442.442-.442h98.987c.244 0 .442.197.442.442v3.207a.442.442 0 0 1-.442.442z"/></g><g><path fill="#fff" d="M263.44 332.091a.442.442 0 0 1-.441-.442v-3.207c0-.244.198-.442.442-.442h124.932c.244 0 .442.198.442.442v3.207a.442.442 0 0 1-.442.442z"/></g><g><path fill="#669bbf" d="M263.44 342.878a.442.442 0 0 1-.441-.442v-3.208c0-.244.198-.441.442-.441h73.136c.244 0 .442.197.442.441v3.208a.442.442 0 0 1-.442.442z"/></g></g></g><g><g><path fill="#f67280" d="M359.95 290.15a8.368 8.368 0 0 1-7.32-4.227c-1.527-2.648-1.527-5.807 0-8.452l17.703-30.664c1.527-2.648 4.264-4.226 7.32-4.226 3.057 0 5.791 1.578 7.321 4.226l17.704 30.664c1.527 2.645 1.527 5.804 0 8.452-1.53 2.645-4.263 4.227-7.32 4.227z"/></g><g><path fill="#fff" d="M380.642 249.304c-1.328-2.298-4.648-2.298-5.976 0l-17.708 30.668c-1.327 2.298.333 5.176 2.992 5.176h35.408c2.659 0 4.319-2.878 2.988-5.176z"/></g><g><g><path fill="#4d4d4d" d="M380.017 276.172h-4.726l-.767-20.555h6.26z"/></g><g><path fill="#4d4d4d" d="M375.29 282.11v-3.945h4.727v3.945z"/></g></g></g></g></g></g></svg>