<?xml version="1.0" encoding="utf-8"?>
<!-- Generator: Adobe Illustrator 25.1.0, SVG Export Plug-In . SVG Version: 6.00 Build 0)  -->
<svg version="1.1" id="Layer_1" xmlns="http://www.w3.org/2000/svg" xmlns:xlink="http://www.w3.org/1999/xlink" x="0px" y="0px"
	 viewBox="0 0 786 338" style="enable-background:new 0 0 786 338;" xml:space="preserve">
<style type="text/css">
	.st0{fill:#0092C5;}
</style>
<g id="g34" transform="matrix(1.48019,0,0,1.48019,73.867896,305.22425)">
	<g id="g22">
		<path id="path4" class="st0" d="M-5.8-93.8h-23.9v25.5h-20.2v-66.7h20.2v23.6h23.9v-23.6h20.2v66.7H-5.8V-93.8z"/>
		<path id="path6" class="st0" d="M57.5-73.7c-2.8,3.1-8.1,6.5-16.7,6.5c-11.2,0-16.1-6.7-16.1-15.1v-34.4h18.1v26.9
			c0,4.8,2.6,6.8,7,6.8c4,0,6.1-2.1,7.5-3.8v-29.9h18.1v48.4H57.5V-73.7z"/>
		<path id="path8" class="st0" d="M91.4-68.8c3.7,3.7,9.3,5.3,14.4,5.3c4.3,0,11.2-1.6,11.2-10.1v-2.6c-4.1,4.7-8.5,6.5-13.7,6.5
			c-11.7,0-21.2-7.5-21.2-24.2c0-16.1,9.3-24.2,21.2-24.2c5,0,9.7,1.7,13.7,6.3v-5.1h18.1v43.1c0,20.9-17.2,24.8-29.2,24.8
			c-8.3,0-15.7-2.1-22.1-7.3L91.4-68.8z M117-98.8c-1.7-2-5.1-3.1-7.4-3.1c-4.8,0-9,2.3-9,8.3c0,5.8,4.1,8.3,9,8.3
			c2.3,0,5.7-1.1,7.4-3.1V-98.8z"/>
		<path id="path10" class="st0" d="M178-95.2c0-5-2.7-6.7-7-6.7c-4.1,0-6.3,2.1-7.7,3.8v29.9h-18.1v-66.9h18.1v23.9
			c2.8-3.3,8.1-6.7,16.7-6.7c11.2,0,16.1,6.5,16.1,15.1v34.6H178V-95.2z"/>
		<path id="path12" class="st0" d="M228.9-117.9c14.2,0,25.2,10.2,25.2,27.2v3.7h-32.9c1,3.1,4.6,6.1,10.7,6.1c4.1,0,8.5-1.6,11-3.4
			l7.4,11.1c-4.8,4.1-13.4,6-20.6,6c-15.1,0-26.9-9.5-26.9-25.5C202.6-106.6,213.4-117.9,228.9-117.9L228.9-117.9z M221.1-98.4H237
			c-0.6-2.1-2.1-5.8-8-5.8C223.5-104.2,221.6-100.5,221.1-98.4L221.1-98.4z"/>
		<path id="path14" class="st0" d="M263.3-86.7c3.8,3,12,6.1,17.4,6.1c3.7,0,4.8-1,4.8-2.3c0-1.6-2.1-2.1-6.8-2.8
			c-8.1-1.1-20.6-2.6-20.6-15.7c0-8.7,7.5-16.5,21.6-16.5c8.1,0,15.4,2.6,20.9,6.3l-6.5,11.7c-3-2.6-8.5-5-14.2-5
			c-2.6,0-4.6,0.7-4.6,2.1s1.4,2,6.3,2.7c8.1,1.1,21.2,2.8,21.2,16.4c0,9.7-8.5,16.7-22.9,16.7c-9,0-18.5-3.1-23.8-7.4L263.3-86.7z"
			/>
		<path id="path16" class="st0" d="M323.1-117v48.7h-11.7v-66.7h12l34.2,47.4v-47.4h11.7v66.7H358L323.1-117z"/>
		<path id="path18" class="st0" d="M404.7-117.9c14.5,0,23.8,11.1,23.8,26.3v2.6h-37.3c0.9,7.3,6.3,13.4,15.4,13.4
			c4.7,0,10.2-1.9,13.7-5.3l4.8,7c-4.8,4.6-12,7-19.6,7c-14.5,0-25.3-10.1-25.3-25.5C380.2-106.6,390.4-117.9,404.7-117.9z
			 M391.2-96.5h27.2c-0.1-5.7-4.1-12.8-13.7-12.8C395.7-109.3,391.6-102.4,391.2-96.5z"/>
		<path id="path20" class="st0" d="M441.1-79.6v-27.9h-8v-9.3h8v-13.1h10.5v13.2h9.8v9.3h-9.8V-82c0,3.3,1.6,5.7,4.6,5.7
			c2,0,3.8-0.9,4.7-1.7l2.6,8c-1.9,1.9-5,3.1-10,3.1C445.4-67.1,441.1-71.5,441.1-79.6z"/>
	</g>
	<g id="g32">
		<g id="g26">
			<path id="path24" class="st0" d="M472-70.3v-6.5h2.8c0.7,0,1.3,0,1.6,0.1c0.3,0.1,0.6,0.3,0.7,0.6c0.1,0.3,0.3,0.7,0.3,1
				c0,0.4-0.1,0.9-0.4,1.3c-0.3,0.3-0.7,0.6-1.3,0.6c0.3,0.1,0.6,0.3,0.7,0.6c0.1,0.1,0.4,0.6,0.7,1.1l0.9,1.3h-1.6l-1-1.4
				c-0.3-0.6-0.6-0.9-0.7-1s-0.3-0.3-0.4-0.3c-0.1,0-0.4-0.1-0.7-0.1h-0.3v2.7H472L472-70.3z M473.4-74.2h1c0.6,0,1,0,1.1-0.1
				c0.1,0,0.3-0.1,0.4-0.3c0.1-0.1,0.1-0.3,0.1-0.4c0-0.3,0-0.4-0.1-0.6c-0.1-0.1-0.3-0.3-0.6-0.3c-0.1,0-0.4,0-1,0h-1L473.4-74.2z"
				/>
		</g>
		<g id="g30">
			<path id="path28" class="st0" d="M474.8-67.1c-3.4,0-6.3-2.8-6.3-6.3c0-3.4,2.8-6.3,6.3-6.3s6.3,2.8,6.3,6.3
				C481.2-69.9,478.4-67.1,474.8-67.1z M474.8-78.6c-2.8,0-5.3,2.3-5.3,5.3c0,2.8,2.3,5.3,5.3,5.3s5.3-2.3,5.3-5.3
				C480.1-76.3,477.8-78.6,474.8-78.6z"/>
		</g>
	</g>
</g>
</svg>
