<svg xmlns="http://www.w3.org/2000/svg" id="Layer_1" x="0" y="0" version="1.1" viewBox="0 0 522.6 153.7" xml:space="preserve">
  <defs/>
  <style>
    .st0{enable-background:new}.st1{fill:#032c52}.st3{fill:#f1b850}.st4{fill:#fff}
  </style>
  <g class="st0">
    <path d="M274.9 82.2c0-.6.1-1.2.3-1.8s.6-1.1 1-1.5c.4-.4.9-.7 1.5-1 .6-.2 1.2-.4 1.8-.4s1.2.1 1.8.4c.6.2 1.1.6 1.5 1 .4.4.7.9 1 1.5s.4 1.2.4 1.8c0 .6-.1 1.2-.4 1.8-.2.6-.6 1.1-1 1.5-.4.4-.9.7-1.5 1-.6.2-1.2.3-1.8.3s-1.2-.1-1.8-.3c-.6-.2-1.1-.6-1.5-1-.4-.4-.7-.9-1-1.5-.2-.6-.3-1.2-.3-1.8z" class="st1"/>
  </g>
  <g class="st0">
    <path d="M75.2 62.7h10.1c2.9 0 5.7-.2 8.4-.6 2.7-.4 5.2-1.2 7.5-2.4s4.1-2.8 5.5-4.9c1.4-2.1 2.1-4.9 2.1-8.3 0-4.4-1.7-8-5.2-10.9-3.5-2.9-7.8-4.3-12.9-4.3-4.8 0-8.8 1.3-11.9 3.9-3.2 2.6-5.2 5.8-6.2 9.7l-33.9-7c1.6-6.3 4.1-11.7 7.4-16.1 3.3-4.5 7.2-8.1 11.7-10.8 4.5-2.7 9.6-4.8 15.1-6.1 5.6-1.3 11.4-2 17.6-2 6.4 0 12.7.8 18.6 2.4 6 1.6 11.2 4 15.7 7.4 4.5 3.4 8.1 7.6 10.8 12.7 2.7 5.1 4 11.1 4 18.1 0 8.1-2.1 15-6.4 20.8-4.3 5.8-10.4 9.5-18.5 11.1v.6c4.4.5 8.3 1.9 11.6 3.9 3.4 2.1 6.2 4.6 8.5 7.6s4.1 6.4 5.3 10.3c1.2 3.8 1.9 7.9 1.9 12.1 0 7.3-1.4 13.6-4.2 19.1-2.8 5.5-6.6 10-11.3 13.7-4.7 3.6-10.3 6.3-16.7 8.1s-13.1 2.7-20.3 2.7c-13 0-24.2-3-33.6-9.1-9.4-6-15.6-15.6-18.6-28.6l32.5-7.6c1.1 5.2 3.3 9.3 6.7 12.3 3.4 3 8.3 4.5 14.9 4.5 6.7 0 11.7-1.7 14.9-5.2 3.2-3.5 4.8-8 4.8-13.5 0-4.1-.9-7.3-2.6-9.6-1.7-2.3-3.9-3.9-6.7-5-2.7-1.1-5.8-1.7-9.3-2-3.4-.2-6.9-.3-10.3-.3H75V62.7z" class="st1"/>
  </g>
  <g id="Group_295" transform="translate(-375 -125.237)">
    <path id="Path_191" fill="#1c365b" d="M857.1 182.6c0 15.2-12.3 27.5-27.5 27.6-15.2 0-27.5-12.3-27.6-27.5s12.3-27.5 27.5-27.6c15.2 0 27.5 12.3 27.6 27.5z"/>
    <path id="Path_193" d="M829.6 171.4c6.2.1 12.1 3.2 15.6 8.3.6.6.6 1.5 0 2-.1.1-.1.1-.2.1-.7.5-1.5.3-2.1-.6-5.1-7.4-15.2-9.3-22.6-4.2-1.6 1.1-3 2.5-4.1 4-.7.9-1.4 1.2-2.2.6-.7-.5-.8-1.3-.1-2.2 4-5.2 9.2-7.8 15.7-8z" class="st3"/>
    <path id="Path_195" d="M829.7 177c4.7.1 9 2.6 11.4 6.6.7 1.1.3 2-.7 2.3-.9.2-1.3-.4-1.7-1.1-1.4-2.3-3.6-4-6.2-4.6-4.4-1.2-9.1.5-11.7 4.2-.1.2-.3.4-.4.6-.3.7-1.1 1-1.8.7s-1-1.1-.7-1.8c0-.1.1-.2.2-.3 1.6-2.6 3.9-4.6 6.8-5.6 1.4-.8 3.1-1.1 4.8-1z" class="st3"/>
    <path id="Path_196" d="M829.6 182.5c3.2 0 6.1 1.9 7.3 4.9.4 1.1.3 1.9-.5 2.2-.8.4-1.5 0-2-1.1-.8-1.9-2.6-3.2-4.7-3.2-2.1-.1-4.1 1.1-4.9 3.1-.3.5-.5 1-1.1 1.2-.5.2-1 0-1.3-.4-.5-.5-.5-1.2-.2-1.8 1.2-2.9 4.2-4.9 7.4-4.9z" class="st3"/>
    <path id="Path_198" d="M832.2 191.3c0 1.4-1.1 2.6-2.6 2.6s-2.6-1.1-2.6-2.6c0-1.4 1.1-2.6 2.6-2.6s2.5 1.2 2.6 2.6z" class="st3"/>
  </g>
  <g class="st0">
    <path d="M309.7 55.1c-.9.2-1.9.4-2.8.6-.9.2-1.9.2-3 .2-3.9 0-7.5-.7-10.7-2.1-3.2-1.4-6-3.3-8.3-5.8-2.3-2.4-4.1-5.3-5.3-8.7-1.3-3.3-1.9-6.9-1.9-10.7 0-4.3.8-8.2 2.4-11.7 1.6-3.5 3.8-6.5 6.6-9s6.1-4.5 9.9-5.8C300.4.7 304.5 0 308.9 0c4.3 0 8.4.7 12.2 2.1 3.8 1.4 7.1 3.3 9.9 5.8 2.8 2.5 5 5.5 6.6 9 1.6 3.5 2.4 7.4 2.4 11.7 0 3-.3 5.7-.8 8.2-.6 2.5-1.3 4.8-2.2 7-.9 2.2-2 4.3-3.2 6.3-1.2 2-2.5 4.1-3.8 6.2L311.7 85h-21.6l19.6-29.9zm-14.3-25.7c0 3.8 1.2 6.9 3.7 9.4s5.7 3.7 9.7 3.7 7.3-1.2 9.7-3.7c2.5-2.5 3.7-5.6 3.7-9.4 0-3.8-1.2-6.9-3.7-9.4s-5.7-3.7-9.7-3.7-7.3 1.2-9.7 3.7c-2.4 2.5-3.7 5.6-3.7 9.4z" class="st1"/>
  </g>
  <g class="st0">
    <path d="M377.8 55.1c-.9.2-1.9.4-2.8.6-.9.2-1.9.2-3 .2-3.9 0-7.5-.7-10.7-2.1-3.2-1.4-6-3.3-8.3-5.8-2.3-2.4-4.1-5.3-5.3-8.7-1.3-3.3-1.9-6.9-1.9-10.7 0-4.3.8-8.2 2.4-11.7 1.6-3.5 3.8-6.5 6.6-9s6.1-4.5 9.9-5.8C368.5.7 372.6 0 377 0c4.3 0 8.4.7 12.2 2.1 3.8 1.4 7.1 3.3 9.9 5.8 2.8 2.5 5 5.5 6.6 9 1.6 3.5 2.4 7.4 2.4 11.7 0 3-.3 5.7-.8 8.2-.6 2.5-1.3 4.8-2.2 7-.9 2.2-2 4.3-3.2 6.3-1.2 2-2.5 4.1-3.8 6.2L379.8 85h-21.6l19.6-29.9zm-14.3-25.7c0 3.8 1.2 6.9 3.7 9.4s5.7 3.7 9.7 3.7c4 0 7.3-1.2 9.7-3.7 2.5-2.5 3.7-5.6 3.7-9.4 0-3.8-1.2-6.9-3.7-9.4s-5.7-3.7-9.7-3.7c-4 0-7.3 1.2-9.7 3.7-2.5 2.5-3.7 5.6-3.7 9.4z" class="st1"/>
  </g>
  <g class="st0">
    <path d="M258.2 92.1c4.3 0 7.7 3.4 7.7 7.6 0 4.2-3.4 7.6-7.7 7.6s-7.7-3.4-7.7-7.6c0-4.2 3.4-7.6 7.7-7.6zm-7.4 19.7h14.7v36.4h-14.7v-36.4z" class="st4"/>
  </g>
  <g class="st0">
    <path d="M270.4 111.8h14.4v2.8l.1.1c2.4-1.8 6.1-3.7 10.6-3.7 3.9 0 7.3 1.5 9.3 3.5 2.4 2.3 3.6 5.5 3.6 10.9v22.9h-14.7v-20.6c0-1.6-.4-2.8-1-3.5-.7-.7-1.7-1-2.8-1-1.7 0-3.6.7-4.8 1.9v23.2h-14.7v-36.5z" class="st4"/>
  </g>
  <g class="st0">
    <path d="M339.2 147.3c-2.1 1-5.6 1.8-9.1 1.8-4.5 0-8.4-1.4-10.7-3.8-2.1-2.1-3.6-5.2-3.6-11.5v-10.4h-5.4v-11.5h5.4v-9.1l14.7-2.5v11.6h8.7v11.5h-8.7v9.4c0 2.9.9 4.5 3.6 4.5 1.6 0 3.6-.6 5.1-1.2v11.2z" class="st4"/>
  </g>
  <g class="st0">
    <path d="M376.2 146.2c-3.8 1.8-9.3 2.8-14.2 2.8-12.9 0-21.7-7.1-21.7-18.6 0-12 9.4-19.4 19.8-19.4 9 0 18.2 5.6 18.2 18.6 0 1.2-.1 2.7-.2 3.7h-22.9c1.4 3.8 4.9 5.2 8.8 5.2 3.4 0 7.8-1 12.2-3.4v11.1zm-11.1-20.4c-.7-3.3-3-4.4-5.1-4.4-2.6 0-4.4 1.6-5 4.4h10.1z" class="st4"/>
  </g>
  <g class="st0">
    <path d="M383 111.8h14.4v3.9l.1.1c2.4-2.7 5.7-4.7 9.7-4.7 1 0 2 .1 2.7.3v13.5c-1.3-.3-2.8-.4-4-.4-3.1 0-5.8.7-8.2 3v20.7H383v-36.4z" class="st4"/>
  </g>
  <g class="st0">
    <path d="M412.3 111.8h14.4v2.8l.1.1c2.4-1.8 6.1-3.7 10.6-3.7 3.9 0 7.3 1.5 9.3 3.5 2.4 2.3 3.6 5.5 3.6 10.9v22.9h-14.7v-20.6c0-1.6-.4-2.8-1-3.5-.7-.7-1.7-1-2.8-1-1.7 0-3.6.7-4.8 1.9v23.2h-14.7v-36.5z" class="st4"/>
  </g>
  <g class="st0">
    <path d="M489.6 146.2c-3.8 1.8-9.3 2.8-14.2 2.8-12.9 0-21.7-7.1-21.7-18.6 0-12 9.4-19.4 19.8-19.4 9 0 18.2 5.6 18.2 18.6 0 1.2-.1 2.7-.2 3.7h-22.9c1.4 3.8 4.9 5.2 8.8 5.2 3.4 0 7.8-1 12.2-3.4v11.1zm-11.1-20.4c-.7-3.3-3-4.4-5.1-4.4-2.6 0-4.4 1.6-5 4.4h10.1z" class="st4"/>
  </g>
  <g class="st0">
    <path d="M522.6 147.3c-2.1 1-5.6 1.8-9.1 1.8-4.5 0-8.4-1.4-10.7-3.8-2.1-2.1-3.6-5.2-3.6-11.5v-10.4h-5.4v-11.5h5.4v-9.1l14.7-2.5v11.6h8.7v11.5h-8.7v9.4c0 2.9.9 4.5 3.6 4.5 1.6 0 3.6-.6 5.1-1.2v11.2z" class="st4"/>
  </g>
  <g class="st0">
    <path d="M24.4 106.4c2.1 0 4.3.3 6.6.8 2.3.6 4.3 1.5 6 2.9l-5.7 6.9c-.9-.8-2-1.4-3.2-1.8-1.2-.4-2.5-.6-3.7-.7v9.4l5.7 1.7c2.6.8 4.7 2.1 6.2 3.9 1.6 1.8 2.3 4.1 2.3 6.8 0 2.1-.4 3.9-1.1 5.5-.7 1.6-1.8 2.9-3.1 4s-2.8 2-4.5 2.6c-1.7.6-3.6 1-5.5 1.2v4.1h-3.9v-4.1c-2.6 0-5.2-.4-7.8-1.1-2.6-.7-4.8-1.9-6.8-3.7l6.3-7c1 1.3 2.3 2.2 3.7 2.7 1.5.5 3 .9 4.6 1v-10l-4.3-1.3c-3-.9-5.3-2.3-6.8-4s-2.3-4.1-2.3-7.1c0-1.8.4-3.5 1.1-5 .7-1.5 1.7-2.8 3-3.8 1.2-1.1 2.7-1.9 4.3-2.6 1.6-.7 3.3-1.1 5-1.3v-4.1h3.9v4.1zm-3.9 8.3c-1.1.2-2.1.6-3 1.2-.9.6-1.3 1.5-1.3 2.8 0 .9.2 1.6.5 2.1.4.5.8.9 1.2 1.2.5.3.9.5 1.4.6.5.1.8.2 1.1.3v-8.2zm3.9 26.6c.6-.1 1.2-.3 1.8-.5.6-.2 1.2-.5 1.6-.9.5-.4.9-.8 1.2-1.3.3-.5.4-1.1.4-1.7 0-.6-.1-1.2-.3-1.6-.2-.4-.5-.8-.9-1.1-.4-.3-.8-.6-1.2-.8l-1.5-.6-1.1-.4v8.9z" class="st1"/>
  </g>
  <g class="st0">
    <path d="M232.9 31h-72.4V2.5h107.2v27.3L209.1 149h-36.2l60-118z" class="st1"/>
  </g>
</svg>
