<svg xmlns="http://www.w3.org/2000/svg" width="791" height="517" viewBox="0 0 791 517"><defs><linearGradient id="7le7a" x1="210.15" x2="211.77" y1="327.07" y2="327.07" gradientUnits="userSpaceOnUse"><stop offset="0" stop-color="gray" stop-opacity=".25"/><stop offset=".54" stop-color="gray" stop-opacity=".12"/><stop offset="1" stop-color="gray" stop-opacity=".1"/></linearGradient></defs><g><g><g opacity=".1"><path fill="#396ab3" d="M408.6 92.873c-49.897 8.431-99.724 4.816-147.656-.441s-95.746-12.123-145.663-10.053c-32.111 1.328-67.872 7.69-90.293 26.182C3.406 126.347.043 150.348.001 172.014c-.056 16.297 1.357 33.16 12.906 46.142 8.026 9.005 20.38 15.458 29.685 23.77 32.377 28.875 22.533 74.34 1.287 112.994-9.97 18.135-22.163 35.97-28.951 54.532-6.789 18.562-7.69 38.452 4.46 53.588 12.04 15.01 35.327 23.47 59.608 27.854 49.316 8.907 104.261 3.377 157.423-4.118 117.656-16.646 234.096-42.598 350.284-68.487 42.99-9.585 86.168-19.212 127.585-33.027 23-7.69 46.422-17.261 61.278-32.16 18.877-18.876 19.352-44.695 1.16-60.125-30.523-25.868-99.611-20.128-123.22-49.7-12.99-16.284-7.335-38.397 3.006-57.93 22.169-41.892 65.018-83.28 59.467-125.047-3.83-28.664-33.061-52.386-72.24-58.566-41.067-6.474-93.81 5.803-117.454 34.649-24.309 29.72-73.626 49.023-117.685 56.49z"/></g><g><path fill="#565661" d="M191.66 297.102v-45.884h198.154v45.884z"/></g><g opacity=".1"><path d="M191.66 297.102v-45.884h198.154v45.884z"/></g><g><path fill="#bcbec9" d="M215.367 298.612l1.392 122.494L197.7 469.22l-1.475-170.608z"/></g><g><path fill="#565661" d="M193.75 260.027l192.925 1.16v34.174H193.751z"/></g><g><path fill="#bcbec9" d="M370.169 298.612l16.506 2.328v166.42l-16.506-50.903z"/></g><g><path fill="#efeff0" d="M392.946 450.63V253.058h92.977V450.63z"/></g><g><path fill="#565661" d="M400.385 410.417V258.545h78.1v151.872z"/></g><g opacity=".1"><path d="M400.385 410.417V258.545h78.1v151.872z"/></g><g><path fill="#565661" d="M400.385 295.361v-33.705h78.1v33.705z"/></g><g><path fill="#565661" d="M400.385 370.203v-71.59h78.1v71.59z"/></g><g><path fill="#565661" d="M400.385 446.212v-71.59h78.1v71.59z"/></g><g opacity=".1"><path d="M400.385 446.212v-71.59h78.1v71.59z"/></g><g><path fill="#565661" d="M398.61 457.063c0-3.553 2.253-6.432 5.033-6.432 2.78 0 5.034 2.88 5.034 6.432 0 3.552-2.254 6.432-5.034 6.432s-5.034-2.88-5.034-6.432z"/></g><g><path fill="#565661" d="M468.417 457.37c0-3.552 2.254-6.432 5.034-6.432s5.033 2.88 5.033 6.432c0 3.553-2.253 6.432-5.033 6.432-2.78 0-5.034-2.88-5.034-6.432z"/></g><g><path fill="#efeff0" d="M190.961 469.22h6.74l-1.853-214.45h-10.235z"/></g><g><path fill="#efeff0" d="M386.675 253.057V467.36h6.272V254.77z"/></g><g><path fill="#efeff0" d="M196.177 293.264v7.676h190.498v-5.579z"/></g><g><path fill="#fff" d="M209.089 238.648h241.507l35.096 11.62v6.739l-301.24-2.321v-6.859z"/></g><g><path fill="#bcbec9" d="M184.452 247.828l301.24 2.44v6.74l-301.24-2.322z"/></g><g><path fill="url(#7le7a)" d="M211.739 327.752l-1.398-.21v-.175c-.042-.328-.091-.65-.14-.979.573.455 1.118.91 1.622 1.364z"/></g><g><path fill="#a26565" d="M181.355 435.704c.909-.21 1.832-.384 2.754-.51a33.153 33.153 0 0 1 18.611 2.74c-.587 4.321-1.167 8.789.077 12.962.867 2.937 2.608 5.593 2.978 8.656a5.104 5.104 0 0 1 4.02 3.551c.269.802.403 1.643.399 2.49a13.282 13.282 0 0 1-.392 3.103 3.132 3.132 0 0 1-3.355 2.797c-5.412.615-10.718-1.517-15.752-3.608l-9.788-4.069c-1.146-.475-2.3-.957-3.397-1.545a18.618 18.618 0 0 1-5.447-4.453 2.482 2.482 0 0 1-.65-1.175c-.182-1.23 1.259-1.964 2.174-2.796.269-.254.504-.54.7-.853 1.083-1.636 1.188-3.894 1.838-5.824 1.538-4.58 6.292-7.53 7.97-11.997.091-.245.175-.49.245-.741"/></g><g opacity=".1"><path d="M210.194 465.592a13.283 13.283 0 0 1-.392 3.104 3.132 3.132 0 0 1-3.355 2.797c-5.412.615-10.718-1.517-15.752-3.608l-9.788-4.069c-1.146-.475-2.3-.957-3.397-1.545a18.618 18.618 0 0 1-5.447-4.453 2.482 2.482 0 0 1-.65-1.175c-.182-1.23 1.259-1.964 2.174-2.796.269-.254.504-.54.7-.853 2.698.58 6.047 2.28 8.11 2.936a24.623 24.623 0 0 1 5.9 2.468c2.573 1.65 4.426 4.195 6.607 6.292 2.181 2.098 4.999 4.006 8.04 3.748a13.286 13.286 0 0 0 4.572-1.58z"/></g><g><path fill="#454b69" d="M198.735 366.239a3.237 3.237 0 0 1-1.188 3.496c-.916.566-2.098.489-3.007 1.104-1.125.79-1.286 2.356-1.482 3.713-.699 4.663-3.013 8.892-4.991 13.178-1.979 4.286-3.65 8.963-2.923 13.62.497 3.16 2.049 6.529.594 9.374-.356.7-.887 1.322-1.293 2-1.992 3.328-.86 7.544-.937 11.417.03.43-.065.86-.272 1.237a3.42 3.42 0 0 1-1.105.853 5.859 5.859 0 0 0-2.384 4.496c-.059 1.76.153 3.519.63 5.215.076.685.379 1.324.86 1.818a3.216 3.216 0 0 0 1.88.531c4.392.356 8.7 1.404 12.766 3.104 2.65 1.105 5.222 2.49 8.04 3.02.55.172 1.147.108 1.65-.174.354-.32.599-.743.699-1.21 1.084-3.565 2.181-7.243 1.81-10.948-.16-1.594-.587-3.153-.699-4.747-.489-6.292 3.769-11.97 5.118-18.178.608-2.796.608-5.69 1.042-8.515 1.174-7.74 5.439-14.682 7.082-22.337a24.28 24.28 0 0 1 1.063-4.195c1.223-2.964 4.055-5.37 4.118-8.578a3.342 3.342 0 0 0-.532-2 4.53 4.53 0 0 0-2.496-1.398 85.21 85.21 0 0 0-11.57-2.335 21.919 21.919 0 0 0-5.44-.378 16.012 16.012 0 0 0-6.655 2.35c-2.699 1.663-.965 2.062-.378 4.467z"/></g><g opacity=".05"><path d="M198.735 366.239a3.237 3.237 0 0 1-1.188 3.496c-.916.566-2.098.489-3.007 1.104-1.125.79-1.286 2.356-1.482 3.713-.699 4.663-3.013 8.892-4.991 13.178-1.979 4.286-3.65 8.963-2.923 13.62.497 3.16 2.049 6.529.594 9.374-.356.7-.887 1.322-1.293 2-1.992 3.328-.86 7.544-.937 11.417.03.43-.065.86-.272 1.237a3.42 3.42 0 0 1-1.105.853 5.859 5.859 0 0 0-2.384 4.496c-.059 1.76.153 3.519.63 5.215.076.685.379 1.324.86 1.818a3.216 3.216 0 0 0 1.88.531c4.392.356 8.7 1.404 12.766 3.104 2.65 1.105 5.222 2.49 8.04 3.02.55.172 1.147.108 1.65-.174.354-.32.599-.743.699-1.21 1.084-3.565 2.181-7.243 1.81-10.948-.16-1.594-.587-3.153-.699-4.747-.489-6.292 3.769-11.97 5.118-18.178.608-2.796.608-5.69 1.042-8.515 1.174-7.74 5.439-14.682 7.082-22.337a24.28 24.28 0 0 1 1.063-4.195c1.223-2.964 4.055-5.37 4.118-8.578a3.342 3.342 0 0 0-.532-2 4.53 4.53 0 0 0-2.496-1.398 85.21 85.21 0 0 0-11.57-2.335 21.919 21.919 0 0 0-5.44-.378 16.012 16.012 0 0 0-6.655 2.35c-2.699 1.663-.965 2.062-.378 4.467z"/></g><g><path fill="#565661" d="M185.054 471.605h-5.964l-3.901-80.148-.273-4.559 5.069-1.783.342 4.845z"/></g><g opacity=".1"><path d="M180.327 389.96l-5.138 1.497-.273-4.559 5.069-1.783z"/></g><g><path fill="#565661" d="M259.88 488.559l-9.836 1.188-45.318-102.849-12.22-.895-21.464 6.265-4.173 122.452h-9.837l3.873-126.927-23.554.601L95.32 493.026h-8.942l44.206-122.285 1.706-4.712 65.879-2.258 16.422 9.208.21.53z"/></g><g opacity=".1"><path d="M214.801 373.51c-14.157 4.264-28.853 8.92-28.853 8.92s-13.402 4.678-19.079 0a8.578 8.578 0 0 0-2.37-1.307c.737.527 1.532.965 2.37 1.308l-36.285-11.697 1.7-4.705 65.885-2.258 16.423 9.207z"/></g><g><path fill="#fff" d="M147.79 353.214l26.825-5.964s64.096 11.928 68.864 16.696c0 0-51.274 10.43-56.937 13.982-5.663 3.552-39.354 7.48-38.752-24.714z"/></g><g><path fill="#396ab3" d="M136.254 286.175c-2.097 6.648-7.823 12.64-14.793 12.926a2.58 2.58 0 0 1-1.475-.265c-.874-.546-.895-1.825-.539-2.797.357-.972.98-1.845 1.077-2.866.02-.208.007-.419-.042-.622-.182-.832-.86-1.573-1.657-1.399a2.797 2.797 0 0 0 .594-3.712 8.392 8.392 0 0 1-.853-1.147c-.58-1.188.322-2.523.7-3.796.776-2.796-1.196-5.593-1.357-8.508-.14-2.608 1.182-5.062 1.51-7.649.525-4.195-1.559-8.215-1.803-12.402-.168-2.923.552-5.817 1.356-8.635.7-2.516 1.49-5.061 1.538-7.69 0-1.909-.329-3.796-.42-5.698a9.92 9.92 0 0 1 .916-5.062 4.048 4.048 0 0 1 2.3-1.964c2.294-.77 3.797.426 4.132 2.6.56 3.699.238 7.474.972 11.187a52.436 52.436 0 0 0 3.07 10.13c1.237 2.95 2.74 5.803 3.69 8.858a48.799 48.799 0 0 1 1.532 7.69c.937 6.985 1.67 14.172-.448 20.82z"/></g><g><path fill="#a26565" d="M295.488 455.392a10.843 10.843 0 0 1-7.642 4.502c-3.034.378-6.187-.384-9.13.448a2.797 2.797 0 0 0-2.098 1.615 17.18 17.18 0 0 0-.132 1.713c-.343 1.866-2.797 2.286-4.706 2.272l-7.872-.05c-1.636 0-3.446-.09-4.621-1.223a3.44 3.44 0 0 1-.07-4.53c.244-.29.544-.527.881-.699a2.797 2.797 0 0 1-1.888-2.244 8.347 8.347 0 0 1 .147-3.083c0-2.923.7-7.817 2.755-10.103 2.524-2.845 6.9-6.523 10.71-7.285a8.39 8.39 0 0 1 7.257 2.063c1.804 1.678 3.118 4.306 5.593 4.6 1.35.168 2.65-.468 3.985-.7a7.418 7.418 0 0 1 7.558 3.993 7.87 7.87 0 0 1 .7 2.188 9.089 9.089 0 0 1-1.427 6.523z"/></g><g opacity=".1"><path d="M295.488 455.392a10.843 10.843 0 0 1-7.642 4.502c-3.034.378-6.187-.384-9.13.448a2.797 2.797 0 0 0-2.098 1.615c-.073.568-.117 1.14-.133 1.712-.342 1.867-2.796 2.287-4.705 2.273l-7.872-.05c-1.636 0-3.447-.09-4.621-1.223a3.44 3.44 0 0 1-.07-4.53c4.544-.189 9.012 0 13.542-.937 1.839-.37 3.65-.86 5.51-1.119 4.026-.573 8.312-.083 12.01-1.79 3.083-1.398 5.293-4.243 6.6-7.417a9.089 9.089 0 0 1-1.391 6.516z"/></g><g><path fill="#454b69" d="M274.717 444.339c-2.797 2.167-6.076 3.859-9.6 4.04-3.523.182-7.263-1.398-8.99-4.46-2.524-4.495-.287-10.746-3.377-14.87-.965-1.294-2.356-2.21-3.377-3.461-1.02-1.252-1.608-3.132-.699-4.46-1.098.419-2.258-.644-2.58-1.776-.321-1.133-.119-2.35-.314-3.496-.51-3.041-3.496-4.992-4.93-7.69-1.432-2.7-1.237-6.202-1.397-9.397a35.655 35.655 0 0 0-8.25-21.218c-.95-1.133-2.167-2.286-3.65-2.23.26-2.56-1.447-5.006-3.656-6.293-2.21-1.286-4.838-1.72-7.397-1.971-25.819-2.545-52.721 7.054-77.372-1.021-6.859-2.244-13.473-5.999-17.667-11.885a20.779 20.779 0 0 1-3.699-15.717v-.097c.972-4.964 3.594-6.188 7.935-8.453a95.245 95.245 0 0 1 15.654-6.565c10.487-3.279 21.778-4.46 32.6-2.055 5.055 1.132 9.928 3.006 14.99 4.104 1.992.433 3.999.74 6.019 1 3.14.39 6.292.65 9.452 1.013a142.995 142.995 0 0 1 29.685 6.677c3.587 1.216 7.173 2.608 10.256 4.81a22.722 22.722 0 0 1 9.117 15.003c.294 2.056.3 4.195.748 6.187a31.468 31.468 0 0 0 1.678 4.894 325.53 325.53 0 0 1 14.605 45.444 11.04 11.04 0 0 0 1.167 3.286c.895 1.447 2.433 2.419 3.335 3.866 2.098 3.412.077 8.173 1.937 11.724.643 1.23 1.713 2.203 2.356 3.433 2.097 4.034-1 8.858-4.58 11.634z"/></g><g opacity=".1"><path d="M238.99 364.009a11.536 11.536 0 0 0 2.539-2.797 5.216 5.216 0 0 0 .769-3.614 10.34 10.34 0 0 1-2.72 8.892c-1.755 1.797-5.048 3.56-7.614 2.944.364-2.056 5.398-4.041 7.027-5.425z"/></g><g opacity=".1"><path d="M195.31 329.164a4.691 4.691 0 0 1-3.105 3.202c-1.49.456-3.051.638-4.607.538H186.2c-18.345-.405-36.886-4.474-54.805-.594a39.673 39.673 0 0 0-6.334 1.867 28.6 28.6 0 0 0-7.278 4.194v-.097c.972-4.964 3.594-6.188 7.935-8.453a95.254 95.254 0 0 1 15.633-6.502c10.487-3.279 21.778-4.46 32.6-2.055 5.055 1.132 9.928 3.006 14.99 4.104 1.992.433 3.999.74 6.019 1 .392.876.514 1.85.35 2.796z"/></g><g><path fill="#a26565" d="M195.31 328.164a4.684 4.684 0 0 1-3.104 3.21c-1.49.456-3.052.636-4.608.53H186.2c-18.345-.405-36.886-4.474-54.805-.594a40.392 40.392 0 0 0-6.334 1.86 28.8 28.8 0 0 0-7.585 4.474c-.536-1.472-1.07-2.948-1.601-4.425-.644-1.762 1.398-2.153 1.79-3.734.258-1.07-.182-2.286-.406-3.425a5.983 5.983 0 0 1-.112-.846c-.126-2.524.776-3.978 2.846-5.342 6.138-4.055 13.626-6.837 20.63-8.927a51.037 51.037 0 0 1 11.467-2.224c5.509-.321 11.01.7 16.373 1.993 6.593 1.629 13.116 3.782 18.96 7.229 2.867 1.67 5.663 3.768 7.209 6.746a5.313 5.313 0 0 1 .678 3.475z"/></g><g opacity=".1"><path d="M136.254 286.175c-2.098 6.648-7.823 12.64-14.794 12.926a2.58 2.58 0 0 1-1.475-.265c-.874-.545-.895-1.825-.538-2.797.356-.972.979-1.845 1.076-2.866.021-.208.007-.419-.041-.622 3.698-5.216 7.284-10.487 8.704-16.66a8.907 8.907 0 0 0 .258-3.266c-.188-1.258-.825-2.398-1.174-3.614-.615-2.153-.329-4.433-.154-6.663a61.524 61.524 0 0 0-4.782-28.727c-.944-2.181-2.02-4.39-2.35-6.719a4.048 4.048 0 0 1 2.301-1.964c2.293-.77 3.796.426 4.132 2.6.56 3.7.238 7.474.972 11.187a52.437 52.437 0 0 0 3.069 10.13c1.237 2.95 2.74 5.803 3.691 8.858a48.798 48.798 0 0 1 1.531 7.69c.958 6.936 1.692 14.123-.426 20.772z"/></g><g opacity=".1"><path d="M195.31 328.164a4.684 4.684 0 0 1-3.105 3.21c-1.49.456-3.052.636-4.607.53H186.2a30.46 30.46 0 0 0-20.275-4.893c-2.28.273-4.558.804-6.837.594-4.608-.42-8.341-3.733-12.445-5.852a26.133 26.133 0 0 0-28.965 3.93l-.398.35a5.982 5.982 0 0 1-.112-.847c-.126-2.524.776-3.978 2.845-5.341 6.139-4.055 13.626-6.838 20.632-8.928a51.043 51.043 0 0 1 11.465-2.223c5.51-.322 11.012.699 16.374 1.992 6.593 1.63 13.116 3.782 18.96 7.23 2.846 1.698 5.642 3.795 7.187 6.774a5.313 5.313 0 0 1 .678 3.474z"/></g><g><path fill="#396ab3" d="M210.99 251.582l-.097.251c-1.566 4.062-4.447 7.495-6.293 11.452-2.328 5.013-2.9 10.634-3.418 16.143-.448 4.72-.888 9.466-.532 14.2.895 11.66 6.593 22.72 8.117 34.159a37.97 37.97 0 0 1 .287 7.977c-.126 1.685-.434 3.495-1.552 4.74-1.119 1.244-3.293 1.734-4.496.538.539-1.027 1.084-2.048 1.63-3.076-3.196-2.482-8.006-.7-11.739-2.251-1.643-.7-2.957-1.958-4.335-3.083a30.398 30.398 0 0 0-22.644-6.614c-2.28.28-4.559.81-6.838.601-4.607-.426-8.34-3.733-12.444-5.852a26.147 26.147 0 0 0-28.965 3.923c-.979.908-2.293 1.971-3.496 1.398a2.908 2.908 0 0 1-1.084-1.182c-4.579-7.823-1.209-17.911 3.685-25.532 4.894-7.62 11.375-14.647 13.388-23.477a8.76 8.76 0 0 0 .259-3.265c-.189-1.258-.825-2.398-1.175-3.614-.615-2.153-.328-4.433-.153-6.663a61.524 61.524 0 0 0-4.768-28.734c-1.12-2.608-2.447-5.25-2.447-8.082 0-4.46 3.195-8.159 5.837-11.745 3.042-4.125 5.593-8.69 9.446-12.081 3.649-3.223 8.934-5.195 13.45-3.559a83.853 83.853 0 0 1 23.464-2.286c2.726.126 5.544.413 7.935 1.734 2.558 1.398 4.397 3.887 6.914 5.376 1.839 1.098 3.957 1.615 5.957 2.384a24.616 24.616 0 0 1 12.836 11.48c2.796 5.418 3.495 11.647 4.11 17.716.588 5.712 1.147 11.647-.838 17.024z"/></g><g opacity=".1"><path d="M200.65 293.627c.896 11.662 6.594 22.722 8.118 34.16-3.049-2.58-7.292-5.174-7.859-8.173-.629-3.244-2.642-7.495-2.978-10.774-.335-3.279 1.965-7.285-.447-9.536-1.175-1.097 1.95-.79.804-1.915-2.58-2.51-3.216-6.376-3.377-9.963-.273-6.348.531-12.766-.636-19.01-.7-3.852-2.16-7.522-3.328-11.262-1.357-4.356-2.335-8.816-3.314-13.284a93.058 93.058 0 0 1-2.097-12.067c-.301-3.495-.161-7.2 1.398-10.389 1.559-3.188 4.712-5.775 8.25-5.726 11.829.154 9.787 16.192 12.388 23.603 1.042 2.95 2.447 5.803 3.013 8.879.207 1.206.32 2.426.336 3.65-1.566 4.061-4.447 7.494-6.292 11.451-2.328 5.013-2.902 10.634-3.419 16.143-.475 4.733-.916 9.48-.56 14.213z"/></g><g><path fill="#396ab3" d="M208.341 239.11c1.042 2.95 2.447 5.802 3.013 8.878.944 5.153-.517 10.627 1.07 15.619a27.206 27.206 0 0 1 1.035 3.265c.272 1.587-.042 3.209-.042 4.824 0 2.6.818 5.117 1.545 7.613a136.073 136.073 0 0 1 4.859 25.98 32.573 32.573 0 0 0 1.111 6.991c.294.774.546 1.563.755 2.363a12.22 12.22 0 0 1 .133 3.237c-.189 3.426-.573 6.866-.189 10.277.385 3.412 1.63 6.873 4.195 9.159-2.293.496-4.719.993-6.956.258-3.146-1.027-5.034-4.194-6.635-7.075-2.027-3.677-9.732-6.991-10.529-11.123-.622-3.237-2.635-7.487-2.971-10.773-.336-3.286 1.957-7.278-.454-9.53-1.168-1.097 1.957-.797.804-1.915-2.573-2.51-3.21-6.376-3.37-9.97-.273-6.34.524-12.759-.637-19.002-.699-3.852-2.16-7.523-3.327-11.27-1.357-4.349-2.335-8.809-3.314-13.283a92.106 92.106 0 0 1-2.098-12.067c-.3-3.496-.167-7.208 1.399-10.396 1.566-3.188 4.719-5.768 8.25-5.726 11.78.21 9.752 16.254 12.353 23.665z"/></g><g opacity=".1"><path d="M174.629 241.843c1.104 1.293 2.524 2.712 4.194 2.46a.909.909 0 0 1-1.237.294 2.657 2.657 0 0 1-.93-1.07l-2.39-4.033c-.315-.525-2.483-3.58-3.014-1.818-.21.748 2.838 3.538 3.377 4.167z"/></g><g opacity=".1"><path d="M173.343 251.903a5.327 5.327 0 0 0-1.559-3.495 8.739 8.739 0 0 0-2.887-1.741c-2.622-1.077-5.726-1.944-8.571-1.804 1.034 1.51 4.355 2.412 6.019 3.265a214.74 214.74 0 0 1 6.998 3.775z"/></g><g opacity=".1"><path d="M180.789 280.54c-.482 3.58-3.412 6.292-6.376 8.39-2.964 2.097-6.292 3.9-8.229 6.935-1.342 2.097-1.943 4.53-3.083 6.718-1.258 2.412-3.139 4.44-4.642 6.705-1.503 2.265-2.678 4.97-2.216 7.655.013.25.13.483.321.643a.916.916 0 0 0 .888-.097c3.048-1.594 4.25-5.237 5.53-8.39a96.954 96.954 0 0 1 4.53-9.312c.756-1.399 1.588-2.923 2.993-3.699.962-.4 1.947-.744 2.95-1.027a9.92 9.92 0 0 0 3.643-2.86 24.008 24.008 0 0 0 5.593-16.297c-.042-1.251-.112-7.278-1.993-5.418-1.88 1.86.413 7.62.091 10.054z"/></g><g><path fill="#a26565" d="M185.396 143.252c6.013 2.621 11.186 8.39 10.998 14.926-.161 6.865-5.908 13.332-3.93 19.911 1.147 3.817 4.6 6.376 7.334 9.278 10.41 11.018 10.39 30.25-.056 41.248-3.999 4.195-9.137 7.18-13.367 11.186-14.912 14.053-15.549 38.362-7.565 57.231a93.08 93.08 0 0 1-18.61 2.097c-2.93 0-6.516-.496-7.579-3.23-.979-2.523.7-5.935-1.23-7.802-.91-.874-2.273-.993-3.496-1.195-7.872-1.273-14.332-7.558-17.283-14.962-2.95-7.403-2.796-15.737-1.104-23.525 1.202-5.628 3.083-11.823.293-16.856-3.495-6.335-13.549-9.005-13.395-16.248.126-5.936 7.124-8.823 11.095-13.235 7.327-8.124 3.839-20.729 3.825-31.677 0-9.634 3.37-19.576 10.542-25.994 10.67-9.627 31.217-6.502 43.528-1.153z"/></g><g opacity=".1"><g opacity=".1"><path d="M130.947 224.379c-3.069-5.538-11.13-8.278-13.003-13.724a7.753 7.753 0 0 0-1.51 4.376c-.154 7.243 9.885 9.914 13.395 16.255a13.206 13.206 0 0 1 1.398 7.285c1.105-4.866 2.076-9.942-.28-14.192z"/></g><g opacity=".1"><path d="M193.268 169.126c1.258-3.67 3.083-7.375 3.174-11.186a10.48 10.48 0 0 0-.035-1.237c-1.405 4.209-3.559 8.291-3.14 12.423z"/></g><g opacity=".1"><path d="M132.15 188.681c2.405-7.6.328-17.024.321-25.455 0-1.021.042-2.049.12-3.07a40.37 40.37 0 0 0-1.245 9.97c.014 6.02 1.07 12.55.804 18.555z"/></g><g opacity=".1"><path d="M200.91 221.463c-4 4.195-9.138 7.18-13.368 11.186-7.55 7.11-11.431 16.85-12.403 27.175 1.804-7.69 5.447-14.772 11.284-20.274 4.195-3.985 9.369-6.957 13.368-11.186a29.706 29.706 0 0 0 7.795-18.919 28.39 28.39 0 0 1-6.677 12.018z"/></g><g opacity=".1"><path d="M161.366 291.956c-2.929 0-6.515-.503-7.578-3.237-.979-2.516.699-5.928-1.23-7.802-.91-.874-2.28-.993-3.496-1.195-7.865-1.266-14.325-7.558-17.276-14.955-2.174-5.467-2.642-11.43-2.097-17.317-.056.23-.105.461-.154.699-1.664 7.788-1.839 16.129 1.105 23.533 2.943 7.403 9.41 13.689 17.275 14.954 1.245.203 2.615.329 3.496 1.196 1.95 1.873.252 5.285 1.23 7.802 1.063 2.733 4.65 3.272 7.579 3.237a93.145 93.145 0 0 0 18.61-2.098 62.492 62.492 0 0 1-2.257-6.243 92.806 92.806 0 0 1-15.207 1.426z"/></g></g><g opacity=".1"><path d="M184.263 261.467c1.727 1.3 3.6-3.656 2.531-4.894"/></g><g opacity=".1"><path d="M191.625 351.194c2.034-.7 4.195-1.399 5.523-3.077 1.098-1.349 2-6.704-.322-4.138-1.971 2.202-2.901 5.103-5.201 7.215z"/></g><g opacity=".1"><path d="M212.34 345.58c-.244 1.65-.699 3.362-1.866 4.551-.217.224-.7.364-.762.063a17.68 17.68 0 0 0 3.607-2.545c2.363-2.342 2.685-8.11-.916-9.64-.035 2.53.322 4.998-.063 7.57z"/></g><g><path fill="#454b69" d="M237.208 335.184s-19.84-7.796-27.014-6.992c-7.173.804 8.124 12.11 8.124 12.11l9.145 6.166s5.593-2.098 5.963-2.259c.37-.16 3.782-9.025 3.782-9.025z"/></g><g><path fill="#565661" d="M100.69 251.554s14.905-8.641 34.579 2.097c19.673 10.739 22.952 73.933 22.952 73.933s-8.047 64.383 22.98 50.058c0 0 56.63-17.583 62.3-13.71 0 0 5.369 0-5.363 2.384-10.731 2.384-52.19 15.52-52.19 15.52s-13.402 4.685-19.079 0c-5.677-4.684-21.764.602-23.854-31.6a559.996 559.996 0 0 0-7.453-60.517l-5.53-16.394z"/></g><g><path fill="#fff" d="M98.9 351.124s6.558-65.285-4.195-88.839c-9.354-20.526 26.819-10.927 36.257-8.13a6.872 6.872 0 0 1 3.621 2.586c5.593 7.866 25.658 39.39 19.744 81.568 0 0-2.384 37.564 12.521 43.52l-45.926-14.793c-3.726-1.203-7.508-2.202-11.326-3.07-4.866-1.104-12.794-4.243-10.696-12.842z"/></g><g><path fill="#565661" d="M425.54 473.003h5.963l3.908-80.148.266-4.559-5.068-1.782-.336 4.845z"/></g><g opacity=".1"><path d="M430.273 391.359l5.138 1.496.266-4.559-5.069-1.782z"/></g><g><path fill="#a26565" d="M375.748 442.052a13.442 13.442 0 0 1-.84 3.202 5.656 5.656 0 0 1-2.551 3.189 6.74 6.74 0 0 1-2.58.51c-3.293.196-6.774.147-9.606-1.531a17.48 17.48 0 0 1-3.293-2.748 150.248 150.248 0 0 1-17.282-20.554c-.86-1.238-1.748-2.699-1.364-4.195a65.167 65.167 0 0 0 18.716-8.564 9.031 9.031 0 0 1 2.629-1.399 14.284 14.284 0 0 1 4.936-.181c1.587.258 1.657.307 2.265 2.097 1.007 3.027.839 6.292 1.971 9.32a28.878 28.878 0 0 0 2.615 4.781c2.923 4.887 5.167 10.655 4.384 16.073z"/></g><g opacity=".1"><path d="M375.748 442.052a13.444 13.444 0 0 1-.84 3.203 5.656 5.656 0 0 1-2.551 3.188 6.74 6.74 0 0 1-2.58.51c-3.293.196-6.774.147-9.606-1.531a17.48 17.48 0 0 1-3.293-2.748 150.244 150.244 0 0 1-17.282-20.554c-.86-1.238-1.748-2.699-1.364-4.195a64.887 64.887 0 0 0 6.404-2.14l.105.078c2.147 1.53 3.706 3.726 5.223 5.88l4.894 6.886a20.273 20.273 0 0 0 3.069 3.705 20.536 20.536 0 0 0 4.747 2.852c2.3 1.112 4.6 2.224 6.991 3.119 1.545.622 4.16.867 6.083 1.747z"/></g><g><path fill="#454b69" d="M380.264 367.392a21.04 21.04 0 0 1-1.748 3.335 142.735 142.735 0 0 0-14.905 34.88c-.965-.217-1.51 1.097-1.503 2.097.007 1 0 2.258-.923 2.622-.273.105-.58.105-.846.224-.587.265-.755 1.013-.84 1.657l-.824 6.054c-.287 2.098-.538 4.37.49 6.222a9.949 9.949 0 0 0 2.705 2.797l13.647 10.767c.56.44 1.251.908 1.923.664 1.53-.56.174-3.3 1.398-4.412.81-.762 2.097-.189 3.223-.28 1.468-.111 2.58-1.46 2.95-2.88.26-1.445.286-2.923.077-4.376a3.97 3.97 0 0 1 .224-1.965 4.768 4.768 0 0 1 1.67-1.601 17.94 17.94 0 0 0 7.348-15.13 8.387 8.387 0 0 1 .098-2.677 7.054 7.054 0 0 1 1.266-2.21c4.957-6.704 9.088-13.982 13.192-21.246 2.363-4.194 4.768-8.452 5.593-13.178a1.223 1.223 0 0 0-1.006-1.678 47.548 47.548 0 0 0-6.25-1.496c-6.426-1.3-12.627-3.307-18.877-5.237-6.25-1.93-6.201 2-8.082 7.047z"/></g><g><path fill="#565661" d="M350.712 489.957l9.844 1.188 45.31-102.849 12.221-.895 21.47 6.265 4.167 122.452h9.837l-3.873-126.927 23.553.602 42.032 104.631h8.942L480.009 372.14l-1.699-4.713-65.886-2.258-16.422 9.208-.21.531z"/></g><g opacity=".1"><path d="M395.792 374.908a2445.444 2445.444 0 0 1 28.853 8.921s13.402 4.677 19.079 0c.716-.558 1.516-1 2.37-1.307-.737.526-1.532.965-2.37 1.307l36.285-11.696-1.678-4.706-65.886-2.258-16.423 9.208z"/></g><g><path fill="#fff" d="M462.803 354.612l-26.825-5.963s-64.097 11.927-68.865 16.695c0 0 51.275 10.431 56.937 13.983 5.663 3.551 39.354 7.48 38.753-24.715z"/></g><g><path fill="#a26565" d="M363.261 450.449c-1.615 3.076-5.593 3.943-9.088 3.992a38.378 38.378 0 0 1-14.207-2.538c-2.587-.993-5.068-2.272-7.74-3-3.977-1.09-8.389-.999-11.884-3.187a13.982 13.982 0 0 1-4.468-4.845c-.202-.343-.398-.7-.58-1.063-1.67-3.25-2.447-7.033-1.517-10.543.93-3.51 4.307-7.375 8.222-7.32 4.649.07 10.193 2.273 14.681 3.412 5.593 1.398 11.186 3.013 16.13 5.97 4.138 2.49 7.795 6.062 9.745 10.425.375.841.684 1.71.923 2.6.608 2.014.748 4.258-.217 6.097z"/></g><g opacity=".1"><path d="M363.261 450.449c-1.615 3.076-5.593 3.943-9.088 3.992a38.378 38.378 0 0 1-14.207-2.538c-2.586-.993-5.068-2.272-7.739-3-3.978-1.09-8.39-.999-11.885-3.187a13.982 13.982 0 0 1-4.468-4.845c-.202-.343-.398-.7-.58-1.063.7.056 1.342.126 1.692.161 4.293.413 8.39 1.979 12.486 3.16a70.138 70.138 0 0 0 17.479 2.727c4.194.119 8.571-.19 12.234-2.237a32.085 32.085 0 0 1 3.398-1.867c.375.841.684 1.71.923 2.6.58 2.014.72 4.258-.245 6.097z"/></g><g><path fill="#454b69" d="M393.303 317.517c-9.089-1.49-18.345-1.853-27.56-2.217l-11.27-.447a5.11 5.11 0 0 0-2.37.286 15.44 15.44 0 0 0-1.853 1.399c-1.132.769-2.58.853-3.943.93-9.67.532-19.29 1.78-28.776 3.733-4.894 1-9.977 2.307-13.654 5.684-3.887 3.572-5.593 9.019-5.726 14.29-.133 5.272 1.252 10.452 2.713 15.514a70.675 70.675 0 0 1 3.055 18.778 35.136 35.136 0 0 0 .203 5.293c.325 1.677.82 3.316 1.475 4.894l5.145 13.738c.455 1.202.902 2.398 1.399 3.572.496 1.175.972 2.098 1.398 3.202.63 1.51 1.126 3.076 1.622 4.635l3.426 10.76.447 1.398c1.238 3.873 2.503 7.817 4.838 11.144 2.335 3.328 5.95 6.013 10.012 6.216 1.31-.05 2.623-.014 3.929.105 1.113.271 2.194.663 3.223 1.167a24.588 24.588 0 0 0 9.627 1.88c3.041 0 6.418-.845 8.068-3.404.909-1.398 1.146-3.118 1.398-4.768.44-3.314.867-6.775-.259-9.92-.699-1.881-1.873-3.496-2.684-5.35-1.133-2.523-1.503-5.312-2.238-7.976a30.467 30.467 0 0 0-9.298-14.794 145.809 145.809 0 0 1-3.496-19.142 16.845 16.845 0 0 0-.846-4.195c-.818-2.097-2.475-3.796-3.167-5.935-.65-1.986-.454-4.279-1.636-5.992 9.837 2.706 19.576 2.098 29.79 1.937 3.271.01 6.54-.177 9.788-.56a30.762 30.762 0 0 1 4.586-.489c3.16 0 6.125 1.398 9.026 2.629 8.2 3.496 16.842 6.243 25.749 6.62 9.194.385 18.282-1.775 27.266-3.914 3.95-.944 8.054-1.965 11.186-4.559 3.132-2.594 4.894-7.27 2.964-10.83-1.468-2.677-4.51-3.991-7.347-5.11-7.859-3.104-15.759-6.131-23.33-9.886-11.564-5.635-20.212-18.22-32.88-20.316z"/></g><g><path fill="#a1616a" d="M377.097 285.888c-1.097 2.377-2.943 4.32-4.306 6.558a16.618 16.618 0 0 0-2.098 12.34 14.039 14.039 0 0 0 7.866 9.57 19.739 19.739 0 0 0 5.453 1.315c2.46.3 5.082.364 7.257-.825a10.6 10.6 0 0 0 3.866-4.04c1.88-3.147 2.95-6.692 3.929-10.222 1.81-6.516 3.356-13.2 3.132-19.96-.077-2.328-.538-4.95-2.468-6.293a8.299 8.299 0 0 0-3.244-1.062l-9.221-1.65c-1.783-.322-4.894-1.63-6.44-.343-1.544 1.287-1.663 5.09-1.929 6.873-.42 2.635-.678 5.313-1.797 7.74z"/></g><g><path fill="#a1616a" d="M489.188 258.846l-2.412 20.219a92.987 92.987 0 0 0-.86 10.878c0 2.028.063 4.279-1.279 5.796a5.285 5.285 0 0 1-2.405 1.447c-2.93.909-6.124.098-8.92-1.154-1.637-.699-3.308-1.712-4.049-3.341a8.304 8.304 0 0 1-.524-3.545c0-12.06 1.14-24.637 7.439-34.915a7.615 7.615 0 0 1 2.216-2.558c1.748-1.119 4.034-.804 6.012-.196 1.217.37 4.503.783 5.279 1.867.776 1.083-.329 4.11-.497 5.502z"/></g><g><path fill="#a1616a" d="M400.028 160.562c0-13.9 11.269-25.168 25.169-25.168s25.169 11.268 25.169 25.168c0 13.9-11.269 25.169-25.169 25.169s-25.169-11.269-25.169-25.169z"/></g><g><path fill="#a1616a" d="M418.464 198.07a12.982 12.982 0 0 1-1.559 5.593 1121.84 1121.84 0 0 0 38.452-6.544 18.059 18.059 0 0 1-8.92-10.486 29.615 29.615 0 0 1-1.133-7.474 86.398 86.398 0 0 1 .23-12.032c-4.474.468-8.71 2.146-12.975 3.586-4.288 1.45-8.65 2.67-13.067 3.657-2.132.475-4.279.88-6.432 1.258-2.517.448-3.726.44-1.978 2.65 4.69 5.9 8.04 11.9 7.382 19.792z"/></g><g><path fill="#396ab3" d="M426.196 194.708c-3.32.496-6.802 1.055-9.452 3.11a35.675 35.675 0 0 0-2.873 2.762c-5.265 5.111-12.696 7.166-19.086 10.774a8.39 8.39 0 0 0-2.713 2.132c-.7.972-1.056 2.21-1.79 3.174-.853 1.119-2.202 1.818-2.866 3.055-.664 1.238-.518 2.552-.588 3.867-.16 2.887-1.251 5.628-2.097 8.39-3.88 13.22-1.755 27.964-7.627 40.45a5.684 5.684 0 0 0 3.09 3.23c1.478.533 3.02.865 4.586.987l13.01 1.615c1.86.23 3.832.447 5.53-.33a64.967 64.967 0 0 0-3.278 13.235 65.913 65.913 0 0 1-1.468 8.194c-1.79 6.153-6.292 11.277-11.627 14.78a4.3 4.3 0 0 0-1.643 1.517c-.699 1.398.336 2.964 1.07 4.335 2.132 3.97 1.839 8.739 1.81 13.241-.027 4.502.427 9.445 3.573 12.675 1.86 1.909 4.405 2.944 6.88 3.93l20.351 8.13a70.92 70.92 0 0 0 10.362 3.496c5.362 1.223 10.934 1.174 16.436.937 3.636-.154 7.266-.387 10.892-.7a8.474 8.474 0 0 0 4.118-1.083 7.69 7.69 0 0 0 2.412-3.272c2.832-6.16 3.783-13.346 8.173-18.506 3.013-3.544 7.69-6.376 8.033-11.011.161-2.307-.867-4.551-.88-6.866 0-2.845 1.488-5.55 1.398-8.39-.19-4.62-4.545-8.144-5.237-12.716-1.762-11.592 4.125-23.17 7.74-34.32.65-1.993 1.489-4.195 3.404-5.048 1.916-.853 4.614-.406 5.3-2.293 1.726-4.74 2.139-10.299 1.915-15.34-.126-2.915-1.16-5.767-1.041-8.69.083-2.055.74-4.054.915-6.103.266-3.097-.552-6.173-1.398-9.165a14.36 14.36 0 0 0-1.09-3.09 14.678 14.678 0 0 0-1.818-2.496l-3.405-4.048c-1.594-1.895-3.279-3.86-5.593-4.817-.748-1.853-3.14-3.133-4.852-4.153a49.713 49.713 0 0 0-5.341-2.622l-19.254-8.501a7.887 7.887 0 0 0-2.286-.742 7.404 7.404 0 0 0-3.398.7c-5.873 2.328-12.004 4.649-18.297 5.586z"/></g><g><path fill="#464353" d="M405.803 164.939c-.741-2.608-2.636-4.86-2.923-7.558-.258-2.398.797-4.72 1.399-7.054.6-2.335.58-5.188-1.273-6.74-.307-.266-.699-.503-.81-.895-.224-.699.482-1.335.698-2.041.399-1.398-1.328-2.944-.699-4.286.357-.734 1.252-.993 2.035-1.223 2.992-.888 6.026-2.86 6.676-5.915 2.342.979 4.838-.86 6.635-2.643 1.797-1.782 4.006-3.817 6.481-3.279l-.552 1.126a17.898 17.898 0 0 1 11.836-.133h-1.174a16.234 16.234 0 0 1 9.36 3.167c-.3 0-.328.448-.209.7.979 2.285 3.496 3.495 5.922 4.061 1.46.35 3.048.602 4.118 1.65 1.07 1.049 1.09 3.237-.322 3.74a36.774 36.774 0 0 1 8.117 4.405c.699.51 1.489 1.203 1.398 2.097-.1.45-.245.888-.433 1.308-.14.746-.09 1.515.146 2.237l.777 3.202c.852 3.559 1.524 7.844-1.07 10.424a9.571 9.571 0 0 1-1.685 11.298 4.656 4.656 0 0 1-3.496 6.02c.86 1.342.07 3.257-1.286 4.096-1.356.84-3.062.846-4.642.7-1.58-.147-3.181-.504-4.761-.266-2.3.356-4.552 1.922-6.768 1.223a15.191 15.191 0 0 1-2.37-1.272c-1.552-.832-3.356-1.02-5.076-1.398a23.45 23.45 0 0 1-8.2-3.496 9.613 9.613 0 0 1-3.769-4.195c-1.538-3.887 1.049-8.984-1.67-12.15-1.595-1.846-4.755-1.874-6.538-.294-.888.79-1.006 2.454-1.93 3.048a12.2 12.2 0 0 1-3.942.336z"/></g><g opacity=".1"><path d="M371.602 365.407a11.533 11.533 0 0 1-2.538-2.796 5.215 5.215 0 0 1-.769-3.615 10.34 10.34 0 0 0 2.72 8.893c1.755 1.797 5.048 3.558 7.613 2.943-.363-2.055-5.397-4.04-7.026-5.425z"/></g><g><path fill="#565661" d="M509.903 252.952s-14.905-8.641-34.579 2.097c-19.673 10.739-22.952 73.933-22.952 73.933s8.047 64.383-22.98 50.058c0 0-56.63-17.583-62.3-13.71 0 0-5.369 0 5.363 2.384 10.731 2.384 52.19 15.52 52.19 15.52s13.402 4.685 19.079 0c5.677-4.684 21.764.602 23.854-31.6a559.989 559.989 0 0 1 7.453-60.517l5.53-16.394z"/></g><g><path fill="#fff" d="M511.693 352.522s-6.558-65.285 4.195-88.838c9.354-20.527-26.819-10.928-36.257-8.131a6.872 6.872 0 0 0-3.621 2.586c-5.593 7.866-25.658 39.39-19.744 81.568 0 0 2.384 37.564-12.521 43.52l45.926-14.793c3.726-1.202 7.508-2.202 11.326-3.07 4.865-1.104 12.794-4.243 10.696-12.842z"/></g><g opacity=".1"><path fill="#396ab3" d="M563.967 468.529c0-6.043 30.5-10.942 68.123-10.942 37.623 0 68.123 4.899 68.123 10.942 0 6.042-30.5 10.94-68.123 10.94-37.623 0-68.123-4.898-68.123-10.94z"/></g><g><path fill="#535461" d="M629.895 357.619v-98.696h4.383v98.696z"/></g><g><path fill="#565661" d="M661.831 357.318l-.272 4.446-.392 6.293-.16 2.614-.385 6.292-.168 2.615-.392 6.292-4.418 71.36a12.095 12.095 0 0 1-12.067 11.298h-22.98a12.08 12.08 0 0 1-12.053-11.34l-4.433-71.367-.384-6.292-.161-2.614-.399-6.293-.16-2.614-.385-6.293-.28-4.446a6.292 6.292 0 0 1 6.25-6.649h46.996a6.292 6.292 0 0 1 6.243 6.698z"/></g><g><path fill="#9d9cb5" d="M661.558 361.765l-.391 6.27h-58.154l-.391-6.27z"/></g><g><path fill="#9d9cb5" d="M661.006 370.657l-.384 6.279h-57.056l-.392-6.279z"/></g><g><path fill="#9d9cb5" d="M660.454 379.55l-.392 6.271h-55.944l-.392-6.27z"/></g><g><path fill="#396ab3" d="M595.924 295.914c25.532 18.47 36.166 47.359 36.166 47.359s-30.762-1.056-56.3-19.527c-25.54-18.471-36.16-47.352-36.16-47.352s30.769 1.056 56.294 19.52z"/></g><g><path fill="none" stroke="#535461" stroke-miterlimit="20" stroke-width="2" d="M539.63 276.394v0s31.93 17.723 42.179 32.398c10.249 14.674 50.281 34.48 50.281 34.48v0"/></g><g><path fill="#396ab3" d="M612.403 258.706c13.898 10.046 19.687 25.777 19.687 25.777s-16.779-.58-30.643-10.627c-13.863-10.046-19.645-25.777-19.645-25.777s16.709.573 30.6 10.627z"/></g><g><path fill="none" stroke="#535461" stroke-miterlimit="20" stroke-width="2" d="M581.802 248.08v0s17.38 9.647 22.952 17.631c5.572 7.984 27.371 18.772 27.371 18.772v0"/></g><g><path fill="#396ab3" d="M652.281 283.679c-15.961 17.541-19.338 40.465-19.338 40.465s22.505-5.523 38.452-23.07c15.947-17.549 19.338-40.466 19.338-40.466s-22.49 5.53-38.452 23.07z"/></g><g><path fill="none" stroke="#535461" stroke-miterlimit="20" stroke-width="2" d="M690.747 260.614v0s-20.792 17.982-26.078 30.37c-5.285 12.39-31.726 33.16-31.726 33.16v0"/></g><g><path fill="#dfe6f5" d="M329.375 241.451v1.594h-47.269v-1.293a15.886 15.886 0 0 0 3.65-1.944 15.528 15.528 0 0 0 6.488-12.626c0-1.29-.162-2.575-.483-3.824a15.542 15.542 0 0 0-8.585-10.298h45.877a15.541 15.541 0 0 0-8.585 10.298 15.324 15.324 0 0 0-.476 3.824 15.52 15.52 0 0 0 6.481 12.626 15.99 15.99 0 0 0 2.902 1.643z"/></g><g opacity=".1"><path d="M329.053 213.06a15.541 15.541 0 0 0-8.585 10.298h-28.706a15.542 15.542 0 0 0-8.586-10.298z"/></g><g><path fill="#dfe6f5" d="M227.986 204.915v8.977c0 4.95 3.622 8.97 8.096 8.97h139.064c4.474 0 8.103-4.02 8.103-8.97v-8.977z"/></g><g opacity=".1"><path d="M329.375 241.451v1.595h-47.269v-1.294a15.886 15.886 0 0 0 3.65-1.943h40.717a15.99 15.99 0 0 0 2.902 1.642z"/></g><g><path fill="#dfe6f5" d="M268.488 245.038a2 2 0 0 1-2-2v-.733a2 2 0 0 1 2-2h74.505a2 2 0 0 1 2 2v.733a2 2 0 0 1-2 2z"/></g><g><path fill="#474157" d="M383.249 106.596c0-4.474-3.629-8.1-8.103-8.096H236.082a8.089 8.089 0 0 0-8.096 8.096v100.067H383.25z"/></g><g><path fill="#4c4c78" d="M379.012 110.21v85.994a3.985 3.985 0 0 1-3.985 3.992H236.208a3.985 3.985 0 0 1-3.985-3.992V110.21a3.93 3.93 0 0 1 .532-1.993 3.985 3.985 0 0 1 3.453-1.992h138.82c2.2 0 3.984 1.784 3.984 3.985z"/></g><g><path fill="#fff" d="M303.751 102.36a1.867 1.867 0 1 1 3.733 0 1.867 1.867 0 0 1-3.733 0z"/></g><g><path fill="#fff" d="M301.01 214.262a4.607 4.607 0 1 1 9.215 0 4.607 4.607 0 0 1-9.214 0z"/></g><g><path fill="#c8cad7" d="M379.012 110.21H232.237c0-2.2 1.784-3.984 3.985-3.984h138.805c2.201 0 3.985 1.784 3.985 3.985z"/></g><g><path fill="#ededf4" d="M235.209 108.218a1 1 0 1 1 2 0 1 1 0 0 1-2 0z"/></g><g><path fill="#ededf4" d="M238.201 108.218a1 1 0 1 1 2 0 1 1 0 0 1-2 0z"/></g><g><path fill="#ededf4" d="M241.193 108.218a1 1 0 1 1 2 0 1 1 0 0 1-2 0z"/></g></g></g></svg>