<svg xmlns="http://www.w3.org/2000/svg" width="665" height="421" viewBox="0 0 665 421"><defs><linearGradient id="6x9ga" x1="1094" x2="192.2" y1="231.21" y2="219.94" gradientUnits="userSpaceOnUse"><stop offset="0" stop-color="#dae3fe"/><stop offset="1" stop-color="#e9effd"/></linearGradient><linearGradient id="6x9gb" x1="581.27" x2="588.19" y1="100.56" y2="100.56" gradientUnits="userSpaceOnUse"><stop offset="0" stop-color="#dae3fe"/><stop offset="1" stop-color="#e9effd"/></linearGradient><linearGradient id="6x9gc" x1="566.86" x2="578.26" y1="112.7" y2="112.7" gradientUnits="userSpaceOnUse"><stop offset="0" stop-color="#dae3fe"/><stop offset="1" stop-color="#e9effd"/></linearGradient><linearGradient id="6x9gd" x1="553.33" x2="567.47" y1="130.13" y2="130.13" gradientUnits="userSpaceOnUse"><stop offset="0" stop-color="#dae3fe"/><stop offset="1" stop-color="#e9effd"/></linearGradient><linearGradient id="6x9ge" x1="542.41" x2="561.13" y1="152.29" y2="152.29" gradientUnits="userSpaceOnUse"><stop offset="0" stop-color="#dae3fe"/><stop offset="1" stop-color="#e9effd"/></linearGradient><linearGradient id="6x9gf" x1="535.74" x2="554.5" y1="178.49" y2="178.49" gradientUnits="userSpaceOnUse"><stop offset="0" stop-color="#dae3fe"/><stop offset="1" stop-color="#e9effd"/></linearGradient><linearGradient id="6x9gg" x1="524.76" x2="545.48" y1="199.91" y2="199.91" gradientUnits="userSpaceOnUse"><stop offset="0" stop-color="#dae3fe"/><stop offset="1" stop-color="#e9effd"/></linearGradient><linearGradient id="6x9gh" x1="514.3" x2="537.65" y1="221.36" y2="221.36" gradientUnits="userSpaceOnUse"><stop offset="0" stop-color="#dae3fe"/><stop offset="1" stop-color="#e9effd"/></linearGradient><linearGradient id="6x9gi" x1="499.9" x2="526.66" y1="243.03" y2="243.03" gradientUnits="userSpaceOnUse"><stop offset="0" stop-color="#dae3fe"/><stop offset="1" stop-color="#e9effd"/></linearGradient><linearGradient id="6x9gj" x1="484.6" x2="518.83" y1="264.34" y2="264.34" gradientUnits="userSpaceOnUse"><stop offset="0" stop-color="#dae3fe"/><stop offset="1" stop-color="#e9effd"/></linearGradient><linearGradient id="6x9gk" x1="472.11" x2="507.37" y1="291.44" y2="291.44" gradientUnits="userSpaceOnUse"><stop offset="0" stop-color="#dae3fe"/><stop offset="1" stop-color="#e9effd"/></linearGradient><linearGradient id="6x9gl" x1="463.6" x2="498.37" y1="320.06" y2="320.06" gradientUnits="userSpaceOnUse"><stop offset="0" stop-color="#dae3fe"/><stop offset="1" stop-color="#e9effd"/></linearGradient><linearGradient id="6x9gm" x1="471.14" x2="738.43" y1="348.61" y2="204.68" gradientUnits="userSpaceOnUse"><stop offset="0" stop-color="#fe7062"/><stop offset="1" stop-color="#ff928e"/></linearGradient><linearGradient id="6x9gn" x1="547.52" x2="693.24" y1="185.55" y2="41.63" gradientUnits="userSpaceOnUse"><stop offset="0" stop-color="#e1473d"/><stop offset="1" stop-color="#e9605a"/></linearGradient><linearGradient id="6x9go" x1="514.74" x2="571.06" y1="159.24" y2="65.41" gradientUnits="userSpaceOnUse"><stop offset="0" stop-color="#e1473d"/><stop offset="1" stop-color="#e9605a"/></linearGradient><linearGradient id="6x9gp" x1="-980" x2="-980" y1="-2833" y2="-2833" gradientUnits="userSpaceOnUse"><stop offset="0" stop-color="#e1473d"/><stop offset="1" stop-color="#e9605a"/></linearGradient><linearGradient id="6x9gq" x1="525.6" x2="523.94" y1="208.19" y2="586.43" gradientUnits="userSpaceOnUse"><stop offset="0" stop-color="#e1473d"/><stop offset="1" stop-color="#e9605a"/></linearGradient><linearGradient id="6x9gr" x1="83.89" x2="679.26" y1="523.63" y2="57.87" gradientUnits="userSpaceOnUse"><stop offset="0" stop-color="#ff928e"/><stop offset="1" stop-color="#feb3b1"/></linearGradient><linearGradient id="6x9gs" x1="348.32" x2="348.32" y1="-46.06" y2="15.62" gradientUnits="userSpaceOnUse"><stop offset="0" stop-color="#e1473d"/><stop offset="1" stop-color="#e9605a"/></linearGradient><linearGradient id="6x9gt" x1="348.7" x2="349.87" y1="107.41" y2="238.67" gradientUnits="userSpaceOnUse"><stop offset="0" stop-color="#e1473d"/><stop offset="1" stop-color="#e9605a"/></linearGradient><linearGradient id="6x9gu" x1="346.23" x2="351" y1="414.29" y2="484.55" gradientUnits="userSpaceOnUse"><stop offset="0" stop-color="#fe7062"/><stop offset="1" stop-color="#ff928e"/></linearGradient><linearGradient id="6x9gv" x1="346.48" x2="344.82" y1="207.38" y2="585.66" gradientUnits="userSpaceOnUse"><stop offset="0" stop-color="#e1473d"/><stop offset="1" stop-color="#e9605a"/></linearGradient><linearGradient id="6x9gw" x1="455.61" x2="369.34" y1="139.1" y2="361.91" gradientUnits="userSpaceOnUse"><stop offset="0" stop-color="#e1473d"/><stop offset="1" stop-color="#e9605a"/></linearGradient><linearGradient id="6x9gx" x1="475.67" x2="389.4" y1="146.86" y2="369.68" gradientUnits="userSpaceOnUse"><stop offset="0" stop-color="#e1473d"/><stop offset="1" stop-color="#e9605a"/></linearGradient><linearGradient id="6x9gy" x1="479.62" x2="393.35" y1="148.39" y2="371.21" gradientUnits="userSpaceOnUse"><stop offset="0" stop-color="#e1473d"/><stop offset="1" stop-color="#e9605a"/></linearGradient><linearGradient id="6x9gz" x1="501.99" x2="415.72" y1="157.04" y2="379.87" gradientUnits="userSpaceOnUse"><stop offset="0" stop-color="#e1473d"/><stop offset="1" stop-color="#e9605a"/></linearGradient><linearGradient id="6x9gA" x1="311.67" x2="223.6" y1="169.71" y2="356.59" gradientUnits="userSpaceOnUse"><stop offset="0" stop-color="#e1473d"/><stop offset="1" stop-color="#e9605a"/></linearGradient><linearGradient id="6x9gB" x1="334.79" x2="246.73" y1="180.6" y2="367.49" gradientUnits="userSpaceOnUse"><stop offset="0" stop-color="#e1473d"/><stop offset="1" stop-color="#e9605a"/></linearGradient><linearGradient id="6x9gC" x1="333.76" x2="245.7" y1="180.13" y2="367" gradientUnits="userSpaceOnUse"><stop offset="0" stop-color="#e1473d"/><stop offset="1" stop-color="#e9605a"/></linearGradient><linearGradient id="6x9gD" x1="359.44" x2="271.37" y1="192.22" y2="379.1" gradientUnits="userSpaceOnUse"><stop offset="0" stop-color="#e1473d"/><stop offset="1" stop-color="#e9605a"/></linearGradient><linearGradient id="6x9gE" x1="580.95" x2="621.67" y1="158.64" y2="158.64" gradientUnits="userSpaceOnUse"><stop offset="0" stop-color="#dae3fe"/><stop offset="1" stop-color="#e9effd"/></linearGradient><linearGradient id="6x9gF" x1="589.5" x2="615.89" y1="162.11" y2="162.11" gradientUnits="userSpaceOnUse"><stop offset="0" stop-color="#dae3fe"/><stop offset="1" stop-color="#e9effd"/></linearGradient><linearGradient id="6x9gG" x1="593.1" x2="612.53" y1="162.58" y2="162.58" gradientUnits="userSpaceOnUse"><stop offset="0" stop-color="#dae3fe"/><stop offset="1" stop-color="#e9effd"/></linearGradient><linearGradient id="6x9gH" x1="585.15" x2="597.36" y1="141.11" y2="141.11" gradientUnits="userSpaceOnUse"><stop offset="0" stop-color="#dae3fe"/><stop offset="1" stop-color="#e9effd"/></linearGradient><linearGradient id="6x9gI" x1="603.41" x2="615.89" y1="139.82" y2="139.82" gradientUnits="userSpaceOnUse"><stop offset="0" stop-color="#dae3fe"/><stop offset="1" stop-color="#e9effd"/></linearGradient><linearGradient id="6x9gJ" x1="607.23" x2="610.24" y1="162.95" y2="162.95" gradientUnits="userSpaceOnUse"><stop offset="0" stop-color="#dae3fe"/><stop offset="1" stop-color="#e9effd"/></linearGradient><linearGradient id="6x9gK" x1="603.41" x2="606.68" y1="143.59" y2="143.59" gradientUnits="userSpaceOnUse"><stop offset="0" stop-color="#dae3fe"/><stop offset="1" stop-color="#e9effd"/></linearGradient><linearGradient id="6x9gL" x1="608.15" x2="611.42" y1="143.59" y2="143.59" gradientUnits="userSpaceOnUse"><stop offset="0" stop-color="#dae3fe"/><stop offset="1" stop-color="#e9effd"/></linearGradient><linearGradient id="6x9gM" x1="612.3" x2="615.58" y1="143.59" y2="143.59" gradientUnits="userSpaceOnUse"><stop offset="0" stop-color="#dae3fe"/><stop offset="1" stop-color="#e9effd"/></linearGradient><linearGradient id="6x9gN" x1="511.89" x2="528.48" y1="84.93" y2="84.93" gradientUnits="userSpaceOnUse"><stop offset="0" stop-color="#dae3fe"/><stop offset="1" stop-color="#e9effd"/></linearGradient><linearGradient id="6x9gO" x1="527.3" x2="537.51" y1="60.1" y2="60.1" gradientUnits="userSpaceOnUse"><stop offset="0" stop-color="#dae3fe"/><stop offset="1" stop-color="#e9effd"/></linearGradient><linearGradient id="6x9gP" x1="527.3" x2="533" y1="63.28" y2="63.28" gradientUnits="userSpaceOnUse"><stop offset="0" stop-color="#dae3fe"/><stop offset="1" stop-color="#e9effd"/></linearGradient><linearGradient id="6x9gQ" x1="527.3" x2="533" y1="66.45" y2="66.45" gradientUnits="userSpaceOnUse"><stop offset="0" stop-color="#dae3fe"/><stop offset="1" stop-color="#e9effd"/></linearGradient><linearGradient id="6x9gR" x1="527.3" x2="533" y1="69.62" y2="69.62" gradientUnits="userSpaceOnUse"><stop offset="0" stop-color="#dae3fe"/><stop offset="1" stop-color="#e9effd"/></linearGradient><linearGradient id="6x9gS" x1="527.3" x2="537.51" y1="60.1" y2="60.1" gradientUnits="userSpaceOnUse"><stop offset="0" stop-color="#dae3fe"/><stop offset="1" stop-color="#e9effd"/></linearGradient><linearGradient id="6x9gT" x1="527.3" x2="533" y1="63.28" y2="63.28" gradientUnits="userSpaceOnUse"><stop offset="0" stop-color="#dae3fe"/><stop offset="1" stop-color="#e9effd"/></linearGradient><linearGradient id="6x9gU" x1="527.3" x2="533" y1="66.45" y2="66.45" gradientUnits="userSpaceOnUse"><stop offset="0" stop-color="#dae3fe"/><stop offset="1" stop-color="#e9effd"/></linearGradient><linearGradient id="6x9gV" x1="527.3" x2="533" y1="69.62" y2="69.62" gradientUnits="userSpaceOnUse"><stop offset="0" stop-color="#dae3fe"/><stop offset="1" stop-color="#e9effd"/></linearGradient><linearGradient id="6x9gW" x1="527.3" x2="537.51" y1="72.79" y2="72.79" gradientUnits="userSpaceOnUse"><stop offset="0" stop-color="#dae3fe"/><stop offset="1" stop-color="#e9effd"/></linearGradient><linearGradient id="6x9gX" x1="527.3" x2="533" y1="75.96" y2="75.96" gradientUnits="userSpaceOnUse"><stop offset="0" stop-color="#dae3fe"/><stop offset="1" stop-color="#e9effd"/></linearGradient><linearGradient id="6x9gY" x1="527.3" x2="533" y1="79.13" y2="79.13" gradientUnits="userSpaceOnUse"><stop offset="0" stop-color="#dae3fe"/><stop offset="1" stop-color="#e9effd"/></linearGradient><linearGradient id="6x9gZ" x1="527.3" x2="533" y1="82.3" y2="82.3" gradientUnits="userSpaceOnUse"><stop offset="0" stop-color="#dae3fe"/><stop offset="1" stop-color="#e9effd"/></linearGradient><linearGradient id="6x9gaa" x1="527.3" x2="537.51" y1="85.47" y2="85.47" gradientUnits="userSpaceOnUse"><stop offset="0" stop-color="#dae3fe"/><stop offset="1" stop-color="#e9effd"/></linearGradient><linearGradient id="6x9gab" x1="527.3" x2="533" y1="88.64" y2="88.64" gradientUnits="userSpaceOnUse"><stop offset="0" stop-color="#dae3fe"/><stop offset="1" stop-color="#e9effd"/></linearGradient><linearGradient id="6x9gac" x1="527.3" x2="533" y1="91.8" y2="91.8" gradientUnits="userSpaceOnUse"><stop offset="0" stop-color="#dae3fe"/><stop offset="1" stop-color="#e9effd"/></linearGradient><linearGradient id="6x9gad" x1="527.3" x2="533" y1="94.97" y2="94.97" gradientUnits="userSpaceOnUse"><stop offset="0" stop-color="#dae3fe"/><stop offset="1" stop-color="#e9effd"/></linearGradient><linearGradient id="6x9gae" x1="407.13" x2="421.14" y1="53.69" y2="53.69" gradientUnits="userSpaceOnUse"><stop offset="0" stop-color="#dae3fe"/><stop offset="1" stop-color="#e9effd"/></linearGradient><linearGradient id="6x9gaf" x1="402.23" x2="426.04" y1="40.03" y2="40.03" gradientUnits="userSpaceOnUse"><stop offset="0" stop-color="#dae3fe"/><stop offset="1" stop-color="#e9effd"/></linearGradient><linearGradient id="6x9gag" x1="395.45" x2="432.82" y1="31.85" y2="31.85" gradientUnits="userSpaceOnUse"><stop offset="0" stop-color="#dae3fe"/><stop offset="1" stop-color="#e9effd"/></linearGradient><linearGradient id="6x9gah" x1="388.67" x2="439.6" y1="23.66" y2="23.66" gradientUnits="userSpaceOnUse"><stop offset="0" stop-color="#dae3fe"/><stop offset="1" stop-color="#e9effd"/></linearGradient><linearGradient id="6x9gai" x1="276.05" x2="315.17" y1="38.21" y2="38.21" gradientUnits="userSpaceOnUse"><stop offset="0" stop-color="#dae3fe"/><stop offset="1" stop-color="#e9effd"/></linearGradient><linearGradient id="6x9gaj" x1="288.8" x2="302.4" y1="67.07" y2="67.07" gradientUnits="userSpaceOnUse"><stop offset="0" stop-color="#dae3fe"/><stop offset="1" stop-color="#e9effd"/></linearGradient><linearGradient id="6x9gak" x1="289.84" x2="301.37" y1="73.14" y2="73.14" gradientUnits="userSpaceOnUse"><stop offset="0" stop-color="#dae3fe"/><stop offset="1" stop-color="#e9effd"/></linearGradient><linearGradient id="6x9gal" x1="288.81" x2="295.7" y1="44.61" y2="44.61" gradientUnits="userSpaceOnUse"><stop offset="0" stop-color="#dae3fe"/><stop offset="1" stop-color="#e9effd"/></linearGradient><linearGradient id="6x9gam" x1="297.42" x2="302.41" y1="45.07" y2="45.07" gradientUnits="userSpaceOnUse"><stop offset="0" stop-color="#dae3fe"/><stop offset="1" stop-color="#e9effd"/></linearGradient><linearGradient id="6x9gan" x1="291.66" x2="300.51" y1="31.51" y2="31.51" gradientUnits="userSpaceOnUse"><stop offset="0" stop-color="#dae3fe"/><stop offset="1" stop-color="#e9effd"/></linearGradient><linearGradient id="6x9gao" x1="156.16" x2="198.46" y1="96.39" y2="96.39" gradientUnits="userSpaceOnUse"><stop offset="0" stop-color="#dae3fe"/><stop offset="1" stop-color="#e9effd"/></linearGradient><linearGradient id="6x9gap" x1="160.59" x2="193.4" y1="67.38" y2="67.38" gradientUnits="userSpaceOnUse"><stop offset="0" stop-color="#dae3fe"/><stop offset="1" stop-color="#e9effd"/></linearGradient><linearGradient id="6x9gaq" x1="164.12" x2="189.87" y1="69.15" y2="69.15" gradientUnits="userSpaceOnUse"><stop offset="0" stop-color="#dae3fe"/><stop offset="1" stop-color="#e9effd"/></linearGradient><linearGradient id="6x9gar" x1="172.07" x2="182.9" y1="95.65" y2="95.65" gradientUnits="userSpaceOnUse"><stop offset="0" stop-color="#dae3fe"/><stop offset="1" stop-color="#e9effd"/></linearGradient><linearGradient id="6x9gas" x1="102.3" x2="258.94" y1="299.48" y2="299.48" gradientUnits="userSpaceOnUse"><stop offset="0" stop-color="#09005d"/><stop offset="1" stop-color="#1a0f91"/></linearGradient><linearGradient id="6x9gat" x1="385.75" x2="293.67" y1="77.75" y2="171.62" gradientUnits="userSpaceOnUse"><stop offset="0" stop-color="#4042e2"/><stop offset="1" stop-color="#4f52ff"/></linearGradient><linearGradient id="6x9gau" x1="170.93" x2="174.51" y1="71.83" y2="130.92" gradientUnits="userSpaceOnUse"><stop offset="0" stop-color="#09005d"/><stop offset="1" stop-color="#1a0f91"/></linearGradient><linearGradient id="6x9gav" x1="198.5" x2="220.48" y1="295.83" y2="295.83" gradientUnits="userSpaceOnUse"><stop offset="0" stop-color="#dae3fe"/><stop offset="1" stop-color="#e9effd"/></linearGradient><linearGradient id="6x9gaw" x1="203.12" x2="217.36" y1="297.7" y2="297.7" gradientUnits="userSpaceOnUse"><stop offset="0" stop-color="#dae3fe"/><stop offset="1" stop-color="#e9effd"/></linearGradient><linearGradient id="6x9gax" x1="205.06" x2="215.55" y1="297.95" y2="297.95" gradientUnits="userSpaceOnUse"><stop offset="0" stop-color="#dae3fe"/><stop offset="1" stop-color="#e9effd"/></linearGradient><linearGradient id="6x9gay" x1="200.77" x2="207.36" y1="286.36" y2="286.36" gradientUnits="userSpaceOnUse"><stop offset="0" stop-color="#dae3fe"/><stop offset="1" stop-color="#e9effd"/></linearGradient><linearGradient id="6x9gaz" x1="210.63" x2="217.36" y1="285.66" y2="285.66" gradientUnits="userSpaceOnUse"><stop offset="0" stop-color="#dae3fe"/><stop offset="1" stop-color="#e9effd"/></linearGradient><linearGradient id="6x9gaA" x1="212.69" x2="214.31" y1="298.16" y2="298.16" gradientUnits="userSpaceOnUse"><stop offset="0" stop-color="#dae3fe"/><stop offset="1" stop-color="#e9effd"/></linearGradient><linearGradient id="6x9gaB" x1="210.63" x2="212.4" y1="287.71" y2="287.71" gradientUnits="userSpaceOnUse"><stop offset="0" stop-color="#dae3fe"/><stop offset="1" stop-color="#e9effd"/></linearGradient><linearGradient id="6x9gaC" x1="213.19" x2="214.95" y1="287.71" y2="287.71" gradientUnits="userSpaceOnUse"><stop offset="0" stop-color="#dae3fe"/><stop offset="1" stop-color="#e9effd"/></linearGradient><linearGradient id="6x9gaD" x1="215.43" x2="217.2" y1="287.71" y2="287.71" gradientUnits="userSpaceOnUse"><stop offset="0" stop-color="#dae3fe"/><stop offset="1" stop-color="#e9effd"/></linearGradient><linearGradient id="6x9gaE" x1="142.92" x2="151.88" y1="297.25" y2="297.25" gradientUnits="userSpaceOnUse"><stop offset="0" stop-color="#dae3fe"/><stop offset="1" stop-color="#e9effd"/></linearGradient><linearGradient id="6x9gaF" x1="151.24" x2="156.75" y1="283.85" y2="283.85" gradientUnits="userSpaceOnUse"><stop offset="0" stop-color="#dae3fe"/><stop offset="1" stop-color="#e9effd"/></linearGradient><linearGradient id="6x9gaG" x1="151.24" x2="154.32" y1="285.56" y2="285.56" gradientUnits="userSpaceOnUse"><stop offset="0" stop-color="#dae3fe"/><stop offset="1" stop-color="#e9effd"/></linearGradient><linearGradient id="6x9gaH" x1="151.24" x2="154.32" y1="287.27" y2="287.27" gradientUnits="userSpaceOnUse"><stop offset="0" stop-color="#dae3fe"/><stop offset="1" stop-color="#e9effd"/></linearGradient><linearGradient id="6x9gaI" x1="151.24" x2="154.32" y1="288.98" y2="288.98" gradientUnits="userSpaceOnUse"><stop offset="0" stop-color="#dae3fe"/><stop offset="1" stop-color="#e9effd"/></linearGradient><linearGradient id="6x9gaJ" x1="151.24" x2="156.75" y1="283.85" y2="283.85" gradientUnits="userSpaceOnUse"><stop offset="0" stop-color="#dae3fe"/><stop offset="1" stop-color="#e9effd"/></linearGradient><linearGradient id="6x9gaK" x1="151.24" x2="154.32" y1="285.56" y2="285.56" gradientUnits="userSpaceOnUse"><stop offset="0" stop-color="#dae3fe"/><stop offset="1" stop-color="#e9effd"/></linearGradient><linearGradient id="6x9gaL" x1="151.24" x2="154.32" y1="287.27" y2="287.27" gradientUnits="userSpaceOnUse"><stop offset="0" stop-color="#dae3fe"/><stop offset="1" stop-color="#e9effd"/></linearGradient><linearGradient id="6x9gaM" x1="151.24" x2="154.32" y1="288.98" y2="288.98" gradientUnits="userSpaceOnUse"><stop offset="0" stop-color="#dae3fe"/><stop offset="1" stop-color="#e9effd"/></linearGradient><linearGradient id="6x9gaN" x1="151.24" x2="156.75" y1="290.69" y2="290.69" gradientUnits="userSpaceOnUse"><stop offset="0" stop-color="#dae3fe"/><stop offset="1" stop-color="#e9effd"/></linearGradient><linearGradient id="6x9gaO" x1="151.24" x2="154.32" y1="292.4" y2="292.4" gradientUnits="userSpaceOnUse"><stop offset="0" stop-color="#dae3fe"/><stop offset="1" stop-color="#e9effd"/></linearGradient><linearGradient id="6x9gaP" x1="151.24" x2="154.32" y1="294.12" y2="294.12" gradientUnits="userSpaceOnUse"><stop offset="0" stop-color="#dae3fe"/><stop offset="1" stop-color="#e9effd"/></linearGradient><linearGradient id="6x9gaQ" x1="151.24" x2="154.32" y1="295.83" y2="295.83" gradientUnits="userSpaceOnUse"><stop offset="0" stop-color="#dae3fe"/><stop offset="1" stop-color="#e9effd"/></linearGradient><linearGradient id="6x9gaR" x1="151.24" x2="156.75" y1="297.54" y2="297.54" gradientUnits="userSpaceOnUse"><stop offset="0" stop-color="#dae3fe"/><stop offset="1" stop-color="#e9effd"/></linearGradient><linearGradient id="6x9gaS" x1="151.24" x2="154.32" y1="299.25" y2="299.25" gradientUnits="userSpaceOnUse"><stop offset="0" stop-color="#dae3fe"/><stop offset="1" stop-color="#e9effd"/></linearGradient><linearGradient id="6x9gaT" x1="151.24" x2="154.32" y1="300.96" y2="300.96" gradientUnits="userSpaceOnUse"><stop offset="0" stop-color="#dae3fe"/><stop offset="1" stop-color="#e9effd"/></linearGradient><linearGradient id="6x9gaU" x1="151.24" x2="154.32" y1="302.67" y2="302.67" gradientUnits="userSpaceOnUse"><stop offset="0" stop-color="#dae3fe"/><stop offset="1" stop-color="#e9effd"/></linearGradient><linearGradient id="6x9gaV" x1="176.98" x2="184.54" y1="360.74" y2="360.74" gradientUnits="userSpaceOnUse"><stop offset="0" stop-color="#dae3fe"/><stop offset="1" stop-color="#e9effd"/></linearGradient><linearGradient id="6x9gaW" x1="174.33" x2="187.19" y1="353.36" y2="353.36" gradientUnits="userSpaceOnUse"><stop offset="0" stop-color="#dae3fe"/><stop offset="1" stop-color="#e9effd"/></linearGradient><linearGradient id="6x9gaX" x1="170.67" x2="190.85" y1="348.94" y2="348.94" gradientUnits="userSpaceOnUse"><stop offset="0" stop-color="#dae3fe"/><stop offset="1" stop-color="#e9effd"/></linearGradient><linearGradient id="6x9gaY" x1="167.01" x2="194.51" y1="344.53" y2="344.53" gradientUnits="userSpaceOnUse"><stop offset="0" stop-color="#dae3fe"/><stop offset="1" stop-color="#e9effd"/></linearGradient><linearGradient id="6x9gaZ" x1="199.68" x2="220.8" y1="236.77" y2="236.77" gradientUnits="userSpaceOnUse"><stop offset="0" stop-color="#dae3fe"/><stop offset="1" stop-color="#e9effd"/></linearGradient><linearGradient id="6x9gba" x1="206.57" x2="213.92" y1="252.35" y2="252.35" gradientUnits="userSpaceOnUse"><stop offset="0" stop-color="#dae3fe"/><stop offset="1" stop-color="#e9effd"/></linearGradient><linearGradient id="6x9gbb" x1="207.13" x2="213.36" y1="255.64" y2="255.64" gradientUnits="userSpaceOnUse"><stop offset="0" stop-color="#dae3fe"/><stop offset="1" stop-color="#e9effd"/></linearGradient><linearGradient id="6x9gbc" x1="206.57" x2="210.29" y1="240.24" y2="240.24" gradientUnits="userSpaceOnUse"><stop offset="0" stop-color="#dae3fe"/><stop offset="1" stop-color="#e9effd"/></linearGradient><linearGradient id="6x9gbd" x1="211.22" x2="213.91" y1="240.49" y2="240.49" gradientUnits="userSpaceOnUse"><stop offset="0" stop-color="#dae3fe"/><stop offset="1" stop-color="#e9effd"/></linearGradient><linearGradient id="6x9gbe" x1="208.11" x2="212.89" y1="233.16" y2="233.16" gradientUnits="userSpaceOnUse"><stop offset="0" stop-color="#dae3fe"/><stop offset="1" stop-color="#e9effd"/></linearGradient><linearGradient id="6x9gbf" x1="134.95" x2="157.79" y1="246.38" y2="246.38" gradientUnits="userSpaceOnUse"><stop offset="0" stop-color="#dae3fe"/><stop offset="1" stop-color="#e9effd"/></linearGradient><linearGradient id="6x9gbg" x1="137.34" x2="155.06" y1="230.71" y2="230.71" gradientUnits="userSpaceOnUse"><stop offset="0" stop-color="#dae3fe"/><stop offset="1" stop-color="#e9effd"/></linearGradient><linearGradient id="6x9gbh" x1="139.25" x2="153.15" y1="231.67" y2="231.67" gradientUnits="userSpaceOnUse"><stop offset="0" stop-color="#dae3fe"/><stop offset="1" stop-color="#e9effd"/></linearGradient><linearGradient id="6x9gbi" x1="143.54" x2="149.39" y1="245.98" y2="245.98" gradientUnits="userSpaceOnUse"><stop offset="0" stop-color="#dae3fe"/><stop offset="1" stop-color="#e9effd"/></linearGradient><linearGradient id="6x9gbj" x1="-886.09" x2="-866.43" y1="215.25" y2="264.55" gradientUnits="userSpaceOnUse"><stop offset="0" stop-color="#09005d"/><stop offset="1" stop-color="#1a0f91"/></linearGradient><linearGradient id="6x9gbk" x1="-951.26" x2="-930.48" y1="144.96" y2="192.24" gradientUnits="userSpaceOnUse"><stop offset="0" stop-color="#ff928e"/><stop offset="1" stop-color="#feb3b1"/></linearGradient><linearGradient id="6x9gbl" x1="-839.28" x2="-829.74" y1="412.69" y2="412.69" gradientUnits="userSpaceOnUse"><stop offset="0" stop-color="#09005d"/><stop offset="1" stop-color="#1a0f91"/></linearGradient><linearGradient id="6x9gbm" x1="-879.08" x2="-865.36" y1="450.31" y2="289.88" gradientUnits="userSpaceOnUse"><stop offset="0" stop-color="#ff928e"/><stop offset="1" stop-color="#feb3b1"/></linearGradient><linearGradient id="6x9gbn" x1="-883.21" x2="-867.78" y1="410.95" y2="410.95" gradientUnits="userSpaceOnUse"><stop offset="0" stop-color="#09005d"/><stop offset="1" stop-color="#1a0f91"/></linearGradient><linearGradient id="6x9gbo" x1="-851.86" x2="-838.13" y1="452.69" y2="292.23" gradientUnits="userSpaceOnUse"><stop offset="0" stop-color="#ff928e"/><stop offset="1" stop-color="#feb3b1"/></linearGradient><linearGradient id="6x9gbp" x1="84.41" x2="51.34" y1="292.95" y2="339.76" gradientUnits="userSpaceOnUse"><stop offset="0" stop-color="#fe7062"/><stop offset=".29" stop-color="#fe7569"/><stop offset=".72" stop-color="#fe857d"/><stop offset="1" stop-color="#ff928e"/></linearGradient><linearGradient id="6x9gbq" x1="169.72" x2="114.29" y1="275.1" y2="313.54" gradientUnits="userSpaceOnUse"><stop offset="0" stop-color="#09005d"/><stop offset="1" stop-color="#1a0f91"/></linearGradient><linearGradient id="6x9gbr" x1="86.94" x2="81.18" y1="257.42" y2="287.62" gradientUnits="userSpaceOnUse"><stop offset="0" stop-color="#ff928e"/><stop offset="1" stop-color="#feb3b1"/></linearGradient><linearGradient id="6x9gbs" x1="84.79" x2="89.16" y1="243.05" y2="262.32" gradientUnits="userSpaceOnUse"><stop offset="0" stop-color="#ff928e"/><stop offset="1" stop-color="#feb3b1"/></linearGradient><linearGradient id="6x9gbt" x1="-925.75" x2="-914.5" y1="136.5" y2="164.71" gradientUnits="userSpaceOnUse"><stop offset="0" stop-color="#09005d"/><stop offset="1" stop-color="#1a0f91"/></linearGradient><linearGradient id="6x9gbu" x1="79.25" x2="83.61" y1="244.32" y2="263.57" gradientUnits="userSpaceOnUse"><stop offset="0" stop-color="#ff928e"/><stop offset="1" stop-color="#feb3b1"/></linearGradient><linearGradient id="6x9gbv" x1="-955.75" x2="-934.96" y1="146.79" y2="194.06" gradientUnits="userSpaceOnUse"><stop offset="0" stop-color="#ff928e"/><stop offset="1" stop-color="#feb3b1"/></linearGradient><linearGradient id="6x9gbw" x1="125.36" x2="130.94" y1="240.94" y2="240.94" gradientUnits="userSpaceOnUse"><stop offset="0" stop-color="#ff928e"/><stop offset="1" stop-color="#feb3b1"/></linearGradient><linearGradient id="6x9gbx" x1="33.51" x2="79.3" y1="306.77" y2="306.77" gradientUnits="userSpaceOnUse"><stop offset="0" stop-color="#ff928e"/><stop offset="1" stop-color="#feb3b1"/></linearGradient><linearGradient id="6x9gby" x1="556.45" x2="603.83" y1="332.02" y2="391.92" gradientUnits="userSpaceOnUse"><stop offset="0" stop-color="#09005d"/><stop offset="1" stop-color="#1a0f91"/></linearGradient><linearGradient id="6x9gbz" x1="-70.86" x2="-58.02" y1="377.25" y2="390.66" gradientUnits="userSpaceOnUse"><stop offset="0" stop-color="#09005d"/><stop offset="1" stop-color="#1a0f91"/></linearGradient><linearGradient id="6x9gbA" x1="-84.83" x2="-71.46" y1="341.71" y2="291.35" gradientUnits="userSpaceOnUse"><stop offset="0" stop-color="#4042e2"/><stop offset="1" stop-color="#4f52ff"/></linearGradient><linearGradient id="6x9gbB" x1="-53.73" x2="-29.45" y1="410.91" y2="428.72" gradientUnits="userSpaceOnUse"><stop offset="0" stop-color="#09005d"/><stop offset="1" stop-color="#1a0f91"/></linearGradient><linearGradient id="6x9gbC" x1="552.25" x2="559.41" y1="367.35" y2="434.4" gradientUnits="userSpaceOnUse"><stop offset="0" stop-color="#4042e2"/><stop offset="1" stop-color="#4f52ff"/></linearGradient><linearGradient id="6x9gbD" x1="-93.02" x2="-109.51" y1="345.03" y2="364.64" gradientUnits="userSpaceOnUse"><stop offset="0" stop-color="#ff928e"/><stop offset="1" stop-color="#feb3b1"/></linearGradient><linearGradient id="6x9gbE" x1="-130.19" x2="-103.77" y1="341.01" y2="433.69" gradientUnits="userSpaceOnUse"><stop offset="0" stop-color="#fe7062"/><stop offset="1" stop-color="#ff928e"/></linearGradient><linearGradient id="6x9gbF" x1="575.43" x2="574.54" y1="321.71" y2="336.31" gradientUnits="userSpaceOnUse"><stop offset="0" stop-color="#ff928e"/><stop offset="1" stop-color="#feb3b1"/></linearGradient><linearGradient id="6x9gbG" x1="588.75" x2="603.65" y1="308.14" y2="340.63" gradientUnits="userSpaceOnUse"><stop offset="0" stop-color="#ff928e"/><stop offset="1" stop-color="#feb3b1"/></linearGradient><linearGradient id="6x9gbH" x1="-170.77" x2="-164.52" y1="439.24" y2="420.47" gradientUnits="userSpaceOnUse"><stop offset="0" stop-color="#ff928e"/><stop offset="1" stop-color="#feb3b1"/></linearGradient><linearGradient id="6x9gbI" x1="-130.78" x2="-125.81" y1="283.57" y2="311.95" gradientUnits="userSpaceOnUse"><stop offset="0" stop-color="#09005d"/><stop offset="1" stop-color="#1a0f91"/></linearGradient><linearGradient id="6x9gbJ" x1="-176.49" x2="-170.24" y1="437.24" y2="418.46" gradientUnits="userSpaceOnUse"><stop offset="0" stop-color="#ff928e"/><stop offset="1" stop-color="#feb3b1"/></linearGradient><linearGradient id="6x9gbK" x1="-87.75" x2="-62.67" y1="352.67" y2="352.67" gradientUnits="userSpaceOnUse"><stop offset="0" stop-color="#09005d"/><stop offset="1" stop-color="#1a0f91"/></linearGradient><linearGradient id="6x9gbL" x1="-84.56" x2="-104.61" y1="363.64" y2="369.12" gradientUnits="userSpaceOnUse"><stop offset="0" stop-color="#09005d"/><stop offset="1" stop-color="#1a0f91"/></linearGradient><linearGradient id="6x9gbM" x1="578.7" x2="581.31" y1="337.78" y2="337.78" gradientUnits="userSpaceOnUse"><stop offset="0" stop-color="#e1473d"/><stop offset="1" stop-color="#e9605a"/></linearGradient><linearGradient id="6x9gbN" x1="590" x2="597.93" y1="340.61" y2="340.61" gradientUnits="userSpaceOnUse"><stop offset="0" stop-color="#e1473d"/><stop offset="1" stop-color="#e9605a"/></linearGradient><linearGradient id="6x9gbO" x1="596.82" x2="610.99" y1="350.61" y2="350.61" gradientUnits="userSpaceOnUse"><stop offset="0" stop-color="#e1473d"/><stop offset="1" stop-color="#e9605a"/></linearGradient></defs><g><g><g><g><path fill="url(#6x9ga)" d="M91.126 54.173c-43.209 20.212-75.2 74.437-67.46 114.163 7.096 36.421 43.707 40.753 51.893 81.99 9.34 47.057-33.05 68.04-21.795 95.482 16.56 40.377 111.665 3.06 253.234 49.817 32.204 10.636 47.54 19.257 79.915 21.794 53.677 4.207 66.784-15.16 139.071-24.908 75.55-10.187 108.761 4.56 121.428-16.605 11.296-18.875-12.59-34.822-15.567-88.217-2.445-43.827 12.688-50.285 11.416-93.407-.414-14.023-1.757-59.56-32.174-100.67-27.26-36.849-73.241-63.876-120.39-65.385-68.769-2.2-76.545 51.92-149.45 68.498-109.71 24.946-170.54-79.776-250.12-42.552z"/></g><g><g><path fill="#bdd0fb" d="M503.813 395.32c-52.854-15.54-75.277-118.243-41.04-169.122 13.412-19.931 28.378-21.296 45.6-50.927 20.897-35.952 9.252-51.812 28.53-77.726 16.956-22.792 53.959-48.15 86.272-37.412 30.19 10.033 44.778 47.747 40.82 75.759-4.16 29.442-26.711 33.327-33.417 65.622-6.631 31.934 11.986 44.661 12.759 71.673 1.701 59.461-84.493 138.311-139.524 122.133z"/></g><g opacity=".3"><path fill="#fff" d="M606.995 89.973c-7.94 23.112-16.065 46.124-24.212 69.113l-12.137 34.504-6.043 17.255c-1.98 5.762-3.941 11.53-5.967 17.277-2.039 5.743-3.939 11.529-5.886 17.3l-2.91 8.662c-1.004 2.877-1.934 5.775-2.89 8.666l-5.712 17.356c-1.793 5.817-3.687 11.605-5.526 17.411-7.233 23.258-14.148 46.602-20.168 70.263l-1.508-.292c.945-6.042 1.964-12.08 3.005-18.12.464-3.034 1.155-6.013 1.78-9.01l1.903-8.987.965-4.492c.324-1.497.652-2.994 1.032-4.475l2.196-8.915c1.464-5.944 2.917-11.9 4.597-17.781 1.643-5.895 3.231-11.808 4.92-17.692l5.32-17.567c.895-2.926 1.751-5.865 2.704-8.77l2.852-8.72c1.91-5.811 3.773-11.64 5.773-17.417 7.769-23.2 16.385-46.094 25.368-68.833 4.492-11.37 9.179-22.662 13.999-33.897 4.866-11.218 9.781-22.41 15.126-33.426z"/></g><g><path fill="url(#6x9gb)" d="M587.487 117.982c-6.75-15.445-6.21-34.647-6.205-34.84l.768.026c-.006.19-.539 19.223 6.14 34.506z"/></g><g><path fill="url(#6x9gc)" d="M577.594 133.827c-11.871-19.932-10.718-42.025-10.705-42.245l.767.045c-.013.218-1.149 22.084 10.598 41.807z"/></g><g><path fill="url(#6x9gd)" d="M566.86 154.347c-16.516-21.15-13.294-48.156-13.26-48.426l.763.097c-.034.268-3.212 26.965 13.102 47.856z"/></g><g><path fill="url(#6x9ge)" d="M560.599 175.433c-18.463-17.664-18.198-45.997-18.194-46.28l.769.012c-.005.281-.26 28.285 17.956 45.713z"/></g><g><path fill="url(#6x9gf)" d="M554.005 193.834c-12.655-10.53-18.214-30.272-18.268-30.47l.74-.204c.054.196 5.552 19.71 18.02 30.084z"/></g><g><path fill="url(#6x9gg)" d="M544.974 214.759c-17.5-14.823-20.195-29.41-20.22-29.555l.756-.131c.025.143 2.69 14.47 19.96 29.099z"/></g><g><path fill="url(#6x9gh)" d="M537.196 242.169c-19.373-13.867-22.867-41.264-22.9-41.54l.762-.09c.033.27 3.491 27.338 22.586 41.005z"/></g><g><path fill="url(#6x9gi)" d="M526.221 267.18c-23.88-16.246-26.304-47.934-26.325-48.252l.766-.053c.022.315 2.425 31.638 25.991 47.671z"/></g><g><path fill="url(#6x9gj)" d="M518.333 296.566c-33.054-27.886-33.738-64.066-33.742-64.428l.769-.008c.003.36.695 36.199 33.469 63.85z"/></g><g><path fill="url(#6x9gk)" d="M506.936 329.121c-37.298-24.979-34.818-74.85-34.79-75.351l.768.045c-.03.496-2.48 49.937 34.449 74.668z"/></g><g><path fill="url(#6x9gl)" d="M497.957 359.938c-19.861-12.4-28.111-33.428-31.535-48.886-3.705-16.726-2.711-30.718-2.7-30.856l.765.057c-.04.552-3.713 55.567 33.877 79.033z"/></g></g><g><g><path fill="#bdd0fb" d="M226.548 300.365c25.532-23.52 29.862-70.222 13.5-83.496-14.19-11.513-38.964 6.157-48.86-5.326-11.885-13.792 17.774-46.346 5.704-62.916-11.577-15.893-47.213 2.586-59.128-13.027-12.727-16.676 21.115-46.688 9.316-71.91-9.841-21.034-48.17-31.774-77.457-18.695-23.834 10.644-43.798 38.008-37.57 56.984 8.5 25.9 59.933 18.295 67.594 43.715 7.07 23.456-32.2 44.948-24.19 65.37 8.621 21.98 60.6 13.606 65.326 31.794 4.152 15.98-34.14 29.501-31.312 45.854 3.74 21.624 79.113 46.627 117.077 11.653z"/></g><g opacity=".47"><path fill="#fff" d="M88.883 74.752c7.452 18.761 15.435 37.294 23.647 55.723 4.078 9.228 8.316 18.382 12.518 27.555 2.118 4.578 4.296 9.128 6.444 13.693 2.158 4.56 4.29 9.132 6.514 13.66l6.638 13.603c2.247 4.518 4.47 9.048 6.752 13.548l1.703 3.38 1.732 3.365 3.465 6.73v.001l3.478 6.724 3.572 6.676c9.521 17.793 19.351 35.483 30.67 52.225l.338-.211c-9.934-17.551-18.974-35.553-27.959-53.586l-3.364-6.764-3.324-6.786-3.336-6.778-1.669-3.39-1.639-3.404c-2.172-4.545-4.403-9.062-6.61-13.59l-6.547-13.623-26.183-54.507c-8.724-18.175-17.496-36.333-26.476-54.405z"/></g></g><g><g><path fill="#91b3fa" d="M195.332 386.205c18.734-23.476 11.3-58.46.546-73.179-36.104-49.413-85.926-44.242-98.171-56.023-13.08-12.584 11.907-42.706-1.506-62.72-11.186-16.69-45.378-20.826-68.699-5.784C8.524 200.74-4.944 226.77 2.88 242.176c10.68 21.03 53.661 7.75 63.561 28.479 9.135 19.128-23.199 65.071 27.239 121.006 12.715 14.101 73.794 29.451 101.652-5.456z"/></g><g opacity=".47"><path fill="#fff" d="M47.892 211.409c8.843 15.061 18.111 29.858 27.56 44.535 4.704 7.354 9.534 14.624 14.335 21.914 2.414 3.636 4.876 7.24 7.314 10.861 2.446 3.615 4.872 7.244 7.37 10.824l7.468 10.758c2.516 3.567 5.014 7.148 7.558 10.695l1.902 2.666 1.925 2.65 3.849 5.3 3.86 5.291 3.934 5.239c10.485 13.96 21.221 27.793 33.106 40.62l.26-.226c-10.806-13.7-20.908-27.903-30.966-42.14l-3.768-5.341-3.736-5.365-3.746-5.357-1.873-2.679-1.85-2.695c-2.456-3.601-4.959-7.17-7.443-10.751l-7.393-10.787-29.57-43.162c-9.854-14.393-19.746-28.765-29.806-43.036z"/></g></g><g><g><path fill="url(#6x9gm)" d="M466.596 414.956V237.638h91.943v177.318z"/></g><g><path fill="url(#6x9gn)" d="M570.853 252.962H462.218v-75.525l85.375-4.378 27.54 73.2c1.45 3.127-.833 6.703-4.28 6.703z"/></g><g><path fill="url(#6x9go)" d="M547.593 174.154l-80.997 4.378v-8.757l75.688-4.378a5.31 5.31 0 0 1 5.31 5.31z"/></g><g opacity=".89"><g opacity=".77"><path fill="#fff" d="M487.695 366.796c-.62 0-1.123-.503-1.123-1.123V286.92c0-.62.503-1.123 1.123-1.123h50.293c.62 0 1.123.503 1.123 1.123v78.752c0 .62-.503 1.123-1.124 1.123z"/></g><g opacity=".89"><g opacity=".89"><path fill="url(#6x9gp)" d="M491.027 362.417a.624.624 0 0 1-.624-.624v-70.992c0-.345.28-.624.624-.624h19.15c.345 0 .624.28.624.624v70.992c0 .345-.28.624-.624.624z"/></g><g opacity=".89"><path fill="url(#6x9gq)" d="M515.505 362.417a.624.624 0 0 1-.624-.624v-70.992c0-.345.28-.624.624-.624h19.15c.345 0 .625.28.625.624v70.992c0 .345-.28.624-.624.624z"/></g></g></g><g><path fill="url(#6x9gr)" d="M224.136 414.956V213.01H479.61v201.946z"/></g><g><path fill="url(#6x9gs)" d="M473.565 115.047H223.999l-27.65 95.016a7.822 7.822 0 0 0 1.017 6.54l2.844 4.26c1.515 2.27 4.108 3.64 6.889 3.64h282.553c3.212 0 6.13-1.823 7.47-4.667l2.733-5.807a7.807 7.807 0 0 0 .446-5.48z"/></g><g><path fill="url(#6x9gt)" d="M474.127 115.047H223.328v-4.306c0-1.63 1.343-2.956 3.015-2.981l244.676-3.612c1.709-.026 3.108 1.316 3.108 2.98z"/></g><g><path fill="url(#6x9gu)" d="M306.25 414.956V404.69a3.17 3.17 0 0 1 3.171-3.17h72.869a3.17 3.17 0 0 1 3.17 3.17v10.266z"/></g><g><path fill="url(#6x9gv)" d="M318.824 401.52V299.61a3.56 3.56 0 0 1 3.56-3.56h46.943a3.56 3.56 0 0 1 3.56 3.56V401.52z"/></g><g opacity=".64"><path fill="#fff" d="M369.07 288.953H322.64a3.817 3.817 0 0 1-3.817-3.818v-3.334a3.818 3.818 0 0 1 3.553-3.808l46.428-3.225a3.817 3.817 0 0 1 4.082 3.808v6.56a3.817 3.817 0 0 1-3.817 3.817z"/></g><g><g><path fill="url(#6x9gw)" d="M415.82 242.1h-.514c-13.352 0-25.042 9.454-25.042 22.806v24.047h25.556z"/></g><g><path fill="url(#6x9gx)" d="M390.264 296.051v70.745c0 2.382 2.796 6.075 5.178 6.075h20.378v-76.82z"/></g><g><path fill="url(#6x9gy)" d="M422.798 242.1h-1.3v46.853h25.557v-24.047c0-13.352-10.905-22.806-24.257-22.806z"/></g><g><path fill="url(#6x9gz)" d="M421.499 372.871h21.162c2.382 0 4.394-3.693 4.394-6.075V296.05h-25.556z"/></g></g><g><g opacity=".9"><path fill="url(#6x9gA)" d="M275.061 242.1h-.514c-13.352 0-25.042 9.454-25.042 22.806v24.047h25.556z"/></g><g opacity=".9"><path fill="url(#6x9gB)" d="M249.505 296.051v70.745c0 2.382 2.796 6.075 5.179 6.075h20.377v-76.82z"/></g><g opacity=".9"><path fill="url(#6x9gC)" d="M282.04 242.1h-1.3v46.853h25.556v-24.047c0-13.352-10.905-22.806-24.257-22.806z"/></g><g opacity=".9"><path fill="url(#6x9gD)" d="M280.74 372.871h21.163c2.382 0 4.393-3.693 4.393-6.075V296.05H280.74z"/></g></g><g opacity=".64"><path fill="#fff" d="M293.49 213.306h-78.104a6.004 6.004 0 0 1-4.85-2.428 6.003 6.003 0 0 1-.958-5.338l22.31-75.72a.296.296 0 1 1 .568.167l-22.31 75.72a5.416 5.416 0 0 0 .865 4.816 5.416 5.416 0 0 0 4.375 2.191h78.103a.296.296 0 0 1 0 .592z"/></g><g opacity=".64"><path fill="#fff" d="M338.348 303.57a4.347 4.347 0 0 1 4.342 4.341v60.322a4.347 4.347 0 0 1-4.342 4.342h-8.16a4.347 4.347 0 0 1-4.341-4.342V307.91a4.347 4.347 0 0 1 4.342-4.342zm4.935 64.663V307.91a4.94 4.94 0 0 0-4.935-4.934h-8.16a4.94 4.94 0 0 0-4.934 4.934v60.322a4.94 4.94 0 0 0 4.935 4.934h8.16a4.94 4.94 0 0 0 4.934-4.934z"/></g><g opacity=".64"><path fill="#fff" d="M361.118 303.57a4.347 4.347 0 0 1 4.342 4.341v60.322a4.347 4.347 0 0 1-4.342 4.342h-8.16a4.347 4.347 0 0 1-4.341-4.342V307.91a4.347 4.347 0 0 1 4.341-4.342zm4.935 64.663V307.91a4.94 4.94 0 0 0-4.935-4.934h-8.16a4.94 4.94 0 0 0-4.934 4.934v60.322a4.94 4.94 0 0 0 4.934 4.934h8.16a4.94 4.94 0 0 0 4.935-4.934z"/></g><g opacity=".64"><path fill="#fff" d="M338.348 377.29a4.347 4.347 0 0 1 4.342 4.341v6.939a4.347 4.347 0 0 1-4.342 4.341h-8.16a4.347 4.347 0 0 1-4.341-4.341v-6.939a4.347 4.347 0 0 1 4.342-4.341zm4.935 11.28v-6.939a4.94 4.94 0 0 0-4.935-4.934h-8.16a4.94 4.94 0 0 0-4.934 4.934v6.939a4.94 4.94 0 0 0 4.935 4.934h8.16a4.94 4.94 0 0 0 4.934-4.934z"/></g><g opacity=".64"><path fill="#fff" d="M361.118 377.29a4.347 4.347 0 0 1 4.342 4.341v6.939a4.347 4.347 0 0 1-4.342 4.341h-8.16a4.347 4.347 0 0 1-4.341-4.341v-6.939a4.347 4.347 0 0 1 4.341-4.341zm4.935 11.28v-6.939a4.94 4.94 0 0 0-4.935-4.934h-8.16a4.94 4.94 0 0 0-4.934 4.934v6.939a4.94 4.94 0 0 0 4.934 4.934h8.16a4.94 4.94 0 0 0 4.935-4.934z"/></g><g opacity=".64"><path fill="#fff" d="M425.116 234.425c16.517 0 29.954 13.437 29.954 29.954v106.513c0 3.201-2.604 5.805-5.804 5.805h-61.519a5.811 5.811 0 0 1-5.804-5.805V264.38c0-16.517 13.437-29.954 29.954-29.954zm30.547 136.467V264.38c0-16.844-13.703-30.547-30.547-30.547h-13.219c-16.843 0-30.547 13.703-30.547 30.547v106.513a6.404 6.404 0 0 0 6.397 6.398h61.519a6.404 6.404 0 0 0 6.397-6.398z"/></g><g opacity=".64"><path fill="#fff" d="M284.385 234.425c16.517 0 29.954 13.437 29.954 29.954v106.513c0 3.201-2.604 5.805-5.804 5.805h-61.519a5.811 5.811 0 0 1-5.805-5.805V264.38c0-16.517 13.438-29.954 29.955-29.954zm24.15 142.865a6.404 6.404 0 0 0 6.397-6.398V264.38c0-16.844-13.704-30.547-30.547-30.547h-13.22c-16.843 0-30.546 13.703-30.546 30.547v106.513a6.404 6.404 0 0 0 6.397 6.398z"/></g><g opacity=".64"><path fill="#fff" d="M482.104 191.15a.297.297 0 0 1-.284-.21l-17.352-57.344a9.253 9.253 0 0 0-8.822-6.605c-45.426-.359-73.241-.345-74.404.038a.303.303 0 0 1-.378-.176.29.29 0 0 1 .158-.374c1.392-.573 47.355-.297 74.629-.08a9.843 9.843 0 0 1 9.384 7.025l17.352 57.343a.296.296 0 0 1-.283.382z"/></g></g><g><g><path fill="#91b3fa" d="M572.956 187.89c-16.152-16.152-16.152-42.34 0-58.491 16.152-16.152 42.339-16.152 58.49 0 16.153 16.151 16.153 42.339 0 58.49-16.151 16.152-42.338 16.152-58.49 0z"/></g><g><g><path fill="url(#6x9gE)" d="M617.876 135.629c1.439 0 2.61 1.17 2.61 2.61v40.81c0 1.44-1.171 2.61-2.61 2.61h-30.882a2.61 2.61 0 0 1-2.605-2.466l-2.245-40.811a2.585 2.585 0 0 1 .71-1.937 2.585 2.585 0 0 1 1.895-.816zm3.794 43.42v-40.81a3.799 3.799 0 0 0-3.794-3.795H584.75a3.76 3.76 0 0 0-2.756 1.186 3.759 3.759 0 0 0-1.032 2.817l2.245 40.811a3.795 3.795 0 0 0 3.788 3.586h30.882a3.799 3.799 0 0 0 3.794-3.794z"/></g><g><path fill="url(#6x9gF)" d="M614.706 162.114c0 6.622-5.388 12.01-12.01 12.01s-12.01-5.388-12.01-12.01 5.388-12.01 12.01-12.01 12.01 5.388 12.01 12.01zm1.185 0c0-7.276-5.92-13.195-13.194-13.195-7.276 0-13.195 5.92-13.195 13.195 0 7.276 5.92 13.195 13.195 13.195s13.194-5.92 13.194-13.195z"/></g><g><path fill="url(#6x9gG)" d="M611.347 162.582c0 4.702-3.826 8.528-8.528 8.528s-8.528-3.826-8.528-8.529c0-4.702 3.826-8.528 8.528-8.528s8.528 3.826 8.528 8.529zm1.186 0c0-5.356-4.358-9.714-9.714-9.714-5.356 0-9.713 4.358-9.713 9.713 0 5.356 4.357 9.714 9.713 9.714 5.356 0 9.714-4.358 9.714-9.714z"/></g><g><path fill="url(#6x9gH)" d="M586.344 139.115h9.831v4.008h-9.83zm11.016-1.185h-12.2v6.378h12.2z"/></g><g><path fill="url(#6x9gI)" d="M604.598 139.115h10.108v1.41h-10.108zm11.293-1.185h-12.477v3.78h12.477z"/></g><g><path fill="url(#6x9gJ)" d="M609.653 167.864a.592.592 0 0 1-.462-.22c-4.429-5.5.031-9.412.077-9.45a.592.592 0 0 1 .77.9c-.149.129-3.618 3.22.076 7.806a.592.592 0 0 1-.46.964z"/></g><g><path fill="url(#6x9gK)" d="M605.052 143.143a.453.453 0 1 1-.001.906.453.453 0 0 1 0-.906zm1.637.453a1.64 1.64 0 0 0-1.638-1.638 1.64 1.64 0 0 0-1.637 1.638 1.64 1.64 0 0 0 1.637 1.637 1.64 1.64 0 0 0 1.638-1.637z"/></g><g><path fill="url(#6x9gL)" d="M610.244 143.596a.453.453 0 1 1-.906-.002.453.453 0 0 1 .906.002zm1.185 0a1.64 1.64 0 0 0-1.637-1.638 1.64 1.64 0 0 0-1.639 1.638 1.64 1.64 0 0 0 1.639 1.637 1.64 1.64 0 0 0 1.637-1.637z"/></g><g><path fill="url(#6x9gM)" d="M614.4 143.596a.453.453 0 1 1-.907-.001.453.453 0 0 1 .906 0zm1.184 0a1.64 1.64 0 0 0-1.637-1.638 1.64 1.64 0 0 0-1.639 1.638 1.64 1.64 0 0 0 1.639 1.637 1.64 1.64 0 0 0 1.637-1.637z"/></g></g></g><g><path fill="#91b3fa" d="M253.748 41.36c0-22.843 18.517-41.36 41.36-41.36 22.841 0 41.359 18.517 41.359 41.36 0 22.842-18.518 41.359-41.36 41.359s-41.36-18.517-41.36-41.36z"/></g><g><path fill="#91b3fa" d="M371.808 41.36c0-22.843 18.517-41.36 41.36-41.36 22.842 0 41.359 18.517 41.359 41.36 0 22.842-18.517 41.359-41.36 41.359-22.842 0-41.359-18.517-41.359-41.36z"/></g><g><g><path fill="#91b3fa" d="M493.45 111.537c-16.152-16.152-16.152-42.34 0-58.491 16.151-16.152 42.339-16.152 58.49 0 16.152 16.152 16.152 42.339 0 58.49-16.151 16.153-42.339 16.153-58.49 0z"/></g><g><g><path fill="url(#6x9gN)" d="M520.186 58.442a2.417 2.417 0 0 1 2.414 2.414v36.75l.36.153a7.102 7.102 0 0 1 4.338 6.55 7.12 7.12 0 0 1-7.112 7.112 7.12 7.12 0 0 1-7.112-7.112 7.103 7.103 0 0 1 4.337-6.55l.361-.153v-36.75a2.417 2.417 0 0 1 2.414-2.414zm8.297 45.867a8.284 8.284 0 0 0-4.698-7.477V60.856a3.603 3.603 0 0 0-3.6-3.599 3.603 3.603 0 0 0-3.598 3.6v35.975a8.285 8.285 0 0 0-4.698 7.477c0 4.575 3.722 8.297 8.297 8.297 4.575 0 8.297-3.722 8.297-8.297z"/></g><g><path fill="url(#6x9gO)" d="M536.917 60.697h-9.027a.593.593 0 0 1 0-1.185h9.027a.593.593 0 1 1 0 1.185z"/></g><g><path fill="url(#6x9gP)" d="M532.403 63.866h-4.513a.592.592 0 1 1 0-1.184h4.513a.593.593 0 1 1 0 1.184z"/></g><g><path fill="url(#6x9gQ)" d="M532.403 67.036h-4.513a.592.592 0 1 1 0-1.185h4.513a.593.593 0 1 1 0 1.185z"/></g><g><path fill="url(#6x9gR)" d="M532.403 70.205h-4.513a.592.592 0 1 1 0-1.185h4.513a.593.593 0 1 1 0 1.185z"/></g><g><path fill="url(#6x9gS)" d="M536.917 60.697h-9.027a.593.593 0 0 1 0-1.185h9.027a.593.593 0 1 1 0 1.185z"/></g><g><path fill="url(#6x9gT)" d="M532.403 63.866h-4.513a.592.592 0 1 1 0-1.184h4.513a.593.593 0 1 1 0 1.184z"/></g><g><path fill="url(#6x9gU)" d="M532.403 67.036h-4.513a.592.592 0 1 1 0-1.185h4.513a.593.593 0 1 1 0 1.185z"/></g><g><path fill="url(#6x9gV)" d="M532.403 70.205h-4.513a.592.592 0 1 1 0-1.185h4.513a.593.593 0 1 1 0 1.185z"/></g><g><path fill="url(#6x9gW)" d="M536.917 73.375h-9.027a.592.592 0 1 1 0-1.185h9.027a.593.593 0 1 1 0 1.185z"/></g><g><path fill="url(#6x9gX)" d="M532.403 76.545h-4.513a.592.592 0 1 1 0-1.185h4.513a.593.593 0 1 1 0 1.185z"/></g><g><path fill="url(#6x9gY)" d="M532.403 79.714h-4.513a.592.592 0 1 1 0-1.185h4.513a.592.592 0 1 1 0 1.185z"/></g><g><path fill="url(#6x9gZ)" d="M532.403 82.884h-4.513a.592.592 0 1 1 0-1.185h4.513a.593.593 0 1 1 0 1.185z"/></g><g><path fill="url(#6x9gaa)" d="M536.917 86.053h-9.027a.592.592 0 1 1 0-1.185h9.027a.592.592 0 1 1 0 1.185z"/></g><g><path fill="url(#6x9gab)" d="M532.403 89.223h-4.513a.592.592 0 1 1 0-1.185h4.513a.592.592 0 1 1 0 1.185z"/></g><g><path fill="url(#6x9gac)" d="M532.403 92.392h-4.513a.592.592 0 1 1 0-1.185h4.513a.592.592 0 1 1 0 1.185z"/></g><g><path fill="url(#6x9gad)" d="M532.403 95.562h-4.513a.592.592 0 1 1 0-1.185h4.513a.592.592 0 1 1 0 1.185z"/></g></g></g><g><g><path fill="url(#6x9gae)" d="M419.963 53.69a5.829 5.829 0 0 1-5.823 5.822 5.829 5.829 0 0 1-5.822-5.822 5.828 5.828 0 0 1 5.822-5.822 5.828 5.828 0 0 1 5.823 5.822zm1.184 0a7.015 7.015 0 0 0-7.007-7.007c-3.863 0-7.007 3.143-7.007 7.007a7.015 7.015 0 0 0 7.007 7.007 7.015 7.015 0 0 0 7.007-7.007z"/></g><g><path fill="url(#6x9gaf)" d="M425.456 42.967a.592.592 0 0 1-.42-.173 15.308 15.308 0 0 0-10.896-4.514 15.31 15.31 0 0 0-10.896 4.514.592.592 0 1 1-.838-.838 16.486 16.486 0 0 1 11.734-4.86c4.433 0 8.6 1.726 11.734 4.86a.592.592 0 0 1-.418 1.011z"/></g><g><g><path fill="url(#6x9gag)" d="M432.235 36.188a.59.59 0 0 1-.419-.174 24.834 24.834 0 0 0-17.676-7.322c-6.677 0-12.954 2.6-17.676 7.322a.592.592 0 1 1-.838-.838c4.945-4.945 11.52-7.669 18.514-7.669s13.569 2.724 18.514 7.67a.592.592 0 0 1-.419 1.01z"/></g></g><g><g><path fill="url(#6x9gah)" d="M439.015 29.408a.589.589 0 0 1-.419-.174c-6.533-6.532-15.217-10.13-24.455-10.13-9.238 0-17.924 3.598-24.456 10.13a.592.592 0 1 1-.838-.837c6.756-6.757 15.739-10.477 25.294-10.477 9.554 0 18.537 3.72 25.293 10.477a.592.592 0 0 1-.419 1.011z"/></g></g></g><g><g><path fill="url(#6x9gai)" d="M295.622 14.042c4.673 0 9.077 1.728 12.517 4.938a18.44 18.44 0 0 1 5.842 13.437 18.32 18.32 0 0 1-8.387 15.42 9.417 9.417 0 0 0-4.297 7.935v1.2a5.395 5.395 0 0 1-5.39 5.39h-.6a5.395 5.395 0 0 1-5.389-5.39v-1.06c0-3.317-1.597-6.33-4.273-8.06a18.416 18.416 0 0 1-8.362-16.801c.653-9.043 7.968-16.335 17.013-16.963.444-.03.886-.046 1.326-.046zm.286 49.505a6.581 6.581 0 0 0 6.574-6.574v-1.201a8.237 8.237 0 0 1 3.757-6.94 19.5 19.5 0 0 0 8.927-16.415 19.629 19.629 0 0 0-6.219-14.304c-4.006-3.738-9.238-5.581-14.732-5.207-9.631.668-17.418 8.432-18.114 18.06a19.603 19.603 0 0 0 8.9 17.882c2.337 1.51 3.732 4.151 3.732 7.063v1.062a6.581 6.581 0 0 0 6.574 6.574h.6z"/></g><g><g><path fill="url(#6x9gaj)" d="M289.99 66.446h11.234v1.245H289.99zm12.42 1.838v-2.43a.592.592 0 0 0-.593-.593h-12.42a.593.593 0 0 0-.592.593v2.43c0 .327.265.592.592.592h12.42a.592.592 0 0 0 .592-.592z"/></g><g><path fill="url(#6x9gak)" d="M300.173 71.306c-.158 1.767-1.583 3.674-3.39 3.674h-2.352a3.407 3.407 0 0 1-3.404-3.403v-.271zm-3.39 4.86c2.627 0 4.59-2.736 4.59-5.182v-.27a.592.592 0 0 0-.593-.593h-10.346a.592.592 0 0 0-.592.592v.864a4.594 4.594 0 0 0 4.589 4.588z"/></g></g><g><path fill="url(#6x9gal)" d="M295.107 57.322a.593.593 0 0 1-.576-.456l-5.71-24.247a.593.593 0 0 1 1.153-.272l5.71 24.247a.593.593 0 0 1-.577.728z"/></g><g><path fill="url(#6x9gam)" d="M298.013 57.322a.593.593 0 0 1-.585-.688l3.804-23.319a.593.593 0 0 1 1.17.191l-3.804 23.32a.593.593 0 0 1-.585.496z"/></g><g><path fill="url(#6x9gan)" d="M292.252 35.068a.593.593 0 0 1-.553-.805l2.277-5.934a.593.593 0 0 1 1.082-.056l2.592 5.114 1.803-2.249a.591.591 0 1 1 .924.74L298 34.847a.611.611 0 0 1-.524.22.594.594 0 0 1-.467-.322L294.604 30l-1.798 4.688a.593.593 0 0 1-.553.38z"/></g></g><g><g><path fill="#91b3fa" d="M147.801 111.964c-16.151-16.151-16.151-42.339 0-58.49 16.152-16.153 42.34-16.153 58.491 0 16.152 16.151 16.152 42.339 0 58.49-16.151 16.152-42.339 16.152-58.49 0z"/></g><g><g><path fill="url(#6x9gao)" d="M197.281 82.815V97.11c0 7.086-5.764 12.85-12.85 12.85h-14.233c-7.085 0-12.85-5.764-12.85-12.85V82.815zm1.185 14.295V82.223a.592.592 0 0 0-.592-.593h-41.118a.592.592 0 0 0-.593.593V97.11c0 7.74 6.296 14.035 14.035 14.035h14.233c7.74 0 14.035-6.296 14.035-14.035z"/></g><g><path fill="url(#6x9gap)" d="M192.813 80.465a.592.592 0 0 1-.593-.593V68.565c0-7.217-5.87-13.087-13.087-13.087h-4.27c-7.216 0-13.086 5.87-13.086 13.087v11.307a.592.592 0 1 1-1.185 0V68.565c0-7.87 6.402-14.272 14.271-14.272h4.27c7.87 0 14.272 6.402 14.272 14.272v11.307a.592.592 0 0 1-.592.593z"/></g><g><path fill="url(#6x9gaq)" d="M189.278 80.465a.592.592 0 0 1-.592-.593v-9.697c0-6.141-4.5-11.138-10.03-11.138h-3.315c-5.53 0-10.03 4.997-10.03 11.138v9.697a.592.592 0 1 1-1.185 0v-9.697c0-6.795 5.03-12.323 11.215-12.323h3.315c6.184 0 11.215 5.528 11.215 12.323v9.697a.592.592 0 0 1-.593.593z"/></g><g><path fill="url(#6x9gar)" d="M177.495 87.53c1.041 0 2.025.373 2.81 1.074a4.238 4.238 0 0 1 1.415 3.158 4.235 4.235 0 0 1-2.529 3.872.592.592 0 0 0-.353.542v6.246a1.35 1.35 0 0 1-1.35 1.349 1.35 1.35 0 0 1-1.348-1.35v-6.245a.593.593 0 0 0-.353-.542c-1.75-.771-2.748-2.568-2.487-4.473.256-1.872 1.807-3.387 3.689-3.602.17-.019.338-.029.506-.029zm2.528 14.892v-5.876a5.42 5.42 0 0 0 2.882-4.784c0-1.542-.66-3.015-1.81-4.042a5.435 5.435 0 0 0-4.24-1.338c-2.412.275-4.401 2.218-4.73 4.619-.315 2.302.813 4.482 2.83 5.546v5.875a2.536 2.536 0 0 0 2.534 2.533 2.536 2.536 0 0 0 2.534-2.533z"/></g></g></g><g><g><g><path fill="url(#6x9gas)" d="M105.172 194.454c-.924 37.267-3.92 165.814-2.49 211.367a9.146 9.146 0 0 0 8.846 8.857c23.868.781 92.53 2.761 131.571 1.123 8.132-.341 14.598-6.928 14.767-15.065.811-39.116 2.6-149.135-1.654-199.534a12.569 12.569 0 0 0-11.28-11.451c-25.992-2.6-95.031-8.957-128.76-6.768-6.082.395-10.849 5.377-11 11.471z"/></g><g><path fill="url(#6x9gat)" d="M113.3 205.888c-1.284 30.08-5.337 130.148-4.05 167.151a10.47 10.47 0 0 0 9.853 10.098c22.244 1.302 79.298 4.172 111.924 1.56 5.875-.471 10.485-5.223 10.802-11.108 1.653-30.687 6.4-123.865 5.168-160.454-.197-5.836-4.718-10.603-10.535-11.125-24.065-2.16-85.87-7.302-113.595-5.79-5.204.285-9.344 4.46-9.566 9.668z"/></g><g><path fill="url(#6x9gau)" d="M161.639 189.495c0 1.143.89 2.086 2.033 2.146 5.637.295 21.518 1.13 28.616 1.542a2.148 2.148 0 0 0 2.232-2.553l-.045-.234a2.148 2.148 0 0 0-1.913-1.734c-4.797-.44-19.274-1.659-28.865-1.316a2.143 2.143 0 0 0-2.058 2.149z"/></g></g><g><g><g><path fill="#91b3fa" d="M187.64 295.827c0-12.333 9.999-22.331 22.332-22.331s22.331 9.998 22.331 22.33c0 12.334-9.998 22.332-22.331 22.332s-22.331-9.998-22.331-22.331z"/></g><g><g><path fill="url(#6x9gav)" d="M218.435 283.4a1.41 1.41 0 0 1 1.409 1.41v22.035a1.41 1.41 0 0 1-1.409 1.409h-16.674a1.41 1.41 0 0 1-1.407-1.332l-1.212-22.035c-.021-.39.115-.762.384-1.046.269-.284.632-.44 1.023-.44zm2.049 23.445v-22.036c0-1.13-.92-2.049-2.049-2.049H200.55a2.03 2.03 0 0 0-1.488.641 2.03 2.03 0 0 0-.558 1.52l1.212 22.036a2.05 2.05 0 0 0 2.046 1.936h16.674a2.05 2.05 0 0 0 2.049-2.048z"/></g><g><path fill="url(#6x9gaw)" d="M216.724 297.7a6.492 6.492 0 0 1-6.485 6.485 6.492 6.492 0 0 1-6.484-6.485 6.492 6.492 0 0 1 6.484-6.484 6.492 6.492 0 0 1 6.485 6.484zm.64 0a7.132 7.132 0 0 0-7.125-7.124c-3.928 0-7.124 3.196-7.124 7.124 0 3.929 3.196 7.125 7.124 7.125a7.132 7.132 0 0 0 7.124-7.125z"/></g><g><path fill="url(#6x9gax)" d="M214.91 297.953a4.61 4.61 0 0 1-4.604 4.604 4.61 4.61 0 0 1-4.605-4.604 4.61 4.61 0 0 1 4.605-4.605 4.61 4.61 0 0 1 4.604 4.605zm.64 0a5.25 5.25 0 0 0-5.244-5.245 5.25 5.25 0 0 0-5.245 5.245 5.25 5.25 0 0 0 5.245 5.244 5.25 5.25 0 0 0 5.244-5.244z"/></g><g><path fill="url(#6x9gay)" d="M201.41 285.282h5.308v2.164h-5.308zm5.948-.64h-6.587v3.444h6.587z"/></g><g><path fill="url(#6x9gaz)" d="M211.266 285.282h5.458v.762h-5.458zm6.097-.64h-6.737v2.042h6.737z"/></g><g><path fill="url(#6x9gaA)" d="M213.995 300.805a.32.32 0 0 1-.25-.119c-2.39-2.97.018-5.082.042-5.103a.32.32 0 0 1 .416.487c-.08.07-1.953 1.738.041 4.215a.32.32 0 0 1-.249.52z"/></g><g><path fill="url(#6x9gaB)" d="M211.755 287.702a.244.244 0 1 1-.488 0 .244.244 0 0 1 .488 0zm.64 0a.886.886 0 0 0-1.769 0 .885.885 0 0 0 1.77 0z"/></g><g><path fill="url(#6x9gaC)" d="M214.315 287.702a.244.244 0 1 1-.49 0 .244.244 0 0 1 .49 0zm.64 0a.885.885 0 0 0-1.77 0 .885.885 0 0 0 1.77 0z"/></g><g><path fill="url(#6x9gaD)" d="M216.558 287.702a.245.245 0 1 1-.489 0 .245.245 0 0 1 .489 0zm.64 0a.885.885 0 1 0-.884.884.885.885 0 0 0 .884-.884z"/></g></g></g><g><g><path fill="#91b3fa" d="M126.42 295.827c0-12.333 9.998-22.331 22.33-22.331 12.334 0 22.332 9.998 22.332 22.33 0 12.334-9.998 22.332-22.331 22.332s-22.331-9.998-22.331-22.331z"/></g><g><g><path fill="url(#6x9gaE)" d="M148.7 284.253v19.843l.194.083a3.835 3.835 0 0 1 2.342 3.536 3.844 3.844 0 0 1-3.84 3.84 3.844 3.844 0 0 1-3.84-3.84c0-1.545.92-2.933 2.342-3.536l.195-.083v-19.843a1.304 1.304 0 0 1 2.606 0zm-1.304 27.942c2.47 0 4.48-2.01 4.48-4.48 0-1.73-.99-3.293-2.537-4.037v-19.425a1.945 1.945 0 0 0-1.943-1.943 1.945 1.945 0 0 0-1.943 1.943v19.425a4.473 4.473 0 0 0-2.537 4.037c0 2.47 2.01 4.48 4.48 4.48z"/></g><g><path fill="url(#6x9gaF)" d="M156.43 284.168h-4.874a.32.32 0 0 1 0-.64h4.873a.32.32 0 1 1 0 .64z"/></g><g><path fill="url(#6x9gaG)" d="M153.993 285.879h-2.437a.32.32 0 1 1 0-.64h2.437a.32.32 0 1 1 0 .64z"/></g><g><path fill="url(#6x9gaH)" d="M153.993 287.59h-2.437a.32.32 0 0 1 0-.64h2.437a.32.32 0 1 1 0 .64z"/></g><g><path fill="url(#6x9gaI)" d="M153.993 289.302h-2.437a.32.32 0 1 1 0-.64h2.437a.32.32 0 0 1 0 .64z"/></g><g><path fill="url(#6x9gaJ)" d="M156.43 284.168h-4.874a.32.32 0 0 1 0-.64h4.873a.32.32 0 1 1 0 .64z"/></g><g><path fill="url(#6x9gaK)" d="M153.993 285.879h-2.437a.32.32 0 1 1 0-.64h2.437a.32.32 0 1 1 0 .64z"/></g><g><path fill="url(#6x9gaL)" d="M153.993 287.59h-2.437a.32.32 0 0 1 0-.64h2.437a.32.32 0 1 1 0 .64z"/></g><g><path fill="url(#6x9gaM)" d="M153.993 289.302h-2.437a.32.32 0 1 1 0-.64h2.437a.32.32 0 0 1 0 .64z"/></g><g><path fill="url(#6x9gaN)" d="M156.43 291.013h-4.874a.32.32 0 0 1 0-.64h4.873a.32.32 0 1 1 0 .64z"/></g><g><path fill="url(#6x9gaO)" d="M153.993 292.724h-2.437a.32.32 0 1 1 0-.64h2.437a.32.32 0 1 1 0 .64z"/></g><g><path fill="url(#6x9gaP)" d="M153.993 294.436h-2.437a.32.32 0 1 1 0-.64h2.437a.32.32 0 1 1 0 .64z"/></g><g><path fill="url(#6x9gaQ)" d="M153.993 296.147h-2.437a.32.32 0 0 1 0-.64h2.437a.32.32 0 1 1 0 .64z"/></g><g><path fill="url(#6x9gaR)" d="M156.43 297.858h-4.874a.32.32 0 1 1 0-.64h4.873a.32.32 0 1 1 0 .64z"/></g><g><path fill="url(#6x9gaS)" d="M153.993 299.57h-2.437a.32.32 0 1 1 0-.64h2.437a.32.32 0 1 1 0 .64z"/></g><g><path fill="url(#6x9gaT)" d="M153.993 301.28h-2.437a.32.32 0 1 1 0-.639h2.437a.32.32 0 1 1 0 .64z"/></g><g><path fill="url(#6x9gaU)" d="M153.993 302.992h-2.437a.32.32 0 0 1 0-.64h2.437a.32.32 0 1 1 0 .64z"/></g></g></g><g><g><path fill="#91b3fa" d="M157.905 350.377c0-12.334 9.998-22.332 22.33-22.332 12.334 0 22.332 9.998 22.332 22.332 0 12.333-9.998 22.33-22.331 22.33s-22.331-9.997-22.331-22.33z"/></g><g><g><path fill="url(#6x9gaV)" d="M183.905 360.74a3.147 3.147 0 0 1-3.144 3.143 3.147 3.147 0 0 1-3.143-3.144 3.147 3.147 0 0 1 3.143-3.143 3.147 3.147 0 0 1 3.144 3.143zm.64 0a3.787 3.787 0 0 0-3.784-3.783 3.787 3.787 0 0 0-3.783 3.782 3.788 3.788 0 0 0 3.783 3.784 3.788 3.788 0 0 0 3.783-3.784z"/></g><g><path fill="url(#6x9gaW)" d="M186.87 354.95a.32.32 0 0 1-.225-.093 8.266 8.266 0 0 0-5.884-2.438 8.266 8.266 0 0 0-5.883 2.438.32.32 0 0 1-.452-.453 8.903 8.903 0 0 1 6.335-2.625c2.394 0 4.644.933 6.336 2.625a.32.32 0 0 1-.226.546z"/></g><g><g><path fill="url(#6x9gaX)" d="M190.531 351.29a.319.319 0 0 1-.226-.094 13.409 13.409 0 0 0-9.544-3.953 13.41 13.41 0 0 0-9.544 3.953.32.32 0 1 1-.452-.453c2.67-2.67 6.22-4.14 9.996-4.14 3.776 0 7.326 1.47 9.996 4.14a.32.32 0 0 1-.226.547z"/></g></g><g><g><path fill="url(#6x9gaY)" d="M194.192 347.63a.32.32 0 0 1-.227-.095 18.55 18.55 0 0 0-13.204-5.469 18.55 18.55 0 0 0-13.204 5.47.32.32 0 0 1-.453-.453 19.186 19.186 0 0 1 13.657-5.657 19.186 19.186 0 0 1 13.657 5.657.32.32 0 0 1-.226.546z"/></g></g></g></g><g><g><path fill="#91b3fa" d="M206.395 261.043c-12.174-1.976-20.442-13.446-18.466-25.62 1.976-12.174 13.446-20.441 25.62-18.466 12.174 1.976 20.441 13.446 18.466 25.62-1.976 12.174-13.446 20.442-25.62 18.466z"/></g><g><g><path fill="url(#6x9gaZ)" d="M217.008 226.39a9.958 9.958 0 0 1 3.154 7.256 9.891 9.891 0 0 1-4.528 8.326 5.084 5.084 0 0 0-2.32 4.284v.649a2.913 2.913 0 0 1-2.91 2.91h-.324a2.913 2.913 0 0 1-2.91-2.91v-.574c0-1.79-.862-3.417-2.307-4.35a9.945 9.945 0 0 1-4.515-9.073c.353-4.882 4.302-8.82 9.186-9.158.24-.017.478-.025.716-.025 2.523 0 4.9.932 6.758 2.666zm-6.604 24.064a3.553 3.553 0 0 0 3.55-3.55v-.648c0-1.522.758-2.924 2.028-3.748a10.529 10.529 0 0 0 4.82-8.862c0-2.917-1.224-5.732-3.357-7.723-2.164-2.018-4.988-3.016-7.955-2.812-5.2.361-9.404 4.553-9.78 9.75a10.585 10.585 0 0 0 4.806 9.657c1.261.815 2.014 2.24 2.014 3.813v.574a3.553 3.553 0 0 0 3.55 3.55h.324z"/></g><g><g><path fill="url(#6x9gba)" d="M207.209 252.02h6.066v.671h-6.066zm6.706.991V251.7a.32.32 0 0 0-.32-.32h-6.706a.32.32 0 0 0-.32.32v1.311c0 .177.143.32.32.32h6.706a.32.32 0 0 0 .32-.32z"/></g><g><path fill="url(#6x9gbb)" d="M212.707 254.643c-.085.954-.855 1.984-1.83 1.984h-1.27a1.84 1.84 0 0 1-1.838-1.838v-.146zm.648-.173v-.147a.32.32 0 0 0-.32-.32h-5.586a.32.32 0 0 0-.32.32v.466a2.48 2.48 0 0 0 2.477 2.478h1.271c1.418 0 2.478-1.477 2.478-2.797z"/></g></g><g><path fill="url(#6x9gbc)" d="M209.971 247.093a.32.32 0 0 1-.31-.246l-3.083-13.092a.32.32 0 1 1 .622-.147l3.083 13.092a.32.32 0 0 1-.312.393z"/></g><g><path fill="url(#6x9gbd)" d="M211.541 247.093a.32.32 0 0 1-.316-.372l2.054-12.59a.32.32 0 0 1 .631.103l-2.053 12.59a.32.32 0 0 1-.316.27z"/></g><g><path fill="url(#6x9gbe)" d="M208.43 235.077a.32.32 0 0 1-.299-.434l1.23-3.204a.32.32 0 0 1 .584-.03l1.4 2.76.973-1.213a.32.32 0 1 1 .5.4l-1.284 1.602a.323.323 0 0 1-.283.118.322.322 0 0 1-.252-.174l-1.299-2.561-.971 2.531a.32.32 0 0 1-.299.205z"/></g></g></g><g><g><path fill="#91b3fa" d="M142.65 261.043c-12.173-1.976-20.44-13.446-18.465-25.62 1.975-12.174 13.446-20.441 25.62-18.466 12.174 1.976 20.441 13.446 18.465 25.62-1.975 12.174-13.446 20.442-25.62 18.466z"/></g><g><g><path fill="url(#6x9gbf)" d="M157.153 239.052v7.718a6.946 6.946 0 0 1-6.939 6.939h-7.684a6.946 6.946 0 0 1-6.938-6.939v-7.718zm.64 7.718v-8.038a.32.32 0 0 0-.32-.32h-22.201a.32.32 0 0 0-.32.32v8.038c0 4.179 3.4 7.578 7.578 7.578h7.684c4.18 0 7.578-3.399 7.578-7.578z"/></g><g><path fill="url(#6x9gbg)" d="M154.74 237.783a.32.32 0 0 1-.32-.32v-6.105a7.074 7.074 0 0 0-7.066-7.066h-2.305a7.074 7.074 0 0 0-7.066 7.066v6.105a.32.32 0 1 1-.64 0v-6.105c0-4.25 3.457-7.706 7.706-7.706h2.305c4.25 0 7.706 3.457 7.706 7.706v6.105a.32.32 0 0 1-.32.32z"/></g><g><path fill="url(#6x9gbh)" d="M152.832 237.783a.32.32 0 0 1-.32-.32v-5.235c0-3.316-2.43-6.014-5.415-6.014h-1.79c-2.987 0-5.416 2.698-5.416 6.014v5.235a.32.32 0 0 1-.64 0v-5.235c0-3.67 2.716-6.654 6.055-6.654h1.79c3.34 0 6.055 2.984 6.055 6.654v5.235a.32.32 0 0 1-.32.32z"/></g><g><path fill="url(#6x9gbi)" d="M146.47 241.598a2.287 2.287 0 0 1 2.282 2.285c-.001.904-.537 1.725-1.366 2.09a.32.32 0 0 0-.191.293v3.372a.73.73 0 0 1-1.457 0v-3.372a.32.32 0 0 0-.19-.293 2.276 2.276 0 0 1-1.344-2.415 2.296 2.296 0 0 1 2.265-1.96zm1.364 8.04v-3.172a2.926 2.926 0 0 0 .579-4.766 2.935 2.935 0 0 0-2.29-.722 2.943 2.943 0 0 0-2.553 2.494 2.91 2.91 0 0 0 1.528 2.994v3.172a1.37 1.37 0 0 0 1.368 1.368 1.37 1.37 0 0 0 1.368-1.368z"/></g></g></g></g></g><g><g><path fill="#91b3fa" d="M573.87 406.896c-27.768-7.657-37.818-92.736-9.634-113.22 12.967-9.424 30.277-2.45 37.64-14.399 7.98-12.946-8.798-26.885-2.042-44.549 6.224-16.277 30.36-30.304 46.919-21.932 12.857 6.5 19.158 25.498 14.37 39.043-6.976 19.731-33.602 16.898-39.323 35.004-4.868 15.408 12.265 24.256 14.674 44.806 4.198 35.817-39.325 81.668-62.605 75.247z"/></g><g><path fill="#bdd0fb" d="M554.13 369.515a111.384 111.384 0 0 1-2.528-13.128c-.158-1.104-.27-2.215-.4-3.324-.06-.555-.106-1.111-.16-1.667-.053-.556-.108-1.112-.145-1.669-.178-2.227-.265-4.461-.327-6.696-.087-4.472.071-8.955.545-13.418.237-2.23.529-4.46.945-6.67l.15-.83.173-.827c.118-.55.226-1.103.352-1.652l.396-1.643c.127-.55.292-1.09.437-1.636.61-2.173 1.306-4.331 2.173-6.433a42.325 42.325 0 0 1 3.08-6.11c1.202-1.954 2.599-3.812 4.24-5.469a23.77 23.77 0 0 1 2.64-2.307c.95-.691 1.94-1.34 2.987-1.865 2.083-1.075 4.306-1.807 6.535-2.306a41.588 41.588 0 0 1 3.352-.616 65.356 65.356 0 0 1 3.344-.405c4.442-.465 8.823-.671 13.11-1.751l.176.499c-2.051.94-4.244 1.55-6.433 2.042-1.099.24-2.2.444-3.299.643-1.098.201-2.196.363-3.285.553-2.177.378-4.334.748-6.418 1.294-1.045.267-2.07.574-3.067.941-1.003.353-1.969.78-2.9 1.262-3.75 1.885-6.71 5.095-8.968 8.73-2.256 3.656-3.896 7.724-5.117 11.912-.147.526-.314 1.046-.444 1.577l-.405 1.59c-.13.53-.242 1.067-.365 1.6l-.178.803-.158.806c-.218 1.074-.403 2.156-.59 3.237-.089.542-.163 1.086-.245 1.63a43.038 43.038 0 0 0-.222 1.632c-.56 4.361-.806 8.768-.871 13.178-.057 8.821.726 17.671 2.407 26.376z"/></g><g><path fill="#bdd0fb" d="M648.814 218.577a23.944 23.944 0 0 1 2.757 2.586 27.51 27.51 0 0 1 2.332 2.98 31.859 31.859 0 0 1 3.457 6.731c1.745 4.742 2.502 9.901 1.87 14.985a25.935 25.935 0 0 1-.764 3.767c-.192.614-.378 1.23-.631 1.826l-.356.902-.427.872c-.558 1.17-1.286 2.25-2.052 3.292-.202.253-.413.498-.619.747-.21.245-.408.503-.639.728-.448.463-.887.939-1.375 1.356-1.904 1.733-4.034 3.164-6.226 4.412-2.191 1.256-4.44 2.365-6.68 3.45-2.24 1.09-4.47 2.167-6.623 3.354-2.15 1.19-4.23 2.49-6.13 4-1.897 1.509-3.602 3.245-4.98 5.219a23.156 23.156 0 0 0-3.152 6.474 20.88 20.88 0 0 0-.928 7.139c.104 2.414.656 4.805 1.476 7.108.815 2.31 1.925 4.523 3.107 6.7.59 1.089 1.211 2.164 1.828 3.244l1.84 3.252-.456.268c-1.314-2.112-2.658-4.204-3.928-6.36-1.264-2.154-2.47-4.367-3.392-6.727-.925-2.354-1.555-4.855-1.732-7.414-.186-2.557.124-5.15.839-7.608.714-2.455 1.787-4.824 3.246-6.943 1.451-2.124 3.252-3.991 5.23-5.599 1.979-1.614 4.132-2.973 6.332-4.196 2.203-1.223 4.454-2.32 6.687-3.415 2.232-1.099 4.455-2.183 6.588-3.393 2.135-1.205 4.165-2.565 5.951-4.178.46-.39.867-.83 1.29-1.254.22-.207.403-.443.6-.668.193-.228.391-.452.581-.683.715-.955 1.398-1.939 1.924-3.012l.404-.8.338-.83c.242-.548.42-1.123.608-1.693.34-1.155.597-2.336.776-3.533.347-2.396.36-4.847.097-7.27-.118-1.214-.337-2.417-.59-3.612a36.365 36.365 0 0 0-.986-3.534c-.78-2.32-1.81-4.561-3.113-6.64a26.73 26.73 0 0 0-2.16-2.976 23.417 23.417 0 0 0-2.558-2.647z"/></g><g opacity=".57"><path fill="#fff" d="M632.002 236.786a3029.969 3029.969 0 0 0-15.942 39.124c-5.232 13.066-10.27 26.203-15.188 39.381-2.444 6.595-4.785 13.226-7.127 19.856-1.14 3.326-2.3 6.646-3.395 9.986-1.136 3.328-2.214 6.673-3.309 10.015l-1.582 5.03a352.521 352.521 0 0 0-1.565 5.037c-.507 1.683-1.046 3.358-1.526 5.049l-1.486 5.061a637.075 637.075 0 0 0-5.472 20.392v.001a.265.265 0 0 1-.518-.11c1.19-6.954 2.667-13.86 4.29-20.732.834-3.429 1.693-6.854 2.612-10.262.879-3.42 1.87-6.808 2.834-10.204 3.939-13.56 8.43-26.954 13.268-40.213 1.221-3.31 2.426-6.627 3.7-9.917 1.248-3.3 2.542-6.583 3.842-9.863l1.974-4.909 2.018-4.892 2.04-4.882c.677-1.628 1.37-3.25 2.073-4.868l2.116-4.849 2.138-4.839a894.919 894.919 0 0 1 4.4-9.622c2.999-6.385 6.048-12.745 9.327-18.996a.265.265 0 0 1 .358-.112c.121.064.173.21.121.335z"/></g></g><g><g><path fill="url(#6x9gbj)" d="M82.682 242.37s-6.688 2.229-11.02 11.784c-1.185 2.612-7.618 3.075-8.281 8.434-.343 2.767-2.39 4.983-5.146 5.405-6.864 1.052-17.441 4.616-19.133 16.533-1.292 9.096 3.345 12.544 8.211 13.738 3.574.877 5.95 4.354 5.226 7.962-.693 3.461.34 7.462 6.337 10.626 13.437 7.09 26.855-16.797 26.855-16.797l2.75-41.708z"/></g><g><path fill="url(#6x9gbk)" d="M125.861 241.075s-16.738 26.475-36.641 31.588c0 0 3.878 11.046 6.872 12.31 0 0 24.486-20.43 30.78-40.136z"/></g><g><path fill="url(#6x9gbl)" d="M45.789 410.408l-.543 4.459a1.843 1.843 0 0 1-1.615 1.612c-1.43.163-3.724.33-5.969.093-.985-.104-1.625-1.102-1.325-2.046.548-1.721 1.549-4.306 2.992-5.827h4.947c.915 0 1.623.8 1.513 1.709z"/></g><g><path fill="url(#6x9gbm)" d="M84.536 358.166l.835 4.912s-2.796 28.323-3.293 39.652a8.876 8.876 0 0 0 1.313 5.046l4.862 7.896-12.357-7.292-.246-1.508 2.023-2.782-2.65-31.728a9.733 9.733 0 0 1 1.109-5.385l2.555-4.801z"/></g><g><path fill="url(#6x9gbn)" d="M89.067 416.816h-3.943a2.373 2.373 0 0 1-1.885-.924c-1.229-1.598-3.776-4.714-4.994-4.796-1.64-.11-1.43 5.72-1.43 5.72h-.919l-1.164-7.243a4.288 4.288 0 0 1 2.25-4.482s.375 2.772 2.407 3.998c2.032 1.226 8.27 5.616 8.27 5.616s.763-.108 1.602.043c1.244.225 1.07 2.068-.194 2.068z"/></g><g><path fill="url(#6x9gbo)" d="M67.611 360.499s-16.381 31.074-18.985 38.168c-2.604 7.095-3.516 13.013-3.551 13.573-.055.876-1.144 1.716-4.146 1.716-1.55 0-2.309-.621-2.68-1.222a1.75 1.75 0 0 1-.067-1.696c.948-1.917 3.955-8.046 5.069-10.825 1.33-3.319 4.19-18.358 5.758-23.588 1.569-5.229 3.342-10.901 10.173-16.126 0 0 4.69-4.593 8.429 0z"/></g><g><path fill="url(#6x9gbp)" d="M77.96 309.584c4.225-17.905-6.48-28.033-6.48-28.033 6.754-6.483 19.06-9.433 19.06-9.433s11.744 8.585 10.351 15.305c-.817 3.938-8.254 23.59-8.254 23.59s-6.878 3.256-14.678-1.43z"/></g><g><path fill="url(#6x9gbq)" d="M68.59 318.448c1.72-5.18 9.37-8.864 9.37-8.864 7.8 4.685 14.677 1.43 14.677 1.43s1.542 5.895.478 11.374c-1.065 5.48-7.744 40.69-7.744 40.69-10.524 2.132-26.71-2.145-26.71-2.145 6.704-11.902 8.21-37.304 9.93-42.485z"/></g><g><path fill="url(#6x9gbr)" d="M82.864 260.285l-3.436 15.432c-.328 1.36.91 1.137 2.285.877 2.25-.424 5.151-1.298 6.12-3.049.1-.178.149-.38.176-.581l1.476-10.7a1.922 1.922 0 0 0-1.125-2.021l-2.848-1.263a1.923 1.923 0 0 0-2.648 1.305z"/></g><g><g><path fill="url(#6x9gbs)" d="M89.444 246.218s3.658 2.476 5.23 8.78c1.571 6.306-.983 8.567-3.601 8.429-2.618-.139-6.414-.949-9.703-5.472-3.289-4.523 3.282-14.762 8.074-11.737z"/></g><g><path fill="url(#6x9gbt)" d="M84.687 255.412s-1.34-9.034 6.16-7.652l1.517 1.579s3.672-4.135-.391-7.26c-4.063-3.126-9.701-2.326-12.82 3.364-3.12 5.69-4.252 9.689-1.638 13.224 2.615 3.536 4.581.504 4.581.504s-1.199-3.06-.204-4.374c.995-1.313 2.279.764 2.279.764z"/></g><g><path fill="url(#6x9gbu)" d="M83.662 256.186s-.662-4.648-3.036-3.32c-2.374 1.33.856 4.342 2.15 5.368z"/></g></g><g><g><path fill="url(#6x9gbv)" d="M125.746 246.526c.051.546-1.98.923-2.626-1.405.178-1.011.493-5.437 1.268-6.125 4.128-3.662 11.488-7.782 11.488-7.782.824 1.256-.256 2.084-.256 2.084l-3.674 2.48c.383 1.27.942 2.391 1.006 3.84.048 1.098-.358 2.173-1.086 3.005-.731.836-1.716 1.915-2.603 2.734-1.68 1.55-3.517 1.169-3.517 1.169z"/></g><g><path fill="url(#6x9gbw)" d="M127.736 244.718l-.548-.225c.075-.182 1.837-4.465 2.69-5.355.324-.34.482-.632.467-.867-.008-.13-.072-.258-.194-.387l-2.98 1.593-1.315 2.058-.5-.32 1.398-2.187 3.477-1.859.152.124c.351.287.532.595.553.942.026.412-.18.842-.63 1.312-.644.673-2.073 3.961-2.57 5.17z"/></g></g><g><path fill="url(#6x9gbx)" d="M71.48 281.552S52.461 320.6 45.574 324.014c0 0-6.993.73-11.273 2.026-1.077.325-1.04 1.854.044 2.15 2.98.813 7.919 1.492 12.444-.964 0 0-2.431 3.644-1.013 5.063 0 0 3.241-3.848 4.457-5.063 1.07-1.07 20.547-22.304 28.735-35.11.661-1.034.202-4.11-.257-5.248-1.058-2.621-3.405-6.805-7.23-5.316z"/></g><g><path fill="#91b3fa" d="M85.885 242.873c-1.609.53-3.046 1.496-4.351 2.563-1.31 1.074-2.444 2.352-3.4 3.74a18.117 18.117 0 0 0-2.26 4.508c-.268.799-.479 1.612-.635 2.443-.159.833-.292 1.686-.55 2.526-.25.837-.661 1.673-1.295 2.32-.622.654-1.383 1.125-2.142 1.535-.762.409-1.539.762-2.266 1.174a9.235 9.235 0 0 0-1.99 1.474 9.292 9.292 0 0 0-2.48 4.229c-.232.806-.408 1.65-.715 2.48-.298.826-.778 1.652-1.493 2.234-.703.591-1.548.945-2.388 1.19-.844.24-1.697.382-2.536.528-1.674.266-3.3.703-4.851 1.356-3.075 1.299-5.893 3.476-7.405 6.471-.75 1.484-1.107 3.172-.891 4.82.223 1.637.943 3.245 2.17 4.363.61.558 1.333.998 2.127 1.227a5.667 5.667 0 0 0 2.47.118c1.638-.256 3.21-1.303 3.828-2.884l.14.052c-.605 1.656-2.219 2.786-3.922 3.09a5.946 5.946 0 0 1-2.6-.067c-.854-.225-1.636-.677-2.296-1.255-1.328-1.17-2.101-2.86-2.36-4.583-.251-1.742.107-3.542.874-5.106.764-1.575 1.89-2.952 3.215-4.075 1.323-1.13 2.832-2.022 4.422-2.706 1.591-.68 3.281-1.14 4.975-1.416.84-.148 1.672-.292 2.469-.524.792-.233 1.551-.562 2.156-1.077.612-.508 1.032-1.2 1.316-1.972.289-.77.468-1.6.71-2.432a9.89 9.89 0 0 1 2.657-4.482 9.83 9.83 0 0 1 2.116-1.555c.76-.425 1.54-.775 2.282-1.17.739-.394 1.45-.835 2.008-1.42.572-.572.95-1.304 1.199-2.093.253-.789.397-1.624.569-2.464.169-.843.398-1.683.682-2.497a18.497 18.497 0 0 1 2.373-4.58c1.01-1.396 2.195-2.668 3.549-3.727 1.35-1.052 2.822-1.995 4.476-2.497z"/></g><g><path fill="#91b3fa" d="M76.821 254.556c-.05 1.099-.112 2.203-.313 3.299-.196 1.09-.514 2.189-1.107 3.169-.58.993-1.49 1.762-2.405 2.378-.922.621-1.814 1.218-2.628 1.929-1.623 1.398-2.984 3.137-3.41 5.219-.488 2.062-.352 4.354-1.276 6.532-.47 1.078-1.253 2.007-2.163 2.711-.912.711-1.942 1.229-3.003 1.62-2.137.769-4.345 1.04-6.46 1.518-2.095.472-4.19 1.268-5.673 2.812-.718.762-1.352 1.705-1.367 2.755-.013 1.056.475 2.076.956 3.052l-.13.07c-.546-.942-1.122-1.948-1.166-3.12-.018-.582.134-1.165.386-1.68.25-.516.579-.984.952-1.415 1.54-1.714 3.736-2.604 5.875-3.157 2.15-.572 4.345-.829 6.347-1.589 1.98-.74 3.845-2.018 4.652-3.928.85-1.904.763-4.16 1.289-6.366a8.828 8.828 0 0 1 1.404-3.122c.654-.94 1.464-1.746 2.338-2.449 1.7-1.478 3.93-2.215 5.06-4.037.594-.879.955-1.914 1.198-2.97.242-1.06.37-2.151.496-3.243z"/></g></g><g><g><path fill="url(#6x9gby)" d="M632.052 315.919s13.123 7.27 14.21 19.573c1.085 12.303.09 63.37-26.225 75.94-26.316 12.569-61.148 9.672-74.481 8.298-13.333-1.374-20.726-10.436-22.377-16.675-1.652-6.239-4.32-29.48 9.707-36.977 14.026-7.496 28.758-18.982 43.478-30.165 14.72-11.184 39.948-29.44 55.688-19.994z"/></g><g><path fill="url(#6x9gbz)" d="M537.022 370.32s3.542.187 3.976 7.474c0 0-8.213 7.363-19.307 9.115-.833.131 1.164-5.685 1.465-6.474 1.428-3.749 5.927-6.164 13.866-10.115z"/></g><g><path fill="url(#6x9gbA)" d="M576.911 361.752h-7.474s-22.94-25.336-37.987-27.892c0 0-10.473 13.37.558 38.35.887 2.01 3.37 2.902 5.22 1.72a2.989 2.989 0 0 0 1.194-1.423l-.888-21.329s19.569 17.115 22.97 20.418c3.402 3.303 20.69 1.29 16.407-9.844z"/></g><g><path fill="url(#6x9gbB)" d="M504.65 414.945c3.133-2.744 8.124-5.824 15.328-6.707l2.436 1.49s-1.553 2.292-4.391 4.713c-2.61 1.515-6.637 3.567-9.976 4.012-3.247.432-3.726-1.53-3.396-3.508z"/></g><g><path fill="#91b3fa" d="M523.156 380.435c1.93.625 2.778 3.36 7.674 1.551 4.737-1.749 8.258-4.004 10.07-5.305.04.352.075.72.098 1.113 0 0-8.66 8.237-19.754 9.99-.833.131-1.493-.7-1.193-1.488a27.876 27.876 0 0 1 3.105-5.86z"/></g><g><path fill="#91b3fa" d="M502.291 417.289a25.894 25.894 0 0 1 2.36-2.344c-.33 1.978.149 3.94 3.395 3.508 3.34-.445 7.368-2.497 9.977-4.012-3.27 2.788-8.244 5.748-14.523 5.574-1.395-.039-2.13-1.679-1.209-2.726z"/></g><g><path fill="url(#6x9gbC)" d="M576.638 367.16l-35.002.379s-19.988 16.537-23.614 41.754c0 0-.602 1.855 3.012 2.172 0 0 12.084-7.893 19.964-21.847 9.662-17.11 28.803-9.408 28.803-9.408 6.29-4.535 15.177-5.458 21.872-6.969z"/></g><g><path fill="url(#6x9gbD)" d="M575.811 338.965s-3.768 18.883-22.23 26.353l-6.567-.774-1.55 2.471 15.405.491s13.167-5.215 20.144-19.427c.23-.47 4.072-8.401-5.202-9.114z"/></g><g><path fill="url(#6x9gbE)" d="M573.792 366.851s4.285-11.647 5.206-22.964c0 0-3.135-2.694-5.094-3.857a1.417 1.417 0 0 1-.554-1.836c1.441-2.985 10.152-14.702 10.805-14.865 3.547-.885 18.093-7.801 28.338 6.212 4.397 6.014-.873 24.528-20.82 43.7l-4.115.787z"/></g><g><path fill="url(#6x9gbF)" d="M590.302 346.439s-11.904 14.095-27.124 16.156c0 0-3.934-3.586-6.859-2.306-2.925 1.28-6.935 6.932-6.935 6.932h19.542s18.479-.651 27.712-11.856c-.743-3.921-2.968-6.263-6.336-8.926z"/></g><g><path fill="url(#6x9gbG)" d="M597.247 313.443l2.605 8.687a.955.955 0 0 1-.37 1.064c-1.255.859-4.532 2.567-9.03.907a1.417 1.417 0 0 1-.91-1.216l-.618-7.569z"/></g><g><g><path fill="url(#6x9gbH)" d="M581.995 306.407s1.28 9.006 4.74 11.775c3.46 2.77 10.2.684 12.476-6.105l-4.536-11.608z"/></g><g><path fill="url(#6x9gbI)" d="M595.186 307.98a.446.446 0 0 1-.58-.357c-.125-.831-.436-2.476-1.067-3.597 0 0 .33-1.181-2.987.604-3.316 1.785-8.296 4.407-11.228 2.845-2.86-1.522-5.756-9.183 1.8-7.764a.446.446 0 0 0 .53-.466c-.092-1.26.033-4.156 2.966-5.086 2.745-.87 4.248.37 4.867 1.117.182.22.52.216.694-.01.822-1.074 3.055-3.36 6.343-1.91 2.708 1.193 3.129 2.86 3.084 3.9a.445.445 0 0 0 .633.424c.83-.382 2.164-.58 3.441 1.02 1.767 2.214-.758 4.133-1.515 4.636a.447.447 0 0 0-.202.369c-.007 1.15-.186 6.171-2.703 9.003a.45.45 0 0 1-.747-.13l-1.938-4.615a.448.448 0 0 0-.55-.253z"/></g><g><path fill="url(#6x9gbJ)" d="M595.145 308.918s1.183-4.82 2.98-3.254c1.797 1.564-.468 5.008-2.527 5.664z"/></g></g><g><path fill="url(#6x9gbK)" d="M550.368 368.314l-8.775-29.261a2.992 2.992 0 0 0-2.662-2.127l-11.847-.81a1.68 1.68 0 0 0-1.7 2.233l9.81 27.945a2.46 2.46 0 0 0 2.073 1.632l11.666 1.296z"/></g><g><path fill="#91b3fa" d="M534.185 348.97c.655 1.322 1.786 2.097 2.527 1.73.74-.367.81-1.736.155-3.058-.656-1.323-1.787-2.097-2.528-1.73-.74.366-.809 1.736-.154 3.058z"/></g><g><path fill="url(#6x9gbL)" d="M548.933 369.222c.019 0 .038 0 .057-.002l24.858-1.256a1.114 1.114 0 0 0 1.056-1.169 1.108 1.108 0 0 0-1.169-1.056l-24.857 1.256a1.114 1.114 0 0 0 .055 2.227z"/></g><g><path fill="url(#6x9gbM)" d="M578.997 344.183a.296.296 0 0 1-.296-.296c-.018-5.264 2.007-12.227 2.027-12.297a.296.296 0 1 1 .57.167c-.021.069-2.021 6.95-2.005 12.128a.297.297 0 0 1-.295.298z"/></g><g><path fill="url(#6x9gbN)" d="M590.302 346.735a.295.295 0 0 1-.232-.48c.054-.069 5.446-6.923 7.288-11.592a.296.296 0 1 1 .552.218c-1.875 4.75-7.151 11.458-7.375 11.741a.296.296 0 0 1-.233.113z"/></g><g><path fill="url(#6x9gbO)" d="M597.918 357.326l-1.04-1.472a.297.297 0 0 1 .483-.343l.763 1.08c7.575-3.377 12.26-12.436 12.308-12.528a.296.296 0 1 1 .528.27c-.049.094-4.923 9.517-12.822 12.898z"/></g></g></g></g></g></svg>