<svg xmlns="http://www.w3.org/2000/svg" width="586" height="510" viewBox="0 0 586 510"><g><g><g><g><path fill="#ebf8ff" d="M383.091 31.315S293.788-.448 206.054 50.129C118.32 100.706 74.103 201.099 36.101 281.508c-38.002 80.409-16.123 162.254 50.83 199.556 66.953 37.302 112.461-17.692 206.362-20.37 93.901-2.68 119.171 10.752 197.106-42.299 77.935-53.05 92.019-178.352 30.544-271.059C459.47 54.63 383.091 31.315 383.091 31.315z"/></g><g opacity=".8"><path fill="#ebf8ff" d="M383.091 31.315S293.788-.448 206.054 50.129C118.32 100.706 74.103 201.099 36.101 281.508c-38.002 80.409-16.123 162.254 50.83 199.556 66.953 37.302 112.461-17.692 206.362-20.37 93.901-2.68 119.171 10.752 197.106-42.299 77.935-53.05 92.019-178.352 30.544-271.059C459.47 54.63 383.091 31.315 383.091 31.315z"/></g><g><path fill="#ebf8ff" d="M147.79 261.946c4.137 0 8.084-1.753 10.86-4.825l-3.245-3.623a9.86 9.86 0 0 1-15.689-.7l-3.403 3.5a14.687 14.687 0 0 0 11.477 5.648z"/></g><g><path fill="#ebf8ff" d="M147.79 254.295a7.072 7.072 0 0 0 5.672-2.86l-3.476-3.85a2.22 2.22 0 0 1-4.417-.35 2.644 2.644 0 0 1 0-.434l-3.898 3.994a7.048 7.048 0 0 0 6.119 3.5z"/></g><g><path fill="#ebf8ff" d="M147.512 244.846l-.217.229a1.87 1.87 0 0 1 .374 0z"/></g><g><path fill="#ebf8ff" d="M165.856 265.144a25.343 25.343 0 0 1-37.11-1.074l-3.39 3.475a30.23 30.23 0 0 0 43.746 1.207z"/></g><g><path fill="#ebf8ff" d="M147.79 270.14a22.83 22.83 0 0 0 16.348-6.899l-3.242-3.624a18.017 18.017 0 0 1-26.996-.87l-3.367 3.452a22.82 22.82 0 0 0 17.257 7.941z"/></g></g><g><g><path fill="none" stroke="#263238" stroke-linejoin="round" stroke-miterlimit="20" d="M1.43 508.869H585"/></g></g><g><g><path fill="none" stroke="#263238" stroke-linecap="round" stroke-linejoin="round" stroke-miterlimit="20" stroke-width="3" d="M244.853 343.32v0s.41 50.939.41 64.395c0 13.456-.41 71.913-.41 71.913v0"/></g><g><path fill="#396ab3" d="M275.42 356.366l-12.634-10.596 35.455 4.079-31.376-10.198 32.197-5.708h-36.276l28.118-21.191-31.787 15.893 18.343-31.376-24.45 28.118 8.557-41.164-15.894 38.316-1.629-42.793-3.258 43.602-17.342-38.521 12.044 42.19-25.946-28.288 22.688 34.816-32.113-22.905 30.073 29.011-34.044-18.596L227.33 342.1l-28.203-3.68 27.394 7.76-21.939 3.656 22.748-.809-13.444 8.967 31.787-8.556z"/></g><g><path fill="none" stroke="#263238" stroke-linecap="round" stroke-linejoin="round" stroke-miterlimit="20" stroke-width="3" d="M232.616 394.67v0s-1.207 10.595-.398 14.674a75.026 75.026 0 0 1 1.206 14.264c0 5.298.41 5.708.41 9.377 0 3.669-.41 34.828-.41 37.676v9.775"/></g><g><path fill="none" stroke="#263238" stroke-linecap="round" stroke-linejoin="round" stroke-miterlimit="20" stroke-width="3" d="M233.823 428.906v0s1.629-8.966 3.258-13.045c1.63-4.08 2.848-2.848 3.258-7.736.41-4.887.41-6.927 1.207-8.568a32.586 32.586 0 0 0 1.63-4.477l.82-3.259v0"/></g><g><path fill="#396ab3" d="M262.786 405.265l-12.635-10.596 35.455 4.08-31.376-10.186 32.197-5.708H250.15l28.13-21.192-31.787 15.894 18.331-31.377-24.45 28.119 8.557-41.164-15.894 38.303-1.629-42.793-3.258 43.614-12.635-39.535 7.337 43.204-22.41-32.198 19.151 38.714-29.41-19.212 27.371 25.33-30.339-12.417 27.479 14.856-28.468-2.462 27.66 6.54-19.225 4.381 20.033-1.532-13.444 8.966 31.787-8.556z"/></g><g><path fill="#fff" d="M221.465 468.9l-8.725 14.481a9.654 9.654 0 0 0-1.038 7.434l3.874 14.481a4.827 4.827 0 0 0 4.658 3.56h39.728a4.827 4.827 0 0 0 4.646-3.56l3.886-14.481a9.654 9.654 0 0 0-1.05-7.434l-8.713-14.482a3.307 3.307 0 0 0-2.836-1.605h-31.606c-1.159 0-2.232.61-2.824 1.605z"/><path fill="none" stroke="#263238" stroke-linejoin="round" stroke-miterlimit="20" d="M221.465 468.9v0l-8.725 14.481a9.654 9.654 0 0 0-1.038 7.434l3.874 14.481a4.827 4.827 0 0 0 4.658 3.56h39.728a4.827 4.827 0 0 0 4.646-3.56l3.886-14.481a9.654 9.654 0 0 0-1.05-7.434l-8.713-14.482a3.307 3.307 0 0 0-2.836-1.605h-31.606c-1.159 0-2.232.61-2.824 1.605z"/></g></g><g><g><path fill="none" stroke="#263238" stroke-linejoin="round" stroke-miterlimit="20" d="M26.773 113.027h160.214c.733 0 1.328.594 1.328 1.328V506.66c0 1.22-.99 2.208-2.209 2.208H27.654a2.208 2.208 0 0 1-2.209-2.208V114.354c0-.733.595-1.327 1.328-1.327z"/></g><g><path fill="none" stroke="#263238" stroke-linejoin="round" stroke-miterlimit="20" d="M106.88 312.535v195.923"/></g><g><path fill="none" stroke="#263238" stroke-linejoin="round" stroke-miterlimit="20" d="M106.88 112.617v192.93"/></g><g><path fill="none" stroke="#263238" stroke-linejoin="round" stroke-miterlimit="20" d="M36.234 312.414h144.49a3.282 3.282 0 0 0 3.282-3.283v0a3.282 3.282 0 0 0-3.282-3.282H36.234a3.282 3.282 0 0 0-3.282 3.282v0a3.282 3.282 0 0 0 3.282 3.283z"/></g><g><path fill="none" stroke="#263238" stroke-linejoin="round" stroke-miterlimit="20" d="M124.85 241.128v0-90.05 0h46.4v90.05z"/></g><g><path fill="none" stroke="#263238" stroke-linejoin="round" stroke-miterlimit="20" d="M128.494 207.35v0-49.213 0h39.124v49.213z"/></g><g><path fill="none" stroke="#263238" stroke-linejoin="round" stroke-miterlimit="20" d="M128.795 218.537v0-5.744 0h5.564v5.744z"/></g><g><path fill="none" stroke="#263238" stroke-linejoin="round" stroke-miterlimit="20" d="M137.158 218.537v0-5.744 0h5.564v5.744z"/></g><g><path fill="none" stroke="#263238" stroke-linejoin="round" stroke-miterlimit="20" d="M145.51 218.537v0-5.744 0h5.563v5.744z"/></g><g><path fill="none" stroke="#263238" stroke-linejoin="round" stroke-miterlimit="20" d="M153.86 218.537v0-5.744 0h5.564v5.744z"/></g><g><path fill="none" stroke="#263238" stroke-linejoin="round" stroke-miterlimit="20" d="M162.212 218.537v0-5.744 0h5.563v5.744z"/></g><g><path fill="none" stroke="#263238" stroke-linejoin="round" stroke-miterlimit="20" d="M128.795 227.77v0-5.745 0h5.564v5.744z"/></g><g><path fill="none" stroke="#263238" stroke-linejoin="round" stroke-miterlimit="20" d="M137.158 227.77v0-5.745 0h5.564v5.744z"/></g><g><path fill="none" stroke="#263238" stroke-linejoin="round" stroke-miterlimit="20" d="M145.51 227.77v0-5.745 0h5.563v5.744z"/></g><g><path fill="none" stroke="#263238" stroke-linejoin="round" stroke-miterlimit="20" d="M153.86 227.77v0-5.745 0h5.564v5.744z"/></g><g><path fill="none" stroke="#263238" stroke-linejoin="round" stroke-miterlimit="20" d="M162.212 227.77v0-5.745 0h5.563v5.744z"/></g><g><path fill="none" stroke="#263238" stroke-linejoin="round" stroke-miterlimit="20" d="M43.04 278.382v0-59.615 0h41.381v59.615z"/></g><g><path fill="none" stroke="#263238" stroke-linejoin="round" stroke-miterlimit="20" d="M50.547 278.382v0-59.615 0h26.368v59.615z"/></g><g><path fill="none" stroke="#263238" stroke-linejoin="round" stroke-miterlimit="20" d="M50.547 237.218v0-18.451 0h26.368v18.451z"/></g></g><g><g><path fill="none" stroke="#263238" stroke-linejoin="round" stroke-miterlimit="20" d="M447.908 76.353v0H222.056a111.3 111.3 0 0 1-5.805-34.877l-.108-19.852a5.624 5.624 0 0 1 5.611-5.611h226.443a5.612 5.612 0 0 1 5.612 5.648l-.133 20.14a110.857 110.857 0 0 1-5.382 33.393z"/></g><g><path fill="none" stroke="#263238" stroke-linejoin="round" stroke-miterlimit="20" d="M236.646 76.4v0-9.22 0h196.672v9.22z"/></g><g><path fill="#396ab3" d="M392.721 95.77c4.141.004 8.09-1.751 10.861-4.827l-3.246-3.62a9.86 9.86 0 0 1-15.688-.689l-3.416 3.488a14.675 14.675 0 0 0 11.49 5.648z"/></g><g><path fill="#396ab3" d="M392.721 88.13a7.048 7.048 0 0 0 5.66-2.871l-3.476-3.838a2.22 2.22 0 0 1-4.417-.35 1.813 1.813 0 0 1 0-.446l-3.91 3.994a7.06 7.06 0 0 0 6.143 3.512z"/></g><g><path fill="#396ab3" d="M392.431 78.682l-.217.229c.123-.032.248-.052.374-.06z"/></g><g><path fill="#396ab3" d="M410.787 98.968a25.343 25.343 0 0 1-37.121-1.074l-3.391 3.475a30.17 30.17 0 0 0 43.746 1.207z"/></g><g><path fill="#396ab3" d="M392.721 103.964a22.796 22.796 0 0 0 16.34-6.89l-3.246-3.621a18.017 18.017 0 0 1-26.984-.857l-3.38 3.451a22.844 22.844 0 0 0 17.27 7.917z"/></g></g><g><g><path fill="none" stroke="#263238" stroke-linejoin="round" stroke-miterlimit="20" d="M397.718 440.335v0-15.037 0h121.139v15.037z"/></g><g><path fill="none" stroke="#263238" stroke-linejoin="round" stroke-miterlimit="20" d="M345.018 508.868v0-68.558 0h226.527v68.558z"/></g><g><path fill="none" stroke="#263238" stroke-linejoin="round" stroke-miterlimit="20" d="M351.052 504.488v0-59.797 0h214.46v59.797z"/></g><g><path fill="none" stroke="#263238" stroke-linejoin="round" stroke-miterlimit="20" d="M422.663 444.413v60.039"/></g><g><path fill="none" stroke="#263238" stroke-linejoin="round" stroke-miterlimit="20" d="M492.923 444.413v60.039"/></g><g><path fill="none" stroke="#263238" stroke-linejoin="round" stroke-miterlimit="20" d="M361.261 440.335v0-42.83 0h30.592v42.83z"/></g><g><path fill="none" stroke="#263238" stroke-linejoin="round" stroke-miterlimit="20" d="M524.154 440.335v0-42.83 0h30.593v42.83z"/></g><g><path fill="#396ab3" d="M460.58 405.99a14.637 14.637 0 0 0-10.859 4.824l3.244 3.623a9.847 9.847 0 0 1 15.689.7l3.415-3.5a14.687 14.687 0 0 0-11.489-5.648z"/></g><g><path fill="#396ab3" d="M460.58 413.64a7.072 7.072 0 0 0-5.672 2.86l3.476 3.838a2.22 2.22 0 0 1 4.417.35c.018.148.018.298 0 .446l3.91-3.994a7.06 7.06 0 0 0-6.13-3.5z"/></g><g><path fill="#396ab3" d="M460.858 423.077l.217-.217c-.124.013-.25.013-.374 0z"/></g><g><path fill="#396ab3" d="M442.515 402.791a25.343 25.343 0 0 1 37.109 1.074l3.39-3.475a30.23 30.23 0 0 0-43.746-1.207z"/></g><g><path fill="#396ab3" d="M460.58 397.795a22.83 22.83 0 0 0-16.348 6.899l3.243 3.624a18.005 18.005 0 0 1 26.984.87l3.379-3.452a22.844 22.844 0 0 0-17.258-7.941z"/></g></g><g><g><path fill="none" stroke="#263238" stroke-linejoin="round" stroke-miterlimit="20" d="M565.016 42.43a7 7 0 1 1-13.999 0 7 7 0 0 1 14 0z"/></g><g><path fill="none" stroke="#263238" stroke-linejoin="round" stroke-miterlimit="20" d="M575.346 94.237v0h-34.755v0-27.43c0-9.598 7.78-17.378 17.377-17.378v0c9.598 0 17.378 7.78 17.378 17.378z"/></g><g><path fill="none" stroke="#263238" stroke-linejoin="round" stroke-miterlimit="20" stroke-width="2" d="M558.017 35.43V1.531"/></g><g><path fill="none" stroke="#263238" stroke-linejoin="round" stroke-miterlimit="20" d="M98.082 42.43a7 7 0 1 1-13.998 0 7 7 0 0 1 13.998 0z"/></g><g><path fill="none" stroke="#263238" stroke-linejoin="round" stroke-miterlimit="20" d="M108.46 94.237v0H73.706v0-27.43c0-9.598 7.78-17.378 17.378-17.378v0c9.597 0 17.378 7.78 17.378 17.378z"/></g><g><path fill="none" stroke="#263238" stroke-linejoin="round" stroke-miterlimit="20" stroke-width="2" d="M91.083 35.43V1.531"/></g><g><path fill="#396ab3" d="M132.247 88.819c0-4.138-1.753-8.084-4.825-10.86l-3.623 3.245a9.847 9.847 0 0 1-.688 15.688l3.488 3.403a14.663 14.663 0 0 0 5.648-11.476z"/></g><g><path fill="#396ab3" d="M124.596 88.819a7.072 7.072 0 0 0-2.872-5.672l-3.838 3.475a2.233 2.233 0 0 1-.35 4.43 2.81 2.81 0 0 1-.447 0l4.007 3.897a7.048 7.048 0 0 0 3.5-6.13z"/></g><g><path fill="#396ab3" d="M115.146 89.096l.23.218a1.279 1.279 0 0 1 0-.374z"/></g><g><path fill="#396ab3" d="M135.445 70.753a25.343 25.343 0 0 1-1.086 37.11l3.475 3.402a30.242 30.242 0 0 0 1.207-43.758z"/></g><g><path fill="#396ab3" d="M140.44 88.819a22.83 22.83 0 0 0-6.898-16.348l-3.624 3.242a18.017 18.017 0 0 1-.87 26.996l3.452 3.367a22.82 22.82 0 0 0 7.94-17.257z"/></g></g><g><g><path fill="none" stroke="#263238" stroke-linejoin="round" stroke-miterlimit="20" d="M360.668 296.822v0-135.33 0h201.825v135.33z"/></g><g><path fill="none" stroke="#263238" stroke-linejoin="round" stroke-miterlimit="20" d="M366.147 291.102v0V167.2v0h190.867v123.902z"/></g><g><path fill="#396ab3" d="M460.579 142.908a14.637 14.637 0 0 0-10.86 4.825l3.245 3.622a9.847 9.847 0 0 1 15.688.7l3.415-3.5a14.687 14.687 0 0 0-11.488-5.647z"/></g><g><path fill="#396ab3" d="M460.579 150.559a7.072 7.072 0 0 0-5.672 2.86l3.475 3.837a2.22 2.22 0 0 1 4.417.35c.019.149.019.299 0 .447l3.91-3.995a7.06 7.06 0 0 0-6.13-3.5z"/></g><g><path fill="#396ab3" d="M460.856 159.996l.217-.217h-.374z"/></g><g><path fill="#396ab3" d="M442.513 139.71a25.343 25.343 0 0 1 37.109 1.074l3.391-3.476a30.23 30.23 0 0 0-43.746-1.207z"/></g><g><path fill="#396ab3" d="M460.579 134.713a22.83 22.83 0 0 0-16.349 6.9l3.243 3.624a18.005 18.005 0 0 1 26.984.869l3.379-3.452a22.845 22.845 0 0 0-17.257-7.94z"/></g></g><g><g><path fill="none" stroke="#263238" stroke-dasharray="2 2" stroke-miterlimit="20" d="M275.637 133.048v0l-.325 85.743v0l-50.843-66.169v0"/></g><g><path fill="none" stroke="#263238" stroke-dasharray="2 2" stroke-miterlimit="20" d="M200.526 239.077v0l72.408-19.514v0l-72.794-27.599v0"/></g><g><path fill="none" stroke="#263238" stroke-dasharray="2 2" stroke-miterlimit="20" d="M272.922 219.563l-42.37 55.151"/></g><g><path fill="none" stroke="#263238" stroke-miterlimit="20" d="M277.267 136.21h-1.207"/></g><g><path fill="none" stroke="#263238" stroke-dasharray="2.008 2.008" stroke-miterlimit="20" d="M273.646 136.234c-1.701 0-3.427.145-5.153.302-32.962 3.047-60.452 26.481-68.677 58.545-8.225 32.065 4.59 65.838 32.015 84.376"/></g><g><path fill="none" stroke="#263238" stroke-miterlimit="20" d="M232.844 280.12l1.014.664"/></g><g><path fill="#396ab3" d="M217.868 193.28c.007-9.413-7.62-17.048-17.032-17.053-9.412-.004-17.046 7.624-17.048 17.036 0 9.417 7.632 17.047 17.044 17.044a17.016 17.016 0 0 0 17.036-17.028z"/></g><g><path fill="#263238" d="M201.033 186.81a5.877 5.877 0 0 1 5.89 5.902 6.843 6.843 0 0 1-.616 2.643c-.181.398-.386.809-.58 1.207a13.6 13.6 0 0 0-.832 1.858c-.097.278-.181.543-.253.809-.11.469-.277.922-.495 1.351a3.464 3.464 0 0 1-3.102 1.883 3.68 3.68 0 0 1-3.39-2.269 1.775 1.775 0 0 1-.085-.205c-.06-.06-.06-.12-.06-.205-.664-2.04-1.521-3.982-1.521-4.067v-.084a6.034 6.034 0 0 1-.785-2.945 5.89 5.89 0 0 1 5.817-5.877zm-.012 17.27a5.093 5.093 0 0 0 4.465-2.703c.281-.54.5-1.112.652-1.702.064-.241.137-.482.217-.724.206-.57.457-1.122.748-1.653.218-.447.435-.881.628-1.34a8.207 8.207 0 0 0 .748-3.27 7.506 7.506 0 1 0-13.938 3.693c.12.253.856 2.088 1.436 3.874l.084.253c.048.133.133.266.133.362a5.298 5.298 0 0 0 4.827 3.21z"/></g><g><path fill="#263238" d="M201.045 184.747a.82.82 0 0 1-.82-.808v-3.802a.809.809 0 0 1 1.617 0v3.753a.809.809 0 0 1-.797.857z"/></g><g><path fill="#263238" d="M192.006 193.472h-2.932a.82.82 0 0 1 0-1.629h2.944a.82.82 0 1 1 0 1.63z"/></g><g><path fill="#263238" d="M212.8 193.485h-2.945a.809.809 0 0 1 0-1.618h2.945c.446 0 .808.362.808.809a.82.82 0 0 1-.809.809z"/></g><g><path fill="#263238" d="M194.142 186.775a.796.796 0 0 1-.567-.23l-2.341-2.34a.808.808 0 0 1 0-1.208.82.82 0 0 1 1.146 0l2.33 2.342a.808.808 0 0 1-.58 1.375z"/></g><g><path fill="#263238" d="M208.141 186.787a.833.833 0 0 1-.579-.242.82.82 0 0 1 0-1.146l2.341-2.33a.81.81 0 1 1 1.147 1.147l-2.342 2.33a.809.809 0 0 1-.567.24z"/></g><g><path fill="#396ab3" d="M244.249 155.724c.08-9.412-7.487-17.106-16.9-17.184-9.411-.077-17.104 7.49-17.18 16.903-.075 9.412 7.495 17.102 16.907 17.176 9.406.074 17.093-7.489 17.173-16.895z"/></g><g><path fill="#263238" d="M227.184 165.197a9.654 9.654 0 0 1-3.62-18.464 1.364 1.364 0 1 1 1.038 2.51 6.89 6.89 0 1 0 5.744.242 1.364 1.364 0 0 1 1.207-2.414 9.654 9.654 0 0 1-4.44 18.102z"/></g><g><path fill="#263238" d="M227.269 153.974a1.364 1.364 0 0 1-1.34-1.376v-8.23a1.364 1.364 0 1 1 2.728 0l-.073 8.242c0 .735-.58 1.338-1.315 1.364z"/></g><g transform="rotate(-26.58 230.5 276.5)"><path fill="#396ab3" d="M213.526 276.804c0-9.411 7.63-17.04 17.04-17.04 9.411 0 17.04 7.629 17.04 17.04 0 9.41-7.629 17.04-17.04 17.04-9.41 0-17.04-7.63-17.04-17.04z"/></g><g><path fill="#263238" d="M236.344 283.85a.217.217 0 0 1-.23.217h-9.823a.23.23 0 0 1-.229-.218v-9.835a.23.23 0 0 1 .23-.217h9.835c.12 0 .217.097.217.217zm-.18-11.682h-5.66v-3.259a4.562 4.562 0 0 0-4.538-4.561h-.254a4.538 4.538 0 0 0-4.561 4.525V273a.809.809 0 1 0 1.617 0v-4.127a2.932 2.932 0 0 1 2.932-2.908h.266a2.933 2.933 0 0 1 2.908 2.932v3.259h-2.546c-1.02 0-1.847.826-1.847 1.846v9.823a1.846 1.846 0 0 0 1.835 1.859h9.835c1.02 0 1.846-.827 1.846-1.847v-9.823a1.858 1.858 0 0 0-1.834-1.846z"/></g><g><path fill="#263238" d="M231.227 276.56a1.376 1.376 0 0 0-.543 2.631v2.317h1.062v-2.268a1.376 1.376 0 0 0-.53-2.643z"/></g><g transform="rotate(-17.78 200.5 239.5)"><path fill="#396ab3" d="M183.475 239.097c0-9.411 7.63-17.04 17.04-17.04 9.411 0 17.04 7.629 17.04 17.04 0 9.41-7.629 17.04-17.04 17.04-9.41 0-17.04-7.63-17.04-17.04z"/></g><g><path fill="#263238" d="M199.126 248.2a4.019 4.019 0 0 1-3.922-4.102 3.934 3.934 0 0 1 2.064-3.428l.459-.265.144-9.968c.02-.81.686-1.455 1.497-1.449a1.46 1.46 0 0 1 1.436 1.485l-.145 9.908.495.277a4.007 4.007 0 0 1-1.991 7.519zm3.38-8.845l.132-8.822a3.331 3.331 0 1 0-6.661-.096v.688h-2.004a.953.953 0 0 0-.953.929.93.93 0 0 0 .917.941h2.016v1.376h-2.004a.93.93 0 0 0-.953.917c0 .513.405.934.917.953h2.015v1.388h-2.003a.941.941 0 0 0 0 1.87h1.847a5.89 5.89 0 1 0 6.83-.132z"/></g><g><path fill="#263238" d="M207.803 235.047a1.87 1.87 0 1 1 1.883-1.81 1.883 1.883 0 0 1-1.883 1.81zm.085-5.6a3.729 3.729 0 1 0-.096 7.457 3.729 3.729 0 0 0 .096-7.457z"/></g><g transform="rotate(-74.33 275.5 140.5)"><path fill="#396ab3" d="M258.571 140.09c0-9.41 7.63-17.04 17.04-17.04 9.411 0 17.04 7.63 17.04 17.04 0 9.412-7.629 17.04-17.04 17.04-9.41 0-17.04-7.628-17.04-17.04z"/></g><g><path fill="#263238" d="M279.535 145.96a2.172 2.172 0 1 1 2.667-2.099 2.414 2.414 0 0 1-2.655 2.1zm2.414-12.333l-10.861-.084v-2.655l10.861.097zm-15.025 12.261a2.172 2.172 0 1 1 2.655-2.087 2.414 2.414 0 0 1-2.655 2.087zm16.775-3.415v-11.452a1.822 1.822 0 0 0-1.81-1.823h-10.777c-.997 0-1.81.802-1.822 1.799V140.566a4.827 4.827 0 0 0-2.342-.615 3.922 3.922 0 1 0 4.417 3.91 3.62 3.62 0 0 0-.301-1.4v-7.023l10.776.06v5.14a4.996 4.996 0 0 0-2.34-.615 3.922 3.922 0 1 0 4.404 3.923c.04-.5-.03-1.003-.205-1.473z"/></g><g><path fill="#396ab3" d="M366.775 204.635s5.792 2.57 8.049 8.038c2.257 5.466 21.553 55.017 22.193 58.88.64 3.86-20.588 38.617-20.588 38.617l-6.118-5.793 6.758-28.311-8.69-20.914-4.826-6.758"/><path fill="none" stroke="#263238" stroke-linejoin="round" stroke-miterlimit="20" d="M366.775 204.635v0s5.792 2.57 8.049 8.038c2.257 5.466 21.553 55.017 22.193 58.88.64 3.86-20.588 38.617-20.588 38.617v0l-6.118-5.793v0l6.758-28.311v0l-8.69-20.914v0l-4.826-6.758v0"/></g><g><path fill="#fff" d="M391.912 283.403c-8.097-3.838-14.312-1.834-16.352-.941l-5.237 21.903 6.118 5.793s9.353-15.375 15.471-26.755z"/><path fill="none" stroke="#263238" stroke-linejoin="round" stroke-miterlimit="20" d="M391.912 283.403c-8.097-3.838-14.312-1.834-16.352-.941l-5.237 21.903v0l6.118 5.793v0s9.353-15.375 15.471-26.755z"/></g><g><path fill="#263238" d="M367.776 304.268s8.448 16.787 7.398 23.207c-1.05 6.42-3.934 141.763-3.934 141.763l-18.56.712-17.487-133.545-5.008.712-8.207 134.257-20.708-3.21-6.432-131.397-1.075-29.288z"/><path fill="none" stroke="#263238" stroke-linejoin="round" stroke-miterlimit="20" d="M367.776 304.268v0s8.448 16.787 7.398 23.207c-1.05 6.42-3.934 141.763-3.934 141.763v0l-18.56.712v0l-17.487-133.545v0l-5.008.712v0l-8.207 134.257v0l-20.708-3.21v0l-6.432-131.397v0l-1.075-29.288v0z"/></g><g><path fill="#5e5e5e" d="M299.834 409.96a5.853 5.853 0 0 0 2.486-1.026c.929-.797.796-.797 2.908 1.315s1.581 3.03 3.295 1.714c1.713-1.315 1.315-1.846 3.029.133 1.713 1.979 1.327 2.643 3.693 2.244 2.365-.398 2.775-1.062 2.775.918 0 1.979-.398 2.51.652 2.908a6.952 6.952 0 0 1 3.174 2.112c.784 1.05 1.206.519 1.58 1.713a4.465 4.465 0 0 0 1.207 1.847z"/><path fill="none" stroke="#263238" stroke-linejoin="round" stroke-miterlimit="20" d="M299.834 409.96a5.853 5.853 0 0 0 2.486-1.026c.929-.797.796-.797 2.908 1.315s1.581 3.03 3.295 1.714c1.713-1.315 1.315-1.846 3.029.133 1.713 1.979 1.327 2.643 3.693 2.244 2.365-.398 2.775-1.062 2.775.918 0 1.979-.398 2.51.652 2.908a6.952 6.952 0 0 1 3.174 2.112c.784 1.05 1.206.519 1.58 1.713a4.465 4.465 0 0 0 1.207 1.847z"/></g><g><path fill="#5e5e5e" d="M299.942 410.382a12.816 12.816 0 0 1 1.98 4.743c.398 2.51-.387 4.49.929 5.672 1.315 1.182 2.112.663 2.413 1.713.302 1.05-.398 2.112.266 2.51.663.399 3.294-1.315 3.294-.53 0 .784-.265 1.206.785.796 1.05-.41 1.062-1.714 1.713-.398.652 1.315 1.207 3.029 1.593 2.775a8.568 8.568 0 0 1 4.08-1.593c.869-.052 1.736.131 2.51.531.398.133 1.05.797 1.448.133.398-.664 3.922-2.486 3.922-2.486z"/><path fill="none" stroke="#263238" stroke-linejoin="round" stroke-miterlimit="20" d="M299.942 410.382a12.816 12.816 0 0 1 1.98 4.743c.398 2.51-.387 4.49.929 5.672 1.315 1.182 2.112.663 2.413 1.713.302 1.05-.398 2.112.266 2.51.663.399 3.294-1.315 3.294-.53 0 .784-.265 1.206.785.796 1.05-.41 1.062-1.714 1.713-.398.652 1.315 1.207 3.029 1.593 2.775a8.568 8.568 0 0 1 4.08-1.593c.869-.052 1.736.131 2.51.531.398.133 1.05.797 1.448.133.398-.664 3.922-2.486 3.922-2.486v0z"/></g><g><path fill="#fff" d="M299.834 409.96l25.005 14.288"/><path fill="none" stroke="#263238" stroke-linejoin="round" stroke-miterlimit="20" d="M299.834 409.96l25.005 14.288"/></g><g><path fill="#5e5e5e" d="M346.706 389.3a5.733 5.733 0 0 0 .18-2.68c-.301-1.207-.361-1.062 2.475-2.015 2.836-.954 3.415-.06 2.992-2.184-.422-2.124-1.062-2.004 1.473-2.655 2.534-.652 2.944 0 3.62-2.317.676-2.318.278-2.945 2.052-2.064 1.774.88 2.075 1.46 2.896.7a7.072 7.072 0 0 1 3.295-1.907c1.303-.23 1.001-.82 2.244-.652a4.489 4.489 0 0 0 2.185-.24z"/><path fill="none" stroke="#263238" stroke-linejoin="round" stroke-miterlimit="20" d="M346.706 389.3a5.733 5.733 0 0 0 .18-2.68c-.301-1.207-.361-1.062 2.475-2.015 2.836-.954 3.415-.06 2.992-2.184-.422-2.124-1.062-2.004 1.473-2.655 2.534-.652 2.944 0 3.62-2.317.676-2.318.278-2.945 2.052-2.064 1.774.88 2.075 1.46 2.896.7a7.072 7.072 0 0 1 3.295-1.907c1.303-.23 1.001-.82 2.244-.652a4.489 4.489 0 0 0 2.185-.24z"/></g><g><path fill="#5e5e5e" d="M347.128 389.396a12.937 12.937 0 0 1 5.129.338c2.414.76 3.85 2.353 5.49 1.69 1.642-.664 1.533-1.594 2.595-1.364 1.062.229 1.714 1.303 2.414.88.7-.422.278-3.535.99-3.185.712.35.953.76 1.062-.362.108-1.123-1.062-1.702.41-1.702s3.246.278 3.186-.193a8.713 8.713 0 0 1 .398-4.369 4.646 4.646 0 0 1 1.593-2.003c.29-.302 1.207-.591.76-1.207-.446-.615-.494-4.61-.494-4.61z"/><path fill="none" stroke="#263238" stroke-linejoin="round" stroke-miterlimit="20" d="M347.128 389.396a12.937 12.937 0 0 1 5.129.338c2.414.76 3.85 2.353 5.49 1.69 1.642-.664 1.533-1.594 2.595-1.364 1.062.229 1.714 1.303 2.414.88.7-.422.278-3.535.99-3.185.712.35.953.76 1.062-.362.108-1.123-1.062-1.702.41-1.702s3.246.278 3.186-.193a8.713 8.713 0 0 1 .398-4.369 4.646 4.646 0 0 1 1.593-2.003c.29-.302 1.207-.591.76-1.207-.446-.615-.494-4.61-.494-4.61v0z"/></g><g><path fill="#fff" d="M346.706 389.3l23.906-16.075"/><path fill="none" stroke="#263238" stroke-linejoin="round" stroke-miterlimit="20" d="M346.706 389.3l23.906-16.075"/></g><g><path fill="#fff" d="M301.982 466.015s-5.358 1.786-5.358 3.935c0 2.148 2.498 19.996 2.498 19.996s-12.14 6.782-13.203 8.568c-1.062 1.787-.362 10.355-.362 10.355h36.421s1.075-8.93 1.075-12.14a73.757 73.757 0 0 0-1.075-9.28l2.136-18.211s-10.354-7.857-22.132-3.223z"/><path fill="none" stroke="#263238" stroke-linejoin="round" stroke-miterlimit="20" d="M301.982 466.015s-5.358 1.786-5.358 3.935c0 2.148 2.498 19.996 2.498 19.996v0s-12.14 6.782-13.203 8.568c-1.062 1.787-.362 10.355-.362 10.355v0h36.421v0s1.075-8.93 1.075-12.14a73.757 73.757 0 0 0-1.075-9.28l2.136-18.211v0s-10.354-7.857-22.132-3.223z"/></g><g><path fill="#fff" d="M285.557 508.869h36.421s.23-1.92.471-4.284H285.34a77.51 77.51 0 0 0 .217 4.284z"/><path fill="none" stroke="#263238" stroke-linejoin="round" stroke-miterlimit="20" d="M285.557 508.869v0h36.421v0s.23-1.92.471-4.284H285.34a77.51 77.51 0 0 0 .217 4.284z"/></g><g><path fill="#fff" d="M316.982 464.591a16.062 16.062 0 0 0-10.354-4.284c-6.034 0-8.568 3.62-8.568 3.62l3.62 17.85h9.654z"/><path fill="none" stroke="#263238" stroke-linejoin="round" stroke-miterlimit="20" d="M316.982 464.591a16.062 16.062 0 0 0-10.354-4.284c-6.034 0-8.568 3.62-8.568 3.62v0l3.62 17.85v0h9.654v0z"/></g><g><path fill="#fff" d="M312.686 483.381h-12.31a1.014 1.014 0 0 1-1.013-1.002 1.026 1.026 0 0 1 1.014-1.013h12.309a1.014 1.014 0 0 1 1.002 1.013c0 .554-.449 1.002-1.002 1.002z"/><path fill="none" stroke="#263238" stroke-linejoin="round" stroke-miterlimit="20" d="M312.686 483.381h-12.31a1.014 1.014 0 0 1-1.013-1.002v0a1.026 1.026 0 0 1 1.014-1.013h12.309a1.014 1.014 0 0 1 1.002 1.013v0c0 .554-.449 1.002-1.002 1.002z"/></g><g><path fill="#fff" d="M312.686 485.843h-12.31a1.014 1.014 0 0 1-1.013-1.002 1.026 1.026 0 0 1 1.014-1.013h12.309a1.014 1.014 0 0 1 1.002 1.013c0 .554-.449 1.002-1.002 1.002z"/><path fill="none" stroke="#263238" stroke-linejoin="round" stroke-miterlimit="20" d="M312.686 485.843v0h-12.31a1.014 1.014 0 0 1-1.013-1.002v0a1.026 1.026 0 0 1 1.014-1.013h12.309a1.014 1.014 0 0 1 1.002 1.013v0c0 .554-.449 1.002-1.002 1.002z"/></g><g><path fill="#fff" d="M312.686 488.305h-12.31a1.014 1.014 0 0 1-1.013-1.002 1.026 1.026 0 0 1 1.014-1.013h12.309a1.014 1.014 0 0 1 1.002 1.013c0 .553-.449 1.002-1.002 1.002z"/><path fill="none" stroke="#263238" stroke-linejoin="round" stroke-miterlimit="20" d="M312.686 488.305h-12.31a1.014 1.014 0 0 1-1.013-1.002v0a1.026 1.026 0 0 1 1.014-1.013h12.309a1.014 1.014 0 0 1 1.002 1.013v0c0 .553-.449 1.002-1.002 1.002z"/></g><g><path fill="#fff" d="M312.686 490.767h-12.31a1.014 1.014 0 0 1-1.013-1.002 1.026 1.026 0 0 1 1.014-1.014h12.309a1.014 1.014 0 0 1 1.002 1.014c0 .553-.449 1.002-1.002 1.002z"/><path fill="none" stroke="#263238" stroke-linejoin="round" stroke-miterlimit="20" d="M312.686 490.767v0h-12.31a1.014 1.014 0 0 1-1.013-1.002v0a1.026 1.026 0 0 1 1.014-1.014h12.309a1.014 1.014 0 0 1 1.002 1.014v0c0 .553-.449 1.002-1.002 1.002z"/></g><g><path fill="#fff" d="M372.097 466.015s5.346 1.786 5.346 3.935c0 2.148-2.498 19.996-2.498 19.996s12.14 6.782 13.214 8.568c1.074 1.787.362 10.355.362 10.355h-36.433s-1.074-8.93-1.074-12.14a73.75 73.75 0 0 1 1.074-9.28l-2.148-18.211s10.366-7.857 22.157-3.223z"/><path fill="none" stroke="#263238" stroke-linejoin="round" stroke-miterlimit="20" d="M372.097 466.015s5.346 1.786 5.346 3.935c0 2.148-2.498 19.996-2.498 19.996v0s12.14 6.782 13.214 8.568c1.074 1.787.362 10.355.362 10.355v0h-36.433v0s-1.074-8.93-1.074-12.14a73.75 73.75 0 0 1 1.074-9.28l-2.148-18.211v0s10.366-7.857 22.157-3.223z"/></g><g><path fill="#fff" d="M388.521 508.869h-36.433s-.23-1.92-.483-4.284h37.121c-.048 2.268-.205 4.284-.205 4.284z"/><path fill="none" stroke="#263238" stroke-linejoin="round" stroke-miterlimit="20" d="M388.521 508.869v0h-36.433v0s-.23-1.92-.483-4.284h37.121c-.048 2.268-.205 4.284-.205 4.284v0z"/></g><g><path fill="#fff" d="M357.096 464.591a16.062 16.062 0 0 1 10.354-4.284c6.034 0 8.569 3.62 8.569 3.62l-3.62 17.85h-9.655z"/><path fill="none" stroke="#263238" stroke-linejoin="round" stroke-miterlimit="20" d="M357.096 464.591a16.062 16.062 0 0 1 10.354-4.284c6.034 0 8.569 3.62 8.569 3.62v0l-3.62 17.85v0h-9.655v0z"/></g><g><path fill="#fff" d="M373.557 483.381h-12.31a1.014 1.014 0 0 1-1.013-1.002 1.026 1.026 0 0 1 1.014-1.013h12.309a1.014 1.014 0 0 1 1.001 1.013c0 .554-.448 1.002-1.001 1.002z"/><path fill="none" stroke="#263238" stroke-linejoin="round" stroke-miterlimit="20" d="M373.557 483.381h-12.31a1.014 1.014 0 0 1-1.013-1.002v0a1.026 1.026 0 0 1 1.014-1.013h12.309a1.014 1.014 0 0 1 1.001 1.013h0c0 .554-.448 1.002-1.001 1.002z"/></g><g><path fill="#fff" d="M373.557 485.843h-12.31a1.014 1.014 0 0 1-1.013-1.002 1.026 1.026 0 0 1 1.014-1.013h12.309a1.014 1.014 0 0 1 1.001 1.013c0 .554-.448 1.002-1.001 1.002z"/><path fill="none" stroke="#263238" stroke-linejoin="round" stroke-miterlimit="20" d="M373.557 485.843v0h-12.31a1.014 1.014 0 0 1-1.013-1.002v0a1.026 1.026 0 0 1 1.014-1.013h12.309a1.014 1.014 0 0 1 1.001 1.013h0c0 .554-.448 1.002-1.001 1.002z"/></g><g><path fill="#fff" d="M373.557 488.305h-12.31a1.014 1.014 0 0 1-1.013-1.002 1.026 1.026 0 0 1 1.014-1.013h12.309a1.014 1.014 0 0 1 1.001 1.013c0 .553-.448 1.002-1.001 1.002z"/><path fill="none" stroke="#263238" stroke-linejoin="round" stroke-miterlimit="20" d="M373.557 488.305h-12.31a1.014 1.014 0 0 1-1.013-1.002v0a1.026 1.026 0 0 1 1.014-1.013h12.309a1.014 1.014 0 0 1 1.001 1.013h0c0 .553-.448 1.002-1.001 1.002z"/></g><g><path fill="#fff" d="M373.557 490.767h-12.31a1.014 1.014 0 0 1-1.013-1.002 1.026 1.026 0 0 1 1.014-1.014h12.309a1.014 1.014 0 0 1 1.001 1.014c0 .553-.448 1.002-1.001 1.002z"/><path fill="none" stroke="#263238" stroke-linejoin="round" stroke-miterlimit="20" d="M373.557 490.767v0h-12.31a1.014 1.014 0 0 1-1.013-1.002v0a1.026 1.026 0 0 1 1.014-1.014h12.309a1.014 1.014 0 0 1 1.001 1.014h0c0 .553-.448 1.002-1.001 1.002z"/></g><g><path fill="#396ab3" d="M320.603 171.123s-.93 16.376-1.207 18.874c-.278 2.498-9.377 7.24-17.185 10.933-7.808 3.693-14.373 5.31-14.06 8.75.315 3.44 4.997 131.54 4.997 131.54s10.62-.313 26.248-6.239c15.628-5.925 24.98-13.431 32.788-19.996a64.249 64.249 0 0 1 15.628-9.655s1.207-60.605 1.207-71.2c0-10.596 2.185-21.554 1.57-25.923-.616-4.368-19.37-9.654-24.052-11.874l-4.695-2.185s0-6.034 1.883-9.823l1.87-3.741-24.051-10.62z"/><path fill="none" stroke="#263238" stroke-linejoin="round" stroke-miterlimit="20" d="M320.603 171.123v0s-.93 16.376-1.207 18.874c-.278 2.498-9.377 7.24-17.185 10.933-7.808 3.693-14.373 5.31-14.06 8.75.315 3.44 4.997 131.54 4.997 131.54v0s10.62-.313 26.248-6.239c15.628-5.925 24.98-13.431 32.788-19.996a64.249 64.249 0 0 1 15.628-9.655s1.207-60.605 1.207-71.2c0-10.596 2.185-21.554 1.57-25.923-.616-4.368-19.37-9.654-24.052-11.874l-4.695-2.185v0s0-6.034 1.883-9.823l1.87-3.741v0l-24.051-10.62v0z"/></g><g><path fill="#fff" d="M352.148 314.949a64.25 64.25 0 0 1 15.628-9.655v-1.001c-4.754.229-9.316 2.667-29.325 9.425a226.297 226.297 0 0 1-45.99 9.823c.385 10.716.639 17.668.639 17.668s10.62-.314 26.248-6.24c15.628-5.925 24.992-13.455 32.8-20.02z"/><path fill="none" stroke="#263238" stroke-linejoin="round" stroke-miterlimit="20" d="M352.148 314.949a64.25 64.25 0 0 1 15.628-9.655v-1.001c-4.754.229-9.316 2.667-29.325 9.425a226.297 226.297 0 0 1-45.99 9.823c.385 10.716.639 17.668.639 17.668v0s10.62-.314 26.248-6.24c15.628-5.925 24.992-13.455 32.8-20.02z"/></g><g><path fill="none" stroke="#263238" stroke-linejoin="round" stroke-miterlimit="20" d="M292.134 314.659s55.658-7.724 75.606-14.156"/></g><g><path fill="#fff" d="M346.537 196.248l-4.695-2.184s0-6.034 1.883-9.824l1.87-3.74-24.051-10.62-.941 1.206s-.93 16.377-1.207 18.875c-.205 1.629-4.14 4.2-9.015 6.818 3.017 3.343 10.97 11.223 20.25 13.178 7.482 1.57 13.975-6.528 17.824-12.96a15.282 15.282 0 0 1-1.918-.749z"/><path fill="none" stroke="#263238" stroke-linejoin="round" stroke-miterlimit="20" d="M346.537 196.248l-4.695-2.184v0s0-6.034 1.883-9.824l1.87-3.74v0l-24.051-10.62v0l-.941 1.206v0s-.93 16.377-1.207 18.875c-.205 1.629-4.14 4.2-9.015 6.818 3.017 3.343 10.97 11.223 20.25 13.178 7.482 1.57 13.975-6.528 17.824-12.96a15.282 15.282 0 0 1-1.918-.749z"/></g><g><path fill="#263238" d="M334.082 224.439l.266-2.546a48.756 48.756 0 0 0 0-9.751l-.266-2.535s-5.9-.301-7.711 2.414c-1.81 2.715-.917 7.82-.459 9.389.76 2.57 8.17 3.029 8.17 3.029z"/><path fill="none" stroke="#263238" stroke-linejoin="round" stroke-miterlimit="20" d="M334.082 224.439v0l.266-2.546a48.756 48.756 0 0 0 0-9.751l-.266-2.535v0s-5.9-.301-7.711 2.414c-1.81 2.715-.917 7.82-.459 9.389.76 2.57 8.17 3.029 8.17 3.029v0z"/></g><g><path fill="#263238" d="M334.082 242.444l.266-2.534a48.756 48.756 0 0 0 0-9.75l-.266-2.547s-5.9-.302-7.711 2.413c-1.81 2.716-.917 7.808-.459 9.39.76 2.582 8.17 3.028 8.17 3.028z"/><path fill="none" stroke="#263238" stroke-linejoin="round" stroke-miterlimit="20" d="M334.082 242.444v0l.266-2.534a48.756 48.756 0 0 0 0-9.75l-.266-2.547v0s-5.9-.302-7.711 2.413c-1.81 2.716-.917 7.808-.459 9.39.76 2.582 8.17 3.028 8.17 3.028v0z"/></g><g><path fill="none" stroke="#263238" stroke-linejoin="round" stroke-miterlimit="20" d="M334.083 224.439v3.174"/></g><g><path fill="none" stroke="#263238" stroke-linejoin="round" stroke-miterlimit="20" d="M332.272 224.439v2.872"/></g><g><path fill="#263238" d="M343.725 184.24l1.87-3.74-24.051-10.62-.941 1.206 2.051 3.62s6.3 11.67 19.707 15.062c.173-1.901.633-3.764 1.364-5.528z"/><path fill="none" stroke="#263238" stroke-linejoin="round" stroke-miterlimit="20" d="M343.725 184.24v0l1.87-3.74v0l-24.051-10.62v0l-.941 1.206v0l2.051 3.62v0s6.3 11.67 19.707 15.062c.173-1.901.633-3.764 1.364-5.528z"/></g><g><path fill="#fff" d="M347.78 144.573s3.753 8.75 3.753 9.992a4.827 4.827 0 0 1-.941 2.498s5.623 5.31 5.31 6.565c-.314 1.255-3.126 2.812-3.126 2.812s2.184 11.561 2.184 13.118c0 1.557-4.368 5.31-13.118 4.369a25.886 25.886 0 0 1-14.36-6.553s-8.122-8.75-8.448-14.06c-.326-5.31 5.95-20.587 13.745-22.808 7.796-2.22 15 4.067 15 4.067z"/><path fill="none" stroke="#263238" stroke-linejoin="round" stroke-miterlimit="20" d="M347.78 144.573v0s3.753 8.75 3.753 9.992a4.827 4.827 0 0 1-.941 2.498s5.623 5.31 5.31 6.565c-.314 1.255-3.126 2.812-3.126 2.812v0s2.184 11.561 2.184 13.118c0 1.557-4.368 5.31-13.118 4.369a25.886 25.886 0 0 1-14.36-6.553s-8.122-8.75-8.448-14.06c-.326-5.31 5.95-20.587 13.745-22.808 7.796-2.22 15 4.067 15 4.067v0z"/></g><g><path fill="#263238" d="M346.537 158.162c0 1.122-.495 2.027-1.099 2.027-.603 0-1.098-.905-1.098-2.027 0-1.123.495-2.028 1.098-2.028.604 0 1.099.905 1.099 2.028z"/></g><g><path fill="none" stroke="#263238" stroke-linejoin="round" stroke-miterlimit="20" d="M341.842 155.507s3.126-4.067 6.879-1.87"/></g><g><path fill="none" stroke="#263238" stroke-linejoin="round" stroke-miterlimit="20" d="M341.227 167.683s1.87 3.126 8.447 1.883"/></g><g><path fill="#263238" d="M318.732 143.632s-9.992 3.753-10.933 9.654c-.942 5.901 7.494 14.06 8.749 15.302 1.255 1.243 8.447 1.207 10.306-1.206 1.858-2.414-.941-6.565.93-8.122 1.87-1.557 4.38-.942 5.007-5.624.628-4.682-1.569-6.565 1.557-8.122 3.126-1.556 7.18 1.87 13.432-.94 6.25-2.813 4.368-13.746-2.498-17.801-6.867-4.055-17.8 1.557-18.102 3.74-.302 2.185 1.87 4.997 0 5.31-1.87.315-5.938-.928-6.565 2.185a25.244 25.244 0 0 1-1.883 5.624z"/><path fill="none" stroke="#263238" stroke-linejoin="round" stroke-miterlimit="20" d="M318.732 143.632v0s-9.992 3.753-10.933 9.654c-.942 5.901 7.494 14.06 8.749 15.302 1.255 1.243 8.447 1.207 10.306-1.206 1.858-2.414-.941-6.565.93-8.122 1.87-1.557 4.38-.942 5.007-5.624.628-4.682-1.569-6.565 1.557-8.122 3.126-1.556 7.18 1.87 13.432-.94 6.25-2.813 4.368-13.746-2.498-17.801-6.867-4.055-17.8 1.557-18.102 3.74-.302 2.185 1.87 4.997 0 5.31-1.87.315-5.938-.928-6.565 2.185a25.244 25.244 0 0 1-1.883 5.624z"/></g><g><path fill="#fff" d="M327.168 169.566s-3.44-6.879-8.122-6.251c-4.683.627-3.44 10.933 0 13.118 3.44 2.184 8.122-2.185 8.122-2.185"/><path fill="none" stroke="#263238" stroke-linejoin="round" stroke-miterlimit="20" d="M327.168 169.566v0s-3.44-6.879-8.122-6.251c-4.683.627-3.44 10.933 0 13.118 3.44 2.184 8.122-2.185 8.122-2.185v0"/></g><g><path fill="#396ab3" d="M292.014 205.625s-9.063 3.741-10.62 8.737c-1.557 4.996-20.938 50.613-22.809 54.306-1.87 3.693.314 10.306 3.754 11.561 3.439 1.255 5.31 0 8.737-2.498 3.427-2.498 20.938-31.86 20.938-31.86"/><path fill="none" stroke="#263238" stroke-linejoin="round" stroke-miterlimit="20" d="M292.014 205.625v0s-9.063 3.741-10.62 8.737c-1.557 4.996-20.938 50.613-22.809 54.306-1.87 3.693.314 10.306 3.754 11.561 3.439 1.255 5.31 0 8.737-2.498 3.427-2.498 20.938-31.86 20.938-31.86v0"/></g><g transform="rotate(-1 275.5 223.5)"><path fill="#263238" d="M269.782 206.303h11.006a2.257 2.257 0 0 1 2.256 2.257v30.025a2.257 2.257 0 0 1-2.256 2.257h-11.006a2.269 2.269 0 0 1-2.269-2.27V208.56a2.269 2.269 0 0 1 2.269-2.27z"/><path fill="none" stroke="#263238" stroke-linejoin="round" stroke-miterlimit="20" d="M269.782 206.303v0h11.006a2.257 2.257 0 0 1 2.256 2.257v30.025a2.257 2.257 0 0 1-2.256 2.257h-11.006a2.269 2.269 0 0 1-2.269-2.27V208.56a2.269 2.269 0 0 1 2.269-2.27z"/></g><g><path fill="#fff" d="M264.704 247.875s-.085-18.042-.217-20.588c-.133-2.546 2.944-5.165 4.827-6.432 1.882-1.267 9.883-4.96 10.86-4.526.978.435.653 2.004-.65 2.933-1.304.929-7.048 4.127-8.135 5.008-1.086.88-1.001 4.308-1.001 4.308s6.613-3.174 8.58-4.03c1.967-.857 4.127-1.774 4.924-1.087a1.81 1.81 0 0 1 .398 1.847c.501.623.751 1.41.7 2.208-.18 1.123-4.827 5.576-6.251 6.746a40.061 40.061 0 0 0-3.041 2.824s8.773-2.148 9.389-2.28c.615-.133 1.34 1.206-.362 2.232a69.423 69.423 0 0 1-8.146 3.077 28.434 28.434 0 0 1-1.859 6.215 9.437 9.437 0 0 1-3.861 4.936s3.704 19.816 1.013 25.138c-2.69 5.321-11.114 9.11-14.481 2.546-3.367-6.565-1.267-14.566 2.075-18.947 3.343-4.38 5.238-12.128 5.238-12.128z"/><path fill="none" stroke="#263238" stroke-linejoin="round" stroke-miterlimit="20" d="M264.704 247.875v0s-.085-18.042-.217-20.588c-.133-2.546 2.944-5.165 4.827-6.432 1.882-1.267 9.883-4.96 10.86-4.526.978.435.653 2.004-.65 2.933-1.304.929-7.048 4.127-8.135 5.008-1.086.88-1.001 4.308-1.001 4.308v0s6.613-3.174 8.58-4.03c1.967-.857 4.127-1.774 4.924-1.087a1.81 1.81 0 0 1 .398 1.847c.501.623.751 1.41.7 2.208-.18 1.123-4.827 5.576-6.251 6.746a40.061 40.061 0 0 0-3.041 2.824s8.773-2.148 9.389-2.28c.615-.133 1.34 1.206-.362 2.232a69.423 69.423 0 0 1-8.146 3.077 28.434 28.434 0 0 1-1.859 6.215 9.437 9.437 0 0 1-3.861 4.936s3.704 19.816 1.013 25.138c-2.69 5.321-11.114 9.11-14.481 2.546-3.367-6.565-1.267-14.566 2.075-18.947 3.343-4.38 5.238-12.128 5.238-12.128v0z"/></g><g><path fill="#396ab3" d="M272.62 265.011c-7.397 3.174-12.285.109-14.795-2.413-2.305 4.537-3.282 10.933-.483 16.376 3.38 6.565 11.79 2.776 14.482-2.546 1.11-2.16 1.146-6.758.796-11.417z"/><path fill="none" stroke="#263238" stroke-linejoin="round" stroke-miterlimit="20" d="M272.62 265.011c-7.397 3.174-12.285.109-14.795-2.413-2.305 4.537-3.282 10.933-.483 16.376 3.38 6.565 11.79 2.776 14.482-2.546 1.11-2.16 1.146-6.758.796-11.417z"/></g><g><path fill="none" stroke="#263238" stroke-linejoin="round" stroke-miterlimit="20" d="M284.254 225.308l-12.08 7.603"/></g><g><path fill="none" stroke="#263238" stroke-linejoin="round" stroke-miterlimit="20" d="M284.254 225.308l-12.08 7.603"/></g><g><path fill="#fff" d="M373.134 299.477l-10.064 2.137c-1.074.217-8.351 7.06-9.208 8.35-.857 1.292 1.496 2.137 2.57 2.137 1.074 0 6.843-4.272 6.843-4.272l-1.533 3.85 11.561 10.064s3.102-5.563 4.598-9.208a42.634 42.634 0 0 0 2.136-9.208"/><path fill="none" stroke="#263238" stroke-linejoin="round" stroke-miterlimit="20" d="M373.134 299.477v0l-10.064 2.137c-1.074.217-8.351 7.06-9.208 8.35-.857 1.292 1.496 2.137 2.57 2.137 1.074 0 6.843-4.272 6.843-4.272v0l-1.533 3.85v0l11.561 10.064v0s3.102-5.563 4.598-9.208a42.634 42.634 0 0 0 2.136-9.208"/></g></g></g></g></svg>