<svg xmlns="http://www.w3.org/2000/svg" width="719" height="432" viewBox="0 0 719 432"><defs><linearGradient id="190ga" x1="227.76" x2="451.78" y1="375.94" y2="374.1" gradientUnits="userSpaceOnUse"><stop offset="0" stop-color="#eaf9ff"/><stop offset="1" stop-color="#f6f5ff"/></linearGradient><linearGradient id="190gb" x1="315.67" x2="351.09" y1="207.07" y2="207.07" gradientUnits="userSpaceOnUse"><stop offset="0" stop-color="#eaf9ff"/><stop offset="1" stop-color="#f6f5ff"/></linearGradient><linearGradient id="190gc" x1="263.78" x2="299.2" y1="207.07" y2="207.07" gradientUnits="userSpaceOnUse"><stop offset="0" stop-color="#eaf9ff"/><stop offset="1" stop-color="#f6f5ff"/></linearGradient><linearGradient id="190gd" x1="263.78" x2="299.2" y1="239.54" y2="239.54" gradientUnits="userSpaceOnUse"><stop offset="0" stop-color="#eaf9ff"/><stop offset="1" stop-color="#f6f5ff"/></linearGradient><linearGradient id="190ge" x1="263.78" x2="299.2" y1="272.02" y2="272.02" gradientUnits="userSpaceOnUse"><stop offset="0" stop-color="#eaf9ff"/><stop offset="1" stop-color="#f6f5ff"/></linearGradient><linearGradient id="190gf" x1="370.43" x2="405.85" y1="207.07" y2="207.07" gradientUnits="userSpaceOnUse"><stop offset="0" stop-color="#eaf9ff"/><stop offset="1" stop-color="#f6f5ff"/></linearGradient><linearGradient id="190gg" x1="370.43" x2="405.85" y1="239.54" y2="239.54" gradientUnits="userSpaceOnUse"><stop offset="0" stop-color="#eaf9ff"/><stop offset="1" stop-color="#f6f5ff"/></linearGradient><linearGradient id="190gh" x1="370.43" x2="405.85" y1="272.02" y2="272.02" gradientUnits="userSpaceOnUse"><stop offset="0" stop-color="#eaf9ff"/><stop offset="1" stop-color="#f6f5ff"/></linearGradient><linearGradient id="190gi" x1="315.67" x2="351.09" y1="239.54" y2="239.54" gradientUnits="userSpaceOnUse"><stop offset="0" stop-color="#eaf9ff"/><stop offset="1" stop-color="#f6f5ff"/></linearGradient><linearGradient id="190gj" x1="315.67" x2="351.09" y1="272.02" y2="272.02" gradientUnits="userSpaceOnUse"><stop offset="0" stop-color="#eaf9ff"/><stop offset="1" stop-color="#f6f5ff"/></linearGradient><linearGradient id="190gk" x1="315.67" x2="351.09" y1="304.49" y2="304.49" gradientUnits="userSpaceOnUse"><stop offset="0" stop-color="#eaf9ff"/><stop offset="1" stop-color="#f6f5ff"/></linearGradient><linearGradient id="190gl" x1="462.81" x2="463.24" y1="403.29" y2="403.29" gradientUnits="userSpaceOnUse"><stop offset="0" stop-color="#f5f5f5"/><stop offset=".41" stop-color="#ddd"/><stop offset="1" stop-color="#b3b3b3"/></linearGradient><linearGradient id="190gm" x1="64.01" x2="69.51" y1="205.6" y2="205.6" gradientUnits="userSpaceOnUse"><stop offset="0" stop-color="#77d8fc"/><stop offset=".43" stop-color="#74c0e9"/><stop offset="1" stop-color="#719acd"/></linearGradient><linearGradient id="190gn" x1="337.46" x2="331.34" y1="106.9" y2="102.59" gradientUnits="userSpaceOnUse"><stop offset="0" stop-color="#e3cbba"/><stop offset=".25" stop-color="#dbbaa1"/><stop offset=".78" stop-color="#c78e64"/><stop offset="1" stop-color="#bf7c4a"/></linearGradient><linearGradient id="190go" x1="331.51" x2="339.35" y1="111.34" y2="111.34" gradientUnits="userSpaceOnUse"><stop offset="0" stop-color="#f7f7f7"/><stop offset="1" stop-color="#fff"/></linearGradient><linearGradient id="190gp" x1="338.35" x2="341.58" y1="115.22" y2="115.22" gradientUnits="userSpaceOnUse"><stop offset="0" stop-color="#f7f7f7"/><stop offset="1" stop-color="#fff"/></linearGradient><linearGradient id="190gq" x1="-43.55" x2="-43.54" y1="105.62" y2="105.62" gradientUnits="userSpaceOnUse"><stop offset="0" stop-color="#77d8fc"/><stop offset=".43" stop-color="#74c0e9"/><stop offset="1" stop-color="#719acd"/></linearGradient><linearGradient id="190gr" x1="90.05" x2="97.25" y1="129.65" y2="129.65" gradientUnits="userSpaceOnUse"><stop offset="0" stop-color="#ffecdc"/><stop offset=".24" stop-color="#f6dac3"/><stop offset=".74" stop-color="#dfac86"/><stop offset="1" stop-color="#d39364"/></linearGradient><linearGradient id="190gs" x1="104.52" x2="108.95" y1="120.98" y2="120.98" gradientUnits="userSpaceOnUse"><stop offset="0" stop-color="#ffecdc"/><stop offset=".24" stop-color="#f6dac3"/><stop offset=".74" stop-color="#dfac86"/><stop offset="1" stop-color="#d39364"/></linearGradient><linearGradient id="190gt" x1="329" x2="350.09" y1="94.29" y2="94.29" gradientUnits="userSpaceOnUse"><stop offset="0" stop-color="gray"/><stop offset=".64" stop-color="#51514c"/><stop offset="1" stop-color="#3c3c35"/></linearGradient><linearGradient id="190gu" x1="330.08" x2="343.42" y1="98.01" y2="98.01" gradientUnits="userSpaceOnUse"><stop offset="0" stop-color="#ffecdc"/><stop offset=".24" stop-color="#f6dac3"/><stop offset=".74" stop-color="#dfac86"/><stop offset="1" stop-color="#d39364"/></linearGradient><linearGradient id="190gv" x1="340.11" x2="354.39" y1="134.77" y2="134.77" gradientUnits="userSpaceOnUse"><stop offset="0" stop-color="#f7f7f7"/><stop offset="1" stop-color="#fff"/></linearGradient><linearGradient id="190gw" x1="504.82" x2="487.37" y1="426.46" y2="346.6" gradientUnits="userSpaceOnUse"><stop offset="0" stop-color="#30944c"/><stop offset=".41" stop-color="#8aba62"/><stop offset=".82" stop-color="#dede76"/><stop offset="1" stop-color="#ffed7f"/></linearGradient></defs><g><g opacity=".2"><path fill="#9ec5fd" d="M297.716 74.53c46.025-.384 89.696-12.543 131.368-25.982 41.672-13.438 82.933-28.43 127.766-35.043 28.84-4.257 61.886-4.22 85.363 9.992 22.597 13.668 30.155 36.569 34.313 57.76 3.15 15.935 5.099 32.679-2.714 47.38-5.433 10.2-15.203 18.651-21.906 28.395-23.333 33.853-5.922 76.633 20.344 110.777 12.325 16.02 26.571 31.36 36.145 48.346 9.574 16.986 14.16 36.291 6.22 53.204-7.862 16.77-26.986 29.076-47.768 37.567-42.21 17.249-92.177 21.346-140.93 23.213-107.91 4.073-216.508-1.169-324.869-6.393-40.095-1.939-80.365-3.886-119.864-10.236-21.94-3.544-44.61-8.856-60.67-20.862C.119 377.446-5.215 352.266 8.046 334.021c22.254-30.591 84.852-36.93 100.246-69.951 8.468-18.18-.773-38.837-13.694-56.16-27.703-37.151-73.722-70.232-76.723-112.057-2.041-28.709 19.47-56.977 53.174-69.804 35.33-13.44 84.618-10.556 111.154 13.576 27.293 24.872 74.87 35.225 115.513 34.906z"/></g><g><path fill="#396ab3" d="M502.05 347.573H164.702c3.02-35.98 13.46-73.747 24.943-106.856 15.1-43.735 55.218-74.568 99.102-74.568h89.258c43.883 0 84 30.833 99.1 74.568 11.484 33.109 21.923 70.877 24.943 106.856z"/></g><g><path fill="#2a4d82" d="M502.085 386.908c-.895 8.948-8.576 15.66-17.56 15.66h-302.3c-8.986 0-16.667-6.712-17.561-15.66-1.267-12.64-1.156-25.838.037-39.335h337.346c1.194 13.497 1.306 26.695.038 39.335z"/></g><g><path fill="url(#190ga)" d="M260.904 391.544v-32.947h144.942v32.947z"/></g><g><path fill="url(#190gb)" d="M351.086 200.264v13.608c0 .374-.075.746-.187 1.082a3.084 3.084 0 0 1-2.87 1.976h-29.306a3.083 3.083 0 0 1-2.87-1.976 3.459 3.459 0 0 1-.188-1.082v-13.608a3.072 3.072 0 0 1 3.058-3.057h29.305a3.072 3.072 0 0 1 3.058 3.057z"/></g><g><path fill="#2a4d82" d="M350.9 214.954s-.186 3.803-2.61 6.637h-29.826c-2.423-2.834-2.61-6.637-2.61-6.637a3.083 3.083 0 0 0 2.871 1.976h29.305c1.305 0 2.424-.82 2.87-1.976z"/></g><g><path fill="url(#190gc)" d="M299.2 200.264v13.608c0 .374-.074.746-.186 1.082a3.084 3.084 0 0 1-2.871 1.976h-29.305a3.084 3.084 0 0 1-2.871-1.976 3.469 3.469 0 0 1-.186-1.082v-13.608a3.071 3.071 0 0 1 3.057-3.057h29.305a3.071 3.071 0 0 1 3.057 3.057z"/></g><g><path fill="#2a4d82" d="M299.015 214.954s-.186 3.803-2.61 6.637h-29.827c-2.423-2.834-2.61-6.637-2.61-6.637a3.084 3.084 0 0 0 2.871 1.976h29.305c1.306 0 2.424-.82 2.871-1.976z"/></g><g><path fill="url(#190gd)" d="M299.2 232.739v13.608c0 .373-.074.745-.186 1.081a3.084 3.084 0 0 1-2.871 1.977h-29.305a3.084 3.084 0 0 1-2.871-1.977 3.47 3.47 0 0 1-.186-1.081v-13.608a3.072 3.072 0 0 1 3.057-3.058h29.305a3.072 3.072 0 0 1 3.057 3.058z"/></g><g><path fill="#2a4d82" d="M299.015 247.428s-.186 3.803-2.61 6.637h-29.827c-2.423-2.834-2.61-6.637-2.61-6.637a3.084 3.084 0 0 0 2.871 1.976h29.305c1.306 0 2.424-.82 2.871-1.976z"/></g><g><path fill="url(#190ge)" d="M299.2 265.212v13.609c0 .373-.074.746-.186 1.082a3.084 3.084 0 0 1-2.871 1.976h-29.305a3.084 3.084 0 0 1-2.871-1.976 3.47 3.47 0 0 1-.186-1.082v-13.609a3.072 3.072 0 0 1 3.057-3.057h29.305a3.071 3.071 0 0 1 3.057 3.057z"/></g><g><path fill="#2a4d82" d="M299.015 279.902s-.186 3.803-2.61 6.637h-29.827c-2.423-2.834-2.61-6.637-2.61-6.637a3.084 3.084 0 0 0 2.871 1.976h29.305c1.306 0 2.424-.82 2.871-1.976z"/></g><g><path fill="url(#190gf)" d="M405.846 200.264v13.608c0 .374-.075.746-.186 1.082a3.084 3.084 0 0 1-2.871 1.976h-29.305a3.083 3.083 0 0 1-2.871-1.976 3.465 3.465 0 0 1-.187-1.082v-13.608a3.071 3.071 0 0 1 3.058-3.057h29.305a3.071 3.071 0 0 1 3.057 3.057z"/></g><g><path fill="#2a4d82" d="M405.663 214.954s-.186 3.803-2.61 6.637h-29.826c-2.423-2.834-2.61-6.637-2.61-6.637a3.083 3.083 0 0 0 2.87 1.976h29.305c1.306 0 2.424-.82 2.871-1.976z"/></g><g><path fill="url(#190gg)" d="M405.846 232.739v13.608c0 .373-.075.745-.186 1.081a3.085 3.085 0 0 1-2.871 1.977h-29.305a3.084 3.084 0 0 1-2.871-1.977 3.466 3.466 0 0 1-.187-1.081v-13.608a3.072 3.072 0 0 1 3.058-3.058h29.305a3.072 3.072 0 0 1 3.057 3.058z"/></g><g><path fill="#2a4d82" d="M405.663 247.428s-.186 3.803-2.61 6.637h-29.826c-2.423-2.834-2.61-6.637-2.61-6.637a3.084 3.084 0 0 0 2.87 1.976h29.305c1.306 0 2.424-.82 2.871-1.976z"/></g><g><path fill="url(#190gh)" d="M405.846 265.212v13.609c0 .373-.075.746-.186 1.082a3.084 3.084 0 0 1-2.871 1.976h-29.305a3.084 3.084 0 0 1-2.871-1.976 3.467 3.467 0 0 1-.187-1.082v-13.609a3.071 3.071 0 0 1 3.058-3.057h29.305a3.072 3.072 0 0 1 3.057 3.057z"/></g><g><path fill="#2a4d82" d="M405.663 279.902s-.186 3.803-2.61 6.637h-29.826c-2.423-2.834-2.61-6.637-2.61-6.637a3.083 3.083 0 0 0 2.87 1.976h29.305c1.306 0 2.424-.82 2.871-1.976z"/></g><g><path fill="url(#190gi)" d="M351.086 232.739v13.608c0 .373-.075.745-.187 1.081a3.084 3.084 0 0 1-2.87 1.977h-29.306a3.084 3.084 0 0 1-2.87-1.977 3.46 3.46 0 0 1-.188-1.081v-13.608a3.072 3.072 0 0 1 3.058-3.058h29.305a3.072 3.072 0 0 1 3.058 3.058z"/></g><g><path fill="#2a4d82" d="M350.9 247.428s-.186 3.803-2.61 6.637h-29.826c-2.423-2.834-2.61-6.637-2.61-6.637a3.084 3.084 0 0 0 2.871 1.976h29.305c1.305 0 2.424-.82 2.87-1.976z"/></g><g><path fill="url(#190gj)" d="M351.086 265.212v13.609c0 .373-.075.746-.187 1.082a3.084 3.084 0 0 1-2.87 1.976h-29.306a3.083 3.083 0 0 1-2.87-1.976 3.46 3.46 0 0 1-.188-1.082v-13.609a3.072 3.072 0 0 1 3.058-3.057h29.305a3.072 3.072 0 0 1 3.058 3.057z"/></g><g><path fill="#2a4d82" d="M350.9 279.902s-.186 3.803-2.61 6.637h-29.826c-2.423-2.834-2.61-6.637-2.61-6.637a3.083 3.083 0 0 0 2.871 1.976h29.305c1.305 0 2.424-.82 2.87-1.976z"/></g><g><path fill="url(#190gk)" d="M351.086 297.687v13.608c0 .374-.075.746-.187 1.082a3.084 3.084 0 0 1-2.87 1.976h-29.306a3.084 3.084 0 0 1-2.87-1.976 3.46 3.46 0 0 1-.188-1.082v-13.608a3.072 3.072 0 0 1 3.058-3.058h29.305a3.072 3.072 0 0 1 3.058 3.058z"/></g><g><path fill="#2a4d82" d="M350.9 312.377s-.186 3.803-2.61 6.636h-29.826c-2.423-2.833-2.61-6.636-2.61-6.636a3.083 3.083 0 0 0 2.871 1.976h29.305c1.305 0 2.424-.82 2.87-1.976z"/></g><g><path fill="#7794bf" d="M132.836 50.646c58.466 12.83 133.703 48.395 133.703 48.395L277.084 84.6c115.481 35.828 180.357 131.685 180.357 131.685l-10.119 13.859s56.803 60.842 86.83 112.624a31.286 31.286 0 0 0 1.915-2.561l10.184-15.265c6.632-9.941 11.462-20.998 13.718-32.725 3.463-18.07 1.714-36.412-7.834-52.128-12.524-20.617-31.024-47.567-56.497-76.119-40.983-46.026-99.963-96.29-180.794-131.086-.443-.19-.887-.38-1.304-.573-34.421-15.224-65.224-24.496-88.394-30.073A63.742 63.742 0 0 0 210.72.492C197.71.39 184.916 4.22 173.109 10.651c-10.484 5.72-19.544 13.687-26.993 23.032l-11.424 14.36a31.419 31.419 0 0 0-1.856 2.603z"/></g><g><path fill="#2a4d82" d="M437.619 240.033c-7.48 10.306-7.273 24.235.336 34.398 13.115 17.448 35.25 45.822 52.363 67.598 11.195 14.257 32.5 14.27 43.834.738-30.027-51.782-86.83-112.624-86.83-112.624-3.614 2.438-6.92 6.017-9.703 9.89z"/></g><g><path fill="#2a4d82" d="M132.832 50.646c-9.452 14.905-2.951 35.196 14.038 41.517 25.968 9.678 59.72 22.11 80.334 29.288 12.012 4.163 25.328.109 32.867-10.155 2.84-3.83 5.247-8.045 6.465-12.255 0 0-75.237-35.565-133.704-48.395z"/></g><g><g><path fill="url(#190gl)" d="M495.808 164.104l-.347-.252.368.223z"/></g></g><g><path fill="#2a4d82" d="M408.592 201.932s2.599 4.24 3.343 4.15c.744-.09 1.911-.8 1.429-1.596-.363-.591 1.619-.62 2.363-.71.744-.09 3.787-2.307 4.954-3.018 1.166-.707 1.59-1.327.942-2.39-.643-1.058-5.149 2.046-6.083 1.164-.939-.883-2.33.273-2.33.273z"/></g><g><path fill="#2a4d82" d="M391.66 205.647c.03.29.588 4.924 1.282 5.146.71.23 2.068.077 1.962-.851-.08-.686 1.728.115 2.443.344.715.23 4.406-.51 5.764-.664 1.353-.157 1.996-.544 1.856-1.779-.145-1.23-5.53-.298-6.015-1.49-.332-.83-1.277-.86-1.822-.795l.026.089z"/></g><g><path fill="url(#190gm)" d="M391.656 205.634s0 .004.004.012h5.495l-.025-.088c-.243.025-.405.067-.405.067z"/></g><g><path fill="url(#190gn)" d="M339.54 113.646c-.128-.064-.192-.028-.192-.028-1.185-.368-3.154-3.154-4.84-5.16-1.368-1.625-1.789-1.833-1.736-2.706 0-.044.004-.088.004-.136h.008c.056-.944.195-2.89.195-2.89l.625-3.983h.004c.028-.012.052-.012.072.004.012.004.024.012.032.032a.43.43 0 0 1 .044.124c.008.028.012.06.016.093a5.03 5.03 0 0 1 .024.228c.012.132.02.284.036.456.004.056.012.116.016.18.012.112.028.228.044.348.008.064.02.128.028.196.016.085.032.176.052.269.028.124.056.248.093.376a5.777 5.777 0 0 0 .376 1c.016.036.032.072.052.109l.056.104c.028.052.06.104.088.156l.012.02c.052.084.104.168.164.252.044.068.096.136.148.208.048.068.104.136.16.204a6.015 6.015 0 0 0 1.11 1.005c.047.036.099.068.147.1.2.132.409.256.64.376h.005c.196.1.376.169.568.217 0 0-1.024 2.581-.456 4.487.388 1.317 1.87 3.058 2.345 3.879l.072.128c.017.027.024.052.036.076.068.168.068.264-.047.276z"/></g><g><path fill="#2a4d82" d="M319.77 118.23c0 .096.006.197.022.303.005.075.016.154.037.239 0 .01 0 .016.005.027.01.079.032.164.053.254.032.117.064.24.106.367.053.153.106.318.175.493.048.128.101.26.16.398l4.618 30.943c.387.122.807.186 1.231.186h26.813c-.037-.112-1.879-4.762-3.227-8.456a78.519 78.519 0 0 1-.775-2.182c-.404-1.189-.839-2.49-1.29-3.86-2.469.797-4.432 1.248-5.144.988 0 0-8.648-19.381-15.177-21.727-3.668-1.322-6.03-.664-7.453.669-.09.477-.148.939-.154 1.359z"/></g><g><path fill="#7794bf" d="M324.94 151.254c.065.308 2.22 10.23 7.82 15.639 5.68 5.5 38.831 0 38.831 0l20.06 38.751h5.5s-.01-.026-.026-.085a7819.63 7819.63 0 0 0-5.266-20.368c-2.85-10.988-6.057-23.288-7.426-28.331l-.006-.006a59.517 59.517 0 0 0-.606-2.17c-1.03-3.244-7.654-3.244-7.654-3.244h-49.995c-.424 0-.844-.064-1.231-.186z"/></g><g><path fill="#667fa3" d="M384.434 156.86c1.373 5.04 4.577 17.342 7.427 28.332l16.729 16.74 4.618-2.127z"/></g><g><path fill="url(#190go)" d="M339.348 113.618s-.408.792-.992 1.617c-.617.872-1.425 1.777-2.154 1.83-1.425.1-4.695-10.697-4.695-10.697l1.269-.752c0 .048-.005.092-.005.136-.052.873.369 1.08 1.738 2.706 1.685 2.006 3.654 4.792 4.839 5.16z"/></g><g><path fill="url(#190gp)" d="M341.58 116.632l-.264.076-1.205.356-1.756-1.83c.584-.823.992-1.616.992-1.616s.064-.036.192.028c.116-.012.116-.108.048-.276.977.876 1.994 3.262 1.994 3.262z"/></g><g><path fill="#2a4d82" d="M347.695 136.943c-1.11.36-2.117.648-2.954.832-1.025.228-1.797.3-2.19.156 0 0-2.93-6.564-6.664-12.517-.157-.248-.317-.496-.473-.74a55.31 55.31 0 0 0-1.709-2.502c-.132-.18-.264-.36-.396-.536-.128-.176-.264-.353-.396-.525a43.097 43.097 0 0 0-.801-.992c-.132-.16-.268-.317-.4-.469a20.473 20.473 0 0 0-1.605-1.653 12.484 12.484 0 0 0-.596-.516c-.085-.068-.17-.133-.253-.197a9.608 9.608 0 0 0-.732-.508 6.703 6.703 0 0 0-.537-.304c-.08-.04-.156-.08-.236-.112a.432.432 0 0 0-.088-.036c-.097-.048-.197-.084-.293-.12-3.666-1.321-6.028-.665-7.453.668 3.723-6.036 7.35-8.05 10.155-9.655l1.433-.848s3.27 10.796 4.696 10.695c.728-.052 1.537-.956 2.153-1.83l1.758 1.83 1.205-.356c.56 1.417 1.256 3.487 2.1 6.493.401 1.409.83 2.886 1.286 4.383.553 1.833 1.14 3.694 1.725 5.512.433 1.32.849 2.61 1.265 3.847z"/></g><g><g><path fill="url(#190gq)" d="M332.785 105.832h-.006v-.429z"/></g></g><g><path fill="#7794bf" d="M344.705 127.584a314.852 314.852 0 0 0 1.726 5.51l9.002-9.046-2.776-2.76s-.28.234-.78.632a276.17 276.17 0 0 1-7.172 5.664z"/></g><g><path fill="url(#190gr)" d="M363.743 130.626l1.922 3.413s3.222-1.614 4.363-2.898c.165-.18.287-.356.35-.515.532-1.317.935-3.844 0-4.836-.923-.993-3.115-.531-3.513.865-.399 1.39-1.2 1.507-1.2 1.507l-.695-.472z"/></g><g><path fill="url(#190gs)" d="M352.657 121.288l2.776 2.76 1.661-1.74-2.786-1.901c.069-.202.371-.913.568-1.184.217-.313.206-1.672-.59-1.231-.372.207-.759.95-1.056 1.677-.34.818-.573 1.62-.573 1.62z"/></g><g><path fill="url(#190gt)" d="M345.983 93.672s.6.676.5 1.977c-.1 1.3-1.6 1.349-2.053 1.3-.448-.047-1.181.221-1.181.221.112-.416.172-.668.172-.668l-.032-.389c-.004-.024-.004-.056-.012-.084-.004-.032-.004-.064-.008-.1a2.363 2.363 0 0 1-.016-.192c-.012-.068-.016-.144-.028-.22a25.932 25.932 0 0 0-.344-2.31c-.292-1.409-2.294-2.682-3.674-1.673-.049.036-.1.076-.149.12-.1.092-.196.168-.284.244l-.088.072h-.004c-.044.033-.084.069-.124.096-.525.393-.849.525-1.161.901-.048.06-.096.12-.148.192a3.29 3.29 0 0 0-.204.324 7.53 7.53 0 0 0-.285.573c-.048.112-.1.232-.16.364-.028.072-.052.136-.084.208-.929 2.29-1.709 4.2-2.077 1.826a2.834 2.834 0 0 0-.096-.44 1.863 1.863 0 0 0-.1-.301 2.595 2.595 0 0 0-.136-.332c-.009-.004-.009-.016-.013-.02a4.445 4.445 0 0 0-.152-.28c-.007-.013-.011-.016-.016-.028-.032-.052-.072-.104-.108-.16-.048-.069-.1-.14-.16-.204a3.86 3.86 0 0 0-.124-.145.784.784 0 0 0-.128-.128c-.06-.06-.12-.104-.176-.16a3.989 3.989 0 0 0-.18-.136c-.064-.044-.129-.084-.192-.124a2.94 2.94 0 0 0-.197-.1 1.801 1.801 0 0 0-.584-.168 1.277 1.277 0 0 0-.216-.016c-.588 0-1.173.308-1.621 1.033-.805 1.316.408 2.613 1.593 3.362.196.12.388.232.576.324h.004c.053.024.105.052.156.072.076.04.153.068.22.096.072.028.137.052.2.072.085.032.16.052.233.064.128.028.224.032.28.008l-.624 3.983s-.545-.969-1.265-2.326c-.116-.22-.24-.448-.36-.68 0 0-4.984-6.773-.429-9.423 0 0 1.081-4.555 6.317-4.455 5.24.1 6.388.5 8.441 2.15 2.054 1.653 4.504.103 4.404 1.352-.1 1.25-2.75 4.6-4.103 4.328z"/></g><g><path fill="url(#190gu)" d="M343.424 96.502s-.06.252-.172.668a29.89 29.89 0 0 1-.472 1.537c-.885 2.67-2.674 6.713-5.184 6.093h-.004a2.612 2.612 0 0 1-.568-.217h-.004a6.977 6.977 0 0 1-.641-.376c-.048-.032-.1-.064-.148-.1a6.051 6.051 0 0 1-1.109-1.005c-.056-.068-.112-.136-.16-.204-.052-.072-.104-.14-.148-.208-.06-.084-.112-.168-.164-.252l-.012-.02c-.028-.053-.06-.104-.088-.156l-.056-.105c-.02-.036-.036-.072-.052-.107a5.414 5.414 0 0 1-.285-.693c-.031-.104-.063-.208-.091-.308-.036-.128-.065-.252-.093-.377-.02-.092-.036-.183-.052-.268-.008-.068-.02-.132-.028-.196-.015-.12-.032-.236-.044-.348-.004-.064-.011-.124-.016-.18-.016-.172-.024-.325-.035-.457l-.013-.124a4.406 4.406 0 0 0-.011-.104.607.607 0 0 0-.017-.092.259.259 0 0 0-.044-.124.05.05 0 0 0-.032-.032c-.02-.016-.044-.016-.072-.004h-.004c-.056.024-.152.02-.28-.008a2.438 2.438 0 0 1-.232-.064 2.373 2.373 0 0 1-.2-.072c-.072-.032-.144-.064-.22-.096-.052-.02-.104-.048-.157-.072h-.004a7.012 7.012 0 0 1-.576-.324c-1.185-.749-2.398-2.046-1.593-3.363.448-.724 1.033-1.032 1.621-1.032.072 0 .148.004.216.016.133.016.26.04.389.088a2.906 2.906 0 0 1 .392.18c.064.04.128.08.192.124.056.04.12.088.18.136.056.056.116.1.176.16.048.036.088.08.128.128.044.048.084.096.124.144.06.064.112.136.16.204.036.056.076.109.108.16.005.013.009.016.017.029.052.087.103.184.151.28.004.004.004.016.012.02.053.108.1.22.137.332.04.096.076.196.1.3.044.144.076.293.096.44.368 2.374 1.148.465 2.077-1.825.032-.072.056-.136.084-.208.06-.132.112-.252.16-.364.104-.228.197-.417.285-.573.072-.128.14-.236.204-.324.052-.072.1-.132.148-.192.32-.364.64-.5 1.161-.9.04-.028.08-.065.124-.097h.004l.088-.072c.088-.076.184-.152.284-.244.048-.044.1-.084.148-.12 1.381-1.009 3.382.264 3.675 1.673a25.771 25.771 0 0 1 .344 2.31c.012.076.016.152.028.22.004.072.008.132.016.192.004.036.004.068.008.1.008.028.008.06.013.084l.031.389z"/></g><g><path fill="url(#190gv)" d="M353.839 152.864c-1.85-1.035-5.602-2.802-6.446-3.196a.36.36 0 0 1-.204-.265c-.396-2.15-1.356-6.651-2.448-11.628-2.082-9.487-4.628-20.71-4.628-20.71l1.205-.357.264-.076c5.691 16.145 11.125 31.478 12.78 35.777a.369.369 0 0 1-.523.455z"/></g><g><path fill="#7794bf" d="M319.77 118.23c0 .096.006.197.022.303.005.075.016.154.037.239 0 .01 0 .016.005.027.01.079.032.164.053.254.032.117.064.24.106.367.053.153.106.318.175.493.048.128.101.26.16.398 2.495 5.956 12.719 19.535 17.268 25.444a4.132 4.132 0 0 0 4.146 1.523 4.004 4.004 0 0 0 1.167-.44l6.854-3.854 15.904-8.945-1.922-3.413s-.334.148-.923.398c-2.575 1.12-9.948 4.263-15.124 5.919-2.469.796-4.432 1.247-5.144.987 0 0-8.648-19.381-15.177-21.727-3.668-1.322-6.03-.664-7.453.669-.09.477-.148.939-.154 1.359z"/></g><g><path fill="url(#190gw)" d="M428.76 409.876s5.194-14.429 20.2-8.658c0 0 2.907-22.787 23.365-25.799 20.459-3.01 29.159 16.564 29.159 16.564s5.771-7.502 15.006-4.616 9.162 9.415 9.162 9.415 4.18-5.75 14.171-2.88c9.992 2.87 8.411 10.78 8.411 10.78s20.778-6.926 25.396 5.194z"/></g></g></svg>