<svg xmlns="http://www.w3.org/2000/svg" width="770" height="481" viewBox="0 0 770 481"><defs><linearGradient id="2ud0a" x1="10.68" x2="769.95" y1="240.25" y2="240.25" gradientUnits="userSpaceOnUse"><stop offset="0" stop-color="#dae3fe"/><stop offset="1" stop-color="#e9effd"/></linearGradient><linearGradient id="2ud0b" x1="298.69" x2="412.54" y1="523.34" y2="386.84" gradientUnits="userSpaceOnUse"><stop offset="0" stop-color="#09005d"/><stop offset="1" stop-color="#1a0f91"/></linearGradient><linearGradient id="2ud0c" x1="483.3" x2="409.73" y1="-15.5" y2="173.88" gradientUnits="userSpaceOnUse"><stop offset="0" stop-color="#09005d"/><stop offset="1" stop-color="#1a0f91"/></linearGradient><linearGradient id="2ud0d" x1="596.46" x2="168.66" y1="107.82" y2="404.83" gradientUnits="userSpaceOnUse"><stop offset="0" stop-color="#4042e2"/><stop offset="1" stop-color="#4f52ff"/></linearGradient><linearGradient id="2ud0e" x1="386.57" x2="381.12" y1="267.53" y2="349.23" gradientUnits="userSpaceOnUse"><stop offset="0" stop-color="#09005d"/><stop offset="1" stop-color="#1a0f91"/></linearGradient><linearGradient id="2ud0f" x1="242.12" x2="281.76" y1="263.99" y2="263.99" gradientUnits="userSpaceOnUse"><stop offset="0" stop-color="#dae3fe"/><stop offset="1" stop-color="#e9effd"/></linearGradient><linearGradient id="2ud0g" x1="537.26" x2="578.71" y1="263.27" y2="263.27" gradientUnits="userSpaceOnUse"><stop offset="0" stop-color="#dae3fe"/><stop offset="1" stop-color="#e9effd"/></linearGradient><linearGradient id="2ud0h" x1="553.02" x2="562.93" y1="263.42" y2="263.42" gradientUnits="userSpaceOnUse"><stop offset="0" stop-color="#dae3fe"/><stop offset="1" stop-color="#e9effd"/></linearGradient><linearGradient id="2ud0i" x1="552.56" x2="563.39" y1="263.41" y2="263.41" gradientUnits="userSpaceOnUse"><stop offset="0" stop-color="#dae3fe"/><stop offset="1" stop-color="#e9effd"/></linearGradient><linearGradient id="2ud0j" x1="544.02" x2="570.91" y1="263.37" y2="263.37" gradientUnits="userSpaceOnUse"><stop offset="0" stop-color="#dae3fe"/><stop offset="1" stop-color="#e9effd"/></linearGradient><linearGradient id="2ud0k" x1="543.55" x2="571.37" y1="263.36" y2="263.36" gradientUnits="userSpaceOnUse"><stop offset="0" stop-color="#dae3fe"/><stop offset="1" stop-color="#e9effd"/></linearGradient><linearGradient id="2ud0l" x1="541.77" x2="574.09" y1="256.39" y2="256.39" gradientUnits="userSpaceOnUse"><stop offset="0" stop-color="#dae3fe"/><stop offset="1" stop-color="#e9effd"/></linearGradient><linearGradient id="2ud0m" x1="541.31" x2="574.55" y1="256.4" y2="256.4" gradientUnits="userSpaceOnUse"><stop offset="0" stop-color="#dae3fe"/><stop offset="1" stop-color="#e9effd"/></linearGradient><linearGradient id="2ud0n" x1="546.45" x2="569.4" y1="249.6" y2="249.6" gradientUnits="userSpaceOnUse"><stop offset="0" stop-color="#dae3fe"/><stop offset="1" stop-color="#e9effd"/></linearGradient><linearGradient id="2ud0o" x1="545.99" x2="569.87" y1="249.61" y2="249.61" gradientUnits="userSpaceOnUse"><stop offset="0" stop-color="#dae3fe"/><stop offset="1" stop-color="#e9effd"/></linearGradient><linearGradient id="2ud0p" x1="540.37" x2="575.49" y1="263.18" y2="263.18" gradientUnits="userSpaceOnUse"><stop offset="0" stop-color="#dae3fe"/><stop offset="1" stop-color="#e9effd"/></linearGradient><linearGradient id="2ud0q" x1="539.91" x2="575.95" y1="263.18" y2="263.18" gradientUnits="userSpaceOnUse"><stop offset="0" stop-color="#dae3fe"/><stop offset="1" stop-color="#e9effd"/></linearGradient><linearGradient id="2ud0r" x1="541.77" x2="574.09" y1="269.97" y2="269.97" gradientUnits="userSpaceOnUse"><stop offset="0" stop-color="#dae3fe"/><stop offset="1" stop-color="#e9effd"/></linearGradient><linearGradient id="2ud0s" x1="541.31" x2="574.55" y1="269.96" y2="269.96" gradientUnits="userSpaceOnUse"><stop offset="0" stop-color="#dae3fe"/><stop offset="1" stop-color="#e9effd"/></linearGradient><linearGradient id="2ud0t" x1="546.99" x2="570.03" y1="276.75" y2="276.75" gradientUnits="userSpaceOnUse"><stop offset="0" stop-color="#dae3fe"/><stop offset="1" stop-color="#e9effd"/></linearGradient><linearGradient id="2ud0u" x1="546.53" x2="570.49" y1="276.75" y2="276.75" gradientUnits="userSpaceOnUse"><stop offset="0" stop-color="#dae3fe"/><stop offset="1" stop-color="#e9effd"/></linearGradient><linearGradient id="2ud0v" x1="255.01" x2="266.43" y1="384.35" y2="384.35" gradientUnits="userSpaceOnUse"><stop offset="0" stop-color="#09005d"/><stop offset="1" stop-color="#1a0f91"/></linearGradient><linearGradient id="2ud0w" x1="256.17" x2="260.8" y1="379.04" y2="379.04" gradientUnits="userSpaceOnUse"><stop offset="0" stop-color="#ff928e"/><stop offset="1" stop-color="#feb3b1"/></linearGradient><linearGradient id="2ud0x" x1="279.29" x2="297.2" y1="384.16" y2="384.16" gradientUnits="userSpaceOnUse"><stop offset="0" stop-color="#09005d"/><stop offset="1" stop-color="#1a0f91"/></linearGradient><linearGradient id="2ud0y" x1="279.56" x2="284.16" y1="376.98" y2="376.98" gradientUnits="userSpaceOnUse"><stop offset="0" stop-color="#ff928e"/><stop offset="1" stop-color="#feb3b1"/></linearGradient><linearGradient id="2ud0z" x1="305.71" x2="245.44" y1="305.58" y2="358.2" gradientUnits="userSpaceOnUse"><stop offset="0" stop-color="#09005d"/><stop offset="1" stop-color="#1a0f91"/></linearGradient><linearGradient id="2ud0A" x1="285.56" x2="271.26" y1="277.47" y2="300.96" gradientUnits="userSpaceOnUse"><stop offset="0" stop-color="#09005d"/><stop offset="1" stop-color="#1a0f91"/></linearGradient><linearGradient id="2ud0B" x1="310.36" x2="327.47" y1="242.19" y2="242.19" gradientUnits="userSpaceOnUse"><stop offset="0" stop-color="#ff928e"/><stop offset="1" stop-color="#feb3b1"/></linearGradient><linearGradient id="2ud0C" x1="343.62" x2="336.81" y1="195.59" y2="231.34" gradientUnits="userSpaceOnUse"><stop offset="0" stop-color="#ff928e"/><stop offset="1" stop-color="#feb3b1"/></linearGradient><linearGradient id="2ud0D" x1="979.94" x2="973.13" y1="-767.34" y2="-731.58" gradientUnits="userSpaceOnUse"><stop offset="0" stop-color="#ff928e"/><stop offset="1" stop-color="#feb3b1"/></linearGradient><linearGradient id="2ud0E" x1="307.51" x2="271.71" y1="218.11" y2="283.92" gradientUnits="userSpaceOnUse"><stop offset="0" stop-color="#ff928e"/><stop offset="1" stop-color="#feb3b1"/></linearGradient><linearGradient id="2ud0F" x1="119.88" x2="104.05" y1="1230.43" y2="1251.37" gradientUnits="userSpaceOnUse"><stop offset="0" stop-color="#ff928e"/><stop offset="1" stop-color="#feb3b1"/></linearGradient><linearGradient id="2ud0G" x1="337.28" x2="312.08" y1="149.2" y2="201.66" gradientUnits="userSpaceOnUse"><stop offset="0" stop-color="#09005d"/><stop offset="1" stop-color="#1a0f91"/></linearGradient><linearGradient id="2ud0H" x1="97.09" x2="109.76" y1="1246.7" y2="1233.68" gradientUnits="userSpaceOnUse"><stop offset="0" stop-color="#ff928e"/><stop offset="1" stop-color="#feb3b1"/></linearGradient><linearGradient id="2ud0I" x1="454.72" x2="492.09" y1="264.74" y2="264.74" gradientUnits="userSpaceOnUse"><stop offset="0" stop-color="#dae3fe"/><stop offset="1" stop-color="#e9effd"/></linearGradient><linearGradient id="2ud0J" x1="460.33" x2="483.6" y1="257.55" y2="257.55" gradientUnits="userSpaceOnUse"><stop offset="0" stop-color="#dae3fe"/><stop offset="1" stop-color="#e9effd"/></linearGradient><linearGradient id="2ud0K" x1="165.9" x2="175.87" y1="275.97" y2="275.97" gradientUnits="userSpaceOnUse"><stop offset="0" stop-color="#dae3fe"/><stop offset="1" stop-color="#e9effd"/></linearGradient><linearGradient id="2ud0L" x1="168.57" x2="184.49" y1="270.1" y2="270.1" gradientUnits="userSpaceOnUse"><stop offset="0" stop-color="#dae3fe"/><stop offset="1" stop-color="#e9effd"/></linearGradient><linearGradient id="2ud0M" x1="167.28" x2="192.15" y1="265.7" y2="265.7" gradientUnits="userSpaceOnUse"><stop offset="0" stop-color="#dae3fe"/><stop offset="1" stop-color="#e9effd"/></linearGradient><linearGradient id="2ud0N" x1="166" x2="199.78" y1="261.29" y2="261.29" gradientUnits="userSpaceOnUse"><stop offset="0" stop-color="#dae3fe"/><stop offset="1" stop-color="#e9effd"/></linearGradient><linearGradient id="2ud0O" x1="-220.18" x2="-135.54" y1="424.39" y2="312.09" gradientUnits="userSpaceOnUse"><stop offset="0" stop-color="#09005d"/><stop offset="1" stop-color="#1a0f91"/></linearGradient><linearGradient id="2ud0P" x1="367.83" x2="385.86" y1="400.27" y2="441.3" gradientUnits="userSpaceOnUse"><stop offset="0" stop-color="#ff928e"/><stop offset="1" stop-color="#feb3b1"/></linearGradient><linearGradient id="2ud0Q" x1="333.89" x2="342.39" y1="400.5" y2="464.5" gradientUnits="userSpaceOnUse"><stop offset="0" stop-color="#09005d"/><stop offset="1" stop-color="#1a0f91"/></linearGradient><linearGradient id="2ud0R" x1="546.47" x2="498.78" y1="268.42" y2="303.85" gradientUnits="userSpaceOnUse"><stop offset="0" stop-color="#ff928e"/><stop offset="1" stop-color="#feb3b1"/></linearGradient><linearGradient id="2ud0S" x1="298.41" x2="306.93" y1="405.17" y2="469.18" gradientUnits="userSpaceOnUse"><stop offset="0" stop-color="#09005d"/><stop offset="1" stop-color="#1a0f91"/></linearGradient><linearGradient id="2ud0T" x1="556.26" x2="508.58" y1="281.64" y2="317.06" gradientUnits="userSpaceOnUse"><stop offset="0" stop-color="#ff928e"/><stop offset="1" stop-color="#feb3b1"/></linearGradient><linearGradient id="2ud0U" x1="546.19" x2="554.87" y1="325.22" y2="373.22" gradientUnits="userSpaceOnUse"><stop offset="0" stop-color="#ff928e"/><stop offset="1" stop-color="#feb3b1"/></linearGradient><linearGradient id="2ud0V" x1="597.11" x2="581.1" y1="331.38" y2="350.11" gradientUnits="userSpaceOnUse"><stop offset="0" stop-color="#ff928e"/><stop offset="1" stop-color="#feb3b1"/></linearGradient><linearGradient id="2ud0W" x1="320.4" x2="314.61" y1="260.29" y2="284.65" gradientUnits="userSpaceOnUse"><stop offset="0" stop-color="#ff928e"/><stop offset="1" stop-color="#feb3b1"/></linearGradient><linearGradient id="2ud0X" x1="-231.08" x2="-146.42" y1="419.68" y2="307.37" gradientUnits="userSpaceOnUse"><stop offset="0" stop-color="#09005d"/><stop offset="1" stop-color="#1a0f91"/></linearGradient><linearGradient id="2ud0Y" x1="325.01" x2="319.21" y1="261.63" y2="285.95" gradientUnits="userSpaceOnUse"><stop offset="0" stop-color="#ff928e"/><stop offset="1" stop-color="#feb3b1"/></linearGradient><linearGradient id="2ud0Z" x1="364.17" x2="382.22" y1="401.85" y2="442.89" gradientUnits="userSpaceOnUse"><stop offset="0" stop-color="#ff928e"/><stop offset="1" stop-color="#feb3b1"/></linearGradient><linearGradient id="2ud0aa" x1="510.05" x2="510.9" y1="308.25" y2="339.24" gradientUnits="userSpaceOnUse"><stop offset="0" stop-color="#ff928e"/><stop offset="1" stop-color="#feb3b1"/></linearGradient></defs><g><g><g><g><path fill="url(#2ud0a)" d="M746.08 236.238c-14.466-18.532-34.774-32.702-45.353-53.698-16.156-32.065-5.674-71.551-16.733-105.71-9.478-29.275-34.428-51.85-62.824-63.703C592.774 1.273 561.191-.91 530.478.974c-63.675 3.904-126.219 24.94-179.31 60.31-26.145 17.418-50.024 38.217-77.159 54.048-27.135 15.831-58.858 26.614-89.825 21.33-30.94-5.279-56.846-25.587-85.2-39.048-11.08-5.261-23.535-9.271-35.95-10.907-27.153-3.579-51.45 17.245-52.298 44.618-.723 23.332 5.116 46.897 17.173 66.904 15.123 25.098 38.7 43.827 57.163 66.581 18.462 22.755 32.074 53.498 22.08 81.044-8.524 23.497-33.054 41.465-32.366 66.452.72 26.136 28.414 42.383 53.252 50.552 73.132 24.049 154.284 22.93 226.725-3.126 41.657-14.984 81.702-38.19 125.938-39.943 46.475-1.841 90.798 20.41 137.245 22.872 50.822 2.694 103.333-20.975 131.345-63.465s28.105-102.84-3.21-142.958z"/></g></g><g><g opacity=".55"><g opacity=".55"><g opacity=".55"><path fill="#91b3fa" d="M221.952 117.745a29.062 29.062 0 0 0 11.79 2.28 29.18 29.18 0 0 0 14.936-4.382 1.66 1.66 0 1 0-1.753-2.82 25.857 25.857 0 0 1-13.236 3.88c-14.278.227-26.078-11.202-26.306-25.478-.11-6.916 2.479-13.461 7.291-18.43 4.812-4.968 11.271-7.765 18.187-7.876 14.278-.228 26.078 11.201 26.306 25.478a26.067 26.067 0 0 1-.494 5.494 1.661 1.661 0 0 0 3.258.648c.404-2.028.591-4.112.558-6.195-.258-16.108-13.572-29.005-29.68-28.746-7.804.124-15.092 3.28-20.521 8.887-5.43 5.605-8.35 12.99-8.226 20.793.19 11.932 7.543 22.099 17.89 26.467zm-21.714-4.38l-.496-.77a39.776 39.776 0 0 1-5.13-11.835l-.224-.89-9.319-3.047-.162-10.166 9.217-3.344.195-.896a39.741 39.741 0 0 1 4.749-11.992l.47-.787-4.437-8.75 7.074-7.303 8.888 4.155.77-.496a39.756 39.756 0 0 1 11.835-5.13l.89-.224 3.048-9.319 10.165-.162 3.344 9.217.896.195a39.727 39.727 0 0 1 11.993 4.749l.786.47 8.75-4.437 7.304 7.074-4.156 8.888.496.77a39.755 39.755 0 0 1 5.13 11.836l.223.889 9.32 3.048.163 10.165-9.218 3.345-.195.895a39.754 39.754 0 0 1-4.749 11.993l-.47.786 4.437 8.75-7.074 7.304-8.888-4.156-.77.496a39.77 39.77 0 0 1-11.835 5.13l-.89.224-3.047 9.319-10.166.162-3.344-9.217-.896-.194a39.747 39.747 0 0 1-11.993-4.75l-.786-.47-8.75 4.437-7.304-7.074zm2.035 19.279c.65.274 1.402.26 2.056-.07l7.684-3.898a43.05 43.05 0 0 0 11.297 4.474l2.936 8.093a2.443 2.443 0 0 0 2.336 1.61l11.418-.182a2.444 2.444 0 0 0 2.284-1.684l2.675-8.183a43.042 43.042 0 0 0 11.148-4.832l7.805 3.648c.949.44 2.065.235 2.79-.513l7.945-8.204a2.445 2.445 0 0 0 .424-2.804l-3.897-7.684a43.067 43.067 0 0 0 4.474-11.296l8.093-2.937a2.444 2.444 0 0 0 1.61-2.335l-.182-11.419a2.447 2.447 0 0 0-1.684-2.283l-8.183-2.676a43.035 43.035 0 0 0-4.833-11.148l3.65-7.804a2.444 2.444 0 0 0-.514-2.79L265.4 49.78a2.445 2.445 0 0 0-2.804-.424l-7.684 3.897a43.08 43.08 0 0 0-11.297-4.474l-2.936-8.092a2.444 2.444 0 0 0-2.336-1.61l-11.418.182a2.444 2.444 0 0 0-2.283 1.683l-2.676 8.183a43.067 43.067 0 0 0-11.148 4.833l-7.805-3.65a2.443 2.443 0 0 0-2.79.514l-7.945 8.204a2.445 2.445 0 0 0-.424 2.804l3.897 7.684a43.049 43.049 0 0 0-4.474 11.297l-8.093 2.936a2.444 2.444 0 0 0-1.61 2.335l.183 11.419a2.439 2.439 0 0 0 1.683 2.283l8.183 2.677a43.063 43.063 0 0 0 4.833 11.147l-3.65 7.805a2.443 2.443 0 0 0 .514 2.79l8.204 7.945c.221.215.475.38.748.495z"/></g></g><g opacity=".55"><g opacity=".55"><path fill="#91b3fa" d="M242.185 88.615a8.974 8.974 0 0 1-.892 6.855 8.976 8.976 0 0 1-5.48 4.217 8.943 8.943 0 0 1-5.857-.396 8.983 8.983 0 0 1-5.215-5.975 8.972 8.972 0 0 1 .893-6.856 8.977 8.977 0 0 1 5.478-4.217 8.943 8.943 0 0 1 5.858.397 8.982 8.982 0 0 1 5.215 5.975zm-13.09 12.716a11.14 11.14 0 0 0 7.295.494 11.174 11.174 0 0 0 6.822-5.25 11.171 11.171 0 0 0 1.111-8.537 11.184 11.184 0 0 0-6.492-7.438 11.135 11.135 0 0 0-7.295-.495 11.174 11.174 0 0 0-6.822 5.25 11.173 11.173 0 0 0-1.111 8.537 11.185 11.185 0 0 0 6.492 7.439z"/></g></g><g opacity=".55"><g opacity=".55"><g opacity=".55"><path fill="#91b3fa" d="M267.675 141.924a.277.277 0 0 1-.047-.484c.38-.258.758-.52 1.132-.785a.277.277 0 0 1 .32.452 63 63 0 0 1-1.142.792.276.276 0 0 1-.263.025z"/></g></g><g opacity=".55"><g opacity=".55"><path fill="#91b3fa" d="M172.892 81.448a.277.277 0 0 0 .381-.21 61 61 0 0 1 .508-2.734.276.276 0 1 0-.542-.114c-.19.911-.363 1.84-.512 2.758-.021.129.05.25.165.3zm-.64 5.547a.277.277 0 0 0 .384-.236c.064-.92.15-1.851.255-2.768a.277.277 0 0 0-.55-.064 61.863 61.863 0 0 0-.258 2.794.277.277 0 0 0 .169.274zm-.128 5.585a.277.277 0 0 0 .385-.262 59.644 59.644 0 0 1-.001-2.78.277.277 0 1 0-.553-.014 60.592 60.592 0 0 0 0 2.807.278.278 0 0 0 .17.249zm.385 5.572a.277.277 0 0 0 .383-.287 60.503 60.503 0 0 1-.255-2.769.276.276 0 1 0-.553.038c.065.928.151 1.868.258 2.794.012.103.079.186.167.224zm1.056 5.53a.277.277 0 0 0 .214-.327 61.515 61.515 0 0 1-.506-2.735.277.277 0 1 0-.547.088c.15.92.321 1.848.511 2.76a.278.278 0 0 0 .328.214zm89.348 41.156c.076.031.165.03.242-.013a60.742 60.742 0 0 0 2.425-1.408.277.277 0 1 0-.289-.472c-.787.481-1.595.95-2.403 1.395a.277.277 0 0 0 .025.498zm-88.126-35.76a.277.277 0 0 0 .372-.336 60.72 60.72 0 0 1-.75-2.678.277.277 0 0 0-.536.137 65.316 65.316 0 0 0 .757 2.703.273.273 0 0 0 .157.174zm83.117 38.225c.068.028.147.03.219-.002.854-.372 1.71-.77 2.544-1.18a.277.277 0 0 0-.244-.497c-.827.407-1.676.8-2.522 1.17a.277.277 0 0 0 .003.509zm-81.252-32.962a.278.278 0 0 0 .364-.36c-.348-.856-.68-1.73-.988-2.598a.276.276 0 1 0-.522.185c.31.876.646 1.758.997 2.622.03.07.084.123.15.15zm76.04 34.96c.06.025.128.03.194.007.882-.292 1.77-.61 2.641-.944a.277.277 0 1 0-.198-.516c-.863.33-1.743.645-2.617.935a.277.277 0 0 0-.02.518zm-73.47-29.901a.277.277 0 0 0 .118-.373 61.185 61.185 0 0 1-1.22-2.495.277.277 0 1 0-.503.232c.391.846.805 1.693 1.232 2.517a.276.276 0 0 0 .373.119zm68.095 31.421a.274.274 0 0 0 .171.015 63.995 63.995 0 0 0 2.717-.704.277.277 0 0 0-.15-.533 64.357 64.357 0 0 1-2.694.698.277.277 0 0 0-.044.524zm-65.542-26.58a.276.276 0 0 0 .342-.404 60.66 60.66 0 0 1-1.444-2.373.276.276 0 1 0-.48.277c.465.804.955 1.61 1.457 2.394a.275.275 0 0 0 .125.106zm60.053 27.611a.28.28 0 0 0 .147.02c.92-.13 1.852-.284 2.768-.456a.277.277 0 1 0-.102-.545c-.908.171-1.83.323-2.744.452a.277.277 0 0 0-.069.53zm-56.554-23.09a.277.277 0 0 0 .049-.39 60.197 60.197 0 0 1-1.655-2.23.277.277 0 1 0-.453.318 61.14 61.14 0 0 0 1.67 2.253.28.28 0 0 0 .389.048zm50.995 23.617a.277.277 0 0 0 .12.022 61.81 61.81 0 0 0 2.8-.201.278.278 0 0 0-.053-.552c-.919.087-1.851.155-2.773.2a.277.277 0 0 0-.094.531zm-47.648-19.338a.277.277 0 0 0 .31-.445 60.921 60.921 0 0 1-1.852-2.07.277.277 0 0 0-.421.36c.604.707 1.233 1.41 1.87 2.089.027.03.059.051.093.066zm42.159 19.375c.928.04 1.872.06 2.805.057a.277.277 0 1 0-.002-.554c-.924.003-1.86-.016-2.779-.056a.277.277 0 1 0-.024.553zm-38.16-15.48a.277.277 0 0 0 .292-.462 60.996 60.996 0 0 1-2.035-1.893.277.277 0 0 0-.386.396 61.695 61.695 0 0 0 2.053 1.91c.023.021.049.037.076.049zm32.501 14.961c.022.01.046.017.07.02.922.125 1.86.231 2.789.314a.277.277 0 1 0 .049-.552c-.92-.082-1.85-.187-2.762-.31a.277.277 0 0 0-.146.528zm-28.165-11.445a.278.278 0 0 0 .272-.478 61.33 61.33 0 0 1-2.198-1.701.277.277 0 1 0-.348.43c.72.584 1.466 1.161 2.218 1.716a.269.269 0 0 0 .057.033zm22.718 10.455c.905.209 1.83.4 2.747.568a.277.277 0 0 0 .1-.544 60.463 60.463 0 0 1-2.722-.564.277.277 0 0 0-.125.54zm-18.08-7.347a.277.277 0 0 0 .252-.492 61.8 61.8 0 0 1-2.344-1.495.276.276 0 1 0-.308.46 61.592 61.592 0 0 0 2.364 1.508.26.26 0 0 0 .036.02zm12.657 5.83l.02.008c.883.29 1.786.565 2.685.816a.277.277 0 0 0 .149-.533 60.698 60.698 0 0 1-2.66-.81.277.277 0 0 0-.194.518zm-7.756-3.154a.276.276 0 0 0 .229-.504 61.266 61.266 0 0 1-2.47-1.277.28.28 0 0 0-.375.11.277.277 0 0 0 .11.376 61.82 61.82 0 0 0 2.506 1.295zm3.1 1.409c.664.28 1.348.555 2.033.815a.276.276 0 0 0 .357-.16c.054-.143-.01-.308-.16-.357a60.992 60.992 0 0 1-2.576-1.048l-.002-.001a.277.277 0 0 0-.218.509c.188.082.374.165.565.242z"/></g></g><g opacity=".55"><g opacity=".55"><path fill="#91b3fa" d="M174.044 75.957a.277.277 0 0 1-.16-.325c.116-.448.237-.895.363-1.34a.277.277 0 0 1 .532.15c-.124.441-.244.885-.36 1.329a.277.277 0 0 1-.375.186z"/></g></g></g><g opacity=".55"><g opacity=".55"><g opacity=".55"><path fill="#91b3fa" d="M202.221 38.478a.276.276 0 0 1-.033-.493c.398-.236.8-.466 1.206-.693a.277.277 0 0 1 .27.483c-.401.225-.8.454-1.194.686a.277.277 0 0 1-.249.017z"/></g></g><g opacity=".55"><g opacity=".55"><path fill="#91b3fa" d="M253.903 33.544a.277.277 0 0 1 .2-.516c.864.309 1.731.641 2.58.988h.002a.277.277 0 0 1-.213.512 61.947 61.947 0 0 0-2.57-.984zm7.556 3.288l-.02-.01a62.08 62.08 0 0 0-2.458-1.202.276.276 0 0 1-.135-.367c.064-.14.233-.206.367-.136.83.384 1.665.792 2.48 1.214a.277.277 0 0 1-.234.501zm-12.81-4.904a.277.277 0 0 1 .178-.523c.888.23 1.781.483 2.657.752a.277.277 0 1 1-.163.53 61.495 61.495 0 0 0-2.633-.746.281.281 0 0 1-.038-.013zm17.573 7.643a.292.292 0 0 1-.042-.021 61.027 61.027 0 0 0-2.34-1.417.277.277 0 0 1 .276-.48c.797.458 1.591.94 2.362 1.43a.277.277 0 0 1-.256.488zm-22.949-8.781a.276.276 0 0 1 .153-.528c.907.15 1.82.321 2.713.511a.276.276 0 1 1-.115.541 60.637 60.637 0 0 0-2.688-.506.275.275 0 0 1-.063-.018zm27.387 11.899a61.708 61.708 0 0 0-2.204-1.62.277.277 0 0 1 .317-.453 61.568 61.568 0 0 1 2.225 1.635.276.276 0 1 1-.338.438zm-32.844-12.547a.278.278 0 0 1 .128-.532c.918.068 1.842.156 2.748.264a.277.277 0 0 1-.065.55 60.179 60.179 0 0 0-2.724-.261.285.285 0 0 1-.087-.021zm37.105 16.125a.272.272 0 0 1-.08-.051 61.906 61.906 0 0 0-2.051-1.81.276.276 0 1 1 .357-.423c.7.59 1.396 1.204 2.069 1.826a.277.277 0 0 1-.295.458zM232.322 29.99a.277.277 0 0 1 .103-.533 60.71 60.71 0 0 1 2.761.015.277.277 0 1 1-.015.554 60.447 60.447 0 0 0-2.736-.015.267.267 0 0 1-.113-.021zM278.688 50.1a61.192 61.192 0 0 0-1.88-1.986.277.277 0 1 1 .393-.39 62.38 62.38 0 0 1 1.898 2.005.277.277 0 0 1-.411.371zm-51.851-19.768a.277.277 0 0 1 .078-.53 61 61 0 0 1 2.75-.235.277.277 0 1 1 .035.552c-.904.057-1.82.135-2.726.233a.272.272 0 0 1-.137-.02zm55.446 24.073a.27.27 0 0 1-.114-.089 60.537 60.537 0 0 0-1.693-2.147.277.277 0 0 1 .427-.352 60.93 60.93 0 0 1 1.709 2.167.276.276 0 0 1-.33.42zm-60.878-23.238a.276.276 0 0 1 .054-.527c.9-.18 1.814-.341 2.719-.48a.277.277 0 0 1 .084.547 60.82 60.82 0 0 0-2.695.476.275.275 0 0 1-.162-.016zm63.978 27.77a.272.272 0 0 1-.127-.11 61.07 61.07 0 0 0-1.492-2.29.277.277 0 0 1 .457-.312 60.355 60.355 0 0 1 1.505 2.311.277.277 0 0 1-.343.401zm-69.317-26.455a.276.276 0 0 1 .029-.52 61.11 61.11 0 0 1 2.669-.72.276.276 0 1 1 .132.537 60.787 60.787 0 0 0-2.645.714.276.276 0 0 1-.185-.01zm71.996 31.247a.276.276 0 0 1-.14-.13 60.844 60.844 0 0 0-1.279-2.416.277.277 0 0 1 .483-.27c.446.799.88 1.619 1.291 2.437a.277.277 0 0 1-.355.38zm-77.195-29.466a.276.276 0 0 1 .006-.512 61.568 61.568 0 0 1 2.592-.953.277.277 0 0 1 .18.524c-.86.293-1.723.611-2.569.944a.275.275 0 0 1-.209-.003zm79.431 34.482a.276.276 0 0 1-.15-.154 62.087 62.087 0 0 0-1.057-2.522.277.277 0 1 1 .505-.226c.372.834.73 1.69 1.067 2.546a.276.276 0 0 1-.365.356zM205.85 36.503a.277.277 0 0 1-.017-.503c.82-.41 1.66-.808 2.496-1.181a.276.276 0 1 1 .226.505 60.9 60.9 0 0 0-2.473 1.171.276.276 0 0 1-.232.008zm86.23 37.441a.275.275 0 0 1-.158-.177 62.31 62.31 0 0 0-.829-2.607.276.276 0 1 1 .523-.18c.297.866.579 1.75.837 2.63a.277.277 0 0 1-.373.334zm1.314 5.34a.276.276 0 0 1-.164-.201 62.053 62.053 0 0 0-.595-2.672.277.277 0 1 1 .537-.132c.22.892.422 1.799.601 2.695a.277.277 0 0 1-.379.31zm.835 5.433a.277.277 0 0 1-.168-.225 61.03 61.03 0 0 0-.354-2.714.277.277 0 0 1 .547-.084c.139.907.26 1.828.357 2.738a.276.276 0 0 1-.382.285zm.343 5.487a.276.276 0 0 1-.169-.25 59.964 59.964 0 0 0-.109-2.735.277.277 0 1 1 .553-.034c.057.917.094 1.846.11 2.76a.276.276 0 0 1-.385.259zm-.154 5.494a.276.276 0 0 1-.168-.275c.066-.908.113-1.827.138-2.733a.277.277 0 1 1 .554.016 61.663 61.663 0 0 1-.14 2.758.277.277 0 0 1-.384.234zm-.65 5.458a.277.277 0 0 1-.165-.3c.148-.895.277-1.807.385-2.709a.277.277 0 1 1 .55.066c-.109.91-.24 1.83-.388 2.734a.277.277 0 0 1-.382.21zm-1.139 5.377a.277.277 0 0 1-.16-.324c.228-.88.44-1.777.627-2.664a.277.277 0 1 1 .542.115c-.19.895-.402 1.8-.633 2.688a.277.277 0 0 1-.376.185z"/></g></g><g opacity=".55"><g opacity=".55"><path fill="#91b3fa" d="M291.448 110.521a.277.277 0 0 1-.155-.342c.145-.435.285-.873.42-1.311a.277.277 0 0 1 .53.163c-.137.443-.278.884-.424 1.323a.277.277 0 0 1-.371.167z"/></g></g></g></g><g opacity=".55"><g opacity=".55"><g opacity=".55"><path fill="#91b3fa" d="M132.414 103.443a13.58 13.58 0 0 0 5.51 1.062 13.591 13.591 0 0 0 6.959-2.042 1.107 1.107 0 0 0-1.17-1.881 11.37 11.37 0 0 1-5.824 1.708 11.317 11.317 0 0 1-8.112-3.209 11.322 11.322 0 0 1-3.466-8.005 11.323 11.323 0 0 1 3.209-8.111 11.322 11.322 0 0 1 8.004-3.466c6.283-.1 11.478 4.93 11.578 11.213a11.45 11.45 0 0 1-.217 2.418 1.107 1.107 0 1 0 2.172.432c.188-.944.275-1.915.26-2.885-.12-7.504-6.323-13.513-13.828-13.393a13.523 13.523 0 0 0-9.56 4.14 13.522 13.522 0 0 0-3.833 9.688 13.52 13.52 0 0 0 4.14 9.56 13.602 13.602 0 0 0 4.178 2.771zm-9.296-2.34l-.331-.515a17.708 17.708 0 0 1-2.283-5.266l-.148-.592-4.175-1.365-.066-4.11 4.13-1.497.13-.597a17.694 17.694 0 0 1 2.112-5.336l.314-.525-1.988-3.92 2.86-2.952 3.98 1.862.514-.33a17.687 17.687 0 0 1 5.266-2.283l.593-.149 1.365-4.175 4.109-.065 1.498 4.13.597.129a17.69 17.69 0 0 1 5.336 2.113l.524.313 3.92-1.987 2.952 2.859-1.861 3.981.33.514a17.687 17.687 0 0 1 2.282 5.266l.15.592 4.174 1.366.066 4.109-4.129 1.498-.13.597a17.686 17.686 0 0 1-2.113 5.336l-.314.524 1.988 3.92-2.859 2.952-3.982-1.862-.514.33a17.688 17.688 0 0 1-5.265 2.283l-.593.149-1.365 4.175-4.11.066-1.497-4.13-.597-.129a17.707 17.707 0 0 1-5.336-2.113l-.524-.315-3.92 1.989-2.952-2.86zm.382 9.1c.39.164.84.155 1.231-.042l3.318-1.683a19.93 19.93 0 0 0 4.867 1.927l1.269 3.496c.212.585.774.972 1.397.962l5.182-.082a1.462 1.462 0 0 0 1.366-1.008l1.156-3.534a19.893 19.893 0 0 0 4.802-2.081l3.37 1.574a1.448 1.448 0 0 0 1.67-.306l3.605-3.722a1.463 1.463 0 0 0 .255-1.68l-1.683-3.317a19.89 19.89 0 0 0 1.928-4.868l3.495-1.268c.585-.212.972-.774.963-1.397l-.083-5.181a1.466 1.466 0 0 0-1.006-1.367l-3.535-1.156a19.889 19.889 0 0 0-2.082-4.803l1.576-3.37a1.464 1.464 0 0 0-.308-1.67l-3.722-3.605a1.46 1.46 0 0 0-1.679-.254l-3.318 1.682a19.906 19.906 0 0 0-4.867-1.927l-1.268-3.495a1.464 1.464 0 0 0-1.398-.963l-5.18.083a1.461 1.461 0 0 0-1.368 1.007l-1.156 3.534a19.887 19.887 0 0 0-4.803 2.082l-3.37-1.576a1.469 1.469 0 0 0-1.67.308l-3.605 3.722a1.463 1.463 0 0 0-.254 1.679l1.683 3.318a19.884 19.884 0 0 0-1.928 4.867l-3.494 1.268a1.464 1.464 0 0 0-.964 1.398l.083 5.182a1.46 1.46 0 0 0 1.008 1.366l3.534 1.155a19.866 19.866 0 0 0 2.081 4.803l-1.575 3.37a1.46 1.46 0 0 0 .307 1.67l3.723 3.606c.133.128.285.227.447.295z"/></g></g><g opacity=".55"><g opacity=".55"><path fill="#91b3fa" d="M139.147 87.744a3.476 3.476 0 0 1 2.018 2.311c.243.901.12 1.843-.345 2.652a3.473 3.473 0 0 1-2.12 1.631 3.46 3.46 0 0 1-2.265-.153 3.475 3.475 0 0 1-2.017-2.311 3.498 3.498 0 0 1 2.464-4.284 3.457 3.457 0 0 1 2.265.154zm-3.573 8.48a5.65 5.65 0 0 0 3.703.252 5.67 5.67 0 0 0 3.463-2.664 5.67 5.67 0 0 0 .564-4.333 5.677 5.677 0 0 0-3.296-3.776 5.653 5.653 0 0 0-3.702-.25 5.715 5.715 0 0 0-4.026 6.997 5.674 5.674 0 0 0 3.294 3.775z"/></g></g><g opacity=".55"><g opacity=".55"><g opacity=".55"><path fill="#91b3fa" d="M152.626 114.643a.276.276 0 0 1-.041-.489 27.84 27.84 0 0 0 1.136-.764.277.277 0 0 1 .32.45c-.378.27-.765.53-1.159.781a.277.277 0 0 1-.256.022z"/></g></g><g opacity=".55"><g opacity=".55"><path fill="#91b3fa" d="M109.896 90.708a.276.276 0 0 1-.17-.26c.017-.957.085-1.924.2-2.874a.277.277 0 0 1 .55.067c-.113.93-.18 1.878-.196 2.817a.277.277 0 0 1-.384.25zm.486 5.678a.278.278 0 0 1-.165-.204 28.4 28.4 0 0 1-.393-2.855.277.277 0 0 1 .551-.047c.08.934.21 1.876.386 2.798a.277.277 0 0 1-.38.308zm1.626 5.46a.277.277 0 0 1-.148-.149 28.32 28.32 0 0 1-.961-2.715.277.277 0 1 1 .53-.158c.268.9.586 1.796.943 2.662a.276.276 0 0 1-.364.36zm35.523 15.348a.277.277 0 0 1 .01-.514 27.306 27.306 0 0 0 2.587-1.133.277.277 0 1 1 .248.496c-.856.428-1.744.817-2.64 1.156a.277.277 0 0 1-.205-.005zm-32.82-10.334a.27.27 0 0 1-.12-.1 27.944 27.944 0 0 1-1.496-2.46.277.277 0 0 1 .487-.263c.445.825.938 1.637 1.466 2.412a.276.276 0 0 1-.337.411zm27.312 11.798a.276.276 0 0 1 .064-.528 27.865 27.865 0 0 0 2.764-.587.277.277 0 1 1 .142.535c-.929.247-1.877.448-2.819.598a.276.276 0 0 1-.15-.018zm-23.636-7.445a.281.281 0 0 1-.085-.056 28.449 28.449 0 0 1-1.97-2.102.277.277 0 0 1 .424-.358c.605.717 1.255 1.41 1.93 2.061a.277.277 0 0 1-.3.455zm17.946 7.76a.276.276 0 0 1 .12-.532c.937.045 1.887.042 2.825-.01a.277.277 0 0 1 .03.553c-.956.052-1.926.057-2.88.01a.284.284 0 0 1-.095-.02zm-13.46-4.249a.249.249 0 0 1-.04-.02 28.186 28.186 0 0 1-2.356-1.658.277.277 0 1 1 .342-.435 27.812 27.812 0 0 0 2.31 1.624.276.276 0 0 1-.255.49zm7.826 3.388a.277.277 0 0 1 .178-.523c.91.237 1.842.429 2.766.57a.277.277 0 1 1-.083.547 28.146 28.146 0 0 1-2.822-.581.341.341 0 0 1-.039-.013zm-3.806-1.292a28.01 28.01 0 0 1-1.547-.709.276.276 0 0 1-.125-.37.274.274 0 0 1 .371-.126c.835.415 1.708.792 2.592 1.122.143.064.216.214.163.357a.277.277 0 0 1-.357.162 29.873 29.873 0 0 1-1.097-.436z"/></g></g><g opacity=".55"><g opacity=".55"><path fill="#91b3fa" d="M110.59 85.027a.277.277 0 0 1-.162-.317c.105-.454.22-.905.347-1.353a.277.277 0 0 1 .532.15c-.123.439-.236.882-.339 1.327a.277.277 0 0 1-.378.193z"/></g></g></g><g opacity=".55"><g opacity=".55"><g opacity=".55"><path fill="#91b3fa" d="M123.556 67.286a.277.277 0 0 1-.033-.493c.4-.236.807-.463 1.221-.68a.277.277 0 1 1 .257.49c-.405.213-.805.435-1.197.666a.277.277 0 0 1-.248.017z"/></g></g><g opacity=".55"><g opacity=".55"><path fill="#91b3fa" d="M151.66 67.21a.428.428 0 0 1-.033-.015 27.627 27.627 0 0 0-2.468-1.276.277.277 0 0 1-.138-.367.279.279 0 0 1 .367-.137c.857.39 1.704.827 2.518 1.301a.277.277 0 0 1-.247.495zm-7.805-3.084a.277.277 0 0 1 .17-.525c.918.21 1.835.47 2.727.772.152.05.223.205.174.35a.277.277 0 0 1-.351.174 27.707 27.707 0 0 0-2.674-.756.29.29 0 0 1-.046-.015zm12.34 6.377a.273.273 0 0 1-.076-.048 27.842 27.842 0 0 0-2.164-1.743.276.276 0 1 1 .326-.448c.76.553 1.503 1.15 2.207 1.778a.277.277 0 0 1-.292.461zm-17.904-7.067a.277.277 0 0 1 .114-.532c.942.02 1.893.09 2.828.206a.277.277 0 1 1-.069.549 27.514 27.514 0 0 0-2.77-.201.278.278 0 0 1-.103-.022zm21.688 11.202a.28.28 0 0 1-.115-.09 27.353 27.353 0 0 0-1.768-2.142.277.277 0 0 1 .408-.373 27.903 27.903 0 0 1 1.805 2.185.277.277 0 0 1-.33.42zm-27.277-10.754a.277.277 0 0 1 .058-.527c.927-.17 1.873-.295 2.81-.37a.276.276 0 1 1 .045.552c-.919.074-1.846.196-2.755.362a.27.27 0 0 1-.158-.017zM162.85 79.45a.275.275 0 0 1-.143-.138 27.554 27.554 0 0 0-1.299-2.454.277.277 0 1 1 .476-.284c.481.809.928 1.651 1.325 2.504a.277.277 0 0 1-.359.372zM127.315 65.44a.277.277 0 0 1 .005-.512c.87-.349 1.773-.659 2.68-.92a.277.277 0 0 1 .154.531c-.89.257-1.774.56-2.628.903a.278.278 0 0 1-.21-.002zm37.38 19.305a.275.275 0 0 1-.161-.19 28.118 28.118 0 0 0-.782-2.667.277.277 0 0 1 .522-.183 28.508 28.508 0 0 1 .798 2.72.276.276 0 0 1-.377.32zm.756 5.556a.276.276 0 0 1-.17-.246 27.702 27.702 0 0 0-.234-2.77.277.277 0 0 1 .548-.074c.127.932.208 1.883.24 2.825a.276.276 0 0 1-.384.265zm-.381 5.592a.276.276 0 0 1-.165-.302c.156-.91.266-1.838.33-2.759a.277.277 0 0 1 .552.038c-.064.94-.178 1.886-.336 2.815a.277.277 0 0 1-.381.208z"/></g></g><g opacity=".55"><g opacity=".55"><path fill="#91b3fa" d="M164.045 99.977a.277.277 0 0 1-.155-.342c.144-.433.278-.87.4-1.31a.277.277 0 1 1 .534.15c-.125.448-.261.894-.408 1.335a.277.277 0 0 1-.35.175l-.021-.007z"/></g></g></g></g></g><g><g><g><path fill="#bdd0fb" d="M155.133 444.78c-26.239 5.247-59.747-23.36-70.541-54.612-11.11-32.161 9.259-45.634 9.102-90.263-.179-50.696-26.55-58.337-43.994-126.671-3.936-15.418-26.71-104.638 1.517-121.362 26.1-15.463 99.41 28.914 112.26 85.712 9.162 40.5-19.16 57.504-8.344 104.675 9.492 41.388 34.437 41.987 43.994 81.919 11.635 48.613-9.542 113.715-43.994 120.603z"/></g><g><path fill="#91b3fa" d="M153.228 457.063c7.073-54.62-6.726-138.889-19.547-199.963-13.881-66.123-29.636-120.058-29.793-120.595l-2.184.64c.157.537 15.89 54.4 29.754 120.439 12.783 60.896 26.545 144.885 19.512 199.187z"/></g></g><g><g><path fill="#91b3fa" d="M139.792 443.889c32.345-16.853 43.416-74.725 25.03-93.533-12.423-12.708-30.238.659-47.425-12.515-21.944-16.82-5.802-48.497-23.054-89.58-14.682-34.963-49.899-68.046-70.479-61.258-21.542 7.106-32.889 59.827-14.49 91.557 11.964 20.634 30.278 21.647 34.25 40.838 4.611 22.268-17.662 32.423-17.783 54.012-.219 38.78 71.162 92.774 113.951 70.479z"/></g><g><path fill="#7d97f4" d="M122.338 458.71a1.317 1.317 0 0 0 1.184-1.893c-42.88-88.36-55.454-190.864-55.576-191.89a1.317 1.317 0 1 0-2.616.312c.123 1.03 12.75 103.974 55.822 192.728.228.469.697.742 1.186.742z"/></g><g><path fill="#bdd0fb" d="M34.363 291.6a.756.756 0 0 1-.597-.291c-13.715-17.605-28.907-44.091-23.398-70.297 3.31-15.75 12.422-23.783 12.808-24.117a.755.755 0 1 1 .99 1.143c-.091.08-9.155 8.093-12.338 23.38-5.334 25.61 9.635 51.637 23.132 68.962a.756.756 0 0 1-.597 1.22z"/></g><g><path fill="#f0f0f0" d="M142.708 436.3a.756.756 0 0 1-.623-1.184c20.515-29.94 27.564-52.95 20.952-68.389-5.76-13.447-20.303-15.95-20.45-15.974a.756.756 0 0 1 .243-1.493c.155.025 15.513 2.669 21.596 16.872 6.83 15.946-.267 39.443-21.093 69.838a.754.754 0 0 1-.625.33z"/></g></g></g><g><g><g><path fill="#bdd0fb" d="M595.039 449.2c19.026 7.194 47.709-10.097 59.686-32.194 12.326-22.74-1.276-35.375 4.385-68.825 6.432-37.998 27.158-40.452 48.728-89.533 4.867-11.074 33.03-75.156 13.938-91.205-17.654-14.838-78.145 9.336-94.837 50.336-11.902 29.235 7.227 45.506-6.745 79.538-12.259 29.861-31.04 27.212-43.169 55.972-14.764 35.012-6.969 86.466 18.014 95.912z"/></g><g><path fill="#91b3fa" d="M594.942 458.648c1.48-41.842 22.296-103.325 39.497-147.535 18.624-47.866 37.138-86.358 37.323-86.741l1.558.752c-.185.382-18.674 38.823-37.274 86.628-17.15 44.081-37.904 105.36-39.375 146.958z"/></g></g><g><g><path fill="#91b3fa" d="M642.303 445.201c-23.957-12.483-32.158-55.35-18.54-69.281 9.202-9.413 22.398.488 35.129-9.27 16.254-12.459 4.297-35.923 17.076-66.354 10.875-25.897 36.961-50.402 52.205-45.374 15.956 5.264 24.36 44.315 10.733 67.818-8.862 15.284-22.428 16.034-25.37 30.249-3.415 16.494 13.083 24.016 13.173 40.007.162 28.725-52.71 68.72-84.406 52.205z"/></g><g><path fill="#7d97f4" d="M655.232 456.178a.976.976 0 0 1-.877-1.402c31.762-65.448 41.075-141.374 41.166-142.134a.975.975 0 1 1 1.938.231c-.091.762-9.445 77.015-41.35 142.755a.974.974 0 0 1-.877.55z"/></g><g><path fill="#bdd0fb" d="M720.396 332.305a.467.467 0 0 1-.368-.753c10.025-12.868 21.137-32.202 17.137-51.228-2.382-11.33-9.087-17.24-9.154-17.299a.467.467 0 0 1 .61-.704c.285.246 7.011 6.176 9.457 17.812 2.248 10.694 1.07 28.395-17.313 51.992a.468.468 0 0 1-.37.18z"/></g><g><path fill="#bdd0fb" d="M640.144 439.486a.467.467 0 0 1-.386-.203c-15.407-22.486-20.66-39.86-15.615-51.64 4.485-10.474 15.811-12.423 15.926-12.442a.467.467 0 0 1 .149.921c-.109.018-10.946 1.896-15.223 11.899-4.903 11.467.323 28.537 15.533 50.735a.466.466 0 0 1-.384.73z"/></g></g></g><g><g><path fill="url(#2ud0b)" d="M352.54 454.336v-44.607h44.606v44.607z"/></g><g><g><path fill="url(#2ud0c)" d="M129.41 409.698c0 4.823 3.95 8.77 8.778 8.77h474.675c4.828 0 8.778-3.947 8.778-8.77l3.95-272.783c0-4.823-5.682-14.24-16.097-13.532L145.59 111.38a22.142 22.142 0 0 0-16.204 6.45 22.098 22.098 0 0 0-6.494 16.174z"/></g><g><path fill="url(#2ud0d)" d="M138.076 396.268c0 4.491 3.737 8.166 8.304 8.166h455.036c4.568 0 8.305-3.675 8.305-8.166l3.727-243.502c-.439-14.654-13.504-19.92-21.424-19.61L147.4 121.428a15.666 15.666 0 0 0-11.385 4.457 15.133 15.133 0 0 0-4.551 11.187z"/></g><g><g><path fill="#91b3fa" d="M604.803 283.549h-.017a1.126 1.126 0 0 1-1.108-1.142l.294-20.083c.01-.621.52-1.073 1.142-1.109a1.125 1.125 0 0 1 1.108 1.143l-.295 20.082a1.125 1.125 0 0 1-1.124 1.109z"/></g><g><path fill="#91b3fa" d="M605.526 234.335h-.017a1.126 1.126 0 0 1-1.109-1.142l1.13-76.918c-.021-4.596-1.417-8.266-4.15-10.884-5.093-4.88-13.172-4.627-13.518-4.617l-142.102-3.81a1.125 1.125 0 1 1 .06-2.25l142.025 3.81c.88-.04 9.415-.197 15.091 5.241 3.19 3.058 4.82 7.27 4.845 12.522l-1.13 76.94a1.126 1.126 0 0 1-1.125 1.108z"/></g></g></g><g><path fill="url(#2ud0e)" d="M480.17 446.775H269.435c-4.155 0-7.523 3.214-7.523 7.369 0 3.531 2.863 6.24 6.394 6.24H480.17c3.531 0 6.189-3.146 6.189-6.677v-1.129c0-3.531-2.658-5.803-6.19-5.803z"/></g></g><g><g><path fill="#91b3fa" d="M287.65 239.28l-50.085-2.606c-4.09-.213-7.354 2.976-7.238 7.097l1.295 46.06c.106 3.764 3.362 6.64 7.228 6.449l47.559-2.35c3.224-.159 5.886-3.017 5.981-6.405l1.16-41.259c.103-3.674-2.52-6.811-5.9-6.987z"/></g><g><path fill="url(#2ud0f)" d="M246.432 282.075c-1.093 0-2.159-.42-2.958-1.173a4.327 4.327 0 0 1-1.356-3.139V251.59a1.337 1.337 0 1 1 2.674 0v26.173c0 .456.182.88.515 1.193.331.312.766.467 1.22.442l31.017-1.846a1.642 1.642 0 0 0 1.542-1.636V250.22c0-.47-.192-.9-.54-1.214a1.61 1.61 0 0 0-1.261-.417l-25.801 2.555a1.612 1.612 0 0 0-1.334.96c-.116.26-.334.94.169 1.633l9.84 13.58c.308.427.787.673 1.313.678h.015c.52 0 .997-.238 1.31-.655l10.84-14.442a1.337 1.337 0 0 1 2.138 1.604l-10.84 14.443c-.832 1.107-2.075 1.754-3.484 1.723a4.272 4.272 0 0 1-3.457-1.782l-9.84-13.58a4.266 4.266 0 0 1-.442-4.299 4.266 4.266 0 0 1 3.508-2.523l25.8-2.555a4.328 4.328 0 0 1 3.322 1.095 4.32 4.32 0 0 1 1.417 3.196v25.697a4.317 4.317 0 0 1-4.056 4.304l-31.016 1.847c-.085.005-.17.008-.255.008z"/></g></g><g><g><path fill="#91b3fa" d="M530.913 244.028l-.649 40.19a4.555 4.555 0 0 0 4.554 4.628h46.27a4.555 4.555 0 0 0 4.556-4.555v-40.189a4.555 4.555 0 0 0-4.555-4.555h-45.62a4.555 4.555 0 0 0-4.556 4.481z"/></g><g><g><path fill="url(#2ud0g)" d="M557.83 246.625c.291 0 .584.006.878.019 9.913.437 17.652 8.25 17.252 17.418-.194 4.422-2.234 8.503-5.743 11.49-3.538 3.013-8.144 4.55-12.963 4.342-9.913-.437-17.652-8.25-17.251-17.418.193-4.421 2.232-8.502 5.742-11.49 3.323-2.83 7.585-4.361 12.085-4.361zm.303 36.02c5.148 0 10.035-1.761 13.854-5.012 4.095-3.486 6.475-8.263 6.702-13.452.466-10.671-8.443-19.762-19.861-20.265-5.509-.24-10.788 1.528-14.853 4.99-4.095 3.485-6.474 8.262-6.701 13.452-.467 10.67 8.442 19.761 19.86 20.265.334.015.666.022 1 .022z"/></g><g><g><g><path fill="url(#2ud0h)" d="M562.693 263.356a61.87 61.87 0 0 1-.175 4.744 49.74 49.74 0 0 1-.566 4.71c-.135.78-.291 1.555-.48 2.323a22.377 22.377 0 0 1-.673 2.27c-.27.74-.585 1.467-1.01 2.127a4.14 4.14 0 0 1-.747.891 2.103 2.103 0 0 1-.479.316c-.172.08-.358.13-.546.134a1.339 1.339 0 0 1-.553-.105 1.97 1.97 0 0 1-.489-.298 3.958 3.958 0 0 1-.764-.876c-.431-.655-.75-1.381-1.023-2.12-.272-.74-.492-1.5-.682-2.267a33.634 33.634 0 0 1-.484-2.32 48.663 48.663 0 0 1-.57-4.711 61.862 61.862 0 0 1-.166-4.743 72.743 72.743 0 0 1 .132-4.746c.1-1.58.257-3.156.499-4.72.12-.782.264-1.56.438-2.332.173-.771.377-1.536.632-2.284.127-.373.268-.743.427-1.103.16-.36.34-.712.55-1.044.211-.33.453-.644.753-.894.15-.124.313-.23.492-.304.179-.073.371-.113.564-.106.193.005.382.057.558.136.176.08.339.19.489.315.3.25.55.557.772.88.44.653.773 1.374 1.06 2.11.284.736.517 1.492.72 2.256.201.765.37 1.537.517 2.315a45.83 45.83 0 0 1 .616 4.704c.131 1.577.19 3.16.188 4.742zm.234 0c-.009-3.176-.258-6.359-.87-9.48a32.656 32.656 0 0 0-.544-2.32 21.848 21.848 0 0 0-.75-2.262c-.297-.737-.64-1.461-1.094-2.118a4.354 4.354 0 0 0-.798-.89 2.282 2.282 0 0 0-.51-.32 1.566 1.566 0 0 0-.586-.138 1.447 1.447 0 0 0-.593.106 1.98 1.98 0 0 0-.517.31 3.91 3.91 0 0 0-.78.907 8.199 8.199 0 0 0-.569 1.05c-.165.363-.31.734-.443 1.108-.265.75-.478 1.518-.661 2.291a35.706 35.706 0 0 0-.465 2.337 52.736 52.736 0 0 0-.552 4.733 67.262 67.262 0 0 0-.178 4.76c.009 1.59.074 3.179.203 4.762.131 1.584.325 3.163.609 4.727.142.781.307 1.56.504 2.33a22.1 22.1 0 0 0 .706 2.28c.281.743.609 1.476 1.056 2.142.225.33.48.646.798.9.158.127.332.237.523.313a1.497 1.497 0 0 0 1.2-.03c.188-.084.358-.2.512-.33.31-.263.56-.582.781-.915.44-.671.763-1.406 1.042-2.15.276-.748.502-1.511.697-2.282.195-.771.36-1.55.5-2.331.558-3.131.774-6.314.78-9.49z"/></g><g><path fill="url(#2ud0i)" d="M557.734 246.36h.027a.993.993 0 0 1 .38.095c.125.058.255.142.384.25.233.194.451.443.685.784.363.538.685 1.18 1.012 2.016a21.1 21.1 0 0 1 .704 2.208c.191.724.358 1.47.51 2.282.272 1.456.472 2.98.61 4.657.126 1.525.189 3.107.186 4.703v.001c0 1.603-.058 3.187-.174 4.71a48.587 48.587 0 0 1-.561 4.665 33.547 33.547 0 0 1-.472 2.29 21.865 21.865 0 0 1-.659 2.222c-.31.849-.616 1.496-.962 2.034-.226.346-.436.598-.662.793a1.64 1.64 0 0 1-.372.246.945.945 0 0 1-.369.093.982.982 0 0 1-.365-.072 1.503 1.503 0 0 1-.37-.228c-.23-.187-.443-.433-.67-.773-.353-.535-.663-1.178-.976-2.024a21.24 21.24 0 0 1-.667-2.218 33.258 33.258 0 0 1-.478-2.29 48.195 48.195 0 0 1-.564-4.665 61.725 61.725 0 0 1-.164-4.71c-.003-1.733.04-3.276.132-4.715a51.42 51.42 0 0 1 .493-4.678c.129-.825.27-1.578.432-2.3.188-.835.39-1.567.618-2.236.136-.397.271-.745.414-1.065.166-.376.335-.698.516-.983.222-.347.432-.598.658-.787.127-.105.252-.183.375-.233a.915.915 0 0 1 .35-.072zm.24 35.1l.054-.002a1.97 1.97 0 0 0 .779-.182c.212-.096.413-.226.62-.399.305-.26.58-.581.868-1.014.396-.605.741-1.318 1.087-2.243.26-.704.494-1.466.713-2.33.188-.744.354-1.517.507-2.363.524-2.943.781-6.073.786-9.57v-.002c-.01-3.475-.297-6.605-.88-9.568a32.512 32.512 0 0 0-.552-2.354 21.975 21.975 0 0 0-.766-2.313c-.367-.91-.73-1.611-1.144-2.21a4.739 4.739 0 0 0-.885-.985 2.71 2.71 0 0 0-.614-.382 2.004 2.004 0 0 0-.755-.177 1.919 1.919 0 0 0-.78.138c-.215.085-.429.213-.638.382-.312.254-.59.576-.876 1.012a8.528 8.528 0 0 0-.6 1.111c-.16.346-.31.722-.46 1.146a22.815 22.815 0 0 0-.674 2.338c-.176.743-.33 1.518-.472 2.369a52.67 52.67 0 0 0-.557 4.773 67.135 67.135 0 0 0-.179 4.798c.009 1.628.077 3.242.205 4.797.141 1.712.342 3.272.614 4.772.155.846.322 1.62.512 2.362.221.864.456 1.626.72 2.329.35.923.701 1.633 1.107 2.24.292.429.576.747.893 1.001.21.168.42.293.637.38.236.095.49.145.73.145z"/></g></g><g><g><path fill="url(#2ud0j)" d="M570.64 263.356a22.983 22.983 0 0 1-.79 5.997c-.535 1.948-1.342 3.828-2.45 5.518a15.85 15.85 0 0 1-1.886 2.364 13.185 13.185 0 0 1-2.334 1.917c-.851.54-1.771.971-2.734 1.266-.963.294-1.968.45-2.975.454a10.324 10.324 0 0 1-2.974-.457 11.289 11.289 0 0 1-2.733-1.268 13.136 13.136 0 0 1-2.33-1.919 15.794 15.794 0 0 1-1.883-2.363c-1.106-1.69-1.91-3.57-2.443-5.517a22.2 22.2 0 0 1-.589-2.97 23.87 23.87 0 0 1-.199-3.022c.003-1.01.067-2.02.197-3.022a22.29 22.29 0 0 1 .587-2.971c.532-1.948 1.335-3.829 2.44-5.52a15.83 15.83 0 0 1 1.883-2.366 13.171 13.171 0 0 1 2.33-1.923c.851-.541 1.77-.977 2.735-1.272.964-.296 1.97-.451 2.979-.455 1.008.003 2.015.158 2.98.452.964.294 1.884.73 2.737 1.27.85.544 1.628 1.198 2.333 1.921.704.724 1.333 1.52 1.887 2.366 1.107 1.692 1.912 3.574 2.446 5.522.532 1.952.783 3.976.786 5.998zm-.554-6.062c-.556-1.967-1.394-3.859-2.53-5.557a16.009 16.009 0 0 0-1.931-2.37 13.523 13.523 0 0 0-2.375-1.917 11.48 11.48 0 0 0-2.77-1.267 10.434 10.434 0 0 0-3.009-.453 10.439 10.439 0 0 0-3.01.45c-.975.294-1.908.725-2.772 1.265a13.536 13.536 0 0 0-2.378 1.916 15.98 15.98 0 0 0-1.934 2.37c-1.14 1.697-1.979 3.59-2.538 5.558-.275.986-.48 1.991-.615 3.005a24.134 24.134 0 0 0-.209 3.062c.005 1.024.072 2.047.207 3.062.135 1.015.339 2.02.613 3.006.558 1.97 1.396 3.863 2.534 5.563a16.02 16.02 0 0 0 1.934 2.372c.72.724 1.515 1.374 2.379 1.919.864.542 1.798.976 2.775 1.27a10.44 10.44 0 0 0 3.014.448 10.44 10.44 0 0 0 3.013-.45 11.43 11.43 0 0 0 2.773-1.273 13.558 13.558 0 0 0 2.376-1.92 16.007 16.007 0 0 0 1.93-2.373c1.135-1.7 1.972-3.592 2.527-5.56a23.24 23.24 0 0 0 .818-6.064 23.216 23.216 0 0 0-.822-6.062z"/></g><g><path fill="url(#2ud0k)" d="M557.47 246.29c.959.003 1.916.148 2.846.433.9.274 1.783.684 2.624 1.217.783.5 1.54 1.124 2.251 1.854.664.683 1.28 1.456 1.831 2.296 1.039 1.587 1.842 3.4 2.388 5.39a22.52 22.52 0 0 1 .769 5.876 22.508 22.508 0 0 1-.773 5.874c-.547 1.99-1.351 3.802-2.39 5.387a15.399 15.399 0 0 1-1.832 2.294 12.726 12.726 0 0 1-2.25 1.85c-.836.529-1.718.938-2.623 1.214a9.83 9.83 0 0 1-2.838.434 9.823 9.823 0 0 1-2.842-.437 10.84 10.84 0 0 1-2.62-1.215 12.712 12.712 0 0 1-2.247-1.852 15.316 15.316 0 0 1-1.827-2.294c-1.038-1.586-1.84-3.397-2.384-5.385a21.79 21.79 0 0 1-.576-2.907 23.4 23.4 0 0 1-.195-2.962 23.4 23.4 0 0 1 .192-2.963c.132-1.01.325-1.99.574-2.909.544-1.989 1.345-3.801 2.382-5.388a15.369 15.369 0 0 1 1.827-2.298 12.757 12.757 0 0 1 2.247-1.854 10.8 10.8 0 0 1 2.623-1.22 9.838 9.838 0 0 1 2.842-.435zm.001 35.17c1.062-.002 2.12-.16 3.146-.471.995-.3 1.965-.746 2.885-1.324a14.038 14.038 0 0 0 2.457-1.986 16.458 16.458 0 0 0 1.987-2.441c1.128-1.688 1.999-3.604 2.588-5.694.543-1.962.823-4.043.835-6.185v-.005a23.696 23.696 0 0 0-.84-6.186c-.59-2.089-1.462-4.002-2.591-5.689a16.474 16.474 0 0 0-1.987-2.439 13.994 13.994 0 0 0-2.457-1.982 11.918 11.918 0 0 0-2.88-1.319 10.864 10.864 0 0 0-3.144-.472c-1.058.001-2.115.16-3.141.47-1 .301-1.97.744-2.884 1.316a13.954 13.954 0 0 0-2.46 1.98 16.5 16.5 0 0 0-1.991 2.44c-1.13 1.685-2.005 3.6-2.599 5.691a22.61 22.61 0 0 0-.628 3.07 24.616 24.616 0 0 0-.213 3.125c.005 1.051.076 2.101.211 3.12.138 1.042.35 2.075.627 3.072.592 2.09 1.465 4.007 2.594 5.694.6.895 1.27 1.716 1.99 2.44a13.986 13.986 0 0 0 2.462 1.985c.92.578 1.89 1.022 2.886 1.322a10.88 10.88 0 0 0 3.148.467z"/></g></g><g><g><path fill="url(#2ud0l)" d="M541.79 256.376l4.036-.033 4.035-.018 8.071-.015 8.071.016 4.035.02 4.036.036c.006 0 .011.005.011.012 0 0-.005.011-.011.012l-4.036.035-4.035.02-8.071.017-8.07-.015-4.036-.019-4.035-.033c-.01 0-.018-.007-.018-.007 0-.02.008-.028.018-.028z"/></g><g><path fill="url(#2ud0m)" d="M557.933 256.94l-12.109-.033-4.229-.035-.282-.282v-.207l.01-.452.464-.018 8.072-.051 8.073-.015 12.109.037 4.494.04.012.932-.473.012-8.068.056z"/></g></g><g><g><path fill="url(#2ud0n)" d="M546.473 249.591c.954-.015 1.91-.022 2.865-.033l2.864-.018c.955-.008 1.91-.007 2.866-.01l2.864-.005 5.73.016 2.865.02c.956.013 1.91.02 2.865.036.007 0 .012.005.012.005 0 .013-.005.019-.012.019-.955.016-1.91.023-2.865.035l-2.865.02-5.73.017-2.864-.006c-.956-.002-1.91-.001-2.866-.01l-2.864-.018c-.956-.01-1.91-.018-2.865-.032a.018.018 0 0 1-.018-.019c0-.01.008-.017.018-.017z"/></g><g><path fill="url(#2ud0o)" d="M557.934 250.156l-3.61-.007c-.71-.001-1.417-.003-2.125-.009l-3.821-.028c-.638-.007-1.276-.012-1.913-.023l-.454-.007-.017-.936.47-.018c.618-.01 1.235-.015 1.853-.022l3.882-.029c.672-.005 1.345-.007 2.018-.008l3.714-.007 9.643.048c.608.007 1.217.014 1.826.024l.47.008-.022.93-.456.011c-.63.011-1.268.018-1.906.025l-3.821.031z"/></g></g><g><g><path fill="url(#2ud0p)" d="M540.389 263.161l4.386-.033 4.385-.018 8.772-.015 8.772.016 4.386.02 4.386.036c.007 0 .012.005.011.012 0 0-.004.012-.011.012l-4.386.035-4.386.02-8.772.017-8.772-.015-4.385-.019-4.386-.032a.018.018 0 0 1-.018-.018c0-.01.008-.018.018-.018z"/></g><g><path fill="url(#2ud0q)" d="M557.933 263.725l-13.16-.033-4.846-.036-.017-.94.475-.018 8.773-.05 8.774-.016 13.16.037 4.58.036.28.285-.018.652-.458.012-8.77.055z"/></g></g><g><g><path fill="url(#2ud0r)" d="M541.79 269.946l4.036-.032 4.035-.02 8.071-.014 8.071.016 4.035.02 4.036.036c.006 0 .011.005.011.005 0 .013-.005.019-.011.019l-4.036.035-4.035.02-8.071.017-8.07-.015-4.036-.019-4.035-.032a.018.018 0 0 1-.018-.019c0-.009.008-.017.018-.017z"/></g><g><path fill="url(#2ud0s)" d="M557.933 270.51l-12.109-.033-4.229-.034-.282-.282v-.208l.01-.452.464-.018 8.072-.051 8.073-.015 12.109.037 4.494.039.012.934-.473.012-8.068.055z"/></g></g><g><g><path fill="url(#2ud0t)" d="M569.97 276.811h-22.92a.062.062 0 1 1 0-.124h22.92c.034 0 .061.028.061.062a.062.062 0 0 1-.062.062z"/></g><g><path fill="url(#2ud0u)" d="M569.97 277.273h-22.92a.524.524 0 0 1 0-1.049h22.92a.524.524 0 0 1 0 1.05z"/></g></g></g></g></g><g transform="rotate(-45 374.5 241)"><path fill="#7794bf" d="M323.665 241.07c0-28.125 22.8-50.925 50.926-50.925 28.125 0 50.926 22.8 50.926 50.926 0 28.125-22.8 50.926-50.926 50.926s-50.926-22.8-50.926-50.926z"/></g><g><path fill="#ecf0f6" d="M413.185 266.706a.833.833 0 0 1-.701-1.287 44.725 44.725 0 0 0 5.738-13.143.834.834 0 1 1 1.617.414 46.375 46.375 0 0 1-5.952 13.633.833.833 0 0 1-.702.383z"/></g><g><path fill="#ecf0f6" d="M420.46 241.905a.835.835 0 0 1-.834-.835c0-24.831-20.203-45.034-45.035-45.034a.834.834 0 1 1 0-1.67c25.753 0 46.704 20.952 46.704 46.704a.835.835 0 0 1-.834.835z"/></g><g opacity=".86"><path fill="#fff" d="M358.16 267.676a2.649 2.649 0 0 1-2.648-2.578l-1.21-45.176a4.24 4.24 0 0 1 1.927-3.682 4.237 4.237 0 0 1 4.145-.297L405 236.816a4.243 4.243 0 0 1 2.457 3.75 4.244 4.244 0 0 1-2.257 3.877l-39.392 21a2.65 2.65 0 0 1-2.492-4.674l37.57-20.03-41.243-19.289 1.165 43.506a2.65 2.65 0 0 1-2.649 2.72z"/></g><g><g><path fill="#91b3fa" d="M319.534 475.602c-.847 0-1.595-.546-1.74-1.317l-27.495-145.543c-.163-.86.486-1.675 1.449-1.82.963-.144 1.874.435 2.037 1.295l27.494 145.543c.163.86-.486 1.674-1.449 1.82-.099.014-.198.022-.296.022z"/></g><g><path fill="#91b3fa" d="M226.778 475.602c-.116 0-.234-.01-.351-.032-.958-.172-1.577-1.005-1.384-1.86l32.412-143.65c.192-.854 1.123-1.412 2.081-1.235.958.172 1.577 1.005 1.384 1.86l-32.411 143.65c-.17.749-.907 1.267-1.731 1.267z"/></g><g><path fill="#91b3fa" d="M298.555 364.71H251.57c-.976 0-1.768-.707-1.768-1.58 0-.872.792-1.578 1.768-1.578h46.985c.976 0 1.767.706 1.767 1.579 0 .872-.79 1.579-1.767 1.579z"/></g><g><path fill="#91b3fa" d="M297.703 364.71h-45.28c-.94 0-1.704-.707-1.704-1.58 0-.872.763-1.578 1.704-1.578h45.28c.94 0 1.703.706 1.703 1.579 0 .872-.762 1.579-1.703 1.579z"/></g><g><path fill="#91b3fa" d="M298.555 391.026H251.57c-.976 0-1.768-.707-1.768-1.58 0-.872.792-1.578 1.768-1.578h46.985c.976 0 1.767.706 1.767 1.579 0 .872-.79 1.579-1.767 1.579z"/></g><g><path fill="#91b3fa" d="M302.82 391.026H245.86c-.977 0-1.768-.707-1.768-1.58 0-.872.791-1.578 1.768-1.578h56.962c.976 0 1.768.706 1.768 1.579 0 .872-.792 1.579-1.768 1.579z"/></g><g><path fill="#91b3fa" d="M298.555 417.343H251.57c-.976 0-1.768-.707-1.768-1.58 0-.872.792-1.578 1.768-1.578h46.985c.976 0 1.767.706 1.767 1.578 0 .873-.79 1.58-1.767 1.58z"/></g><g><path fill="#91b3fa" d="M308.262 417.343h-68.184c-.976 0-1.768-.707-1.768-1.58 0-.872.792-1.578 1.768-1.578h68.184c.976 0 1.768.706 1.768 1.578 0 .873-.792 1.58-1.768 1.58z"/></g><g><path fill="#91b3fa" d="M298.555 443.658h-63.959c-.976 0-1.767-.706-1.767-1.579 0-.872.791-1.578 1.767-1.578h63.959c.976 0 1.767.706 1.767 1.578 0 .873-.791 1.58-1.767 1.58z"/></g><g><path fill="#91b3fa" d="M312.663 443.658h-78.067c-.976 0-1.767-.706-1.767-1.579 0-.872.791-1.578 1.767-1.578h78.067c.976 0 1.767.706 1.767 1.578 0 .873-.79 1.58-1.767 1.58z"/></g></g><g><path fill="url(#2ud0v)" d="M256.603 380.324s-1.268 1.999-1.587 7.597a.912.912 0 0 0 .906.965h9.92c.399 0 .683-.39.556-.77-.582-1.72-2.339-5.914-6.26-8.31z"/></g><g><path fill="url(#2ud0w)" d="M256.174 376.531l.56 4.705a.885.885 0 0 0 .773.778c.543.062 1.332.106 2.098-.02.696-.115 1.198-.736 1.198-1.442v-4.542z"/></g><g><path fill="url(#2ud0x)" d="M281.145 379.805s-1.899 2.951-1.858 7.002c.01.954.808 1.715 1.762 1.715h15.407c.721 0 1.014-.928.424-1.342-2.916-2.047-8.646-5.872-12.79-7.375z"/></g><g><path fill="url(#2ud0y)" d="M279.56 374.724l1.197 5.81c.134.65.77 1.088 1.417.943a4.322 4.322 0 0 0 1.354-.566c.472-.295.711-.856.615-1.404l-1.238-7.039z"/></g><g><path fill="url(#2ud0z)" d="M258.37 293.942s-4.161 3.668-4.944 8.082c-.784 4.414 2.218 76.15 2.218 76.15s4.161.693 6.306-.606c0 0 2.544-46.558 4.478-57.316 0 0 10.141 48.227 12.95 56.941 0 0 4.01.488 5.302-.275 0 0-2.656-62.516-5.994-73.63z"/></g><g><path fill="url(#2ud0A)" d="M266.31 318.855a.567.567 0 0 1-.549-.424l-1.712-6.566-3.632-2.33a.567.567 0 0 1 .612-.954l3.819 2.45c.12.076.207.196.242.334l1.768 6.78a.567.567 0 0 1-.549.71z"/></g><g><path fill="#1f3962" d="M299.435 252.491c-17.517-1.455-22.095 2.17-22.095 2.17l8.418 13.29s17.212-.34 29.544-9.846c-2.308-2.485-3.91-5.233-4.939-7.371-3.18 1.321-6.842 2.096-10.928 1.757z"/></g><g><path fill="url(#2ud0B)" d="M326.866 226.779c-.024-.561-.785-.714-1.023-.206l-2.235 4.77a4.968 4.968 0 0 0-.397 2.956l.784 2.776a4.79 4.79 0 0 1-.977 3.814c-2.053 2.568-6.428 7.257-12.654 9.845 1.027 2.138 2.63 4.886 4.939 7.372 4.525-3.488 8.394-8.208 10.514-14.6a2.344 2.344 0 0 0 1.654-2.33z"/></g><g><path fill="#294b7f" d="M305.198 260.196c-6.167-6.645-17.913-9.647-24.713-10.88a6.237 6.237 0 0 0-6.972 3.956c-3.06 8.226-11.384 29.629-12.997 33.308a283.872 283.872 0 0 1-3.584 7.808 2.212 2.212 0 0 0 1.033 2.947c5.721 2.758 16.017 5.878 20.19 7.096a1.432 1.432 0 0 0 1.833-1.378c0-.811.22-1.607.638-2.303l15.807-26.342c9.853 10.925 18.48 11.924 25.11 9.533a49.857 49.857 0 0 1-2.194-10.353c-9.792-1.677-14.15-13.392-14.15-13.392z"/></g><g><path fill="url(#2ud0C)" d="M338.989 269.235l-3.455-2.51c-5.72 3.93-12.27 7.534-16.185 6.863a49.878 49.878 0 0 0 2.194 10.353c8.732-3.15 17.446-14.706 17.446-14.706z"/></g><g><path fill="url(#2ud0D)" d="M333.966 267.923l7.489 6.572 10.344 1.796c-.503-1.47-7.344-4.846-7.344-4.846s-5.3-5.812-6.934-7.14c-1.357-1.103-2.746 1.007-3.178 1.754-.088.152-.137.248-.137.248z"/></g><g><path fill="url(#2ud0E)" d="M289.84 237.113l-5.253 12.818s6.035 4.177 10.892 3.78l2.62-11.526z"/></g><g><g><path fill="url(#2ud0F)" d="M298.716 228.373c.12.171 3.8 13.465 3.8 13.465l-7.635 1.94-5.36-12.082s7.18-6.176 9.195-3.323z"/></g><g><path fill="url(#2ud0G)" d="M292.396 233.532l2.323 6.58a.95.95 0 0 0 .122.236c.315.448 1.513 1.91 2.933.593 1.29-1.194 2.484-2.266 3.587-2.46a.973.973 0 0 1 1.109.7c.334 1.207 1.036 3.943 1.283 6.413a.972.972 0 0 1-.79 1.049c-1.492.283-4.653.792-7.293.606a.975.975 0 0 1-.821-.566c-.728-1.59-2.957-6.412-3.786-7.66-.778-1.172-2.685-1.139-3.485-1.068a.957.957 0 0 1-.718-.234c-.7-.614-2.032-2.18-.158-4.055a.977.977 0 0 0-.023-1.405c-.804-.757-1.665-2.099-.324-3.763 1.362-1.69 3.16-1.422 4.263-1.02a.975.975 0 0 0 1.173-.433c.138-.232.379-.408.796-.372.562.048 1.035-.42 1.024-.985-.019-1.083.369-2.452 2.248-3.037 3.336-1.038 5.416 2.184 5.622 4.588.206 2.405-3.474 3.325-5.638 3.163-1.646-.124-2.867 1.507-3.358 2.296a.965.965 0 0 0-.089.834z"/></g><g><path fill="url(#2ud0H)" d="M291.933 241.41s-.539-4.174-2.275-4.378c-1.736-.204-3.427 1.222-1.7 3.565 2.147 2.914 3.975.814 3.975.814z"/></g></g><g><g><path fill="#91b3fa" d="M496.306 292.885l-41.61 2.362a6.385 6.385 0 0 1-6.73-5.917l-3.47-48.27a6.385 6.385 0 0 1 6.368-6.843h45.08a6.385 6.385 0 0 1 6.385 6.385v45.909a6.386 6.386 0 0 1-6.023 6.374z"/></g><g><g><path fill="url(#2ud0I)" d="M473.404 242.495c8.84 0 16.033 6.55 16.033 14.6 0 4.197-4.77 14.485-13.087 28.224a3.418 3.418 0 0 1-2.945 1.661 3.42 3.42 0 0 1-2.948-1.661c-8.317-13.74-13.086-24.027-13.086-28.224 0-8.05 7.192-14.6 16.033-14.6zm0 47.135c2.15 0 4.1-1.099 5.213-2.938 6.145-10.152 13.47-23.527 13.47-29.597 0-9.512-8.382-17.25-18.683-17.25s-18.683 7.738-18.683 17.25c0 6.07 7.325 19.445 13.47 29.597a6.05 6.05 0 0 0 5.214 2.938z"/></g><g><path fill="url(#2ud0J)" d="M471.967 269.18c-6.416 0-11.636-5.22-11.636-11.636a1.325 1.325 0 0 1 2.65 0c0 4.956 4.03 8.987 8.986 8.987 4.955 0 8.986-4.031 8.986-8.987 0-4.955-4.03-8.986-8.986-8.986a8.915 8.915 0 0 0-7.208 3.619 1.324 1.324 0 1 1-2.124-1.584 11.695 11.695 0 0 1 9.332-4.685c6.416 0 11.636 5.22 11.636 11.636 0 6.417-5.22 11.636-11.636 11.636z"/></g></g></g><g><g><g><path fill="#91b3fa" d="M155.8 244.028l-.649 40.19a4.555 4.555 0 0 0 4.554 4.628h46.27a4.555 4.555 0 0 0 4.556-4.555v-40.189a4.556 4.556 0 0 0-4.555-4.555h-45.62a4.555 4.555 0 0 0-4.556 4.481z"/></g></g><g><g><path fill="url(#2ud0K)" d="M173.893 275.965a3.01 3.01 0 0 1-3.006 3.007 3.01 3.01 0 0 1-3.006-3.007 3.01 3.01 0 0 1 3.006-3.006 3.01 3.01 0 0 1 3.006 3.006zm-3.006 4.985a4.99 4.99 0 0 0 4.984-4.985 4.99 4.99 0 0 0-4.984-4.984 4.99 4.99 0 0 0-4.985 4.984 4.99 4.99 0 0 0 4.985 4.985z"/></g><g><g><path fill="url(#2ud0L)" d="M170.887 265.331c5.863 0 10.634 4.77 10.634 10.635 0 .363-.02.721-.057 1.075-.05.476.35.875.823.804l1.548-.231a.729.729 0 0 0 .616-.671c.024-.323.037-.649.037-.977 0-7.5-6.102-13.602-13.601-13.602-.568 0-1.128.037-1.677.106a.728.728 0 0 0-.63.842l.256 1.505a.72.72 0 0 0 .799.594c.41-.051.828-.08 1.252-.08z"/></g><g><path fill="url(#2ud0M)" d="M170.887 257.665c10.09 0 18.3 8.21 18.3 18.3v.009c0 .441.385.783.822.718l1.518-.227c.237-.274.39-.45.626-.725-.12-11.623-9.614-21.042-21.266-21.042a21.09 21.09 0 0 0-2.995.216.72.72 0 0 0-.599.836l.256 1.5c.065.382.42.65.803.595.829-.117 1.674-.18 2.535-.18z"/></g><g><path fill="url(#2ud0N)" d="M170.887 250c13.945 0 25.353 11.051 25.937 24.855.018.434.4.76.828.696l1.507-.226a.725.725 0 0 0 .62-.746c-.727-15.312-13.404-27.547-28.892-27.547-1.455 0-2.883.114-4.28.324a.724.724 0 0 0-.6.839l.256 1.498c.066.39.434.65.826.59a25.751 25.751 0 0 1 3.798-.284z"/></g></g></g></g><g><g><g><path fill="#fff" d="M116.156 324.242l-1.012-1.913a.485.485 0 0 1 .857-.454l.01.02.99 1.877.01.019a.483.483 0 1 1-.855.451z"/></g><g><path fill="#fff" d="M113.148 317.685l-.674-2.063a.49.49 0 0 1 .93-.304v.001l.009.027.654 2.01.008.027a.488.488 0 1 1-.927.302z"/></g><g><path fill="#fff" d="M111.408 310.667a30.106 30.106 0 0 1-.212-2.167.494.494 0 1 1 .986-.06c.042.7.11 1.4.203 2.096a.493.493 0 0 1-.977.13z"/></g><g><path fill="#fff" d="M111.336 303.42c.086-.722.2-1.44.343-2.154a.498.498 0 0 1 .977.196c-.139.688-.25 1.38-.333 2.076a.497.497 0 0 1-.987-.118z"/></g><g><path fill="#fff" d="M113.125 296.394c.269-.675.563-1.34.88-1.994a.503.503 0 1 1 .904.44 28.708 28.708 0 0 0-.852 1.925.501.501 0 0 1-.932-.37z"/></g><g><path fill="#fff" d="M116.581 290.03l1.298-1.742a.507.507 0 0 1 .813.606l-.018.024-1.264 1.692-.018.025a.506.506 0 0 1-.81-.605z"/></g><g><path fill="#fff" d="M121.273 284.535l1.585-1.477a.511.511 0 0 1 .697.748l-.018.017-1.551 1.442-.018.017a.51.51 0 0 1-.695-.747z"/></g><g><path fill="#fff" d="M126.797 279.9l1.773-1.235a.516.516 0 1 1 .59.846l-.017.012-1.742 1.21-.016.012a.515.515 0 0 1-.588-.845z"/></g><g><path fill="#fff" d="M132.867 276.034l1.899-1.026a.52.52 0 1 1 .494.916l-.014.007-1.872 1.009-.014.007a.52.52 0 0 1-.493-.913z"/></g><g><path fill="#fff" d="M139.303 272.832l1.983-.845a.525.525 0 1 1 .41.966l-.012.006-1.96.831-.011.005a.524.524 0 0 1-.41-.963z"/></g><g><path fill="#fff" d="M145.988 270.208l2.042-.685a.53.53 0 0 1 .337 1.004h-.001l-.011.004-2.02.675-.012.003a.528.528 0 0 1-.335-1.001z"/></g><g><path fill="#fff" d="M152.847 268.095l2.083-.543a.534.534 0 1 1 .269 1.033l-.01.003-2.064.535-.01.003a.532.532 0 0 1-.268-1.031z"/></g><g><path fill="#fff" d="M159.827 266.441l2.112-.412a.539.539 0 0 1 .206 1.056l-.01.003-2.093.406-.01.001a.537.537 0 0 1-.205-1.054z"/></g><g><path fill="#fff" d="M166.891 265.21l2.132-.292a.543.543 0 0 1 .147 1.075l-.01.002-2.113.286-.009.001a.542.542 0 0 1-.147-1.073z"/></g><g><path fill="#fff" d="M174.012 264.372l2.144-.178a.548.548 0 0 1 .09 1.09l-.009.001-2.126.174h-.01a.546.546 0 0 1-.089-1.087z"/></g><g><path fill="#fff" d="M181.166 263.907l2.15-.068a.552.552 0 0 1 .035 1.103H183.342l-2.133.065h-.009a.55.55 0 0 1-.034-1.1z"/></g><g><path fill="#fff" d="M188.334 263.803l2.15.038a.556.556 0 0 1-.02 1.111h-.008l-2.134-.04h-.008a.555.555 0 0 1 .02-1.109z"/></g><g><path fill="#fff" d="M195.498 264.05l2.145.141a.56.56 0 1 1-.073 1.119H197.56l-2.13-.144h-.008a.559.559 0 0 1 .075-1.116z"/></g><g><path fill="#fff" d="M202.638 264.633l2.135.222a.564.564 0 1 1-.116 1.122h-.005l-2.127-.223h-.004a.563.563 0 0 1 .117-1.121z"/></g><g><path fill="#fff" d="M209.749 265.438l2.129.277a.568.568 0 1 1-.147 1.127h-.001l-.004-.001-2.12-.279h-.004a.567.567 0 0 1 .147-1.124z"/></g><g><path fill="#fff" d="M216.836 266.426l2.121.33a.571.571 0 1 1-.176 1.13h-.005l-2.112-.332h-.004a.57.57 0 0 1 .176-1.128z"/></g><g><path fill="#fff" d="M223.897 267.59l2.112.383a.575.575 0 1 1-.205 1.132h-.001l-.004-.001-2.104-.383h-.004a.575.575 0 0 1 .206-1.13z"/></g><g><path fill="#fff" d="M230.926 268.923l2.103.432a.579.579 0 1 1-.233 1.135l-.005-.002-2.094-.432h-.004a.578.578 0 0 1 .233-1.133z"/></g><g><path fill="#fff" d="M237.923 270.418l2.092.478a.583.583 0 0 1-.26 1.136h-.004l-2.084-.48h-.004a.582.582 0 0 1 .26-1.134z"/></g><g><path fill="#fff" d="M244.885 272.065l2.081.523a.586.586 0 0 1-.285 1.137h-.005l-2.073-.524-.004-.001a.585.585 0 0 1 .286-1.135z"/></g><g><path fill="#fff" d="M251.81 273.858l2.07.564a.59.59 0 0 1-.31 1.138h-.004l-2.063-.565a.59.59 0 1 1 .307-1.137z"/></g><g><path fill="#fff" d="M258.698 275.786l2.059.604a.594.594 0 1 1-.334 1.14l-.004-.002-2.052-.604a.592.592 0 1 1 .331-1.138z"/></g><g><path fill="#fff" d="M265.548 277.843l2.048.641a.597.597 0 1 1-.357 1.14l-.003-.001-2.042-.641a.597.597 0 1 1 .354-1.14z"/></g><g><path fill="#fff" d="M272.36 280.02l2.037.674a.601.601 0 1 1-.378 1.141h-.004l-2.03-.676a.6.6 0 1 1 .376-1.14z"/></g><g><path fill="#fff" d="M279.136 282.307l2.025.707a.605.605 0 0 1-.398 1.141h-.003l-2.02-.708a.603.603 0 1 1 .396-1.14z"/></g><g><path fill="#fff" d="M285.875 284.698l2.014.735a.609.609 0 0 1-.417 1.143l-.003-.001-2.01-.736a.607.607 0 1 1 .416-1.141z"/></g><g><path fill="#fff" d="M292.579 287.182l2.004.763a.611.611 0 1 1-.435 1.144l-.002-.002-2-.763a.61.61 0 1 1 .433-1.142z"/></g><g><path fill="#fff" d="M299.25 289.754l1.995.786a.615.615 0 1 1-.452 1.145h-.002l-1.991-.788a.615.615 0 1 1 .45-1.143z"/></g><g><path fill="#fff" d="M305.89 292.403l1.985.808a.62.62 0 0 1-.467 1.147h-.002l-1.982-.81a.618.618 0 1 1 .465-1.145z"/></g><g><path fill="#fff" d="M312.5 295.122l1.977.829a.623.623 0 0 1-.481 1.148h-.002l-1.974-.83a.622.622 0 1 1 .48-1.147z"/></g><g><path fill="#fff" d="M319.083 297.904l1.97.846a.626.626 0 1 1-.494 1.151l-.002-.001-1.966-.846a.625.625 0 1 1 .492-1.15z"/></g><g><path fill="#fff" d="M325.642 300.74l1.964.86a.63.63 0 1 1-.506 1.155h-.001l-1.96-.862a.63.63 0 1 1 .503-1.152z"/></g><g><path fill="#fff" d="M332.18 303.624l1.958.873a.633.633 0 1 1-.516 1.157h-.002l-1.955-.874a.633.633 0 1 1 .516-1.156z"/></g><g><path fill="#fff" d="M338.7 306.547l1.953.883a.637.637 0 0 1-.525 1.161h-.001l-1.95-.885a.637.637 0 0 1 .523-1.16z"/></g><g><path fill="#fff" d="M345.205 309.5l1.95.892a.64.64 0 1 1-.534 1.166h-.001l-1.947-.893a.64.64 0 1 1 .532-1.164z"/></g><g><path fill="#fff" d="M351.699 312.48l1.946.896a.645.645 0 0 1-.54 1.171l-1.945-.9a.643.643 0 1 1 .539-1.168z"/></g><g><path fill="#fff" d="M358.183 315.472l1.945.899a.648.648 0 1 1-.545 1.177v-.001l-1.944-.9a.647.647 0 0 1 .544-1.175z"/></g><g><path fill="#fff" d="M364.664 318.468l1.945.898a.651.651 0 1 1-.546 1.184h-.001l-1.944-.9a.65.65 0 0 1 .546-1.182z"/></g><g><path fill="#fff" d="M371.148 321.46l1.945.895a.655.655 0 1 1-.547 1.192h-.001l-1.945-.898a.654.654 0 1 1 .548-1.189z"/></g><g><path fill="#fff" d="M377.636 324.44l1.947.89a.66.66 0 0 1-.546 1.2l-.001-.001-1.949-.893a.658.658 0 1 1 .549-1.197z"/></g><g><path fill="#fff" d="M384.132 327.398l1.951.883a.664.664 0 0 1-.545 1.208h-.001l-1.952-.886a.661.661 0 1 1 .547-1.205z"/></g><g><path fill="#fff" d="M390.64 330.329l1.956.872a.667.667 0 0 1-.541 1.218h-.002l-1.956-.876a.666.666 0 0 1-.336-.88c.15-.334.544-.484.88-.334z"/></g><g><path fill="#fff" d="M397.164 333.223l1.96.86a.67.67 0 1 1-.535 1.228h-.002l-1.962-.864a.669.669 0 1 1 .54-1.224z"/></g><g><path fill="#fff" d="M403.707 336.073l1.967.845a.673.673 0 1 1-.53 1.239h-.001l-1.97-.85a.673.673 0 1 1 .534-1.234z"/></g><g><path fill="#fff" d="M410.27 338.87l1.975.828a.677.677 0 1 1-.52 1.25h-.003l-1.977-.832a.676.676 0 1 1 .526-1.246z"/></g><g><path fill="#fff" d="M416.86 341.606l1.981.808a.681.681 0 1 1-.51 1.263h-.003l-1.984-.812a.68.68 0 1 1 .516-1.259z"/></g><g><path fill="#fff" d="M423.476 344.274l1.99.786a.685.685 0 1 1-.498 1.275h-.003l-1.994-.79a.683.683 0 1 1 .505-1.27z"/></g><g><path fill="#fff" d="M430.12 346.865l2 .761a.688.688 0 1 1-.484 1.289l-.003-.002-2.004-.764a.687.687 0 1 1 .492-1.284z"/></g><g><path fill="#fff" d="M436.798 349.37l2.01.735a.692.692 0 0 1-.47 1.302l-.003-.001-2.014-.739a.691.691 0 1 1 .477-1.296z"/></g><g><path fill="#fff" d="M443.509 351.783l2.02.704a.696.696 0 0 1-.452 1.316l-.004-.001-2.025-.708a.695.695 0 1 1 .46-1.31z"/></g><g><path fill="#fff" d="M450.255 354.093l2.03.672a.699.699 0 1 1-.432 1.33l-.005-.002-2.036-.676a.697.697 0 1 1 .443-1.324z"/></g><g><path fill="#fff" d="M457.036 356.292l2.042.638h.003a.703.703 0 1 1-.419 1.343l-2.048-.642a.702.702 0 0 1 .42-1.34z"/></g><g><path fill="#fff" d="M463.854 358.373l2.053.6.004.001a.706.706 0 1 1-.397 1.356l-2.06-.604a.705.705 0 1 1 .397-1.354z"/></g><g><path fill="#fff" d="M470.709 360.327l2.063.56.004.002a.71.71 0 1 1-.372 1.37l-2.071-.564a.709.709 0 1 1 .372-1.369z"/></g><g><path fill="#fff" d="M477.6 362.146l2.073.518.005.001a.713.713 0 1 1-.346 1.385l-2.083-.522a.713.713 0 1 1 .347-1.383z"/></g><g><path fill="#fff" d="M484.526 363.822l2.084.474.005.001a.718.718 0 1 1-.318 1.4v-.001l-2.094-.478a.716.716 0 1 1 .319-1.397z"/></g><g><path fill="#fff" d="M491.486 365.348l2.094.427.005.001a.721.721 0 0 1-.288 1.413l-2.104-.431a.72.72 0 0 1 .289-1.411z"/></g><g><path fill="#fff" d="M498.479 366.716l2.103.378.005.002a.725.725 0 1 1-.257 1.426l-2.114-.383a.723.723 0 1 1 .258-1.424z"/></g><g><path fill="#fff" d="M505.5 367.919l2.11.323.007.002a.728.728 0 1 1-.221 1.44h-.001l-2.123-.329a.727.727 0 0 1 .222-1.437z"/></g><g><path fill="#fff" d="M512.547 368.928l2.12.263.006.001a.732.732 0 1 1-.18 1.453l-2.133-.267a.731.731 0 0 1 .182-1.45z"/></g><g><path fill="#fff" d="M519.622 369.736l2.126.204h.007a.736.736 0 0 1-.14 1.465h-.001l-2.139-.207a.734.734 0 1 1 .141-1.462z"/></g><g><path fill="#fff" d="M526.717 370.344l2.131.143h.006a.739.739 0 1 1-.099 1.476l-2.144-.146a.739.739 0 0 1 .1-1.474z"/></g><g><path fill="#fff" d="M533.825 370.75l2.135.082h.006a.743.743 0 0 1-.057 1.485h-.001l-2.147-.085a.742.742 0 0 1 .059-1.482z"/></g><g><path fill="#fff" d="M540.942 370.953l2.136.021h.006a.746.746 0 1 1-.015 1.493l-2.149-.023a.746.746 0 0 1 .016-1.491z"/></g><g><path fill="#fff" d="M548.062 370.95l2.135-.042h.007a.75.75 0 0 1 .029 1.5h-.001l-2.149.04a.75.75 0 0 1-.028-1.498z"/></g><g><path fill="#fff" d="M555.178 370.737l2.133-.105h.006a.753.753 0 1 1 .074 1.505l-2.147.104a.752.752 0 1 1-.072-1.504z"/></g><g><path fill="#fff" d="M562.283 370.31l2.13-.171h.006a.757.757 0 1 1 .122 1.51h-.001l-2.143.17a.757.757 0 0 1-.12-1.509z"/></g><g><path fill="#fff" d="M569.371 369.662l2.123-.239h.007a.762.762 0 0 1 .17 1.512l-2.138.238a.76.76 0 1 1-.168-1.51z"/></g><g><path fill="#fff" d="M576.435 368.786l2.112-.308.008-.001a.764.764 0 1 1 .22 1.514l-2.128.308a.764.764 0 0 1-.219-1.512z"/></g><g><path fill="#fff" d="M583.463 367.675l2.1-.38.008-.002a.769.769 0 0 1 .275 1.512h-.001l-2.117.382a.768.768 0 0 1-.272-1.51z"/></g><g><path fill="#fff" d="M590.448 366.32l2.084-.457.009-.001a.772.772 0 1 1 .33 1.508h-.001l-2.102.457a.771.771 0 1 1-.328-1.506z"/></g><g><path fill="#fff" d="M597.376 364.709l2.065-.535.009-.002a.776.776 0 1 1 .389 1.502h-.001l-2.084.537a.774.774 0 1 1-.386-1.5z"/></g><g><path fill="#fff" d="M604.235 362.832l2.042-.616.01-.003a.78.78 0 0 1 .45 1.492h-.001l-2.06.62a.778.778 0 1 1-.45-1.49z"/></g><g><path fill="#fff" d="M611.01 360.679l2.013-.703.01-.003a.783.783 0 0 1 .516 1.478h-.001l-2.033.708a.782.782 0 0 1-.514-1.478z"/></g><g><path fill="#fff" d="M617.683 358.234l1.98-.792.01-.004a.787.787 0 0 1 .584 1.46h-.001l-2 .799a.786.786 0 0 1-.582-1.46z"/></g><g><path fill="#fff" d="M624.235 355.486l1.938-.886.01-.005a.79.79 0 0 1 .657 1.438l-1.961.893a.79.79 0 1 1-.654-1.436z"/></g><g><path fill="#fff" d="M630.641 352.42l1.89-.982.01-.006a.794.794 0 0 1 .733 1.409l-1.914.993a.793.793 0 1 1-.73-1.408z"/></g><g><path fill="#fff" d="M636.876 349.028l1.832-1.084.011-.007a.798.798 0 0 1 .813 1.374l-1.858 1.095a.797.797 0 0 1-.81-1.372z"/></g><g><path fill="#fff" d="M642.91 345.295l1.766-1.187.011-.008a.8.8 0 1 1 .895 1.33h-.002l-1.79 1.202a.8.8 0 0 1-.892-1.33z"/></g><g><path fill="#fff" d="M648.71 341.214l1.69-1.293.011-.009a.804.804 0 1 1 .979 1.278h-.001l-1.715 1.31a.804.804 0 0 1-.976-1.277z"/></g><g><path fill="#fff" d="M654.24 336.78l1.602-1.399.013-.01a.808.808 0 1 1 1.063 1.217l-1.628 1.42a.808.808 0 0 1-1.06-1.218z"/></g><g><path fill="#fff" d="M659.467 331.994l1.504-1.503.011-.012a.812.812 0 1 1 1.148 1.149l-1.529 1.526a.811.811 0 0 1-1.146-1.149z"/></g><g><path fill="#fff" d="M664.358 326.868l1.398-1.602.011-.013a.817.817 0 0 1 1.23 1.074h-.002l-1.421 1.625a.815.815 0 1 1-1.226-1.073z"/></g><g><path fill="#fff" d="M668.891 321.422l1.287-1.692.01-.013a.819.819 0 1 1 1.304.992l-1.309 1.718a.818.818 0 1 1-1.302-.993z"/></g><g><path fill="#fff" d="M673.047 315.682l1.171-1.774.01-.014a.823.823 0 0 1 1.373.906v.002l-1.191 1.8a.822.822 0 0 1-1.372-.907z"/></g><g><path fill="#fff" d="M676.812 309.68l1.052-1.85.008-.013a.827.827 0 1 1 1.437.818l-1.07 1.876a.826.826 0 0 1-1.435-.819z"/></g><g><path fill="#fff" d="M680.177 303.441l.93-1.912.007-.014a.83.83 0 0 1 1.494.727l-.947 1.94a.83.83 0 0 1-1.49-.727z"/></g><g><path fill="#fff" d="M683.137 297.001l.81-1.967.005-.014a.834.834 0 1 1 1.543.635l-.823 1.995a.833.833 0 0 1-1.54-.635z"/></g><g><path fill="#fff" d="M685.693 290.388l.688-2.013.005-.014a.838.838 0 0 1 1.585.542l-.7 2.042a.838.838 0 0 1-1.583-.543z"/></g><g><path fill="#fff" d="M687.849 283.632l.568-2.05.004-.014a.841.841 0 1 1 1.621.45l-.578 2.079a.84.84 0 0 1-1.62-.452z"/></g><g><path fill="#fff" d="M689.608 276.761l.452-2.08.002-.013a.845.845 0 1 1 1.652.358l-.46 2.108a.843.843 0 1 1-1.649-.36z"/></g><g><path fill="#fff" d="M690.979 269.8l.336-2.101.002-.014a.848.848 0 1 1 1.676.269l-.343 2.129a.848.848 0 0 1-1.674-.27z"/></g><g><path fill="#fff" d="M691.968 262.775l.224-2.118.001-.013a.852.852 0 0 1 1.695.179v.001l-.228 2.144a.851.851 0 0 1-1.693-.18z"/></g><g><path fill="#fff" d="M692.585 255.705l.113-2.126v-.014a.856.856 0 0 1 1.71.091v.001l-.117 2.153a.855.855 0 0 1-1.707-.093z"/></g><g><path fill="#fff" d="M692.837 248.611l.007-2.13v-.012a.86.86 0 0 1 1.72.006v.001l-.01 2.155a.859.859 0 1 1-1.718-.008z"/></g><g><path fill="#fff" d="M692.74 241.513l-.095-2.128-.001-.012a.863.863 0 1 1 1.725-.078v.001l.094 2.153a.862.862 0 0 1-1.722.076z"/></g><g><path fill="#fff" d="M692.302 234.427l-.197-2.121-.002-.012a.867.867 0 1 1 1.726-.16l.198 2.146a.865.865 0 1 1-1.724.158z"/></g><g><path fill="#fff" d="M691.527 227.37l-.297-2.11-.001-.012a.87.87 0 0 1 1.724-.242l.298 2.134a.869.869 0 1 1-1.722.241z"/></g><g><path fill="#fff" d="M690.422 220.356l-.394-2.094-.002-.011a.874.874 0 1 1 1.718-.324l.397 2.118a.873.873 0 1 1-1.716.322z"/></g><g><path fill="#fff" d="M688.996 213.4l-.49-2.074-.003-.011a.878.878 0 0 1 1.709-.404v.001l.493 2.097a.876.876 0 1 1-1.707.402z"/></g><g><path fill="#fff" d="M687.254 206.516l-.583-2.05-.003-.011a.88.88 0 1 1 1.696-.482l.587 2.073a.88.88 0 1 1-1.694.48z"/></g><g><path fill="#fff" d="M685.206 199.716l-.673-2.022-.004-.011a.885.885 0 0 1 1.68-.559v.001l.678 2.044a.884.884 0 0 1-1.678.557z"/></g><g><path fill="#fff" d="M682.86 193.012l-.76-1.99-.004-.012a.889.889 0 0 1 1.66-.634v.001l.767 2.013a.888.888 0 0 1-1.659.632z"/></g><g><path fill="#fff" d="M680.227 186.415l-.845-1.956-.005-.01a.892.892 0 1 1 1.638-.708l.853 1.98a.891.891 0 1 1-1.637.704z"/></g><g><path fill="#fff" d="M677.314 179.936l-.927-1.919-.004-.01a.896.896 0 0 1 1.613-.779l.936 1.941a.895.895 0 0 1-1.613.777z"/></g><g><path fill="#fff" d="M674.133 173.585l-1.006-1.88-.005-.01a.9.9 0 0 1 1.586-.848l1.015 1.9a.9.9 0 0 1-1.586.847z"/></g><g><path fill="#fff" d="M670.691 167.37l-1.08-1.837-.006-.01a.902.902 0 1 1 1.556-.916l1.091 1.857a.902.902 0 1 1-1.555.914z"/></g><g><path fill="#fff" d="M667 161.299l-1.154-1.792-.006-.009a.907.907 0 1 1 1.525-.982l1.164 1.812a.905.905 0 1 1-1.523.98z"/></g><g><path fill="#fff" d="M663.069 155.38l-1.225-1.744-.006-.008a.91.91 0 0 1 1.49-1.046h.001l1.235 1.763a.91.91 0 0 1-1.49 1.044z"/></g><g><path fill="#fff" d="M658.907 149.622l-1.293-1.694-.006-.009a.914.914 0 1 1 1.454-1.108l1.303 1.714a.913.913 0 1 1-1.453 1.105z"/></g><g><path fill="#fff" d="M654.524 144.03l-1.358-1.643-.007-.008a.918.918 0 0 1 1.416-1.169l.002.001 1.368 1.662a.917.917 0 0 1-1.415 1.166z"/></g><g><path fill="#fff" d="M649.928 138.612l-1.419-1.592-.007-.008a.921.921 0 1 1 1.375-1.226l.001.001 1.431 1.608a.92.92 0 0 1-1.375 1.224z"/></g><g><path fill="#fff" d="M645.129 133.37l-1.478-1.536-.007-.008a.925.925 0 1 1 1.333-1.282h.001l1.49 1.554a.923.923 0 1 1-1.333 1.28z"/></g><g><path fill="#fff" d="M640.137 128.312l-1.534-1.48-.008-.007a.93.93 0 0 1 1.29-1.337h.001l1.547 1.497a.928.928 0 0 1-1.29 1.334z"/></g><g><path fill="#fff" d="M634.96 123.442l-1.586-1.424-.008-.006a.933.933 0 0 1 1.245-1.388l1.601 1.44a.931.931 0 1 1-1.245 1.385z"/></g><g><path fill="#fff" d="M629.612 118.762l-1.637-1.368-.007-.006a.936.936 0 1 1 1.2-1.437l1.651 1.382a.935.935 0 0 1-1.2 1.434z"/></g><g><path fill="#fff" d="M624.102 114.27l-1.683-1.311-.007-.006a.94.94 0 1 1 1.155-1.483l.001.001 1.696 1.324a.938.938 0 1 1-1.155 1.48z"/></g><g><path fill="#fff" d="M618.443 109.967l-1.725-1.255-.007-.005a.943.943 0 0 1 1.109-1.526l1.74 1.267a.942.942 0 1 1-1.11 1.523z"/></g><g><path fill="#fff" d="M612.645 105.852l-1.765-1.198-.008-.005a.947.947 0 1 1 1.063-1.567h.001l1.78 1.21a.946.946 0 0 1-1.065 1.564z"/></g><g><path fill="#fff" d="M606.717 101.924l-1.802-1.141-.008-.005a.95.95 0 1 1 1.018-1.606l1.816 1.153a.95.95 0 0 1-1.018 1.604z"/></g><g><path fill="#fff" d="M600.668 98.184l-1.837-1.086-.007-.004a.954.954 0 0 1 .97-1.643h.002l1.85 1.097a.953.953 0 1 1-.971 1.64z"/></g><g><path fill="#fff" d="M594.508 94.63l-1.87-1.03-.007-.004a.958.958 0 0 1 .925-1.678l1.884 1.04a.956.956 0 1 1-.926 1.676z"/></g><g><path fill="#fff" d="M588.243 91.262l-1.899-.975-.007-.004a.961.961 0 1 1 .877-1.71h.002l1.912.984a.96.96 0 1 1-.878 1.708z"/></g><g><path fill="#fff" d="M581.882 88.078l-1.927-.919-.007-.003a.965.965 0 0 1 .83-1.743h.002l1.94.929a.964.964 0 1 1-.832 1.74z"/></g><g><path fill="#fff" d="M575.43 85.08l-1.951-.864-.007-.003a.969.969 0 1 1 .784-1.772l1.966.873a.968.968 0 1 1-.785 1.768z"/></g><g><path fill="#fff" d="M568.897 82.265l-1.975-.808-.008-.003a.973.973 0 0 1 .737-1.8h.001l1.99.817a.972.972 0 1 1-.739 1.797z"/></g><g><path fill="#fff" d="M562.287 79.635l-1.996-.753-.008-.002a.976.976 0 0 1 .69-1.827l2.011.761a.975.975 0 1 1-.69 1.824z"/></g><g><path fill="#fff" d="M555.607 77.19l-2.017-.698-.007-.003a.98.98 0 1 1 .64-1.852h.001l2.032.706a.98.98 0 0 1-.642 1.849z"/></g><g><path fill="#fff" d="M548.862 74.928l-2.035-.642-.008-.002a.984.984 0 0 1 .593-1.876l2.05.65a.982.982 0 1 1-.593 1.872z"/></g><g><path fill="#fff" d="M542.058 72.851l-2.052-.587-.008-.002a.986.986 0 1 1 .543-1.898h.001l2.067.594a.986.986 0 0 1-.544 1.895z"/></g><g><path fill="#fff" d="M535.2 70.96l-2.067-.532-.008-.002a.99.99 0 1 1 .493-1.92h.001l2.082.539a.99.99 0 0 1-.494 1.916z"/></g><g><path fill="#fff" d="M528.293 69.253l-2.081-.476-.008-.002a.994.994 0 1 1 .444-1.939l2.096.482a.993.993 0 1 1-.444 1.936z"/></g><g><path fill="#fff" d="M521.343 67.733l-2.093-.42-.008-.001a.999.999 0 0 1 .393-1.957l2.109.425a.997.997 0 1 1-.394 1.954z"/></g><g><path fill="#fff" d="M514.354 66.4l-2.103-.363h-.008a1.002 1.002 0 0 1 .34-1.975h.002l2.119.368a1 1 0 1 1-.343 1.972z"/></g><g><path fill="#fff" d="M507.333 65.256l-2.113-.306h-.008a1.005 1.005 0 1 1 .289-1.99l2.129.31a1.005 1.005 0 0 1-.29 1.987z"/></g><g><path fill="#fff" d="M500.282 64.302l-1.924-.226-.007-.001a1.008 1.008 0 1 1 .236-2.004l1.94.23a1.008 1.008 0 0 1-.239 2.002z"/></g></g><g><g><path fill="#7d97f4" d="M485.347 48.016l1.332 13.214-9.522-4.779z"/></g><g><path fill="#91b3fa" d="M425.16 46.42l38.841 27.705a3.361 3.361 0 0 0 4.76-.889l26.348-40.045a1.349 1.349 0 0 0-1.419-2.055z"/></g><g><path fill="#7d97f4" d="M485.343 48.018L425.16 46.42l55.95 8.074.526 3.648z"/></g><g><path fill="#7d97f4" d="M478.572 58.314l8.107 2.916-5.568-6.736z"/></g></g></g><g><path fill="url(#2ud0O)" d="M538.348 328.926s-4.137-10.136 11.467-8.093c15.603 2.044 11.811 7.935 13.045 12.538 1.233 4.604 7.779 9.82 25.996 16.924 18.217 7.102 12.816 26.466 4.633 32.893-8.182 6.428-12.645 2.156-14.548 13.248-1.903 11.094-9.495 20.102-18.967 10.699-9.472-9.404-20.238-20.523-17.227-35.104 3.01-14.58-.399-11.823-6.277-18.512-5.877-6.689 6.58-13.163 1.878-24.593z"/></g><g><path fill="url(#2ud0P)" d="M512.495 324.817s15.726 22.171 33.21 25.685c0 0-2.852 9.75-5.388 10.985 0 0-22.161-16.577-28.523-33.363z"/></g><g><path fill="url(#2ud0Q)" d="M583.655 468.47l.47 3.87c.09.734 1.832 2.6 2.567 2.683 1.24.142 1.778.423 3.726.217.855-.09 1.7-2.376 1.439-3.196-.475-1.493-1.344-3.736-2.596-5.056h-4.293c-.794 0-1.409.694-1.313 1.482z"/></g><g><path fill="url(#2ud0R)" d="M550.031 423.135l-.724 4.262s2.426 24.58 2.858 34.41a7.706 7.706 0 0 1-1.14 4.379l-4.22 6.852 10.724-6.328.214-1.308-1.756-2.414 2.3-27.534a8.455 8.455 0 0 0-.962-4.673l-2.218-4.167z"/></g><g><path fill="url(#2ud0S)" d="M546.096 474.03h3.422a2.06 2.06 0 0 0 1.635-.8c1.067-1.387 3.277-4.092 4.335-4.162 1.422-.095 1.24 4.963 1.24 4.963h.797l1.01-6.285a3.72 3.72 0 0 0-1.952-3.89s-.325 2.406-2.088 3.47c-1.764 1.064-7.177 4.874-7.177 4.874s-.662-.095-1.39.037c-1.08.195-.93 1.794.168 1.794z"/></g><g><path fill="url(#2ud0T)" d="M564.717 425.16s14.216 26.965 16.476 33.122c2.26 6.156 3.051 11.293 3.082 11.779.047.76.992 1.489 3.598 1.489 1.345 0 2.003-.54 2.326-1.061.275-.445.289-1.002.057-1.471-.823-1.664-3.432-6.983-4.398-9.395-1.154-2.88-3.636-15.931-4.997-20.47-1.362-4.537-2.9-9.46-8.828-13.994 0 0-4.07-3.985-7.316 0z"/></g><g><path fill="#9ec5fd" d="M555.734 380.975c-3.667-15.538 5.623-24.327 5.623-24.327-5.861-5.626-16.541-8.187-16.541-8.187s-10.191 7.45-8.982 13.282c.709 3.418 7.163 20.473 7.163 20.473s5.969 2.824 12.737-1.241z"/></g><g><path fill="#7794bf" d="M563.867 388.667c-1.492-4.496-8.13-7.693-8.13-7.693-6.768 4.066-12.737 1.24-12.737 1.24s-1.339 5.117-.415 9.872c.924 4.754 6.72 35.311 6.72 35.311 9.133 1.85 23.18-1.862 23.18-1.862-5.818-10.328-7.125-32.373-8.618-36.868z"/></g><g><path fill="url(#2ud0U)" d="M551.478 338.193l2.981 13.391c.286 1.18-.79.987-1.982.762-1.953-.368-4.47-1.127-5.312-2.646a1.46 1.46 0 0 1-.153-.505l-1.28-9.286a1.67 1.67 0 0 1 .976-1.753l2.472-1.096a1.669 1.669 0 0 1 2.298 1.133z"/></g><g><path fill="url(#2ud0V)" d="M561.36 356.648s20.809 14.887 2.662 30.53c0 0-.692.783-2.054 1.19-.687.205-2.72 1.743-3.75 2.545a.706.706 0 0 1-1.033-.185.965.965 0 0 1-.055-.925l2.577-5.447a1.986 1.986 0 0 1 2.58-.112.98.98 0 0 0 1.487-.337c1.403-2.857 4.051-11.26-6.79-20.756a1.175 1.175 0 0 1-.26-1.428c.76-1.463 2.503-4.369 4.637-5.075z"/></g><g><path fill="url(#2ud0W)" d="M547.982 325.442s-3.53 1.49-5.932 6.593c-2.4 5.103-.607 7.458 1.644 7.782 2.252.323 5.62.274 9.183-3.022 3.562-3.296-.305-13.12-4.895-11.353z"/></g><g><path fill="url(#2ud0X)" d="M550.481 334.07s2.664-7.464-3.954-7.552l-1.558 1.088s-2.428-4.138 1.558-6.114c3.985-1.976 8.65-.344 10.346 5.026 1.696 5.37 1.986 8.964-.836 11.533-2.822 2.569-3.985-.344-3.985-.344s1.537-2.403.911-3.688c-.625-1.286-2.068.266-2.068.266z"/></g><g><path fill="url(#2ud0Y)" d="M551.225 334.902s1.347-3.845 3.143-2.314c1.797 1.532-1.46 3.552-2.735 4.207z"/></g><g><g><path fill="url(#2ud0Z)" d="M512.844 329.535c-.018.475 1.759.709 2.212-1.338-.201-.868-.679-4.69-1.382-5.25-3.746-2.983-10.314-6.214-10.314-6.214-.656 1.127.318 1.795.318 1.795l3.298 1.98c-.273 1.117-.706 2.115-.694 3.374.009.953.41 1.866 1.08 2.554.672.69 1.574 1.58 2.381 2.248 1.527 1.266 3.101.85 3.101.85z"/></g><g><path fill="url(#2ud0aa)" d="M512.728 325.066l-1.273-1.778-2.882-1.349c-.418.38-.578.864.175 1.572.753.707 2.521 4.44 2.521 4.44z"/></g></g><g opacity=".7"><g opacity=".7"><path fill="#91b3fa" d="M569.425 344.309a.141.141 0 0 0 .047-.275c-6.532-2.27-9.755-6.406-9.077-11.642.714-5.506-2.752-6.41-2.787-6.42a.141.141 0 0 0-.067.275c.133.033 3.254.865 2.574 6.11-.697 5.382 2.593 9.624 9.264 11.944a.15.15 0 0 0 .046.008z"/></g><g opacity=".7"><path fill="#91b3fa" d="M583.11 385.363a.138.138 0 0 0 .068-.018c7.483-4.156 11.89-9.18 13.1-14.932 1.579-7.509-2.993-13.643-3.04-13.704a.141.141 0 0 0-.224.17c.045.06 4.541 6.098 2.987 13.48-1.193 5.667-5.553 10.626-12.96 14.739a.142.142 0 0 0 .069.265z"/></g></g></g></g></svg>