<svg xmlns="http://www.w3.org/2000/svg" width="670" height="598" viewBox="0 0 670 598"><g><g><g><g><g><g><g transform="rotate(180 601 396)"><path fill="#f0f0f0" d="M561.239 504.292V287.591h78.844v216.701z"/></g><g transform="rotate(180 421 512)"><path fill="#f0f0f0" d="M216.997 519.616v-15.324h407.947v15.324z"/></g><g><path fill="#f5f5f5" d="M201.858 504.292V287.591h359.38v216.701z"/></g><g><path fill="#f0f0f0" d="M201.858 381.577V302.26h360.761v79.317z"/></g><g><path fill="#f0f0f0" d="M201.858 475.36v-79.317h360.761v79.317z"/></g><g transform="rotate(180 568 342)"><path fill="#e6e6e6" d="M561.239 381.577V302.26h13.64v79.317z"/></g><g transform="rotate(180 568 436)"><path fill="#e6e6e6" d="M561.239 475.36v-79.317h13.64v79.317z"/></g></g><g transform="rotate(180 376.5 281)"><path fill="#f0f0f0" d="M191.352 287.59v-13.332h369.887v13.333z"/></g><g><path fill="#e6e6e6" d="M561.239 287.59v-13.332H651.1v13.333z"/></g></g><g><g transform="rotate(180 562.5 117)"><path fill="#f0f0f0" d="M469.847 233.491V.261h185.544v233.23z"/></g><g transform="rotate(180 538.5 117)"><path fill="#f5f5f5" d="M428.888 233.491V.261h219.394v233.23z"/></g><g transform="rotate(-90 538.5 117)"><path fill="#fff" d="M440.35 208.193V25.56h196.47v182.634z"/></g><g><g><path fill="#e6e6e6" d="M558.808 138.145l34.904-16.18V111.78l-34.904-16.208v12.184l21.212 9.137-21.212 9.14z"/></g><g><path fill="#e6e6e6" d="M536.05 90.873h-6.38l11.302 52.006h6.318z"/></g><g><path fill="#e6e6e6" d="M518.363 126.035l-21.212-9.141 21.212-9.137V95.573l-34.904 16.208v10.183l34.904 16.181z"/></g></g></g><g><g transform="rotate(180 111.5 321.5)"><path fill="#f0f0f0" d="M105.557 519.617V123.813h12.163v395.804z"/></g><g><path fill="#f0f0f0" d="M103.036 516.86l-.33-1.698c.13-.026 3.318-.73 5.744-5.025 3.162-5.6 5.085-17.525-3.708-42.542-13.547-38.536-5.46-69.637 10.647-131.598 2.805-10.792 5.987-23.025 9.287-36.23 12.378-49.512.927-80.223-8.273-104.9-7.143-19.154-12.782-34.284-5.563-51.81l1.596.658c-6.96 16.9-1.425 31.749 5.587 50.551 9.283 24.9 20.836 55.887 8.33 105.919-3.304 13.213-6.485 25.45-9.292 36.246-16.02 61.622-24.061 92.552-10.69 130.59 9.043 25.726 6.913 38.155 3.532 44.053-2.836 4.95-6.703 5.753-6.867 5.786z"/></g><g><path fill="#f0f0f0" d="M89.63 519.617h44.017l-12.239-7.212h-19.54z"/></g><g><path fill="#f5f5f5" d="M24.56 174.217h174.157L179.552 27.864H43.725z"/></g></g><g><g><path fill="#f0f0f0" d="M282.867 198.343h92.986l-12.24 75.915h-68.506z"/></g><g><g><path fill="#e0e0e0" d="M320.222 223.045c25.354-9.178 44.777-22.958 23.05-50.837-21.728-27.878-55.396-27.762-78.081-15.42-28.917 15.731-23.119 61.227-23.119 61.227s52.799 14.206 78.15 5.03z"/></g><g><path fill="#e6e6e6" d="M344.876 197.64c-19.4-13.202-33.153-28.5-10.644-44.628 22.51-16.126 50.258-7.86 66.938 7.124 21.26 19.101 8.992 52.624 8.992 52.624s-45.885-1.917-65.286-15.12z"/></g><g><path fill="#f0f0f0" d="M310.73 164.176c22.694-1.377 41.725-7.296 30.979-31.877-10.746-24.581-37.944-31.452-59.254-27.245-27.167 5.365-33.568 39.354-33.568 39.354s39.15 21.142 61.843 19.768z"/></g><g><path fill="#ebebeb" d="M339.203 149.675c-18.877-6.069-33.678-15.184-19.285-33.63 14.394-18.446 38.86-18.374 55.956-10.212 21.794 10.404 19.854 40.507 19.854 40.507s-37.648 9.402-56.525 3.335z"/></g><g><path fill="#f5f5f5" d="M303.822 118.185c18.832 6.21 36.162 7.556 35.39-15.828-.772-23.385-20.592-37.732-39.217-41.2-23.742-4.423-39.899 21.05-39.899 21.05s24.896 29.768 43.726 35.978z"/></g><g><path fill="#fafafa" d="M351.619 108.151c-13.48.919-25.148-1.12-20.689-16.426 4.46-15.307 19.967-21.43 32.847-20.575 16.422 1.092 22.784 20.635 22.784 20.635s-21.462 15.447-34.942 16.366z"/></g></g></g></g></g><g><g><path fill="#f5f5f5" d="M.028 578.06c0-10.8 149.922-19.556 334.861-19.556s334.862 8.756 334.862 19.557c0 10.8-149.923 19.556-334.862 19.556-184.939 0-334.861-8.756-334.861-19.556z"/></g></g><g><g><g><g><path fill="#407bff" d="M40.44 313.887V292.83h586.78v21.057z"/></g><g opacity=".3"><path fill="#fff" d="M40.44 313.887V292.83h157.038v21.057z"/></g><g><path fill="#407bff" d="M199.992 313.887h-13.668l7.158 263.858h13.019l7.158-263.858z"/></g><g opacity=".3"><path fill="#fff" d="M193.482 577.745h6.51V319.557l-13.447 2.457z"/></g><g><path fill="#407bff" d="M70.506 313.887H56.84l7.158 263.858h13.019l7.158-263.858z"/></g><g opacity=".3"><path fill="#fff" d="M63.997 577.745h6.51V319.557l-13.447 2.457z"/></g><g><path fill="#407bff" d="M597.153 313.887h-13.668l7.158 263.858h13.019l7.158-263.858z"/></g><g opacity=".3"><path fill="#fff" d="M590.643 577.745h6.51V319.557l-13.447 2.457z"/></g><g><path fill="#407bff" d="M467.668 313.887H454l7.158 263.858h13.019l7.158-263.858z"/></g><g opacity=".3"><path fill="#fff" d="M461.158 577.745h6.51V319.557l-13.447 2.457z"/></g></g><g><g><path fill="#263238" d="M318.967 180.127H179.359c-5.012 0-8.252 4.1-7.202 9.112l18.593 88.685c1.052 5.012 6.01 9.112 11.023 9.112H341.38c5.012 0 8.252-4.1 7.202-9.112l-18.594-88.685c-1.05-5.012-6.01-9.112-11.022-9.112z"/></g><g><path fill="#fff" d="M203.063 281.974c-3.278 0-6.76-2.903-7.454-6.214l-18.594-88.685c-.287-1.368-.057-2.596.646-3.46.66-.813 1.722-1.26 2.988-1.26h139.61c3.276 0 6.76 2.905 7.455 6.216l18.594 88.685c.285 1.364.055 2.594-.646 3.46-.672.823-1.703 1.258-2.99 1.258z"/></g><g opacity=".4"><path fill="#407bff" d="M308.399 274.881l-17.616-84.026a3.423 3.423 0 0 1 3.35-4.124h22.653a3.42 3.42 0 0 1 3.348 2.72l17.616 84.024a3.422 3.422 0 0 1-3.348 4.125h-22.654a3.422 3.422 0 0 1-3.35-2.719z"/></g><g><g><path fill="#407bff" d="M188.645 194.02l-.764-3.644h27.977l.764 3.645z"/></g><g><path fill="#ebebeb" d="M201.559 203.06l-.764-3.644h49.041l.764 3.644z"/></g><g><path fill="#ebebeb" d="M204.142 212.1l-.765-3.645h54.963l.764 3.645z"/></g><g><path fill="#ebebeb" d="M206.724 221.14l-.764-3.645h44.258l.764 3.645z"/></g></g><g><g><path fill="#407bff" d="M197.146 235.81l-.764-3.645h17.697l.765 3.645z"/></g><g><path fill="#ebebeb" d="M210.06 244.85l-.764-3.645h21.563l.764 3.644z"/></g><g><path fill="#ebebeb" d="M236.787 244.85l-.764-3.645h21.563l.764 3.644z"/></g><g><path fill="#ebebeb" d="M212.643 253.89l-.764-3.646h72.885l.764 3.645z"/></g><g><path fill="#ebebeb" d="M215.226 262.929l-.765-3.645h55.572l.764 3.645z"/></g></g><g><path fill="#263238" d="M384.147 286.503H200.448c-5.012 0-8.252 2.846-7.202 6.326H395.17c-1.05-3.48-6.01-6.326-11.022-6.326z"/></g></g><g><g opacity=".1"><path fill="#407bff" d="M140.087 157.704L122.47 73.68a3.423 3.423 0 0 1 3.35-4.125h142.663a3.42 3.42 0 0 1 3.35 2.72l17.615 84.026a3.422 3.422 0 0 1-3.348 4.124H143.435a3.423 3.423 0 0 1-3.348-2.72z"/></g><g><g><g><g><path fill="#407bff" d="M190.798 72.325h-29.944l-.672-3.222h29.944z"/></g><g opacity=".4"><path fill="#407bff" d="M185.927 77.463h-12.019l-.672-3.223h12.02z"/></g><g opacity=".4"><path fill="#407bff" d="M205.928 77.463h-18.519l-.672-3.223h18.52z"/></g><g opacity=".4"><path fill="#407bff" d="M214 82.6h-39.02l-.673-3.222h39.022z"/></g><g opacity=".4"><path fill="#407bff" d="M209.035 87.738H176.05l-.672-3.222h32.986z"/></g></g><g opacity=".4"><path fill="#407bff" d="M230.917 142.338h-20.998l.672 3.222h20.997z"/></g><g><g><path fill="#407bff" d="M204.733 135.284h-30.754l-.672-3.222h30.754z"/></g><g opacity=".4"><path fill="#407bff" d="M217.108 147.475h-28.604l.672 3.223h28.604z"/></g><g opacity=".4"><path fill="#407bff" d="M208.43 142.338h-20.997l.672 3.222h20.997z"/></g><g opacity=".4"><path fill="#407bff" d="M228.356 137.2h-41.994l.671 3.222h41.995z"/></g></g><g><g><path fill="#407bff" d="M189.75 48.357h-33.893l-.672-3.222h33.892z"/></g><g opacity=".4"><path fill="#407bff" d="M206.474 60.548h-37.366l.672 3.222h37.366z"/></g><g opacity=".4"><path fill="#407bff" d="M198.997 55.41h-30.96l.672 3.222h30.96z"/></g><g opacity=".4"><path fill="#407bff" d="M201.064 50.272h-34.098l.672 3.223h34.098z"/></g></g><g><g><path fill="#407bff" d="M189.358 96.098H165.81l-.672-3.222h23.548z"/></g><g opacity=".4"><path fill="#407bff" d="M226.353 108.289h-46.019l.672 3.222h46.019z"/></g><g opacity=".4"><path fill="#407bff" d="M198.328 103.151h-19.065l.672 3.222H199z"/></g><g opacity=".4"><path fill="#407bff" d="M219.018 103.151h-19.064l.671 3.222h19.065z"/></g><g opacity=".4"><path fill="#407bff" d="M220.187 98.013h-41.995l.672 3.223h41.994z"/></g><g opacity=".4"><path fill="#407bff" d="M220.105 123.702h-36.557l.672 3.222h36.557z"/></g><g opacity=".4"><path fill="#407bff" d="M193.107 118.564h-10.63l.671 3.223h10.63z"/></g><g opacity=".4"><path fill="#407bff" d="M209.746 118.564H194.57l.672 3.223h15.174z"/></g><g opacity=".4"><path fill="#407bff" d="M223.4 113.427h-41.994l.671 3.222h41.994z"/></g></g></g><g><g><g opacity=".4"><path fill="#407bff" d="M256.487 112.566H241.44l-.672-3.222h15.048z"/></g><g opacity=".4"><path fill="#407bff" d="M281.528 112.566h-23.185l-.672-3.222h23.185z"/></g><g opacity=".4"><path fill="#407bff" d="M291.365 117.704H242.51l-.672-3.222h48.854z"/></g><g opacity=".4"><path fill="#407bff" d="M284.878 122.842h-41.296l-.672-3.222h41.297z"/></g></g><g><g opacity=".4"><path fill="#407bff" d="M303.368 92.125h-46.781l.672 3.222h46.78z"/></g><g opacity=".4"><path fill="#407bff" d="M294.277 86.987h-38.761l.671 3.222h38.761z"/></g><g><path fill="#407bff" d="M287.268 81.85h-42.69l.672 3.222h42.69z"/></g></g><g><g opacity=".4"><path fill="#407bff" d="M305.48 143.393h-57.614l.672 3.222h57.614z"/></g><g opacity=".4"><path fill="#407bff" d="M270.663 138.255h-23.868l.672 3.222h23.868z"/></g><g opacity=".4"><path fill="#407bff" d="M296.567 138.255h-23.868l.671 3.222h23.869z"/></g><g opacity=".4"><path fill="#407bff" d="M298.3 133.117h-52.576l.672 3.222h52.575z"/></g><g opacity=".4"><path fill="#407bff" d="M296.849 158.806h-45.77l.672 3.222h45.77z"/></g><g opacity=".4"><path fill="#407bff" d="M263.317 153.668h-13.309l.672 3.222h13.308z"/></g><g opacity=".4"><path fill="#407bff" d="M284.148 153.668H265.15l.672 3.222h18.998z"/></g><g opacity=".4"><path fill="#407bff" d="M301.513 148.53h-52.576l.672 3.223h52.575z"/></g></g></g><g><g opacity=".4"><path fill="#407bff" d="M161.49 162.791h-35.812l.671 3.222h35.812z"/></g><g opacity=".4"><path fill="#407bff" d="M150.894 157.654h-26.287l.671 3.222h26.288z"/></g><g opacity=".4"><path fill="#407bff" d="M179.047 157.654h-26.288l.672 3.222h26.288z"/></g><g opacity=".4"><path fill="#407bff" d="M176.11 152.516h-52.575l.672 3.222h52.576z"/></g></g></g></g><g><g><path fill="#407bff" d="M578.322 259.284H556.15l2.583 33.546h17.006z"/></g><g opacity=".4"><path fill="#fff" d="M578.322 259.284H556.15l2.583 33.546h17.006z"/></g></g><g><g><path fill="#263238" d="M95.056 235.987h31.879l-10.883 56.842H84.174z"/></g><g><path fill="#407bff" d="M135.659 220.75H90.63l12.603 72.08h45.028z"/></g><g><g><path fill="#407bff" d="M87.968 220.75h2.662l12.603 72.08h-2.663z"/></g><g opacity=".3"><path d="M87.968 220.75h2.662l12.603 72.08h-2.663z"/></g></g><g><path fill="#fff" d="M109.707 285.125l-9.908-56.67h29.387l9.907 56.67z"/></g><g opacity=".6"><path fill="#407bff" d="M137.698 285.125l-9.907-56.67h1.395l9.907 56.67z"/></g></g></g></g><g><g><g><g><path fill="#263238" d="M358.67 128.546c.64 1.385.425 2.846-.48 3.264-.905.42-2.157-.364-2.797-1.748-.64-1.383-.425-2.846.48-3.264.905-.418 2.157.365 2.798 1.748z"/></g><g><path fill="#ff5652" d="M359.223 131.334s.546 9.44-1.136 14.896c3.506 1.153 7.186-1.817 7.186-1.817z"/></g><g><path fill="#263238" d="M358.838 117.2a.885.885 0 0 1-.513.196c-3.946.221-5.616 2.98-5.685 3.097a.897.897 0 0 1-1.551-.897c.088-.152 2.19-3.711 7.136-3.988a.896.896 0 0 1 .613 1.591z"/></g><g><path fill="#ff8b7b" d="M409.533 126.461c5.338 18.487 11.288 32.85 18.573 41.005 0 0 .13 14.531-24.625 21.441-27.22 7.6-16.78-9.88-16.78-9.88 13.865-7.696 12.5-19.304 2.104-23.72z"/></g><g><path fill="#263238" d="M433.874 163.932c-.492-6.763-1.12-14.464-5.293-14.66-4.59-.215-31.182 11.665-36.866 20.045-5.682 8.38 5.412 16.58 5.412 16.58z"/></g><g><g><path fill="#ff8b7b" d="M379.425 268.515l-22.967-.756.408 19.238s20.04-2.064 20.923-7.33z"/></g><g><path fill="#ff8b7b" d="M344.317 277.198l-2.409 9.838 14.958-.039-.408-19.239z"/></g><g><g><path fill="#407bff" d="M471.625 188.557l-.479 4.934c-.157 1.587-.378 3.152-.578 4.72a218.996 218.996 0 0 1-1.435 9.36c-1.04 6.234-2.389 12.43-3.928 18.669-1.618 6.216-3.4 12.483-5.742 18.78-1.194 3.159-2.432 6.316-3.928 9.535-1.481 3.22-3.09 6.45-5.184 9.756-.479.812-1.062 1.658-1.625 2.49a39.05 39.05 0 0 1-1.804 2.517c-.663.85-1.246 1.67-2.032 2.539l-1.126 1.278c-.366.415-.741.836-1.28 1.34-4.005 3.943-8.11 6.321-11.96 8.042-7.703 3.385-14.692 4.676-21.468 5.436-3.374.401-6.7.557-9.979.63-3.276.09-6.516.018-9.727-.163-3.209-.145-6.393-.458-9.559-.826a124.718 124.718 0 0 1-9.59-1.56l.552-18.044c11.088-2.204 22.697-4.466 32.645-7.782a68.078 68.078 0 0 0 7.014-2.696c2.157-.936 4.105-1.974 5.565-3.01 1.452-1.035 2.397-2.033 2.51-2.453l.512-.792c.204-.258.423-.71.644-1.066.223-.347.448-.779.674-1.23.226-.44.461-.848.682-1.362 1.81-3.836 3.575-8.658 4.99-13.7 1.41-5.08 2.754-10.39 3.825-15.847 1.171-5.43 2.102-10.998 3.053-16.578l1.315-8.396 1.18-8.17z"/></g><g opacity=".2"><path d="M471.625 188.557l-.479 4.934c-.157 1.587-.378 3.152-.578 4.72a218.996 218.996 0 0 1-1.435 9.36c-1.04 6.234-2.389 12.43-3.928 18.669-1.618 6.216-3.4 12.483-5.742 18.78-1.194 3.159-2.432 6.316-3.928 9.535-1.481 3.22-3.09 6.45-5.184 9.756-.479.812-1.062 1.658-1.625 2.49a39.05 39.05 0 0 1-1.804 2.517c-.663.85-1.246 1.67-2.032 2.539l-1.126 1.278c-.366.415-.741.836-1.28 1.34-4.005 3.943-8.11 6.321-11.96 8.042-7.703 3.385-14.692 4.676-21.468 5.436-3.374.401-6.7.557-9.979.63-3.276.09-6.516.018-9.727-.163-3.209-.145-6.393-.458-9.559-.826a124.718 124.718 0 0 1-9.59-1.56l.552-18.044c11.088-2.204 22.697-4.466 32.645-7.782a68.078 68.078 0 0 0 7.014-2.696c2.157-.936 4.105-1.974 5.565-3.01 1.452-1.035 2.397-2.033 2.51-2.453l.512-.792c.204-.258.423-.71.644-1.066.223-.347.448-.779.674-1.23.226-.44.461-.848.682-1.362 1.81-3.836 3.575-8.658 4.99-13.7 1.41-5.08 2.754-10.39 3.825-15.847 1.171-5.43 2.102-10.998 3.053-16.578l1.315-8.396 1.18-8.17z"/></g></g></g><g><g><path fill="#407bff" d="M369.643 211.435c5.563 23.112 12.746 61.857 14.388 112.516h101.127c.561-12.502-1.552-82.838-11.73-133.778-3.87-19.369-22.868-31.899-42.14-27.57-.163.036-.324.073-.484.11-12.615 2.874-30.744 7.507-41.405 11.56l-.436.165c-14.814 5.692-23.032 21.568-19.32 36.997z"/></g></g><g opacity=".2"><path d="M376.216 243.811a588.262 588.262 0 0 1 2.35 15.381c8.275-8.638 10.898-35.097 10.898-35.097z"/></g><g><g><path fill="#ff8b7b" d="M292.211 269.759l-22.88-2.145-.757 19.229s11.786 3.872 21.33-6.052z"/></g><g><path fill="#ff8b7b" d="M258.35 273.29l-7.368 13.212 17.593.34.757-19.228z"/></g><g><path fill="#407bff" d="M407.59 202.645c-1.598 3.032-3.007 5.699-4.594 8.466-1.558 2.735-3.12 5.457-4.758 8.136a348.626 348.626 0 0 1-10.17 15.906c-7.103 10.46-14.73 20.672-23.68 30.471-4.448 4.924-9.327 9.694-15.01 14.27-.68.576-1.47 1.137-2.206 1.702-.769.57-1.396 1.088-2.515 1.786a34.866 34.866 0 0 1-3.04 1.813 35.125 35.125 0 0 1-3.048 1.511c-4.084 1.788-8.065 2.886-11.887 3.608-7.675 1.353-14.805 1.244-21.627.49-3.409-.457-6.742-.977-10.013-1.785a70.814 70.814 0 0 1-4.87-1.299c-1.659-.473-3.12-1.019-4.976-1.666l2.858-17.825c10.842-1.474 22.566-3.36 30.65-7.009 2.018-.864 3.753-1.869 5.031-2.896.641-.501 1.228-.962 1.629-1.44.135-.154.656-.62 1.069-.999.428-.404.855-.744 1.288-1.195 3.467-3.36 6.959-7.383 10.378-11.656 6.805-8.603 13.254-18.157 19.463-27.917 3.107-4.885 6.14-9.86 9.155-14.846l4.465-7.509 4.3-7.364z"/></g></g><g><path fill="#ff8b7b" d="M379.835 563.148h-18.907l-9.504-43.784h18.907z"/></g><g><path fill="#263238" d="M359.876 559.096h21.241c.774 0 1.442.537 1.612 1.292l3.734 16.806c.387 1.742-.983 3.392-2.769 3.36-7.416-.127-11.019-.56-20.359-.56-5.747 0-13.122.595-21.058.595-7.761 0-8.972-7.846-5.723-8.558 14.568-3.186 15.59-7.58 20.253-11.773a4.586 4.586 0 0 1 3.07-1.162z"/></g><g opacity=".2"><g opacity=".2"><path d="M370.338 519.376h-18.915l5.273 24.244 18.55-1.676z"/></g></g><g><path fill="#ff8b7b" d="M403.478 104.258c6.818 17.482 11.699 27.367 7.148 40.063-6.842 19.098-31.426 21.019-43.33 5.927-10.717-13.583-20.067-39.89-6.558-54.35 13.31-14.249 35.92-9.121 42.74 8.36z"/></g><g><path fill="#263238" d="M370.275 130.442c-2.84 3.805-5.002 6.682-5.002 6.682s-5.82-14.455-3.594-21.084c-2.834-5.614-8.55 2.658-10.708-8.276-2.159-10.932 7.175-22.676 10.708-25.106.498.81.472 3.924.472 3.924s13.972-12.454 33.864-10.707c-1.366 1.367-1.898 5.087-1.898 5.087s20.5 3.518 25.158 15.06c-2.936-1.418-5.164-1.822-5.164-1.822s5.873 7.288 4.152 18.526c-1.721 11.236-2.532 23.649-2.33 28.549.204 4.901-13.262 14.276-21.462 4.252-8.2-10.023-24.196-15.085-24.196-15.085z"/></g><g><path fill="#ff8b7b" d="M378.832 126.677c1.185 4.278.588 8.886-.872 12.268-2.195 5.083-6.694 3.924-8.936-.587-2.015-4.06-3.304-11.6.27-15.213 3.521-3.557 8.186-1.359 9.538 3.532z"/></g><g><g><path fill="#407bff" d="M414.34 323.95s-87.802 31.833-90.39 73.966c-4.769 77.594 26.971 139.03 26.971 139.03l29.086-3.109s-5.173-24.973-9.036-95.272c-4.855-88.333 145.064 2.069 114.187-114.614z"/></g><g opacity=".5"><path fill="#fff" d="M414.34 323.95s-87.802 31.833-90.39 73.966c-4.769 77.594 26.971 139.03 26.971 139.03l29.086-3.109s-5.173-24.973-9.036-95.272c-4.855-88.333 145.064 2.069 114.187-114.614z"/></g></g><g><path fill="#407bff" d="M342.864 526.24c-.138.014 4.629 12.908 4.629 12.908l36.315-3.554-1.822-11.746z"/></g><g><g><path fill="#ff8b7b" d="M298.154 565.292h-18.907l-5.524-43.784h18.907z"/></g><g><path fill="#263238" d="M279.097 559.089l20.648-.028a1.645 1.645 0 0 1 1.61 1.289l3.759 16.8c.39 1.741-.93 3.394-2.715 3.367-7.449-.116-18.212-.538-27.573-.525-10.946.015-13.044.614-25.882.633-7.761.01-9.927-7.834-6.678-8.549 14.787-3.255 19.509-3.61 32.279-11.507 1.388-.858 2.92-1.479 4.552-1.48z"/></g><g opacity=".2"><path d="M273.728 521.52l3.005 23.847 18.754-1.279-2.844-22.568z"/></g></g><g><g><path fill="#407bff" d="M384.031 323.95s-143.878 12.76-142.325 85.018c1.615 75.157 29.69 125.85 29.69 125.85h28.095s-5.327-38.989-4.382-112.983c.283-22.167 45.075-29.492 88.82-32.077 37.788-2.235 73.159-23.774 87.84-58.666l3.002-7.141z"/></g><g opacity=".5"><path fill="#fff" d="M384.031 323.95s-143.878 12.76-142.325 85.018c1.615 75.157 29.69 125.85 29.69 125.85h28.095s-5.327-38.989-4.382-112.983c.283-22.167 45.075-29.492 88.82-32.077 37.788-2.235 73.159-23.774 87.84-58.666l3.002-7.141z"/></g></g><g><path fill="#407bff" d="M264.826 527.262c-.13.01 4.816 12.988 4.816 12.988l33.909-2.421-1.978-11.757z"/></g></g><g><g><g><path fill="#263238" d="M421.788 242.737l-18.25 70.347c-4.654 17.943-7.015 36.51-7.015 55.17v32.7c0 8.256 6.086 14.948 13.592 14.948H503.7c7.508 0 13.592-6.692 13.592-14.948v-32.7c0-18.66 2.363-37.227 7.017-55.17l16.12-62.145c2.477-9.548-4.042-19.05-13.07-19.05h-92.5c-6.07 0-11.406 4.428-13.07 10.848z"/></g><g><path fill="#263238" d="M305.404 381.844l3.064 17.442c1.611 9.178 9.684 16.616 18.027 16.616H430.52c8.345 0 13.802-7.438 12.191-16.616l-3.064-17.442c-1.832-10.442-11.017-18.906-20.512-18.906h-99.858c-9.495 0-15.704 8.464-13.872 18.906z"/></g></g><g><g><path fill="#407bff" d="M440.532 433.421h-54.49l-5.321-17.518h65.132z"/></g><g><g><path fill="#407bff" d="M403.552 563.665V433.42h19.47v130.244z"/></g><g opacity=".7"><path fill="#fff" d="M423.022 563.665h-19.47V436.55l19.47 1.981z"/></g><g opacity=".7"><path fill="#fff" d="M418.272 563.665h-4.65v-126.09l4.65.473z"/></g></g><g><path fill="#407bff" d="M458.053 583.791H368.52c-2.394 0-3.395-3.06-1.464-4.477l14.212-10.419a39.779 39.779 0 0 1 23.516-7.696h17.006a39.775 39.775 0 0 1 23.516 7.696l14.212 10.42c1.93 1.416.93 4.476-1.465 4.476z"/></g></g></g></g></g></g></g></svg>