<svg xmlns="http://www.w3.org/2000/svg" width="571" height="521" viewBox="0 0 571 521"><g><g><g><g><g><g><path fill="#f0f0f0" d="M493.335 440.765H49.19l-26.484-301.28H466.85z"/></g><g><path fill="#e0e0e0" d="M41.343 450.362l7.847-9.597-26.484-301.28-7.835 9.745z"/></g><g><path fill="#fafafa" d="M55.06 429.327L30.662 151.8a5.004 5.004 0 0 1 4.983-5.44h420.351a5.004 5.004 0 0 1 4.983 4.563l24.397 277.526a5.004 5.004 0 0 1-4.983 5.441H60.043a5.004 5.004 0 0 1-4.984-4.564z"/></g><g><path fill="#e0e0e0" d="M111.616 440.765H44.699l-4.733 13.534h66.917z"/></g><g><path fill="#f5f5f5" d="M111.616 440.765h440.002l-4.733 13.534H106.883z"/></g><g><path fill="#e0e0e0" d="M292.803 440.765h84.343l-.907 8.861h-84.343z"/></g></g><g><g><path fill="#e0e0e0" d="M420.61 119.713h106.566c8.83 58.461-32.01 106.566-90.469 106.566-18.706 0-37.828-4.924-55.44-14.277z"/></g><g><path fill="#ebebeb" d="M420.61 119.713l56.168-81.633c13.431 10.002 24.904 22.495 33.61 36.597 8.706 14.103 14.436 29.476 16.788 45.036z"/></g><g><path fill="#e6e6e6" d="M420.61 119.713L404.514 13.15c12.43 0 25.094 2.175 37.418 6.426 12.322 4.251 24.117 10.514 34.846 18.505z"/></g><g><path fill="#f0f0f0" d="M420.61 119.713l-39.343 92.29c-35.802-19.014-61.48-54.264-67.223-92.29-8.83-58.459 32.01-106.564 90.47-106.564z"/></g></g><g><g><path fill="#ebebeb" d="M289.057 309.885h94.53c1.249 8.261 1.408 16.486.475 24.466-.933 7.979-2.95 15.645-6 22.798z"/></g><g><path fill="#e0e0e0" d="M289.057 309.885l2.353-93.095c22.465 3.859 44.03 15.311 60.883 32.332 16.853 17.02 27.937 38.544 31.294 60.763z"/></g><g><path fill="#f0f0f0" d="M289.057 309.885l-83.945 32.332c-5.336-10.363-8.919-21.305-10.585-32.332-7.833-51.858 28.394-94.53 80.252-94.53 5.503 0 11.067.48 16.631 1.435z"/></g><g><path fill="#fff" d="M289.057 309.885l89.004 47.264c-12.452 29.213-40.995 47.266-74.725 47.266-39.647 0-79.037-24.942-98.224-62.198z"/></g></g></g></g><g><g><path fill="#f5f5f5" d="M.778 504.06c0-9.197 127.649-16.651 285.11-16.651 157.463 0 285.112 7.454 285.112 16.65 0 9.197-127.649 16.651-285.111 16.651S.779 513.256.779 504.06z"/></g></g><g><g><g><g><g><path fill="#fff" d="M272.044 244.003H139.59c-8.407 0-15.843-6.877-16.528-15.283l-6.63-81.444c-.684-8.405 5.633-15.283 14.04-15.283h132.453c8.406 0 15.843 6.878 16.527 15.283l6.63 81.444c.686 8.406-5.633 15.283-14.038 15.283z"/></g><g><path fill="#407bff" d="M262.925 132.629c8.104 0 15.233 6.595 15.892 14.7l6.632 81.443c.316 3.895-.912 7.562-3.462 10.328-2.535 2.75-6.067 4.266-9.943 4.266H139.59c-8.104 0-15.233-6.593-15.893-14.697l-6.63-81.444c-.318-3.896.911-7.563 3.46-10.329 2.536-2.75 6.068-4.267 9.945-4.267zm9.119 112.01c4.236 0 8.1-1.66 10.88-4.675 2.792-3.031 4.14-7.041 3.794-11.295l-6.63-81.444c-.714-8.75-8.412-15.868-17.163-15.868H130.472c-4.237 0-8.101 1.66-10.88 4.676-2.794 3.029-4.141 7.04-3.794 11.296l6.63 81.443c.712 8.75 8.411 15.866 17.162 15.866h132.454z"/></g></g><g><g><path fill="#e0e0e0" d="M236.098 220.224c-5.194 5.655-11.907 9.718-19.468 11.793l-2.192-6.279c16.309-4.457 27.348-19.663 25.876-37.735-.878-10.788-6.042-20.556-13.686-27.625l4.223-4.598c19.118 17.678 21.486 46.767 5.247 64.444z"/></g><g><path fill="#263238" d="M230.851 155.78l-4.223 4.598c-7.643-7.068-17.768-11.437-28.555-11.437-10.788 0-20.199 4.382-26.68 11.449l-4.986-4.61c7.851-8.547 19.062-13.348 31.136-13.348 12.086 0 24.068 4.802 33.308 13.348z"/></g><g><path fill="#407bff" d="M216.63 232.017c-15.362 4.203-32.54-.304-44.976-11.793-19.103-17.677-21.472-46.766-5.247-64.444l4.987 4.61c-6.494 7.069-10.067 16.825-9.19 27.613 1.756 21.561 20.667 39.048 42.229 39.048 3.489 0 6.852-.458 10.005-1.313z"/></g></g></g><g><g><path fill="#407bff" d="M81 1.618V.346h10.621v1.272z"/></g><g><path fill="#407bff" d="M46.526 1.618V.346h24.182v1.272z"/></g><g><g><path fill="#fff" d="M183.166 117.405H50.713c-8.407 0-15.845-6.878-16.529-15.284l-6.63-81.443c-.684-8.405 5.633-15.283 14.039-15.283h132.455c8.405 0 15.843 6.878 16.527 15.283l6.63 81.443c.684 8.406-5.633 15.284-14.039 15.284z"/></g><g><path fill="#407bff" d="M174.047 6.03c8.103 0 15.232 6.594 15.894 14.7l6.629 81.442c.318 3.897-.912 7.564-3.46 10.33-2.537 2.751-6.069 4.266-9.944 4.266H50.711c-8.102 0-15.233-6.594-15.891-14.699l-6.63-81.444c-.318-3.895.911-7.563 3.46-10.327 2.536-2.752 6.067-4.268 9.943-4.268zm9.12 112.012c4.234 0 8.099-1.66 10.878-4.677 2.794-3.03 4.141-7.04 3.795-11.296l-6.63-81.444c-.713-8.75-8.413-15.867-17.164-15.867H41.593c-4.235 0-8.1 1.66-10.88 4.677-2.793 3.029-4.14 7.04-3.793 11.294l6.63 81.443c.712 8.75 8.412 15.87 17.161 15.87z"/></g></g><g><g><path fill="#e0e0e0" d="M39.533 28.764h70.19l-.565-6.934H38.97z"/></g><g><path fill="#407bff" d="M179.912 28.764h-70.19l-.564-6.934h70.19z"/></g><g><path fill="#e0e0e0" d="M41.003 46.815h20.024l-.565-6.934H40.438z"/></g><g><path fill="#407bff" d="M181.382 46.815H61.027l-.565-6.934h120.355z"/></g><g><path fill="#e0e0e0" d="M42.473 64.866h62.477l-.565-6.934H41.908z"/></g><g><path fill="#407bff" d="M182.851 64.866H104.95l-.565-6.934h77.902z"/></g><g><path fill="#e0e0e0" d="M43.942 82.917h106.629l-.565-6.934H43.378z"/></g><g><path fill="#407bff" d="M184.32 82.917h-33.75l-.564-6.934h33.75z"/></g><g><path fill="#e0e0e0" d="M45.412 100.968h49.316l-.564-6.934H44.847z"/></g><g><path fill="#407bff" d="M185.79 100.968H94.728l-.564-6.934h91.062z"/></g></g></g><g><g><g><path fill="#fff" d="M364.237 117.405H231.784c-8.406 0-15.843-6.878-16.527-15.284l-6.63-81.443c-.686-8.405 5.631-15.283 14.038-15.283H355.12c8.405 0 15.843 6.878 16.527 15.283l6.63 81.443c.685 8.406-5.633 15.284-14.039 15.284z"/></g><g><path fill="#407bff" d="M355.119 6.03c8.104 0 15.233 6.594 15.893 14.7l6.629 81.442c.317 3.897-.91 7.564-3.46 10.329-2.537 2.751-6.068 4.267-9.944 4.267H231.784c-8.103 0-15.233-6.594-15.893-14.699l-6.63-81.444c-.318-3.895.91-7.563 3.46-10.329 2.537-2.751 6.068-4.266 9.943-4.266zm9.118 112.011c4.237 0 8.101-1.66 10.88-4.677 2.794-3.03 4.141-7.04 3.794-11.295l-6.63-81.444c-.712-8.75-8.411-15.867-17.162-15.867H222.664c-4.235 0-8.098 1.66-10.879 4.675-2.792 3.03-4.14 7.04-3.794 11.296l6.63 81.443c.714 8.75 8.412 15.87 17.163 15.87h132.453z"/></g></g><g><g><path fill="#e0e0e0" d="M297.841 100.968h-2.337L289.06 21.83h2.338z"/></g><g><path fill="#407bff" d="M301.371 68.084H286.62l-2.518-30.92h14.752z"/></g><g><path fill="#e0e0e0" d="M268.809 100.968h-2.338l-6.443-79.138h2.338z"/></g><g><path fill="#407bff" d="M272.898 74.951h-14.752l-2.206-27.103h14.751z"/></g><g><path fill="#e0e0e0" d="M239.777 100.968h-2.338l-6.443-79.138h2.338z"/></g><g><path fill="#263238" d="M242.05 52.653H227.3l-1.515-18.61h14.751z"/></g><g><path fill="#e0e0e0" d="M326.874 100.968h-2.338l-6.443-79.138h2.338z"/></g><g><path fill="#263238" d="M331.832 85.635h-14.751l-3.947-48.471h14.752z"/></g><g><path fill="#e0e0e0" d="M355.906 100.968h-2.338l-6.443-79.138h2.338z"/></g><g><path fill="#407bff" d="M361.337 91.443h-14.751l-3.16-38.82h14.751z"/></g></g></g><g><g><g><path fill="#fff" d="M222.495 369.56H90.04c-8.406 0-15.843-6.877-16.527-15.282l-6.632-81.445c-.684-8.405 5.634-15.282 14.04-15.282h132.454c8.405 0 15.843 6.877 16.527 15.282l6.63 81.445c.685 8.405-5.633 15.282-14.038 15.282z"/></g><g><path fill="#407bff" d="M213.376 258.186c8.104 0 15.233 6.595 15.893 14.699l6.629 81.444c.318 3.895-.91 7.563-3.46 10.326-2.535 2.753-6.067 4.269-9.943 4.269H90.04c-8.103 0-15.233-6.596-15.893-14.698l-6.63-81.444c-.318-3.895.911-7.563 3.46-10.329 2.536-2.75 6.068-4.267 9.944-4.267zm9.119 112.01c4.236 0 8.1-1.66 10.881-4.677 2.793-3.029 4.14-7.04 3.792-11.293l-6.63-81.444c-.713-8.75-8.411-15.868-17.162-15.868H80.922c-4.236 0-8.1 1.66-10.88 4.676-2.792 3.03-4.14 7.04-3.794 11.295l6.63 81.444c.712 8.75 8.412 15.867 17.163 15.867h132.454z"/></g></g><g><g><path fill="#407bff" d="M98.842 311.611l28.547 32.984 32.738-50.499 20.245 26.096 4.94-7.62 33.092 39.661-127.098-.047z"/></g><g><path fill="#e0e0e0" d="M194.143 313.658l-13.267 28.412-42.32-67.193-19.927 42.671-6.386-10.14-20.933 44.825 127.089-.063z"/></g></g></g></g></g><g><g><g><path fill="#407bff" d="M466.581 125.884c3.543 6.65 6.587 13.218 9.453 20.061 2.794 6.848 5.377 13.804 7.395 21.152.516 1.825.961 3.704 1.39 5.595.168.641.585 2.687.582 3.988.067 1.442-.044 2.744-.224 3.99-.797 4.887-2.508 8.636-4.373 12.175-3.81 7.01-8.402 12.818-13.746 18.305a4.16 4.16 0 0 1-6.676-4.81l.104-.2c3.152-6.087 6.273-12.507 8.382-18.602 1.016-3.019 1.82-6.108 1.816-8.382-.018-.544-.034-1.042-.116-1.39-.034-.182-.068-.343-.125-.433l-.272-.865c-.49-1.585-.993-3.169-1.58-4.766-2.229-6.384-4.983-12.796-7.841-19.156a574.72 574.72 0 0 0-8.947-18.919l-.062-.123a8.342 8.342 0 0 1 3.781-11.175c4.05-2.002 8.945-.401 11.06 3.555z"/></g><g><path fill="#7f3e3b" d="M461.98 205.515l-7.017 2.21 8.26 9.67s3.188-2.805 4.336-6.867c.387-1.371-.179-2.837-1.333-3.67l-1.17-.846a3.469 3.469 0 0 0-3.076-.497z"/></g><g><path fill="#7f3e3b" d="M445.295 213.686l8.851 7.022 9.077-3.313-8.26-9.67z"/></g><g><path fill="#263238" d="M415.072 76.7c-.178.87-.782 1.483-1.35 1.366-.569-.114-.887-.914-.71-1.783.176-.87.78-1.483 1.35-1.366.569.116.886.914.71 1.783z"/></g><g><path fill="#630f0f" d="M414.37 78.199s-2.998 4.617-5.668 6.595c1.247 1.75 3.997 1.625 3.997 1.625z"/></g><g><path fill="#263238" d="M419.238 72.517a.52.52 0 0 0 .384-.875c-1.96-2.118-4.334-1.743-4.437-1.725a.521.521 0 0 0 .174 1.028c.078-.012 1.935-.284 3.497 1.406.102.11.242.166.382.166z"/></g><g><path fill="#7f3e3b" d="M439.23 92.534c-1.577 8.053-2.53 19.208 3.103 24.581 0 0-2.201 8.169-17.163 8.169-16.452 0-7.914-7.169-7.914-7.169 6.837-2.122 6.779-9.911 5.214-16.168z"/></g><g><path fill="#407bff" d="M414.37 116.856s2.399-5.683 4.85-6.664c2.45-.98 18.053-3.545 21.649-1.284 3.594 2.265 6.021 9.535 6.021 9.535z"/></g><g><path fill="#407bff" d="M433.391 492.69c-2.047.29-4.829.272-5.34-.438-.067-.093-.134-.253.05-.577.102-.18.27-.3.511-.365.15-.04.32-.06.503-.06 1.287 0 3.256.916 4.276 1.44zm-2.53.695c1.316 0 2.674-.169 3.376-.309a.261.261 0 0 0 .08-.482c-.164-.094-4.01-2.285-5.842-1.788-.376.103-.654.307-.826.61-.309.54-.182.918-.022 1.14.457.634 1.822.83 3.234.83z"/></g><g><path fill="#407bff" d="M431.5 488.62c.331 0 .628.11.906.338.919.754 1.31 2.529 1.453 3.393-1.356-.814-3.144-2.685-3.023-3.432.008-.06.04-.245.508-.292.052-.006.105-.008.156-.008zm2.685 4.46a.262.262 0 0 0 .26-.285c-.013-.126-.308-3.09-1.708-4.24a1.906 1.906 0 0 0-1.446-.447c-.716.073-.923.436-.97.729-.202 1.244 2.429 3.625 3.758 4.22.034.017.071.024.106.024z"/></g><g><path fill="#7f3e3b" d="M446.289 492.82h-11.007l-1.096-25.488h11.006z"/></g><g><path fill="#263238" d="M435.354 491.546h12.02c.45 0 .84.311.938.751l2.174 9.783a1.602 1.602 0 0 1-1.584 1.959c-4.335-.074-10.6-.328-16.05-.328-6.372 0-7.144.347-14.616.347-4.518 0-5.773-4.569-3.882-4.982 8.61-1.884 10.908-2.085 18.349-6.673.809-.499 1.701-.857 2.651-.857z"/></g><g><path fill="#263238" d="M462.04 117.153c10.316 2.365 17.121 30.204 17.121 30.204l-17.223 12.937s-9.395-5.82-12.779-18.994c-3.547-13.802 2.334-26.564 12.88-24.147z"/></g><g opacity=".2"><path d="M453.199 136.52c5.604 5.543 9.224 14.294 9.658 23.073l-.913.704s-9.404-5.829-12.79-18.998a37.835 37.835 0 0 1-.539-2.458z"/></g><g><g><g transform="rotate(-21.784 469.5 206.5)"><path fill="#407bff" d="M424.766 239.803V172.88h89.987v66.923z"/></g><g opacity=".5" transform="rotate(-21.784 469 207)"><path fill="#fff" d="M424.813 240.048v-66.923h88.664v66.923z"/></g></g><g opacity=".5"><g opacity=".5" transform="rotate(-21.784 427.5 196.5)"><path fill="#407bff" d="M423.654 199.613v-5.95h8.395v5.95z"/></g><g opacity=".5" transform="rotate(-21.784 440.5 191.5)"><path fill="#407bff" d="M436.526 194.469v-5.95h8.394v5.95z"/></g><g opacity=".5" transform="rotate(-21.784 453.5 186.5)"><path fill="#407bff" d="M449.397 189.325v-5.95h8.394v5.95z"/></g><g opacity=".5" transform="rotate(-21.784 466.5 181)"><path fill="#407bff" d="M462.268 184.181v-5.95h8.395v5.95z"/></g><g opacity=".5" transform="rotate(-21.784 479.5 176)"><path fill="#407bff" d="M475.14 179.037v-5.95h8.394v5.95z"/></g><g opacity=".5" transform="rotate(-21.785 492.5 171)"><path fill="#407bff" d="M488.01 173.893v-5.95h8.395v5.95z"/></g><g opacity=".5" transform="rotate(-21.783 431.5 206)"><path fill="#407bff" d="M427.3 208.736v-5.95h8.395v5.95z"/></g><g opacity=".5" transform="rotate(-21.784 444.5 200.5)"><path fill="#407bff" d="M440.172 203.592v-5.95h8.394v5.95z"/></g><g opacity=".5" transform="rotate(-21.784 457.5 195.5)"><path fill="#407bff" d="M453.043 198.449v-5.95h8.394v5.95z"/></g><g opacity=".5" transform="rotate(-21.784 470.5 190.5)"><path fill="#407bff" d="M465.914 193.305v-5.95h8.395v5.95z"/></g><g opacity=".5" transform="rotate(-21.784 483 185)"><path fill="#407bff" d="M478.785 188.16v-5.95h8.395v5.95z"/></g><g opacity=".5" transform="rotate(-21.784 495.5 180)"><path fill="#407bff" d="M491.657 183.017v-5.95h8.394v5.95z"/></g><g opacity=".5" transform="rotate(-21.784 435.5 215)"><path fill="#407bff" d="M430.947 217.86v-5.95h8.394v5.95z"/></g><g opacity=".5" transform="rotate(-21.783 448 210)"><path fill="#407bff" d="M443.818 212.716v-5.95h8.395v5.95z"/></g><g opacity=".5" transform="rotate(-21.784 460.5 204.5)"><path fill="#407bff" d="M456.69 207.572v-5.95h8.394v5.95z"/></g><g opacity=".5" transform="rotate(-21.784 473.5 199.5)"><path fill="#407bff" d="M469.56 202.428v-5.95h8.395v5.95z"/></g><g opacity=".5" transform="rotate(-21.785 486.5 194.5)"><path fill="#407bff" d="M482.431 197.284v-5.95h8.395v5.95z"/></g><g opacity=".5" transform="rotate(-21.785 499.5 189)"><path fill="#407bff" d="M495.303 192.14v-5.95h8.394v5.95z"/></g><g opacity=".5" transform="rotate(-21.784 438.5 224)"><path fill="#407bff" d="M434.593 226.983v-5.95h8.394v5.95z"/></g><g opacity=".5" transform="rotate(-21.784 451.5 219)"><path fill="#407bff" d="M447.464 221.84v-5.95h8.395v5.95z"/></g><g opacity=".5" transform="rotate(-21.783 464.5 213.5)"><path fill="#407bff" d="M460.335 216.696v-5.95h8.395v5.95z"/></g><g opacity=".5" transform="rotate(-21.784 477.5 208.5)"><path fill="#407bff" d="M473.206 211.552v-5.95h8.395v5.95z"/></g><g opacity=".5" transform="rotate(-21.784 490.5 203.5)"><path fill="#407bff" d="M486.078 206.408v-5.95h8.394v5.95z"/></g><g opacity=".5" transform="rotate(-21.784 503.5 198.5)"><path fill="#407bff" d="M498.949 201.264v-5.95h8.394v5.95z"/></g><g opacity=".5" transform="rotate(-21.783 442.5 233)"><path fill="#407bff" d="M438.24 236.107v-5.95h8.394v5.95z"/></g><g opacity=".5" transform="rotate(-21.784 455.5 228)"><path fill="#407bff" d="M451.11 230.963v-5.95h8.395v5.95z"/></g><g opacity=".5" transform="rotate(-21.784 468.5 223)"><path fill="#407bff" d="M463.981 225.82v-5.951h8.395v5.95z"/></g><g opacity=".5" transform="rotate(-21.784 481.5 217.5)"><path fill="#407bff" d="M476.853 220.675v-5.95h8.394v5.95z"/></g><g opacity=".5" transform="rotate(-21.785 493.5 212.5)"><path fill="#407bff" d="M489.724 215.531v-5.95h8.394v5.95z"/></g><g opacity=".5" transform="rotate(-21.784 506.5 207.5)"><path fill="#407bff" d="M502.595 210.388v-5.95h8.394v5.95z"/></g><g opacity=".5" transform="rotate(-21.784 446.5 242)"><path fill="#407bff" d="M441.885 245.23v-5.95h8.395v5.95z"/></g><g opacity=".5" transform="rotate(-21.784 459 237)"><path fill="#407bff" d="M454.757 240.087v-5.95h8.394v5.95z"/></g><g opacity=".5" transform="rotate(-21.784 471.5 232)"><path fill="#407bff" d="M467.628 234.943v-5.95h8.394v5.95z"/></g><g opacity=".5" transform="rotate(-21.784 484.5 227)"><path fill="#407bff" d="M480.499 229.799v-5.95h8.394v5.95z"/></g><g opacity=".5" transform="rotate(-21.783 497.5 221.5)"><path fill="#407bff" d="M493.37 224.655v-5.95h8.395v5.95z"/></g><g opacity=".5" transform="rotate(-21.784 510.5 216.5)"><path fill="#407bff" d="M506.241 219.511v-5.95h8.395v5.95z"/></g></g><g><g><path fill="#fff" d="M492.212 178.293a2.332 2.332 0 1 1 4.332-1.73 2.332 2.332 0 0 1-4.332 1.73z"/></g><g><path fill="#fff" d="M490.278 210.808a2.333 2.333 0 1 1 4.333-1.73 2.333 2.333 0 0 1-4.333 1.73z"/></g><g><path fill="#fff" d="M460.89 211.972a2.332 2.332 0 1 1 4.332-1.73 2.332 2.332 0 0 1-4.331 1.73z"/></g><g><path fill="#fff" d="M442.44 240.508a2.332 2.332 0 1 1 4.33-1.732 2.332 2.332 0 0 1-4.33 1.732z"/></g><g><path fill="#fff" d="M444.605 240.506a.864.864 0 0 1-.725-1.334l18.45-28.536a.858.858 0 0 1 .691-.392l28.607-1.135 1.885-31.734a.881.881 0 0 1 .915-.811c.476.03.84.438.812.914l-1.932 32.516a.862.862 0 0 1-.828.81l-28.942 1.148-18.206 28.159a.862.862 0 0 1-.727.395z"/></g></g></g><g><path fill="#263238" d="M396.853 128.19c-2.25 11.89-3.657 36.307 2.874 84.662h58.87c-1.063-8.386-5.273-53.12 3.442-95.699 0 0-10.09-2.025-19.706-2.488-7.523-.363-18.412-.603-25.024 0a96.45 96.45 0 0 0-7.885 1.078c-6.366 1.126-11.37 6.094-12.571 12.446z"/></g><g opacity=".2"><path d="M406.11 146.5l-11.057.882c-.397 14.308.588 35.189 4.676 65.466h.53c6.631-21.807 15.425-52.982 5.852-66.348z"/></g><g><g opacity=".2"><path d="M434.189 467.338l.562 13.138h11.012l-.564-13.138z"/></g></g><g><path fill="#7f3e3b" d="M444.463 80.754c-2.828 10.551-3.947 16.871-10.457 21.258-9.795 6.6-21.988-.974-22.37-12.158-.343-10.066 4.339-25.63 15.662-27.756 11.155-2.095 19.992 8.106 17.165 18.656z"/></g><g><path fill="#263238" d="M419.76 80.824l-5.719 1.486 5.322-13.802c-.577-1.054-2.093-5.85-.49-10.646a3.132 3.132 0 0 1 2.916-2.145c11.855-.231 24.245 6.423 30.49 11.455a3.07 3.07 0 0 1 .693 3.993c-1.367 2.24-3.138 3.953-5.369 6.222-.117 3.864-6.429 21.326-9.92 23.288-3.493 1.96-10.172 1.163-11.949-2.022-1.776-3.186-7.781-7.414-5.974-17.83z"/></g><g><path fill="#7f3e3b" d="M425.052 81.043c-.643 2.788-2.397 5.217-4.261 6.686-2.805 2.207-5 .169-4.885-3.076.103-2.922 1.688-7.59 4.823-8.542 3.088-.936 5.058 1.744 4.323 4.932z"/></g><g><path fill="#407bff" d="M526.41 492.11c-.303-2.044-.305-4.826.404-5.342.091-.068.251-.135.576.047.181.102.302.268.368.507.043.152.062.321.063.505.01 1.285-.895 3.26-1.411 4.283zm-.712-2.525c.009 1.317.185 2.674.33 3.375a.262.262 0 0 0 .215.205.264.264 0 0 0 .268-.13c.093-.163 2.26-4.023 1.75-5.852-.105-.375-.312-.652-.615-.822-.54-.305-.919-.177-1.14-.015-.632.462-.817 1.826-.808 3.24z"/></g><g><path fill="#407bff" d="M530.134 491.102c-.748.925-2.519 1.328-3.385 1.475.806-1.362 2.666-3.162 3.413-3.046.06.009.246.038.297.507.006.052.008.105.01.156 0 .331-.108.63-.335.908zm-4.111 1.807a.26.26 0 0 0 .287.257c.126-.013 3.088-.328 4.229-1.735a1.9 1.9 0 0 0 .438-1.448c-.078-.717-.443-.921-.735-.967-1.246-.194-3.609 2.453-4.197 3.785a.27.27 0 0 0-.022.108z"/></g><g><path fill="#7f3e3b" d="M526.19 492.981l-10.74.76-6.034-25.692 10.74-.76z"/></g><g><path fill="#263238" d="M526.154 490.513l-11.974-1.058a.958.958 0 0 0-.999.666l-3.029 9.554c-.313.99.369 2.016 1.406 2.09 4.324.308 10.587.606 16.016 1.087 6.348.562 2.237.547 9.68 1.206 4.502.398 6.153-4.04 4.306-4.62-8.411-2.635-9.935-4.456-12.842-7.837-.619-.72-1.619-1.002-2.564-1.088z"/></g><g><g opacity=".2"><path d="M509.42 468.056l3.107 13.243 10.745-.76-3.108-13.244z"/></g></g><g><path fill="#407bff" d="M420.61 212.852s25.317 84.543 34.924 115.926c10.518 34.365 50.543 148.377 50.543 148.377l19.406-4.265s-27.416-97.957-38.785-145.884c-8.732-36.814-28.101-114.154-28.101-114.154z"/></g><g><path fill="#263238" d="M502.669 471.153c-.089.01 1.91 7.58 1.91 7.58l23.342-2.507-.107-6.936z"/></g><g opacity=".3"><path d="M434.634 252.035c14.008 1.847 19.587 50.668 21.684 79.32-.265-.908-.545-1.768-.789-2.583-5.242-17.134-15.17-50.15-23.107-76.58.657-.219 1.406-.266 2.212-.157z"/></g><g><path fill="#407bff" d="M399.727 212.852s8.491 82.339 12.15 115.857c3.804 34.865 18.086 149.223 18.086 149.223h18.645s-2.26-112.271-3.01-146.557c-.82-37.38-7.175-118.523-7.175-118.523z"/></g><g><path fill="#263238" d="M427.062 470.506c-.085 0 1.052 7.74 1.052 7.74h22.68l.614-6.908z"/></g><g><g><path fill="#263238" d="M371.507 257.91c8.18 12.973 4.293 30.124-8.681 38.304-12.977 8.182-30.129 4.294-38.308-8.68-8.182-12.979-4.295-30.129 8.683-38.31 12.974-8.18 30.125-4.292 38.306 8.685zm-51.406 32.407c9.718 15.415 30.095 20.031 45.51 10.313 15.413-9.717 20.03-30.09 10.314-45.506-9.719-15.413-30.094-20.035-45.509-10.317-15.413 9.717-20.032 30.097-10.315 45.51z"/></g><g opacity=".2"><path fill="#407bff" d="M372.834 278.348c-3.107 13.708-16.739 22.301-30.447 19.195-13.71-3.108-22.305-16.741-19.198-30.447 3.107-13.713 16.74-22.306 30.45-19.2 13.708 3.108 22.303 16.741 19.195 30.452z"/></g><g><path fill="#263238" d="M376.83 251.123l3.093 4.906a1.595 1.595 0 0 1-2.698 1.701l-3.094-4.905a1.595 1.595 0 0 1 .5-2.2 1.594 1.594 0 0 1 2.2.498z"/></g><g><path fill="#263238" d="M396.84 237.177a422.632 422.632 0 0 0-10.626 7.48c-3.503 2.558-6.976 5.163-10.347 7.93a2.195 2.195 0 0 0-.595 2.624 2.194 2.194 0 0 0 2.916 1.056c3.95-1.848 7.796-3.859 11.614-5.916 3.816-2.061 7.589-4.19 11.333-6.364a517.435 517.435 0 0 0 9.49-5.667 1.905 1.905 0 0 0 .618-2.64l-2.549-4.04a1.905 1.905 0 0 0-2.648-.583 514.645 514.645 0 0 0-9.205 6.12z"/></g></g><g><path fill="#407bff" d="M413.238 132.308c-1.8 8.827-3.732 17.624-5.736 26.4l-6.1 26.255c-1.972 8.56-3.661 17.24-5.21 26.042l-4.627 26.476-.01.06a4.15 4.15 0 0 1-8.238-.571c-.318-9.19-.177-18.28.338-27.428.547-9.118 1.391-18.32 2.893-27.471 1.432-8.998 3.043-17.893 4.767-26.78a747.486 747.486 0 0 1 5.621-26.531 8.341 8.341 0 0 1 10.007-6.25c4.415 1.02 7.19 5.385 6.295 9.798z"/></g><g><path fill="#7f3e3b" d="M390.302 235.09a3.05 3.05 0 0 0-2.918-.863l-2.39.57a3.034 3.034 0 0 0-2.306 2.56l-.692 5.31a6.763 6.763 0 0 0 .92 4.376l3.281 5.432a3.694 3.694 0 0 0 3.716 1.386l3.422-.726a3.696 3.696 0 0 0 2.75-4.754l-.897-2.768s-.054-5.414-4.886-10.523z"/></g><g><path fill="#263238" d="M424.693 127.204c5.351 14.196-13.158 34.44-13.158 34.44l-23.42-7.746s1.793-19.37 9.921-30.29c10.042-13.488 22.584-7.209 26.657 3.596z"/></g></g></g></g></g></svg>