<svg xmlns="http://www.w3.org/2000/svg" width="535" height="623" viewBox="0 0 535 623"><g><g><path fill="#ebebeb" d="M148.614 588.499v-.329h11.44v.329z"/></g><g><path fill="#ebebeb" d="M37.336 572.707v-.329h62.73v.33z"/></g><g><path fill="#ebebeb" d="M484.302 574.918v-.329h31.162v.33z"/></g><g><path fill="#ebebeb" d="M438.57 574.918v-.329h34.015v.33z"/></g><g><path fill="#ebebeb" d="M326.418 580.475v-.33h85.066v.33z"/></g><g><path fill="#ebebeb" d="M526.708 132.827c3.961 0 7.183 3.222 7.183 7.182v357.204a7.19 7.19 0 0 1-7.183 7.183H272.59c-3.96 0-7.182-3.222-7.182-7.183V140.01c0-3.96 3.222-7.182 7.182-7.182zM272.59 504.725h254.118c4.141 0 7.512-3.37 7.512-7.512V140.01c0-4.142-3.37-7.51-7.512-7.51H272.59c-4.14 0-7.51 3.368-7.51 7.51v357.204c0 4.142 3.37 7.512 7.51 7.512z"/></g><g><g><g><path fill="#e6e6e6" d="M474.318 563.417V425.163h36.194v138.254z"/></g><g><path fill="#f0f0f0" d="M503.637 563.417h6.875v-19.555H496.43z"/></g><g><path fill="#e6e6e6" d="M267.806 563.417V425.163H304v138.254z"/></g><g><path fill="#f0f0f0" d="M298 551.417V425.163h212.512v126.254z"/></g><g><g transform="rotate(-90 337 479)"><path fill="#e6e6e6" d="M288.86 510.766v-62.995h95.408v62.995z"/></g><g><path fill="#f0f0f0" d="M342.796 437.035h-12.463a19.717 19.717 0 0 1-14.312-6.156h41.087a19.717 19.717 0 0 1-14.312 6.156z"/></g></g><g><g transform="rotate(-90 404 479)"><path fill="#e6e6e6" d="M356.553 510.766v-62.995h95.407v62.995z"/></g><g><path fill="#f0f0f0" d="M411.124 437.035h-12.462a19.717 19.717 0 0 1-14.313-6.156h41.088a19.72 19.72 0 0 1-14.313 6.156z"/></g></g><g><g transform="rotate(-90 472 479)"><path fill="#e6e6e6" d="M424.245 510.766v-62.995h95.407v62.995z"/></g><g><path fill="#f0f0f0" d="M478.817 437.035h-12.464a19.717 19.717 0 0 1-14.311-6.156h41.086a19.717 19.717 0 0 1-14.311 6.156z"/></g></g><g><path fill="#f0f0f0" d="M304.874 563.417H298v-19.555h14.082z"/></g></g><g><g><path fill="#e6e6e6" d="M19.646 344.288V157.552h199.38v186.736z"/></g><g><path fill="#f0f0f0" d="M22.992 344.288V157.552h203.195v186.736z"/></g><g><path fill="#e6e6e6" d="M19.646 357.594v-13.306h199.38v13.306z"/></g><g><path fill="#f0f0f0" d="M34.921 357.594v-13.306h203.195v13.306z"/></g><g transform="rotate(90 125 251)"><path fill="#fafafa" d="M41.246 342.493V159.347h166.687v183.146z"/></g><g><path fill="#fff" d="M52.195 334.264l58.836-166.687h27.775L79.969 334.264z"/></g><g><path fill="#f0f0f0" d="M37.658 277.711a.717.717 0 0 0 .716-.716V174.098a.717.717 0 0 0-1.432 0v102.897c0 .395.32.716.716.716z"/></g><g><path fill="#fff" d="M85.935 334.264l58.837-166.687H155.6L96.764 334.264z"/></g><g transform="rotate(90 215.5 251)"><path fill="#e6e6e6" d="M132.182 251.557v-1.273H298.87v1.273z"/></g><g><path fill="#e6e6e6" d="M228.558 180.402H29.178l-.923-8.929h199.38z"/></g><g><path fill="#e6e6e6" d="M228.558 186.937H29.178l-.923-8.928h199.38z"/></g><g><path fill="#e6e6e6" d="M228.558 194.78H29.178l-.923-8.93h199.38z"/></g><g><path fill="#e6e6e6" d="M228.558 203.506H29.178l-.923-8.929h199.38z"/></g><g><path fill="#e6e6e6" d="M228.558 213.962H29.178l-.923-8.928h199.38z"/></g><g><path fill="#e6e6e6" d="M228.558 225.726H29.178l-.923-8.929h199.38z"/></g></g><g><g><path fill="#f0f0f0" d="M19.94 557.355v-95.662h35.767v95.662z"/></g><g><path fill="#f0f0f0" d="M26.807 563.416v-6.061h176.388v6.061z"/></g><g><path fill="#f5f5f5" d="M55.707 557.355v-95.662h154.356v95.662z"/></g><g><path fill="#f0f0f0" d="M69.769 504.841v-31.374H196v31.374z"/></g><g><path fill="#f0f0f0" d="M69.769 545.58v-31.374H196v31.374z"/></g><g><path fill="#f5f5f5" d="M116.54 491.305a1.315 1.315 0 0 1-1.315-1.314v-1.673c0-.726.589-1.315 1.315-1.315h32.69c.725 0 1.314.589 1.314 1.315v1.673c0 .726-.589 1.314-1.315 1.314z"/></g><g><path fill="#f5f5f5" d="M116.54 532.044a1.315 1.315 0 0 1-1.315-1.315v-1.672c0-.727.589-1.315 1.315-1.315h32.69c.725 0 1.314.588 1.314 1.315v1.672c0 .726-.589 1.315-1.315 1.315z"/></g></g><g><g><g transform="rotate(-166.717 378.5 397.5)"><path fill="#f5f5f5" d="M365.246 397.456c0-7.246 5.874-13.12 13.12-13.12 7.245 0 13.118 5.874 13.118 13.12 0 7.245-5.873 13.12-13.119 13.12-7.245 0-13.119-5.875-13.119-13.12z"/></g><g transform="rotate(-166.717 401.5 396.5)"><path fill="#f5f5f5" d="M388.16 396.336c0-7.246 5.873-13.12 13.119-13.12 7.245 0 13.119 5.874 13.119 13.12 0 7.245-5.874 13.119-13.12 13.119-7.245 0-13.119-5.874-13.119-13.12z"/></g><g transform="rotate(-166.718 432.5 398.5)"><path fill="#f5f5f5" d="M419.572 398.66c0-7.245 5.874-13.119 13.119-13.119s13.12 5.874 13.12 13.12c0 7.245-5.875 13.118-13.12 13.118-7.245 0-13.12-5.873-13.12-13.119z"/></g><g transform="rotate(-166.717 419.5 404.5)"><path fill="#f5f5f5" d="M406.04 404.715c0-7.245 5.873-13.119 13.119-13.119 7.246 0 13.12 5.874 13.12 13.12 0 7.245-5.874 13.118-13.12 13.118-7.245 0-13.12-5.873-13.12-13.119z"/></g></g><g><path fill="#e6e6e6" d="M347.838 402.176s1.48 23.202 58.196 23.202 58.195-23.202 58.195-23.202z"/></g></g><g><g><path fill="#e6e6e6" d="M445.637 311.437V189.519h49.02v121.918z"/></g><g><path fill="#f5f5f5" d="M450.186 311.437V189.519h54.942v121.918z"/></g><g transform="rotate(90 477.5 250.5)"><path fill="#fff" d="M424.532 269.583v-38.21h106.25v38.21z"/></g></g><g><g><path fill="#e6e6e6" d="M368.262 268.985V147.067h49.019v121.918z"/></g><g><path fill="#f5f5f5" d="M372.81 268.985V147.067h54.942v121.918z"/></g><g transform="rotate(90 400.5 208)"><path fill="#fff" d="M347.156 227.13v-38.21h106.25v38.21z"/></g></g><g><g><path fill="#e6e6e6" d="M297.43 344.288V222.37h49.018v121.918z"/></g><g><path fill="#f5f5f5" d="M301.978 344.288V222.37h54.942v121.918z"/></g><g transform="rotate(90 329.5 283.5)"><path fill="#fff" d="M276.323 302.434v-38.21h106.251v38.21z"/></g></g></g><g><path fill="#f5f5f5" d="M.342 607.95c0-8.23 114.238-14.902 255.158-14.902s255.158 6.672 255.158 14.901c0 8.23-114.238 14.902-255.158 14.902S.342 616.18.342 607.949z"/></g><g><path fill="#ff8b7b" d="M17.8 294.11l-3.838 9.156 20.182 11.325 3.838-9.156z"/></g><g><path fill="#ff8b7b" d="M30.957 234.435l-5.012 8.57 15.942 18.283 5.012-8.57z"/></g><g><path fill="#263238" d="M25.876 244.544l10.45-6.109a.867.867 0 0 0 .386-1.012l-2.76-8.608c-.288-.893-1.346-1.278-2.147-.79-3.328 2.023-5.666 3.654-9.9 6.13-2.605 1.523-8.13 4.39-11.727 6.495-3.52 2.057-1.987 5.935-.327 5.396 7.449-2.417 11.1-1.88 14.326-1.215.582.12 1.186.013 1.7-.287z"/></g><g><path fill="#ff8b7b" d="M258.185 344.725a1139.933 1139.933 0 0 0 3.81 23.005l4.043 23.276a20.11 20.11 0 0 0 3.533 7.852c1.656 2.228 3.596 3.984 5.57 5.425 3.986 2.845 8.143 4.51 12.23 5.794 4.106 1.246 8.197 2.04 12.275 2.553 2.04.255 4.08.415 6.118.536 2.057.122 4.027.175 6.19.117l.482-7.438c-3.56-.724-7.335-1.575-10.877-2.65-3.573-1.04-7.057-2.243-10.284-3.695-3.22-1.429-6.203-3.163-8.408-5.11-1.091-.968-1.964-1.987-2.539-2.97-.562-.995-.868-1.907-.982-2.862l-.523-5.522c-.185-1.971-.419-3.926-.641-5.884-.45-3.911-.935-7.813-1.471-11.702a503.564 503.564 0 0 0-3.692-23.255z"/></g><g><g><path fill="#263238" d="M256.71 347.568c.198 2 .514 4.067.882 6.12 1.62 8.883 4.409 17.37 4.409 17.37l16.055-4.631s3.922-14.884-.026-26.715c-4-11.95-15.871-12.647-20.424-3.29-1.237 2.54-1.356 6.645-.895 11.146z"/></g><g opacity=".2"><path fill="#fff" d="M256.71 347.568c.198 2 .514 4.067.882 6.12 1.62 8.883 4.409 17.37 4.409 17.37l16.055-4.631s3.922-14.884-.026-26.715c-4-11.95-15.871-12.647-20.424-3.29-1.237 2.54-1.356 6.645-.895 11.146z"/></g></g><g opacity=".2"><path d="M256.71 347.568c.198 2 .514 4.067.883 6.12l6.685-1.356c-.553-3.369-4.277-7.711-7.567-4.764z"/></g><g><path fill="#ff8b7b" d="M307.134 405.034l10.849.438-4.76 11.756s-6.949.175-9.097-6.73z"/></g><g><path fill="#ff8b7b" d="M326.09 411.156l-7.955 6.13-4.912-.058 4.759-11.755z"/></g><g><g opacity=".2"><path d="M34.139 314.586l-10.404-5.836 3.84-9.16 10.404 5.837z"/></g><g opacity=".2"><path d="M46.896 252.711l-5.014 8.574-8.637-9.914 6.637-6.71z"/></g></g><g><g><path fill="#263238" d="M258.957 350.81c-11.024-4.19-32.27-10.418-69.234-15.117l10.624-52.028c32.354.631 59.21 7.543 96.598 19.336 0 0-3.293 12.9-7.142 20.684-3.01 6.09-7.596 14.78-10.97 19.729-.446.654-.903 1.3-1.362 1.929-4.23 5.8-11.803 8.018-18.514 5.467z"/></g><g opacity=".2"><path fill="#fff" d="M258.957 350.81c-11.024-4.19-32.27-10.418-69.234-15.117l10.624-52.028c32.354.631 59.21 7.543 96.598 19.336 0 0-3.293 12.9-7.142 20.684-3.01 6.09-7.596 14.78-10.97 19.729-.446.654-.903 1.3-1.362 1.929-4.23 5.8-11.803 8.018-18.514 5.467z"/></g></g><g transform="rotate(-174.755 211.5 312.5)"><path fill="#263238" d="M204.848 342.807v-60.994h13.278v60.994z"/></g><g><path fill="#fff" d="M211.619 315.45l5.182.476a2.52 2.52 0 0 0 2.74-2.278 2.521 2.521 0 0 0-2.28-2.74l-5.182-.475a2.52 2.52 0 0 0-.46 5.017z"/></g><g><path fill="#fff" d="M209.794 335.702l5.182.476a2.52 2.52 0 0 0 2.74-2.278 2.521 2.521 0 0 0-2.28-2.74l-5.183-.475a2.519 2.519 0 1 0-.46 5.017z"/></g><g><path fill="#263238" d="M212.314 287.37V0h2.878v287.37z"/></g><g opacity=".2"><path d="M279.03 305.83s-10.233-4.939-15.861-12.761c3.903 1.032 7.9 2.134 11.998 3.319z"/></g><g><path fill="#ff8b7b" d="M310.93 337.99c-7.04-2.284-19.361-7.509-21.127-14.304 0 0-7.404-1.845-13.963 9.95-7.21 12.97 2.992 9.778 2.992 9.778 5.626-6.14 10.777-3.036 15.024.938z"/></g><g opacity=".2"><path d="M303.966 340.583l-10.102 3.768c-1.003-.945-2.058-1.834-3.164-2.556 1.895-2.487 6.929-4.552 9.92-3.264 1.491.642 2.815 1.456 3.346 2.052z"/></g><g><path fill="#263238" d="M339.152 333.375c1.897-2.282 3.974-2.65 6.141-1.347-5.902 5.128-5.473 18.172-14.814 21.54-9.342 3.368-16.35-7.671-18.602-11.898-.784-1.47-.95-2.774-.68-3.888-3.091-4.384 8.455-10.213 5.052-16.034-3.73-6.377 1.1-9.451 10.523-11.902-1.357 6.858 13.334 16.55 12.38 23.53z"/></g><g><path fill="#ff8b7b" d="M311.296 330.227c-9.107 3.762-14.629 5.5-17.792 11.835-4.76 9.53 3.438 19.553 13.485 18.589 9.043-.869 22.418-6.872 22.997-17.25.572-10.22-9.583-16.935-18.69-13.174z"/></g><g><path fill="#263238" d="M307.502 337.07c4.723.79 17.746 1.964 20.77-7.495 3.025-9.458-14.37-10.103-14.838-17.907-7.544 1.197-6.05 5.07-10.88 11.285-7.853 10.103-3.144 12.762 4.948 14.116z"/></g><g><path fill="#263238" d="M334.467 348.107c3-3.733 3.237-14.453-2.267-22.719-5.504-8.264-3.702-.45-10.738-3.86 1.606 5.046-.912 15.066.662 22.21 2.05 9.3 7.201 10.762 12.343 4.369z"/></g><g><path fill="#ff8b7b" d="M304.352 330.293c-2.295 1.34-3.758 3.614-4.279 5.734-.783 3.189 2.094 4.681 5.05 3.708 2.66-.876 6.275-3.59 5.744-6.75-.522-3.112-3.893-4.222-6.515-2.692z"/></g><g><g><path fill="#263238" d="M302.902 333.887a1.562 1.562 0 1 0 3.005.868 1.562 1.562 0 0 0-3.005-.868z"/></g><g><path fill="#263238" d="M290.424 353.65c.014 0 .03 0 .046-.002a.302.302 0 0 0 .25-.343c-1.366-8.937 4.792-17.32 13.73-18.686a.301.301 0 0 0-.09-.595c-9.267 1.417-15.651 10.107-14.234 19.372a.302.302 0 0 0 .298.255z"/></g><g><path fill="#263238" d="M291.045 358.25a1.209 1.209 0 0 0 1.045-1.349l-.503-3.97a1.208 1.208 0 0 0-1.348-1.045 1.21 1.21 0 0 0-1.046 1.348l.504 3.971a1.21 1.21 0 0 0 1.348 1.045z"/></g></g><g><path fill="#263238" d="M189.723 335.693s-60.312 27.197-89.76 20.082c-30.63-7.401-75.55-42.702-75.55-42.702l6.502-15.51S72.548 323.435 103 328.89c33.197 5.947 68.223-32.601 93.707-27.398l-6.984 34.2z"/></g><g opacity=".2"><path d="M172.001 312.742c-3.964 8.597-25.705 14.268-38.438 11.686 11.767-4.604 23.342-11.406 34.202-16.496 3.402.973 5.3 2.496 4.236 4.81z"/></g><g><path fill="#263238" d="M193.492 317.236s-58.123 8.266-84.735-3.481c-29.143-12.864-75.467-56.708-75.467-56.708l11.503-12.368s37.736 29.376 67.158 39.33c31.933 10.802 64.025-5.321 88.396-.344-4.07 19.924-6.855 33.57-6.855 33.57z"/></g><g><g><path fill="#263238" d="M30.94 257.068l14.713-14.16 4.415 4.629-15.232 15.184z"/></g><g opacity=".2"><path fill="#fff" d="M30.94 257.068l14.713-14.16 4.415 4.629-15.232 15.184z"/></g></g><g><g><path fill="#263238" d="M23.346 314.288l7.594-17.802 6.003 2.493-8.397 20.526z"/></g><g opacity=".2"><path fill="#fff" d="M23.346 314.288l7.594-17.802 6.003 2.493-8.397 20.526z"/></g></g><g><path fill="#263238" d="M313.534 345.23c-.757.26-1.234.871-1.064 1.366.17.495.921.686 1.678.426.758-.259 1.235-.87 1.065-1.367-.17-.495-.921-.686-1.68-.425z"/></g><g><path fill="#263238" d="M316.469 353.792c-.758.26-1.235.871-1.065 1.366.171.495.923.685 1.68.426.757-.259 1.234-.871 1.064-1.367-.17-.495-.921-.686-1.68-.425z"/></g><g><path fill="#ff5652" d="M315.158 351.198s-3.778 3.221-5.236 5.84c-1.71-.91-1.92-3.386-1.92-3.386z"/></g><g><path fill="#263238" d="M304.557 350.274a7.57 7.57 0 0 0 .08 1.773.235.235 0 0 0 .465-.075c-.562-3.468 1.602-5.482 1.625-5.501a.236.236 0 0 0 .016-.333.238.238 0 0 0-.333-.016c-.08.074-1.654 1.538-1.853 4.152z"/></g><g><path fill="#263238" d="M315.388 341.594a.47.47 0 0 0 .321.402c1.992.656 2.458 2.324 2.462 2.341a.47.47 0 0 0 .91-.242c-.024-.09-.607-2.18-3.079-2.992a.471.471 0 0 0-.614.49z"/></g><g><path fill="#263238" d="M320.673 356.424a.47.47 0 0 0 .8.288c1.843-1.835 1.428-3.964 1.408-4.055a.47.47 0 1 0-.921.19c.02.083.315 1.74-1.152 3.198a.47.47 0 0 0-.135.379z"/></g><g><path fill="#ff8b7b" d="M292.77 297.804a90.668 90.668 0 0 0-2.256-5.23 193.146 193.146 0 0 0-2.413-5.023 143.065 143.065 0 0 0-5.422-9.769c-1.918-3.21-4.049-6.336-6.319-9.4l-1.74-2.283-1.86-2.232c-.606-.746-1.289-1.465-1.955-2.189l-1-1.082-.251-.27-.43-.435c-.328-.333-.644-.595-.968-.866-2.574-2.012-4.8-2.786-6.913-3.471-2.11-.648-4.098-1.045-6.053-1.37-3.904-.615-7.662-.837-11.386-.933-7.453-.154-14.68.34-22 1.331l.266 7.45c6.938.627 14 1.4 20.766 2.435 3.38.526 6.716 1.166 9.802 1.991 1.533.41 3.013.878 4.27 1.415 1.23.512 2.334 1.19 2.515 1.466.01.026.037.05.01.044.013.025-.055-.059.03.05l.187.239.74.948c.491.633.994 1.247 1.457 1.931l1.42 1.995 1.377 2.064a146.996 146.996 0 0 1 5.165 8.651c1.625 2.978 3.212 6 4.722 9.07.764 1.529 1.513 3.069 2.232 4.616l2.078 4.552z"/></g><g><g><path fill="#263238" d="M296.625 304.21c3.592-8.786-15.792-30.509-15.792-30.509l-14.476 6.8s1.241 13.746 8.377 23.723c7.514 10.507 17.817 9.952 21.891-.014z"/></g><g opacity=".2"><path fill="#fff" d="M296.625 304.21c3.592-8.786-15.792-30.509-15.792-30.509l-14.476 6.8s1.241 13.746 8.377 23.723c7.514 10.507 17.817 9.952 21.891-.014z"/></g></g><g><path fill="#407bff" d="M21.93 247.223a.683.683 0 0 1-.294.103c-.07.004-.164-.012-.267-.163-.208-.312-.26-.606-.155-.899.24-.666 1.328-1.374 2.953-1.933-.64 1.125-1.58 2.508-2.236 2.892zm.236-2.518c-.652.38-1.197.848-1.395 1.401-.156.437-.086.88.208 1.319.219.325.493.38.683.37 1.232-.072 3.005-3.383 3.202-3.76a.234.234 0 0 0-.276-.335c-.678.206-1.63.54-2.422 1.005z"/></g><g><path fill="#407bff" d="M24.84 248.209a1.06 1.06 0 0 1-.095.047c-.283.121-.377.015-.418-.031-.437-.502-.173-2.56.316-3.744.324.78.892 2.382.558 3.277a.836.836 0 0 1-.362.451zm-.302-4.486a.245.245 0 0 0-.083.081c-.605 1-1.221 3.88-.482 4.73.135.154.437.38.957.154.338-.14.578-.403.712-.766.52-1.396-.721-3.989-.774-4.098a.232.232 0 0 0-.2-.133.231.231 0 0 0-.13.032z"/></g><g><path fill="#407bff" d="M11.25 308.86a.939.939 0 0 1-.363.263c-.104.033-.189.013-.285-.063-.248-.2-.366-.437-.358-.724.021-.816 1.07-2.073 2.834-3.424-.46 1.448-1.186 3.262-1.828 3.949zm-.273-2.715c-.673.72-1.184 1.49-1.202 2.178-.014.438.167.808.532 1.102a.745.745 0 0 0 .723.145c1.313-.42 2.565-4.718 2.703-5.206a.237.237 0 0 0-.09-.257.24.24 0 0 0-.273.002c-.698.5-1.645 1.237-2.393 2.036z"/></g><g><path fill="#407bff" d="M14.617 308.658a1.458 1.458 0 0 1-.101.099c-.321.279-.46.184-.507.154-.567-.38-.696-2.711-.396-4.106.483.626 1.41 1.98 1.339 3.05-.021.322-.13.586-.335.803zm-1.283-4.518a.228.228 0 0 0-.05.085c-.426 1.24-.481 4.441.462 5.077.223.148.588.237 1.08-.191a1.72 1.72 0 0 0 .595-1.228c.107-1.63-1.663-3.653-1.738-3.739a.236.236 0 0 0-.349-.004z"/></g><g><path fill="#ff8b7b" d="M224.586 261.293l-8.563 5.315-1.583-12.582s8.295-2.906 10.325 1.317z"/></g><g><path fill="#ff8b7b" d="M205.266 266.163l-.738-10.383 9.912-1.755 1.583 12.582z"/></g><g><g><g><path fill="#407bff" d="M144.53 464.307v-16.492h297.59v16.492z"/></g><g opacity=".2"><path d="M144.53 464.307v-16.492h77.346v16.492z"/></g><g><g><path fill="#407bff" d="M150.17 607.95a2.843 2.843 0 0 1-2.843-2.844v-140.8h18.652v140.8a2.843 2.843 0 0 1-2.843 2.844z"/></g><g opacity=".2"><path d="M150.17 607.95a2.843 2.843 0 0 1-2.843-2.844v-140.8h9.326V607.95z"/></g></g><g><g><path fill="#407bff" d="M423.514 607.95a2.843 2.843 0 0 1-2.844-2.844v-140.8h18.652v140.8a2.843 2.843 0 0 1-2.843 2.844z"/></g><g opacity=".2"><path d="M423.514 607.95a2.843 2.843 0 0 1-2.844-2.844v-140.8h9.326V607.95z"/></g></g><g><g><path fill="#407bff" d="M355.493 607.95a2.843 2.843 0 0 1-2.843-2.844v-140.8h18.652v140.8a2.843 2.843 0 0 1-2.844 2.844z"/></g><g opacity=".2"><path d="M355.493 607.95a2.843 2.843 0 0 1-2.843-2.844v-140.8h9.326V607.95z"/></g></g><g><path fill="#407bff" d="M162.064 520.561v-32.33h263.27v32.33z"/></g><g opacity=".2"><path d="M162.064 520.561v-32.33h59.812v32.33z"/></g><g><g><path fill="#407bff" d="M218.191 607.95a2.843 2.843 0 0 1-2.843-2.844v-140.8H234v140.8a2.843 2.843 0 0 1-2.843 2.844z"/></g><g opacity=".2"><path d="M218.191 607.95a2.843 2.843 0 0 1-2.843-2.844v-140.8h9.326V607.95z"/></g></g></g><g><g><g><path fill="#407bff" d="M395.3 438.808c0-.983.47-1.85 1.187-2.418a14.194 14.194 0 0 0 3.057 5.284 3.075 3.075 0 0 1-1.151.227 3.096 3.096 0 0 1-3.093-3.093zm.814-3.87c-1.33.785-2.232 2.218-2.232 3.87a4.516 4.516 0 0 0 4.511 4.511c.805 0 1.552-.229 2.206-.6a14.154 14.154 0 0 0 9.455 3.62c7.855 0 14.222-6.37 14.222-14.226h-28.445c0 .968.098 1.913.283 2.825z"/></g><g opacity=".3"><path fill="#fafafa" d="M395.3 438.808c0-.983.47-1.85 1.187-2.418a14.194 14.194 0 0 0 3.057 5.284 3.075 3.075 0 0 1-1.151.227 3.096 3.096 0 0 1-3.093-3.093zm.814-3.87c-1.33.785-2.232 2.218-2.232 3.87a4.516 4.516 0 0 0 4.511 4.511c.805 0 1.552-.229 2.206-.6a14.154 14.154 0 0 0 9.455 3.62c7.855 0 14.222-6.37 14.222-14.226h-28.445c0 .968.098 1.913.283 2.825z"/></g></g><g><g><path fill="#407bff" d="M427.67 444.859c0 1.633-7.887 2.957-17.616 2.957-9.73 0-17.616-1.324-17.616-2.957z"/></g><g opacity=".6"><path fill="#fafafa" d="M427.67 444.859c0 1.633-7.887 2.957-17.616 2.957-9.73 0-17.616-1.324-17.616-2.957z"/></g></g></g><g><g><path fill="#263238" d="M316.031 400.695h72.234l-9.359 44.488h-72.234z"/></g><g><g><path fill="#407bff" d="M317.366 400.695h72.233l-9.358 44.489v2.632h-72.234v-2.632z"/></g><g opacity=".5"><path fill="#fafafa" d="M317.366 400.695h72.233l-9.358 44.489v2.632h-72.234v-2.632z"/></g></g><g><path fill="#263238" d="M283.53 447.815v-2.632h24.477v2.632z"/></g></g><g><g><path fill="#407bff" d="M152.925 447.816v-9.671h86.312v9.67z"/></g><g opacity=".8"><path fill="#fafafa" d="M180.78 447.816v-9.671h58.457v9.67z"/></g><g opacity=".5"><path fill="#fafafa" d="M152.925 447.816v-9.671h27.855v9.67z"/></g><g opacity=".4"><path fill="#407bff" d="M151.5 441.067v-.598h25.369v.598z"/></g><g opacity=".4"><path fill="#407bff" d="M156.68 442.789v-.598h21.934v.598z"/></g><g opacity=".4"><path fill="#407bff" d="M152.376 445.104v-.598h21.934v.598z"/></g><g opacity=".1"><path fill="#407bff" d="M194.1 445.701v-.598h47.292v.598z"/></g><g opacity=".1"><path fill="#407bff" d="M188.178 443.28v-.599h40.886v.598z"/></g><g opacity=".1"><path fill="#407bff" d="M198.688 440.134v-.599h40.885v.599z"/></g></g></g></g></svg>