<svg xmlns="http://www.w3.org/2000/svg" width="468" height="466" viewBox="0 0 468 466"><g><g><path fill="#ebf3fa" d="M160.274 56.853c76.224 17.734 145.553-69.185 222.65-55.136 8.532 1.555 17.04 4.49 23.375 10.055 8.266 7.26 11.848 18.102 13.048 28.648 4.28 37.64-16.734 79.092 3.752 111.738 6.276 10 15.839 17.777 23.539 26.865 26.938 31.795 27.51 80.732 1.32 113.07-9.257 11.43-21.398 20.902-28.662 33.53-22.222 38.628 5.957 96.31-29.273 125.265-14.473 11.895-35.169 14.025-54.428 14.504-11.78.294-24.2.024-34.367-5.548-14.306-7.84-20.486-23.961-31.58-35.487-17.754-18.443-46.863-23.563-73.28-21.24-26.418 2.323-51.73 10.869-77.837 15.306-9.078 1.543-18.502 2.577-27.462.523-14.252-3.268-25.3-13.886-33.327-25.374C12.804 329.256 41.79 247.04 31.95 175.859 25.196 127.006-42.581 47.524 44.314 21.406 87.158 8.53 121.531 47.84 160.274 56.853z"/></g><g><path fill="#ffb27d" d="M265.095 210.517s-16.897 33.803-34.061 57.137c-6.83 9.287-13.702 16.915-19.567 20.096-5.74 3.112-10.6 7.949-14.623 13.308-10.415 13.877-15.222 31.25-15.222 31.25l-43.89-66.401s1.497-64.908 6.767-75.765c7.68-15.822 11.39-47.79 14.341-54.155 2.19-4.721 8.44-29.11 9.04-30.902.26-.772 2.34-1.956 5.041-1.954 2.168 0 5.848 2.095 6.776 6.4 4.694 21.762-.955 36.117-.891 36.755 1.655 16.724-3.322 29.139.168 32.427.13.121.371.064.713-.154 6.05-3.885 43.604-58.635 48.23-59.817 4.885-1.246 37.178 91.775 37.178 91.775z"/></g><g><path fill="#f99746" d="M194.827 319.167s-.597 29.507-2.309 69.249H81.808c25.307-53.965 47.307-99.386 47.307-99.386s63.037 1.925 65.712 30.137z"/></g><g><path fill="#ffb27d" d="M303.47 96.114l-13.592 19.926-13.337 19.553c-.813.982-1.755 1.323-2.773 1.225-3.2-.304-7.16-4.92-10.247-7.476l-.313-.257c-4.07-3.367-4.644-9.45-1.278-13.517l20.386-24.642v-.002l6.046-7.308c3.366-4.07 9.45-4.644 13.517-1.278l.313.257c4.07 3.367 4.644 9.45 1.278 13.52z"/></g><g><path fill="#efa26f" d="M289.877 116.04l-13.337 19.554c-.813.98-1.754 1.322-2.773 1.224l8.548-45.892c.019.257 1.472 20.848 7.562 25.114z"/></g><g><path fill="#efa26f" d="M231.035 267.654c-6.83 9.287-13.701 16.915-19.567 20.096-5.74 3.112-10.6 7.95-14.622 13.308a1063.788 1063.788 0 0 1-15.053-7.19c-6.277-3.051-6.517-11.963-.37-15.266.06-.032.119-.065.176-.098 5.76-3.296 11.664-14.934 11.664-14.934z"/></g><g><path fill="#ffc197" d="M167.575 106.095l-3.557 14.357s3.109 1.272 5.106.284c1.996-.987 3.625-13.868-1.55-14.64z"/></g><g><path fill="#2b478b" d="M192.7 274.438c-7.18 0-13-5.82-13-13V92c0-7.18 5.82-13 13-13h77.821c7.18 0 13 5.82 13 13v169.438c0 7.18-5.82 13-13 13z"/></g><g><g><path fill="#c0d8fb" d="M278.376 93.97v164.19c0 5.571-4.525 10.127-10.053 10.127h-73.426c-5.528 0-10.051-4.556-10.051-10.126V93.97c0-5.57 4.523-10.127 10.05-10.127h73.427c5.528 0 10.053 4.556 10.053 10.127z"/></g><g><path fill="#cbe1fd" d="M268.323 83.844l-72.518 184.443h-.908c-5.528 0-10.051-4.556-10.051-10.126V93.97c0-5.57 4.523-10.127 10.05-10.127z"/></g></g><g><path fill="#2b478b" d="M215.723 89.95a4 4 0 0 1-4-4v-1.804a4 4 0 0 1 4-4H247.5a4 4 0 0 1 4 4v1.804a4 4 0 0 1-4 4z"/></g><g><g><path fill="#ffb27d" d="M296.704 171.36l-2.027.77-13.63 5.18c-.32.12-.643.224-.966.305-4.513 1.173-9.315-1.233-11.007-5.686l-.2-.523c-1.813-4.773.607-10.163 5.38-11.976l12.706-4.828.924-.352 2.027-.77c4.772-1.813 10.16.607 11.973 5.38l.2.524c1.813 4.773-.607 10.162-5.38 11.975z"/></g><g><path fill="#ffd3b6" d="M285.635 171.672c-2.274.862-6.393 2.392-8.595 2.708-.623.09-1.771-.249-2.843-1.422-.642-.703-1.258-1.704-1.714-3.092-.214-.653-.39-1.303-.466-1.973a8.327 8.327 0 0 1 .075-2.347c.125-.7.603-1.338 1.3-1.674.003-.003.008-.003.01-.005 2.343-1.119 5.499-2.482 8.267-3.242 1.913-.528 3.849.317 4.454 1.991l.287.782 1.462 4.006c.606 1.665-.378 3.568-2.237 4.268z"/></g><g><path fill="#ffc197" d="M285.635 171.672c-2.274.862-6.392 2.392-8.595 2.708-.623.09-1.771-.25-2.842-1.423a10.52 10.52 0 0 1-.32-.85c-.214-.652-.39-1.302-.465-1.972a8.336 8.336 0 0 1 .074-2.347c.125-.7.603-1.338 1.3-1.674.003-.003.008-.003.01-.005 2.343-1.119 5.5-2.482 8.267-3.241 1.226-.34 2.46-.115 3.346.53l1.463 4.006c.605 1.665-.38 3.568-2.237 4.268z"/></g></g><g><g><path fill="#ffb27d" d="M290.519 190.521l-10.51 2.862c-3.195.87-6.519-1.032-7.389-4.226l-.323-1.19c-.87-3.193 1.031-6.518 4.226-7.387l10.51-2.862c3.194-.87 6.518 1.032 7.388 4.226l.324 1.19c.87 3.193-1.032 6.518-4.226 7.387z"/></g><g><path fill="#ffd3b6" d="M284.835 190.006c-1.93.515-5.42 1.425-7.25 1.524-.665.038-1.997-.525-2.867-2.274a7.094 7.094 0 0 1-.538-1.483c-.127-.515-.224-1.026-.234-1.544-.013-.61.064-1.21.234-1.799.152-.53.593-.989 1.188-1.2.006-.003.008-.003.01-.006 2.003-.707 4.694-1.552 7.02-1.958 1.608-.281 3.133.49 3.509 1.816l.271.947.81 2.843c.374 1.315-.575 2.715-2.153 3.134z"/></g><g><path fill="#ffc197" d="M284.835 190.006c-1.93.515-5.42 1.425-7.25 1.524-.665.038-1.997-.525-2.867-2.274a6.708 6.708 0 0 1-.212-1.45 6.027 6.027 0 0 1 .235-1.799c.151-.528.592-.989 1.188-1.2.005-.003.008-.003.01-.006 2.003-.707 4.694-1.552 7.02-1.955 1.33-.235 2.606.256 3.22 1.183l.81 2.843c.373 1.315-.577 2.715-2.154 3.134z"/></g></g><g><path fill="#ed7d2b" d="M118.337 311.418s21.635 20.72 36.219 28.721l11.042-7.832v11.554s21.717 3.84 28.567 0v-31.508l-60.996-30.577z"/></g><g><path fill="#dceaff" d="M198.773 341.353c-8.402 1.723-26.512-4.877-26.512-4.877l2.921-28.213-20.464 23.437c-10.414-3.876-26.702-13.989-36.379-20.282-4.818-3.135-7.998-5.321-7.998-5.321 13.656-21.975 27.393-42.528 27.393-42.528 4.031 8.066 13.574 15.07 23.92 20.672 17.19 9.311 36.594 14.75 36.594 14.75-.006 16.767.525 42.362.525 42.362z"/></g><g><g><path fill="#ffb27d" d="M296.373 151.216c-.074.027-.15.052-.226.077l-13.78 3.538c-6.06 1.557-12.325-1.722-13.924-7.285l-.82-2.85c-1.537-5.342 1.766-10.927 7.397-12.739l4.55-1.168 9.23-2.37c6.059-1.556 12.324 1.722 13.924 7.285l.82 2.85c1.514 5.27-1.68 10.773-7.17 12.662z"/></g><g><path fill="#ffd3b6" d="M290.058 147.369l-6.694 3.017-.042.01c-.27.072-.54.127-.81.167-.112.017-.226.03-.339.042a1.065 1.065 0 0 1-1.066-1.502 6.659 6.659 0 0 0 .379-4.54l-.16-.582a.046.046 0 0 0-.005-.018l-.518-1.9a7.128 7.128 0 0 0-2.85-4.017c-1.323-.917-.986-2.992.563-3.423l.042-.012 7.347-1.111c1.817-.494 3.566.904 4.062 2.72l.59 2.165 1.255 4.617c.494 1.818.063 3.874-1.754 4.367z"/></g><g><path fill="#ffc197" d="M290.058 147.369l-6.694 3.017-.042.01c-.157.03-.648.112-1.29.212a1.065 1.065 0 0 1-.925-1.505 6.657 6.657 0 0 0 .379-4.54l-.16-.582a.048.048 0 0 0-.005-.018l-.518-1.9a7.128 7.128 0 0 0-2.427-3.7c.237-.347.59-.62 1.054-.75.013-.005.028-.008.043-.013l7.347-1.11c1.53-.417 3.01.51 3.736 1.895l1.256 4.617c.493 1.818.063 3.874-1.754 4.367z"/></g></g><g><path fill="#efa26f" d="M179.7 222.891s-3.007-26.242-5.78-31.358c-2.774-5.119-5.12-15.366-.854-22.98 4.267-7.617 5.741-22.267 5.741-22.267 1.656 16.724-3.321 29.139.169 32.427.13.121.371.064.713-.154z"/></g><g><path fill="#699dee" d="M162.88 180.15c-14.91 0-27-12.088-27-27v-.937c0-14.912 12.09-27 27-27h63.525c14.912 0 27 12.088 27 27v.937c0 14.912-12.088 27-27 27z"/></g><g><g><path fill="#9abff6" d="M210.22 118.256a9 9 0 0 1-9-9v-.73a9 9 0 0 1 9-9h33.843a9 9 0 0 1 9 9v.73a9 9 0 0 1-9 9z"/></g></g><g><g><path fill="#9abff6" d="M203.098 255.572c-6.075 0-11-4.925-11-11v-1.106c0-6.075 4.925-11 11-11h38.257c6.076 0 11 4.925 11 11v1.106c0 6.075-4.924 11-11 11z"/></g></g><g><g><path fill="#f99746" d="M227.71 222.891c-8.836 0-16-7.163-16-16v-1.166c0-8.836 7.164-16 16-16h28.259c8.836 0 16 7.164 16 16v1.166c0 8.837-7.164 16-16 16z"/></g></g><g><path fill="#ffb27d" d="M389.922 388.428h-81.193c-3.893-2.61-24.113-16.402-32.48-26.684-1.771-2.18-8.257-20.958-13.241-36.204-3.111-9.523-5.639-17.673-6.066-19.542-.148-.651-.247-1.941-.307-3.688v-.018c-.212-6.235.078-18.26.376-27.81l.002-.044.005-.126.04-1.242v-.014c.003-.04.003-.083.004-.124.055-1.659.108-3.222.157-4.645.126-3.554.232-6.228.276-7.274l.017-.487.004-.002c.129-.073 4.034-2.157 9.255 1.604 1.26.909 2.424 3.104 3.487 5.969.68 1.828 1.317 3.928 1.91 6.141 2.28 8.512 3.916 18.688 4.79 21.413 1.407 4.403 18.007 23.767 19.045 24.97.016.022.034.041.05.06v-30.579l-12.533-33.531-5.144-13.766-2.586-6.918s-3.965-6.51-7.292-14.343c-1.456-3.427-2.79-7.107-3.616-10.605a37.074 37.074 0 0 1-.5-2.463v-.004c-.488-2.956-.522-5.699.158-7.931 1.212-3.976 3.944-4.725 6.043-4.643.217.007.427.026.63.05a4.29 4.29 0 0 1 1.646.55c.004 0 .004.001.005.003a4.227 4.227 0 0 1 1.363 1.274s1.772 2.314 4.149 5.424c1.564 2.047 3.39 4.438 5.144 6.743 3.124 4.107 6.026 7.938 6.823 9.06 4.312 6.07 15.92 25.848 15.92 25.848l13.59.57a9.015 9.015 0 0 1 5.776 2.418c4.832 4.513 15.25 14.278 16.528 15.73 0 .476 8.096 4.37 14.35 7.836 4.473 1.89 12.971 8.59 12.971 8.59 1.761 1.554 3.103 3.102 3.782 4.58 2.914 6.342 10.817 61.491 14.595 88.754 1.216 8.764 2.005 14.646 2.067 15.1z"/></g><g><path fill="#efa26f" d="M306.263 244.85s12.59 20.55 14.255 21.475c1.667.926 8.146 2.222 8.887 0 .74-2.222-23.142-21.476-23.142-21.476z"/></g><g><path fill="#efa26f" d="M369.542 280.05l-.063-.057s-8.498-6.699-12.972-8.589c-5.741-3.183-13.035-6.725-14.191-7.652 1.333 1.524 10.708 12.134 14.316 12.93 3.168.698 10.364 2.666 12.91 3.368z"/></g><g><path fill="#efa26f" d="M296.053 320.682v-30.58s7.264 12.152 7.82 18.816c.555 6.663-3.018 17.453-7.82 11.764z"/></g><g><path fill="#ffd3b6" d="M269.695 208.467c-1.063-1.821-2.964-5.124-3.618-6.971-.186-.523-.162-1.568.48-2.681.384-.668.99-1.361 1.906-1.979.431-.29.867-.548 1.338-.721a5.2 5.2 0 0 1 1.712-.316c.53-.006 1.085.303 1.462.85.003.002.004.006.006.008 1.262 1.838 2.857 4.338 3.94 6.601.752 1.564.515 3.37-.58 4.163l-.51.374-2.616 1.91c-1.088.791-2.655.251-3.52-1.238z"/></g><g><path fill="#ffc197" d="M269.695 208.467c-1.063-1.821-2.964-5.124-3.618-6.971-.186-.523-.162-1.568.48-2.681.17-.142.354-.278.553-.413.43-.29.867-.548 1.338-.721a5.195 5.195 0 0 1 1.712-.316c.53-.006 1.085.303 1.462.85.003.002.004.006.006.008 1.261 1.837 2.857 4.338 3.94 6.601.483 1.002.558 2.102.263 2.97l-2.616 1.91c-1.088.792-2.655.252-3.52-1.237z"/></g><g><g><path fill="#dfebfd" d="M330.438 130.088c-8.285 0-15-6.716-15-15v-.302c0-8.284 6.715-15 15-15h3.301c8.284 0 15 6.716 15 15v.302c0 8.284-6.716 15-15 15z"/></g><g><g><path fill="#f99746" d="M323.239 114.688c.925 2.438 8.854 8.84 8.854 8.84s2.585-2.1 4.979-4.36c1.791-1.675 3.465-3.437 3.862-4.48.94-2.423-.06-5.888-3.525-6.475-3.45-.588-5.316 3.025-5.316 3.025s-1.865-3.613-5.33-3.025a4.715 4.715 0 0 0-1.586.558c-2.159 1.204-2.702 3.92-1.938 5.917z"/></g></g></g><g><g><path fill="#dfebfd" d="M66.894 209.004h50.989c4.064 0 7.39 3.326 7.39 7.39v22.37c0 3.733-3.055 6.788-6.788 6.788h-1.31l2.457 10.376-15.423-10.376H66.454c-4.061 0-7.384-3.323-7.384-7.384v-21.34c0-4.303 3.521-7.824 7.824-7.824z"/></g><g><path fill="#cbe1fd" d="M65.526 225.241h53.165a1.32 1.32 0 0 0 1.317-1.316 1.32 1.32 0 0 0-1.317-1.317H65.526a1.32 1.32 0 0 0-1.317 1.317 1.32 1.32 0 0 0 1.317 1.316z"/></g><g><path fill="#cbe1fd" d="M65.526 231.135h53.165a1.32 1.32 0 0 0 1.317-1.317 1.32 1.32 0 0 0-1.317-1.316H65.526a1.32 1.32 0 0 0-1.317 1.316 1.32 1.32 0 0 0 1.317 1.317z"/></g><g><path fill="#cbe1fd" d="M65.526 237.028h53.165a1.32 1.32 0 0 0 1.317-1.317 1.32 1.32 0 0 0-1.317-1.316H65.526a1.32 1.32 0 0 0-1.317 1.316 1.32 1.32 0 0 0 1.317 1.317z"/></g><g><path fill="#cbe1fd" d="M94.49 216.088h22.571c.862 0 1.567-.705 1.567-1.567s-.705-1.568-1.567-1.568h-22.57c-.862 0-1.567.706-1.567 1.568 0 .862.705 1.567 1.567 1.567z"/></g><g><path fill="#cbe1fd" d="M88.914 212.953a1 1 0 0 1 1 1v1.135a1 1 0 0 1-1 1H74.856a1 1 0 0 1-1-1v-1.135a1 1 0 0 1 1-1z"/></g></g><g><g><path fill="#9ec3f6" d="M323.094 220.35l32.07 10.485-19.21-18.724-1.95 4.575-8.256.04z"/></g><g><path fill="#fff" d="M355.164 230.835l-24.89-18.935-26.592-6.074z"/></g><g><path fill="#fff" d="M335.954 212.111l19.21 18.724-12.805-26.23z"/></g></g><g><g><path fill="#9ec3f6" d="M133.986 100.877l-29.976 4.276 19.892-13.559 1.012 4.347 7.29 1.32z"/></g><g><path fill="#fff" d="M104.01 105.153l24.945-12.861 24.448-1.23z"/></g><g><path fill="#fff" d="M123.902 91.594l-19.892 13.559 15.4-21.19z"/></g></g><g><path fill="#fff" d="M181.047 150.61c0 3.91-1.317 7.512-3.535 10.387a17.06 17.06 0 0 1-2.488 2.606 16.952 16.952 0 0 1-11.006 4.035 16.938 16.938 0 0 1-10.171-3.371 17.042 17.042 0 0 1-3.323-3.27 16.944 16.944 0 0 1-3.535-10.388c0-9.406 7.623-17.029 17.029-17.029 9.406 0 17.029 7.623 17.029 17.03z"/></g><g><path fill="#2b478b" d="M170.86 158.658a6.088 6.088 0 0 0-.132-.143c-.196-.15-.392-.243-1.179-.38-.4-.066-.956-.146-1.745-.248 0 0-.17-.02-.26-.027l-.197-.017c-.226-.119-.284-1.056-.283-2.044l.002-.222c.004-.375.016-.743.03-1.075l.002-.062c.487.04.81.037.81.037.907-.072 1.474-2.504 1.676-4.47 0 0 .449-1.078.449-2.245 0-.657-.141-1.34-.583-1.876-.23-.275-.44-.457-.637-.572a3.51 3.51 0 0 0-.171-.157c-.844-.937-4.274-4.45-6.526-2.418-.059-.203-.79-2.483-4.342-1.736.22-.023 1.795-.172 2.25.466-.061-.027-1.436-.638-2.303-.105-.4.244-.65.75-.79 1.284l-.004.01-.002.009v.002c-.001.005-.003.01-.003.016l-.05.217c-.001.01-.005.02-.007.033l-.001.01v.002c-.106.551-.106 1.086-.043 1.345.133.556 1.112 2.212 1.762 2.212.247 0 .508-.082.74-.182-.1.293-.19.614-.264.964-.69 3.245 1.467 5.71 2.584 5.1.716-.39 1.258.863 1.258.863l.004-.005c-.106 2.373-.758 3.923-1.241 4.31a23.6 23.6 0 0 0-1.015.139v-.002s-1.646.18-2.9.725a2.982 2.982 0 0 0-.746.413v.002a1.037 1.037 0 0 0-.23.238.59.59 0 0 0-.073.108c-.419.798-.84 1.996-1.245 3.4a14.37 14.37 0 0 0 8.627 2.86c3.56 0 6.817-1.287 9.334-3.422-.925-1.927-1.98-2.921-2.556-3.357z"/></g><g><path fill="#fff" d="M192.49 142.03a1 1 0 0 1-1-1v-1.02a1 1 0 0 1 1-1h19.783a1 1 0 0 1 1 1v1.02a1 1 0 0 1-1 1z"/></g><g><g><path fill="#fff" d="M212.286 152.888h-19.813a.987.987 0 0 1-.985-.985c0-.541.443-.984.985-.984h19.813c.542 0 .985.443.985.984a.987.987 0 0 1-.985.985z"/></g><g><path fill="#fff" d="M191.488 157.548v-1.969h12.781v1.97z"/></g><g><path fill="#fff" d="M207.328 157.548v-1.969h20.108v1.97z"/></g><g><path fill="#fff" d="M243.508 152.888h-25.98a.987.987 0 0 1-.984-.985c0-.541.443-.984.985-.984h25.98c.54 0 .984.443.984.984a.988.988 0 0 1-.985.985z"/></g><g><path fill="#fff" d="M212.286 162.209h-19.813a.987.987 0 0 1-.985-.985c0-.541.443-.984.985-.984h19.813c.542 0 .985.443.985.984a.987.987 0 0 1-.985.985z"/></g><g><path fill="#fff" d="M243.508 162.209h-25.98a.987.987 0 0 1-.984-.985c0-.541.443-.984.985-.984h25.98c.54 0 .984.443.984.984a.988.988 0 0 1-.985.985z"/></g></g><g><path fill="#fff" d="M216.97 142.03a1 1 0 0 1-1-1v-1.02a1 1 0 0 1 1-1h13.983a1 1 0 0 1 1 1v1.02a1 1 0 0 1-1 1z"/></g><g><g><path fill="#699dee" d="M199.772 239.03a1 1 0 0 1-1-1v-.147a1 1 0 0 1 1-1h13.487a1 1 0 0 1 1 1v.147a1 1 0 0 1-1 1z"/></g><g><g><path fill="#699dee" d="M213.558 244.528h-14.086a.702.702 0 0 1-.7-.7c0-.385.315-.7.7-.7h14.086c.385 0 .7.315.7.7 0 .385-.315.7-.7.7z"/></g><g><path fill="#699dee" d="M198.772 247.842v-1.4h9.086v1.4z"/></g><g><path fill="#699dee" d="M210.033 247.842v-1.4h14.296v1.4z"/></g><g><path fill="#699dee" d="M235.756 244.528h-18.47a.702.702 0 0 1-.7-.7c0-.385.315-.7.7-.7h18.47c.385 0 .7.315.7.7 0 .385-.315.7-.7.7z"/></g><g><path fill="#699dee" d="M213.558 251.155h-14.086a.702.702 0 0 1-.7-.7c0-.385.315-.7.7-.7h14.086c.385 0 .7.315.7.7 0 .385-.315.7-.7.7z"/></g><g><path fill="#699dee" d="M235.756 251.155h-18.47a.702.702 0 0 1-.7-.7c0-.385.315-.7.7-.7h18.47c.385 0 .7.315.7.7 0 .385-.315.7-.7.7z"/></g></g><g><path fill="#699dee" d="M217.177 239.03a1 1 0 0 1-1-1v-.147a1 1 0 0 1 1-1h9.363a1 1 0 0 1 1 1v.147a1 1 0 0 1-1 1z"/></g></g><g><g><path fill="#699dee" d="M208.895 105.287a1 1 0 0 1-1-1v-.147a1 1 0 0 1 1-1h13.487a1 1 0 0 1 1 1v.147a1 1 0 0 1-1 1z"/></g><g><g><path fill="#699dee" d="M222.681 110.785h-14.086a.702.702 0 0 1-.7-.7c0-.385.315-.7.7-.7h14.086c.385 0 .7.315.7.7 0 .385-.315.7-.7.7z"/></g><g><path fill="#699dee" d="M207.895 114.098v-1.4h9.086v1.4z"/></g><g><path fill="#699dee" d="M219.156 114.098v-1.4h14.296v1.4z"/></g><g><path fill="#699dee" d="M244.88 110.785h-18.471a.702.702 0 0 1-.7-.7c0-.385.315-.7.7-.7h18.47c.385 0 .7.315.7.7 0 .385-.315.7-.7.7z"/></g></g><g><path fill="#699dee" d="M226.3 105.287a1 1 0 0 1-1-1v-.147a1 1 0 0 1 1-1h9.363a1 1 0 0 1 1 1v.147a1 1 0 0 1-1 1z"/></g></g><g><g><path fill="#ed7d2b" d="M219.664 198.155a1 1 0 0 1-1-1v-.351a1 1 0 0 1 1-1h14.955a1 1 0 0 1 1 1v.35a1 1 0 0 1-1 1z"/></g><g><g><path fill="#ed7d2b" d="M234.853 204.174H219.43a.769.769 0 0 1-.767-.766c0-.422.345-.767.767-.767h15.422c.421 0 .766.345.766.767a.769.769 0 0 1-.766.766z"/></g><g><path fill="#ed7d2b" d="M218.664 207.801v-1.532h9.948v1.532z"/></g><g><path fill="#ed7d2b" d="M230.993 207.801v-1.532h15.651v1.532z"/></g><g><path fill="#ed7d2b" d="M259.155 204.174h-20.222a.769.769 0 0 1-.766-.766c0-.422.345-.767.766-.767h20.222c.421 0 .766.345.766.767a.769.769 0 0 1-.766.766z"/></g><g><path fill="#ed7d2b" d="M234.853 211.429H219.43a.769.769 0 0 1-.767-.766c0-.422.345-.767.767-.767h15.422c.421 0 .766.345.766.767a.768.768 0 0 1-.766.766z"/></g><g><path fill="#ed7d2b" d="M259.155 211.429h-20.222a.768.768 0 0 1-.766-.766c0-.422.345-.767.766-.767h20.222c.421 0 .766.345.766.767a.769.769 0 0 1-.766.766z"/></g></g><g><g><path fill="#ed7d2b" d="M234.853 215.205H219.43a.769.769 0 0 1-.767-.767c0-.421.345-.766.767-.766h15.422c.421 0 .766.345.766.766a.769.769 0 0 1-.766.767z"/></g><g><path fill="#ed7d2b" d="M259.155 215.205h-20.222a.769.769 0 0 1-.766-.767c0-.421.345-.766.766-.766h20.222c.421 0 .766.345.766.766a.769.769 0 0 1-.766.767z"/></g></g><g><path fill="#ed7d2b" d="M238.72 198.155a1 1 0 0 1-1-1v-.351a1 1 0 0 1 1-1h10.44a1 1 0 0 1 1 1v.35a1 1 0 0 1-1 1z"/></g></g><g><g><path fill="#fff" d="M199.005 94.115l-1.046.751-1.052-.743a1.291 1.291 0 0 1 1.052-.545c.431 0 .813.212 1.046.537z"/></g><g><g><path fill="#fff" d="M197.958 91.748a3.108 3.108 0 0 0-2.544 1.324l.663.466a2.301 2.301 0 0 1 3.752-.014l.662-.475a3.113 3.113 0 0 0-2.533-1.3z"/></g></g><g><g><path fill="#fff" d="M197.958 88.27a6.58 6.58 0 0 0-5.386 2.799l.666.466a5.774 5.774 0 0 1 9.419-.036l.658-.474a6.576 6.576 0 0 0-5.356-2.755z"/></g></g><g><g><path fill="#fff" d="M197.959 90.174a4.708 4.708 0 0 0-3.84 1.984l.663.466a3.903 3.903 0 0 1 6.337-.025l.659-.471a4.703 4.703 0 0 0-3.82-1.954z"/></g></g></g><g><path fill="#fff" d="M192.084 204.953c0 1.537.517 2.95 1.388 4.08.29.376.618.718.979 1.023a6.652 6.652 0 0 0 4.32 1.586 6.656 6.656 0 0 0 3.834-1.208c.056-.037.11-.077.163-.116a6.68 6.68 0 0 0 1.305-1.285 6.688 6.688 0 1 0-11.988-4.08z"/></g><g><path fill="#699dee" d="M200.582 209.243l-.616-.545c-.05.01-.102.02-.153.028a4.194 4.194 0 0 0-.36-.224c.04-.249.074-.48.102-.685.094-.716.104-1.149.104-1.216.327-.016.548-.05.548-.05.617-.144.647-2.253.504-3.352a.792.792 0 0 0 .344-.066c.468-.206.495-.914.495-.914s-.136.253-.336.334c0 0 .782-1.072-.125-1.804-.904-.734-1.827-.254-2.353-.222-1.154.07-1.9.139-2.276.898-.373.748-.226 2.806.487 3.563.012.07.025.14.033.21.043.272.142.494.283.672a4.719 4.719 0 0 1-.854 1.988 3.084 3.084 0 0 0-.615.662.207.207 0 0 0-.012.008l.005.002c-.347.494-.633 1.138-.863 1.894-.001.003-.001.007-.003.01.378.267.787.491 1.22.671l.084.035c.007.002.012.006.02.007.045.02.093.037.139.055a5.876 5.876 0 0 0 .704.228c.056.014.113.028.17.04.049.013.098.023.15.032l.02.005c.034.008.068.013.101.02.078.014.157.028.237.04l.055.008c.044.007.086.012.13.017l.185.021c.07.007.14.013.21.016.066.006.133.01.2.01.069.002.14.004.21.004.076 0 .15-.002.226-.003.007 0 .012 0 .02-.002.017 0 .036 0 .054-.002.037 0 .074-.001.11-.005.006-.002.01-.002.015-.002a6.648 6.648 0 0 0 2.73-.778c-.388-.665-.872-1.184-1.329-1.608z"/></g><g><path fill="#fff" d="M257.75 243.828c0 1.547.52 2.97 1.398 4.108.29.377.62.723.983 1.03a6.704 6.704 0 0 0 4.353 1.596 6.736 6.736 0 0 0 6.734-6.734 6.733 6.733 0 0 0-6.734-6.733 6.733 6.733 0 0 0-6.734 6.733z"/></g><g><path fill="#f99746" d="M267.925 247.644a.533.533 0 0 0-.141-.163l-.001-.001c-.085-.069-.2-.13-.332-.186-.006-.001-.009-.003-.014-.005-.585-.255-1.352-.339-1.352-.339a12.247 12.247 0 0 0-.473-.063c-.226-.182-.53-.904-.58-2.01l.003.003s.252-.586.586-.402c.52.284 1.526-.867 1.205-2.38a4.215 4.215 0 0 0-.124-.447.93.93 0 0 0 .346.084c.302 0 .76-.773.821-1.032.063-.26-.005-1.112-.42-1.364-.404-.249-1.045.037-1.073.047.207-.289.912-.23 1.041-.217-1.648-.342-1.989.715-2.017.81-1.048-.947-2.649.69-3.043 1.128a1.685 1.685 0 0 0-.08.074 1.14 1.14 0 0 0-.296.265c-.206.25-.271.57-.271.875a3.1 3.1 0 0 0 .208 1.047c.095.916.36 2.05.784 2.084 0 0 .15.002.375-.018l.002.03c.007.154.012.327.014.5v.104c.002.46-.026.898-.13.953-.036.004-.065.005-.092.009-.043.002-.122.012-.122.012-.367.048-.628.085-.813.117-.367.061-.46.105-.55.176a.77.77 0 0 0-.063.067c-.268.203-.76.666-1.191 1.564a6.706 6.706 0 0 0 4.352 1.595c1.509 0 2.9-.494 4.022-1.332-.189-.655-.385-1.214-.58-1.585z"/></g><g><path fill="#fff" d="M257.75 108.49c0 1.546.52 2.97 1.398 4.107.29.378.62.723.983 1.03a6.703 6.703 0 0 0 4.353 1.596 6.734 6.734 0 1 0-6.734-6.734z"/></g><g><path fill="#f99746" d="M267.925 112.305a.538.538 0 0 0-.141-.162l-.001-.002a1.483 1.483 0 0 0-.332-.186c-.006-.001-.009-.003-.014-.005-.585-.254-1.352-.339-1.352-.339v.002a9.746 9.746 0 0 0-.473-.065.754.754 0 0 1-.172-.22v-.003c-.186-.328-.37-.946-.407-1.787l.002.003s.252-.584.586-.402c.52.284 1.526-.865 1.205-2.377a4.152 4.152 0 0 0-.124-.45c.11.045.232.084.346.084.302 0 .76-.773.821-1.03.063-.262-.005-1.114-.42-1.366-.404-.247-1.045.037-1.073.049.207-.29.914-.231 1.041-.219-1.648-.342-1.989.717-2.017.81-1.048-.946-2.649.692-3.043 1.128a1.684 1.684 0 0 0-.08.074c-.09.053-.19.138-.296.267-.206.248-.271.568-.271.873 0 .546.208 1.047.208 1.047.095.917.36 2.05.784 2.084 0 0 .15.002.375-.016l.002.028c.007.154.012.327.014.502v.104c.002.46-.026.896-.13.953-.036.001-.065.005-.092.007-.043.003-.122.012-.122.012-.367.048-.628.085-.813.117-.367.063-.46.105-.55.176l-.063.067c-.268.203-.76.667-1.191 1.566.063.054.129.107.196.158.01.01.023.018.033.027.05.039.099.076.15.111.036.028.07.055.108.08.037.026.074.05.111.074.053.038.108.074.164.107a3.647 3.647 0 0 0 .254.154c.054.03.106.06.16.088l.013.007a.037.037 0 0 0 .01.005l.024.013.127.065c.004 0 .005.002.009.004a.399.399 0 0 0 .039.019.91.91 0 0 0 .072.035 4.405 4.405 0 0 0 .4.173l.076.03c.025.009.05.02.076.028.052.02.105.038.156.055.054.02.107.035.162.053l.138.043.014.003a6.373 6.373 0 0 0 .579.14c.072.014.145.028.217.038l.056.01h.013a3.366 3.366 0 0 0 .148.02c.01.002.02.004.03.004l.02.003c.045.007.09.01.132.014l.022.002.041.006c.08.007.157.012.237.015h.012c.025.002.048.004.074.004l.046.002a6.694 6.694 0 0 0 4.255-1.329c-.189-.655-.385-1.213-.58-1.585z"/></g><g><path fill="#efa26f" d="M349.129 375.871l-24.254 12.557h-16.147c-3.893-2.61-24.113-16.403-32.48-26.684-1.771-2.18-8.257-20.958-13.24-36.204v-.007c.66 2.024 14.57 31.647 18.53 35.014 3.96 3.365 24.753 22.97 30.496 22.771 5.563-.19 35.176-7.006 37.012-7.428.028-.005.054-.012.083-.019z"/></g><g><path fill="#d2e3fc" d="M397.93 388.428h-87.44c4.386-1.721 21.164-8.13 38.557-12.538.028-.005.055-.012.083-.02 14.937-3.778 30.314-6.068 38.665-2.632l.06.09z"/></g><g><path fill="#efa26f" d="M257.06 272.932c.002 0 .004 0 .006-.002 1.473-.54 3.543-.897 4.549.784 1.566 2.616-4.254 25.692-4.98 28.595z"/></g><g><path fill="#ffc197" d="M257.513 260.524l-.5 13.958s2.935.477 4.603-.768c1.67-1.246.786-13.354-4.103-13.19z"/></g><g><path fill="#cbe1fd" d="M198.771 341.354c-8.402 1.722-26.511-4.878-26.511-4.878l2.92-28.213-20.463 23.437c-10.415-3.876-26.702-13.989-36.38-20.282 24.8-2.703 43.315-27.177 43.315-27.177 17.19 9.31 36.595 14.75 36.595 14.75-.006 16.768.524 42.363.524 42.363z"/></g><g><path fill="#f99746" d="M141.112 315.728a3.407 3.407 0 1 1 6.813.063 3.407 3.407 0 0 1-6.813-.063z"/></g></g></svg>