<svg xmlns="http://www.w3.org/2000/svg" width="791" height="496" viewBox="0 0 791 496"><g><g opacity=".2"><path fill="#9ec5fd" d="M408.6 92.873c-49.897 8.431-99.724 4.816-147.656-.441s-95.746-12.123-145.663-10.053c-32.111 1.328-67.872 7.69-90.293 26.182C3.406 126.347.043 150.348.001 172.014c-.056 16.297 1.357 33.16 12.906 46.142 8.026 9.005 20.38 15.458 29.685 23.77 32.377 28.875 22.533 74.34 1.287 112.994-9.97 18.135-22.163 35.97-28.951 54.532-6.789 18.562-7.69 38.452 4.46 53.588 12.04 15.01 35.327 23.47 59.608 27.854 49.316 8.907 104.261 3.377 157.423-4.118 117.656-16.646 234.096-42.598 350.284-68.487 42.99-9.585 86.168-19.212 127.585-33.027 23-7.69 46.422-17.261 61.278-32.16 18.877-18.876 19.352-44.695 1.16-60.125-30.523-25.868-99.611-20.128-123.22-49.7-12.99-16.284-7.335-38.397 3.006-57.93 22.169-41.892 65.018-83.28 59.467-125.047-3.83-28.664-33.061-52.386-72.24-58.566-41.067-6.474-93.81 5.803-117.454 34.649-24.309 29.72-73.626 49.023-117.685 56.49z"/></g><g><g><path fill="#0b0754" d="M227.366 394.224h-10.109l-2.731-26.713h15.572z"/></g><g><path fill="#0b0754" d="M621.283 394.224h-10.109l-2.731-26.713h15.572z"/></g><g><path fill="#2a4d82" d="M441.423 281.122c-13.807 0-25-11.193-25-25v-41.966c0-13.807 11.193-25 25-25H608.49c13.807 0 25 11.193 25 25v41.966c0 13.807-11.193 25-25 25z"/></g><g><path fill="#4951ec" d="M232.019 300.46c-13.255 0-24-10.745-24-24v-63.378c0-13.255 10.745-24 24-24h356.493c13.254 0 24 10.745 24 24v63.378c0 13.255-10.746 24-24 24z"/></g><g><path fill="#4951ec" d="M633.408 294.59l-438.608-.007-.029 76.968h438.637z"/></g><g><path fill="#7c9af2" d="M193.658 341.398c-16.016 0-29-12.984-29-29v-59.452c0-16.016 12.984-29 29-29h.205c16.016 0 29 12.984 29 29v59.452c0 16.016-12.984 29-29 29z"/></g><g><path fill="#7c9af2" d="M630.51 341.062c-16.016 0-29-12.984-29-29v-59.116c0-16.016 12.984-29 29-29h.205c16.016 0 29 12.984 29 29v59.116c0 16.016-12.984 29-29 29z"/></g><g><path fill="#7c9af2" d="M203.928 341.048c-13.255 0-24-10.746-24-24v-.171c0-13.255 10.745-24 24-24h420.831c13.255 0 24 10.745 24 24v.17c0 13.255-10.745 24-24 24z"/></g><g><g><path fill="#4951ec" d="M691.875 395.716c0-.983-.797-1.779-1.779-1.779H47.697c-1.172 0-2.122.796-2.122 1.779 0 .982.95 1.778 2.122 1.778h642.4c.981 0 1.778-.796 1.778-1.778z"/></g></g><g><path fill="#7c9af2" d="M168.56 393.947h-6.692l-1.807-17.026h10.306z"/></g><g><path fill="#7c9af2" d="M132.023 393.948h-6.691l-1.808-17.038h10.306z"/></g><g><path fill="#0b0754" d="M198.271 393.935h-6.69l-1.809-17.025h10.307z"/></g><g><path fill="#7c9af2" d="M89.865 377.317V260.875h114.83v116.442z"/></g><g><path fill="#0b0754" d="M171.396 377.317V260.875h33.3v116.442z"/></g><g><path fill="#0b0754" d="M93.105 301.025v-2.008h78.4v2.008z"/></g><g><path fill="#0b0754" d="M93.105 333.244v-2.008h78.4v2.008z"/></g><g><g><g><g><path fill="#2a4d82" d="M31.669 314.708a2.202 2.202 0 1 0 4.373.512 2.202 2.202 0 0 0-4.373-.512z"/></g><g><path fill="#2a4d82" d="M34.944 316.172c-.822 1.255-2.78.54-2.606-.944a1.421 1.421 0 0 1 1.58-1.25c1.057.124 1.598 1.321 1.026 2.194z"/></g></g><g><g><path fill="#2a4d82" d="M20.631 318.03a2.202 2.202 0 1 1-3.364 2.843 2.202 2.202 0 0 1 3.364-2.842z"/></g><g><path fill="#2a4d82" d="M20.19 320.84c-.6.507-1.5.431-2.006-.169a1.432 1.432 0 0 1 .17-2.006c.29-.245.658-.363 1.037-.33 1.263.105 1.76 1.695.8 2.505z"/></g></g><g><g><path fill="#2a4d82" d="M30.56 314.645a2.201 2.201 0 1 1-4.402.014 2.201 2.201 0 0 1 4.403-.014z"/></g><g><path fill="#2a4d82" d="M28.417 316.514c-1.137.004-1.81-1.265-1.196-2.202.78-1.192 2.61-.614 2.615.774a1.423 1.423 0 0 1-1.419 1.428z"/></g></g><g><g><path fill="#2a4d82" d="M40.344 318.434a2.202 2.202 0 1 1-3.383-2.82 2.202 2.202 0 0 1 3.383 2.82z"/></g><g><path fill="#2a4d82" d="M39.506 318.305a1.425 1.425 0 0 1-2.005.183c-.6-.5-.691-1.394-.183-2.006a1.426 1.426 0 0 1 2.006-.182c.6.5.69 1.394.182 2.005z"/></g></g><g><g><path fill="#2a4d82" d="M23.691 343.845a2.202 2.202 0 1 0-3.935-1.976 2.202 2.202 0 0 0 3.935 1.976z"/></g><g><path fill="#2a4d82" d="M23.157 343.271a1.423 1.423 0 0 1-1.829.49 1.425 1.425 0 0 1-.55-2.055 1.423 1.423 0 1 1 2.38 1.565z"/></g></g><g><g><path fill="#2a4d82" d="M16.313 336.387a2.201 2.201 0 1 0-1.744-4.043 2.201 2.201 0 0 0 1.744 4.043z"/></g><g><path fill="#2a4d82" d="M17.053 335.022a1.423 1.423 0 0 1-1.754-2.089c1.292-.558 2.526.91 1.754 2.089z"/></g></g><g><g><path fill="#2a4d82" d="M15.454 325.931a2.202 2.202 0 1 0 1.262-4.22 2.202 2.202 0 0 0-1.262 4.22z"/></g><g><path fill="#2a4d82" d="M15.237 324.674c-.181-.335-.22-.72-.111-1.084.363-1.213 2.017-1.379 2.617-.268.18.335.22.72.11 1.084-.362 1.21-2.016 1.38-2.616.268z"/></g></g><g><g><path fill="#2a4d82" d="M16.812 337.377a2.202 2.202 0 1 1 2.216 3.807 2.202 2.202 0 0 1-2.216-3.807z"/></g><g><path fill="#2a4d82" d="M17.908 340.391c-1.217-.322-1.449-1.968-.352-2.606a1.425 1.425 0 0 1 1.947.514c.64 1.1-.38 2.414-1.595 2.092z"/></g></g><g><g><path fill="#2a4d82" d="M21.516 317.37a2.203 2.203 0 1 0 3.68-2.423 2.203 2.203 0 0 0-3.68 2.423z"/></g><g><path fill="#2a4d82" d="M24.335 317.744a1.423 1.423 0 1 1 .408-.408c-.033.04-.143.234-.408.408z"/></g></g><g><g><path fill="#2a4d82" d="M15.2 327.011a2.202 2.202 0 1 1-.75 4.34 2.202 2.202 0 0 1 .75-4.34z"/></g><g><path fill="#2a4d82" d="M15.024 330.607a1.427 1.427 0 0 1-.95-2.183 1.425 1.425 0 0 1 2.594 1.022 1.423 1.423 0 0 1-1.644 1.161z"/></g></g><g><path fill="#2a4d82" d="M30.819 328.65l2.687-11.54-.405-.094-2.8 12.025-1.425-12.264-.413.048 1.368 11.77-5.362-10.567-.371.188 5.587 11.01-8.974-8.48-.285.303 8.612 8.138-10.9-4.649-.162.383 11.357 4.843-12.326-.724-.024.415 11.828.695-11.337 3.444.121.398 11.813-3.59-9.907 7.368.248.333 9.507-7.07-6.47 9.925.348.227 14.549-22.2-.347-.23z"/></g></g><g><g><path fill="#2a4d82" d="M75.429 360.522l-46.54-30.487.975-1.489 46.54 30.488z"/></g></g></g><g><g><g><g><path fill="#2a4d82" d="M54.072 258.43a3.728 3.728 0 1 0 6.058 4.345 3.728 3.728 0 0 0-6.058-4.345z"/></g><g><path fill="#2a4d82" d="M57.723 263.285c-2.248 1.183-4.56-1.481-3.085-3.537a2.407 2.407 0 0 1 3.363-.553c1.464 1.05 1.284 3.266-.278 4.09z"/></g></g><g><g><path fill="#2a4d82" d="M35.003 254.3a3.728 3.728 0 1 1-7.314 1.447 3.728 3.728 0 0 1 7.314-1.448z"/></g><g><path fill="#2a4d82" d="M32.046 258.098a2.413 2.413 0 0 1-2.832-1.896 2.424 2.424 0 0 1 1.239-2.6 2.42 2.42 0 0 1 .657-.232 2.395 2.395 0 0 1 1.809.361c1.783 1.194 1.213 3.954-.873 4.367z"/></g></g><g><g><path fill="#2a4d82" d="M52.484 257.429a3.727 3.727 0 1 1-6.532-3.59 3.727 3.727 0 0 1 6.532 3.59z"/></g><g><path fill="#2a4d82" d="M47.777 258.438c-1.687-.927-1.644-3.358.034-4.242 2.133-1.125 4.37 1.232 3.239 3.291a2.41 2.41 0 0 1-3.273.951z"/></g></g><g><g><path fill="#2a4d82" d="M63.864 271.062a3.727 3.727 0 1 1-2.698-6.949 3.727 3.727 0 0 1 2.698 6.949z"/></g><g><path fill="#2a4d82" d="M62.727 270.185a2.413 2.413 0 0 1-3.118-1.374 2.408 2.408 0 0 1 1.374-3.12 2.414 2.414 0 0 1 3.12 1.376 2.407 2.407 0 0 1-1.376 3.118z"/></g></g><g><g><path fill="#2a4d82" d="M18.365 295.035a3.727 3.727 0 1 0-4.207-6.155 3.727 3.727 0 0 0 4.207 6.155z"/></g><g><path fill="#2a4d82" d="M18.043 293.747a2.408 2.408 0 0 1-3.11-.774 2.413 2.413 0 0 1 .87-3.495 2.407 2.407 0 0 1 3.11.774 2.41 2.41 0 0 1-.87 3.495z"/></g></g><g><g><path fill="#2a4d82" d="M13.554 277.94a3.728 3.728 0 1 0 .732-7.42 3.728 3.728 0 0 0-.732 7.42z"/></g><g><path fill="#2a4d82" d="M15.77 276.526c-1.681.886-3.708-.455-3.519-2.37a2.41 2.41 0 0 1 2.636-2.162c2.37.234 2.993 3.42.884 4.532z"/></g></g><g><g><path fill="#2a4d82" d="M20.858 261.753a3.727 3.727 0 1 0 5.33-5.213 3.727 3.727 0 0 0-5.33 5.213z"/></g><g><path fill="#2a4d82" d="M21.567 259.712a2.392 2.392 0 0 1 .725-1.696c1.532-1.498 4.118-.387 4.094 1.75a2.395 2.395 0 0 1-.724 1.696c-1.53 1.494-4.119.39-4.095-1.75z"/></g></g><g><g><path fill="#2a4d82" d="M13.482 279.816a3.728 3.728 0 1 1 .158 7.454 3.728 3.728 0 0 1-.158-7.454z"/></g><g><path fill="#2a4d82" d="M12.633 285.178c-1.539-1.475-.531-4.103 1.616-4.15a2.413 2.413 0 0 1 2.46 2.36c.047 2.151-2.54 3.262-4.076 1.79z"/></g></g><g><g><path fill="#2a4d82" d="M36.856 254.046a3.727 3.727 0 1 0 7.434-.568 3.727 3.727 0 0 0-7.434.568z"/></g><g><path fill="#2a4d82" d="M40.724 256.911a2.409 2.409 0 1 1-.367-4.805 2.411 2.411 0 1 1 1.306 4.536c-.083.033-.405.229-.94.27z"/></g></g><g><g><path fill="#2a4d82" d="M19.596 263.143a3.727 3.727 0 1 1-4.669 5.811 3.727 3.727 0 0 1 4.669-5.81z"/></g><g><path fill="#2a4d82" d="M16.386 268.323c-1.358-1.09-1.135-3.21.383-4.01a2.41 2.41 0 1 1-.383 4.01z"/></g></g><g><path fill="#2a4d82" d="M41.38 278.378l13.444-14.883-.523-.472-14.008 15.51 7.948-19.329-.65-.267-7.63 18.55.727-20.045-.703-.025-.756 20.884-6.335-19.915-.67.214 6.08 19.114-12.328-15.823-.555.433 12.845 16.486-17.658-11.18-.376.594 16.945 10.73-19.613-4.198-.147.688 20.437 4.373-20.713 2.785.094.698 19.877-2.673-17.721 9.39.329.623 39.752-20.945-.326-.624z"/></g></g><g><g><path fill="#2a4d82" d="M81.298 362.162l-43.909-83.317 2.665-1.404 43.908 83.317z"/></g></g></g><g><g><g><path fill="#4951ec" d="M79.105 363.117s30.503-22.642 34.684-32.4c4.18-9.757-4.44-8.656-4.44-8.656s12.317-17.45 9.048-23.217c-3.269-5.768-10.07 1.597-10.07 1.597s5.713-23.608.745-24.921c-9.254-2.447-16.847 22.962-16.847 22.962s.681-10.55-5.11-9.128C78.38 291.496 83 314.207 83 314.207s-2.784-4.027-7.574-.196c-8.595 6.874 3.68 49.106 3.68 49.106z"/></g></g><g><path fill="#0b0754" d="M74.134 314.599c4.79-3.832 8.866-.392 8.866-.392s-4.62-22.71 4.114-24.853c5.792-1.422 5.111 9.128 5.111 9.128s7.593-25.409 16.847-22.962l-30.194 87.525c-1.35-5.466-12.773-42.026-4.744-48.446z"/></g></g><g><g><path fill="#bed1f9" d="M79.146 362.33s31.808.285 38.26-5.132c6.451-5.418-2.011-6.158-2.011-6.158s14.939-7.93 14.72-13.218c-.218-5.288-5.282-4.222-5.282-4.222s10.326-9.25 8.206-13.734c-3.258-6.89-18.026 6.178-18.026 6.178s1.13-5.241-3.45-6.336c-6.907-1.65-13.915 17.988-13.915 17.988s3.303-8.847-1.442-7.864c-8.513 1.763-17.06 32.498-17.06 32.498z"/></g></g><g><g><g><path fill="#4951ec" d="M77.848 364.07s-27.745-23.676-31.13-33.213c-3.385-9.537 4.749-7.966 4.749-7.966s-10.66-17.35-7.2-22.64c3.46-5.288 9.484 2.132 9.484 2.132s-4.004-22.809.802-23.757c8.953-1.766 14.636 22.869 14.636 22.869s-.008-10.078 5.416-8.375c8.181 2.568 2.408 23.896 2.408 23.896s3.02-7.973 7.344-4.038c7.76 7.062-6.51 51.093-6.51 51.093z"/></g></g><g><path fill="#7c9af2" d="M86.238 311.526c-4.416-3.212-8.155.979-8.155.979s4.703-16.817-3.478-19.385c-5.424-1.703-5.455 8.068-5.455 8.068s-5.644-24.328-14.597-22.563l23.42 85.107c2.544-5.832 13.899-48.109 8.265-52.206z"/></g></g><g><g><g><path fill="#bed1f9" d="M75.055 360.671s-30.497.14-34.717-.481c-4.222-.621.445-4.277.445-4.277s-9.484.345-10.93-1.961c-1.445-2.307 2.429-3.216 2.429-3.216s-9.445-2.737-8.994-4.745c.84-3.74 11.27-1.303 11.27-1.303s-3.873-1.88-2.299-3.628c2.374-2.637 12.515 4.532 12.515 4.532s-3.806-7.202-1.56-8.114c4.03-1.637 31.84 23.193 31.84 23.193z"/></g></g></g><g><path fill="#2a4d82" d="M53.053 394.977h50.725c6.46-5.9 10.396-14.028 10.252-22.943-.072-4.502-.999-8.426-2.931-12.28l-65.4.735a29.1 29.1 0 0 0-2.705 12.718c.137 8.493 3.951 16.15 10.06 21.77z"/></g><g><path fill="#bed1f9" d="M84.85 260.27h33.687c2.988 0 5.41-2.611 5.41-5.832 0-3.222-2.422-5.834-5.41-5.834H84.85c2.575 3.234 2.676 7.977.241 11.335z"/></g><g><path fill="#2a4d82" d="M123.502 254.438c0-3.222-2.45-5.834-5.471-5.834H84.237c-.157 0-.285-.137-.283-.305.001-.165.128-.299.283-.299h53.61c3.334 0 6.037 2.882 6.037 6.438 0 3.555-2.703 6.437-6.038 6.437H84.237c-.155 0-.282-.134-.283-.3-.002-.168.126-.305.283-.305h33.794c3.022 0 5.47-2.611 5.47-5.832z"/></g><g><path fill="#ef7f7f" d="M356.453 169.694c-2.376-2.048-2.2 3.69-3.313 4.216-1.907.903-1.104 4.417-2.108 5.42-1.004 1.004-6.13 7.053-6.156 7.06-2.275.67-15.123 46.24-16.997 47.044-1.874.803-22.083-2.276-22.083-2.276l-4.818 17.533s37.206 6.825 40.15 2.542c1.926-2.8 6.62-28.916 9.647-47.91.911-4.446 2.099-8.728 3.47-10.14 3.212-3.313 4.767-6.124 5.27-8.934.354-1.989-.152-12.045-3.062-14.555z"/></g><g><path fill="#fb9390" d="M444.985 259.732l3.06 18.47s-3.06 13.249-1.53 14.052c1.53.803 50.479.402 50.479.402s9.178-4.417 2.677-6.024c-6.501-1.605-32.25-7.762-34.035-10.974-1.785-3.211-3.825-20.343-3.825-20.343z"/></g><g><path fill="#fb9390" d="M452.613 361.514l3.213 18.47s-3.25 13.161-1.644 13.964c1.606.803 53.973.088 53.973.088s8.7-4.015 1.874-5.621c-6.826-1.607-33.86-7.762-35.734-10.975-1.874-3.212-4.015-20.343-4.015-20.343z"/></g><g><path fill="#294b7f" d="M267.933 242.078l-21.078-35.531s-49.814-1.728-50.587 3.312c-.886 5.774 10.245 18.816 17.163 38.543 6.08 17.337 8.83 35.541 10.238 40.048 3.011 9.635 46.07-24.692 46.07-24.692z"/></g><g><path fill="#bed1f9" d="M340.361 254.846s7.859-.817 13.883-5.084c23.223-16.452 70.764-62.147 83.914-56.078 1.389.641 4.23 2.044 5.622 3.413 15.209 14.971 27.704 69.662 27.704 69.662L447.795 278l-15.257-49.385-45.04 47.89z"/></g><g><path fill="#dde8fe" d="M318.704 250.388l35.323-.86s89.526 13.6 100.355 19.332c10.829 5.733 18.306 96.803 18.306 96.803l-21.28 3.212-23.142-75.81-71.98 1.912z"/></g><g><path fill="#7c9af2" d="M257.636 214.022s16.138 0 27.18 2.831c11.041 2.831 25.763 5.663 25.763 5.663l-4.247 22.366s-22.932-3.964-24.064-3.964c-1.133 0-24.632-26.896-24.632-26.896z"/></g><g><path fill="#92b5f9" d="M237.807 216.627s-7.006 5.733-4.459 24.843c2.548 19.109 13.617 39.524 35.911 48.442 22.295 8.918 87.028 5.065 87.028 5.065l-2.243-46.186s-32.742.336-39.749-.3c-5.546-.505-19.904-29.808-49.653-35-7.837-1.366-16.74.48-26.835 3.136z"/></g><g><path fill="#0b0754" d="M241.211 202.643s-4.945-4.099-8.502-5.692c-3.556-1.593-9.84-7.611-12.013-16.497s3.07-14.701 6.253-17.042c3.184-2.342 16.557-7.382 21.862-6.89 5.306.494 9.485 18.358 9.485 18.358l-2.124 15.815z"/></g><g><path fill="#fb9390" d="M257.386 199.34l7.162 14.01s.63 5.45-.788 7.838c-2.441 4.108-19.39-5.936-19.39-5.936l-7.493-24.052z"/></g><g><path fill="#ef7f7f" d="M239.083 198.28c6.79 8.106 17.092 9.318 21.975 8.241l-3.672-7.181-20.509-8.14z"/></g><g><path fill="#fb9390" d="M235.202 165.3c5.766-5.322 14.99-3.99 19.103 2.557a95.094 95.094 0 0 1 5.79 10.646c4.605 9.984 3.698 22.069-.873 24.077-4.57 2.007-20.064 1.04-26.798-13.048-4.157-8.697-3.273-18.646 2.778-24.231z"/></g><g><path fill="#fb9390" d="M236.288 189.183c.975 2.22.294 4.667-1.522 5.464-1.815.798-4.078-.356-5.053-2.576-.976-2.22-.294-4.667 1.521-5.464 1.816-.798 4.079.356 5.054 2.576z"/></g><g><path fill="#0b0754" d="M231.235 186.607s-2.875-4.478-4.21-9.346c-1.336-4.869.04-12.94 4.435-15.743 4.396-2.803 16.215-5.227 16.5-8.805.283-3.577.399-3.274.71-3.935.71-1.506 9.091.43 11.82 8.497 2.728 8.067-4.396 10.465-5.672 11.212-1.277.747-15.688.256-19.388 1.927-3.7 1.67-4.195 16.193-4.195 16.193z"/></g><g><path fill="#ef7f7f" d="M243.763 273.477l24.419 23.357 11.466-19.322-20.172-19.748z"/></g><g><path fill="#fb9390" d="M294.619 213.916s-18.297 44.705-25.092 58.932c-6.795 14.226-4.366 21.915-1.345 23.986 2.33 1.597 14.652 2.973 22.933-12.953 8.281-15.925 10.511-63.595 12.847-63.595 2.335 0 6.93-7.241 7.22-7.857 1.758-3.738-2.86-12.622-2.86-12.622s10.138-12.095 8.699-14.026c-.687-.92-16.48 12.702-18.284 16.737-1.805 4.034-4.118 11.398-4.118 11.398z"/></g><g><path fill="#7c9af2" d="M269.928 266.625s-8.775-52.913-32.121-49.998c-4.506.563-7.003 3.595-8.1 8.123-4.584 18.933 18.005 61.415 18.005 61.415s20.942-15.719 22.216-19.54z"/></g><g><path fill="#13375b" d="M347.268 183.135l1.677-5.296c.718-.14 1.33-.103 1.686.253 1.391 1.391-2.443 4.653-3.363 5.043z"/></g><g><path fill="#ef7f7f" d="M345.973 187.22c-.2.634.47 1.379 1.5 1.664l.32.089c-.356 2.182-4.123 3.507-4.123 3.507s-3.88-9.37.135-12.246c0 0 3.023-1.98 5.14-2.395.718-.14 1.33-.103 1.686.253 1.39 1.391-2.444 4.653-3.363 5.043l-.026.01-.006.086z"/></g><g><path fill="#ef7f7f" d="M348.054 183.446l-.786-.311s-1.69 2.988-2.225 4.192c-.536 1.205 3.714 2.543 4.918 2.208 1.205-.334-1.907-6.09-1.907-6.09z"/></g><g><path fill="#0b0754" d="M359.874 162.413l-8.348 26.351c-.2.632-1.196.915-2.226.628l-1.827-.508c-1.03-.285-1.7-1.03-1.5-1.664l1.295-4.085c.92-.39 4.754-3.652 3.363-5.043-.356-.356-.968-.394-1.686-.253l5.376-16.97c.2-.632 1.196-.913 2.224-.628l1.829.508c1.028.287 1.7 1.032 1.5 1.664z"/></g><g><g><path fill="#ef7f7f" d="M359.665 172.605s1.528-2.309-.1-3.513c-.862-.637-9.972.77-10.4 1.766-1.171 2.732 7.076 1.573 10.5 1.747z"/></g></g><g><g><path fill="#ef7f7f" d="M360.468 175.265s.663-1.88-.101-3.111c-.565-.91-10.138.017-10.941 1.555-1.375 2.635 7.618 1.382 11.042 1.556z"/></g></g><g><path fill="#ef7f7f" d="M360.367 175.215s-9.076-.208-9.987 1.255c-.91 1.463 3.965 1.857 3.965 1.857l4.768 7.628s2.996-9.212 1.254-10.74z"/></g><g><path fill="#ef7f7f" d="M354.495 178.126s-.564 1.217-1.607 4.517c-2.409 7.629-1.522 7.846-.719 8.197.803.352 5.789-3.981 6.541-4.182.753-.2 2.61-9.586 1.356-12.899-1.255-3.311-2.51-3.914-2.51-3.914z"/></g><g><path fill="#0b0754" d="M616.665 393.938c-.33-2.02-1.891-3.551-3.772-3.551h-68.955c-1.88 0-3.442 1.53-3.772 3.55z"/></g><g><path fill="#7794bf" d="M564.719 390.448l-21.098-.057s4.14-8.539 11.548-12.67c7.41-4.133 20.211-4.044 20.211-4.044z"/></g><g><path fill="#2a4d82" d="M579.684 390.494s1.429-16.312-4.038-16.817c-5.466-.506-10.928 16.77-10.928 16.77z"/></g><g><path fill="#7794bf" d="M664.797 393.899c-.243-8.376-7.494-15.096-16.41-15.096s-16.168 6.72-16.41 15.096z"/></g><g><path fill="#0b0754" d="M666.844 393.935c-.162-2.007-.931-3.528-1.858-3.528h-33.961c-.926 0-1.695 1.521-1.858 3.528z"/></g><g><g><path fill="#bed1f9" d="M318.52 99.25c19.77 3.68 33.965 16.511 31.704 28.657-1.131 6.072-6.162 10.824-13.381 13.597l4.689 19.4-14.294-17.064c-5.217.65-10.977.495-16.908-.61-19.77-3.68-33.965-16.511-31.704-28.656 2.262-12.146 20.123-19.006 39.894-15.325z"/></g><g><g><path fill="#7c9af2" d="M327.573 125.938c-3.034 6.319-10.615 8.98-16.932 5.945-6.317-3.035-8.978-10.617-5.944-16.936 3.034-6.318 10.615-8.98 16.933-5.945 6.317 3.035 8.978 10.618 5.943 16.936z"/></g><g><path fill="#efefef" d="M309.15 119.317a6.786 6.786 0 0 0 3.177 9.055 6.784 6.784 0 0 0 9.053-3.179z"/></g></g></g><g><g><path fill="#0b0754" d="M163.36 205.103V154.89h1.229v50.214z"/></g></g><g><g><g><path fill="#0b0754" d="M154.095 258.84v-96.78h2.988v96.78z"/></g></g><g><path fill="#0b0754" d="M177.775 259.963c-10.604 0-19.2-1.898-19.2-4.241 0-.432.296-.849.84-1.242l-.092-.027h-7.717l-.024.007c.562.399.864.822.864 1.262 0 2.998-12.034 4.26-19.442 4.24l-.005.001v.919h45.242v-.919l-.009-.002-.457.002z"/></g></g><g><path fill="#0b0754" d="M165.278 162.814h-17.284a3.614 3.614 0 0 1-3.614-3.614h24.512a3.614 3.614 0 0 1-3.614 3.614z"/></g><g><path fill="#7794bf" d="M189.392 156.235c0 .99-4.166 1.883-10.87 2.514-22.424 2.117-60.01.571-60.01-2.514 0-.122 23.155-42.774 23.155-42.774h24.57s23.155 42.652 23.155 42.774z"/></g><g><path fill="#0b0754" d="M166.091 205.084c0 1.054-.93 1.908-2.075 1.908-1.146 0-2.076-.854-2.076-1.908 0-1.053.93-1.907 2.076-1.907s2.075.854 2.075 1.907z"/></g><g><path fill="#7794bf" d="M570.656 165.378s-7.428-.2-14.254-7.83c-6.826-7.628-23.087-11.844-36.336-11.04-13.25.803-26.5 10.037-30.916 20.677-4.416 10.64-4.416 22.585-4.416 22.585h110.843c1.31 0 2.25-1.298 1.8-2.528-.585-1.597-2.031-3.295-5.575-2.926-6.424.67-21.146-18.938-21.146-18.938z"/></g><g><path fill="#647fa7" d="M507.218 168.055s9.636-12.246 18.603-11.443c8.966.803 10.305 17.198 4.617 23.02-5.556 5.686-6.491 4.617-6.491 4.617s8.967 0 11.911 1.338c2.944 1.339 1.987 4.183 1.987 4.183l-43.208-.033s4.015-12.046 12.58-21.682z"/></g><g><path fill="#647fa7" d="M568.749 178.929l-6.123-4.442s-4.517.929-10.74 4.442-6.625 4.718-7.127 7.528c-.502 2.81.063 3.313.063 3.313h9.988z"/></g><g><path fill="#7794bf" d="M560.083 175.483s-8.833 4.818-11.912 7.093c-3.078 2.275-1.463 7.19-1.463 7.19l49.636.016a1.81 1.81 0 0 0 1.813-1.812c-.005-1.75-1.172-4.08-7.56-3.654-10.038.67-17.13-2.944-16.73-5.086.403-2.141-8.297-7.36-13.784-3.747z"/></g><g><path fill="#7794bf" d="M484.734 189.77s-.402 5.42 4.918 9.535c5.32 4.116 19.674 3.514 28.005 4.116 8.331.602 12.547 2.81 13.952 9.234 1.406 6.425.101 16.06-6.926 17.566-7.026 1.506-.3 13.45 9.637 6.023 9.937-7.428 12.748-18.47 7.126-28.106-5.62-9.635-12.145-13.65-25.997-13.249-13.852.401-26.299.401-26.7-5.119-.402-5.52-4.015 0-4.015 0z"/></g><g><path fill="#7794bf" d="M504.006 168.122s12.563-12.48 21.53-11.677c8.967.803 6.977 19.707.553 24.391-6.425 4.685-8.298 4.15-8.298 4.15s11.91-.67 14.855.668c2.945 1.339 2.018 4.122 2.018 4.122l-43.226-.007s4.002-12.011 12.568-21.647z"/></g><g><path fill="#647fa7" d="M588.712 183.53c-7.135-3.606-18.056-18.152-18.056-18.152s-2.023-.054-4.928-1.191c-.278 3.796.47 10.134 5.59 18.91 0 0 9.997 2.192 17.394.434z"/></g><g><path fill="#7794bf" d="M583.103 147.11s-7.094 4.55-6.96 8.431c0 0-6.558 3.078-7.093 4.417-.535 1.339-3.079 8.967 4.416 22.484 0 0 15.66 3.614 21.414-2.275l2.81-8.03s5.755-6.156 5.755-10.305l-9.502 1.74s-6.826-6.559-9.636-6.559z"/></g></g></g></svg>