<svg xmlns="http://www.w3.org/2000/svg" width="573" height="460" viewBox="0 0 573 460"><g><g><path fill="#ebebeb" d="M525.188 417.76v-.36h47.7v.36z"/></g><g><path fill="#ebebeb" d="M389.45 421.669v-.36h12.52v.36z"/></g><g><path fill="#ebebeb" d="M496.106 404.387v-.36h27.64v.36z"/></g><g><path fill="#ebebeb" d="M.51 406.807v-.36h62.206v.36z"/></g><g><path fill="#ebebeb" d="M75.538 406.807v-.36h9.12v.36z"/></g><g><path fill="#ebebeb" d="M114.3 412.888v-.36h134.908v.36z"/></g><g><path fill="#fafafa" d="M166.712 40.647c0-22.102 17.917-40.018 40.018-40.018s40.018 17.916 40.018 40.018c0 22.101-17.917 40.018-40.018 40.018s-40.018-17.917-40.018-40.018z"/></g><g><path fill="#f0f0f0" d="M211.631 81.566c0-5.335-4.326-9.662-9.662-9.662-.965 0-1.895.147-2.773.41.14-.968.216-1.96.216-2.966 0-11.3-9.161-20.46-20.46-20.46-1.288 0-2.547.125-3.768.353-3.145-5.147-8.8-8.594-15.271-8.594-9.796 0-17.743 7.87-17.889 17.633-.1-.001-.197-.015-.298-.015-9.103 0-16.482 7.379-16.482 16.482 0 9.102 7.379 16.481 16.482 16.481h60.527l-.011-.013c5.209-.145 9.39-4.404 9.39-9.649z"/></g><g><path fill="#e0e0e0" d="M561.705 393.646V329.83h-32.778v-65.863h-4.622v37.75h-12.607v-10.441h-22.692V255.13h-4.203v-44.176h-3.362v43.373h-7.984v64.257H458.33v-64.257h-27.315v54.341h-28.676v-65.863h-4.623v37.75h-12.607v-10.441h-22.692V233.97h-4.202v-44.177h-3.362v43.373h-7.984v64.257h-15.129v-64.257h-27.314v62.155h-18.42v-36.144h-4.203V215h-3.362v43.373h-7.984v64.257h-15.128v-64.257h-27.315v64.257h-13.447v7.198h-23.558v-65.863h-4.622v37.75h-12.607v-10.441h-22.692V255.13h-4.203v-44.176h-3.362v43.373h-7.328v-3.617h-27.315v3.617H93.751v-3.617h-7.984v-43.373h-3.362v44.176h-4.203v36.145H55.51V298.1H42.903v-37.751h-4.622v65.863H5.503v67.434z"/></g><g><path fill="#f0f0f0" d="M400.728 149.57a8.44 8.44 0 0 1 10.864-8.083 18.067 18.067 0 0 1-.188-2.591c0-9.872 8.001-17.874 17.874-17.874 1.124 0 2.225.108 3.292.307 2.748-4.496 7.686-7.506 13.34-7.506 8.559 0 15.502 6.877 15.628 15.404.088-.002.173-.013.261-.013 7.951 0 14.399 6.446 14.399 14.398 0 7.953-6.448 14.4-14.399 14.4h-52.878l.01-.012c-4.55-.127-8.203-3.847-8.203-8.43z"/></g><g><path fill="#f0f0f0" d="M5.168 144.187a5.163 5.163 0 0 1 6.646-4.945 11.077 11.077 0 0 1-.115-1.586c0-6.04 4.897-10.937 10.937-10.937.688 0 1.36.067 2.013.19 1.68-2.752 4.703-4.595 8.163-4.595 5.236 0 9.485 4.208 9.562 9.426.054-.002.106-.007.159-.007a8.81 8.81 0 0 1 0 17.619H10.18l.007-.008a5.16 5.16 0 0 1-5.019-5.157z"/></g><g><path fill="#f0f0f0" d="M234.946 36.322a4.325 4.325 0 0 1 5.566-4.143 9.16 9.16 0 0 1 10.748-10.327c1.409-2.304 3.939-3.847 6.836-3.847a8.009 8.009 0 0 1 8.008 7.892c.044 0 .088-.006.134-.006a7.376 7.376 0 0 1 7.376 7.378 7.377 7.377 0 0 1-7.376 7.378h-27.095l.005-.007a4.32 4.32 0 0 1-4.202-4.318z"/></g><g><g><path fill="#f5f5f5" d="M5.77 442.954c0-9.006 125.016-16.307 279.23-16.307 154.215 0 279.23 7.301 279.23 16.307 0 9.007-125.015 16.308-279.23 16.308-154.214 0-279.23-7.301-279.23-16.308z"/></g></g><g><g><g opacity=".9"><path fill="#407bff" d="M272.3 27.935v-7.183h1.485v7.183z"/></g><g opacity=".9"><path fill="#407bff" d="M272.3 49.621V31.455h1.485v18.166z"/></g><g opacity=".9" transform="rotate(-44.966 286 53.5)"><path fill="#407bff" d="M280.415 54.195V52.71H291.4v1.485z"/></g><g opacity=".9"><path fill="#407bff" d="M291.006 67.06v-1.485h11.469v1.485z"/></g><g opacity=".9" transform="rotate(-44.998 258.5 51.5)"><path fill="#407bff" d="M257.817 59.614V44.058h1.487v15.556z"/></g><g opacity=".9"><path fill="#407bff" d="M249.947 67.06v-1.485h5.132v1.485z"/></g></g><g><g><path fill="#ffb573" d="M200.519 440.133h9.91l2.038-22.952h-9.911z"/></g><g><path fill="#263238" d="M212.045 438.985h-12.083a.905.905 0 0 0-.869.677l-2.274 8.81a1.401 1.401 0 0 0 1.389 1.762c3.888-.066 6.734-.294 11.63-.294 3.013 0 12.086.313 16.247.313 4.068 0 4.85-4.113 3.16-4.486-7.576-1.67-13.247-3.975-15.613-6.173a2.328 2.328 0 0 0-1.587-.609z"/></g><g><g opacity=".2"><path d="M202.553 417.188h9.915l-1.055 11.83h-9.915z"/></g></g><g><path fill="#263238" d="M221.1 211.909s6.385 76.921 4.557 105.95c-2.002 31.79-9.602 108.87-9.602 108.87h-18.153s1.579-71.781.663-102.723c-1.043-35.243-11.684-111.672-11.684-111.672z"/></g><g><path fill="#407bff" d="M217.62 427.12h-21.376l.229-6.386 22.672-.416z"/></g><g><path fill="#407bff" d="M216.806 438.666c.122 0 .224.018.302.059.062.033.134.093.138.276.01.373-.103.651-.35.851-.558.455-1.853.519-3.523.179 1.14-.647 2.672-1.365 3.433-1.365zm-1.547 2.052c.755 0 1.465-.128 1.927-.506.366-.298.544-.716.53-1.241-.01-.39-.212-.576-.379-.663-1.08-.566-4.343 1.402-4.712 1.626a.242.242 0 0 0-.115.238c.011.092.08.167.17.19.681.166 1.663.356 2.58.356z"/></g><g><path fill="#407bff" d="M214.879 436.35a.89.89 0 0 1 .106.007c.303.037.324.177.335.238.1.65-1.222 2.292-2.27 3.067.145-.835.523-2.503 1.282-3.106a.862.862 0 0 1 .547-.206zm-2.145 4.018a.244.244 0 0 0 .113-.028c1.045-.557 3.108-2.729 2.936-3.833-.03-.202-.165-.548-.724-.617a1.325 1.325 0 0 0-1.011.303c-1.185.942-1.525 3.8-1.538 3.921a.225.225 0 0 0 .224.254z"/></g><g><path fill="#ffb573" d="M126.075 422.734l9.27 3.186 10.468-20.94-9.27-3.186z"/></g><g><path fill="#263238" d="M136.9 426.31l-9.646-6.934a.867.867 0 0 0-1.081.07l-6.879 6.09c-.714.632-.662 1.752.095 2.276 3.143 2.177 5.545 3.618 9.455 6.428 2.404 1.73 9.468 7.2 12.789 9.588 3.247 2.335 6.236-.67 5.1-1.951-5.087-5.752-8.29-10.94-8.917-14.144a2.297 2.297 0 0 0-.916-1.423z"/></g><g><path fill="#ffb573" d="M207.46 128.484c.669-.136 1.59-.34 2.4-.532l2.529-.597c1.69-.415 3.374-.869 5.043-1.36 3.343-.97 6.636-2.05 9.825-3.27 3.184-1.225 6.25-2.614 9.103-4.171 2.827-1.582 5.432-3.354 7.52-5.323l.76-.746c.211-.24.407-.432.626-.697.434-.521.886-1.115 1.334-1.763a54.044 54.044 0 0 0 2.681-4.212 167.74 167.74 0 0 0 5.005-9.417c3.219-6.47 6.344-13.178 9.434-19.814l7.083 2.284a186.787 186.787 0 0 1-5.99 21.916c-1.266 3.6-2.586 7.213-4.24 10.816a67.553 67.553 0 0 1-2.769 5.481 39.533 39.533 0 0 1-1.804 2.827c-.335.478-.742.992-1.117 1.472l-1.124 1.299a44.698 44.698 0 0 1-4.833 4.565 60.173 60.173 0 0 1-5.197 3.678c-3.528 2.227-7.173 4.04-10.855 5.613a101.648 101.648 0 0 1-11.195 3.996c-1.89.552-3.787 1.059-5.7 1.524-.958.232-1.918.46-2.89.66-1.001.201-1.895.377-3.052.571z"/></g><g><path fill="#407bff" d="M202.432 145.584c7.62 5.36 35.269-3.425 35.269-3.425l-3.845-24.44s-11.317 2.665-23.195 6.149c-7.97 2.336-16.523 15.882-8.23 21.716z"/></g><g><path fill="#ffb573" d="M262.585 80.551l1.886-10.451 9.532 6.089s-.926 4.588-5.398 6.996z"/></g><g><path fill="#ffb573" d="M267.155 64.148l7.375-2.637-.527 14.677-9.533-6.089z"/></g><g><g opacity=".2"><path d="M136.537 401.799l9.275 3.188-5.4 10.792-9.275-3.188z"/></g></g><g><path fill="#407bff" d="M166.99 126.443c2.027 11.11 2.936 22.355 3.241 32.909.22 7.72.1 15.07-.171 21.726-.63 15.601-2.075 27.44-1.988 31.483 7.772-.093 37.058-.45 53.028-.652 12.419-55.874 1.42-85.66 1.42-85.66s-5.723-1.5-12.464-2.286a59.12 59.12 0 0 0-2.713-.264c-5.955-.469-15.767-.13-22.546.277-1.424.086-2.87.212-4.277.356-7.162.746-13.53 2.111-13.53 2.111z"/></g><g><path fill="#fff" d="M184.794 123.975c6.78-.408 16.595-.744 22.549-.276a64.5 64.5 0 0 1 2.714.258c.101.006.213.025.313.043 1.286 3.402 1.428 10.717-6.011 11.314-10.1.813-19.562-5.81-23.84-10.978a92.738 92.738 0 0 1 4.275-.361z"/></g><g opacity=".2"><path d="M178.967 141.448c-.795 8.848-3.929 16.186-8.654 22.502a198.647 198.647 0 0 0-.082-4.594c-.167-5.8-.518-11.818-1.158-17.911z"/></g><g><path fill="#ffb573" d="M187.628 98.576c1.252 7.232 2.36 20.5-2.828 25.4 3.632 3.783 9.066 6.973 17.218 6.695 6.243-.213 6.66-4.577 5.325-6.974-8.042-1.83-7.694-7.832-6.153-13.483z"/></g><g opacity=".2"><path d="M193.157 103.326l8.027 6.882c-.37 1.338-.663 2.693-.789 4.008-3.079-.408-7.245-3.746-7.497-6.975-.125-1.611-.022-3.162.26-3.915z"/></g><g><path fill="#263238" d="M215.092 78.28c6.056-3.029 3.28-12.322 3.28-12.322s-3.21-.07-6.702 3.873c1.577-4.789-1.084-12.605-1.97-15.632-12.152 5.281-12.968 10.368-12.968 10.368s-2.535-3.856-4.911-4.014c-6.707 4.489-4.541 11.354-4.541 11.354s-3.514-2.06-6.549-2.06c-.88 3.198-.769 6.621.41 8.794-1.372.77-2.538 1.82-3.227 3.28 1.08.698 2.273 1.264 3.523 1.74-.197 3.762.616 9.042 3.363 12.01l27.899-13.026c4.717 2.042 6.829.563 6.829.563s-1.126-4.014-4.436-4.928z"/></g><g><path fill="#ffb573" d="M187.02 87.677c.375 9.809.093 15.587 4.935 20.564 7.284 7.487 19.512 2.84 22.086-6.988 2.315-8.847 1.316-23.402-8.206-27.19-9.381-3.731-19.187 3.804-18.814 13.614z"/></g><g><path fill="#263238" d="M196.08 76.66c.634 5.141-6.336 8.943-4.717 16.547-1.62 2.605-4.353 4.757-4.353 4.757l-2.83-7.74 1.409-14.198 9.436-.8z"/></g><g><path fill="#263238" d="M189.532 76.026c7.394 4.789 19.79 3.948 23.237 2.746-1.724-6.195-8.661-7.956-8.661-7.956s-11.618-1.056-14.576 5.21z"/></g><g><path fill="#263238" d="M204.77 101.213h-.005c-4.05.024-5.824-2.74-5.898-2.857a.258.258 0 0 1 .085-.35.247.247 0 0 1 .347.07c.016.026 1.714 2.654 5.482 2.631.14 0 .249.113.244.252a.265.265 0 0 1-.255.254z"/></g><g><path fill="#ffb573" d="M182.331 98.553c1.341 2.24 3.614 3.613 5.732 4.055 3.187.664 4.674-2.26 3.699-5.174-.878-2.623-3.592-6.126-6.748-5.481-3.109.636-4.215 4.04-2.683 6.6z"/></g><g opacity=".2"><path d="M195.417 235.932l-4.352 8.52c1.993 16.121 4.27 35.896 5.798 53.378 3.466-17.583 5.711-51.336-1.446-61.898z"/></g><g><path fill="#263238" d="M204.226 212.12s-12.319 70.3-17.826 98.992c-6.033 31.42-40.89 103.97-40.89 103.97l-16.98-5.836s28.049-72.296 31.093-103.242c3.468-35.25 8.455-93.437 8.455-93.437z"/></g><g><path fill="#407bff" d="M146.846 415.96l-19.994-6.872 2.27-6.047 21.341 6.892z"/></g><g><path fill="#263238" d="M201.854 90.235c-.019.799.39 1.443.913 1.435.523-.005.96-.66.98-1.458.018-.8-.39-1.442-.912-1.436-.523.007-.962.66-.98 1.459z"/></g><g><path fill="#263238" d="M210.894 90.122c-.02.8.389 1.442.912 1.436.522-.007.962-.66.98-1.459.02-.8-.39-1.443-.913-1.436-.522.008-.96.66-.979 1.46z"/></g><g><path fill="#ed893e" d="M208.01 90.556s1.71 4.59 3.66 6.789c-1.446 1.338-3.94.564-3.94.564z"/></g><g><path fill="#263238" d="M199.115 87.349a.481.481 0 0 0 .462-.185c1.304-1.686 3.029-1.606 3.046-1.604a.49.49 0 0 0 .511-.442.443.443 0 0 0-.423-.497c-.092-.004-2.254-.105-3.87 1.986a.465.465 0 0 0 .077.657.46.46 0 0 0 .197.085z"/></g><g><path fill="#263238" d="M214.841 86.964a.464.464 0 0 0 .288-.045.48.48 0 0 0 .232-.629c-1.08-2.322-3.218-2.594-3.312-2.6a.49.49 0 0 0-.534.412.456.456 0 0 0 .391.519c.074.014 1.737.233 2.601 2.09.065.14.192.229.334.253z"/></g><g><path fill="#407bff" d="M140.885 428.774c.098.071.169.146.208.224.03.063.053.155-.05.31-.205.32-.457.489-.767.516-.709.06-1.779-.63-2.918-1.873 1.283.112 2.92.389 3.527.823zm-2.413.836c.602.433 1.24.733 1.828.681.463-.04.846-.288 1.137-.736.216-.334.161-.606.078-.775-.536-1.096-4.272-1.316-4.697-1.34a.243.243 0 0 0-.229.133.236.236 0 0 0 .026.258c.45.53 1.125 1.253 1.856 1.779z"/></g><g><path fill="#407bff" d="M140.678 425.726c.027.02.055.041.08.066.22.206.157.336.13.39-.294.607-2.293 1.224-3.574 1.273.597-.617 1.855-1.801 2.808-1.87.219-.016.4.03.556.14zm-4.023 2.141a.254.254 0 0 0 .107.042c1.155.133 4.05-.508 4.548-1.534.09-.186.182-.554-.225-.933a1.258 1.258 0 0 0-.98-.325c-1.488.109-3.402 2.315-3.483 2.409a.236.236 0 0 0-.044.238.223.223 0 0 0 .077.103z"/></g><g><g><path fill="#ffb573" d="M176.353 141.673l-3.118 3.779a179.464 179.464 0 0 0-3.116 3.931 282.303 282.303 0 0 0-6.003 8.015c-1.914 2.71-3.771 5.446-5.505 8.211-1.674 2.781-3.333 5.574-4.664 8.392l-.265.529-.106.237c-.08.11-.146.383-.228.597-.157.483-.28 1.098-.407 1.75-.24 1.327-.376 2.848-.45 4.406-.128 3.13-.095 6.464.085 9.806.329 6.695.942 13.608 1.609 20.4l-7.245 1.697c-2.385-6.798-4.27-13.609-5.639-20.74-.64-3.57-1.235-7.185-1.444-11.022-.108-1.924-.156-3.891-.012-6.025a26.05 26.05 0 0 1 .467-3.396c.147-.627.256-1.208.501-1.911l.336-.99.265-.665c2.766-7.173 6.429-13.586 10.412-19.69 2-3.043 4.113-5.99 6.314-8.862a186.588 186.588 0 0 1 3.383-4.247 92.916 92.916 0 0 1 3.62-4.204z"/></g><g><path fill="#407bff" d="M166.99 126.443c-9.43 1.34-19.662 23.557-19.662 23.557l17.847 16.874s7.402-11.166 13.501-22c6.645-11.8-.265-20.053-11.687-18.431z"/></g><g><path fill="#ffb573" d="M153.328 209.606l5.964 7.888-12.407 3.003s-3.543-7.895.504-10.39z"/></g><g><path fill="#ffb573" d="M159.094 225.773l-10.353 2.006-1.856-7.282 12.406-3.003z"/></g></g></g><g><g><path fill="#ffc3bd" d="M441.384 417.164l-9.349 4.011-12.969-20.072 9.35-4.01z"/></g><g opacity=".2"><path d="M428.42 397.097l-9.352 4.013 6.69 10.344 9.353-4.013z"/></g><g><path fill="#407bff" d="M355.529 215.074s16.49 82.947 24.734 111.592c9.027 31.37 40.225 84.49 40.225 84.49l17.124-7.348s-19.026-42.837-26.578-73.756c-8.602-35.219-20.511-117.85-20.511-117.85z"/></g><g opacity=".2"><path d="M369.168 238.866c2.117 23.055 2.629 39.265 3.503 57.136-4.334-18.935-8.96-40.887-12.32-57.136z"/></g><g><path fill="#ffc3bd" d="M373.11 440.43l-10.173-.16-2.337-23.598 10.172.159z"/></g><g opacity=".2"><path d="M360.603 416.678l1.203 12.164 10.176.16-1.203-12.165z"/></g><g><path fill="#407bff" d="M358.03 426.433l17.224.262s-6.796-66.923-9.028-98.545c-.678-9.62-.363-23.227.442-37.866 1.023-18.446 1.692-25.835 3.08-49.159.989-16.63 2.198-27.4 2.198-27.4l-35.652 2.93s-1.403 80.736 2.641 111.52c4.201 32.01 19.095 98.258 19.095 98.258z"/></g><g><path fill="#263238" d="M363.028 439.093l11.107.174a.888.888 0 0 1 .856.709l1.868 9.073a1.481 1.481 0 0 1-1.492 1.787c-4.007-.13-9.793-.456-14.83-.536-5.888-.092-6.562.149-13.47.04-4.174-.064-5.267-4.304-3.513-4.66 7.984-1.615 10.068-1.7 17.01-5.832.756-.45 1.585-.768 2.464-.755z"/></g><g><g><path fill="#407bff" d="M355.861 426.8l20.526.322.104-6.632-21.959-.709z"/></g><g opacity=".3"><path d="M355.861 426.8l20.526.322.104-6.632-21.959-.709z"/></g></g><g><path fill="#407bff" d="M356.597 438.716c.772-.254 2.976.626 4.577 1.421-2.252.337-3.924.213-4.542-.35-.218-.198-.308-.453-.278-.78.011-.125.057-.202.155-.254a.533.533 0 0 1 .088-.037zm5.407 1.767c.086-.027.15-.1.162-.19a.241.241 0 0 0-.124-.25c-.458-.247-4.514-2.384-5.76-1.715a.77.77 0 0 0-.41.636c-.042.48.103.875.434 1.18 1.1 1.004 4.023.649 5.666.348z"/></g><g><path fill="#407bff" d="M359.116 436.384a1.285 1.285 0 0 1 1.224.277c.84.711 1.175 2.354 1.293 3.157-1.24-.772-2.867-2.528-2.744-3.216.007-.042.025-.151.227-.218zm2.888 4.1a.28.28 0 0 0 .061-.031.237.237 0 0 0 .104-.218c-.008-.115-.24-2.86-1.518-3.943a1.765 1.765 0 0 0-1.329-.433c-.664.056-.86.39-.909.66-.203 1.146 2.195 3.384 3.413 3.954.057.026.12.03.178.011z"/></g><g><path fill="#263238" d="M429.908 420.705l10.656-6.348a.886.886 0 0 1 1.099.153l6.355 6.74c.66.698.481 1.839-.353 2.315-3.462 1.985-6.084 3.274-10.402 5.847-2.655 1.583-8.79 5.538-12.457 7.723-3.588 2.138-6.235-1.08-5.003-2.38 5.521-5.82 8.007-9.444 9.008-12.666a2.467 2.467 0 0 1 1.097-1.384z"/></g><g><path fill="#ffc3bd" d="M279.778 81.19l1.982-8.825-10.515-3.062s-3.193 8.58 2.98 12.678z"/></g><g><path fill="#ffc3bd" d="M280.41 63.716l-8.156-4.377-1.01 9.965 10.516 3.061z"/></g><g><path fill="#407bff" d="M330.908 145.954c-3.902-1.087-7.447-2.298-11.107-3.615-3.616-1.335-7.212-2.75-10.766-4.316-3.568-1.53-7.086-3.231-10.588-5.066-1.756-.886-3.491-1.897-5.22-2.89l-2.586-1.583-.645-.398-.97-.628c-.632-.439-1.23-.897-1.785-1.366-2.22-1.886-3.814-3.926-5.137-5.931-1.306-2.009-2.35-4.007-3.245-5.985-1.748-3.975-2.958-7.887-3.904-11.787-.943-3.897-1.607-7.775-2.087-11.65-.454-3.905-.768-7.685-.779-11.72l9.34-1.2c2.029 6.82 4.301 13.841 6.974 20.228 1.35 3.192 2.814 6.27 4.462 8.938.805 1.34 1.663 2.56 2.529 3.586.865 1.007 1.746 1.802 2.44 2.254.172.11.332.196.479.27.079.03.12.047.224.099l.58.279 2.312 1.113c1.595.7 3.161 1.423 4.789 2.11 3.224 1.385 6.544 2.669 9.89 3.934 3.356 1.242 6.732 2.479 10.138 3.653l10.117 3.459z"/></g><g><path fill="#ffc3bd" d="M364.518 96.96c-.73 7.55-.857 21.263 4.807 25.7-3.636 4.395-8.448 9.53-17.214 10.697-8.766 1.167-7.818-5.033-5.807-8.452 8.068-2.778 7.257-8.886 5.257-14.501z"/></g><g><path fill="#263238" d="M341.522 89.618c-.08.817-.58 1.436-1.112 1.384-.534-.053-.902-.757-.822-1.574.08-.816.579-1.436 1.113-1.384.533.053.9.758.82 1.574z"/></g><g><path fill="#ed847e" d="M341.23 90.416s-2.32 4.53-4.588 6.602c1.312 1.49 3.83 1.116 3.83 1.116z"/></g><g><path fill="#263238" d="M343.71 86.56a.483.483 0 0 1-.3-.343c-.481-2.073-2.097-2.704-2.166-2.728a.482.482 0 1 1 .333-.906c.089.036 2.17.82 2.772 3.416a.48.48 0 0 1-.638.56z"/></g><g><path fill="#ffc3bd" d="M369.403 90.276c-1.957 9.906-2.6 15.803-8.334 20.249-8.627 6.69-20.34.456-21.38-9.835-.937-9.262 2.423-23.904 12.735-26.562 10.159-2.618 18.938 6.244 16.98 16.148z"/></g><g><path fill="#263238" d="M349.3 93.031c-2.853-3.275-1.796-10.35 0-13.73-2.113 1.338-9.27.861-9.312-4.753-.062-8.23 13.77-10.194 21.352-8.697 8.731 1.726 16.556 9.911 19.574 7.077 3.108 5.474-2.323 7.394-2.323 7.394s5.398 13.63-14.364 26.967c-1.905-.313-4.293-.37-8.137.344-.61 0-1.198-.235-1.631-.667-2.012-2.004-7.508-8.194-5.159-13.935z"/></g><g><path fill="#263238" d="M377.842 80.014s3.725.792 4.992-1.612"/></g><g><path fill="#ffc3bd" d="M355.814 96.182c-1.324 2.38-3.622 3.926-5.782 4.505-3.252.87-4.84-2.046-3.906-5.095.84-2.745 3.544-6.504 6.793-6.027 3.2.47 4.408 3.898 2.895 6.617z"/></g><g><g><g><path fill="#407bff" d="M394.538 131.288a99.32 99.32 0 0 1 3.91 3.989c1.214 1.346 2.44 2.671 3.598 4.054 2.348 2.732 4.58 5.556 6.755 8.418 2.142 2.89 4.253 5.802 6.219 8.822l1.622 2.457c.62.91 1.136 1.848 1.667 2.78a45.356 45.356 0 0 1 2.598 5.7 58.686 58.686 0 0 1 3.075 11.472 77.326 77.326 0 0 1 1.086 11.304c.128 3.73-.029 7.422-.333 11.079-.33 3.69-.805 7.202-1.629 10.982l-9.36-1.035c-.163-3.15-.407-6.605-.778-9.872-.353-3.304-.849-6.57-1.439-9.765-1.226-6.367-2.968-12.525-5.594-17.663-.642-1.29-1.382-2.474-2.12-3.603-.385-.545-.751-1.11-1.167-1.6-.218-.268-.36-.479-.636-.795l-.832-.955c-2.23-2.535-4.43-5.088-6.702-7.58-2.234-2.522-4.51-5.004-6.766-7.49l-6.657-7.297z"/></g></g><g><path fill="#263238" d="M369.466 139.334c-1.627 7.342 20.888 20.703 20.888 20.703l17.831-15.22s-6.214-9.274-15.152-18.113c-9.303-9.2-20.933.74-23.567 12.63z"/></g><g opacity=".2"><path d="M385.12 147.029c-3.22-1.763-3.715 2.255-3.22 7.363a119.466 119.466 0 0 0 8.453 5.64l2.27-1.939c-1.787-4.677-4.272-9.303-7.504-11.064z"/></g><g><path fill="#ffc3bd" d="M413.573 209.664l-4.687 6.263 11.27 4.647s2.945-5.106 2.321-8.894c-.243-1.486-1.434-2.641-2.902-2.983l-2.052-.475a3.847 3.847 0 0 0-3.95 1.442z"/></g><g><path fill="#ffc3bd" d="M406.622 225.973l10.618 2.363 2.916-7.762-11.27-4.648z"/></g></g><g><path fill="#263238" d="M389.178 128.327c-4.613 38.954 7.808 87.044 8.11 95.074-7.95.666-47.301 4.282-63.63 5.618-9.484-69.365-.753-102.272-.753-102.272s3.383-1.089 8.038-2.137a95.382 95.382 0 0 1 4.685-.94 73.326 73.326 0 0 1 2.78-.439c6.084-.83 16.153-1.058 23.112-1.042 1.456.007 2.945.046 4.385.108 1.34.066 2.656.15 3.897.246 1.916.148 3.689.327 5.192.495a4.747 4.747 0 0 1 4.184 5.289z"/></g><g opacity=".2"><path d="M330.19 145.444a221.49 221.49 0 0 0-.47 6.49c3.612-.356 7.984-1.217 9.823-3.347 2.268-2.636-4.627-3.105-9.354-3.143z"/></g><g><path fill="#263238" d="M343.774 148.989c-8.716 4.317-25.197-3.042-25.197-3.042l.26-25.563s17.808 2.872 30.39 2.742c12.92-.132 4.113 21.124-5.453 25.863z"/></g><g><g><path fill="#407bff" d="M418.598 412.405l20.163-8.651-2.584-6.024-22.882 7.52z"/></g><g opacity=".3"><path d="M418.598 412.405l20.163-8.651-2.584-6.024-22.882 7.52z"/></g></g><g><g><path fill="#407bff" d="M429.254 422.346c-1.306 1.182-2.48 1.807-3.197 1.69-.314-.05-.553-.242-.728-.583-.085-.167-.052-.26-.015-.321.349-.557 2.4-.766 3.94-.786zm-1.326 1.61c.808-.483 1.58-1.17 2.1-1.678a.24.24 0 0 0-.163-.412c-.436-.01-4.289-.062-4.958 1.011-.104.166-.19.44-.006.797.246.48.61.763 1.079.84.594.094 1.283-.162 1.948-.558z"/></g><g><path fill="#407bff" d="M426.108 419.822a.851.851 0 0 1 .584-.102c.968.144 2.123 1.448 2.663 2.123-1.305-.147-3.28-.929-3.515-1.57-.022-.059-.07-.196.178-.389a.712.712 0 0 1 .09-.062zm3.875 2.492a.25.25 0 0 0 .092-.1.24.24 0 0 0-.018-.247c-.072-.102-1.785-2.499-3.294-2.723a1.315 1.315 0 0 0-1.04.259h-.001c-.458.355-.406.739-.334.934.396 1.085 3.285 1.958 4.481 1.91a.242.242 0 0 0 .114-.033z"/></g></g></g></g></g></svg>