<svg xmlns="http://www.w3.org/2000/svg" width="388" height="332" viewBox="0 0 388 332"><g><g><path fill="#e0e0e0" d="M0 320c0-6.254 86.807-11.323 193.89-11.323 107.081 0 193.888 5.07 193.888 11.323 0 6.254-86.807 11.323-193.889 11.323C86.807 331.323 0 326.253 0 320z"/></g><g><path fill="#b7b7b7" d="M340.474 289.941v-.25h19.193v.25z"/></g><g><path fill="#fafafa" d="M72.265 256.95a4.766 4.766 0 0 1 6.135-4.564 10.1 10.1 0 0 1-.107-1.464c0-5.575 4.519-10.094 10.094-10.094.635 0 1.256.062 1.859.174 1.552-2.539 4.34-4.239 7.534-4.239 4.833 0 8.754 3.883 8.825 8.7.05-.002.098-.009.147-.009a8.131 8.131 0 0 1 8.13 8.132 8.13 8.13 0 0 1-8.13 8.131H76.89l.006-.007a4.762 4.762 0 0 1-4.632-4.76z"/></g><g><path fill="#fafafa" d="M242.415 68.462a5.998 5.998 0 0 1 7.72-5.744 12.717 12.717 0 0 1-.134-1.842c0-7.016 5.688-12.703 12.703-12.703.8 0 1.58.078 2.34.219 1.952-3.195 5.462-5.335 9.48-5.335 6.083 0 11.016 4.887 11.107 10.948.062-.001.122-.01.185-.01 5.65 0 10.232 4.582 10.232 10.233 0 5.651-4.581 10.233-10.232 10.233h-37.58l.009-.009a5.995 5.995 0 0 1-5.83-5.99z"/></g><g><path fill="#fafafa" d="M27.353 163.476a8.475 8.475 0 0 1 10.908-8.116c-.124-.85-.19-1.718-.19-2.602 0-9.912 8.035-17.946 17.946-17.946 1.13 0 2.234.109 3.306.309 2.758-4.515 7.717-7.538 13.394-7.538 8.593 0 15.563 6.905 15.69 15.467.089-.001.174-.013.262-.013 7.984 0 14.457 6.472 14.457 14.457 0 7.984-6.473 14.456-14.457 14.456H35.578l.01-.012c-4.568-.127-8.235-3.862-8.235-8.462z"/></g><g><g><g><path fill="#e0e0e0" d="M303.422 151.577c.025-3.578-.124-7.109-.44-10.594-2.693-29.844-17.576-56.212-39.652-74.044-18.298-14.781-41.545-23.7-66.897-23.88a183.02 183.02 0 0 0-1.963.002c-13.544.149-26.488 2.796-38.395 7.5h-.007c-36.394 14.401-63.125 48.042-67.52 88.473-.39 3.623-.606 7.294-.632 11.014a107.693 107.693 0 0 0 2.989 26.062c5.95 24.746 20.45 46.196 40.228 61.011 17.786 13.313 39.837 21.274 63.77 21.444 12.823.091 25.139-2.062 36.565-6.088 41.644-14.665 71.623-54.211 71.954-100.9z"/></g></g><g><g><path fill="#ebebeb" d="M227.953 229.308c2.023.196 2.934 2.682 3.346 4.709.61 3.044 1.23 6.088 1.843 9.131-3.71 1.739-3.401 6.261-1.674 9.329 41.644-14.665 71.623-54.211 71.954-100.9.025-3.578-.124-7.109-.44-10.594-.086-.056-.181-.104-.276-.153-2.936-1.387-5.254 1.123-7.468 2.541-.501.32-6.958 3.456-7.042 2.584.272 2.819.12 5.678-.45 8.452-.043.21-.101.44-.28.561-.42.288-.895-.292-1.048-.778-.392-1.243-.56-2.553-1.027-3.769-.466-1.217-1.317-2.385-2.56-2.777-1.25-.393-2.611.07-3.908-.111-1.583-.221-2.903-1.397-3.701-2.78-.771-1.336-1.13-2.88-1.518-4.35-1.523 3.38-5.384 1.296-7.653 4.028-.73.877-1.605 2.143-2.663 1.717-1.007-.404-1.122-2.123-2.2-2.257-.752-.093-1.304.735-1.415 1.486-.112.751.009 1.553-.308 2.243-.445.97-1.797 1.385-2.71.832-.82-.496-1.137-1.503-1.65-2.313-.512-.81-1.611-1.492-2.383-.924a1.481 1.481 0 0 0-.421.523c-.748 1.439.1 3.186 1.102 4.462 1.002 1.276 2.237 2.553 2.343 4.172-.581.416-1.502.223-1.867-.392-.127-.214-.198-.471-.388-.631-.414-.348-1.027-.017-1.481.276a9.706 9.706 0 0 1-7.324 1.3l-.555-9.853c-.744-.026-1.19-.073-1.472-.836-2.463 2.398-4.721 4.982-7.437 7.145-.325.259-.673.542-.783.942-.114.419.059.862.033 1.295-.087 1.433-2.01 1.809-3.445 1.772-.417.232-.177.916.24 1.147.417.232.938.254 1.315.547.562.438.572 1.293.366 1.976-.714 2.373-3.615 3.818-5.94 2.959-.276-.102-.555-.242-.721-.486-.363-.537-.02-1.248.047-1.893.262-2.544-2.484-1.952-3.75-1.248-1.716.953-2.68 3.483-3 5.293-.374 2.115-1.973 16.151-6.656 14.211-.44-.182-.758-.578-.981-.998-.677-1.274-.63-2.809-1.124-4.164-.496-1.355-2.038-2.591-3.298-1.889-.506.282-.828.811-1.311 1.129-1.347.887-3.262-.178-4.73.491-.673.307-1.141.936-1.752 1.354-.612.419-1.572.553-2.003-.049-.483-.676.083-1.694-.313-2.424-.416-.766-1.708-.607-2.147.147-.44.753-.174 1.749.367 2.432.283.358.648.686.742 1.132.168.8-.59 1.465-1.262 1.93l-3.205 2.218c.07.74.79 1.256 1.506 1.456.716.201 1.48.193 2.19.429 3.42 1.14 3.407 6.216 7.894 5.219-.267-1.347 1.17-2.72 2.504-2.391 1.645.405 2.708 2.748 4.337 2.286.567-.161.999-.655 1.572-.791 1.584-.375 2.358 2.057 2.803 3.093 1.477 3.436-.821 3.851-.728 6.918.042 1.403 1.08 2.587 1.339 3.967.237 1.27-.208 2.584-.036 3.864.473 3.52 5.13 1.385 7.195.978-1.123 1.994.546 4.42 2.365 5.803 2.795 2.123 2.316 1.941 2.664 5.006.092.81.557 1.631 1.325 1.903 1.336.474 2.637-.847 4.049-.985.677-.066 1.364.147 2.035.034 1.762-.298 2.375-2.457 3.524-3.826a4.883 4.883 0 0 1 4.177-1.686c.125.904.129 1.825.01 2.73l-2.96 1.828c-.872.539-1.776 1.108-2.316 1.98-.303.489-.49 1.07-.927 1.442-.871.739-2.175.293-3.315.219-2.763-.18-7.261 1.542-9.924 2.417-2.838.931-3.83 2.938-6.447 3.838-.462.158-.565.827-.293 1.232.272.405.775.585 1.255.67a5.067 5.067 0 0 0 3.287-.541c-1.302.713 2.503 3.855 3.192 4.01 1.128.254 2.646-.596 3.794-.655 2.848-.144 4.497.422 2.627 3.518-.715 1.184-1.55 2.693-.764 3.832.754-.314 1.662.139 2.084.838.422.698.454 1.565.36 2.376-.061.546-.194 1.124-.593 1.502-.214.202-.495.338-.658.583-.53.798.559 1.672 1.453 2.015"/></g><g><path fill="#ebebeb" d="M133.658 105.872c.886-.664 2.146-.129 3.069.482.923.612 2.007 1.326 3.048.949l.06-3.852c.004-.241.019-.51.194-.677.178-.168.452-.168.696-.156l2.479.113c.69.758-1.231 1.683-.958 2.67.12.437.614.626 1.013.84 3.403 1.826 1.244 5.622-.298 7.684-1.79 2.394-1.67 5.656-1.477 8.641.07 1.061.197 2.249 1.015 2.944.795.686 1.967.639 2.986.939 1.76.511 3.008 2.071 4.657 2.883 5.76 2.834 9.558-3.332 7.682-8.189-.973-2.518-1.39-2.04-.832-4.731.232-1.122-.14-2.446 1.028-3.212 1.237-.811 3.022.06 3.12 1.567.097 1.478.436 2.884-.171 4.273 1.704-.633 3.733-.231 5.595-.231-.266 1.716 1.949 3.227 3.45 2.355-.05-.841.178-1.999 1.02-1.992.246.002.475.12.686.244.884.521 1.665 1.216 2.597 1.651 1.43.667 5.544.351 6.186 2.281.113.34.112.711.246 1.042.286.707 1.183 1.052 1.91.826.729-.226 1.25-.924 1.393-1.673.094-.499.04-1.021.172-1.512.693-2.608 3.37-.567 4.567-1.269.573-.337 2.937-4.783 2.989-5.322 1.138 1.417 2.839 2.611 4.73 2.522 2.073-.097 2.957-1.745 3.423-3.757.492-2.126.517-4.658.982-6.199.25-.827.464-1.831-.121-2.467-.732-.795-2.29-.491-2.821-1.432-.17-.298-.183-.656-.241-.994-.34-1.982-2.562-3.418-4.51-2.914-.636-.417-.647-1.321-.684-2.082-.037-.76-.36-1.7-1.118-1.754-.873-.062-1.27 1.08-1.255 1.955.014.891.153 1.781.412 2.635.193.638.453 1.322.227 1.948-.171.474-.588.81-.997 1.104-.986.709-2.106 1.347-3.32 1.338-1.214-.008-2.491-.89-2.54-2.103-.012-.326.06-.657-.015-.974-.196-.814-1.235-1.095-2.064-.983-.83.112-1.656.459-2.476.292-.82-.166-1.502-1.235-.921-1.837-1.102-.386-2.678-.578-3.112.506-.14.348-.101.737-.108 1.112-.042 2.314-2.92 5.655-4.882 3.235-1.291-1.591.932-4.485-1.384-5.795-1.108-.625-2.61-.073-3.706-.719-.342-.406.246-.955.759-1.09 1.623-.427 3.457.071 4.64 1.26.658-1.349-.357-3.326.788-4.295 1.13-.956 3.304.169 4.152-1.045.242-.347.28-.793.31-1.217.15-2.09-.493-5.924 2.458-6.274.357-.043.73-.015 1.066-.146 1.019-.396 1.01-1.822.82-2.898-1.108-.477-2.297.344-3.364.909-1.067.565-2.76.659-3.123-.492-.26-.824.386-1.856-.16-2.526-.253-.31-.7-.428-.914-.767-.52-.819.742-1.64.966-2.583.309-1.3-1.428-2.135-2.761-2.036-1.332.099-2.823.547-3.898-.246-.341-.251-.594-.603-.911-.884-.975-.864-2.396-.942-3.7-.976-2.078-.054 2.653-8.608 2.7-9.129.358-3.968-3.71-6.08-6.04-8.603-1.217-1.33-2.108-2.904-3-4.477-35.04 13.865-60.951 46.042-66.828 83.288-.264 1.67-.577 3.397-.59 5.061 2.46-.693 6.285-2.534 8.783-1.038 3.17 1.9.876 6.605 4.53 7.996.906-.012.645-1.503 1.169-2.24.29-.41.825-.548 1.274-.775.449-.226.884-.711.702-1.18.79-.622 1.88.171 2.616.858.864.809 1.852 1.551 3.009 1.795 2.413.507 4.64-1.222 6.812-2.387 1.796-.962 3.754-1.575 5.698-2.183-.94.056-1.417-1.245-1.054-2.115.362-.87 1.18-1.447 1.78-2.175 1.022-1.24.237-2.684 1.09-4.002 1.058-1.639 3.092-2.788 3.264-4.726.215-2.349-2.386-3.848-4.573-4.718 1.159-2.652 4.298-4.474 4.295-7.371 0-1.116-.5-2.156-.983-3.157-.99-2.049-1.981-4.098-2.972-6.139-.413-.85-.834-1.787-.582-2.696.284-1.074 1.38-1.692 2.366-2.183l3.217-1.616c.445-.218.929-.445 1.412-.362.52.091.906.505 1.228.927 1.749 2.268 2.583 5.218 2.293 8.074a46.435 46.435 0 0 0 11.088-3.088c-.395 2.198.512 4.624-.168 6.682"/></g><g><path fill="#ebebeb" d="M222.75 123.854c1.024.735 1.846 1.857 1.909 3.115.039.776-.208 1.537-.258 2.312-.05.776.169 1.662.849 2.036.869.478 1.918-.117 2.727-.691.656-.467 1.364-1.008 1.525-1.797.118-.578-.087-1.175-.036-1.763.102-1.162 1.13-1.979 1.952-2.808.82-.829 1.519-2.134.872-3.104-.426-.639-1.29-.862-1.747-1.48-1.115-1.504.902-3.61-.023-4.98-1.094-1.623-3.808-.793-5.31.027-1.52.831-2.626 2.37-3.713 3.674-3.074 3.687-2 3.123 1.254 5.459z"/></g><g><path fill="#ebebeb" d="M263.24 66.908c-18.027-15.64-43.187-23.681-66.807-23.849a183.02 183.02 0 0 0-1.963.002c-3.116 3.514-4.77 10.17 1.405 11.413.003.674-.386.841-.725 1.38-.534.846.357 1.911 1.28 2.292 3.034 1.253 6.715 1.18 6.233 5.287-.574 4.899-2.888 1.782-5.432 3.556-.368.256-.584.674-.88 1.013-1.08 1.241-2.977 1.232-4.62 1.122.412-.962-.227-2.221-1.247-2.457-.385-.088-.817-.058-1.137-.289-.687-.497-.167-1.671.617-1.994.784-.323 1.686-.189 2.5-.426.814-.237 1.557-1.202 1.063-1.892-.207-.287-.565-.422-.91-.5a4.612 4.612 0 0 0-4.127 1.145c-.271-.78-1.113-1.319-1.934-1.239-.822.081-1.544.772-1.66 1.59-.167 1.195.653 2.822-.416 3.382a2.679 2.679 0 0 1 2.66.839c2.5 2.946 1.013 10.109 7.6 8.909 1.058-.193 2.07-.644 3.144-.701 1.074-.057 2.305.443 2.589 1.48 1.384-2.008 4.933-1.579 6.113-3.713.556-1.004.303-2.385-.572-3.127-.146-.124-.313-.24-.383-.418-.143-.361.18-.731.232-1.116.09-.67-.633-1.189-.722-1.858-.124-.934.96-1.53 1.872-1.767.912-.236 2.026-.571 2.21-1.494.064-.315-.003-.645.06-.96.129-.635.774-1.06 1.417-1.143.643-.082 1.286.103 1.908.286.423.36.235 1.075-.144 1.482-.378.407-.903.674-1.215 1.135-.174.258.683 5.842.262 5.697 1.997.689 6.26.791 5.4 3.775-.302 1.054-.916 2.151-.525 3.176a186.718 186.718 0 0 0-4.226-1.136c-.344.454.22 1.074.773 1.213.552.139 1.207.119 1.582.547.263.301.298.732.32 1.131l.217 3.893c.079 1.408.267 3.021 1.433 3.815 1.327.903 3.202.184 4.317-.97.267-.277.56-.6.946-.602.348-.002.63.263.89.495 1.368 1.224 3.28 1.959 5.067 1.537 1.786-.423 3.262-2.219 2.962-4.029-.115-.697-.417-1.549.122-2.006.316-.268.857-.301.999-.691.178-.491-.447-.844-.866-1.155-.757-.562-1.028-1.688-.61-2.533.215-.433 4.108-2.032 4.713-1.737 1.387.676 1.142 4.394 1.315 5.828.066.554.168 1.172.616 1.505.699.52 1.708-.021 2.25-.703.54-.683.938-1.548 1.723-1.927.456-.22.98-.239 1.486-.254 1.026-.03 2.178-.013 2.9.715.339.341.537.8.874 1.141.77.778 2.057.74 3.088.371 1.03-.37 1.96-1.007 3.018-1.29 2.25-.601 4.826.466 6.897-.603 1-.517 1.722-1.946.929-2.746-.684-.692-2.168-.572-2.35-1.528-.174-.915 2.069-2.236 2.463-3.037.312-.634-.371-1.813.352-2.988.587-.954 2.018-1.247 2.655-2.274z"/></g><g><path fill="#ebebeb" d="M130.917 221.205c-1.281-.858-2.718-1.352-3.164-3.113-.607-2.399.686-3.422 3.072-2.532.212.079.443.163.659.094.689-.22.2-1.238-.248-1.806-1.05-1.326-1.122-3.106-.578-4.648.129-.366-6.59-.52-7.33-.116-2.59 1.417-.901 6.941-3.906 6.01-.203-2.1-.092-4.275-.098-6.398l-3.07-.118c.763.03.31-3.887.05-4.315-1.008-1.662-4.121-.956-3.843-4.097.35-3.976 8.05-4.785 7.129-.223 2.345.898 5.088 1.099 7.596 1.025.058.808.107 1.624.157 2.431a2.2 2.2 0 0 0 1.986.149c1.217-2.042 1.03-4.837-.443-6.707.88-1.348-.192-3.08-1.22-4.323 2.816-2.062 2.007-7.299-1.302-8.415-3.316-1.116-7.126 2.569-6.13 5.917a7.807 7.807 0 0 0-4.36 1.995c-.174-4.228-3.36-8.161-7.461-9.203-2.062-.529-4.508-.499-5.913-2.1-.628-.709-.938-1.645-1.52-2.393-1.317-1.672-3.673-2.013-5.801-2.131a64.145 64.145 0 0 0-4.274-.078c5.95 24.746 20.45 46.196 40.228 61.011.752.029 1.527.02 2.179-.324 1.208-.649 1.583-2.174 1.83-3.526.972-5.257.426-8.53-3.852-11.799a7.932 7.932 0 0 0-.373-.267z"/></g></g></g><g><path fill="#fafafa" d="M56.695 82.935a8.475 8.475 0 0 1 10.908-8.116 18.008 18.008 0 0 1-.191-2.602c0-9.911 8.035-17.946 17.947-17.946 1.13 0 2.233.109 3.305.309 2.759-4.514 7.717-7.537 13.395-7.537 8.593 0 15.563 6.904 15.69 15.466.089-.001.174-.013.262-.013 7.984 0 14.456 6.473 14.456 14.457 0 7.984-6.472 14.457-14.456 14.457H64.92l.01-.013c-4.568-.127-8.235-3.862-8.235-8.462z"/></g><g><path fill="#fafafa" d="M294.955 143.042a8.474 8.474 0 0 1 10.908-8.115 18.01 18.01 0 0 1-.19-2.602c0-9.912 8.035-17.947 17.946-17.947 1.13 0 2.234.11 3.306.309 2.758-4.514 7.717-7.537 13.394-7.537 8.593 0 15.563 6.905 15.69 15.467.089-.002.174-.013.262-.013 7.984 0 14.457 6.472 14.457 14.456 0 7.985-6.473 14.457-14.457 14.457H303.18l.01-.012c-4.568-.127-8.235-3.863-8.235-8.463z"/></g><g><path fill="#fafafa" d="M189.925 212.609a4.766 4.766 0 0 1 6.136-4.565c-.07-.478-.107-.966-.107-1.463 0-5.575 4.519-10.094 10.094-10.094.635 0 1.256.061 1.859.174 1.55-2.539 4.34-4.24 7.533-4.24 4.834 0 8.754 3.884 8.826 8.7.049-.001.097-.008.147-.008a8.131 8.131 0 0 1 0 16.263h-29.861l.006-.007a4.764 4.764 0 0 1-4.633-4.76z"/></g><g><path fill="#fafafa" d="M241.932 269.428a4.766 4.766 0 0 1 6.135-4.565 10.233 10.233 0 0 1-.107-1.464c0-5.574 4.52-10.094 10.094-10.094.636 0 1.257.062 1.859.174 1.552-2.539 4.34-4.239 7.534-4.239 4.833 0 8.754 3.883 8.826 8.699.049-.001.097-.007.147-.007a8.131 8.131 0 0 1 0 16.262h-29.862l.006-.007a4.762 4.762 0 0 1-4.632-4.759z"/></g><g><g><path fill="#e0e0e0" d="M51.667 22.22l5.67 41.384-5.482 6.991-5.597-7.064zm6.617 48.281l1.359 9.92-4.594-5.796zm-9.602 4.14l-4.657 5.938 1.328-10.139zm3.194 4.03l7.919 9.992-7.838 9.638-7.906-9.652zm9.684 15.746l2.569 18.741-8.937-10.909zm-12.822 7.843l-9.001 11.069 2.49-19.016zm3.234 3.948l12.732 15.542-12.506 15.31-12.844-15.336zm14.175 21.678l4.232 30.883-14.912-17.807zm-17.17 13.117l-15.32 18.757 4.195-32.042zm3.269 3.902l16.053 19.168-15.84 19.877-15.853-19.897zm19.386 23.009l6.635 48.422-22.61-28.375zm-22.368 20.047l-23.096 28.985 6.52-49.786zm3.196 4.012l25.446 31.933-25.446 22.441-25.444-22.441zm27.509 36.78l6.524 47.61-30.253-26.682zM48.68 249.681l-30.298 26.722 6.274-47.911zm41.202 35.505a2.5 2.5 0 0 0 2.477-2.84L70.405 122.127a2.506 2.506 0 0 0-.194-1.411L54.088 3.056A2.5 2.5 0 0 0 51.61.895h-.007a2.501 2.501 0 0 0-2.472 2.175L33.637 121.4a.64.64 0 0 0-.005.043L12.559 282.362a2.5 2.5 0 0 0 4.133 2.199l35.768-31.547 35.769 31.547a2.499 2.499 0 0 0 1.654.625z"/></g></g><g><g><path fill="#e0e0e0" d="M72.265 65.96H32.164a2.5 2.5 0 1 1 0-5h40.1a2.5 2.5 0 0 1 0 5z"/></g></g><g><g><path fill="#e0e0e0" d="M20.485 47.158c3.586-12.424 10.598-21.316 15.659-19.855 7.595 2.192 10.836 14.044 7.249 26.469-3.587 12.425-12.643 20.717-20.238 18.524-5.061-1.461-6.257-12.713-2.67-25.138z"/></g><g><path fill="#ebebeb" d="M20.485 47.158c3.586-12.424 10.598-21.316 15.659-19.855 5.06 1.46 6.246 12.719 2.659 25.143-3.587 12.425-10.588 21.311-15.648 19.85-5.061-1.461-6.257-12.713-2.67-25.138z"/></g><g><path fill="#e0e0e0" d="M31.099 53.373L9.85 43.593l23.152 3.187s.443 4.793-1.904 6.593z"/></g></g><g><path fill="#e6e6e6" d="M43.512 17.185V1.801h14.43v15.384z"/></g><g><path fill="#e0e0e0" d="M73.028 17.129l34.388-3.648-31.82 13.462s-4.187-5.752-2.568-9.814z"/></g><g><g><g><g><path fill="#407bff" d="M305.778 37.305l3.62-10.69 19.347 22.745-5.654 14.33z"/></g><g opacity=".7"><path fill="#fff" d="M328.746 49.361l-2.693 6.822-.128.328-2.834 7.18-4.753-7.244-.197-.303-4.047-6.166-.206-.314-4.287-6.535-.205-.31-3.618-5.515 1.441-4.255.116-.343 2.063-6.093 4.368 5.136.222.26 4.659 5.479.225.262 4.964 5.838.219.258z"/></g><g opacity=".2"><g opacity=".2"><path d="M324.055 43.846l-.218-.258-2.84 6.256-4.598-5.768 2.474-6.326-.226-.262-2.467 6.314-4.58-5.745 2.389-6.048-.222-.26-2.385 6.035-4.047-5.078-.115.343 4.034 5.062-1.857 4.707.205.311 1.87-4.744 4.58 5.744-2.164 5.535.206.314 2.177-5.572 4.586 5.75-2.715 5.988.197.303 2.733-6.024 4.853 6.088.128-.328-4.84-6.07z"/></g></g></g><g><path fill="#407bff" d="M346.322 52.391a1.466 1.466 0 0 0-.703.401l-5.617 3.209 2.025 9.285 6.443.579c.273.097.544.129.805.072 1.61-.351 2.256-3.668 1.44-7.409-.816-3.741-2.783-6.488-4.393-6.137z"/></g><g opacity=".2"><path d="M346.322 52.391a1.466 1.466 0 0 0-.703.401l-5.617 3.209 2.025 9.285 6.443.579c.273.097.544.129.805.072 1.61-.351 2.256-3.668 1.44-7.409-.816-3.741-2.783-6.488-4.393-6.137z"/></g><g><g><path fill="#407bff" d="M339.046 51.2l-16.827 3.669c-2.251.491-3.155 5.108-2.021 10.313 1.135 5.205 3.88 9.027 6.13 8.536l16.828-3.669c2.25-.491 3.155-5.108 2.02-10.313-1.135-5.205-3.88-9.026-6.13-8.536z"/></g><g opacity=".2"><path fill="#fff" d="M328.349 63.405c1.135 5.205.23 9.822-2.02 10.313-2.251.491-4.996-3.331-6.131-8.536-1.134-5.205-.23-9.822 2.02-10.312 2.25-.491 4.996 3.33 6.13 8.535z"/></g></g><g><g><path fill="#263238" d="M322.357 61.24l-5.918 1.29c-.792.173-1.11 1.796-.711 3.627.399 1.831 1.365 3.175 2.156 3.002l5.918-1.29c.792-.173 1.11-1.797.71-3.627-.398-1.831-1.364-3.175-2.155-3.002z"/></g><g opacity=".2"><path fill="#fff" d="M318.595 65.532c.399 1.831.08 3.455-.711 3.627-.792.173-1.757-1.171-2.156-3.002-.4-1.831-.081-3.454.71-3.627.792-.173 1.757 1.171 2.157 3.002z"/></g></g><g><g><path fill="#407bff" d="M322.743 64.625c1.807 8.288-1.466 16.057-7.323 17.501-.07.02-.142.035-.213.051-.071.015-.143.031-.215.042-4.488.759-9.52-5.177-11.321-13.435-1.8-8.254.305-15.746 4.7-16.925.072-.019.143-.035.214-.051.07-.015.143-.031.215-.042 5.926-1.125 12.137 4.576 13.943 12.859z"/></g><g opacity=".5"><path fill="#fff" d="M322.743 64.625c1.807 8.288-1.466 16.057-7.323 17.501-.07.02-.142.035-.213.051-.071.015-.143.031-.215.042-4.488.759-9.52-5.177-11.321-13.435-1.8-8.254.305-15.746 4.7-16.925.072-.019.143-.035.214-.051.07-.015.143-.031.215-.042 5.926-1.125 12.137 4.576 13.943 12.859z"/></g><g opacity=".2"><path fill="#fff" d="M320.12 65.197c1.8 8.258-.304 15.75-4.7 16.929-.07.02-.142.035-.213.051-.071.015-.143.031-.215.042-4.488.759-9.52-5.177-11.321-13.435-1.8-8.254.305-15.746 4.7-16.925.072-.019.143-.035.214-.051.07-.015.143-.031.215-.042 4.488-.758 9.52 5.178 11.32 13.431z"/></g></g><g opacity=".2"><path d="M317.429 65.786c.325 1.492-.044 2.839-.826 3.009-.781.171-1.678-.9-2.003-2.392-.325-1.491.044-2.838.826-3.009.78-.17 1.678.901 2.003 2.392z"/></g><g><path fill="#407bff" d="M299.62 70.169a.5.5 0 0 1-.183-.965l15.804-6.275a.502.502 0 0 1 .369.93l-12.983 5.155 13.95-.718a.5.5 0 0 1 .051.998l-16.98.874z"/></g><g><path fill="#407bff" d="M299.62 70.169a.499.499 0 0 1-.486-.394.499.499 0 0 1 .382-.595l17.807-3.882a.5.5 0 0 1 .212.977l-17.807 3.882a.428.428 0 0 1-.107.012z"/></g><g><path fill="#407bff" d="M299.622 69.669a.426.426 0 1 1-.832.182.426.426 0 0 1 .832-.182z"/></g><g><g><path fill="#407bff" d="M335.11 78.843l5.117-15.112 27.348 32.152-7.992 20.256z"/></g><g opacity=".7"><path fill="#fff" d="M367.575 95.884l-3.806 9.644-.181.462-4.005 10.15-6.719-10.24-.278-.428-5.722-8.716-.29-.443-6.06-9.238-.29-.439-5.115-7.795 2.038-6.015.163-.485 2.917-8.612 6.175 7.26.314.368 6.584 7.744.319.37 7.017 8.254.309.364z"/></g><g opacity=".2"><g opacity=".2"><path d="M360.945 88.089l-.31-.364-4.011 8.842-6.502-8.154 3.497-8.941-.32-.371-3.486 8.926-6.473-8.12 3.376-8.55-.314-.368-3.371 8.531-5.72-7.179-.164.485 5.703 7.156-2.625 6.654.29.44 2.644-6.707 6.473 8.12-3.058 7.824.29.443 3.078-7.876 6.483 8.127-3.84 8.465.279.428 3.864-8.514 6.86 8.604.18-.462-6.841-8.582z"/></g></g></g></g></g><g><g><g><g><path fill="#407bff" d="M346.475 246.59c.21 1.471-3.776 2.438-7.028 2.98.266 2.67 2.042 5.367 4.494 7.886 3.085-1.738 7.49-4.036 8.302-3.475.886.613-3.625 3.53-6.445 5.244 1.984 1.761 4.218 3.402 6.389 4.84 1.383-1.292 3.003-2.426 3.967-1.812 1 .637.73 2.635.236 4.42 3.357 1.956 5.87 3.147 5.87 3.147s1.409-4.271 2.242-9.53a19.222 19.222 0 0 1-.492-1.029c-.54-1.251-.014-1.783.88-1.959.23-2.302.297-4.669.055-6.866-3.8-.796-8.42-2.271-6.688-4.55 1.043-1.374 2.953-1.529 4.94-1.185a8.24 8.24 0 0 0-.937-1.278c-6.914-7.619-11.737 0-11.737 0-4.02-3.349-9.662-2.443-10.882 2.79 2.256-.579 6.575-1.439 6.834.377z"/></g><g opacity=".3"><path fill="#fff" d="M346.475 246.59c.21 1.471-3.776 2.438-7.028 2.98.266 2.67 2.042 5.367 4.494 7.886 3.085-1.738 7.49-4.036 8.302-3.475.886.613-3.625 3.53-6.445 5.244 1.984 1.761 4.218 3.402 6.389 4.84 1.383-1.292 3.003-2.426 3.967-1.812 1 .637.73 2.635.236 4.42 3.357 1.956 5.87 3.147 5.87 3.147s1.409-4.271 2.242-9.53a19.222 19.222 0 0 1-.492-1.029c-.54-1.251-.014-1.783.88-1.959.23-2.302.297-4.669.055-6.866-3.8-.796-8.42-2.271-6.688-4.55 1.043-1.374 2.953-1.529 4.94-1.185a8.24 8.24 0 0 0-.937-1.278c-6.914-7.619-11.737 0-11.737 0-4.02-3.349-9.662-2.443-10.882 2.79 2.256-.579 6.575-1.439 6.834.377z"/></g></g><g><g><g><path fill="#407bff" d="M355.102 302.577l-.997-.082c.042-.515 4.094-51.526-7.355-56.334-1.23-.517-2.365-.489-3.47.086-4.136 2.152-6.118 11.082-6.138 11.173l-.977-.212c.084-.386 2.102-9.479 6.653-11.847 1.367-.711 2.82-.752 4.32-.122 12.11 5.087 8.139 55.207 7.964 57.338z"/></g></g><g><g><path fill="#407bff" d="M356.545 301.471c-.203-2.295-4.876-56.268 3.862-61.997 2.095-1.373 3.96-1.667 5.549-.863 4.129 2.082 4.67 10.91 4.692 11.284l-.998.057c-.005-.086-.53-8.626-4.145-10.45-1.244-.625-2.775-.356-4.55.808-8.242 5.405-3.463 60.517-3.414 61.073z"/></g></g><g><g><path fill="#407bff" d="M357.858 305.834c-.065-1.756-1.504-43.071 6.452-46.687 1.573-.715 3.166-.728 4.733-.038 5.46 2.402 8.83 12.577 8.973 13.01l-.952.31c-.032-.102-3.373-10.183-8.424-12.405-1.313-.576-2.595-.567-3.915.033-6.102 2.773-6.304 33.958-5.868 45.74z"/></g></g><g><g><path fill="#407bff" d="M355.833 303.945l-.993-.113c1.402-12.296 4.083-45.062-.297-48.97-.653-.584-1.238-.764-1.791-.554-2.935 1.126-4.722 11.783-5.163 15.795l-.994-.109c.169-1.539 1.769-15.074 5.798-16.62.923-.353 1.869-.105 2.816.742 5.66 5.05.833 48.003.624 49.829z"/></g></g></g><g><g><path fill="#263238" d="M339.146 280.634h35.927l-3 40.244h-29.927z"/></g></g><g><g><path fill="#407bff" d="M344.04 265.866c-.375.979-3.165.209-5.356-.57-.752 1.736-.581 4.008.068 6.403 2.499-.015 6.003.078 6.31.703.337.682-3.444.934-5.771 1.024.62 1.767 1.434 3.544 2.28 5.176 1.296-.323 2.684-.467 3.069.242.398.736-.454 1.876-1.37 2.807a61.001 61.001 0 0 0 2.54 3.953s2.334-2.151 4.65-5.108c.01-.264.023-.53.05-.804.096-.957.603-1.104 1.214-.906.932-1.341 1.784-2.778 2.388-4.216-2.07-1.793-4.413-4.287-2.565-5.099 1.115-.489 2.346.07 3.454.963a5.853 5.853 0 0 0-.14-1.11c-1.653-7.069-7.24-4.024-7.24-4.024-1.33-3.442-5.12-4.818-7.666-2.009 1.589.417 4.548 1.366 4.085 2.575z"/></g><g opacity=".3"><path fill="#fff" d="M344.04 265.866c-.375.979-3.165.209-5.356-.57-.752 1.736-.581 4.008.068 6.403 2.499-.015 6.003.078 6.31.703.337.682-3.444.934-5.771 1.024.62 1.767 1.434 3.544 2.28 5.176 1.296-.323 2.684-.467 3.069.242.398.736-.454 1.876-1.37 2.807a61.001 61.001 0 0 0 2.54 3.953s2.334-2.151 4.65-5.108c.01-.264.023-.53.05-.804.096-.957.603-1.104 1.214-.906.932-1.341 1.784-2.778 2.388-4.216-2.07-1.793-4.413-4.287-2.565-5.099 1.115-.489 2.346.07 3.454.963a5.853 5.853 0 0 0-.14-1.11c-1.653-7.069-7.24-4.024-7.24-4.024-1.33-3.442-5.12-4.818-7.666-2.009 1.589.417 4.548 1.366 4.085 2.575z"/></g></g><g><g><path fill="#407bff" d="M370.716 270.644c-1.134.084-2.221.344-3.284.692-.276-.76-.457-1.55-.483-2.378-.228-7.246 4.958-4.19 7.699-6.319 1.367-1.062 3.04-1.744 4.586-1.438-.232.399-.443.812-.62 1.24-.287.694.165 1.417.877 1.55.669.125 1.42.068 2.035-.241.192-.096.352-.236.523-.362.383.646.722 1.439.995 2.423a13.89 13.89 0 0 1 .469 3.099c-.408.091-.813.2-1.212.342-.624.221-.956 1.217-.454 1.722a5.17 5.17 0 0 0 1.495 1.049c-.18 1.194-.511 2.325-.912 3.396-.123.02-.246.033-.37.057-.263.052-.522.12-.781.193a2.888 2.888 0 0 0-.434.159c-.36.17-.62.477-.677.879-.056.395.109.804.427 1.046.168.129.354.23.539.332-.826 1.307-1.803 2.343-2.87 2.895 0 0-1.322-.576-3.053-1.613.217-.29.433-.58.635-.879a1.7 1.7 0 0 0 .307-1.138c-.034-.409-.282-.766-.587-1.023-.294-.247-.764-.356-1.138-.307-.366.047-.811.272-1.022.587-.241.357-.506.696-.768 1.038-1.323-.998-2.64-2.203-3.68-3.574l.11-.032a11.381 11.381 0 0 1 2.043-.339c.86-.064 1.397-.931 1.33-1.726-.073-.861-.923-1.389-1.725-1.33z"/></g><g opacity=".5"><path fill="#fff" d="M370.716 270.644c-1.134.084-2.221.344-3.284.692-.276-.76-.457-1.55-.483-2.378-.228-7.246 4.958-4.19 7.699-6.319 1.367-1.062 3.04-1.744 4.586-1.438-.232.399-.443.812-.62 1.24-.287.694.165 1.417.877 1.55.669.125 1.42.068 2.035-.241.192-.096.352-.236.523-.362.383.646.722 1.439.995 2.423a13.89 13.89 0 0 1 .469 3.099c-.408.091-.813.2-1.212.342-.624.221-.956 1.217-.454 1.722a5.17 5.17 0 0 0 1.495 1.049c-.18 1.194-.511 2.325-.912 3.396-.123.02-.246.033-.37.057-.263.052-.522.12-.781.193a2.888 2.888 0 0 0-.434.159c-.36.17-.62.477-.677.879-.056.395.109.804.427 1.046.168.129.354.23.539.332-.826 1.307-1.803 2.343-2.87 2.895 0 0-1.322-.576-3.053-1.613.217-.29.433-.58.635-.879a1.7 1.7 0 0 0 .307-1.138c-.034-.409-.282-.766-.587-1.023-.294-.247-.764-.356-1.138-.307-.366.047-.811.272-1.022.587-.241.357-.506.696-.768 1.038-1.323-.998-2.64-2.203-3.68-3.574l.11-.032a11.381 11.381 0 0 1 2.043-.339c.86-.064 1.397-.931 1.33-1.726-.073-.861-.923-1.389-1.725-1.33z"/></g></g><g><g><path fill="#407bff" d="M372.789 245.663c.632-.454 1.317-.794 2.028-1.078a5.231 5.231 0 0 0-.79-1.461c-3.06-3.907-4.443-.025-6.817.059-1.184.042-2.364.419-3.04 1.257.297.109.588.232.87.38.455.238.535.817.219 1.199-.296.359-.716.658-1.175.766-.143.034-.288.031-.433.04.082.507.252 1.072.54 1.709a9.523 9.523 0 0 0 1.114 1.834c.255-.131.515-.252.787-.352.425-.158 1.036.22.994.705a3.542 3.542 0 0 1-.325 1.208 11.53 11.53 0 0 0 1.97 1.383c.073-.043.144-.091.218-.132.162-.088.328-.167.496-.241.097-.043.196-.081.298-.107a.786.786 0 0 1 .74.164c.204.183.297.47.236.737-.032.141-.085.276-.137.411 1.007.324 1.975.439 2.778.261 0 0 .442-.883.896-2.187a14.532 14.532 0 0 1-.72-.184 1.156 1.156 0 0 1-.66-.463c-.162-.23-.188-.526-.141-.794.046-.26.245-.522.463-.661.213-.136.545-.213.795-.141.283.083.57.145.858.209.258-1.105.42-2.316.365-3.492l-.072.031a7.84 7.84 0 0 0-1.222.718c-.48.344-1.142.124-1.456-.323-.34-.484-.125-1.135.323-1.455z"/></g><g opacity=".3"><path fill="#fff" d="M372.789 245.663c.632-.454 1.317-.794 2.028-1.078a5.231 5.231 0 0 0-.79-1.461c-3.06-3.907-4.443-.025-6.817.059-1.184.042-2.364.419-3.04 1.257.297.109.588.232.87.38.455.238.535.817.219 1.199-.296.359-.716.658-1.175.766-.143.034-.288.031-.433.04.082.507.252 1.072.54 1.709a9.523 9.523 0 0 0 1.114 1.834c.255-.131.515-.252.787-.352.425-.158 1.036.22.994.705a3.542 3.542 0 0 1-.325 1.208 11.53 11.53 0 0 0 1.97 1.383c.073-.043.144-.091.218-.132.162-.088.328-.167.496-.241.097-.043.196-.081.298-.107a.786.786 0 0 1 .74.164c.204.183.297.47.236.737-.032.141-.085.276-.137.411 1.007.324 1.975.439 2.778.261 0 0 .442-.883.896-2.187a14.532 14.532 0 0 1-.72-.184 1.156 1.156 0 0 1-.66-.463c-.162-.23-.188-.526-.141-.794.046-.26.245-.522.463-.661.213-.136.545-.213.795-.141.283.083.57.145.858.209.258-1.105.42-2.316.365-3.492l-.072.031a7.84 7.84 0 0 0-1.222.718c-.48.344-1.142.124-1.456-.323-.34-.484-.125-1.135.323-1.455z"/></g></g><g><g><path fill="#407bff" d="M343.517 252.915c-.21 1.47 3.776 2.438 7.027 2.98-.265 2.669-2.041 5.367-4.493 7.886-3.086-1.739-7.49-4.036-8.302-3.475-.886.613 3.625 3.529 6.445 5.244-1.985 1.761-4.218 3.402-6.39 4.84-1.382-1.293-3.002-2.427-3.966-1.813-1.001.637-.73 2.636-.236 4.42-3.357 1.957-5.87 3.147-5.87 3.147s-1.41-4.271-2.242-9.529c.169-.334.337-.672.492-1.029.54-1.252.013-1.784-.88-1.96-.231-2.302-.297-4.669-.055-6.865 3.799-.797 8.418-2.272 6.688-4.55-1.043-1.374-2.954-1.53-4.941-1.186.278-.458.585-.889.938-1.278 6.914-7.618 11.737 0 11.737 0 4.018-3.348 9.662-2.442 10.882 2.79-2.257-.578-6.575-1.438-6.834.378z"/></g><g opacity=".5"><path fill="#fff" d="M343.517 252.915c-.21 1.47 3.776 2.438 7.027 2.98-.265 2.669-2.041 5.367-4.493 7.886-3.086-1.739-7.49-4.036-8.302-3.475-.886.613 3.625 3.529 6.445 5.244-1.985 1.761-4.218 3.402-6.39 4.84-1.382-1.293-3.002-2.427-3.966-1.813-1.001.637-.73 2.636-.236 4.42-3.357 1.957-5.87 3.147-5.87 3.147s-1.41-4.271-2.242-9.529c.169-.334.337-.672.492-1.029.54-1.252.013-1.784-.88-1.96-.231-2.302-.297-4.669-.055-6.865 3.799-.797 8.418-2.272 6.688-4.55-1.043-1.374-2.954-1.53-4.941-1.186.278-.458.585-.889.938-1.278 6.914-7.618 11.737 0 11.737 0 4.018-3.348 9.662-2.442 10.882 2.79-2.257-.578-6.575-1.438-6.834.378z"/></g></g></g></g><g><g><g><g><path fill="#407bff" d="M58.648 209.913c-.294 0-.588-.112-.812-.336-8.484-8.484-22.287-8.484-30.771 0a1.149 1.149 0 1 1-1.624-1.625c9.378-9.379 24.64-9.38 34.02 0a1.149 1.149 0 0 1-.813 1.961z"/></g></g><g><g><path fill="#407bff" d="M53.899 214.663c-.294 0-.588-.113-.812-.337-5.866-5.864-15.408-5.864-21.272 0a1.149 1.149 0 1 1-1.625-1.625c6.76-6.76 17.76-6.76 24.522 0a1.15 1.15 0 0 1-.813 1.962z"/></g></g><g><g><path fill="#407bff" d="M48.539 220.023c-.294 0-.588-.113-.812-.337-2.91-2.909-7.643-2.909-10.552 0a1.149 1.149 0 1 1-1.625-1.625c3.805-3.804 9.996-3.806 13.802 0a1.149 1.149 0 0 1-.813 1.962z"/></g></g><g><g><path fill="#407bff" d="M39.936 224.962a2.515 2.515 0 1 1 5.03 0 2.515 2.515 0 0 1-5.03 0z"/></g></g></g></g><g><g><g><g><path fill="#263238" d="M46.664 266.943l-6.667-24.85-1.76.606 4.214 24.851s1.94 1.818 4.213-.607z"/></g><g opacity=".4"><path fill="#fff" d="M46.667 266.947c-2.275 2.421-4.213.605-4.213.605l-4.152-24.506-.061-.344 1.754-.606z"/></g><g opacity=".2"><path fill="#fff" d="M42.454 267.552l-4.217-24.853 1.273-.13 5.41 23.604s.139 1.456-2.466 1.379z"/></g></g><g><g><path fill="#407bff" d="M38.02 320.878h2.714l2.298-44.505H38.02z"/></g><g opacity=".2"><path fill="#fff" d="M38.02 320.878h2.714l2.298-44.505H38.02z"/></g><g><path fill="#407bff" d="M49.16 320.878h-2.714l-2.298-44.505h5.013z"/></g><g><path fill="#407bff" d="M72.142 320.878h-2.714l-9.959-44.505h5.013z"/></g><g><path fill="#407bff" d="M15.038 320.878h2.715l9.958-44.505h-5.013z"/></g><g opacity=".4"><path fill="#fff" d="M72.142 320.878h-2.714l-9.959-44.505h5.013z"/></g><g opacity=".4"><path fill="#fff" d="M15.038 320.878h2.715l9.958-44.505h-5.013z"/></g><g opacity=".6"><path fill="#fff" d="M49.16 320.878h-2.714l-2.298-44.505h5.013z"/></g><g><path fill="#407bff" d="M21.133 278.27a1.886 1.886 0 0 1-1.886-1.887v-3.13c0-1.042.844-1.886 1.886-1.886h44.914c1.042 0 1.886.844 1.886 1.886v3.13a1.886 1.886 0 0 1-1.886 1.886z"/></g><g opacity=".7"><path fill="#fff" d="M21.133 278.27a1.886 1.886 0 0 1-1.886-1.887v-3.13c0-1.042.844-1.886 1.886-1.886h44.914c1.042 0 1.886.844 1.886 1.886v3.13a1.886 1.886 0 0 1-1.886 1.886z"/></g></g><g><path fill="#263238" d="M58.133 269.265v2.099H26.77v-4.52s4.397-3.033 5.455-3.033c1.064 0 14.486.054 18.385 1.088 3.89 1.034 7.522 4.366 7.522 4.366z"/></g><g opacity=".2"><path fill="#fff" d="M58.133 269.265v.759H43.785s-.804-1.211-1.332-1.364c-.53-.153-15.682-1.816-15.682-1.816s4.397-3.033 5.455-3.033c1.064 0 14.486.054 18.385 1.088 3.89 1.034 7.522 4.366 7.522 4.366z"/></g><g><g><path fill="#263238" d="M29.802 268.358l-6.668-24.851-1.76.606 4.214 24.851s1.94 1.818 4.214-.606z"/></g><g opacity=".4"><path fill="#fff" d="M29.805 268.361c-2.275 2.421-4.214.606-4.214.606l-4.151-24.506-.062-.345 1.755-.605z"/></g><g opacity=".2"><path fill="#fff" d="M25.59 268.967l-4.215-24.854 1.273-.13 5.41 23.605s.138 1.455-2.467 1.379z"/></g></g></g></g><g><g><g><g><path fill="#ebb376" d="M300.379 118.987l10.307 19.248 21.109-1.23s-.784 1.505-1.94 3.143c-1.156 1.637-6.165 2.408-6.646 2.023-.482-.386-2.023-1.223-2.023-1.223s-15.22 2.86-17.147 2.667c-1.926-.192-7.995-20.682-7.995-20.682z"/></g><g opacity=".2"><path d="M331.799 137.003s-.79 1.51-1.94 3.14c-1.16 1.64-6.17 2.41-6.65 2.03-.48-.39-2.02-1.23-2.02-1.23s-15.22 2.87-17.15 2.67c-.75-.07-2.12-3.2-3.51-6.99-2.21-6-4.48-13.69-4.48-13.69l4.33-3.95 4 7.47 6.31 11.78z"/></g></g><g opacity=".2"><path d="M304.379 126.453c-.24 3.88-1.21 7.78-3.73 10.07-.04.04-.08.07-.12.1-2.21-6-4.48-13.69-4.48-13.69l4.33-3.95z"/></g><g><g><path fill="#407bff" d="M253.188 162.667l51.74-3.894s-11.548-39.069-14.98-44.078c-3.43-5.009-14.987-9.68-14.987-9.68l-14.49 2.904z"/></g><g opacity=".2"><path d="M253.188 162.667l51.74-3.894s-11.548-39.069-14.98-44.078c-3.43-5.009-14.987-9.68-14.987-9.68l-14.49 2.904z"/></g></g><g><g><path fill="#407bff" d="M290.182 104.314c2.587.577 13.857 15.914 13.857 15.914l-7.9 6.839z"/></g><g opacity=".2"><path fill="#fff" d="M290.182 104.314c2.587.577 13.857 15.914 13.857 15.914l-7.9 6.839z"/></g></g><g><g><path fill="#407bff" d="M261.035 152.315h37.817c3.596 19.635 14.85 99.365 6.776 161.274h-12.802s1.185-94.022-10.12-124.406c-1.3 16.26-14.515 124.342-14.515 124.342h-13.034s1.947-40.658 3.897-79.063c1.229-24.183 1.929-77.182 1.98-82.147z"/></g><g opacity=".6"><path fill="#fff" d="M261.035 152.315h37.817c3.596 19.635 14.85 99.365 6.776 161.274h-12.802s1.185-94.022-10.12-124.406c-1.3 16.26-14.515 124.342-14.515 124.342h-13.034s1.947-40.658 3.897-79.063c1.229-24.183 1.929-77.182 1.98-82.147z"/></g><g opacity=".2"><path d="M282.71 189.186c1.668 4.477 3.055 10.07 4.225 16.36 1.057-14.47-3.173-29.817-3.173-29.817z"/></g></g><g><path fill="#263238" d="M265.626 312.766h-8.656a.625.625 0 0 0-.607.489l-1.405 6.345a1.051 1.051 0 0 0 1.042 1.269c2.8-.045 4.84-.218 8.357-.218 2.166 0 8.7.227 11.692.227 2.99 0 3.38-2.955 2.157-3.227-5.492-1.196-9.626-2.855-11.384-4.432a1.723 1.723 0 0 0-1.196-.453z"/></g><g><path fill="#263238" d="M302.333 312.539h-8.655a.627.627 0 0 0-.608.49l-1.404 6.345a1.052 1.052 0 0 0 1.042 1.268c2.8-.045 4.84-.217 8.357-.217 2.166 0 8.7.226 11.692.226 2.99 0 3.38-2.954 2.157-3.226-5.493-1.197-9.626-2.855-11.384-4.432a1.724 1.724 0 0 0-1.197-.454z"/></g><g><g><path d="M293.959 156.9l5.696-.068-.485-4.064h-5.211z"/></g><g><path d="M273.339 152.768h-12.236v4.532l12.236-.149z"/></g><g><path d="M274.698 157.135l17.901-.218v-4.149h-17.9z"/></g></g><g transform="rotate(180 285 154.5)"><path fill="#fff" d="M281.82 157.048v-5.073h7.04v5.073z"/></g><g><path fill="#263238" d="M261.103 152.768h38.068s.485-27.166-8.99-48.454l-40.02 6.07a2.756 2.756 0 0 0-2.076 3.909c3.118 6.558 9.843 21.918 13.018 38.475z"/></g><g><path fill="#ebb376" d="M273.516 110.452s-7.957 1.451-11.357-1.373c1.539-1.841 1.792-5.007 1.47-8.308-.233-2.387-.76-4.841-1.324-6.916a44.169 44.169 0 0 0-.594-2.026l10.218 6.886-.06.478c-.048.467-.096.944-.106 1.412-.04 1.188.068 2.337.448 3.35.37.936.409 1.637.847 2.124.36.419 1.013.691 2.367.847 1.12 1.52-1.91 3.526-1.91 3.526z"/></g><g opacity=".2"><path d="M273.058 106.079c-2.883-.555-6.74-1.987-9.428-5.308-.234-2.387-.76-4.841-1.325-6.916l9.565 5.338c-.05.467-.097.944-.107 1.412-.04 1.188.068 2.337.448 3.35.37.936.409 1.637.847 2.124z"/></g><g><g><path fill="#263238" d="M259.932 92.845s-2.372.895-2.926-.465c-.554-1.36.313-3.287-.746-3.769-1.06-.481-3.468-.777-3.18-2.122.29-1.346 1.928-2.27.964-3.253-.963-.982-2.986-2.427-1.926-3.391 1.059-.963 2.119-2.62 1.348-3.333-.77-.713.675-4.215 2.794-3.764 2.119.451 1.926-1.326 2.023-2.846.096-1.52 3.42-2.534 4.022-.919.6 1.615 2.432-.183 3.01-1.5.578-1.316 1.553-1.702 3.377-.546 1.825 1.156 1.79 4.399 2.963 2.633 1.174-1.766 3.485-2.729 4.449-1.573.963 1.156.19 2.408 1.878 2.505 1.686.096 3.709 3.365 2.842 3.753-.867.389-.837 1.236.207 2.257 1.045 1.021 2.2 2.647.66 3.18-1.542.533-1.558 1.598-1.164 2.08.393.482-1.135 2.477-3.116 2.154-1.982-.324-17.48 8.919-17.48 8.919z"/></g><g><path fill="#263238" d="M279.296 75.371s2.888 9.361-1.645 13.806c-4.534 4.444-7.2-13.388-7.2-13.388z"/></g><g><path fill="#ebb376" d="M264.028 98.997c2.997 3.176 7.159 3.504 10.486 1.876a9.787 9.787 0 0 0 4.854-5.327c.125-.317.229-.649.322-.988 1.628-6.228.893-16.586-5.87-19.499-4.81-2.11-10.43.077-12.54 4.894a9.46 9.46 0 0 0-.794 4.359c.262 6.957.089 11.06 3.542 14.685z"/></g><g><path fill="#263238" d="M271.009 86.477c-.051.561.275 1.03.65 1.038.378.007.679-.45.695-1.015.015-.564-.284-1.031-.651-1.037-.367-.007-.677.441-.694 1.014z"/></g><g><path fill="#263238" d="M277.416 86.61c-.051.561.283 1.031.65 1.037.369.007.679-.45.695-1.014.015-.564-.284-1.031-.651-1.037-.368-.007-.681.476-.694 1.014z"/></g><g><path fill="#d58745" d="M275.375 86.847a20.154 20.154 0 0 0 2.607 4.904c-.8.547-1.801.713-2.735.452z"/></g><g><path fill="#263238" d="M279.812 84.028a.35.35 0 0 1-.346-.038 2.684 2.684 0 0 0-2.353-.496.33.33 0 1 1-.224-.623 3.301 3.301 0 0 1 2.975.587.33.33 0 0 1 .077.461l-.004.007a.559.559 0 0 1-.125.102z"/></g><g><path fill="#263238" d="M269.802 83.904a.325.325 0 0 1-.185-.068.332.332 0 0 1 .034-.467l.006-.005a3.299 3.299 0 0 1 2.953-.723.33.33 0 0 1 .219.413v.001a.34.34 0 0 1-.414.219 2.684 2.684 0 0 0-2.33.61.338.338 0 0 1-.283.02z"/></g><g><path fill="#263238" d="M265.773 75.735l.64 1.303c-2.277.813-1.751 3.469-1.255 4.665 1.06 2.554-.296 6.595-2.233 8.244 0 0-.092-1.117-1.027-.826-.936.29-.52 6.104 1.395 8.831 0 0-2.85-2.436-4.586-8.505-1.605-5.612-1.913-10.317-.81-12.535z"/></g><g><path fill="#ebb376" d="M257.327 89.955a6.623 6.623 0 0 0 3.726 3.428c2.186.785 3.446-1.133 2.984-3.286-.43-1.91-2.071-4.683-4.338-4.517-2.267.166-3.255 2.411-2.372 4.375z"/></g><g><path fill="#263238" d="M265.175 101.821c3.253 2.377 9.652 3.253 12.886-.869 3.235-4.122 2.357-10.84 2.357-10.84-.563 2.342-2.095 4.055-2.095 4.055-1.724-2.174-4.784-1.034-4.784-1.034s-1.082-1.496-2.546-1.67c-1.463-.175-5.566-.013-5.566-.013-1.312-.86-1.286-4.607-1.286-4.607l-.82.653s-1.398 11.948 1.854 14.325z"/></g><g opacity=".2"><path fill="#fff" d="M265.175 101.821c3.253 2.377 9.652 3.253 12.886-.869 3.235-4.122 2.357-10.84 2.357-10.84-.563 2.342-2.095 4.055-2.095 4.055-1.724-2.174-4.784-1.034-4.784-1.034s-1.082-1.496-2.546-1.67c-1.463-.175-5.566-.013-5.566-.013-1.312-.86-1.286-4.607-1.286-4.607l-.82.653s-1.398 11.948 1.854 14.325z"/></g><g><g><path fill="#263238" d="M273.83 95.289c-.72.833-1.676 2.508-1.676 2.508a9.602 9.602 0 0 1-.5-.187c-2.248-.861-3.007-2.004-3.166-3.01-.085-.55.017-1.064.152-1.462.15-.463.365-.758.365-.758.919 1.169 2.954 2.134 4.062 2.603.462.202.763.306.763.306z"/></g><g><path fill="#fff" d="M273.067 94.983l-.513.727c-2.116-.817-3.497-1.676-3.914-2.572.15-.463.365-.758.365-.758.919 1.169 2.954 2.134 4.062 2.603z"/></g><g><path fill="#de5753" d="M271.655 97.61c-2.25-.861-3.008-2.004-3.167-3.01.755.323 1.63.797 2.308 1.452a2.91 2.91 0 0 1 .859 1.558z"/></g></g><g><path fill="#263238" d="M271.19 72.139s3.734.379 5.48 2.116c1.745 1.737 2.79 4.284 2.09 4.435-.7.149-2.553-1.157-3.086-.964-.534.193-.826 3.162-2.607 1.966-1.78-1.195-.72-1.08-2.213-1.619-1.494-.54-2.54 1.291-3.172 1.098-.633-.192-1.268-.771-1.268-.771s2.092-.471 2.278-1.102c.187-.631 2.162-.786 2.162-.786s-2.346-1.064-3.172-.455c-.826.61-.533 2.15-2.51 1.91-1.977-.241-5.228 1.198-5.288-1.352-.06-2.549 6.97-6.595 11.306-4.476z"/></g></g><g><path fill="#407bff" d="M266.419 107.923s-.61 45.23-11.26 62.38l-11.61-5.78s5.92-12.85 6.89-27.92c.37-5.78.01-11.89-1.69-17.73-.48-1.66-1.07-3.3-1.79-4.9-.69-1.55.92-3.24 2.61-3.5z"/></g><g><g><path fill="#407bff" d="M257.243 106.079l9.171 1.84-2.282 7.671-8.975-5.963z"/></g><g opacity=".2"><path fill="#fff" d="M257.243 106.079l9.171 1.84-2.282 7.671-8.975-5.963z"/></g></g><g><path fill="#407bff" d="M277.39 105.422l3.612 5.19s10.322 4.978 22.074 55.202l6.483-5.429s-14.16-52.248-19.377-56.071z"/></g><g><g><path fill="#407bff" d="M274.96 105.015l6.042 5.597-2.185-5.75-2.19-1.293z"/></g><g opacity=".2"><path fill="#fff" d="M274.96 105.015l6.042 5.597-2.185-5.75-2.19-1.293z"/></g></g><g><g><path fill="#263238" d="M273.579 87.043c0 1.264-.874 2.292-1.948 2.292-1.075 0-1.95-1.028-1.95-2.292 0-1.264.875-2.292 1.95-2.292 1.074 0 1.948 1.028 1.948 2.292zm.5 0c0-1.54-1.098-2.792-2.448-2.792-1.35 0-2.45 1.252-2.45 2.792 0 1.54 1.1 2.792 2.45 2.792s2.448-1.252 2.448-2.792z"/></g><g><path fill="#263238" d="M280.285 86.846c0 1.264-.874 2.292-1.95 2.292-1.073 0-1.948-1.028-1.948-2.292 0-1.263.875-2.292 1.949-2.292 1.075 0 1.949 1.029 1.949 2.292zm.5 0c0-1.539-1.1-2.792-2.45-2.792s-2.448 1.253-2.448 2.792c0 1.54 1.099 2.792 2.449 2.792 1.35 0 2.449-1.252 2.449-2.792z"/></g><g><path fill="#263238" d="M273.973 87.248l-.287-.41c.06-.042 1.499-1.028 2.602-.191l-.301.399c-.815-.618-2.003.194-2.014.202z"/></g><g transform="rotate(-78.52 266 86.5)"><path fill="#263238" d="M265.618 89.955v-7.272h.5v7.272z"/></g></g><g opacity=".2"><path d="M261.709 133.933s-5.72 3.65-11.27 2.67c.37-5.78.01-11.89-1.69-17.73.5-.83.84-1.32.84-1.32z"/></g><g><path fill="#ebb376" d="M258.508 118.987s9.324 13.101 10.184 14c.86.899 22.953 0 22.953 0s3.082-2.183 3.468-2.44c.385-.257 9.226-.514 9.815-.257.588.257-.311 6.031-.953 6.676-.642.645-8.046 1.587-8.862 1.269-.817-.318-2.191-.184-2.191-.184s-24.166 2.164-26.508 1.28c-2.342-.885-11.83-10.79-11.83-10.79z"/></g><g><g><path fill="#407bff" d="M247.05 111.314c-6.936 4.641 6.293 24.093 6.293 24.093l10.789-9.925s-9.487-19.25-17.082-14.168z"/></g><g opacity=".2"><path fill="#fff" d="M247.05 111.314c-6.936 4.641 6.293 24.093 6.293 24.093l10.789-9.925s-9.487-19.25-17.082-14.168z"/></g></g><g><g><g><path fill="#263238" d="M289.949 138.344l.117 1.196c.08.806.824 1.481 1.636 1.402l44.11-4.332c.813-.08 1.524-.897 1.444-1.704l-.117-1.196z"/></g><g opacity=".2"><path fill="#fff" d="M289.949 138.344l.117 1.196c.08.806.824 1.481 1.636 1.402l44.11-4.332c.813-.08 1.524-.897 1.444-1.704l-.117-1.196z"/></g><g opacity=".2"><path fill="#fff" d="M306.41 136.727l.118 1.196c.079.807.834 1.481 1.64 1.401l27.645-2.714c.812-.08 1.523-.897 1.443-1.704l-.117-1.196z"/></g></g><g><g><path fill="#263238" d="M308.06 138.227l29.143-2.862c.895-.087 1.775-.883 1.965-1.771l4.625-21.621c.189-.888-.384-1.593-1.278-1.506l-29.143 2.862c-.894.088-1.77.936-1.96 1.824l-4.627 21.594c-.19.888.382 1.568 1.276 1.48z"/></g><g opacity=".2"><path fill="#fff" d="M308.06 138.227l29.143-2.862c.895-.087 1.775-.883 1.965-1.771l4.625-21.621c.189-.888-.384-1.593-1.278-1.506l-29.143 2.862c-.894.088-1.77.936-1.96 1.824l-4.627 21.594c-.19.888.382 1.568 1.276 1.48z"/></g><g opacity=".2"><path fill="#fff" d="M309.158 138.119l28.045-2.754c.895-.087 1.775-.883 1.965-1.771l4.625-21.621c.189-.888-.384-1.593-1.278-1.506l-28.045 2.754c-.895.088-1.77.936-1.96 1.824l-4.627 21.594c-.19.889.38 1.568 1.275 1.48z"/></g></g><g opacity=".2"><path fill="#fff" d="M323.634 125.333c-.222 1.432.584 2.496 1.8 2.377 1.218-.12 2.385-1.377 2.607-2.81.222-1.432-.584-2.495-1.8-2.376-1.217.119-2.384 1.377-2.607 2.809z"/></g></g></g></g><g><g><g><path fill="#e4897b" d="M178.314 83.016l6.444-1.268s.086-1.615.495-2.293c.409-.678 4.479-3.994 4.93-4.173.453-.179 3.059 1.036 3.806 2.308.747 1.272-4.975 7.492-5.401 7.63-.426.139-2.87-.612-2.87-.612l-6.556 1.841z"/></g><g><path fill="#407bff" d="M180.72 101.544s-12.705-5.42-12.284-7.86c.42-2.441 16.409-7.957 16.409-7.957l-.704-4.361s-19.78 1.442-24.532 6.944c-4.752 5.502 2.413 15.243 17.968 24.437l5.793-4.127z"/></g><g opacity=".4"><path fill="#fff" d="M180.723 101.547l2.65 7.071-1.861 1.325-3.935 2.805c-3.077-1.821-5.814-3.653-8.21-5.474-9.711-7.402-13.578-14.552-9.76-18.964 4.753-5.503 24.535-6.944 24.535-6.944l.7 4.363s-15.982 5.513-16.411 7.958c-.418 2.435 12.292 7.86 12.292 7.86z"/></g><g opacity=".2"><path d="M181.512 109.943l-3.935 2.805c-3.077-1.821-5.814-3.653-8.21-5.474 3.175-1.247 9.447.448 9.447.448 1.169.779 2.065 1.519 2.698 2.221z"/></g><g><path fill="#eec1bb" d="M200.43 305.469l-6.3 3.627-7.558-13.707 6.3-3.627z"/></g><g><path fill="#263238" d="M193.363 308.285l7.005-4.456a.599.599 0 0 1 .758.062l4.224 4.394a1.052 1.052 0 0 1-.294 1.604c-2.442 1.498-3.77 2.175-6.818 4.109-1.871 1.185-9.803 5.454-12.735 5.659-2.932.205-3.262-2.567-2.068-3.012 6.025-2.246 8.369-5.116 9.135-7.371.148-.408.427-.756.793-.989z"/></g><g opacity=".2"><path d="M192.873 291.762l-6.301 3.627 3.904 7.068 6.3-3.628z"/></g><g><path fill="#263238" d="M175.284 144.659s-20.626 68.373-19.494 88.692c1.238 22.281 31.192 69.15 31.192 69.15l11.292-7.13s-21.158-46.183-21.951-63.276c1.168-24.741 26.885-84.829 26.885-84.829z"/></g><g opacity=".2"><path d="M191.652 168.684c-6.238 3.815-8.707 20.089-7.388 28.35 3.369-10.463 7.219-20.774 10.303-28.68a2.918 2.918 0 0 0-2.915.33z"/></g><g><path fill="#407bff" d="M185.734 303.588l13.306-8.43-2.183-3.753-13.957 8.512z"/></g><g><path fill="#407bff" d="M192.864 309.435a3.739 3.739 0 0 1-2.246 1.283.57.57 0 0 1-.49-.374.19.19 0 0 1 0-.214.594.594 0 0 1 .17-.161 7.267 7.267 0 0 1 2.566-.534zm-.944 1.158a9.555 9.555 0 0 0 1.47-1.238.17.17 0 0 0 .045-.188.136.136 0 0 0-.143-.089c-.303 0-2.96.125-3.458.892a.543.543 0 0 0 0 .543c.127.296.403.5.722.535a2.327 2.327 0 0 0 1.364-.455z"/></g><g><path fill="#407bff" d="M191.17 307.724c.66.062 1.427.918 1.783 1.363-.891-.053-2.246-.517-2.388-.945-.01-.044-.045-.133.134-.276l.062-.044a.638.638 0 0 1 .41-.098zm2.21 1.666a.165.165 0 0 0 .055-.071.144.144 0 0 0 0-.17c-.045-.098-1.168-1.684-2.21-1.782a.97.97 0 0 0-.722.223.561.561 0 0 0-.26.651c.25.73 2.229 1.229 3.058 1.15h.08z"/></g><g><path fill="#eec1bb" d="M214.164 313.713h-7.005l-.58-16.23h7.015z"/></g><g><path fill="#263238" d="M206.188 312.902h8.51a.614.614 0 0 1 .598.481l1.382 6.239a1.034 1.034 0 0 1-1.025 1.247c-2.754-.044-4.76-.214-8.217-.214-2.13 0-8.556.223-11.497.223-2.941 0-3.324-2.905-2.121-3.173 5.4-1.176 9.465-2.807 11.194-4.358.32-.294.74-.453 1.176-.445z"/></g><g opacity=".2"><path d="M213.594 297.492h-7.014l.303 8.37h7.014z"/></g><g><path fill="#263238" d="M184.845 146.048s5.702 66.984 8.66 87.303c3.236 22.281 10.16 70.888 10.16 70.888h12.817s-2.621-46.522-3.833-68.419c-1.39-24.954-2.053-87.656-2.053-87.656z"/></g><g><path fill="#407bff" d="M202.124 304.515h15.115v-4.518l-15.686-.294z"/></g><g><path fill="#407bff" d="M202.828 312.679a6.805 6.805 0 0 1 2.397.962 3.406 3.406 0 0 1-2.495-.124.688.688 0 0 1-.223-.598c.009-.133.063-.196.107-.196a.388.388 0 0 1 .214-.044zm1.043 1.452a8.38 8.38 0 0 0 1.836-.258.17.17 0 0 0 .125-.143.152.152 0 0 0-.081-.16c-.25-.16-2.513-1.551-3.288-1.15a.498.498 0 0 0-.285.464.978.978 0 0 0 .347.891c.395.269.87.395 1.346.356z"/></g><g><path fill="#407bff" d="M204.628 311.182c.493.629.782 1.394.829 2.192-.722-.544-1.613-1.711-1.524-2.166.009-.044.027-.169.24-.169h.08a.567.567 0 0 1 .375.143zm1.034 2.7a.158.158 0 0 0 .089.027.182.182 0 0 0 .08-.152c-.008-.098-.178-2.112-.99-2.771a.886.886 0 0 0-.703-.214.542.542 0 0 0-.534.436c-.143.74 1.256 2.282 1.978 2.674h.08z"/></g><g><path d="M172.907 152.56h38.167v4.544l-38.653-.47z"/></g><g><path fill="#263238" d="M197.443 158.58v-8.065h1.363v8.065z"/></g><g><path fill="#263238" d="M178.132 158.58v-8.065h1.363v8.065z"/></g><g><path fill="#fff" d="M183.244 156.851v-5.086h7.059v5.086z"/></g><g><g><path fill="#407bff" d="M173.219 151.945l38.182 2.529c2.094-18.515 8.183-37.555 9.99-44.281a1.845 1.845 0 0 0-1.26-2.256 98.685 98.685 0 0 0-5.824-1.475c-9.936-2.22-20.494-3.203-27.082-3.631-4.033-.258-6.505-1.287-6.505-1.287-5.727 16.243-7.08 38.089-7.501 50.401z"/></g><g opacity=".4"><path fill="#fff" d="M221.388 110.196c-.361 1.334-.886 3.156-1.52 5.367-.905 3.175-2.026 7.139-3.165 11.61-2.075 8.064-4.218 17.756-5.3 27.301l-38.18-2.532c.419-12.312 1.773-34.158 7.5-50.395 0 0 2.465 1.023 6.497 1.286 6.594.428 17.152 1.412 27.087 3.633 1.977.438 3.935.925 5.824 1.47a1.847 1.847 0 0 1 1.257 2.26z"/></g></g><g><path fill="#e4897b" d="M207.456 104.288c-3.28 2.979-11.314 1.878-11.314 1.878s-5.015-1.373-3.962-2.94c2.954-.488 4.384-1.866 4.975-3.63.343-1.028.394-2.184.3-3.374a17.863 17.863 0 0 0-.248-1.884l9.932-7.355c-1.301 4.855-2.894 13.786.317 17.305z"/></g><g opacity=".2"><path d="M204.844 91.658c-.394 5.96-5.291 7.604-7.69 7.938.344-1.028.395-2.184.3-3.374z"/></g><g><g><path fill="#263238" d="M191.515 82.161s-5.154 4.291-5.202 4.891c-.048.6.819 2.151.819 2.151l-.482.389s-.818-1.036-.818-2.138c0-1.102 5.249-5.592 5.249-5.592z"/></g><g><path d="M196.129 81.149c-1.238 2.413-3.518 3.715-5.094 2.907-1.575-.808-1.85-3.419-.612-5.833 1.238-2.413 3.518-3.715 5.094-2.907 1.575.808 1.849 3.42.612 5.833z"/></g><g><path fill="#263238" d="M198.295 69.164s-6.605 7.073-4.493 12.978c2.11 5.905 12.172-8.791 12.172-8.791z"/></g><g><path fill="#e4897b" d="M189.669 86.042c-.066.34-.114.681-.143 1.021a9.506 9.506 0 0 0 .349 3.575 9.51 9.51 0 0 0 1.664 3.252c1.358 1.734 3.285 2.97 5.485 3.345 1.458.249 3.036.127 4.644-.488 4.63-1.734 6.247-5.455 9.484-11.523a9.336 9.336 0 0 0 1.175-4.214c.204-5.195-3.852-9.562-9.032-9.758-7.262-.329-12.387 8.554-13.626 14.79z"/></g><g><path fill="#263238" d="M200.868 82.608c-.197.52-.688.797-1.026.641-.337-.156-.41-.692-.18-1.2.23-.508.698-.795 1.027-.642.33.153.412.685.179 1.201z"/></g><g><path fill="#263238" d="M195.118 79.962c-.197.521-.697.794-1.026.642-.33-.153-.41-.693-.18-1.201.23-.508.697-.794 1.027-.641.329.153.399.717.179 1.2z"/></g><g><path fill="#de5753" d="M196.83 81.053a19.928 19.928 0 0 1-4.433 3.234 3.242 3.242 0 0 0 2.235 1.581z"/></g><g><path fill="#263238" d="M194.116 76.525a.343.343 0 0 0 .314.138 2.65 2.65 0 0 1 2.259.735.327.327 0 0 0 .499-.423l-.001-.001a3.265 3.265 0 0 0-2.836-.963.327.327 0 0 0-.293.357v.008a.53.53 0 0 0 .058.149z"/></g><g><path fill="#263238" d="M203.064 80.832a.327.327 0 0 0 .193.017.326.326 0 0 0 .166-.431l-.003-.007a3.26 3.26 0 0 0-2.332-1.892.327.327 0 0 0-.37.276v.001a.336.336 0 0 0 .277.371 2.651 2.651 0 0 1 1.824 1.528.336.336 0 0 0 .245.137z"/></g><g><path fill="#263238" d="M210.155 75.321l-1.725 2.52c.639.928.654 2.2-.303 3.048-2.043 1.812-2.581 5.989-1.572 8.289 0 0 .563-.952 1.27-.29.706.662-2.172 5.648-5.05 7.246 0 0 3.584-.936 7.744-5.58 3.848-4.295 6.15-8.343 6.127-10.79z"/></g><g><path fill="#e4897b" d="M211.527 91.601a6.542 6.542 0 0 1-4.79 1.438c-2.282-.245-2.574-2.493-1.234-4.207 1.205-1.512 3.86-3.268 5.803-2.143 1.943 1.126 1.852 3.548.22 4.912z"/></g><g><path fill="#263238" d="M216.439 81.216s2.46-3.207-1.715-8.812c-4.176-5.606-11.904-5.536-14.425-9.811-2.521-4.275-7.623 5.467-.21 10.612 7.416 5.145 16.35 8.011 16.35 8.011z"/></g><g><g><path fill="#263238" d="M194.246 87.843c.488.969 1 2.798 1 2.798.176-.016.35-.033.523-.059 2.355-.284 3.354-1.195 3.747-2.118.213-.505.239-1.02.205-1.434-.034-.478-.167-.812-.167-.812-1.16.897-3.334 1.332-4.506 1.516-.49.082-.802.109-.802.109z"/></g><g><path fill="#fff" d="M195.048 87.734l.316.817c2.219-.274 3.744-.764 4.357-1.521-.034-.478-.167-.812-.167-.812-1.16.897-3.334 1.332-4.506 1.516z"/></g><g><path fill="#de5753" d="M195.769 90.582c2.355-.284 3.354-1.195 3.747-2.118-.8.128-1.75.371-2.553.835a2.856 2.856 0 0 0-1.194 1.283z"/></g></g><g><path d="M212.188 90.597c-1.238 2.413-3.518 3.715-5.094 2.907-1.576-.808-1.85-3.42-.612-5.833 1.237-2.413 3.518-3.715 5.093-2.907 1.576.808 1.85 3.42.613 5.833z"/></g><g><path fill="#407bff" d="M212.556 90.786c-.91 1.772-2.583 2.727-3.74 2.134s-1.358-2.511-.45-4.283c.909-1.771 2.583-2.727 3.74-2.134s1.358 2.511.45 4.283z"/></g><g><path fill="#407bff" d="M210.7 86.436s6.77-14.314-2.306-18.758l.335-.324s2.602.657 4.463 3.363c1.862 2.706 3.454 6.451-1.163 16.266z"/></g></g><g><path fill="#263238" d="M193.659 106.268l.71 4.719s-4.451 9.741-11.35 10.215c-6.9.475-14.583 8.334-14.583 8.334l.224 4.394 3.39-.676s1.698-6.324 9.049-8.411c7.352-2.087 13.804-7.798 14.644-13.189l5.256-2.87-3.185-2.319z"/></g><g><g><path fill="#407bff" d="M206.853 102.655l-8.726 2.978-2.157-3.7-5.186 1.134.957 6.275 5.799-2.208 3.247 4.854 9.436-6.365z"/></g><g opacity=".6"><path fill="#fff" d="M206.853 102.655l-8.726 2.978-2.157-3.7-5.186 1.134.957 6.275 5.799-2.208 3.247 4.854 9.436-6.365z"/></g></g><g opacity=".2"><path d="M219.868 115.563c-.905 3.175-2.026 7.139-3.165 11.61-4.18-5.883-.448-14.425-.448-14.425 1.44.536 2.639 1.549 3.613 2.815z"/></g><g><path fill="#e4897b" d="M233.43 120.099l-5.202 4.507s-2.312.577-2.697.963c-.386.385-2.023 9.729-1.542 9.922.482.192 5.01 2.697 5.588 2.408.577-.289 2.31-8.188 2.31-8.188l-.77-1.702 4.094-4.015z"/></g><g><path fill="#407bff" d="M216.646 107.013s29.53-6.707 32.614 0c3.082 6.707-16.307 19.925-16.307 19.925l-3.987-3.918s9.248-7.092 7.964-9.095c-1.285-2.003-18.341 6.174-18.341 6.174s-3.473-6.95-1.943-13.086z"/></g><g opacity=".4"><path fill="#fff" d="M216.646 107.013s29.53-6.707 32.614 0c3.082 6.707-16.307 19.925-16.307 19.925l-3.987-3.918s9.248-7.092 7.964-9.095c-1.285-2.003-18.341 6.174-18.341 6.174s-3.473-6.95-1.943-13.086z"/></g></g></g><g><g><g><path fill="#263238" d="M117.784 95.188l10.288 2.697-9.406 7.32-4.421-6.26z"/></g><g><g><path fill="#eec1bb" d="M89.498 101.117s-3.923-.472-4.13.206c-.208.679-.538 6.453-.098 7.316.44.862 1.754 2.174 1.754 2.174l-3.766 8.268 4.596 2.953 3.085-9.119s2.65-2.105 2.249-5.162c-.401-3.056-3.69-6.636-3.69-6.636z"/></g><g opacity=".2"><path d="M89.498 101.117s-3.923-.472-4.13.206c-.208.679-.538 6.453-.098 7.316.44.862 1.754 2.174 1.754 2.174l-3.766 8.268 4.596 2.953 3.085-9.119s2.65-2.105 2.249-5.162c-.401-3.056-3.69-6.636-3.69-6.636z"/></g></g><g><path fill="#263238" d="M103.042 97.362c-3.256.33-13.854 21.798-13.854 21.798l-6.55-3.331s-8.476 12.791-3.66 17.653c4.817 4.861 22.37-13.613 22.37-13.613z"/></g><g><path fill="#263238" d="M133.014 312.645h8.786a.633.633 0 0 1 .616.496l1.426 6.44a1.067 1.067 0 0 1-1.058 1.288c-2.843-.046-4.912-.221-8.482-.221-2.198 0-8.831.23-11.867.23-3.036 0-3.432-2.999-2.19-3.275 5.575-1.214 9.77-2.898 11.555-4.499a1.746 1.746 0 0 1 1.214-.459z"/></g><g><path fill="#263238" d="M95.756 312.415h8.786a.633.633 0 0 1 .616.496l1.426 6.44a1.067 1.067 0 0 1-1.058 1.288c-2.842-.046-4.912-.221-8.482-.221-2.198 0-8.831.23-11.867.23-3.036 0-3.432-2.999-2.19-3.275 5.575-1.214 9.77-2.898 11.555-4.499a1.746 1.746 0 0 1 1.214-.459z"/></g><g><path fill="#407bff" d="M137.673 149.789H99.289c-3.65 19.929-15.073 100.854-6.877 163.691h12.994s-1.202-95.432 10.27-126.271c1.32 16.504 14.735 126.206 14.735 126.206h13.229s-1.976-41.267-3.956-80.248c-1.247-24.546-1.958-78.339-2.011-83.378z"/></g><g opacity=".2"><path d="M115.673 187.212c-1.693 4.545-3.1 10.221-4.287 16.605-1.073-14.687 3.22-30.263 3.22-30.263z"/></g><g><path d="M98.966 150.249h38.638v4.6l-39.13-.476z"/></g><g><path fill="#407bff" d="M123.805 156.343v-8.164h1.38v8.164z"/></g><g><path fill="#407bff" d="M104.256 156.343v-8.164h1.38v8.164z"/></g><g><path fill="#fff" d="M109.43 154.593v-5.15h7.147v5.15z"/></g><g><path fill="#263238" d="M143.604 97.362c-.276 2.326-.582 4.957-.918 7.843-.215 1.816-.44 3.733-.674 5.732-.366 3.111-.744 6.415-1.142 9.873-.102.897-.214 1.795-.316 2.713a4142.085 4142.085 0 0 0-2.947 26.721H98.973s-2.948-27.762 4.069-52.882z"/></g><g opacity=".2"><path d="M142.686 105.205c-.215 1.816-.44 3.733-.674 5.732-.366 3.111-.744 6.415-1.142 9.873-1.132-5.6-.765-12.994-.765-12.994z"/></g><g><path fill="#fff" d="M115.849 97.241s15.918.224 15.533 0c-.385-.223-15.915 13.407-15.915 13.407l-1.893-9.691z"/></g><g opacity=".1"><path fill="#fff" d="M143.604 97.362c-.276 2.326-.582 4.957-.918 7.843-.215 1.816-.44 3.733-.674 5.732-.366 3.111-.744 6.415-1.142 9.873-.102.897-.214 1.795-.316 2.713a4142.085 4142.085 0 0 0-2.947 26.721H98.973s-2.948-27.762 4.069-52.882z"/></g><g><g><path fill="#eec1bb" d="M129.402 98.024c-2.61 3.649-10.796 4.273-10.796 4.273s-3.491-1.194-2.783-2.969c2.819-1.114 2.176-1.878 2.384-3.75.12-1.089-.076-2.244-.423-3.402a18.02 18.02 0 0 0-.647-1.811l8.26-9.398c-.253 5.082.076 14.26 4.005 17.057z"/></g><g opacity=".2"><path d="M124.123 86.083c.882 5.982-3.614 8.653-5.916 9.495.12-1.089-.076-2.244-.423-3.402z"/></g></g><g><g><path fill="#263238" d="M103.125 70.836s0 9.652 5.56 12.519c5.558 2.867 2.888-14.695 2.888-14.695z"/></g><g><path fill="#eec1bb" d="M124.362 88.642c-1.898 3.862-5.722 5.379-9.327 4.813a9.643 9.643 0 0 1-6.117-3.604 9.856 9.856 0 0 1-.591-.837c-3.341-5.39-5.658-15.356-.137-20.062 3.913-3.384 9.84-2.958 13.226.964a9.328 9.328 0 0 1 2.015 3.873c1.774 6.626 3.129 10.438.93 14.853z"/></g><g><path fill="#263238" d="M114.153 78.884c.21.514.04 1.05-.312 1.166-.352.116-.77-.226-.947-.753-.18-.527-.033-1.053.31-1.166.345-.113.767.219.949.753z"/></g><g><path fill="#263238" d="M108.159 80.87c.21.514.033 1.054-.311 1.166-.344.113-.77-.226-.947-.753-.18-.527-.033-1.053.31-1.166.345-.113.78.251.948.753z"/></g><g><path fill="#d4827d" d="M110.15 80.5a19.893 19.893 0 0 1-1.03 5.375 3.228 3.228 0 0 0 2.706-.369z"/></g><g><path fill="#263238" d="M105.154 79.135a.342.342 0 0 0 .315-.136 2.642 2.642 0 0 1 2.07-1.15.326.326 0 0 0 .03-.651h-.001a3.253 3.253 0 0 0-2.63 1.416.326.326 0 0 0 .063.457l.006.005a.52.52 0 0 0 .147.059z"/></g><g><path fill="#263238" d="M114.542 76.11a.32.32 0 0 0 .154-.117.326.326 0 0 0-.168-.429l-.007-.003a3.25 3.25 0 0 0-2.99.177.325.325 0 0 0-.086.452v.001a.335.335 0 0 0 .454.086 2.64 2.64 0 0 1 2.37-.102.335.335 0 0 0 .273-.065z"/></g><g><path fill="#263238" d="M115.962 67.25l-.226 1.414c2.382.103 2.658 2.756 2.538 4.026-.256 2.712 2.195 6.122 4.497 7.112 0 0-.238-1.077.728-1.076.965.002 2.26 5.596 1.25 8.72 0 0 1.977-3.122 1.848-9.339-.12-5.751-1.196-10.269-2.88-12.037z"/></g><g><path fill="#eec1bb" d="M128.044 78.184a6.529 6.529 0 0 1-2.512 4.31c-1.83 1.373-3.574-.066-3.764-2.228-.151-1.922.589-5.009 2.772-5.512 2.182-.503 3.765 1.325 3.504 3.43z"/></g><g><g><path fill="#263238" d="M112.76 87.463c.92.575 2.307 1.874 2.307 1.874.14-.105.28-.209.415-.321 1.867-1.464 2.25-2.761 2.107-3.753-.08-.543-.325-.997-.568-1.333a2.94 2.94 0 0 0-.563-.608c-.526 1.368-2.161 2.867-3.068 3.632-.377.323-.63.509-.63.509z"/></g><g><path fill="#fff" d="M113.39 86.954l.694.535c1.755-1.384 2.805-2.594 2.937-3.559a2.94 2.94 0 0 0-.563-.608c-.526 1.368-2.161 2.867-3.068 3.632z"/></g><g><path fill="#de5753" d="M115.482 89.016c1.867-1.464 2.25-2.761 2.107-3.753-.617.523-1.303 1.223-1.751 2.037a2.864 2.864 0 0 0-.356 1.716z"/></g></g><g><path fill="#263238" d="M125.78 69.787s.766-6.297-7.436-8.672c-8.203-2.376-14.717 3.407-15.281 6.325 0 0-4.09 3.208.364 6.653l1.873-3.818s8.518 5.463 20.48-.488z"/></g></g><g><g><path fill="#263238" d="M98.142 107.2a.595.595 0 0 1-.448.792l-6.582 1.454a.785.785 0 0 1-.891-.497l-4.338-12.665c-.123-.356.058-.801.428-.883l6.582-1.453c.37-.082.789.23.91.586z"/></g><g opacity=".5"><path fill="#fff" d="M93.055 94.61l4.386 12.787c.123.36-.014.654-.381.735l-5.581 1.233c-.374.083-1.106.028-1.23-.333l-4.395-12.831c-.124-.361.45-.798.824-.881l5.58-1.232c.369-.081.673.162.797.522z"/></g></g><g><path fill="#eec1bb" d="M107.632 114.94l-4.177-4.957s-3.118-7.411-3.754-8.112c-.636-.702-6.766 1.494-7.454 1.646-.688.152 1.756 7.754 2.649 8.356.893.603 3.632.479 3.632.479l5.595 7.211z"/></g><g><path fill="#263238" d="M106.824 113.008l-5.475 6.861s14.326 13.08 21.216 16.355c6.89 3.275 20.954-19.286 22.88-23.707 1.928-4.42 2.096-13.75-1.841-15.155-3.938-1.404-19.452 25.965-21.04 26.441-1.586.476-15.74-10.795-15.74-10.795z"/></g><g><path fill="#263238" d="M134.079 97.241l-3.468-3.671-10.114 6.916.673 4.046-5.434 5.498-1.491-6.843 1.578-3.859 1.96-4.14-6.727 3.468-1.625 4.045 3.573-1.744s2.307 10.952 2.732 10.538c.426-.413 8.5-8.308 8.5-8.308l2.367 1.537z"/></g></g></g></g></svg>