<svg xmlns="http://www.w3.org/2000/svg" width="355" height="367" viewBox="0 0 355 367"><defs><linearGradient id="oxusa" x1="226.47" x2="239.68" y1="288.13" y2="288.13" gradientUnits="userSpaceOnUse"><stop offset="0" stop-color="#002"/><stop offset="1" stop-color="#2e2e41"/></linearGradient><linearGradient id="oxusb" x1="275.6" x2="246.18" y1="178.16" y2="175.56" gradientUnits="userSpaceOnUse"><stop offset="0" stop-color="#eadbc7"/><stop offset="1" stop-color="#debe93"/></linearGradient><linearGradient id="oxusc" x1="261.09" x2="274.36" y1="149.97" y2="163.23" gradientUnits="userSpaceOnUse"><stop offset="0" stop-color="#eac89a"/><stop offset="1" stop-color="#debe93"/></linearGradient><linearGradient id="oxusd" x1="275.61" x2="286.25" y1="165.88" y2="136.92" gradientUnits="userSpaceOnUse"><stop offset="0" stop-color="#eadbc7"/><stop offset="1" stop-color="#debe93"/></linearGradient><linearGradient id="oxuse" x1="291.44" x2="272.62" y1="179.12" y2="159.9" gradientUnits="userSpaceOnUse"><stop offset="0" stop-color="#ca7469"/><stop offset="1" stop-color="#a60000"/></linearGradient><linearGradient id="oxusf" x1="275.3" x2="300.6" y1="155.7" y2="155.7" gradientUnits="userSpaceOnUse"><stop offset="0" stop-color="#ca7469"/><stop offset="1" stop-color="#a60000"/></linearGradient><linearGradient id="oxusg" x1="262.4" x2="244.37" y1="192.65" y2="192.78" gradientUnits="userSpaceOnUse"><stop offset="0" stop-color="#ca7469"/><stop offset="1" stop-color="#a60000"/></linearGradient><linearGradient id="oxush" x1="252.86" x2="274.44" y1="199.93" y2="178.03" gradientUnits="userSpaceOnUse"><stop offset="0" stop-color="#ca7469"/><stop offset="1" stop-color="#a60000"/></linearGradient><linearGradient id="oxusi" x1="283.98" x2="260.16" y1="168.93" y2="192.18" gradientUnits="userSpaceOnUse"><stop offset="0" stop-color="#ca7469"/><stop offset="1" stop-color="#a60000"/></linearGradient><linearGradient id="oxusj" x1="241.51" x2="251.45" y1="169.74" y2="179.4" gradientUnits="userSpaceOnUse"><stop offset="0" stop-color="#eac89a"/><stop offset="1" stop-color="#debe93"/></linearGradient><linearGradient id="oxusk" x1="309.23" x2="309.95" y1="166.63" y2="142.49" gradientUnits="userSpaceOnUse"><stop offset="0" stop-color="#ca7469"/><stop offset="1" stop-color="#a60000"/></linearGradient><linearGradient id="oxusl" x1="291.14" x2="284.11" y1="123.16" y2="142.81" gradientUnits="userSpaceOnUse"><stop offset="0" stop-color="#eac89a"/><stop offset="1" stop-color="#d1aa75"/></linearGradient><linearGradient id="oxusm" x1="294.07" x2="314.17" y1="129.41" y2="133.99" gradientUnits="userSpaceOnUse"><stop offset="0" stop-color="#eac89a"/><stop offset="1" stop-color="#d1aa75"/></linearGradient><linearGradient id="oxusn" x1="300.21" x2="326.63" y1="133.64" y2="139.67" gradientUnits="userSpaceOnUse"><stop offset="0" stop-color="#eac89a"/><stop offset="1" stop-color="#d1aa75"/></linearGradient><linearGradient id="oxuso" x1="333.37" x2="328.34" y1="145.88" y2="129" gradientUnits="userSpaceOnUse"><stop offset="0" stop-color="#ca7469"/><stop offset="1" stop-color="#a60000"/></linearGradient><linearGradient id="oxusp" x1="290.18" x2="275.88" y1="205.42" y2="190.99" gradientUnits="userSpaceOnUse"><stop offset="0" stop-color="#eadbc7"/><stop offset="1" stop-color="#debe93"/></linearGradient><linearGradient id="oxusq" x1="314.96" x2="291.07" y1="191.02" y2="190.63" gradientUnits="userSpaceOnUse"><stop offset="0" stop-color="#eadbc7"/><stop offset="1" stop-color="#debe93"/></linearGradient><linearGradient id="oxusr" x1="276.23" x2="275.8" y1="218.79" y2="204.49" gradientUnits="userSpaceOnUse"><stop offset="0" stop-color="#eadbc7"/><stop offset="1" stop-color="#debe93"/></linearGradient><linearGradient id="oxuss" x1="304.54" x2="303.78" y1="179.77" y2="154.27" gradientUnits="userSpaceOnUse"><stop offset="0" stop-color="#eadbc7"/><stop offset="1" stop-color="#debe93"/></linearGradient><linearGradient id="oxust" x1="328.47" x2="327.7" y1="156.83" y2="130.95" gradientUnits="userSpaceOnUse"><stop offset="0" stop-color="#eadbc7"/><stop offset="1" stop-color="#debe93"/></linearGradient><linearGradient id="oxusu" x1="339.18" x2="315.12" y1="163.01" y2="167.39" gradientUnits="userSpaceOnUse"><stop offset="0" stop-color="#eadbc7"/><stop offset="1" stop-color="#debe93"/></linearGradient><linearGradient id="oxusv" x1="340.81" x2="347.89" y1="145.75" y2="137.17" gradientUnits="userSpaceOnUse"><stop offset="0" stop-color="#ffdaa8"/><stop offset="1" stop-color="#eac89a"/></linearGradient><linearGradient id="oxusw" x1="282.87" x2="291.85" y1="116.67" y2="104.82" gradientUnits="userSpaceOnUse"><stop offset="0" stop-color="#ca7469"/><stop offset="1" stop-color="#a60000"/></linearGradient><linearGradient id="oxusx" x1="288.88" x2="268.89" y1="108.82" y2="133.46" gradientUnits="userSpaceOnUse"><stop offset="0" stop-color="#ca7469"/><stop offset="1" stop-color="#a60000"/></linearGradient><linearGradient id="oxusy" x1="258.33" x2="279.4" y1="126.88" y2="119.79" gradientUnits="userSpaceOnUse"><stop offset="0" stop-color="#ca7469"/><stop offset="1" stop-color="#a60000"/></linearGradient><linearGradient id="oxusz" x1="268.87" x2="249.36" y1="133.68" y2="160.54" gradientUnits="userSpaceOnUse"><stop offset="0" stop-color="#ca7469"/><stop offset="1" stop-color="#a60000"/></linearGradient><linearGradient id="oxusA" x1="234.11" x2="250.24" y1="145.44" y2="146.39" gradientUnits="userSpaceOnUse"><stop offset="0" stop-color="#ca7469"/><stop offset="1" stop-color="#a60000"/></linearGradient><linearGradient id="oxusB" x1="242.78" x2="225.93" y1="152.32" y2="168.66" gradientUnits="userSpaceOnUse"><stop offset="0" stop-color="#ca7469"/><stop offset="1" stop-color="#a60000"/></linearGradient><linearGradient id="oxusC" x1="218.65" x2="234.06" y1="159.08" y2="161.02" gradientUnits="userSpaceOnUse"><stop offset="0" stop-color="#ca7469"/><stop offset="1" stop-color="#a60000"/></linearGradient><linearGradient id="oxusD" x1="255.43" x2="265.23" y1="109.24" y2="118.33" gradientUnits="userSpaceOnUse"><stop offset="0" stop-color="#eac89a"/><stop offset="1" stop-color="#d1aa75"/></linearGradient><linearGradient id="oxusE" x1="204.77" x2="219.07" y1="147.78" y2="147.48" gradientUnits="userSpaceOnUse"><stop offset="0" stop-color="#eac89a"/><stop offset="1" stop-color="#d1aa75"/></linearGradient><linearGradient id="oxusF" x1="217.76" x2="241.71" y1="147.52" y2="146.37" gradientUnits="userSpaceOnUse"><stop offset="0" stop-color="#eac89a"/><stop offset="1" stop-color="#d1aa75"/></linearGradient><linearGradient id="oxusG" x1="225.25" x2="223.72" y1="124.05" y2="136.1" gradientUnits="userSpaceOnUse"><stop offset="0" stop-color="#eac89a"/><stop offset="1" stop-color="#d1aa75"/></linearGradient><linearGradient id="oxusH" x1="237.14" x2="235.51" y1="125.72" y2="138.58" gradientUnits="userSpaceOnUse"><stop offset="0" stop-color="#eac89a"/><stop offset="1" stop-color="#d1aa75"/></linearGradient><linearGradient id="oxusI" x1="242.74" x2="250.3" y1="132.67" y2="132.6" gradientUnits="userSpaceOnUse"><stop offset="0" stop-color="#eac89a"/><stop offset="1" stop-color="#d1aa75"/></linearGradient><linearGradient id="oxusJ" x1="304.24" x2="321.25" y1="192.11" y2="205.97" gradientUnits="userSpaceOnUse"><stop offset="0" stop-color="#ca7469"/><stop offset="1" stop-color="#a60000"/></linearGradient><linearGradient id="oxusK" x1="317.36" x2="337.64" y1="193.08" y2="192.19" gradientUnits="userSpaceOnUse"><stop offset="0" stop-color="#ca7469"/><stop offset="1" stop-color="#a60000"/></linearGradient><linearGradient id="oxusL" x1="305.22" x2="304.81" y1="204.19" y2="221.58" gradientUnits="userSpaceOnUse"><stop offset="0" stop-color="#ca7469"/><stop offset="1" stop-color="#a60000"/></linearGradient><linearGradient id="oxusM" x1="283.84" x2="283.48" y1="203.76" y2="219.29" gradientUnits="userSpaceOnUse"><stop offset="0" stop-color="#ca7469"/><stop offset="1" stop-color="#a60000"/></linearGradient><linearGradient id="oxusN" x1="290.48" x2="303.2" y1="211.75" y2="213.93" gradientUnits="userSpaceOnUse"><stop offset="0" stop-color="#ca7469"/><stop offset="1" stop-color="#a60000"/></linearGradient><linearGradient id="oxusO" x1="319.77" x2="337.47" y1="172.09" y2="177.26" gradientUnits="userSpaceOnUse"><stop offset="0" stop-color="#ca7469"/><stop offset="1" stop-color="#a60000"/></linearGradient><linearGradient id="oxusP" x1="339.44" x2="347.74" y1="151.09" y2="158.44" gradientUnits="userSpaceOnUse"><stop offset="0" stop-color="#ca7469"/><stop offset="1" stop-color="#a60000"/></linearGradient><linearGradient id="oxusQ" x1="319.29" x2="315.34" y1="210.91" y2="224.8" gradientUnits="userSpaceOnUse"><stop offset="0" stop-color="#eadbc7"/><stop offset="1" stop-color="#debe93"/></linearGradient><linearGradient id="oxusR" x1="318.22" x2="312.46" y1="220.34" y2="227.82" gradientUnits="userSpaceOnUse"><stop offset="0" stop-color="#eadbc7"/><stop offset="1" stop-color="#debe93"/></linearGradient><linearGradient id="oxusS" x1="327.84" x2="338.2" y1="197.14" y2="205.53" gradientUnits="userSpaceOnUse"><stop offset="0" stop-color="#eadbc7"/><stop offset="1" stop-color="#debe93"/></linearGradient><linearGradient id="oxusT" x1="324.49" x2="339.8" y1="201.79" y2="214.2" gradientUnits="userSpaceOnUse"><stop offset="0" stop-color="#eadbc7"/><stop offset="1" stop-color="#debe93"/></linearGradient><linearGradient id="oxusU" x1="329.57" x2="322.76" y1="212.6" y2="216.68" gradientUnits="userSpaceOnUse"><stop offset="0" stop-color="#eadbc7"/><stop offset="1" stop-color="#debe93"/></linearGradient><linearGradient id="oxusV" x1="252.8" x2="240.62" y1="66.23" y2="67.49" gradientUnits="userSpaceOnUse"><stop offset="0" stop-color="#eac89a"/><stop offset="1" stop-color="#d1aa75"/></linearGradient><linearGradient id="oxusW" x1="244.91" x2="218.49" y1="67.34" y2="67.88" gradientUnits="userSpaceOnUse"><stop offset="0" stop-color="#eac89a"/><stop offset="1" stop-color="#d1aa75"/></linearGradient><linearGradient id="oxusX" x1="222.91" x2="239.86" y1="198.64" y2="183.02" gradientUnits="userSpaceOnUse"><stop offset="0" stop-color="#002"/><stop offset="1" stop-color="#373747"/></linearGradient><linearGradient id="oxusY" x1="237.53" x2="246.96" y1="196.09" y2="208.33" gradientUnits="userSpaceOnUse"><stop offset="0" stop-color="#002"/><stop offset="1" stop-color="#373747"/></linearGradient><linearGradient id="oxusZ" x1="227.49" x2="244.48" y1="221.81" y2="222.63" gradientUnits="userSpaceOnUse"><stop offset="0" stop-color="#002"/><stop offset="1" stop-color="#373747"/></linearGradient><linearGradient id="oxusaa" x1="227.86" x2="260.43" y1="212.55" y2="214.11" gradientUnits="userSpaceOnUse"><stop offset="0" stop-color="#002"/><stop offset="1" stop-color="#373747"/></linearGradient><linearGradient id="oxusab" x1="262.02" x2="252.53" y1="223.46" y2="213.65" gradientUnits="userSpaceOnUse"><stop offset="0" stop-color="#002"/><stop offset="1" stop-color="#131336"/></linearGradient><linearGradient id="oxusac" x1="241.37" x2="235.65" y1="236.13" y2="230.31" gradientUnits="userSpaceOnUse"><stop offset="0" stop-color="#002"/><stop offset="1" stop-color="#131336"/></linearGradient><linearGradient id="oxusad" x1="204.89" x2="216.43" y1="221.98" y2="226.88" gradientUnits="userSpaceOnUse"><stop offset="0" stop-color="#eadbc7"/><stop offset="1" stop-color="#debe93"/></linearGradient><linearGradient id="oxusae" x1="216.25" x2="227.5" y1="226.8" y2="231.58" gradientUnits="userSpaceOnUse"><stop offset="0" stop-color="#eadbc7"/><stop offset="1" stop-color="#debe93"/></linearGradient><linearGradient id="oxusaf" x1="172.5" x2="202.1" y1="223.97" y2="236.54" gradientUnits="userSpaceOnUse"><stop offset="0" stop-color="#eadbc7"/><stop offset="1" stop-color="#debe93"/></linearGradient><linearGradient id="oxusag" x1="174.61" x2="186.15" y1="241.94" y2="230.2" gradientUnits="userSpaceOnUse"><stop offset="0" stop-color="#eadbc7"/><stop offset="1" stop-color="#debe93"/></linearGradient><linearGradient id="oxusah" x1="160.99" x2="195.65" y1="277.24" y2="241.96" gradientUnits="userSpaceOnUse"><stop offset="0" stop-color="#eadbc7"/><stop offset="1" stop-color="#debe93"/></linearGradient><linearGradient id="oxusai" x1="187.49" x2="180.24" y1="274.25" y2="260.26" gradientUnits="userSpaceOnUse"><stop offset="0" stop-color="#eadbc7"/><stop offset="1" stop-color="#debe93"/></linearGradient><linearGradient id="oxusaj" x1="210.41" x2="194.25" y1="285.8" y2="254.61" gradientUnits="userSpaceOnUse"><stop offset="0" stop-color="#eadbc7"/><stop offset="1" stop-color="#debe93"/></linearGradient><linearGradient id="oxusak" x1="219.67" x2="201.46" y1="286.17" y2="251.02" gradientUnits="userSpaceOnUse"><stop offset="0" stop-color="#eadbc7"/><stop offset="1" stop-color="#debe93"/></linearGradient><linearGradient id="oxusal" x1="223.45" x2="217.34" y1="253.68" y2="241.89" gradientUnits="userSpaceOnUse"><stop offset="0" stop-color="#eadbc7"/><stop offset="1" stop-color="#debe93"/></linearGradient><linearGradient id="oxusam" x1="220.25" x2="220.66" y1="246.01" y2="255.91" gradientUnits="userSpaceOnUse"><stop offset="0" stop-color="#eadbc7"/><stop offset="1" stop-color="#debe93"/></linearGradient><linearGradient id="oxusan" x1="216.99" x2="217.89" y1="245.07" y2="266.9" gradientUnits="userSpaceOnUse"><stop offset="0" stop-color="#eadbc7"/><stop offset="1" stop-color="#debe93"/></linearGradient><linearGradient id="oxusao" x1="219.51" x2="213.28" y1="254.99" y2="260.3" gradientUnits="userSpaceOnUse"><stop offset="0" stop-color="#eadbc7"/><stop offset="1" stop-color="#debe93"/></linearGradient><linearGradient id="oxusap" x1="209.92" x2="192.96" y1="267.53" y2="282" gradientUnits="userSpaceOnUse"><stop offset="0" stop-color="#eadbc7"/><stop offset="1" stop-color="#debe93"/></linearGradient><linearGradient id="oxusaq" x1="231.34" x2="215.8" y1="190.53" y2="187.92" gradientUnits="userSpaceOnUse"><stop offset="0" stop-color="#002"/><stop offset="1" stop-color="#373747"/></linearGradient><linearGradient id="oxusar" x1="191.13" x2="184.27" y1="203.36" y2="218.41" gradientUnits="userSpaceOnUse"><stop offset="0" stop-color="#002"/><stop offset="1" stop-color="#373747"/></linearGradient><linearGradient id="oxusas" x1="217.37" x2="207.86" y1="166.51" y2="187.38" gradientUnits="userSpaceOnUse"><stop offset="0" stop-color="#002"/><stop offset="1" stop-color="#373747"/></linearGradient><linearGradient id="oxusat" x1="216.66" x2="232.45" y1="176.51" y2="178.42" gradientUnits="userSpaceOnUse"><stop offset="0" stop-color="#002"/><stop offset="1" stop-color="#373747"/></linearGradient><linearGradient id="oxusau" x1="199.56" x2="228.22" y1="201.36" y2="204.82" gradientUnits="userSpaceOnUse"><stop offset="0" stop-color="#002"/><stop offset="1" stop-color="#373747"/></linearGradient><linearGradient id="oxusav" x1="191.64" x2="206.48" y1="205.2" y2="199.61" gradientUnits="userSpaceOnUse"><stop offset="0" stop-color="#002"/><stop offset="1" stop-color="#373747"/></linearGradient><linearGradient id="oxusaw" x1="211.27" x2="196.7" y1="169.52" y2="156.29" gradientUnits="userSpaceOnUse"><stop offset="0" stop-color="#002"/><stop offset="1" stop-color="#373747"/></linearGradient><linearGradient id="oxusax" x1="187.01" x2="203.7" y1="161.2" y2="162.59" gradientUnits="userSpaceOnUse"><stop offset="0" stop-color="#002"/><stop offset="1" stop-color="#373747"/></linearGradient><linearGradient id="oxusay" x1="178.84" x2="202.87" y1="169.74" y2="171.74" gradientUnits="userSpaceOnUse"><stop offset="0" stop-color="#002"/><stop offset="1" stop-color="#373747"/></linearGradient><linearGradient id="oxusaz" x1="184.84" x2="190.7" y1="195.79" y2="174.55" gradientUnits="userSpaceOnUse"><stop offset="0" stop-color="#002"/><stop offset="1" stop-color="#373747"/></linearGradient><linearGradient id="oxusaA" x1="159.7" x2="176.89" y1="190.75" y2="204.47" gradientUnits="userSpaceOnUse"><stop offset="0" stop-color="#002"/><stop offset="1" stop-color="#373747"/></linearGradient><linearGradient id="oxusaB" x1="172" x2="175.83" y1="193.2" y2="179.27" gradientUnits="userSpaceOnUse"><stop offset="0" stop-color="#002"/><stop offset="1" stop-color="#373747"/></linearGradient><linearGradient id="oxusaC" x1="154.73" x2="157.36" y1="216.64" y2="207.08" gradientUnits="userSpaceOnUse"><stop offset="0" stop-color="#002"/><stop offset="1" stop-color="#373747"/></linearGradient><linearGradient id="oxusaD" x1="151.33" x2="164.81" y1="206.39" y2="200.81" gradientUnits="userSpaceOnUse"><stop offset="0" stop-color="#002"/><stop offset="1" stop-color="#373747"/></linearGradient><linearGradient id="oxusaE" x1="216.79" x2="203.98" y1="135.42" y2="122.26" gradientUnits="userSpaceOnUse"><stop offset="0" stop-color="#ca7469"/><stop offset="1" stop-color="#a60000"/></linearGradient><linearGradient id="oxusaF" x1="208.66" x2="222.3" y1="129.29" y2="117.25" gradientUnits="userSpaceOnUse"><stop offset="0" stop-color="#ca7469"/><stop offset="1" stop-color="#a60000"/></linearGradient><linearGradient id="oxusaG" x1="191.21" x2="208.54" y1="146.03" y2="130.74" gradientUnits="userSpaceOnUse"><stop offset="0" stop-color="#ca7469"/><stop offset="1" stop-color="#a60000"/></linearGradient><linearGradient id="oxusaH" x1="188.39" x2="195.33" y1="173.49" y2="143.87" gradientUnits="userSpaceOnUse"><stop offset="0" stop-color="#ca7469"/><stop offset="1" stop-color="#a60000"/></linearGradient><linearGradient id="oxusaI" x1="169.07" x2="175.4" y1="229.08" y2="225.1" gradientUnits="userSpaceOnUse"><stop offset="0" stop-color="#002"/><stop offset="1" stop-color="#373747"/></linearGradient><linearGradient id="oxusaJ" x1="144.01" x2="174.67" y1="227.03" y2="250.9" gradientUnits="userSpaceOnUse"><stop offset="0" stop-color="#002"/><stop offset="1" stop-color="#373747"/></linearGradient><linearGradient id="oxusaK" x1="160.98" x2="181.4" y1="224.63" y2="236.57" gradientUnits="userSpaceOnUse"><stop offset="0" stop-color="#002"/><stop offset="1" stop-color="#373747"/></linearGradient><linearGradient id="oxusaL" x1="154.03" x2="157.3" y1="248.6" y2="237.89" gradientUnits="userSpaceOnUse"><stop offset="0" stop-color="#002"/><stop offset="1" stop-color="#373747"/></linearGradient><linearGradient id="oxusaM" x1="133.23" x2="163.46" y1="242.38" y2="249.13" gradientUnits="userSpaceOnUse"><stop offset="0" stop-color="#002"/><stop offset="1" stop-color="#373747"/></linearGradient><linearGradient id="oxusaN" x1="154.41" x2="154.51" y1="257.23" y2="246.71" gradientUnits="userSpaceOnUse"><stop offset="0" stop-color="#002"/><stop offset="1" stop-color="#373747"/></linearGradient><linearGradient id="oxusaO" x1="155.27" x2="155.44" y1="265.73" y2="248.03" gradientUnits="userSpaceOnUse"><stop offset="0" stop-color="#002"/><stop offset="1" stop-color="#373747"/></linearGradient><linearGradient id="oxusaP" x1="148.26" x2="166.74" y1="257.1" y2="259.86" gradientUnits="userSpaceOnUse"><stop offset="0" stop-color="#002"/><stop offset="1" stop-color="#373747"/></linearGradient><linearGradient id="oxusaQ" x1="161.13" x2="183.73" y1="280.21" y2="265.99" gradientUnits="userSpaceOnUse"><stop offset="0" stop-color="#002"/><stop offset="1" stop-color="#373747"/></linearGradient><linearGradient id="oxusaR" x1="162.98" x2="178.6" y1="285.22" y2="275.01" gradientUnits="userSpaceOnUse"><stop offset="0" stop-color="#002"/><stop offset="1" stop-color="#373747"/></linearGradient><linearGradient id="oxusaS" x1="171.48" x2="182.1" y1="283.8" y2="283.9" gradientUnits="userSpaceOnUse"><stop offset="0" stop-color="#002"/><stop offset="1" stop-color="#2e2e41"/></linearGradient><linearGradient id="oxusaT" x1="183.05" x2="182.84" y1="295.6" y2="280.9" gradientUnits="userSpaceOnUse"><stop offset="0" stop-color="#002"/><stop offset="1" stop-color="#2e2e41"/></linearGradient><linearGradient id="oxusaU" x1="200.88" x2="192.81" y1="279.99" y2="294.19" gradientUnits="userSpaceOnUse"><stop offset="0" stop-color="#002"/><stop offset="1" stop-color="#2e2e41"/></linearGradient><linearGradient id="oxusaV" x1="223.29" x2="213.47" y1="272.3" y2="289.58" gradientUnits="userSpaceOnUse"><stop offset="0" stop-color="#002"/><stop offset="1" stop-color="#2e2e41"/></linearGradient><linearGradient id="oxusaW" x1="218.43" x2="224.74" y1="275.63" y2="282.57" gradientUnits="userSpaceOnUse"><stop offset="0" stop-color="#002"/><stop offset="1" stop-color="#2e2e41"/></linearGradient><linearGradient id="oxusaX" x1="229.05" x2="223.36" y1="272.36" y2="281.16" gradientUnits="userSpaceOnUse"><stop offset="0" stop-color="#002"/><stop offset="1" stop-color="#2e2e41"/></linearGradient><linearGradient id="oxusaY" x1="226.37" x2="234.54" y1="287.91" y2="282.9" gradientUnits="userSpaceOnUse"><stop offset="0" stop-color="#002"/><stop offset="1" stop-color="#2e2e41"/></linearGradient><linearGradient id="oxusaZ" x1="239.11" x2="226.2" y1="283.46" y2="278.68" gradientUnits="userSpaceOnUse"><stop offset="0" stop-color="#002"/><stop offset="1" stop-color="#2e2e41"/></linearGradient><linearGradient id="oxusba" x1="232.8" x2="217.73" y1="12.23" y2="14.56" gradientUnits="userSpaceOnUse"><stop offset="0" stop-color="#ca7469"/><stop offset="1" stop-color="#a60000"/></linearGradient><linearGradient id="oxusbb" x1="220.2" x2="208.77" y1="25.69" y2="11.19" gradientUnits="userSpaceOnUse"><stop offset="0" stop-color="#ca7469"/><stop offset="1" stop-color="#a60000"/></linearGradient><linearGradient id="oxusbc" x1="201.33" x2="208.4" y1="35.9" y2="25.18" gradientUnits="userSpaceOnUse"><stop offset="0" stop-color="#ca7469"/><stop offset="1" stop-color="#a60000"/></linearGradient><linearGradient id="oxusbd" x1="230.61" x2="230.84" y1="95.34" y2="77.77" gradientUnits="userSpaceOnUse"><stop offset="0" stop-color="#eac89a"/><stop offset="1" stop-color="#debe93"/></linearGradient><linearGradient id="oxusbe" x1="214.08" x2="234.93" y1="67.82" y2="59.83" gradientUnits="userSpaceOnUse"><stop offset="0" stop-color="#ca7469"/><stop offset="1" stop-color="#a60000"/></linearGradient><linearGradient id="oxusbf" x1="252.39" x2="250.68" y1="47.26" y2="58.42" gradientUnits="userSpaceOnUse"><stop offset="0" stop-color="#eac89a"/><stop offset="1" stop-color="#d1aa75"/></linearGradient><linearGradient id="oxusbg" x1="271.43" x2="256.27" y1="51.53" y2="50.61" gradientUnits="userSpaceOnUse"><stop offset="0" stop-color="#eac89a"/><stop offset="1" stop-color="#d1aa75"/></linearGradient><linearGradient id="oxusbh" x1="253.28" x2="237.76" y1="46.82" y2="45.88" gradientUnits="userSpaceOnUse"><stop offset="0" stop-color="#ca7469"/><stop offset="1" stop-color="#a60000"/></linearGradient><linearGradient id="oxusbi" x1="240.72" x2="227.34" y1="58.12" y2="44.75" gradientUnits="userSpaceOnUse"><stop offset="0" stop-color="#ca7469"/><stop offset="1" stop-color="#a60000"/></linearGradient><linearGradient id="oxusbj" x1="246.09" x2="252.83" y1="39.82" y2="23.38" gradientUnits="userSpaceOnUse"><stop offset="0" stop-color="#ca7469"/><stop offset="1" stop-color="#a60000"/></linearGradient><linearGradient id="oxusbk" x1="264.78" x2="269.99" y1="44.32" y2="27.79" gradientUnits="userSpaceOnUse"><stop offset="0" stop-color="#eac89a"/><stop offset="1" stop-color="#d1aa75"/></linearGradient><linearGradient id="oxusbl" x1="271.43" x2="254.07" y1="26.93" y2="31.32" gradientUnits="userSpaceOnUse"><stop offset="0" stop-color="#ca7469"/><stop offset="1" stop-color="#a60000"/></linearGradient><linearGradient id="oxusbm" x1="279.09" x2="280.83" y1="41.63" y2="28.46" gradientUnits="userSpaceOnUse"><stop offset="0" stop-color="#ffdaa8"/><stop offset="1" stop-color="#eac89a"/></linearGradient><linearGradient id="oxusbn" x1="262.28" x2="263.96" y1="20.94" y2="8.18" gradientUnits="userSpaceOnUse"><stop offset="0" stop-color="#ca7469"/><stop offset="1" stop-color="#a60000"/></linearGradient><linearGradient id="oxusbo" x1="279.5" x2="277.19" y1="1.76" y2="32.4" gradientUnits="userSpaceOnUse"><stop offset="0" stop-color="#eadbc7"/><stop offset="1" stop-color="#debe93"/></linearGradient><linearGradient id="oxusbp" x1="243.02" x2="224.36" y1="19.75" y2="17.71" gradientUnits="userSpaceOnUse"><stop offset="0" stop-color="#eac89a"/><stop offset="1" stop-color="#d1aa75"/></linearGradient><linearGradient id="oxusbq" x1="258.55" x2="239.49" y1="11.95" y2="19.58" gradientUnits="userSpaceOnUse"><stop offset="0" stop-color="#eac89a"/><stop offset="1" stop-color="#d1aa75"/></linearGradient><linearGradient id="oxusbr" x1="229.29" x2="231.74" y1="46.02" y2="27.77" gradientUnits="userSpaceOnUse"><stop offset="0" stop-color="#eac89a"/><stop offset="1" stop-color="#d1aa75"/></linearGradient><linearGradient id="oxusbs" x1="201.87" x2="223.38" y1="42.41" y2="35.87" gradientUnits="userSpaceOnUse"><stop offset="0" stop-color="#eac89a"/><stop offset="1" stop-color="#d1aa75"/></linearGradient><linearGradient id="oxusbt" x1="249.82" x2="263.08" y1="68.28" y2="75.61" gradientUnits="userSpaceOnUse"><stop offset="0" stop-color="#ca7469"/><stop offset="1" stop-color="#a60000"/></linearGradient><linearGradient id="oxusbu" x1="276.97" x2="262.26" y1="78.74" y2="59.14" gradientUnits="userSpaceOnUse"><stop offset="0" stop-color="#ca7469"/><stop offset="1" stop-color="#a60000"/></linearGradient><linearGradient id="oxusbv" x1="237.43" x2="233.48" y1="84.01" y2="97.15" gradientUnits="userSpaceOnUse"><stop offset="0" stop-color="#ca7469"/><stop offset="1" stop-color="#a60000"/></linearGradient><linearGradient id="oxusbw" x1="245.56" x2="251.58" y1="100.6" y2="80.65" gradientUnits="userSpaceOnUse"><stop offset="0" stop-color="#ca7469"/><stop offset="1" stop-color="#a60000"/></linearGradient><linearGradient id="oxusbx" x1="273.73" x2="282.59" y1="74.99" y2="64.26" gradientUnits="userSpaceOnUse"><stop offset="0" stop-color="#ffdaa8"/><stop offset="1" stop-color="#eac89a"/></linearGradient><linearGradient id="oxusby" x1="265.59" x2="274.79" y1="84.84" y2="73.71" gradientUnits="userSpaceOnUse"><stop offset="0" stop-color="#eac89a"/><stop offset="1" stop-color="#d1aa75"/></linearGradient><linearGradient id="oxusbz" x1="272.59" x2="281.04" y1="84.26" y2="84.8" gradientUnits="userSpaceOnUse"><stop offset="0" stop-color="#ca7469"/><stop offset="1" stop-color="#a60000"/></linearGradient><linearGradient id="oxusbA" x1="213.04" x2="213.99" y1="64.68" y2="44.66" gradientUnits="userSpaceOnUse"><stop offset="0" stop-color="#eac89a"/><stop offset="1" stop-color="#d1aa75"/></linearGradient><linearGradient id="oxusbB" x1="197.55" x2="218.93" y1="66.58" y2="66.03" gradientUnits="userSpaceOnUse"><stop offset="0" stop-color="#ca7469"/><stop offset="1" stop-color="#a60000"/></linearGradient><linearGradient id="oxusbC" x1="205.04" x2="208.22" y1="100.67" y2="76.32" gradientUnits="userSpaceOnUse"><stop offset="0" stop-color="#ca7469"/><stop offset="1" stop-color="#a60000"/></linearGradient><linearGradient id="oxusbD" x1="197.07" x2="177.47" y1="87.56" y2="85.31" gradientUnits="userSpaceOnUse"><stop offset="0" stop-color="#ca7469"/><stop offset="1" stop-color="#a60000"/></linearGradient><linearGradient id="oxusbE" x1="191.65" x2="151.77" y1="125.21" y2="120.63" gradientUnits="userSpaceOnUse"><stop offset="0" stop-color="#ca7469"/><stop offset="1" stop-color="#a60000"/></linearGradient><linearGradient id="oxusbF" x1="172.33" x2="191.52" y1="108" y2="109.23" gradientUnits="userSpaceOnUse"><stop offset="0" stop-color="#ca7469"/><stop offset="1" stop-color="#a60000"/></linearGradient><linearGradient id="oxusbG" x1="193.96" x2="203.76" y1="57.64" y2="56.83" gradientUnits="userSpaceOnUse"><stop offset="0" stop-color="#eac89a"/><stop offset="1" stop-color="#d1aa75"/></linearGradient><linearGradient id="oxusbH" x1="208.08" x2="210.94" y1="77.81" y2="97.83" gradientUnits="userSpaceOnUse"><stop offset="0" stop-color="#d6b78d"/><stop offset="1" stop-color="#eac89a"/></linearGradient><linearGradient id="oxusbI" x1="152.29" x2="156.19" y1="145.07" y2="172.36" gradientUnits="userSpaceOnUse"><stop offset="0" stop-color="#eac89a"/><stop offset="1" stop-color="#d1aa75"/></linearGradient><linearGradient id="oxusbJ" x1="155.96" x2="165.77" y1="152.12" y2="135.58" gradientUnits="userSpaceOnUse"><stop offset="0" stop-color="#eac89a"/><stop offset="1" stop-color="#d1aa75"/></linearGradient><linearGradient id="oxusbK" x1="177.58" x2="163.9" y1="145.52" y2="144.7" gradientUnits="userSpaceOnUse"><stop offset="0" stop-color="#eac89a"/><stop offset="1" stop-color="#d1aa75"/></linearGradient><linearGradient id="oxusbL" x1="178.28" x2="173.17" y1="115.92" y2="134.92" gradientUnits="userSpaceOnUse"><stop offset="0" stop-color="#eac89a"/><stop offset="1" stop-color="#d1aa75"/></linearGradient><linearGradient id="oxusbM" x1="153.92" x2="157.26" y1="156.46" y2="179.86" gradientUnits="userSpaceOnUse"><stop offset="0" stop-color="#ca7469"/><stop offset="1" stop-color="#a60000"/></linearGradient><linearGradient id="oxusbN" x1="159.04" x2="170.68" y1="167.37" y2="168.19" gradientUnits="userSpaceOnUse"><stop offset="0" stop-color="#ca7469"/><stop offset="1" stop-color="#a60000"/></linearGradient><linearGradient id="oxusbO" x1="167.32" x2="181.01" y1="166.6" y2="141.48" gradientUnits="userSpaceOnUse"><stop offset="0" stop-color="#ca7469"/><stop offset="1" stop-color="#a60000"/></linearGradient><linearGradient id="oxusbP" x1="157.34" x2="153.67" y1="166.82" y2="187.04" gradientUnits="userSpaceOnUse"><stop offset="0" stop-color="#ca7469"/><stop offset="1" stop-color="#a60000"/></linearGradient><linearGradient id="oxusbQ" x1="95.65" x2="119.07" y1="261.99" y2="253.27" gradientUnits="userSpaceOnUse"><stop offset="0" stop-color="#ca7469"/><stop offset="1" stop-color="#a60000"/></linearGradient><linearGradient id="oxusbR" x1="76.22" x2="100.48" y1="269.22" y2="260.19" gradientUnits="userSpaceOnUse"><stop offset="0" stop-color="#ca7469"/><stop offset="1" stop-color="#a60000"/></linearGradient><linearGradient id="oxusbS" x1="108.19" x2="82.33" y1="273.02" y2="277.38" gradientUnits="userSpaceOnUse"><stop offset="0" stop-color="#ca7469"/><stop offset="1" stop-color="#a60000"/></linearGradient><linearGradient id="oxusbT" x1="60.4" x2="84.74" y1="279.27" y2="277.06" gradientUnits="userSpaceOnUse"><stop offset="0" stop-color="#ca7469"/><stop offset="1" stop-color="#a60000"/></linearGradient><linearGradient id="oxusbU" x1="60.42" x2="76.21" y1="306.22" y2="283.89" gradientUnits="userSpaceOnUse"><stop offset="0" stop-color="#ca7469"/><stop offset="1" stop-color="#a60000"/></linearGradient><linearGradient id="oxusbV" x1="55.37" x2="73.89" y1="260.84" y2="274.73" gradientUnits="userSpaceOnUse"><stop offset="0" stop-color="#eac89a"/><stop offset="1" stop-color="#d1aa75"/></linearGradient><linearGradient id="oxusbW" x1="80.89" x2="87.7" y1="263.42" y2="243.54" gradientUnits="userSpaceOnUse"><stop offset="0" stop-color="#eac89a"/><stop offset="1" stop-color="#d1aa75"/></linearGradient><linearGradient id="oxusbX" x1="65.47" x2="80.19" y1="268.13" y2="247.33" gradientUnits="userSpaceOnUse"><stop offset="0" stop-color="#eac89a"/><stop offset="1" stop-color="#d1aa75"/></linearGradient><linearGradient id="oxusbY" x1="55.27" x2="51.08" y1="262.37" y2="280.85" gradientUnits="userSpaceOnUse"><stop offset="0" stop-color="#eac89a"/><stop offset="1" stop-color="#d1aa75"/></linearGradient><linearGradient id="oxusbZ" x1="47.78" x2="42.88" y1="290.05" y2="274.8" gradientUnits="userSpaceOnUse"><stop offset="0" stop-color="#eac89a"/><stop offset="1" stop-color="#d1aa75"/></linearGradient><linearGradient id="oxusca" x1="48.3" x2="42.33" y1="306.51" y2="287.96" gradientUnits="userSpaceOnUse"><stop offset="0" stop-color="#eac89a"/><stop offset="1" stop-color="#d1aa75"/></linearGradient><linearGradient id="oxuscb" x1="49" x2="43.19" y1="273.16" y2="255.07" gradientUnits="userSpaceOnUse"><stop offset="0" stop-color="#ca7469"/><stop offset="1" stop-color="#a60000"/></linearGradient><linearGradient id="oxuscc" x1="49.59" x2="43.62" y1="261.65" y2="243.08" gradientUnits="userSpaceOnUse"><stop offset="0" stop-color="#ca7469"/><stop offset="1" stop-color="#a60000"/></linearGradient><linearGradient id="oxuscd" x1="74.18" x2="56.17" y1="250.45" y2="250.71" gradientUnits="userSpaceOnUse"><stop offset="0" stop-color="#ca7469"/><stop offset="1" stop-color="#a60000"/></linearGradient><linearGradient id="oxusce" x1="113.97" x2="110.39" y1="239.82" y2="253.32" gradientUnits="userSpaceOnUse"><stop offset="0" stop-color="#ca7469"/><stop offset="1" stop-color="#a60000"/></linearGradient><linearGradient id="oxuscf" x1="122.33" x2="117.48" y1="256.75" y2="275.07" gradientUnits="userSpaceOnUse"><stop offset="0" stop-color="#eac89a"/><stop offset="1" stop-color="#d1aa75"/></linearGradient><linearGradient id="oxuscg" x1="107.19" x2="132" y1="281.06" y2="280.16" gradientUnits="userSpaceOnUse"><stop offset="0" stop-color="#eac89a"/><stop offset="1" stop-color="#d1aa75"/></linearGradient><linearGradient id="oxusch" x1="101.46" x2="95.36" y1="271.41" y2="294.47" gradientUnits="userSpaceOnUse"><stop offset="0" stop-color="#eac89a"/><stop offset="1" stop-color="#d1aa75"/></linearGradient><linearGradient id="oxusci" x1="86.66" x2="104.09" y1="300.68" y2="299.18" gradientUnits="userSpaceOnUse"><stop offset="0" stop-color="#eac89a"/><stop offset="1" stop-color="#d1aa75"/></linearGradient><linearGradient id="oxuscj" x1="61.64" x2="55.49" y1="284.95" y2="308.18" gradientUnits="userSpaceOnUse"><stop offset="0" stop-color="#ca7469"/><stop offset="1" stop-color="#a60000"/></linearGradient><linearGradient id="oxusck" x1="50.02" x2="44.23" y1="298.96" y2="320.84" gradientUnits="userSpaceOnUse"><stop offset="0" stop-color="#ca7469"/><stop offset="1" stop-color="#a60000"/></linearGradient><linearGradient id="oxuscl" x1="48.04" x2="41.51" y1="306.46" y2="331.11" gradientUnits="userSpaceOnUse"><stop offset="0" stop-color="#ca7469"/><stop offset="1" stop-color="#a60000"/></linearGradient><linearGradient id="oxuscm" x1="81.82" x2="75.84" y1="290.94" y2="313.5" gradientUnits="userSpaceOnUse"><stop offset="0" stop-color="#eac89a"/><stop offset="1" stop-color="#d1aa75"/></linearGradient><linearGradient id="oxuscn" x1="35.21" x2="22.55" y1="336.91" y2="333.91" gradientUnits="userSpaceOnUse"><stop offset="0" stop-color="#ca7469"/><stop offset="1" stop-color="#a60000"/></linearGradient><linearGradient id="oxusco" x1="67.32" x2="54.8" y1="330.64" y2="318.99" gradientUnits="userSpaceOnUse"><stop offset="0" stop-color="#eac89a"/><stop offset="1" stop-color="#d1aa75"/></linearGradient><linearGradient id="oxuscp" x1="63" x2="51.14" y1="338.32" y2="333.4" gradientUnits="userSpaceOnUse"><stop offset="0" stop-color="#eac89a"/><stop offset="1" stop-color="#d1aa75"/></linearGradient><linearGradient id="oxuscq" x1="36.42" x2="35.33" y1="347.72" y2="337.78" gradientUnits="userSpaceOnUse"><stop offset="0" stop-color="#eac89a"/><stop offset="1" stop-color="#d1aa75"/></linearGradient><linearGradient id="oxuscr" x1="82.77" x2="96.26" y1="238.94" y2="248.36" gradientUnits="userSpaceOnUse"><stop offset="0" stop-color="#eac89a"/><stop offset="1" stop-color="#d1aa75"/></linearGradient><linearGradient id="oxuscs" x1="117.99" x2="132.52" y1="277.56" y2="276.31" gradientUnits="userSpaceOnUse"><stop offset="0" stop-color="#ca7469"/><stop offset="1" stop-color="#a60000"/></linearGradient><linearGradient id="oxusct" x1="135.08" x2="118.8" y1="289.16" y2="280.71" gradientUnits="userSpaceOnUse"><stop offset="0" stop-color="#ca7469"/><stop offset="1" stop-color="#a60000"/></linearGradient><linearGradient id="oxuscu" x1="119.96" x2="123.09" y1="294.97" y2="285.84" gradientUnits="userSpaceOnUse"><stop offset="0" stop-color="#ca7469"/><stop offset="1" stop-color="#a60000"/></linearGradient><linearGradient id="oxuscv" x1="90.61" x2="110.09" y1="311.56" y2="306.51" gradientUnits="userSpaceOnUse"><stop offset="0" stop-color="#ca7469"/><stop offset="1" stop-color="#a60000"/></linearGradient><linearGradient id="oxuscw" x1="119.42" x2="121.57" y1="292.51" y2="331.84" gradientUnits="userSpaceOnUse"><stop offset="0" stop-color="#ca7469"/><stop offset="1" stop-color="#a60000"/></linearGradient><linearGradient id="oxuscx" x1="86.62" x2="66.65" y1="314.86" y2="319.96" gradientUnits="userSpaceOnUse"><stop offset="0" stop-color="#eac89a"/><stop offset="1" stop-color="#d1aa75"/></linearGradient><linearGradient id="oxuscy" x1="112.45" x2="111.69" y1="244.59" y2="237.61" gradientUnits="userSpaceOnUse"><stop offset="0" stop-color="#ca7469"/><stop offset="1" stop-color="#a60000"/></linearGradient><linearGradient id="oxuscz" x1="103.6" x2="102.53" y1="244.44" y2="234.65" gradientUnits="userSpaceOnUse"><stop offset="0" stop-color="#eac89a"/><stop offset="1" stop-color="#d1aa75"/></linearGradient><linearGradient id="oxuscA" x1="83.28" x2="76.02" y1="335.98" y2="313.38" gradientUnits="userSpaceOnUse"><stop offset="0" stop-color="#ca7469"/><stop offset="1" stop-color="#a60000"/></linearGradient><linearGradient id="oxuscB" x1="99.88" x2="92.61" y1="330.64" y2="308.04" gradientUnits="userSpaceOnUse"><stop offset="0" stop-color="#ca7469"/><stop offset="1" stop-color="#a60000"/></linearGradient><linearGradient id="oxuscC" x1="79.15" x2="66.83" y1="345.46" y2="333.99" gradientUnits="userSpaceOnUse"><stop offset="0" stop-color="#ca7469"/><stop offset="1" stop-color="#a60000"/></linearGradient><linearGradient id="oxuscD" x1="28.02" x2="16.08" y1="335.42" y2="332.08" gradientUnits="userSpaceOnUse"><stop offset="0" stop-color="#ca7469"/><stop offset="1" stop-color="#a60000"/></linearGradient><linearGradient id="oxuscE" x1="20.14" x2="9.03" y1="362.43" y2="359.33" gradientUnits="userSpaceOnUse"><stop offset="0" stop-color="#ca7469"/><stop offset="1" stop-color="#a60000"/></linearGradient><linearGradient id="oxuscF" x1="115.28" x2="100.57" y1="222.76" y2="244" gradientUnits="userSpaceOnUse"><stop offset="0" stop-color="#eac89a"/><stop offset="1" stop-color="#d1aa75"/></linearGradient></defs><g><g><g><path fill="url(#oxusa)" d="M226.47 293.71s14.043-.83 13.175-4.768l-1.283-6.394z"/></g><g><g><g><path fill="#eac89a" d="M6.46 366.833a6.98 6.98 0 0 0 6.513-2.491c.004-.004.006-.01.01-.013a5.78 5.78 0 0 1 3.974-2.12l4.418-.397a9.514 9.514 0 0 0 6.387-3.304l2.7-3.171a6.005 6.005 0 0 1 5.02-2.092c1.04.077 2.15.396 3.118 1.182a1.568 1.568 0 0 0 2.287-.337c1.561-2.295 4.678-6.197 8.405-7.237a68.187 68.187 0 0 0 15.029-6.224c2.029-1.139 4.004-2.37 5.662-3.63a11.277 11.277 0 0 0 4.367-7.575c.279-2.22 1.378-5.202 5.205-5.724 5.889-.803 5.647 7.38-1.374 9.225a2.725 2.725 0 0 0-1.952 1.986l-.003.013a2.408 2.408 0 0 0 4.1 2.21l43.066-45.953a40.399 40.399 0 0 0 9.124-15.71l.003-.009a3.871 3.871 0 0 0-1.16-4.063 27.904 27.904 0 0 1-9.278-16.79L4.788 366.347a6.95 6.95 0 0 0 1.67.487z"/></g><g><path fill="#eac89a" d="M70.567 244.243a6.16 6.16 0 0 1-5.309.004c-2.956-1.412-7.913-3.495-12.675-4.195a11.154 11.154 0 0 0-9.1 2.763c-1.56 1.41-3.46 3.21-5.099 5.001a12.9 12.9 0 0 0-3.383 8.707v2.299c0 1.803.957 3.471 2.512 4.384 1.795 1.054 3.522 2.999 1.218 6.206a2.423 2.423 0 0 0-.05 2.755c.677 1.018 1.305 2.472.731 3.887-.214.527-.43 1.07-.644 1.616l37.082-35.328c-1.554.356-3.309.955-5.283 1.9z"/></g><g><path fill="#a60000" d="M37.883 279.965a153.216 153.216 0 0 0-5.3 16.855c-.269 1.07-.635 2.151-1.125 3.212a12.173 12.173 0 0 0-1.12 5.539c.146 4.437-.749 11.862-8.756 9.762a12.234 12.234 0 0 0-3.095-.402h-.022c-1.15 0-2.206.64-2.74 1.66-1.147 2.188-3.695 5.897-8.204 7.046a3.512 3.512 0 0 0-2.647 3.4v.01c0 .853.37 1.665 1.015 2.227l.03.026a9.436 9.436 0 0 1 2.717 10.097c-.363 1.077-.807 3.074-.199 5.332a2.475 2.475 0 0 1-1.062 2.732c-3.187 2.027-9.363 7.144-6.338 14.988a6.983 6.983 0 0 0 3.752 3.897L122.08 254.61a27.727 27.727 0 0 1-.318-5.388l.177-4.386a8.852 8.852 0 0 0-10.956-8.948c-.017.003-.033.008-.05.012a37.94 37.94 0 0 1-9.153 1.116c-3.967 0-9.651.797-14.079 4.605a4.732 4.732 0 0 1-4.659.874c-1.569-.556-3.931-.898-7.192-.153L38.768 277.67c-.298.756-.592 1.517-.87 2.256l-.015.039z"/></g></g></g><g><g><path fill="#a60000" d="M256.441 136.105c1.865-.229 3.942-1.174 5.46-3.801a1.068 1.068 0 0 0-.74-1.588l-1.706-.301a3.816 3.816 0 0 1-2.93-2.461 3.81 3.81 0 0 1 .232-3.097l-7.255 6.81c.41.536.821 1.119 1.23 1.757a5.927 5.927 0 0 0 5.71 2.68z"/></g><g><path fill="#a60000" d="M316.348 128.817a1.41 1.41 0 0 0 2.366-1.035v-5.243l-4.356 4.088c.658.83 1.325 1.575 1.99 2.19z"/></g><g><path fill="#002" d="M159.81 215.85l-4.767 4.474"/></g><g><path fill="#eac89a" d="M336.01 209.745a1.853 1.853 0 0 1 .778-1.32l.007-.004c.466-.326.765-.842.817-1.41.599-6.57.56-12.62.228-17.832l-34.338 32.23c6.878 3.198 12.754 7.851 16.676 11.424l15.616-14.658c-.23-3.533.051-6.908.215-8.43z"/></g><g><path fill="#eac89a" d="M272.731 218.492a30.22 30.22 0 0 0 2.828.385l78.551-73.726a11.046 11.046 0 0 0-4.228-6.09 264.246 264.246 0 0 1-10.053-7.581l-79.092 74.233z"/></g><g><path fill="#eac89a" d="M322.279 116.501a1.315 1.315 0 0 0-1.91.133l-.012.015a7.265 7.265 0 0 0-1.643 4.602v1.288l5.015-4.707a209.2 209.2 0 0 1-1.45-1.33z"/></g><g><path fill="#eac89a" d="M246.387 190.424l67.971-63.797c-3.61-4.555-6.919-11.662-7.923-13.91a.717.717 0 0 1 .411-.965l.117-.041a1.173 1.173 0 0 0 .696-1.535l-1.251-3.162-73.531 69.015z"/></g><g><path fill="#eac89a" d="M277.205 101.341l-.142-.113a1.174 1.174 0 0 0-1.726.297c-.693 1.104-1.81 1.64-2.767 1.9a2.333 2.333 0 0 0-1.72 2.127c-.133 2.487-1.334 3.785-2.617 4.462a2.024 2.024 0 0 1-2.964-1.68c-.076-1.36-.502-2.636-.871-3.509a.768.768 0 0 0-1.226-.271c-1.176 1.064-3.406 1.62-5.329 1.909a3.556 3.556 0 0 0-3.025 3.404c-.01.338-.031.658-.055.938a1.29 1.29 0 0 1-1.06 1.16 4.823 4.823 0 0 0-1.226.383 2.529 2.529 0 0 0 .514 4.747c.444.103.908.156 1.354.177a4.101 4.101 0 0 1 3.85 4.805l-.005.025a4.405 4.405 0 0 1-.985 2.083 3.795 3.795 0 0 0-.448.672l23.252-21.823a12.954 12.954 0 0 1-2.804-1.693z"/></g><g><path fill="#eac89a" d="M218.527 160.74l30.975-29.074c-6.8-8.898-13.538-4.374-15.9-2.279a1.443 1.443 0 0 1-2.213-.36 4.858 4.858 0 0 1-.51-1.392 4.753 4.753 0 0 0-2.024-2.974 15.556 15.556 0 0 1-.424-.294l-23.415 21.978z"/></g><g><path fill="#a60000" d="M232.877 176.03l73.53-69.016-.387-.98a3.03 3.03 0 0 0-2.204-1.852l-.54-.112a1.889 1.889 0 0 0-2.252 1.574l-.32 2.168a1.893 1.893 0 0 1-1.913 1.616l-3.24-.068a2.916 2.916 0 0 1-2.556-1.63l-.516-1.048a4.452 4.452 0 0 0-3.936-2.488l-3.46-.047a12.953 12.953 0 0 1-5.074-1.113l-23.252 21.823a3.81 3.81 0 0 0-.232 3.097 3.816 3.816 0 0 0 2.93 2.46l1.705.302a1.068 1.068 0 0 1 .74 1.588c-1.517 2.627-3.594 3.572-5.459 3.8a5.927 5.927 0 0 1-5.708-2.68 26.22 26.22 0 0 0-1.23-1.758l-30.976 29.074z"/></g><g><path fill="#a60000" d="M205.015 146.345l23.416-21.978a16.277 16.277 0 0 1-1.505-1.207 1.555 1.555 0 0 1 .4-2.569l.081-.036a1.006 1.006 0 0 0 .36-1.557 7.144 7.144 0 0 0-1.055-1.03 1.953 1.953 0 0 0-2.76.327c-.657.846-1.362 1.185-1.905 1.312a.695.695 0 0 1-.796-.954c.58-1.338 2.478-3.11 3.75-4.198a1.187 1.187 0 0 0-.103-1.881l-1.014-.69a1.279 1.279 0 0 0-1.333-.065 1.336 1.336 0 0 1-1.574-.219l-.72-.704a3.613 3.613 0 0 0-5.2.151l-7.902 8.683a3.801 3.801 0 0 1-3.877 1.092h-.002a2.36 2.36 0 0 0-2.575.886l-.004.004a2.583 2.583 0 0 0 .385 3.443l.13.114a2.023 2.023 0 0 1 0 3.029c-5.485 4.857-12.65 15.081-15.423 19.169a5.296 5.296 0 0 0-.852 3.778l.006.035a3.487 3.487 0 0 0 3.945 2.92c.022-.003.044-.002.066-.005a5.719 5.719 0 0 0-3.311 1.641 5.714 5.714 0 0 0-1.612 4.717c.165 1.332.136 2.68.063 3.72a4.057 4.057 0 0 1-1.38 2.772 11.02 11.02 0 0 0-1.579 1.713l23.88-22.414z"/></g><g><path fill="#a60000" d="M324.827 237.44c.347.382.84.598 1.354.598h.374c.2 0 .368-.154.384-.354.483-5.823 5.823-8.27 9.215-9.24a2.023 2.023 0 0 0 1.27-2.816c-1.003-2.105-1.458-4.823-1.63-7.453l-15.617 14.658a73.4 73.4 0 0 1 4.65 4.608z"/></g><g><path fill="#a60000" d="M260.737 205.713l79.091-74.233a312.066 312.066 0 0 1-16.1-13.648l-5.014 4.707v5.243a1.409 1.409 0 0 1-2.366 1.035c-.665-.615-1.332-1.36-1.99-2.19l-67.97 63.797z"/></g><g><path fill="#a60000" d="M280.973 219.004a.906.906 0 0 1 .931 1.047l-.011.074c-.06.384.044.776.29 1.078.244.304.605.489.994.51h.002a1.416 1.416 0 0 0 1.397-.897l.274-.697a3.81 3.81 0 0 1 3.573-2.417c5.289.037 10.414 1.537 15.079 3.706l34.338-32.229c-.499-7.813-1.66-13.74-2.34-16.685a6.04 6.04 0 0 1 3.666-6.978c1.334-.526 2.835-.893 4.27-1.149a13.914 13.914 0 0 0 9.53-6.617l.003-.005a11.029 11.029 0 0 0 1.531-5.606v-4.101c0-.988-.137-1.957-.39-2.887l-78.55 73.726c2.21.2 4.226.175 5.413.127z"/></g><g><path fill="#002" d="M191.136 272.447l-1.47-.028-28.565 26.812a38.93 38.93 0 0 0 9.256-1.36c6.774-1.854 17.334-2.864 24.633-3.373l6.614-6.207z"/></g><g><path fill="#002" d="M220.548 270.51l2.526-2.371-1.886.521z"/></g><g><path fill="#002" d="M226.868 238.915l10.261 7.754c.724-1.278 1.145-2.423 1.382-3.358a1.408 1.408 0 0 1 2.036-.891c.877.476 1.655.341 2.302-.048a2.32 2.32 0 0 0 .509-3.56c-1.024-1.108-1.532-2.683-1.782-3.854a.497.497 0 0 1 .772-.512c.546.384 1.154.581 1.727.671a1.343 1.343 0 0 0 1.525-1.62c-.174-.785-.246-1.67-.276-2.264a.352.352 0 0 1 .578-.29c.77.64 1.28 1.564 1.603 2.362a1.827 1.827 0 0 0 3.403-.035 4.056 4.056 0 0 0-.69-4.108 6.748 6.748 0 0 1-.642-.889 4.406 4.406 0 0 1-.603-2.856c.764-3.371 4.517 3.85 4.517 3.85l2.632.281a.697.697 0 0 1 .453 1.15l-.605.698c-.372.43-.564.985-.536 1.553.084 1.708 1.184 2.328 2.54 2.434l5.415-5.083v-7.088a.363.363 0 1 1 .72-.076l1.161 5.4 2.583-2.426-.014-.676a.27.27 0 0 1 .532-.075l.056.212 1.174-1.102a43.827 43.827 0 0 1-.76-4.711 1.592 1.592 0 0 1 2.017-1.7c.61.173 1.24.314 1.873.434l-11.994-12.78-33.804 31.729z"/></g><g><path fill="#002" d="M200.335 224.316l28.054-19.586-.12 2.7 18.118-17.006-13.51-14.395-46.052 43.224z"/></g><g><path fill="#002" d="M178.251 245.043l-4.198-13.803L137.019 266a21.203 21.203 0 0 0 9.692 5.481c4.305 1.092 7.174 2.506 9.078 3.977l3.84-3.604-2.703-.05z"/></g><g><path fill="#002" d="M205.016 146.345l-23.881 22.414a11.99 11.99 0 0 0-1.72 11.145c.726 2.07.798 3.54.717 4.438a.738.738 0 0 1-1.178.523c-.893-.674-1.517-1.627-1.939-2.497a1.514 1.514 0 0 0-2.228-.582c-2.282 1.585-6.188 1.907-8.937 1.91-.239.001-.471.024-.699.065l-3.163 2.97c-2.718 8.582-10.79 15.09-13.462 17.06a5.395 5.395 0 0 0-1.345 7.264c.392.611.846 1.192 1.307 1.72a4.148 4.148 0 0 0 5.74.497l.055-.044a1.008 1.008 0 0 1 1.572.409.767.767 0 0 0 1.269.243l.901-.954a.814.814 0 0 1 1.386.39c.204.958.332 1.794.4 2.534l58.716-55.11z"/></g><g><path fill="#002" d="M155.009 220.31a5.028 5.028 0 0 0-4.257.266l-.01.005a1.184 1.184 0 0 0-.453 1.64l.05.088a.853.853 0 0 1-.718 1.285c-5.954.13-6.922 2.596-6.813 4.425a4.404 4.404 0 0 1-1.549 3.623c-2.453 2.076-4.437 4.13-6.022 6.144a21.21 21.21 0 0 0-1.93 2.938l21.736-20.4c-.01-.005-.023-.008-.034-.013z"/></g><g><path fill="#002" d="M168.295 212.308l18.53 6.945 46.052-43.224-14.35-15.29-58.717 55.11c.513 5.611-2.597 5.32-4.767 4.475l-21.735 20.4a21.223 21.223 0 0 0-1.473 17.022A21.207 21.207 0 0 0 137.02 266l37.034-34.76z"/></g><g><path fill="#002" d="M165.151 183.76l-3.163 2.97z"/></g><g><path fill="#002" d="M205.016 146.345l-23.88 22.413-.001.001z"/></g><g><path fill="#002" d="M161.1 299.23l28.566-26.81-30.037-.566-3.84 3.604c1.167.903 1.972 1.826 2.519 2.71a5.345 5.345 0 0 1-.535 6.334c-.855.974-.423 1.779.108 2.29a2.2 2.2 0 0 0 1.468.617c3.824.103 5.584 1.183 6.387 2.243a1.02 1.02 0 0 1-1.097 1.597c-5.432-1.558-8.887-1.543-11.077-.96a4.143 4.143 0 0 0-3.064 3.648c-.06.686.056 1.357.312 1.964l1.964 2.093c.04.02.078.042.118.06 2.23 1.026 5.347 1.255 8.209 1.177z"/></g><g><path fill="#002" d="M226.933 237.44l33.804-31.727-14.35-15.29-18.118 17.007z"/></g><g><path fill="#002" d="M269.37 229.112c.117.443.474.78.923.873l.158.032a.583.583 0 0 0 .647-.806c-.66-1.478-1.142-3.139-1.497-4.742l-1.173 1.102z"/></g><g><path fill="#002" d="M261.128 234.988a3.049 3.049 0 0 0 2.26-2.948v-1.74l-5.414 5.083c1.014.078 2.17-.131 3.154-.395z"/></g><g><path fill="#002" d="M194.99 294.498c2.323-.162 4.318-.273 5.752-.345a2.305 2.305 0 0 0 2.192-2.355c-.011-.516.012-.98.062-1.401l-1.392-2.106z"/></g><g><path fill="#002" d="M231.051 270.361c-1.904.284-3.773.191-5.072.05a1.098 1.098 0 0 1-.641-1.889c.783-.748 1.831-1.342 2.891-1.808l-5.155 1.425-2.526 2.371-6.693 19.341c.53.046 1.027.06 1.463.057a1.085 1.085 0 0 0 1.053-1.328 4.115 4.115 0 0 1 3.406-4.9 10.002 10.002 0 0 1 2.383-.057 4.369 4.369 0 0 1 3.41 2.196l.002.004a4.388 4.388 0 0 1-.373 4.878c-.713.904-.427 1.689.085 2.27.322.365.737.615 1.187.738l11.891-11.161-2.948-9.447a3.955 3.955 0 0 0-4.363-2.74z"/></g><g><path fill="#002" d="M265.438 229.315a1.211 1.211 0 0 0 1.334.948h.003c.66-.084 1.15-.65 1.136-1.315l-.058-2.837-2.583 2.424z"/></g><g><path fill="#eac89a" d="M201.604 288.291l18.944-17.78.64-1.85 1.886-.522 7.017-6.586a314.687 314.687 0 0 1-3.928-6.007.532.532 0 0 1 .448-.818h.144a7.23 7.23 0 0 0 4.393-1.492c3.034-2.324 4.869-4.602 5.981-6.567l-10.261-7.754.065-1.474-37.267 34.979 1.47.027z"/></g><g><path fill="#eac89a" d="M228.389 204.73l-28.054 19.586-13.51-5.063-12.772 11.987 4.198 13.803-21.325 26.76 2.703.05 68.64-64.424z"/></g><g><path fill="#eac89a" d="M174.053 231.24l12.772-11.987-18.53-6.945z"/></g><g><path fill="#eac89a" d="M228.269 207.43l-68.64 64.424 30.037.566 37.267-34.979z"/></g><g><path fill="#eac89a" d="M231.453 264.827a1.775 1.775 0 0 0-.215-1.589c-.38-.553-.766-1.12-1.146-1.685l-7.018 6.586 5.155-1.425c.711-.313 1.427-.57 2.072-.77.54-.168.967-.582 1.152-1.117z"/></g><g><path fill="#eac89a" d="M201.604 288.291l1.392 2.106a7.45 7.45 0 0 1 .047-.346 3.437 3.437 0 0 1 5.618-2.06c1.48 1.256 3.506 1.717 5.194 1.86l6.693-19.34z"/></g></g><g><g><g><path fill="#eac89a" d="M214.894 32.945s-.036.088-.106.233l.01-.017c.064-.134.096-.216.096-.216z"/></g><g><path fill="#eac89a" d="M276.388 43.81c-.207.16-.357.373-.442.61l.81-.811c-.13.047-.255.113-.368.2z"/></g><g><path fill="#eac89a" d="M202.796 94.137c-.046-.102-.094-.198-.138-.303 0 0-.143-.338-.331-1.905.188 1.57.33 1.91.33 1.91.044.102.093.196.139.298z"/></g><g><path fill="#a60000" d="M275.946 44.42a1.36 1.36 0 0 0-.06.234l1.105-1.105c-.08.013-.158.033-.235.06z"/></g><g/><g><path fill="#eac89a" d="M202.658 93.834c.044.105.092.201.138.303-.046-.102-.095-.196-.139-.299 0 0-.142-.339-.33-1.909.188 1.567.331 1.905.331 1.905zm12.235-60.89h.001c0 .001-.032.083-.097.217-.002.006-.006.011-.01.017.07-.145.106-.234.106-.234zm-19.126 20.712a12.943 12.943 0 0 0-3.549 8.363c-.178 4.107-1.287 10.119-5.46 15.996a73.155 73.155 0 0 0-4.518 7.233c-5.364 9.844-17.645 32.362-24.96 45.633a54.896 54.896 0 0 0-6.243 18.542c-1.044 7.197-2.57 16.937-4.118 24.023l42.876-42.876 4.568-6.425a5.964 5.964 0 0 0 .909-4.962l-.009-.034a4.859 4.859 0 0 1 .659-3.922c2.085-3.13 6.372-10.009 9.087-17.42a16.32 16.32 0 0 0 1.778 1.895 9.356 9.356 0 0 0 14.711-2.845l.019-.037a2.683 2.683 0 0 1 2.389-1.516l1.167-.012 50.872-50.872a1.347 1.347 0 0 1 .811-.811l13.634-13.634a4.004 4.004 0 0 0-2.122-1.593l-20.025-6.339a9.685 9.685 0 0 1-6.34-6.436c-2.697-8.96-7.954-6.356-11.027-3.79a6.087 6.087 0 0 1-6.027 1.025l-8.834-3.305-34.8 34.8a12.088 12.088 0 0 1-1.577 4.198c-.96 1.575-2.255 3.42-3.87 5.121z"/></g><g><path fill="#a60000" d="M227.084 95.273a3.301 3.301 0 0 1 2.925 1.706c.336.61.77 1.147 1.256 1.618a7.747 7.747 0 0 0 13.142-5.398c.02-.948.788-1.709 1.736-1.72l1.929-.025a1.79 1.79 0 0 1 1.813 1.835c-.027 1.149.094 2.067.311 2.8a3.352 3.352 0 0 0 6.54-1.345 8.201 8.201 0 0 0-.088-.564 2.742 2.742 0 0 1 1.383-2.924c1.088-.591 2.035-1.63 2.75-2.602a.707.707 0 0 1 1.274.427c-.031 2.798.356 4.757.734 5.992a2.763 2.763 0 0 0 2.74 1.956c2.154-.074 2.67-1.695 2.75-2.914.066-1 .606-1.91 1.454-2.444 2.51-1.585 5.057-2.076 7.074-2.144a7.665 7.665 0 0 1 5.601 2.164c3.156 3.069 7.092 5.09 9.27 6.063.96.428 2.085.193 2.791-.585l.013-.014a.979.979 0 0 0-.329-1.553c-1.299-.575-2.578-1.354-3.696-2.127a4.144 4.144 0 0 1-1.408-5.13c.574-1.254-.374-2.094-1.408-2.61a4.529 4.529 0 0 1-2.34-2.838c-.669-2.408-1.916-3.045-3.029-3.056a3.967 3.967 0 0 1-3.828-3.073c-.346-1.494-.476-3.042-.506-4.389-.03-1.437.05-2.891.244-4.315 1.029-7.606-1.154-18.175-2.28-22.872a1.346 1.346 0 0 1-.016-.538l-50.637 50.637z"/></g><g><path fill="#a60000" d="M277.848 43.684c5.225 2.77 8.041 10.245 9.133 13.851a1.526 1.526 0 0 0 2.98-.313c.07-.813-.071-1.701-.242-2.419a1.66 1.66 0 0 1 .806-1.83c1.105-.617 1.776-1.77 2.168-2.741a8.012 8.012 0 0 0 .534-2.15c.555-5.298 2.529-6.229 3.473-6.364a2.962 2.962 0 0 0 1.318-.536c1.791-1.303 1.57-2.141.846-2.663a2.01 2.01 0 0 1-.625-2.537c.425-.846.32-1.582.043-2.16a2.552 2.552 0 0 0-2.43-1.444c-2.717.137-3.357 2.473-3.473 4.08a2.882 2.882 0 0 1-1.278 2.188c-1.938 1.29-3.538 3.556-4.325 4.803a.816.816 0 0 1-1.267.141l-2.394-2.395a.814.814 0 0 1 .38-1.368c3.448-.857 5.654-3.302 7.009-5.576a4.009 4.009 0 0 0 .3-3.475 3.982 3.982 0 0 0-.35-.69l-13.463 13.463c.287-.049.588-.007.857.135z"/></g><g><path fill="#a60000" d="M145.556 178.895a7.51 7.51 0 0 0 .61 5.77c1.577 2.875 4.798 5.363 10.85-1.33a8.39 8.39 0 0 1 5.87-2.755c6.193-.259 18.001-3.355 13.544-23.945a27.415 27.415 0 0 0-.134-.586c-.159-.665-.908-4.767 3.005-10.698.117-.177.244-.362.367-.535l9.698-13.641-42.495 42.495c-.44 2.001-.883 3.784-1.315 5.225z"/></g><g><path fill="#a60000" d="M276.756 43.609c.077-.027.156-.047.235-.06l13.464-13.464c-.023-.036-.042-.074-.065-.11z"/></g><g><path fill="#a60000" d="M225.073 95.292l.176-.001 50.637-50.637a1.35 1.35 0 0 1 .06-.234z"/></g><g><path fill="#a60000" d="M146.92 173.447l-.05.223 42.496-42.495.43-.605z"/></g><g><path fill="#a60000" d="M218.753 3.078a2.79 2.79 0 0 0-3.716 2.086c-1.802 9.336-5.48 20.542-7.081 25.213a3.691 3.691 0 0 0-.171 1.647c-.156.057-6.496 2.44-6.381 10.019.011.7-.047 1.398-.155 2.085L235.887 9.49z"/></g></g></g><g><g><path fill="#a60000" d="M299.193 61.362c.565-5.25-2.11-7.7-3.974-8.754a.795.795 0 0 0-1.158.895l.005.019c.509 1.925.525 3.958.058 5.895-1.043 4.324.464 7.133 1.847 8.695a2.566 2.566 0 0 0 4.376-2.446 6.773 6.773 0 0 0-.548-1.271 5.158 5.158 0 0 1-.606-3.033z"/></g><g><path fill="#a60000" d="M306.576 61.249c2.619 3.53 3.29 2.288 3.458 1.246.072-.45-.045-.91-.324-1.27-.593-.767-.889-1.612-1.012-2.421a5.66 5.66 0 0 1 1.265-4.49c1.619-1.926.408-3.545-1.024-4.618a2.27 2.27 0 0 0-3.544 1.198c-1.355 4.786.268 8.653.834 9.788.099.198.215.389.347.567z"/></g><g><path fill="#eac89a" d="M231.422 103.35a2.273 2.273 0 0 0-3.221 1.308l-.156.478a6.15 6.15 0 0 0 .462 4.856 6.147 6.147 0 0 0 3.847 2.995c3.054.791 6.425.367 6.425.367 8.52-1.051-2.256-7.322-7.357-10.004z"/></g><g><path fill="#002" d="M259.902 240.949a2.482 2.482 0 0 0-3.078-.107l-3.48 2.56a3.196 3.196 0 0 0-1.287 2.257v.003a1.605 1.605 0 0 0 1.597 1.766h2.469c1.035 0 2.01-.492 2.626-1.325l1.514-2.048a2.289 2.289 0 0 0-.36-3.105z"/></g><g><path fill="#002" d="M264.007 245.471l-1.407.098a.8.8 0 0 0-.747.798v3.292a.486.486 0 0 0 .893.266l2.039-3.127a.858.858 0 0 0-.778-1.327z"/></g><g><path fill="#002" d="M250.041 251.619l-.001.001a5.048 5.048 0 0 0-.61 2.138l-.124 2.236a1.018 1.018 0 0 0 1.279 1.037l8.53-2.29a.963.963 0 0 0 .443-1.598l-1.892-1.966a4.402 4.402 0 0 0-2.311-1.265h-.002a10.559 10.559 0 0 0-2.083-.209h-.003a3.675 3.675 0 0 0-3.226 1.916z"/></g><g><path fill="#002" d="M244.872 249.735c-2.122.336-3.649 1.585-4.698 2.889a8.689 8.689 0 0 0-1.922 5.454v.024a1.07 1.07 0 0 0 1.463.997l3.742-1.475a3.714 3.714 0 0 0 2.249-2.578l.846-3.489a1.488 1.488 0 0 0-1.68-1.822z"/></g><g><path fill="#002" d="M255.43 261.843l-2.595.41a1.509 1.509 0 0 0-1.177 2.004l1.133 3.103a1.006 1.006 0 0 0 1.553.45l1.101-.85a3.24 3.24 0 0 0 1.264-2.567v-1.457a1.109 1.109 0 0 0-1.28-1.093z"/></g><g><path fill="#002" d="M258.833 262.252a1.258 1.258 0 0 0-.481.99v2.052c0 .651-.237 1.282-.667 1.771l-.004.004a.944.944 0 0 0-.054 1.175l1.095 1.514a1.24 1.24 0 0 0 1.68.311l.628-.41a5.069 5.069 0 0 0 2.096-2.811l.636-2.155a1.608 1.608 0 0 0-1.162-2.02l-2.692-.654a1.256 1.256 0 0 0-1.075.233z"/></g><g><path fill="#002" d="M248.123 272.194a1.5 1.5 0 0 0 .126 2.201l2.403 1.985c.729.601 1.766.652 2.549.124l1.525-1.028a1.062 1.062 0 0 0-.06-1.794l-3.343-1.94a2.614 2.614 0 0 0-3.198.449z"/></g><g><path fill="#002" d="M244.146 287.24a2.118 2.118 0 0 0-.708 2.148l.005.02a1.428 1.428 0 0 0 2.376.684c1.605-1.543 1.776-4.823 1.777-6.142 0-.538-.113-1.077-.327-1.571a3.418 3.418 0 0 0-.468-.793 2.347 2.347 0 0 0-4.174 1.47v.046a1.082 1.082 0 0 0 1.93.671.563.563 0 0 1 .978.248c.315 1.46-.59 2.561-1.389 3.22z"/></g><g><path fill="#002" d="M277.931 253.344a1.462 1.462 0 0 1 2.193-.429l.002.002a.995.995 0 0 0 1.607-.609c.244-1.431-.145-2.915-.617-4.073a2.07 2.07 0 0 0-2.648-1.159 3.89 3.89 0 0 1-.31.102 2.516 2.516 0 0 1-3.19-2.296l-.096-1.943a1.304 1.304 0 0 0-2.128-.943l-.007.004a1.963 1.963 0 0 1-2.698-.2l-.002-.003a1.046 1.046 0 0 0-1.82.703v3.566c0 2.241-.545 4.46-1.574 6.452a12.358 12.358 0 0 0-1.366 6.133 3.13 3.13 0 0 0 3.451 3.001c2.626-.277 4.317 1.075 5.312 2.363a7.24 7.24 0 0 1 1.418 3.234c.853 5.047-1.873 7.767-4.398 9.177a.833.833 0 0 0 .493 1.555c9.392-.98 7.415-12.118 6.101-16.944a4.656 4.656 0 0 1 .855-4.133l.005-.007a.816.816 0 0 0-.433-1.303.981.981 0 0 1-.609-1.42z"/></g><g><path fill="#002" d="M261.92 277.147c-.527.436-1.073.89-1.558 1.294a.667.667 0 0 0 .464 1.176l1.75-.098a1.259 1.259 0 0 1 1.248 1.7l-.001.002a1.874 1.874 0 0 0 .458 2.014l.003.003c.89.851 2.296.84 3.173-.024l.002-.002a3.214 3.214 0 0 0 .08-4.5l-1.229-1.298a3.212 3.212 0 0 0-4.39-.267z"/></g><g><path fill="#002" d="M291.65 249.328a1.275 1.275 0 0 0-.963-.316l-1.941.178a2.764 2.764 0 0 0-1.653.751l-.002.003a5.672 5.672 0 0 0-1.412 6.067l1.151 3.127a.597.597 0 0 0 1.125-.02l.536-1.619a37.771 37.771 0 0 1 3.298-7.28l.003-.004a.707.707 0 0 0-.14-.886z"/></g><g><path fill="#002" d="M296.553 265.637l3.902-3.14a2.134 2.134 0 0 0 .33-2.995l-2.266-2.836a4.028 4.028 0 0 0-6.445.199l-1.514 2.155a3.747 3.747 0 0 0 .654 5.021l1.852 1.558a2.746 2.746 0 0 0 3.487.038z"/></g><g><path fill="#002" d="M290.518 265.32a3.296 3.296 0 0 0-2.404-.776 3.294 3.294 0 0 0-2.248 1.15l-.003.003a2.139 2.139 0 0 0 .34 3.09l.801.606a3.34 3.34 0 0 0 3.95.057l.001-.001a2.297 2.297 0 0 0 .159-3.621z"/></g><g><path fill="#a60000" d="M326.652 267.042a6.628 6.628 0 0 0-7.036-2.438c-.828.223-1.827.33-3.015.218a4.72 4.72 0 0 1-2.699-1.177l-.005-.004a5.98 5.98 0 0 0-4.724-1.476h-.002a1.204 1.204 0 0 0-.559 2.17 3.4 3.4 0 0 1 1.402 2.75v5.344a3.33 3.33 0 0 1-3.079 3.321c-2.81.212-6.29.06-4.62-2.29.495-.694.992-1.431 1.45-2.15l1.947-3.058a2.06 2.06 0 0 0-.895-2.985l-.004-.001a2.108 2.108 0 0 0-2.625.769l-3.963 6.057a16.92 16.92 0 0 0-2.22 5.03l-.002.002a.566.566 0 0 1-1.074.063l-.002-.006a4.37 4.37 0 0 0-4.108-2.791l-2.425.019a1.233 1.233 0 0 0-1.136 1.696c.165.408.325.86.446 1.313a2.53 2.53 0 0 1-3.095 3.097 2.945 2.945 0 0 0-2.167.254c-2.242 1.21-7.402 3.917-12.46 5.99a25.68 25.68 0 0 1-8.562 1.888l-.018.002a20.312 20.312 0 0 0-10.598 3.54l-8.957 6.143a11.823 11.823 0 0 1-6.198 2.062l-5.469.224a5.027 5.027 0 0 0-4.137 2.495l-.001.002a3.877 3.877 0 0 1-3.137 1.921l-3.42.188a2.343 2.343 0 0 1-1.986-.909l-.002-.002a1.174 1.174 0 0 0-1.589-.254c-1.065.724-2.694 1.817-2.801 1.817-.107 0-6.393 1.875-10.49 3.1a4.419 4.419 0 0 0-3.135 4.627l.006.062a2.304 2.304 0 0 0 3.259 1.889c3.353-1.538 9.468-3.862 17.85-5.08a73.952 73.952 0 0 0 14.476-3.634c7.775-2.824 19.095-7.272 26.81-11.763a42.544 42.544 0 0 1 3.103-1.64c4.437-2.114 15.537-7.17 22.008-8.088 0 0 5.92-.803 11.66-2.663 4.137-1.342 8.533-2 12.881-1.91 3.77.078 8.254-.329 11.122-2.269a6.261 6.261 0 0 1 3.314-1.073h.002a3.177 3.177 0 0 0 3.082-3.176v-.007c0-2.587-.835-5.106-2.382-7.18z"/></g><g><path fill="#a60000" d="M141.455 201.411a1.123 1.123 0 0 0 1.574.244l5.718-4.199a2.257 2.257 0 0 0 .035-3.61l-1.107-.845a2.255 2.255 0 0 0-2.989.222l-4.123 4.256a1.927 1.927 0 0 0-.172 2.476z"/></g><g><path fill="#a60000" d="M129.428 190.606a1.99 1.99 0 0 0 2.767.232l.776-.639a1.885 1.885 0 0 0 .214-2.708 2.185 2.185 0 0 0-3.095-.174l-.592.535a1.895 1.895 0 0 0-.161 2.65z"/></g><g><path fill="#a60000" d="M127.556 196.36l-1.954-1.642a1.084 1.084 0 0 0-1.393 0l-.003.003a1.31 1.31 0 0 0-.104 1.905l1.567 1.639a.987.987 0 0 0 1.36.064l.539-.468a.987.987 0 0 0-.012-1.501z"/></g><g><path fill="#eac89a" d="M210.992 104.337c-1.092-.318-2.285-.785-3.366-1.467a1.647 1.647 0 0 0-2.405.772c-.803 1.966-2.313 5.13-4.849 8.69a2.747 2.747 0 0 0 .366 3.605c.7.65 1.657 1.29 2.904 1.629.994.27 2.056-.04 2.75-.8 1.464-1.603 4.273-4.807 6.28-7.887a3.014 3.014 0 0 0-1.68-4.542z"/></g><g><path fill="url(#oxusb)" d="M248.914 160.977l-2.527 29.447 28.912-27.137z"/></g><g><path fill="url(#oxusc)" d="M248.914 160.977l23.928-22.459 2.458 24.77z"/></g><g><path fill="url(#oxusd)" d="M275.3 163.287l21.506-20.185-23.964-4.584z"/></g><g><path fill="url(#oxuse)" d="M275.3 163.287l4.68 24.314L300.6 168.3z"/></g><g><path fill="url(#oxusf)" d="M296.806 143.102l3.794 25.197-25.3-5.012z"/></g><g><path fill="url(#oxusg)" d="M246.387 190.424l14.35 15.289-2.86-26.073z"/></g><g><path fill="url(#oxush)" d="M257.877 179.64l22.103 7.961-19.243 18.112z"/></g><g><path fill="url(#oxusi)" d="M257.877 179.64l17.422-16.353 4.68 24.314z"/></g><g><path fill="url(#oxusj)" d="M248.914 160.977l-16.092 15.103 13.565 14.344z"/></g><g><path fill="url(#oxusk)" d="M296.806 143.102l3.794 25.197 22.324-20.953z"/></g><g><path fill="url(#oxusl)" d="M296.806 143.102l-.802-26.323-23.162 21.739z"/></g><g><path fill="url(#oxusm)" d="M296.004 116.779l18.354 9.848-17.552 16.475z"/></g><g><path fill="url(#oxusn)" d="M314.358 126.627l8.566 20.719-26.118-4.244z"/></g><g><path fill="url(#oxuso)" d="M322.924 147.346l-2.038-26.845 19.047 10.88z"/></g><g><path fill="url(#oxusp)" d="M260.737 205.713l30.167-1.238.623-27.682z"/></g><g><path fill="url(#oxusq)" d="M290.904 204.475l26.551-24.835-25.928-2.847z"/></g><g><path fill="url(#oxusr)" d="M260.737 205.713l11.994 12.779 3.4.433 14.773-14.45z"/></g><g><path fill="url(#oxuss)" d="M291.527 176.793l23.544-22.076 2.384 24.923z"/></g><g><path fill="url(#oxust)" d="M315.07 154.717l26.743 1.975-1.88-25.31z"/></g><g><path fill="url(#oxusu)" d="M341.813 156.692l-24.358 22.948-2.384-24.923z"/></g><g><path fill="url(#oxusv)" d="M341.813 156.692l11.99-11.253-13.87-14.057z"/></g><g><path fill="url(#oxusw)" d="M296.004 116.779l-4.994-11.568-11.059-2.123z"/></g><g><path fill="url(#oxusx)" d="M279.951 103.088l-7.109 35.43 23.162-21.74z"/></g><g><path fill="url(#oxusy)" d="M272.842 138.518l-14.965-14.712 22.074-20.718z"/></g><g><path fill="url(#oxusz)" d="M264.117 129.94l-15.203 31.037 23.928-22.459z"/></g><g><path fill="url(#oxusA)" d="M249.502 131.666l-15.099 14.173 14.511 15.138z"/></g><g><path fill="url(#oxusB)" d="M234.403 145.839l-1.58 30.241 16.091-15.103z"/></g><g><path fill="url(#oxusC)" d="M234.403 145.839l-15.876 14.9 14.295 15.341z"/></g><g><path fill="url(#oxusD)" d="M257.877 123.806l-1.383-14.575 14.57 2.198z"/></g><g><path fill="url(#oxusE)" d="M218.527 160.74l-13.511-14.395 12.883-12.093z"/></g><g><path fill="url(#oxusF)" d="M218.527 160.74l-.628-26.488 23.584 4.94z"/></g><g><path fill="url(#oxusG)" d="M217.899 134.252l10.531-9.884 1.261 12.355z"/></g><g><path fill="url(#oxusH)" d="M229.691 136.723l11.792-10.542v13.012z"/></g><g><path fill="url(#oxusI)" d="M241.483 126.181l8.02 5.485-8.02 7.527z"/></g><g><path fill="url(#oxusJ)" d="M290.904 204.475l28.572 1.947-2.02-26.782z"/></g><g><path fill="url(#oxusK)" d="M317.455 179.64l20.385 9.54-18.364 17.242z"/></g><g><path fill="url(#oxusL)" d="M290.904 204.475l12.766 16.875 15.806-14.928z"/></g><g><path fill="url(#oxusM)" d="M276.132 218.925l14.772-2.17v-12.28z"/></g><g><path fill="url(#oxusN)" d="M290.904 216.755l12.766 4.595-12.766-16.875z"/></g><g><path fill="url(#oxusO)" d="M317.455 179.64l16.226-15.286 4.16 24.825z"/></g><g><path fill="url(#oxusP)" d="M333.68 164.354l20.123-18.915-3.876 14.746z"/></g><g><path fill="url(#oxusQ)" d="M303.67 221.35l23.977 4.63-8.171-19.558z"/></g><g><path fill="url(#oxusR)" d="M303.67 221.35l16.508 11.483 7.47-6.853z"/></g><g><path fill="url(#oxusS)" d="M319.476 206.422l18.364-17.243.684 15.296z"/></g><g><path fill="url(#oxusT)" d="M338.524 204.475l-2.73 13.7-16.318-11.753z"/></g><g><path fill="url(#oxusU)" d="M319.476 206.422l8.171 19.558 8.147-7.805z"/></g><g><path fill="url(#oxusV)" d="M240.868 56.415l1.085 21.998 18.65-18.65z"/></g><g><path fill="url(#oxusW)" d="M219.722 77.44l22.23.973-1.084-21.998z"/></g><g><path fill="url(#oxusX)" d="M246.387 190.424L228.39 204.73l4.433-28.65z"/></g><g><path fill="url(#oxusY)" d="M228.389 204.73l32.348.983-14.35-15.29z"/></g><g><path fill="url(#oxusZ)" d="M228.389 204.73l-1.521 34.185 17.597-17.156z"/></g><g><path fill="url(#oxusaa)" d="M244.465 221.759l16.272-16.046-32.348-.983z"/></g><g><path fill="url(#oxusab)" d="M244.465 221.759l17.642 1.02-1.37-17.066z"/></g><g><path fill="url(#oxusac)" d="M226.868 238.915l14.92-4.476 2.677-12.68z"/></g><g><path fill="url(#oxusad)" d="M228.389 204.73l-28.054 19.586 3.162 24.298z"/></g><g><path fill="url(#oxusae)" d="M203.497 248.614l23.37-9.7 1.522-34.184z"/></g><g><path fill="url(#oxusaf)" d="M168.295 212.308l35.203 36.306-3.163-24.298z"/></g><g><path fill="url(#oxusag)" d="M168.295 212.308l9.956 32.735 25.247 3.571z"/></g><g><path fill="url(#oxusah)" d="M156.926 271.804l46.572-23.19-25.247-3.571z"/></g><g><path fill="url(#oxusai)" d="M156.926 271.804l34.21.643 12.362-23.833z"/></g><g><path fill="url(#oxusaj)" d="M203.497 248.614L201 290.868l-9.864-18.42z"/></g><g><path fill="url(#oxusak)" d="M203.497 248.614l7.907 42.054 9.784-22.008z"/></g><g><path fill="url(#oxusal)" d="M203.497 248.614l23.37-9.7 10.264 7.756z"/></g><g><path fill="url(#oxusam)" d="M203.497 248.614l22.648 6.39 10.986-8.334z"/></g><g><path fill="url(#oxusan)" d="M203.497 248.614l27.956 16.213-5.308-9.823z"/></g><g><path fill="url(#oxusao)" d="M203.497 248.614l27.956 16.213-10.265 3.833z"/></g><g><path fill="url(#oxusap)" d="M203.497 248.614l7.907 42.054-4.77 3.897-5.633-3.697z"/></g><g><path fill="url(#oxusaq)" d="M228.389 204.73l-13.263-12.399 17.696-16.25z"/></g><g><path fill="url(#oxusar)" d="M200.335 224.316l-16.02-28.615-16.02 16.607z"/></g><g><path fill="url(#oxusas)" d="M218.527 160.74l-16.301 18.083 12.9 13.508z"/></g><g><path fill="url(#oxusat)" d="M218.527 160.74l14.295 15.34-17.696 16.251z"/></g><g><path fill="url(#oxusau)" d="M215.126 192.331l-12.9-13.508-1.891 45.493 28.054-19.586z"/></g><g><path fill="url(#oxusav)" d="M184.315 195.7l17.91-16.877-1.89 45.493z"/></g><g><path fill="url(#oxusaw)" d="M202.226 178.823l2.79-32.478 13.51 14.395z"/></g><g><path fill="url(#oxusax)" d="M202.226 178.823l-15.261-15.536 18.05-16.942z"/></g><g><path fill="url(#oxusay)" d="M186.965 163.287l-8.081 8.019 23.342 7.517z"/></g><g><path fill="url(#oxusaz)" d="M178.884 171.306l5.43 24.395 17.912-16.878z"/></g><g><path fill="url(#oxusaA)" d="M168.295 212.308l-8.4-22.408 24.42 5.8z"/></g><g><path fill="url(#oxusaB)" d="M159.895 189.9l24.42 5.8-11.665-17.305z"/></g><g><path fill="url(#oxusaC)" d="M168.294 212.308l-20.244 2.507-2.178-10.902z"/></g><g><path fill="url(#oxusaD)" d="M145.872 203.913l14.023-14.013 8.4 22.408z"/></g><g><path fill="url(#oxusaE)" d="M205.016 146.345l-2.79-22.539 26.204.562z"/></g><g><path fill="url(#oxusaF)" d="M202.226 123.806l13.636-13.417 12.568 13.979z"/></g><g><path fill="url(#oxusaG)" d="M202.226 123.806l-16.7 18.1 19.49 4.439z"/></g><g><path fill="url(#oxusaH)" d="M185.526 141.907l-6.642 29.399 26.132-24.961z"/></g><g><path fill="url(#oxusaI)" d="M159.43 213.405l18.821 31.638-9.956-32.735z"/></g><g><path fill="url(#oxusaJ)" d="M150.348 223.157l27.903 21.886-38.23-12.317z"/></g><g><path fill="url(#oxusaK)" d="M178.251 245.043l-18.821-31.637-1.347 15.818z"/></g><g><path fill="url(#oxusaL)" d="M140.02 232.726l-6.732 8.017 44.963 4.3z"/></g><g><path fill="url(#oxusaM)" d="M133.288 240.743l-2.52 8.472 47.483-4.172z"/></g><g><path fill="url(#oxusaN)" d="M130.768 249.215l1.786 10.359 45.697-14.531z"/></g><g><path fill="url(#oxusaO)" d="M132.554 259.574l9.905 10.328 35.792-24.86z"/></g><g><path fill="url(#oxusaP)" d="M142.46 269.902l12.05 4.67 23.741-29.53z"/></g><g><path fill="url(#oxusaQ)" d="M154.51 274.573l8.409 4.191 28.217-6.317-34.304-.643z"/></g><g><path fill="url(#oxusaR)" d="M158.936 279.656l8.516 10.833 23.684-18.042z"/></g><g><path fill="url(#oxusaS)" d="M167.452 290.49l8.781 4.892 14.903-22.935z"/></g><g><path fill="url(#oxusaT)" d="M191.136 272.447l-.913 22.118-15.569 2.324z"/></g><g><path fill="url(#oxusaU)" d="M191.136 272.447l15.498 22.118h-16.411z"/></g><g><path fill="url(#oxusaV)" d="M211.404 290.668s2.472.054 5.164-.851c5.289-1.778 4.62-21.157 4.62-21.157z"/></g><g><path fill="url(#oxusaW)" d="M217.741 284.868l8.017-3.4-4.57-12.808z"/></g><g><path fill="url(#oxusaX)" d="M225.758 281.468l10.768-4.804-15.338-8.004z"/></g><g><path fill="url(#oxusaY)" d="M225.758 281.468l2.17 10.872 9.203-4.208z"/></g><g><path fill="url(#oxusaZ)" d="M236.526 276.664l3.158 12.847-13.926-8.043z"/></g><g><path fill="url(#oxusba)" d="M236.015 9.537l-18.116-6.635 1.823 22.993z"/></g><g><path fill="url(#oxusbb)" d="M217.899 2.902l-17.873 17.07 19.696 5.923z"/></g><g><path fill="url(#oxusbc)" d="M200.026 19.973l1.23 17.438v6.71l18.466-18.226z"/></g><g><path fill="url(#oxusbd)" d="M219.722 77.44l5.35 17.852 16.88-16.88z"/></g><g><path fill="url(#oxusbe)" d="M219.722 77.44L217.9 54.566l22.97 1.849z"/></g><g><path fill="url(#oxusbf)" d="M240.868 56.415L255.814 41.7l4.788 18.063z"/></g><g><path fill="url(#oxusbg)" d="M255.814 41.7l18.097 4.755-13.309 13.308z"/></g><g><path fill="url(#oxusbh)" d="M240.868 56.415l-3.503-20.91 18.449 6.195z"/></g><g><path fill="url(#oxusbi)" d="M217.899 54.566l19.466-19.06 3.503 20.909z"/></g><g><path fill="url(#oxusbj)" d="M237.365 35.505l15.147-14.602 3.302 20.797z"/></g><g><path fill="url(#oxusbk)" d="M273.91 46.455l-2.712-19.017L255.814 41.7z"/></g><g><path fill="url(#oxusbl)" d="M252.512 20.903l18.686 6.535L255.814 41.7z"/></g><g><path fill="url(#oxusbm)" d="M271.198 27.438l19.192 2.537-16.48 16.48z"/></g><g><path fill="url(#oxusbn)" d="M271.198 27.438l-5.241-18.754-13.445 12.22z"/></g><g><path fill="url(#oxusbo)" d="M271.198 27.438l-5.241-18.754 24.433 21.291z"/></g><g><path fill="url(#oxusbp)" d="M219.722 25.895l24.094 3.391-7.801-19.75z"/></g><g><path fill="url(#oxusbq)" d="M236.015 9.537l29.942-.853-22.141 20.602z"/></g><g><path fill="url(#oxusbr)" d="M219.722 25.895l6.966 20.065 17.128-16.674z"/></g><g><path fill="url(#oxusbs)" d="M201.257 44.12l25.431 1.84-6.966-20.065z"/></g><g><path fill="url(#oxusbt)" d="M241.953 78.413h20.6l-1.951-18.65z"/></g><g><path fill="url(#oxusbu)" d="M262.553 78.413L278.41 61.78l-17.809-2.017z"/></g><g><path fill="url(#oxusbv)" d="M241.953 78.413v20.402l-16.88-3.523z"/></g><g><path fill="url(#oxusbw)" d="M241.953 98.815l20.6-20.402h-20.6z"/></g><g><path fill="url(#oxusbx)" d="M262.553 78.413h16.711l-.853-16.633z"/></g><g><path fill="url(#oxusby)" d="M279.264 78.413l-15.632 17.95-1.08-17.95z"/></g><g><path fill="url(#oxusbz)" d="M279.264 78.413l.687 11.675-11.037.21z"/></g><g><path fill="url(#oxusbA)" d="M201.257 44.12l.969 25.976 24.462-24.136z"/></g><g><path fill="url(#oxusbB)" d="M196.734 75.2l22.988 2.24-1.823-22.808z"/></g><g><path fill="url(#oxusbC)" d="M196.734 75.2v24.636l22.988-22.396z"/></g><g><path fill="url(#oxusbD)" d="M196.734 75.2L176.18 96.364l20.554 3.473z"/></g><g><path fill="url(#oxusbE)" d="M196.734 99.836l-48.071 47.51 27.517-50.983z"/></g><g><path fill="url(#oxusbF)" d="M176.18 96.363v23.774l20.554-20.3z"/></g><g><path fill="url(#oxusbG)" d="M201.257 44.12l-7.49 12.295 8.45 13.457z"/></g><g><path fill="url(#oxusbH)" d="M196.734 99.836l28.339-4.544-5.35-17.852z"/></g><g><path fill="url(#oxusbI)" d="M148.663 147.346l-1.792 26.323 16.572-17.063z"/></g><g><path fill="url(#oxusbJ)" d="M148.663 147.346l14.78-14.608v23.868z"/></g><g><path fill="url(#oxusbK)" d="M163.443 132.738l19.315 4.87-19.315 18.998z"/></g><g><path fill="url(#oxusbL)" d="M182.758 137.608l3.699-27.615-23.014 22.745z"/></g><g><path fill="url(#oxusbM)" d="M146.87 173.67l17.518 5.153-.945-22.217z"/></g><g><path fill="url(#oxusbN)" d="M163.443 156.606l13.966 8.593-13.02 13.624z"/></g><g><path fill="url(#oxusbO)" d="M177.409 165.2l5.349-27.592-19.315 18.998z"/></g><g><path fill="url(#oxusbP)" d="M146.87 173.67l1.793 13.086 15.725-7.933z"/></g><g><path fill="#a60000" d="M200.025 19.973s-1.957-13.013 1.232-18.296c2.138-3.545 5.255 7.007 7.393 1.225 0 0 2.253-4.157 9.249 0z"/></g></g><g><g><g><path fill="url(#oxusbQ)" d="M122.093 254.746l-23.249-5.858 6.96 21.228z"/></g><g><path fill="url(#oxusbR)" d="M98.844 248.888l-16.882 15.907 23.842 5.32z"/></g><g><path fill="url(#oxusbS)" d="M81.962 264.795l3.484 24.713 20.358-19.392z"/></g><g><path fill="url(#oxusbT)" d="M81.962 264.795L63.615 283.01l21.831 6.498z"/></g><g><path fill="url(#oxusbU)" d="M63.615 283.01l1.915 25.471 19.916-18.973z"/></g><g><path fill="url(#oxusbV)" d="M63.615 283.01l-6.961-22.38 25.308 4.164z"/></g><g><path fill="url(#oxusbW)" d="M81.962 264.795l-6.972-22.002 23.854 6.095z"/></g><g><path fill="url(#oxusbX)" d="M56.654 260.63l18.336-17.837 6.972 22.002z"/></g><g><path fill="url(#oxusbY)" d="M38.767 277.67l24.848 5.34-6.961-22.38z"/></g><g><path fill="url(#oxusbZ)" d="M38.767 277.67l-7.085 18.58 31.933-13.24z"/></g><g><path fill="url(#oxusca)" d="M31.682 296.25l-3.749 18.064 35.682-31.304z"/></g><g><path fill="url(#oxuscb)" d="M38.767 277.67L35.126 259.5l21.528 1.13z"/></g><g><path fill="url(#oxuscc)" d="M35.126 259.501l21.528-18.72v19.85z"/></g><g><path fill="url(#oxuscd)" d="M56.654 240.781l18.336 2.012-18.336 17.837z"/></g><g><path fill="url(#oxusce)" d="M126.21 241.63l-4.117 13.116-23.249-5.858z"/></g><g><path fill="url(#oxuscf)" d="M105.804 270.116h25.988l-9.7-15.37z"/></g><g><path fill="url(#oxuscg)" d="M131.792 270.116l-24.575 21.925-1.413-21.925z"/></g><g><path fill="url(#oxusch)" d="M85.446 289.508l21.771 2.533-1.413-21.925z"/></g><g><path fill="url(#oxusci)" d="M85.446 289.508l2.472 22.343 19.3-19.81z"/></g><g><path fill="url(#oxuscj)" d="M48.524 296.25L65.53 308.48l-1.915-25.471z"/></g><g><path fill="url(#oxusck)" d="M27.933 314.314l37.597-5.833-17.006-12.232z"/></g><g><path fill="url(#oxuscl)" d="M27.933 314.314l15.84 14.894 21.757-20.727z"/></g><g><path fill="url(#oxuscm)" d="M87.918 311.85l-22.388-3.369 19.916-18.973z"/></g><g><path fill="url(#oxuscn)" d="M27.933 314.314l-9.885 39.402 25.725-24.507z"/></g><g><path fill="url(#oxusco)" d="M43.773 329.209l25.535 1.84-3.778-22.568z"/></g><g><path fill="url(#oxuscp)" d="M43.773 329.209l11.367 15.726 14.168-13.887z"/></g><g><path fill="url(#oxuscq)" d="M43.773 329.209l-25.725 24.507 37.092-8.78z"/></g><g><path fill="url(#oxuscr)" d="M74.99 242.793l11.26-10.726 12.594 16.821z"/></g><g><path fill="url(#oxuscs)" d="M131.792 270.116l4.357 12.146h-17.971z"/></g><g><path fill="url(#oxusct)" d="M118.178 282.262l15.248 13.483 2.723-13.483z"/></g><g><path fill="url(#oxuscu)" d="M107.217 292.041l26.21 3.704-15.25-13.483z"/></g><g><path fill="url(#oxuscv)" d="M87.918 311.85l19.3 10.62v-30.429z"/></g><g><path fill="url(#oxuscw)" d="M133.426 295.745l-26.209 26.726v-30.43z"/></g><g><path fill="url(#oxuscx)" d="M69.308 331.048l18.61-19.197-22.388-3.37z"/></g><g><path fill="url(#oxuscy)" d="M98.844 248.888l19.334-17.365 8.032 10.106z"/></g><g><path fill="url(#oxuscz)" d="M86.25 232.067l17.103-5.034 14.824 4.49-19.333 17.365z"/></g><g><path fill="url(#oxuscA)" d="M69.308 331.048l21.98 3.88-3.37-23.077z"/></g><g><path fill="url(#oxuscB)" d="M91.288 334.928l15.93-12.457-19.3-10.62z"/></g><g><path fill="url(#oxuscC)" d="M55.14 344.935l36.148-10.007-21.98-3.88z"/></g><g><path fill="url(#oxuscD)" d="M27.933 314.314L8.331 332.598l9.717 21.118z"/></g><g><path fill="url(#oxuscE)" d="M18.048 353.716L4.22 351.199l.632 15.088z"/></g></g><g><path fill="url(#oxuscF)" d="M98.844 248.888l4.509-21.855 14.825 4.49z"/></g></g></g></g></svg>