<svg xmlns="http://www.w3.org/2000/svg" width="579" height="456" viewBox="0 0 579 456"><g><g><path fill="#9ec5fd" d="M55.705 172.106a4.652 4.652 0 0 1 5.988-4.456 9.982 9.982 0 0 1-.103-1.429c0-5.442 4.411-9.854 9.854-9.854.62 0 1.226.06 1.814.17 1.514-2.478 4.238-4.14 7.355-4.14 4.718 0 8.546 3.792 8.616 8.494.048-.001.095-.007.143-.007a7.937 7.937 0 1 1 0 15.876H60.22l.006-.007a4.65 4.65 0 0 1-4.522-4.647z"/></g><g><g><path fill="#407bfc" d="M201.262 78.813c0-19.915 16.144-36.058 36.058-36.058s36.058 16.143 36.058 36.058c0 19.914-16.144 36.057-36.058 36.057s-36.058-16.143-36.058-36.057z"/></g><g><path fill="#9ec5fd" d="M241.736 115.683a8.706 8.706 0 0 0-8.706-8.706c-.869 0-1.707.132-2.499.37.126-.874.195-1.766.195-2.673 0-10.182-8.254-18.436-18.436-18.436-1.16 0-2.294.113-3.394.318-2.834-4.638-7.929-7.743-13.76-7.743-8.827 0-15.987 7.092-16.118 15.888-.091-.001-.178-.014-.269-.014-8.202 0-14.851 6.649-14.851 14.851 0 8.201 6.649 14.85 14.851 14.85h54.537l-.01-.011c4.693-.131 8.46-3.968 8.46-8.694z"/></g><g><path fill="#e0e0e0" d="M557.165 396.878v-57.502h-29.534v-59.345h-4.165v34.015h-11.359v-9.409h-20.446V272.07h-3.787v-39.805h-3.03v39.081h-7.193v57.898H464.02v-57.898h-24.612v48.964H413.57v-59.345h-4.165v34.014h-11.36v-9.408H377.6v-32.567h-3.787v-39.805h-3.029v39.08h-7.194v57.899h-13.631V252.28h-24.612v56.004H308.75v-32.568h-3.786v-39.804h-3.03v39.08h-7.194v57.898h-13.63v-57.897h-24.612v57.897H244.38v6.486h-21.226v-59.345h-4.165v34.015h-11.36v-9.409h-20.446V272.07h-3.787v-39.805h-3.029v39.081h-6.603v-3.258h-24.611v3.258h-13.631v-3.258h-7.194v-39.081h-3.03v39.804h-3.786v32.568h-20.446v9.408h-11.36v-34.015H85.54v59.345H56.007v60.761z"/></g><g><path fill="#9ec5fd" d="M412.119 176.957a7.605 7.605 0 0 1 9.79-7.284c-.111-.762-.171-1.541-.171-2.334 0-8.896 7.21-16.105 16.105-16.105 1.013 0 2.005.097 2.966.276 2.476-4.05 6.926-6.763 12.02-6.763 7.712 0 13.968 6.196 14.082 13.88.08-.002.156-.012.235-.012 7.164 0 12.974 5.808 12.974 12.973 0 7.166-5.81 12.974-12.974 12.974h-47.645l.009-.01c-4.1-.114-7.391-3.466-7.391-7.595z"/></g><g><path fill="#9ec5fd" d="M262.743 74.916a3.897 3.897 0 0 1 5.015-3.733 8.253 8.253 0 0 1 9.684-9.305 7.21 7.21 0 0 1 6.16-3.466 7.216 7.216 0 0 1 7.215 7.11c.04 0 .08-.004.121-.004a6.646 6.646 0 0 1 6.646 6.647 6.647 6.647 0 0 1-6.646 6.648h-24.414l.006-.006a3.893 3.893 0 0 1-3.787-3.89z"/></g><g><path fill="#9ec5fd" d="M130.036 28.657a3.898 3.898 0 0 0-5.016-3.732 8.252 8.252 0 0 0-9.686-9.307 7.209 7.209 0 0 0-6.158-3.466 7.22 7.22 0 0 0-7.216 7.113c-.04 0-.079-.007-.12-.007a6.648 6.648 0 1 0 0 13.296h24.413l-.005-.005a3.895 3.895 0 0 0 3.788-3.892z"/></g><g><path fill="#9ec5fd" d="M515.48 38.858a3.897 3.897 0 0 0-5.016-3.732 8.252 8.252 0 0 0-9.685-9.307 7.21 7.21 0 0 0-6.159-3.466 7.218 7.218 0 0 0-7.215 7.112c-.04 0-.079-.006-.12-.006a6.648 6.648 0 0 0 0 13.295h24.412l-.004-.005a3.894 3.894 0 0 0 3.787-3.891z"/></g><g><g><path fill="#f0f6ff" d="M.156 441.306c0-8.115 125.2-14.693 279.643-14.693 154.442 0 279.643 6.578 279.643 14.693 0 8.115-125.2 14.694-279.643 14.694C125.357 456 .156 449.421.156 441.306z"/></g></g><g><g><g><g><g><g><path fill="#407bff" d="M440.142 122.51l-4.788 6.682s2.232 24.474-11.121 20.529l1.025 24.304-3.932 3.076v45.17H377l1.376-19.672-4.282-.519 2.232-20.36-2.232-1.193-2.052-26.355-3.074-1.713 3.074-17.116-1.192-11.977 1.192-5.476-4.28-22.93-4.452-6.67 2.012-7.188s-2.18-16.765-1.324-24.98l-1.713-20.36h-1.025v-5.138s-4.27-2.154-1.363-5.956v-3.114l-4.8-3.413v-4.114h4.45l-.013-.013v-.012c-.233-.273-2.115-2.764-.662-6.307 1.532-3.763 8.214-2.907 9.24-7.695 0 0 4.632 5.346 2.308 10.783-.012.013-.012.04-.025.052-.454 1.077-1.194 2.154-2.284 3.192h3.931v4.114l-4.45 3.413v3.114s1.376 2.024 0 6.307c0 0 .35 7.863 1.713 11.795 1.363 3.945 1.713 11.134 1.713 11.134s1.544.843 4.788 14.883h3.257l1.467 8.383 5.891 4.62v-7.514l-1.375-.57-.17-1.882-4.346-.649 4.01-2.05.506-2.388-6.84-2.842h8.89l.856-.752-5.125-7.19 8.382 5.308 1.545-.688 1.128-12.145 2.803 12.833 2.401.169 7.358-5.307-3.945 7.772 1.375.779 9.577-1.882-7.358 5.074.169 1.61 7.189 2.348h-7.007s1.881 5.515-1.207 8.94l.687 4.789 2.57 1.375v2.738s6.332 3.413 7.189 4.27c.856.856 5.982 16.596 6.5 17.115.507.52 6.502-1.518 6.502-1.518s-.169-2.933 3.594-4.477c3.763-1.53 5.476-.856 5.476 2.4l2.388.17z"/></g><g opacity=".4"><path fill="#fff" d="M440.142 122.51l-4.788 6.682s2.232 24.474-11.121 20.529l1.025 24.304-3.932 3.076v45.17H377l1.376-19.672-4.282-.519 2.232-20.36-2.232-1.193-2.052-26.355-3.074-1.713 3.074-17.116-1.192-11.977 1.192-5.476-4.28-22.93-4.452-6.67 2.012-7.188s-2.18-16.765-1.324-24.98l-1.713-20.36h-1.025v-5.138s-4.27-2.154-1.363-5.956v-3.114l-4.8-3.413v-4.114h4.45l-.013-.013v-.012c-.233-.273-2.115-2.764-.662-6.307 1.532-3.763 8.214-2.907 9.24-7.695 0 0 4.632 5.346 2.308 10.783-.012.013-.012.04-.025.052-.454 1.077-1.194 2.154-2.284 3.192h3.931v4.114l-4.45 3.413v3.114s1.376 2.024 0 6.307c0 0 .35 7.863 1.713 11.795 1.363 3.945 1.713 11.134 1.713 11.134s1.544.843 4.788 14.883h3.257l1.467 8.383 5.891 4.62v-7.514l-1.375-.57-.17-1.882-4.346-.649 4.01-2.05.506-2.388-6.84-2.842h8.89l.856-.752-5.125-7.19 8.382 5.308 1.545-.688 1.128-12.145 2.803 12.833 2.401.169 7.358-5.307-3.945 7.772 1.375.779 9.577-1.882-7.358 5.074.169 1.61 7.189 2.348h-7.007s1.881 5.515-1.207 8.94l.687 4.789 2.57 1.375v2.738s6.332 3.413 7.189 4.27c.856.856 5.982 16.596 6.5 17.115.507.52 6.502-1.518 6.502-1.518s-.169-2.933 3.594-4.477c3.763-1.53 5.476-.856 5.476 2.4l2.388.17z"/></g></g><g><g opacity=".2"><path fill="#fff" d="M372.042 144.971l27.72-45.597 3.423 5.345s-8.899 26.695-9.583 34.566c-.685 7.872 9.583-20.533 9.583-20.533l6.16 11.634s-3.423 27.379 0 29.09c3.422 1.712 5.134-21.56 5.134-21.56l3.764 7.055 3.08 28.195s-9.582 1.027-13.347 0c-3.764-1.027-9.583 14.032-14.716 11.978-5.134-2.053-14.374 14.933-14.374 14.933l.685-18.698s11.979-12.49 14.374-23.186l-17.112 19.396-1.711-22.903 5.818-7.872-8.898 3.693z"/></g><g opacity=".2"><path fill="#fff" d="M386.416 71.83s5.475-7.938 16.084 0c0 0-2.909-7.938-8.812-7.938-5.51 0-7.272 7.938-7.272 7.938z"/></g><g opacity=".2"><path fill="#fff" d="M388.683 71.83s3.979-3.286 10.396 0v1.874s-3.467-.898-4.621-.512c-1.155.384-.578 5.005-.578 5.005h-1.475s.512-4.107-.129-4.75c-.64-.64-3.593.257-3.593.257z"/></g><g opacity=".2"><path fill="#fff" d="M375.72 73.704l-10.395 12.578 3.466 5.005 3.25-4.235v12.833l2.653 8.856 5.005-9.367-4.877 18.094 8.727-9.497-9.112 16.427 2.824 6.16 18.48-28.427-3.465-1.989-7.187 5.39-.256-8.342-3.337-.128-.128-10.395-4.107-2.567-2.824 4.492 1.925-8.342z"/></g><g opacity=".2"><path fill="#fff" d="M370.419 10.783c-.012.013-.012.04-.025.052-1.713 2.557-4.775 2.673-4.775 2.673 1.285-1.103 1.038-3.153 1.038-3.153-1.544 2.725-4.45 2.985-4.45 2.985-1.973-1.285-1.636-2.985-1.636-2.985-1.998 1.272-1.155 3.387-1.038 3.647-.233-.273-2.115-2.764-.662-6.307 1.532-3.763 8.214-2.907 9.24-7.695 0 0 4.632 5.346 2.308 10.783z"/></g></g><g><path fill="#407bff" d="M423.32 214.234h-49.51l-12.976 8.037v5.735h75.462v-5.735z"/></g><g opacity=".4"><path fill="#fff" d="M423.32 214.234h-49.51l-12.976 8.037v5.735h75.462v-5.735z"/></g><g opacity=".2"><path fill="#fff" d="M364.17 222.271h68.019l-8.87-8.037H373.81z"/></g></g><g><g><path fill="#407bff" d="M521.679 370.867v26.011h-248.12v-26.011c0-1.164.943-2.109 2.108-2.109h20.21v-11.244a2.11 2.11 0 0 1 2.11-2.108h23.143v-7.442a2.11 2.11 0 0 1 2.108-2.109h18.135v-12.69h2.686v-13.69h-2.907v-5.567h.441l9.317-7.721v-17.895h1.96v-40.019h-5.385v-5.125h-1.882v-5.139h9.499v-12.924h85.047v12.924h9.498v5.139h-1.881v5.125h-5.399v40.02h1.973v17.894l9.317 7.72h.441v5.567h-2.92v13.69h2.7v12.691h18.12a2.11 2.11 0 0 1 2.11 2.109v7.442h23.156a2.11 2.11 0 0 1 2.108 2.108v11.244h20.198a2.11 2.11 0 0 1 2.109 2.109z"/></g><g opacity=".2"><path fill="#fff" d="M521.679 370.867v26.011h-248.12v-26.011c0-1.164.943-2.109 2.108-2.109h20.21v-11.244a2.11 2.11 0 0 1 2.11-2.108h23.143v-7.442a2.11 2.11 0 0 1 2.108-2.109h18.135v-12.69h2.686v-13.69h-2.907v-5.567h.441l9.317-7.721v-17.895h1.96v-40.019h-5.385v-5.125h-1.882v-5.139h9.499v-12.924h85.047v12.924h9.498v5.139h-1.881v5.125h-5.399v40.02h1.973v17.894l9.317 7.72h.441v5.567h-2.92v13.69h2.7v12.691h18.12a2.11 2.11 0 0 1 2.11 2.109v7.442h23.156a2.11 2.11 0 0 1 2.108 2.108v11.244h20.198a2.11 2.11 0 0 1 2.109 2.109z"/></g><g><g opacity=".2"><path d="M347.478 244.51v-1.362h100.28v1.362z"/></g><g opacity=".2"><path d="M352.863 254.8v-6.527h89.498v6.527z"/></g><g opacity=".2"><path d="M352.863 288.292v-2.945h89.498v2.945z"/></g><g opacity=".2"><path d="M350.904 306.187v-2.79h93.429v2.79z"/></g><g opacity=".2"><path d="M344.052 324.405v-4.58h107.12v4.58z"/></g><g opacity=".2"><path d="M344.052 333.164v-2.05h107.12v2.05z"/></g><g opacity=".2"><path d="M321.123 355.406v-2.608h152.978v2.608z"/></g><g opacity=".2"><path d="M468.116 364.139v-4.022h-8.043v4.022H401.64v-4.022h-8.042v4.022h-58.434v-4.022h-8.042v4.022h-31.25v4.62h203.494v-4.62z"/></g><g opacity=".2"><path d="M401.277 238.01h38.865v-2.181h-38.865v-5.138h-7.318v5.138h-38.864v2.18h38.864z"/></g><g opacity=".2"><path d="M376.4 282.673v-21.595h11.293v21.595z"/></g><g opacity=".2"><path d="M391.972 282.673v-21.595h11.293v21.595z"/></g><g opacity=".2"><path d="M407.543 282.673v-21.595h11.294v21.595z"/></g><g opacity=".2"><path d="M393.597 346.07h8.042v-.215h52.231v-4.36h-52.23v-3.467h-8.043v3.467h-52.23v4.36h52.23z"/></g></g></g></g><g><g><path fill="#407bff" d="M566.267 388.07H49.423a8.635 8.635 0 0 0-6.012 2.437l-6.572 6.371h542.01l-6.57-6.371a8.635 8.635 0 0 0-6.012-2.437z"/></g><g opacity=".4"><path fill="#fff" d="M566.267 388.07H49.423a8.635 8.635 0 0 0-6.012 2.437l-6.572 6.371h542.01l-6.57-6.371a8.635 8.635 0 0 0-6.012-2.437z"/></g></g></g></g><g><g><g><path fill="#e4897b" d="M242.285 272.473l5.555-.434s1.828-2.158 2.71-2.446c.884-.288 7.09-1.858 7.667-1.56.575.3 1.06 7.066.518 8.62-.541 1.555-5.805 2.79-7.645 2.394-1.84-.396-3.158-1.437-3.158-1.437l-5.706.571z"/></g><g><g><path fill="#407bff" d="M277.26 238.353l12.133 1.408c9.197 1.068 29.73.84 30.587 2.014 2.908 3.989-4.157 38.673-4.157 38.673l-43.243-4.021s8.503-27.293 4.68-38.074z"/></g><g><g><path fill="#407bff" d="M248.796 282.417l-.856 3.506 45.57 3.594 25.614-46.853v-2.062z"/></g><g opacity=".4"><path fill="#fff" d="M248.796 282.417l-.856 3.506 45.57 3.594 25.614-46.853v-2.062z"/></g></g><g><g><path fill="#407bff" d="M246.897 284.452l29.759-47.509 42.468 3.66-27.036 47.09z"/></g><g opacity=".7"><path fill="#fff" d="M246.897 284.452l29.759-47.509 42.468 3.66-27.036 47.09z"/></g></g><g opacity=".2"><g opacity=".2"><path d="M302.09 258.926l-1.697.696a.647.647 0 0 0-.318.282c-.013.022-1.268 2.19-3.329 2.19-.248 0-.503-.03-.758-.092a.65.65 0 0 0-.693.273l-1.914 2.89-1.055.26a.652.652 0 0 0-.362.24l-3.899 5.192-2.522-.681h-6.273l5.179-4.338-5.095 2.128 1.63-1.652 4.883-3.672-4.89 2.755 1.634-2.778a.637.637 0 0 0 .062-.473l4.538-2.831-2.705.732.684-1.264.728-.592a.652.652 0 0 0 .2-.282l1.09-2.983a.65.65 0 0 0-.04-.533l-.232-.424.275-.202 3.394-1.908c.007.013.007.028.016.04a.649.649 0 0 0 .439.267l-.104.269a.65.65 0 0 0 .253.78l1.07.689 1.413 1.34-9.114 6.814a.322.322 0 0 0-.065.453c.063.087.161.131.26.131a.33.33 0 0 0 .195-.065l8.77-6.557 3.54-.681c.39.163.846.365 1.088.475.004.257-.012.663-.022.934-.022.592-.026.889.023 1.093l-.008-.003-3.062 2.032 1.531 1.37 1.933-1.027-1.326.043-.983-.257 2.555-1.653c.069.006.14.015.198.015.502 0 1.61-.099 1.657-.102a.65.65 0 0 0 .45-.24c.04-.033.273-.193.914-.268a7.44 7.44 0 0 1 .483-.041.623.623 0 0 0 .127.223zm-12.291-8.76a.635.635 0 0 0 .098-.13l1.502-2.613a.648.648 0 0 0 .072-.456l.112-.147a.669.669 0 0 0 .066-.635.62.62 0 0 0 .152-.145l.297-.394a.651.651 0 0 0 .048-.705l.017.001.044.002a.648.648 0 0 0 .627-.815c.032-.025.076-.056.137-.092.226-.137.72-.198 1.158-.25l.32-.041a3.887 3.887 0 0 1-.236.075.651.651 0 0 0-.424.842l-.393.096a.64.64 0 0 0-.365.24l-.297.396a.643.643 0 0 0-.131.39c-.044.05-.136.14-.318.264a.628.628 0 0 0-.177.18c-.176.27-.759 1.2-.79 1.848-.01.205-.283.757-.519 1.123a.651.651 0 0 0-.009.691c.007.107-.01.42-.163 1.058l-1.877.649c.32-.523.69-1.064 1.049-1.433zm4.065 2.628s1.948-1.694 2.813-.467c0 0-.057-.655-.497-.884l.176-.023a.662.662 0 0 0 .315-.131l.001.003c.108.16.28.266.473.285l.598.064a.62.62 0 0 0 .12 0c.065.141.18.255.325.32l.045.02a.603.603 0 0 0-.174.389c0 .013-.07.348-.725.57a.648.648 0 0 0-.381.347l-.172.378-2.555.388-.717-.786zm.26-.868a.66.66 0 0 0 .158-.192l.182.013.043.001a.659.659 0 0 0 .173-.023l.107-.03a8.14 8.14 0 0 0-.854.441c-.006-.013-.01-.027-.017-.04zm1.239-.588l.158.08a6.704 6.704 0 0 0-.323.111.629.629 0 0 0 .165-.19zm-29.456 27.784l-.422-.013 1.217-.884zm36.954-22.065c-.188 0-.425.017-.709.05-1.11.13-1.347.505-1.347.505s-1.12.1-1.6.1c-.115 0-.193-.006-.209-.02-.083-.074.104-2.161-.033-2.284-.138-.124-1.434-.667-1.434-.667l.262-.347-.527-.219.279-.62c1.117-.38 1.161-1.114 1.161-1.114l1.794.122-1.616-.423.11-.206 2.367-.515-2.631.071-.278-.122 1.75-.917-2.388.545-.599-.064.505-1.676-1.445 1.52-.462.061-1.64-.818.628 1-.292.08-2.275-.154 1.48.479-.358.295-1.22.19 1.049.159-.135.24.297.097-.716.952-1.068-.687.424-1.089-.834-.057c.507-1.838.192-1.971.192-1.971s.596-.919.623-1.442c.026-.523.685-1.526.685-1.526.76-.52.6-.8.6-.8l.298-.396 1.465-.355.392-.523-1.007-.067c.377-.113.67-.237.889-.366l.011-.005c1.114-.65.436-1.41.436-1.41-.719.591-2.347.367-3.098.817-.709.424-.465.772-.431.81l-.001.003.002.002-1.14-.078-.391.522.903.516-.297.396c-1.106.432-.218.778-.218.778l-.49.653.263.017-1.502 2.613c-1.003 1.027-2.042 3.193-2.042 3.193l-1.199.875.503.924-1.088 2.984-.828.673-.836 1.54-2.016 1.766-.401.352.624.271-1.987 3.38.457.189-2.511 2.544 1.047.14-1.471 1.633h-.294a.321.321 0 0 0-.318.31l-3.88-.19-1.284 4.077-1.54.782v-.526h-2.31s.255-1.795-.685-3.033c-.941-1.238-4.364 2.093-4.364 2.093s-1.111-3.167-2.994-1.712l-1.883 2.054-1.453-.171-2.693 4.897-.687-.02-2.603 3.848c.276-.081.554-.164.826-.238.042-.012.082-.006.123-.008l1.991-2.943 11.087.336 6.322.23 15.975 1.511h.031a.325.325 0 0 0 .03-.647l-13.358-1.263-6.28-1.086 1.788-2.017 2.548-1.295 5.086-.264 8.745.822.03.002a.324.324 0 0 0 .03-.648l-10.382-.977-.527-.05c-.045-.006-.083.024-.124.038l-1.948-.036.862-2.737 12.413.362-8.09-.742.099-.11h5.785l4.124.938a.648.648 0 0 0 .511.393l1.024.14-1.64 2.773a.646.646 0 0 0 .006.671l1.019 1.652.932 1.51-.956 1.963a.65.65 0 0 0 .392.904l3.303 1.02-1.531 2.46-.082-.005c.083.146.162.293.253.435.052.083.108.163.162.244l.012.001 2.181-3.507 2.91-4.29s-.343-1.188-1.083-.98c-.738.206-3.043.98-3.043.98s-.41-1.872-1.103-1.957c-.442-.055-1.277.46-1.822.837l-.992-1.607 2.138-3.614-1.993-.272 4.1-5.458 1.3-.322 2.054-3.101c.316.076.62.11.91.11 2.48 0 3.892-2.521 3.892-2.521l1.862-.764 1.418-1.888-.594-.063c.231-.307.083-.45-.464-.45z"/></g><g opacity=".2"><path d="M294.174 257.454l-11.386 10.78a.325.325 0 0 0 .446.472l11.387-10.78a.324.324 0 1 0-.447-.472z"/></g><g opacity=".2"><path d="M292.136 255.01a.324.324 0 0 0-.417-.193l-4.876 1.798a.326.326 0 0 0-.194.416.326.326 0 0 0 .417.192l4.878-1.797a.326.326 0 0 0 .192-.417z"/></g><g opacity=".2"><path d="M271.682 275.724l10.716.702-10.267-1.026z"/></g><g opacity=".2"><path d="M282.686 256.663l-3.416-1.198s.241-2.337-.871-2.794c-1.112-.458-2.567 0-2.567 0s.513-1.57-1.112-2.083c-1.626-.514-3.423 1.27-3.423 1.27l-1.796 2.939 2.652.668z"/></g><g opacity=".2"><path d="M307.66 246.139c-2.482.856-2.482-.078-4.363.26-1.883.34-5.064.51-5.064.51l11.224 1.454 1.112-1.453s-.429-1.626-2.91-.771z"/></g></g></g><g><path fill="#263238" d="M283.532 243.746l9.977 13.619.94-1.345-9.87-13.356z"/></g><g><path fill="#263238" d="M230.742 248.363s-1.026 19.472 1.797 20.431c2.824.959 14.359 1.503 14.359 1.503v8.825s-12.2 4.357-20.149-.45c-7.949-4.804-6.017-22.01-6.017-22.01z"/></g><g><g><path fill="#ebb376" d="M212.323 432.58l10.432.189 5.195-24.06-10.419-.174z"/></g><g opacity=".2"><path d="M217.531 408.535l10.419.188-2.973 13.752-10.326-.692z"/></g></g><g><path fill="#407bff" d="M245.844 373.69c-6.877 26.147-15.195 44.872-15.195 44.872l-19.036-1.454s7.811-30.507 10.64-58.445c1.752-17.246 1.596-31.52-3.452-32.623-3.179-.7-10.614-.674-20.139-.454v-35.503c26.731 5.489 53.333 15.844 55.357 24.149 2.829 11.692-2.115 36.437-8.175 59.457z"/></g><g><g><path fill="#407bff" d="M209.592 417.998l22.666 1.505 3.335-9.797-24.97-1.168z"/></g><g opacity=".2"><path fill="#fff" d="M209.592 417.998l22.666 1.505 3.335-9.797-24.97-1.168z"/></g></g><g><g><path fill="#407bff" d="M225.59 432.163zm3.705-1.148a.44.44 0 0 1 .252.357.894.894 0 0 1-.227.852c-.522.448-1.892.42-3.73-.06 1.257-.694 3.041-1.457 3.705-1.15zm-3.855.632c-.08.043-.147.08-.213.118.04-.988.225-2.634.88-3.188a.702.702 0 0 1 .53-.189l.119.017c.344.061.424.237.436.38.06.704-.867 2.096-1.752 2.862zm-1.12.602c0 .012.217.017.22.027.011.04.232.073.262.099.018.023.02.056.044.073.03.009.06.002.088-.008a12.83 12.83 0 0 0 2.716.538 2.785 2.785 0 0 0 1.984-.39c.375-.334.52-.853.379-1.334a.928.928 0 0 0-.524-.724c-.669-.308-1.87.077-2.889.53.644-.798 1.119-1.736 1.027-2.382-.064-.423-.46-.748-.885-.79-.375-.068-.863.032-1.16.273-1.085.939-1.262 3.886-1.262 4.067v.012z"/></g></g><g><path fill="#263238" d="M224.07 430.977l-11.678-.729a.741.741 0 0 0-.815.657v.011l-1.147 9.213a1.844 1.844 0 0 0 1.703 1.953c4.078.189 6.035.074 11.178.355 3.154.188 9.371.859 13.723.437 4.354-.422 3.82-4.713 1.94-4.918-4.457-.507-10.361-3.783-13.151-6.269a2.916 2.916 0 0 0-1.753-.71z"/></g><g opacity=".2"><path d="M245.844 373.69a5404.166 5404.166 0 0 1-23.59-15.027c1.75-17.246 1.595-31.52-3.453-32.623-3.179-.7-10.614-.674-20.139-.454v-35.503c26.731 5.489 53.333 15.844 55.357 24.149 2.829 11.692-2.115 36.437-8.175 59.457z"/></g><g><g><path fill="#ebb376" d="M273.312 432.58l10.431.189 5.196-24.06-10.42-.174z"/></g><g opacity=".2"><path d="M278.52 408.535l10.419.188-2.973 13.752-10.326-.692z"/></g></g><g><path fill="#407bff" d="M235.43 286.595l-.175-14.875-56.104-10.668s-14.345 38.399-5.624 55.7c8.001 15.874 93.154 6.418 106.263 9.283 13.241 2.895-7.189 91.068-7.189 91.068l19.036 1.453s29.414-79.356 23.367-104.319c-2.64-10.892-47.528-25.311-79.575-27.642z"/></g><g><g><path fill="#407bff" d="M270.58 417.998l22.667 1.505 3.335-9.797-24.97-1.168z"/></g><g opacity=".2"><path fill="#fff" d="M270.58 417.998l22.667 1.505 3.335-9.797-24.97-1.168z"/></g></g><g><g><path fill="#407bff" d="M286.58 432.163zm3.704-1.148a.44.44 0 0 1 .252.357.894.894 0 0 1-.227.852c-.522.448-1.892.42-3.73-.06 1.256-.694 3.04-1.457 3.705-1.15zm-3.855.632c-.08.043-.147.08-.213.118.039-.988.224-2.634.88-3.188a.702.702 0 0 1 .53-.189l.119.017c.343.061.424.237.436.38.06.704-.867 2.096-1.752 2.862zm-1.12.602c0 .012.217.017.22.027.01.04.231.073.261.099.018.023.02.056.044.073.03.009.06.002.089-.008a12.83 12.83 0 0 0 2.716.538 2.785 2.785 0 0 0 1.984-.39c.375-.334.52-.853.379-1.334a.927.927 0 0 0-.525-.724c-.668-.308-1.87.077-2.888.53.643-.798 1.118-1.736 1.026-2.382-.063-.423-.46-.748-.885-.79-.375-.068-.863.032-1.158.273-1.087.939-1.263 3.886-1.263 4.067v.012z"/></g></g><g><path fill="#263238" d="M285.058 430.977l-11.677-.729a.741.741 0 0 0-.815.657l-.001.011-1.146 9.213a1.844 1.844 0 0 0 1.703 1.953c4.078.189 6.035.074 11.177.355 3.155.188 9.372.859 13.724.437 4.354-.422 3.82-4.713 1.94-4.918-4.457-.507-10.362-3.783-13.151-6.269a2.916 2.916 0 0 0-1.754-.71z"/></g><g><g><path fill="#e4897b" d="M264.603 200.505c-.298.415-.606.815-.935 1.183a14.16 14.16 0 0 1-7.15 4.425c-.702.185-1.418.314-2.136.39-3.793.391-7.66-.771-10.47-3.57-1.156-1.128-2.146-2.554-2.865-4.254-2.881-6.67-.583-12.169 2.555-21.775a13.74 13.74 0 0 1 3.272-5.536c5.293-5.5 14.046-5.653 19.532-.362 7.746 7.363 3.543 21.836-1.803 29.499z"/></g><g opacity=".2"><path d="M256.518 206.113c-.702.185-1.418.314-2.136.39-3.793.391-7.66-.771-10.47-3.57 1.371-1.557 2.926-2.532 2.926-2.532s5.952 1.331 9.68 5.712z"/></g><g><path fill="#e4897b" d="M227.43 209.376c2.985 6.015 20.345 10.425 20.345 10.425s7.835.83 7.213-1.964c-3.899-2.318-5.156-5.054-5.017-7.87.084-1.639.65-3.298 1.44-4.926a26.76 26.76 0 0 1 1.39-2.522l-9.958-15.862c1.069 16.276-8.937 19.525-15.412 22.719z"/></g><g><path fill="#263238" d="M271.073 171.018c-2.677-5.657-5.755-5.11-5.755-5.11-1.576-4.658-14.045-6.41-20.931-2.896-6.888 3.517-10.123 11.338-10.512 17.817-.566 9.436 4.103 19.694 4.103 19.694l.006.003c7.135 2.899 13.526 2.058 14.494-1.79.968-3.847 5.28-6.247 5.28-6.247 3.477 1.683 7.278-1.951 7.278-1.951s4.58-3.117 4.107-8.286c-.472-5.17 4.186-6.467 1.93-11.234z"/></g><g><path fill="#e4897b" d="M256.764 189.744c-.24 2.264.3 4.205 1.495 5.398 1.596 1.56 3.905-.645 4.735-3.578.717-2.605.799-6.637-1.432-6.973-2.23-.336-4.477 2.365-4.798 5.153z"/></g><g><path fill="#263238" d="M250.431 161.318c10.096-6.26 23.826 9.372 25.984 19.048 1.754 7.86-6.656 9.13-6.656 9.13s4.419-1.52 2.505-6.858c0 0-.139 7.206-5.697 4.01-5.559-3.193-3.217-15.041-3.217-15.041z"/></g></g><g><g><path fill="#263238" d="M174.504 270.093l62.142 8.035s-.1-30.12 26.937-56.473c0 0-16.685-19.441-42.081-15.326 0 0-28.348 14.285-46.998 63.764z"/></g><g opacity=".2"><path fill="#fff" d="M174.504 270.093l62.142 8.035s-.1-30.12 26.937-56.473c0 0-16.685-19.441-42.081-15.326 0 0-28.348 14.285-46.998 63.764z"/></g></g><g><path fill="#e4897b" d="M278.656 258.717l4.876-2.697s.77-2.72 1.455-3.349c.684-.628 5.684-4.627 6.331-4.594.648.034 3.892 5.993 4.042 7.632.15 1.637-4.129 4.942-5.967 5.343-1.84.401-3.47 0-3.47 0l-4.957 2.882z"/></g><g><g><path fill="#263238" d="M263.583 221.655c3.18 6.26.955 38.311 4.035 39.397 3.08 1.087 14.032-5.032 14.032-5.032l2.928 6.038s-11.74 9.92-19.869 10.86c-8.127.942-14.495-39.356-14.495-39.356z"/></g><g opacity=".2"><path fill="#fff" d="M263.583 221.655c3.18 6.26.955 38.311 4.035 39.397 3.08 1.087 14.032-5.032 14.032-5.032l2.928 6.038s-11.74 9.92-19.869 10.86c-8.127.942-14.495-39.356-14.495-39.356z"/></g></g><g><g><path fill="#263238" d="M177.057 275.812l26.478 3.31.856-3.722-26.523-3.68z"/></g><g><path fill="#263238" d="M206.594 275.421l-.32 3.7 24.469 3.21v-3.658z"/></g><g><path fill="#263238" d="M232.261 278.876v3.454l3.552.452v-3.34z"/></g><g><path fill="#263238" d="M175.258 275.024l.905-3.303h-.905l-1.07 2.567z"/></g></g><g><g><path fill="#407bff" d="M246.001 209.72s-12.321 9.925-16.598 29.774c0 0 6.823 4.303 12.823 1.98 0 0 .694-20.974 11.818-28.16 0 0-2.174-2.887-8.043-3.595z"/></g><g opacity=".2"><path fill="#fff" d="M246.001 209.72s-12.321 9.925-16.598 29.774c0 0 6.823 4.303 12.823 1.98 0 0 .694-20.974 11.818-28.16 0 0-2.174-2.887-8.043-3.595z"/></g></g><g><path fill="#407bff" d="M227.43 205.776s3.43-4.27 4.832-4.27c5.07 0 18.016 3.251 21.61 7.016 3.594 3.764 2.646 6.872 2.646 6.872s-16.342-7.573-29.087-9.618z"/></g></g></g><g><g><g><path fill="#263238" d="M165.702 325.47c-3.893 2.53-70.968-1.376-70.968-1.376-7.11-1.194-7.137-18.18-6.955-23.876.052-1.168.104-1.856.104-1.856s9.927-2.4 15.065-2.4c0 0 4.451-6.035 6.501-6.606 2.05-.584 45.314-1.816 49.35 0a7.002 7.002 0 0 1 2.452 1.882c1.946 2.31 2.413 5.411 2.413 5.411s3.62 1.933 3.62 7.812c0 5.878 2.324 18.478-1.582 21.008z"/></g><g opacity=".2"><path fill="#fff" d="M142.993 298.868s-25.849 4.45-38.5 2.09c-7.215-1.337-13.042-1.156-16.714-.74.052-1.168.104-1.856.104-1.856s9.927-2.4 15.065-2.4c18.141.518 40.045 2.906 40.045 2.906z"/></g><g opacity=".2"><path fill="#fff" d="M161.25 291.238c-4.93.078-20.826 3.893-25.446 1.985-4.97-2.05-23.448-.687-25.16-1.038-1.714-.35-1.195-2.829-1.195-2.829 2.05-.584 45.314-1.816 49.35 0a7.002 7.002 0 0 1 2.452 1.882z"/></g><g opacity=".2"><path fill="#fff" d="M151.629 300.625s4.095 3.208 4.743 6.737c.647 3.53-.122 6.097.647 6.353.771.257 8.007-.385 8.688-2.052.681-1.67-.572-10.071-1.372-12.859-.8-2.786-10.78-.232-12.706 1.821z"/></g><g opacity=".2"><path fill="#fff" d="M92.98 308.936s-2.438 2.836-2.054 4.834c.385 2 12.064 4.954 14.887 3.798 2.824-1.157 6.803-5.193 6.803-5.193l-1.798-1.996s-5.647 4.62-7.571 4.234c-1.926-.384-10.781-2.238-10.781-2.238l1.669-3.439z"/></g></g><g><g><path fill="#407bff" d="M155.8 286.7v-3.63h-6.349v3.63c0 .976-.412 1.908-1.136 2.564a3.464 3.464 0 0 0-1.136 2.564v29.097c0 1.014.822 1.835 1.835 1.835h7.221a1.835 1.835 0 0 0 1.837-1.835v-29.097c0-.977-.413-1.907-1.136-2.564a3.462 3.462 0 0 1-1.137-2.564z"/></g><g opacity=".6"><path fill="#fff" d="M158.072 300.961v-9.133c0-.977-.413-1.908-1.136-2.564a3.462 3.462 0 0 1-1.137-2.564v-3.63h-6.349v3.63c0 .976-.411 1.908-1.135 2.564a3.462 3.462 0 0 0-1.136 2.564v9.133z"/></g><g opacity=".6"><path fill="#fff" d="M147.18 312.375v8.55c0 1.014.82 1.835 1.834 1.835h7.221a1.835 1.835 0 0 0 1.837-1.835v-8.55z"/></g><g><path fill="#407bff" d="M149.406 284.928a.527.527 0 0 1-.527-.527v-1.799c0-.291.236-.527.527-.527h6.438c.292 0 .528.236.528.527v1.799a.527.527 0 0 1-.528.527z"/></g></g><g><g><g><g><path fill="#263238" d="M80.17 320.202h-4.166l-22.146-98.54h4.165z"/></g><g><path fill="#263238" d="M274.814 320.202h-4.165l-22.146-98.54h4.165z"/></g><g opacity=".3"><path fill="#fff" d="M80.17 320.202h-4.166l-22.146-98.54h4.165z"/></g><g opacity=".3"><path fill="#fff" d="M274.814 320.202h-4.165l-22.146-98.54h4.165z"/></g></g><g><g><path fill="#263238" d="M256.946 235.49H54.602c-1.177 0-2.34-.931-2.598-2.082l-2.425-10.79c-.258-1.15.486-2.083 1.662-2.083h202.344c1.176 0 2.338.933 2.598 2.083l2.425 10.79c.258 1.15-.486 2.082-1.662 2.082z"/></g><g><path fill="#263238" d="M261.652 256.429H59.308c-1.176 0-2.34-.932-2.598-2.083l-2.424-10.79c-.26-1.15.485-2.082 1.66-2.082h202.346c1.175 0 2.338.933 2.596 2.082l2.425 10.79c.259 1.151-.485 2.083-1.66 2.083z"/></g><g><path fill="#263238" d="M266.358 277.368H64.013c-1.176 0-2.339-.932-2.597-2.082l-2.425-10.791c-.258-1.15.485-2.081 1.66-2.081h202.346c1.175 0 2.338.931 2.598 2.081l2.424 10.791c.258 1.15-.486 2.082-1.661 2.082z"/></g><g opacity=".6"><path fill="#fff" d="M256.946 235.49H54.602c-1.177 0-2.34-.931-2.598-2.082l-2.425-10.79c-.258-1.15.486-2.083 1.662-2.083h202.344c1.176 0 2.338.933 2.598 2.083l2.425 10.79c.258 1.15-.486 2.082-1.662 2.082z"/></g><g opacity=".6"><path fill="#fff" d="M261.652 256.429H59.308c-1.176 0-2.34-.932-2.598-2.083l-2.424-10.79c-.26-1.15.485-2.082 1.66-2.082h202.346c1.175 0 2.338.933 2.596 2.082l2.425 10.79c.259 1.151-.485 2.083-1.66 2.083z"/></g><g opacity=".6"><path fill="#fff" d="M266.358 277.368H64.013c-1.176 0-2.339-.932-2.597-2.082l-2.425-10.791c-.258-1.15.485-2.081 1.66-2.081h202.346c1.175 0 2.338.931 2.598 2.081l2.424 10.791c.258 1.15-.486 2.082-1.661 2.082z"/></g></g></g><g><g><path fill="#263238" d="M186.179 443.01h7.156l-19.786-114.695h-9.881z"/></g><g><path fill="#263238" d="M374.335 443.01h7.157l-19.787-114.695h-9.88z"/></g><g opacity=".2"><path fill="#fff" d="M186.179 443.01h7.156l-19.786-114.695h-9.881z"/></g><g opacity=".2"><path fill="#fff" d="M374.335 443.01h7.157l-19.787-114.695h-9.88z"/></g><g><path fill="#263238" d="M74.8 443.01h-7.157L87.43 328.315h9.88z"/></g><g><path fill="#263238" d="M262.956 443.01H255.8l19.786-114.695h9.88z"/></g><g opacity=".3"><path fill="#fff" d="M74.8 443.01h-7.157L87.43 328.315h9.88z"/></g><g opacity=".3"><path fill="#fff" d="M262.956 443.01H255.8l19.786-114.695h9.88z"/></g><g><path fill="#263238" d="M82.553 337.21a2.384 2.384 0 0 1-2.384-2.385v-8.13h288.598v8.13a2.384 2.384 0 0 1-2.384 2.384z"/></g><g opacity=".4"><path fill="#fff" d="M82.553 337.21a2.384 2.384 0 0 1-2.384-2.385v-8.13h288.598v8.13a2.384 2.384 0 0 1-2.384 2.384z"/></g><g><path fill="#263238" d="M373.262 327.993H75.675a4.165 4.165 0 0 1 0-8.33h297.587a4.165 4.165 0 1 1 0 8.33z"/></g><g opacity=".6"><path fill="#fff" d="M373.262 327.993H75.675a4.165 4.165 0 0 1 0-8.33h297.587a4.165 4.165 0 1 1 0 8.33z"/></g></g></g></g></g></g></svg>