<svg xmlns="http://www.w3.org/2000/svg" width="102.661" height="79.789" viewBox="0 0 102.661 79.789">
  <g id="_003-order" data-name="003-order" transform="translate(0.5 0.5)">
    <g id="Group_198" data-name="Group 198" transform="translate(0)">
      <path id="Path_822" data-name="Path 822" d="M61,187.47H76.383a1.986,1.986,0,1,0,0-3.971H61a1.986,1.986,0,1,0,0,3.971Z" transform="translate(-47.295 -158.544)" fill="#9ec5fd" stroke="#9ec5fd" stroke-width="1"/>
      <path id="Path_823" data-name="Path 823" d="M61,256.716H76.383a1.986,1.986,0,0,0,0-3.971H61a1.986,1.986,0,0,0,0,3.971Z" transform="translate(-47.295 -214.041)" fill="#9ec5fd" stroke="#9ec5fd" stroke-width="1"/>
      <path id="Path_824" data-name="Path 824" d="M149.618,435.428a1.984,1.984,0,1,0-1.074,2.593,2,2,0,0,0,1.074-2.593Z" transform="translate(-116.854 -359.471)" fill="#9ec5fd" stroke="#9ec5fd" stroke-width="1"/>
      <path id="Path_825" data-name="Path 825" d="M101.128,103.047,77.511,77.7l7.231-7.214a6.564,6.564,0,0,0,.049-9.284,6.622,6.622,0,0,0-9.291-.073l-.019.018-9.914,9.89h-3.7V63.408a1.986,1.986,0,0,0-1.986-1.986H49.363V59.8a1.986,1.986,0,0,0-3.971,0v1.622H38.138V59.8a1.986,1.986,0,0,0-3.971,0v1.622H26.913V59.8a1.986,1.986,0,0,0-3.971,0v1.622H15.688V59.8a1.986,1.986,0,0,0-3.971,0v1.622H1.986A1.986,1.986,0,0,0,0,63.408v71.123a1.986,1.986,0,0,0,1.986,1.986H22.253a1.986,1.986,0,1,0,0-3.971H3.971V65.394h7.746v1.8a1.986,1.986,0,1,0,3.971,0v-1.8h7.254v1.8a1.986,1.986,0,1,0,3.971,0v-1.8h7.254v1.8a1.986,1.986,0,1,0,3.971,0v-1.8h7.253v1.8a1.986,1.986,0,1,0,3.971,0v-1.8h8.529v5.651a14.353,14.353,0,0,0-9.5,4.166L33.778,89.822a2,2,0,0,0,.326,3.071,13.5,13.5,0,0,0,5.416,2.029,13.675,13.675,0,0,0,1.95.139h.009L39.2,97.336a1.985,1.985,0,0,0-.394.565l-6.369,9.567a4.336,4.336,0,0,0-.723,2.8H13.7a1.986,1.986,0,1,0,0,3.971H36.065a4.4,4.4,0,0,0,2.434-.767l9.681-6.578a2.061,2.061,0,0,0,.322-.26l4.49-4.48,4.9,4.888v25.5H39.722a1.986,1.986,0,1,0,0,3.971H59.877a1.986,1.986,0,0,0,1.986-1.986V110.918a13.924,13.924,0,0,0,8.945,3.221h7.922A6.08,6.08,0,0,1,83.1,116l15.128,16.076a2,2,0,0,0,3.431-1.361V104.4a1.985,1.985,0,0,0-.533-1.353ZM51.2,78.018A10.324,10.324,0,0,1,58.475,75h3.111L49.214,87.345A13.851,13.851,0,0,1,45.52,90.2a9.7,9.7,0,0,1-6.95.445ZM78.274,63.965a2.639,2.639,0,0,1,3.7.027,2.593,2.593,0,0,1-.026,3.672l-20.751,20.7-1-1A7.743,7.743,0,0,0,56.8,85.389ZM36.266,110.188a.339.339,0,0,1-.476-.044.325.325,0,0,1-.048-.475l5.189-7.794L44,104.935ZM47.1,102.422l-3.684-3.684L47.2,94.963a7.8,7.8,0,0,0,2.012,3.42l.969.967Zm50.588,23.29-11.706-12.44a10.077,10.077,0,0,0-7.254-3.1H70.807a9.991,9.991,0,0,1-7.1-2.934L52.013,95.567c-1.688-1.266-1.311-4.072,0-5.4a3.883,3.883,0,0,1,5.371.011l9.5,9.5a2.007,2.007,0,0,0,2.808,0,1.986,1.986,0,0,0,0-2.808L64,91.174,74.7,80.5l22.992,24.68Z" transform="translate(0 -57.815)" fill="#9ec5fd" stroke="#9ec5fd" stroke-width="1"/>
    </g>
  </g>
</svg>
