<svg xmlns="http://www.w3.org/2000/svg" width="671" height="386" viewBox="0 0 671 386"><g><g><g><path fill="#f2f2f2" d="M110.765 307.737c0-19.256 15.61-34.866 34.867-34.866 19.256 0 34.866 15.61 34.866 34.866s-15.61 34.867-34.866 34.867c-19.257 0-34.867-15.61-34.867-34.867z"/></g><g><path fill="#396ab3" d="M116.434 302.635c0-19.257 15.61-34.867 34.867-34.867 19.256 0 34.867 15.61 34.867 34.867 0 19.256-15.61 34.866-34.867 34.866-19.256 0-34.867-15.61-34.867-34.866z"/></g><g><path fill="#3f3d56" d="M179.38 265.232v-1.177h431.394v1.177z"/></g><g><path fill="#3f3d56" d="M402.8 11.64H249.682V8.482h-69.43v3.156H26.503c-5.72 0-10.357 4.637-10.357 10.358v209.665c0 5.72 4.637 10.358 10.357 10.358H402.8c5.72 0 10.357-4.637 10.357-10.358V21.997c0-5.72-4.637-10.358-10.357-10.358z"/></g><g><path fill="#396ab3" d="M30.032 238.233V29.943h369.24v208.29z"/></g><g><path fill="#396ab3" d="M210.549 20.476a3.787 3.787 0 1 1 7.574 0 3.787 3.787 0 0 1-7.574 0z"/></g><g opacity=".1"><path d="M293.675 238.233H30.032V29.943z"/></g><g><path fill="#f2f2f2" d="M52.314 187.154c0-19.602 15.89-35.493 35.493-35.493 19.602 0 35.492 15.89 35.492 35.493 0 19.602-15.89 35.492-35.492 35.492-19.602 0-35.493-15.89-35.493-35.492z"/></g><g><path fill="#3f3d56" d="M300.49 149.483v-7.208h34.49v7.208z"/></g><g><path fill="#3f3d56" d="M258.792 89.252v-3.089h117.887v3.089z"/></g><g><path fill="#3f3d56" d="M258.792 99.033v-3.089h117.887v3.089z"/></g><g><path fill="#3f3d56" d="M258.792 108.814v-3.089h117.887v3.089z"/></g><g><path fill="#3f3d56" d="M258.792 118.595v-3.089h117.887v3.089z"/></g><g><path fill="#3f3d56" d="M258.792 128.376v-3.089h117.887v3.09z"/></g><g><path fill="#f2f2f2" d="M362.265 48.583V34.17h14.414v14.414z"/></g><g><path fill="#3f3d56" d="M366.63 38.534h15.98v15.98h-15.98zm16.741-.761h-17.503v17.503h17.503z"/></g><g><path fill="#3f3d56" d="M423.525 234.446h-36.036v-2.597a.515.515 0 0 0-.514-.515H374.62a.515.515 0 0 0-.515.515v2.597h-7.722v-2.597a.515.515 0 0 0-.515-.515h-12.355a.515.515 0 0 0-.515.515v2.597h-7.721v-2.597a.515.515 0 0 0-.515-.515h-12.355a.515.515 0 0 0-.515.515v2.597h-7.722v-2.597a.515.515 0 0 0-.515-.515H311.3a.515.515 0 0 0-.514.515v2.597h-7.722v-2.597a.515.515 0 0 0-.515-.515h-12.355a.515.515 0 0 0-.515.515v2.597h-7.722v-2.597a.515.515 0 0 0-.515-.515h-12.355a.515.515 0 0 0-.514.515v2.597h-7.722v-2.597a.515.515 0 0 0-.515-.515h-96.78a.515.515 0 0 0-.516.515v2.597h-7.721v-2.597a.515.515 0 0 0-.515-.515h-12.355a.515.515 0 0 0-.515.515v2.597h-7.722v-2.597a.515.515 0 0 0-.515-.515h-12.355a.515.515 0 0 0-.515.515v2.597h-7.721v-2.597a.515.515 0 0 0-.515-.515h-12.355a.515.515 0 0 0-.515.515v2.597h-7.722v-2.597a.515.515 0 0 0-.515-.515H79.13a.515.515 0 0 0-.514.515v2.597h-7.722v-2.597a.515.515 0 0 0-.515-.515H58.023a.515.515 0 0 0-.515.515v2.597h-7.722v-2.597a.515.515 0 0 0-.515-.515H36.916a.515.515 0 0 0-.514.515v2.597h-23.68c-6.824 0-12.356 5.531-12.356 12.355v5.586c0 6.824 5.532 12.355 12.355 12.355h410.804c6.823 0 12.355-5.531 12.355-12.355v-5.586c0-6.824-5.532-12.355-12.355-12.355z"/></g><g><path fill="#3f3d56" d="M96.398 121.042c24.041.027 43.524 19.51 43.551 43.551 0 24.053-19.498 43.552-43.551 43.552s-43.552-19.499-43.552-43.552c0-24.052 19.499-43.55 43.552-43.55zm0 88.28c24.691-.028 44.7-20.037 44.728-44.729 0-24.702-20.025-44.728-44.728-44.728-24.703 0-44.729 20.026-44.729 44.728 0 24.703 20.026 44.729 44.729 44.729z"/></g><g><path fill="#3f3d56" d="M345.347 20.992v-1.177h150.075v1.177z"/></g><g><path fill="#3f3d56" d="M239.411 331.737v-1.178h431.394v1.178z"/></g><g><path fill="#3f3d56" d="M113.76 385.881v-1.177h150.075v1.177z"/></g><g><path fill="#396ab3" d="M278 341v-17h16v17z"/></g><g><path fill="#3f3d56" d="M284.909 312.277h18.27v18.27h-18.27zm19.14-.87h-20.01v20.01h20.01z"/></g><g><path fill="#396ab3" d="M469 30V14h16v16z"/></g><g><path fill="#3f3d56" d="M476.181 1.532h18.27v18.27h-18.27zm19.14-.87h-20.01v20.01h20.01z"/></g><g><path fill="#396ab3" d="M635 341v-17h16v17z"/></g><g><path fill="#3f3d56" d="M642.147 312.277h18.27v18.27h-18.27zm19.14-.87h-20.01v20.01h20.01z"/></g><g><path fill="#3f3d56" d="M622.545 137.177h-1.4v-38.35c0-12.258-9.937-22.196-22.195-22.196H517.7c-12.258 0-22.195 9.938-22.195 22.196v210.39c0 12.258 9.937 22.195 22.196 22.195h81.249c12.258 0 22.196-9.937 22.196-22.196V164.475h1.4z"/></g><g><path fill="#396ab3" d="M616.419 100.132v210.082c0 9.157-7.421 16.579-16.576 16.579h-81.638c-9.152 0-16.573-7.421-16.573-16.576V100.132c0-9.151 7.418-16.572 16.57-16.574h9.908a7.874 7.874 0 0 0 7.291 10.847h46.547a7.874 7.874 0 0 0 7.292-10.847h10.606c9.15 0 16.57 7.42 16.573 16.572z"/></g><g><path fill="#3f3d56" d="M546.865 229.285v-7.207h24.32v7.207z"/></g><g><path fill="#3f3d56" d="M517.463 169.054v-3.088h83.124v3.088z"/></g><g><path fill="#3f3d56" d="M517.463 178.836v-3.09h83.124v3.09z"/></g><g><path fill="#3f3d56" d="M517.463 188.617v-3.09h83.124v3.09z"/></g><g><path fill="#3f3d56" d="M517.463 198.398v-3.09h83.124v3.09z"/></g><g><path fill="#3f3d56" d="M517.463 208.179v-3.09h83.124v3.09z"/></g><g><path fill="#f2f2f2" d="M547.515 139.361v-14.414h14.414v14.414z"/></g><g><path fill="#3f3d56" d="M569.776 145.296h-15.984V129.31h15.984zm-16.743-16.744v17.503h17.503v-17.503z"/></g><g opacity=".1"><path d="M616.419 287.78v22.434c0 9.157-7.421 16.579-16.576 16.579h-81.638c-9.152 0-16.573-7.421-16.573-16.576V197.092l68.781 54.34 1.177.93 12.795 10.104 1.195.948z"/></g><g><path fill="#f2f2f2" d="M526.145 294.167c0-14.259 11.56-25.818 25.818-25.818 14.258 0 25.817 11.56 25.817 25.818 0 14.259-11.559 25.817-25.817 25.817-14.259 0-25.818-11.558-25.818-25.817z"/></g><g><path fill="#3f3d56" d="M188.797 284.654c27.616.031 49.994 22.41 50.026 50.025 0 27.628-22.398 50.025-50.026 50.025-27.628 0-50.025-22.397-50.025-50.025s22.397-50.025 50.025-50.025zm0 101.227c28.265-.032 51.17-22.937 51.203-51.202 0-28.278-22.924-51.202-51.203-51.202-28.278 0-51.202 22.924-51.202 51.202s22.924 51.202 51.202 51.202z"/></g><g><path fill="#3f3d56" d="M590.765 281.711c0 17.227-13.966 31.193-31.193 31.193-17.227 0-31.192-13.966-31.192-31.193 0-17.227 13.965-31.192 31.192-31.192 17.22.02 31.173 13.973 31.193 31.192zm1.177 0c0-17.877-14.493-32.369-32.37-32.369-17.877 0-32.369 14.492-32.369 32.37 0 17.876 14.492 32.369 32.37 32.369 17.868-.02 32.349-14.501 32.369-32.37z"/></g></g></g></svg>