<svg xmlns="http://www.w3.org/2000/svg" xmlns:xlink="http://www.w3.org/1999/xlink" version="1.1" x="0px" y="0px" viewBox="0 0 100 125" enable-background="new 0 0 100 100" xml:space="preserve"><path fill="#000000" d="M83.75,95h-67.5C10.047,95,5,89.954,5,83.75v-67.5C5,10.047,10.047,5,16.25,5h67.5  C89.953,5,95,10.047,95,16.25v67.5C95,89.954,89.953,95,83.75,95z M16.25,11.271c-2.746,0-4.979,2.234-4.979,4.979v67.5  c0,2.746,2.233,4.979,4.979,4.979h67.5c2.746,0,4.979-2.233,4.979-4.979v-67.5c0-2.745-2.233-4.979-4.979-4.979H16.25z"/><path fill="#000000" d="M32.163,38.493h35.674c2.408,0,4.379-1.727,4.379-3.836s-1.971-3.836-4.379-3.836H32.163  c-2.408,0-4.379,1.727-4.379,3.836S29.755,38.493,32.163,38.493z"/><path fill="#000000" d="M67.837,61.508H32.163c-2.408,0-4.379,1.727-4.379,3.836s1.971,3.836,4.379,3.836h35.674  c2.408,0,4.379-1.727,4.379-3.836S70.245,61.508,67.837,61.508z"/><path fill="#000000" d="M67.837,46.164H32.163c-2.408,0-4.379,1.727-4.379,3.836c0,2.11,1.971,3.836,4.379,3.836h35.674  c2.408,0,4.379-1.726,4.379-3.836C72.216,47.891,70.245,46.164,67.837,46.164z"/><text x="0" y="115" fill="#000000" font-size="5px" font-weight="bold" font-family="'Helvetica Neue', Helvetica, Arial-Unicode, Arial, Sans-serif">Created by Mert Güler</text><text x="0" y="120" fill="#000000" font-size="5px" font-weight="bold" font-family="'Helvetica Neue', Helvetica, Arial-Unicode, Arial, Sans-serif">from the Noun Project</text></svg>