<svg xmlns="http://www.w3.org/2000/svg" width="195" height="187" viewBox="0 0 195 187"><g><g><g><g transform="rotate(-45 40.5 87.5)"><path fill="#384d5f" d="M36.016 140.223V34.783h8.96v105.44z"/></g><g transform="rotate(-45 11 58)"><path fill="#4fc0ff" d="M6.588 61.154v-6.157h8.96v6.157z"/></g><g transform="rotate(-45 19.5 66.5)"><path fill="#4fc0ff" d="M15.164 69.543V63.76h8.96v5.784z"/></g></g><g><g transform="rotate(-135 154 87.5)"><path fill="#384d5f" d="M149.532 140.223V34.783h8.96v105.44z"/></g><g transform="rotate(-135 183.5 58)"><path fill="#4fc0ff" d="M178.96 61.154v-6.157h8.96v6.157z"/></g><g transform="rotate(-135 175 66.5)"><path fill="#4fc0ff" d="M170.384 69.543V63.76h8.96v5.784z"/></g></g><g><g><path fill="#cee2fd" d="M190.658 131.229v46.604H3.275v-46.604c0-8.52 6.906-15.425 15.424-15.425h156.534c8.519 0 15.425 6.906 15.425 15.425z"/></g><g><path fill="#384d5f" d="M68.605 161.038h58.608c15.213 0 27.545-12.078 27.545-26.977H41.06c0 14.899 12.332 26.977 27.545 26.977z"/></g></g><g><path fill="#384d5f" d="M3.275 141.864v-7.803h187.383v7.803z"/></g><g transform="rotate(-76.717 61.5 145.5)"><path fill="#f18d4f" d="M57.71 145.878a4.014 4.014 0 1 1 8.028 0 4.014 4.014 0 0 1-8.029 0z"/></g><g transform="rotate(-80.783 79.5 145.5)"><path fill="#4fc0ff" d="M75.694 145.878a4.014 4.014 0 1 1 8.028 0 4.014 4.014 0 0 1-8.028 0z"/></g><g transform="rotate(-80.783 97.5 145.5)"><path fill="#4fc0ff" d="M93.678 145.878a4.014 4.014 0 1 1 8.029 0 4.014 4.014 0 0 1-8.03 0z"/></g><g transform="rotate(-80.783 115.5 145.5)"><path fill="#4fc0ff" d="M111.662 145.879a4.014 4.014 0 1 1 8.029 0 4.014 4.014 0 0 1-8.029 0z"/></g><g transform="rotate(-80.783 133.5 145.5)"><path fill="#4fc0ff" d="M129.647 145.878a4.014 4.014 0 1 1 8.028 0 4.014 4.014 0 0 1-8.028 0z"/></g><g><path fill="#384d5f" d="M21.38 186.79a4 4 0 0 1-4-4v-4.957h23.68v4.956a4 4 0 0 1-4 4z"/></g><g transform="rotate(180 164.5 182)"><path fill="#384d5f" d="M152.872 186.79v-4.957a4 4 0 0 1 4-4h15.68a4 4 0 0 1 4 4v4.956z"/></g><g><g><g><path fill="#f18d4f" d="M156.272 33.962a4.688 4.688 0 0 1-3.326-1.377c-14.759-14.76-34.381-22.887-55.254-22.887-20.872 0-40.495 8.128-55.254 22.887a4.703 4.703 0 0 1-6.65-6.651C52.322 9.398 74.307.292 97.691.292c23.385 0 45.37 9.106 61.906 25.642a4.703 4.703 0 0 1-3.326 8.028z"/></g></g><g><g><path fill="#f18d4f" d="M53.61 48.46a4.703 4.703 0 0 1-3.325-8.029c12.663-12.662 29.5-19.636 47.407-19.636 17.908 0 34.744 6.974 47.408 19.636a4.703 4.703 0 0 1-6.652 6.652c-22.473-22.474-59.04-22.474-81.512 0a4.69 4.69 0 0 1-3.325 1.377z"/></g></g><g><g><path fill="#f18d4f" d="M127.885 62.349a4.689 4.689 0 0 1-3.325-1.378c-14.815-14.814-38.92-14.814-53.735 0a4.702 4.702 0 1 1-6.651-6.65c18.482-18.483 48.554-18.483 67.037 0a4.703 4.703 0 0 1-3.326 8.028z"/></g></g><g><g><path fill="#f18d4f" d="M114.6 75.634a4.69 4.69 0 0 1-3.325-1.378c-7.49-7.49-19.676-7.49-27.165 0a4.703 4.703 0 1 1-6.651-6.65c11.157-11.157 29.31-11.157 40.467 0a4.702 4.702 0 0 1-3.326 8.028z"/></g></g><g><path fill="#f18d4f" d="M86.124 87.839c0-6.39 5.18-11.569 11.568-11.569 6.39 0 11.569 5.18 11.569 11.569 0 6.389-5.18 11.568-11.569 11.568-6.389 0-11.568-5.18-11.568-11.568z"/></g></g></g></g></svg>