<svg xmlns="http://www.w3.org/2000/svg" width="55" height="64" viewBox="0 0 55 64"><g><g><g><path fill="#396ab3" d="M49.256 5.148c-3.528-3.528-8.332-5.35-13.53-5.13a.93.93 0 0 0 .08 1.858c4.672-.198 8.98 1.432 12.136 4.587 3.154 3.155 4.784 7.465 4.587 12.135a.93.93 0 1 0 1.857.08c.22-5.198-1.603-10.002-5.13-13.53z"/></g><g><path fill="#396ab3" d="M35.53 4.694a.93.93 0 1 0 .078 1.857c3.423-.145 6.578 1.049 8.887 3.358 2.31 2.31 3.502 5.465 3.357 8.887a.93.93 0 0 0 .89.968h.04c.495 0 .907-.39.927-.89.168-3.948-1.218-7.598-3.9-10.28-2.68-2.681-6.331-4.066-10.279-3.9z"/></g><g><path fill="#396ab3" d="M44.066 19.96l.04.001a.93.93 0 0 0 .928-.89c.114-2.698-.835-5.196-2.67-7.031-1.836-1.835-4.332-2.783-7.032-2.67a.93.93 0 1 0 .08 1.857c2.173-.09 4.174.664 5.637 2.128 1.464 1.463 2.22 3.465 2.128 5.638a.93.93 0 0 0 .889.968z"/></g><g><path fill="#396ab3" d="M3.232 61.594a.62.62 0 0 1-.62-.619 3.41 3.41 0 0 1 3.407-3.406h23.524a3.41 3.41 0 0 1 3.406 3.406.62.62 0 0 1-.619.619zm26.311-5.884h-3.438l-.503-1.814a.93.93 0 0 0-1.791.497l.365 1.316h-12.79l1.622-5.852a.93.93 0 0 0-1.791-.496l-1.76 6.349H6.019a5.271 5.271 0 0 0-5.265 5.265 2.48 2.48 0 0 0 2.478 2.478H32.33a2.48 2.48 0 0 0 2.478-2.478 5.27 5.27 0 0 0-5.265-5.265z"/></g><g><path fill="#396ab3" d="M43.343 44.074a23.315 23.315 0 0 1-15.526 5.89c-6.015-.001-12.021-2.3-16.577-6.857-8.755-8.754-9.18-22.855-.967-32.103a.443.443 0 0 1 .322-.15h.013c.075 0 .206.018.318.131l32.436 32.436c.119.119.133.259.131.33a.442.442 0 0 1-.15.323zM32.299 19.931c.08.183.17.36.275.527L27.8 25.231l-4.513-4.513zm1.59 1.842c.168.104.343.196.527.274l-.787 9.012-4.513-4.514zm2.11-5.588c1.193 0 2.163.97 2.163 2.163 0 1.194-.97 2.165-2.164 2.165a2.167 2.167 0 0 1-2.164-2.165c0-1.193.971-2.163 2.164-2.163zm-.653 16.59l.908-10.412a4.027 4.027 0 0 0 3.767-4.015 4.028 4.028 0 0 0-4.023-4.022 4.028 4.028 0 0 0-4.015 3.767L21.571 19l-9.33-9.33a2.306 2.306 0 0 0-3.358.099C.018 19.75.476 34.973 9.925 44.422c4.918 4.918 11.4 7.4 17.892 7.4a25.172 25.172 0 0 0 16.76-6.358 2.32 2.32 0 0 0 .774-1.657 2.32 2.32 0 0 0-.675-1.7z"/></g></g></g></svg>