<svg xmlns="http://www.w3.org/2000/svg" width="54" height="64" viewBox="0 0 54 64"><g><g><g><path fill="#396ab3" d="M48.502 5.148c-3.527-3.528-8.33-5.35-13.528-5.13a.93.93 0 0 0 .079 1.858c4.672-.198 8.98 1.432 12.135 4.587 3.155 3.155 4.784 7.465 4.588 12.135a.93.93 0 1 0 1.857.08c.22-5.198-1.603-10.002-5.13-13.53z"/></g><g><path fill="#396ab3" d="M34.777 4.694a.93.93 0 1 0 .078 1.857c3.422-.145 6.578 1.049 8.887 3.358 2.31 2.31 3.502 5.465 3.357 8.887a.93.93 0 0 0 .89.968h.04c.495 0 .907-.39.927-.89.168-3.948-1.218-7.598-3.9-10.28-2.681-2.681-6.331-4.066-10.279-3.9z"/></g><g><path fill="#396ab3" d="M43.313 19.96l.04.001a.93.93 0 0 0 .928-.89c.113-2.698-.835-5.196-2.67-7.031-1.836-1.835-4.332-2.783-7.032-2.67a.93.93 0 1 0 .079 1.857c2.174-.09 4.175.664 5.638 2.128 1.464 1.463 2.22 3.465 2.127 5.638a.93.93 0 0 0 .89.968z"/></g><g><path fill="#396ab3" d="M2.478 61.594a.62.62 0 0 1-.619-.62 3.41 3.41 0 0 1 3.407-3.405H28.79a3.41 3.41 0 0 1 3.406 3.406.62.62 0 0 1-.619.619zM28.79 55.71h-3.438l-.503-1.814a.93.93 0 0 0-1.792.497l.366 1.316h-12.79l1.621-5.852a.93.93 0 0 0-1.79-.496l-1.76 6.349H5.266A5.271 5.271 0 0 0 0 60.975a2.48 2.48 0 0 0 2.477 2.477h29.1a2.48 2.48 0 0 0 2.477-2.477 5.27 5.27 0 0 0-5.265-5.265z"/></g><g><path fill="#396ab3" d="M42.59 44.074a23.315 23.315 0 0 1-15.527 5.89c-6.014-.001-12.02-2.3-16.576-6.857-8.755-8.754-9.18-22.855-.968-32.103a.443.443 0 0 1 .323-.15h.012c.076 0 .207.018.319.131l32.436 32.436c.119.119.133.259.13.33a.442.442 0 0 1-.15.323zM31.546 19.931c.08.183.17.36.275.527l-4.773 4.773-4.514-4.513zm1.59 1.842c.168.104.343.195.527.274l-.787 9.012-4.514-4.514zm2.11-5.588c1.192 0 2.163.97 2.163 2.163 0 1.194-.97 2.165-2.164 2.165a2.167 2.167 0 0 1-2.164-2.165c0-1.193.97-2.163 2.164-2.163zm-.653 16.59l.908-10.412a4.027 4.027 0 0 0 3.767-4.015 4.028 4.028 0 0 0-4.023-4.022 4.028 4.028 0 0 0-4.015 3.767L20.818 19l-9.33-9.33a2.306 2.306 0 0 0-3.359.099C-.735 19.75-.277 34.973 9.171 44.422c4.919 4.918 11.4 7.4 17.893 7.4a25.172 25.172 0 0 0 16.76-6.358 2.32 2.32 0 0 0 .774-1.657 2.32 2.32 0 0 0-.675-1.7z"/></g></g></g></svg>