<svg xmlns="http://www.w3.org/2000/svg" width="110" height="110" viewBox="0 0 110 110"><g><g opacity=".2"><path fill="#9ec5fd" d="M0 55C0 24.624 24.624 0 55 0s55 24.624 55 55-24.624 55-55 55S0 85.376 0 55z"/></g><g><g><path fill="#396ab3" d="M78.501 28.148c-3.527-3.528-8.33-5.35-13.528-5.13a.93.93 0 0 0 .079 1.857c4.672-.198 8.98 1.433 12.135 4.587 3.155 3.156 4.785 7.466 4.588 12.136a.93.93 0 1 0 1.857.079c.22-5.197-1.603-10.002-5.13-13.53z"/></g><g><path fill="#396ab3" d="M64.776 27.694a.93.93 0 1 0 .078 1.857c3.422-.145 6.578 1.048 8.887 3.357 2.31 2.31 3.502 5.466 3.357 8.888a.93.93 0 0 0 .89.967l.04.002c.495 0 .907-.391.927-.89.168-3.949-1.218-7.6-3.9-10.28-2.681-2.683-6.331-4.067-10.279-3.901z"/></g><g><path fill="#396ab3" d="M73.312 42.96l.04.001a.93.93 0 0 0 .928-.89c.113-2.698-.835-5.196-2.67-7.031-1.836-1.836-4.332-2.783-7.032-2.67a.93.93 0 1 0 .079 1.857c2.174-.09 4.175.664 5.638 2.128 1.464 1.463 2.22 3.465 2.127 5.638a.93.93 0 0 0 .89.968z"/></g><g><path fill="#396ab3" d="M32.477 84.593a.62.62 0 0 1-.618-.618 3.41 3.41 0 0 1 3.406-3.406h23.524a3.41 3.41 0 0 1 3.406 3.406.62.62 0 0 1-.619.618zM58.79 78.71h-3.438l-.503-1.814a.93.93 0 0 0-1.792.496l.366 1.317h-12.79l1.621-5.852a.93.93 0 0 0-1.79-.496l-1.76 6.349h-3.438A5.271 5.271 0 0 0 30 83.975a2.48 2.48 0 0 0 2.477 2.477h29.1a2.48 2.48 0 0 0 2.477-2.477 5.27 5.27 0 0 0-5.265-5.265z"/></g><g><path fill="#396ab3" d="M72.589 67.074a23.315 23.315 0 0 1-15.527 5.89c-6.014-.001-12.02-2.3-16.576-6.857-8.755-8.754-9.18-22.856-.968-32.103a.443.443 0 0 1 .323-.15h.012c.076 0 .207.018.319.13l32.436 32.437c.119.119.133.258.13.33a.442.442 0 0 1-.15.323zM61.545 42.931c.08.183.17.359.275.527l-4.773 4.773-4.514-4.514zm1.59 1.842c.168.104.343.195.527.274l-.787 9.012-4.514-4.514zm2.11-5.588c1.192 0 2.163.97 2.163 2.163 0 1.193-.97 2.164-2.164 2.164a2.167 2.167 0 0 1-2.164-2.164c0-1.193.97-2.163 2.164-2.163zm-.653 16.59l.908-10.412a4.027 4.027 0 0 0 3.767-4.015 4.028 4.028 0 0 0-4.023-4.023 4.028 4.028 0 0 0-4.015 3.768L50.817 42l-9.33-9.33a2.306 2.306 0 0 0-3.359.099c-8.864 9.981-8.406 25.203 1.042 34.651 4.919 4.919 11.4 7.401 17.893 7.401a25.172 25.172 0 0 0 16.76-6.358 2.32 2.32 0 0 0 .774-1.657 2.32 2.32 0 0 0-.675-1.7z"/></g></g></g></svg>