<svg xmlns="http://www.w3.org/2000/svg" width="62" height="62" viewBox="0 0 62 62"><defs><linearGradient id="6ei1a" x1="30.7" x2="30.7" y1="61.75" y2=".25" gradientUnits="userSpaceOnUse"><stop offset="0" stop-color="#5558ff"/><stop offset="1" stop-color="#00c0ff"/></linearGradient></defs><g><g><path fill="url(#6ei1a)" d="M23.372 43.492c10.929 0 19.82-8.891 19.82-19.82 0-10.928-8.891-19.819-19.82-19.819-10.928 0-19.819 8.891-19.819 19.82 0 10.928 8.89 19.819 19.82 19.819zm31.179 13.907l2.548-2.548-15.948-15.947a23.627 23.627 0 0 1-2.548 2.548zM23.372.25c12.915 0 23.423 10.507 23.423 23.423a23.28 23.28 0 0 1-3.49 12.287L60.92 53.577a1.802 1.802 0 0 1 0 2.548l-5.096 5.096a1.802 1.802 0 0 1-2.548 0L35.66 43.604a23.28 23.28 0 0 1-12.288 3.491C10.457 47.095-.05 36.588-.05 23.673-.05 10.757 10.457.25 23.372.25zm-7.207 21.62h5.406v-5.404a1.802 1.802 0 0 1 3.603 0v5.405h5.405a1.802 1.802 0 0 1 0 3.603h-5.405v5.405a1.802 1.802 0 0 1-3.603 0v-5.405h-5.406a1.802 1.802 0 0 1 0-3.603z"/></g></g></svg>