<svg xmlns="http://www.w3.org/2000/svg" width="530" height="524" viewBox="0 0 530 524"><g><g><g><path fill="#e3f9ff" d="M211.73 7.747C161.17-4.876 38.21-13.863 14.694 75.756c-23.518 89.619 25.423 137.288 0 205.297-25.424 68.008-28.602 219.916 80.085 235.17 108.686 15.255 406.082 13.264 391.526-54.661-30.508-142.373 65.929-138.753 38.772-239.62-48.94-181.78-221.284-191.21-313.349-214.195z"/></g><g><g><g><path fill="#ccc" d="M195.769 95.201h15.906l31.977 14.276h-80.967zm16.101-.91h-16.29l-37.305 16.097h89.654z"/></g></g><g><g><path fill="#ccc" d="M215.798 140.153l62.355 20.98-148.581 1.172 62.082-22.152zm67.793 21.848l-67.572-22.735-.071-.023h-24.373l-67.387 24.015z"/></g></g><g><g><path fill="#ccc" d="M188.783 182.98h29.876l36.897 16.98H149.725zm30.167-.87l-.092-.041h-30.264l-43.251 18.802h114.373z"/></g></g><g><g><path fill="#ccc" d="M207.581 74.244l-3.86 2.967-3.773-2.967zm-3.865 4.122l5.87 4.614-5.86 4.71-5.933-4.77zm.01 10.493l7.326 5.892-7.328 6.082-7.328-6.082zm23.3 14.177v7.026l8.963-3.285v3.156h.91v-4.46l-8.962 3.285v-7.288l-13.913 7.91-9.587-7.955 8.056-6.685-8.04-6.465 6.597-5.302-6.588-5.18 5.799-4.46h-12.946l5.662 4.451-6.658 5.12 6.68 5.37-8.044 6.466 8.055 6.685-9.594 7.962-14.801-7.808.088 7.5-10.558-2.946v3.8h.911v-2.6l10.572 2.95-.084-7.184 13.986 7.379 10.194-8.46 10.202 8.466z"/></g></g><g><g><path fill="#ccc" d="M203.756 116.793l9.843 6.054-9.909 7.326-9.85-7.242zm-.065 14.513l10.793 7.937h-21.527zm.767-.567l10.767-7.961-10.602-6.522 9.592-5.937-.48-.774-9.98 6.177-10.043-6.178-.478.776 9.653 5.939-10.673 6.606 10.71 7.876-12.731 9.412h27.068z"/></g></g><g><g><path fill="#ccc" d="M187.125 200.965l-12.776-10.358v10.181l-12.686-5.163v4.79h-.91v-6.144l12.685 5.163v-10.739l13.779 11.171 30.696-17.387-28.193-20.16 25.85-22.962.605.682-24.996 22.203 28.426 20.327z"/></g></g><g><g><path fill="#ccc" d="M220.28 200.94l-32.437-18.371 28.426-20.327-24.996-22.203.605-.682 25.85 22.962-28.193 20.16 30.739 17.41 16.271-9.478v9.15l11.44-3.972v4.826h-.911v-3.546l-11.44 3.973v-8.846z"/></g></g><g><g><path fill="#ccc" d="M160.935 162.932l-14.647-5.866v5.566h-.912v-6.913l14.649 5.866v-11.03l15.688 10.536V144.85l15.08 17.129-.685.602-13.485-15.318V162.8l-15.688-10.536z"/></g></g><g><g><path fill="#ccc" d="M217.308 162.614l-.62-.668 17.769-16.478v15.098l14.755-10.151-.008 10.514 14.202-5.709v6.488h-.911v-5.14l-14.203 5.71.007-10.13-14.753 10.151v-14.743z"/></g></g><g><g><path fill="#ccc" d="M203.722 201.416l21.666 22.758h-43.476zm.003-1.319l-23.948 24.988h47.736z"/></g></g><g><g><path fill="#ccc" d="M203.723 225.558l30.722 31.783-30.721 18.052-30.804-18.09zm32.181 31.982l-32.18-33.291-32.267 33.253 32.036 18.812.23.136z"/></g></g><g><g><path fill="#ccc" d="M224.308 215.152h-7.012l3.493-8.512h-11.961l11.218-6.617.462.785-8.342 4.92h9.981l-3.493 8.513h5.654z"/></g></g><g><g><path fill="#ccc" d="M190.044 215.152h-6.904v-.91h5.59l-3.378-9.036h10l-8.393-4.387.423-.807 11.682 6.105h-12.4z"/></g></g><g><g><path fill="#ccc" d="M187.248 225.508l7.002 6.4h-14.678zm.027-1.21l-10.22 8.52h19.543z"/></g></g><g><g><path fill="#ccc" d="M183.677 233.827l2.386 7.297h-9.091zm.383-1.763l-9.162 9.97h12.422z"/></g></g><g><g><path fill="#ccc" d="M200.194 66.043h7.06l2.247 7.829 1.82 20.94 2.199 15.15 1.898 29.758 1.064 21.886 1.823 20.957 1.518 17.89 7.15 25.366 8.19 31.7 6.085 56.477-37.524-38.338-37.525 38.339 6.074-56.413 8.198-31.754 7.138-25.29 1.534-17.976 1.823-20.976 1.064-21.861 1.894-29.73 2.205-15.212 1.818-20.913zm35.863 191.313l-8.204-31.774-7.126-25.249-1.514-17.848-1.822-20.94-1.063-21.876-1.902-29.802-2.2-15.161-1.821-20.957-2.466-8.617h-8.43l-2.45 8.53-1.835 21.018-2.206 15.223-1.898 29.773-1.063 21.851-1.822 20.958-1.514 17.848-7.13 25.259-8.212 31.829-6.367 59.092 38.712-39.552 38.712 39.552z"/></g></g><g><g><path fill="#ccc" d="M192.735 270.858l-5.537 11.898-5.54-11.898zm-11.895.4l5.986 12.86h-16.343zm14.795 12.86h-8.066l6.596-14.171h-12.931l-.186-.4-.322.4h-10.288v.91h9.554l-11.413 14.172h27.056z"/></g></g><g><g><path fill="#ccc" d="M226.367 270.857l-6.17 12.117-5.609-12.117zm.823.394l9.906 12.867h-16.459zm11.758 13.778l-10.911-14.172h8.972v-.91h-9.674l-.303-.394-.2.393h-13.67l6.56 14.172h-7.613v.91s8.035 0 8.05.031z"/></g></g><g><g><path fill="#ccc" d="M230.94 285.91l7.454 10.534h-13.018zm-.112-1.737l-6.964 13.182h16.292z"/></g></g><g><g><path fill="#ccc" d="M175.98 285.718l6.838 9.797h-13.845zm.01-1.58l-8.788 12.288h17.363z"/></g></g><g><g><path fill="#ccc" d="M220.198 225.508l7.678 6.399h-14.652zm-.029-1.21l-9.286 8.52h19.509z"/></g></g><g><g><path fill="#ccc" d="M224.473 233.948l6.36 8.155h-8.72zm-.379-1.967l-3.193 11.033h11.798z"/></g></g><g><g><path fill="#ccc" d="M227.23 271.19l-5.348-5.653.662-.626 4.448 4.702 5.346-10.846 5.088 11.45-.833.37-4.298-9.672z"/></g></g><g><g><path fill="#ccc" d="M181.489 271.136l-5.636-10.028-5.012 9.507-.806-.425 5.792-10.987 5.882 10.466 4.337-4.124.629.66z"/></g></g><g><g><path fill="#ccc" d="M245.335 136.623v-26.69h.911v26.69z"/></g></g><g><g><path fill="#ccc" d="M160.024 136.623v-26.69h.911v26.69z"/></g></g><g><g><path fill="#ccc" d="M126.424 198.58v-35.798h.911v35.797z"/></g></g><g><g><path fill="#ccc" d="M280.416 198.58v-37.013h.911v37.012z"/></g></g><g><g><path fill="#ccc" d="M257.18 233.106v-32.69h.912v32.69z"/></g></g><g><g><path fill="#ccc" d="M147.078 233.104v-32.689h.911v32.69z"/></g></g><g><g><path fill="#ccc" d="M245.078 136.623a.502.502 0 0 1-.502-.503v-6.209c0-.277.225-.502.502-.502h1.425c.278 0 .503.225.503.502v6.21a.502.502 0 0 1-.503.502z"/></g><g><path fill="#ccc" d="M246.277 129.678a.46.46 0 0 1 .46.46v5.756a.46.46 0 0 1-.46.46h-.972a.461.461 0 0 1-.46-.46v-5.756a.46.46 0 0 1 .46-.46zm.997 6.216v-5.756a.998.998 0 0 0-.997-.997h-.972a.999.999 0 0 0-.998.997v5.756c0 .55.448.997.998.997h.972c.55 0 .997-.447.997-.997z"/></g></g><g><g><path fill="#ccc" d="M280.075 198.58a.418.418 0 0 1-.418-.419v-6.377c0-.231.187-.418.418-.418h1.593c.231 0 .419.187.419.418v6.377c0 .231-.188.418-.419.418z"/></g><g><path fill="#ccc" d="M281.48 191.634c.186 0 .338.152.338.338v6a.338.338 0 0 1-.338.339h-1.216a.339.339 0 0 1-.338-.339v-6c0-.186.152-.338.338-.338zm.876 6.338v-6a.877.877 0 0 0-.876-.875h-1.216a.877.877 0 0 0-.876.875v6c0 .483.393.875.876.875h1.216a.877.877 0 0 0 .876-.875z"/></g></g><g><g><path fill="#ccc" d="M256.916 233.106a.495.495 0 0 1-.495-.495v-6.224c0-.273.222-.495.495-.495h1.44c.273 0 .495.222.495.495v6.224a.495.495 0 0 1-.495.495z"/></g><g><path fill="#ccc" d="M258.132 226.16a.45.45 0 0 1 .45.45v5.777a.45.45 0 0 1-.45.45h-.992a.45.45 0 0 1-.45-.45v-5.776a.45.45 0 0 1 .45-.45zm.988 6.227v-5.776a.988.988 0 0 0-.988-.987h-.992a.988.988 0 0 0-.987.987v5.776c0 .544.442.987.987.987h.992a.988.988 0 0 0 .988-.987z"/></g></g><g><g><path fill="#ccc" d="M159.691 136.623a.426.426 0 0 1-.426-.426v-6.362c0-.235.19-.426.426-.426h1.578c.235 0 .426.19.426.426v6.362c0 .235-.19.426-.426.426z"/></g><g><path fill="#ccc" d="M161.078 129.678a.35.35 0 0 1 .348.349v5.978a.35.35 0 0 1-.348.35h-1.195a.35.35 0 0 1-.349-.35v-5.978a.35.35 0 0 1 .35-.35zm.886 6.327v-5.978a.887.887 0 0 0-.886-.886h-1.195a.888.888 0 0 0-.887.886v5.978c0 .489.398.886.887.886h1.195a.888.888 0 0 0 .886-.886z"/></g></g><g><g><path fill="#ccc" d="M126.26 198.58a.594.594 0 0 1-.595-.595v-6.025c0-.328.266-.594.594-.594h1.241c.329 0 .595.266.595.594v6.025a.594.594 0 0 1-.595.594z"/></g><g><path fill="#ccc" d="M127.232 191.634c.328 0 .594.266.594.594v5.488a.594.594 0 0 1-.594.595h-.704a.595.595 0 0 1-.594-.595v-5.488c0-.328.266-.594.594-.594zm1.131 6.082v-5.488c0-.624-.507-1.131-1.13-1.131h-.705c-.624 0-1.132.507-1.132 1.131v5.488c0 .624.508 1.131 1.132 1.131h.704c.624 0 1.131-.507 1.131-1.13z"/></g></g><g><g><path fill="#ccc" d="M146.939 233.104a.62.62 0 0 1-.62-.62v-5.973a.62.62 0 0 1 .62-.62h1.19a.62.62 0 0 1 .62.62v5.974a.62.62 0 0 1-.62.62z"/></g><g><path fill="#ccc" d="M147.85 226.16c.347 0 .63.282.63.63v5.415a.632.632 0 0 1-.63.631h-.632a.632.632 0 0 1-.63-.631v-5.414c0-.349.283-.632.63-.632zm1.168 6.045v-5.414a1.17 1.17 0 0 0-1.168-1.169h-.632a1.17 1.17 0 0 0-1.168 1.169v5.414a1.17 1.17 0 0 0 1.168 1.168h.632a1.17 1.17 0 0 0 1.168-1.168z"/></g></g></g><g><g><g><path fill="gray" d="M93.76 46.902h17.957l36.099 16.115H56.412zm18.277-.984l-.1-.045h-18.39L51.432 64.046h101.212z"/></g></g><g><g><path fill="gray" d="M116.371 97.649l70.392 23.683-167.734 1.324 70.085-25.007zm76.532 24.663l-76.284-25.665-.08-.027H89.026l-76.073 27.112z"/></g></g><g><g><path fill="gray" d="M85.874 145.995h33.727l41.653 19.169H41.78zm34.054-.981l-.102-.048H85.66l-48.826 21.227H165.95z"/></g></g><g><g><path fill="gray" d="M107.094 23.243l-4.356 3.349-4.259-3.35zm-4.363 4.652l6.627 5.21-6.616 5.317-6.697-5.386zm.011 11.847l8.272 6.652-8.274 6.866-8.273-6.866zm26.304 16.004v7.931l10.118-3.707v3.561h1.03v-5.033l-10.119 3.707v-8.227l-15.707 8.93-10.822-8.98 9.094-7.547-9.077-7.299 7.448-5.986-7.438-5.848 6.547-5.034H95.506l6.391 5.025-7.516 5.78 7.54 6.063-9.08 7.299 9.094 7.547-10.83 8.988-16.71-8.815.099 8.467-11.919-3.326v4.29h1.03v-2.935l11.933 3.331-.095-8.11 15.79 8.329 11.507-9.55 11.518 9.557z"/></g></g><g><g><path fill="gray" d="M102.777 71.276l11.11 6.835-11.185 8.271-11.12-8.177zm-.074 16.384l12.185 8.96H90.586zm.866-.64l12.154-8.988-11.968-7.362 10.83-6.701-.543-.875-11.267 6.974-11.337-6.975-.54.876 10.899 6.704-12.05 7.459 12.089 8.89-14.372 10.627h30.559z"/></g></g><g><g><path fill="gray" d="M84.001 166.299L69.58 154.606V166.1l-14.322-5.83v5.409h-1.03v-6.937l14.323 5.829v-12.123l15.554 12.61 34.653-19.627-31.827-22.76 29.183-25.921.683.769-28.22 25.065 32.091 22.947z"/></g></g><g><g><path fill="gray" d="M121.431 166.272l-36.619-20.74 32.09-22.948-28.218-25.065.683-.77 29.182 25.922-31.827 22.76 34.702 19.655 18.369-10.702v10.33l12.915-4.484v5.449h-1.03v-4.003l-12.914 4.484v-9.986z"/></g></g><g><g><path fill="gray" d="M54.437 123.363L37.9 116.742v6.283h-1.03v-7.804l16.538 6.622v-12.452l17.71 11.894V102.95l17.023 19.337-.772.68-15.222-17.292v17.54l-17.71-11.894z"/></g></g><g><g><path fill="gray" d="M118.076 123.004l-.7-.754 20.059-18.602v17.045l16.657-11.46-.008 11.87 16.032-6.445v7.323h-1.03v-5.8l-16.033 6.444.009-11.435-16.656 11.46v-16.645z"/></g></g><g><g><path fill="gray" d="M102.739 166.809l24.458 25.69h-49.08zm.002-1.49l-27.034 28.21h53.89z"/></g></g><g><g><path fill="gray" d="M102.74 194.063l34.681 35.88-34.68 20.379L67.964 229.9zm36.33 36.104l-36.33-37.583-36.425 37.54 36.425 21.391z"/></g></g><g><g><path fill="gray" d="M125.978 182.315h-7.915l3.943-9.61H108.5l12.665-7.47.523.887-9.419 5.555h11.27l-3.944 9.61h6.382z"/></g></g><g><g><path fill="gray" d="M87.297 182.315h-7.794v-1.028h6.311L82 171.087h11.292l-9.476-4.952.476-.912 13.188 6.892H83.482z"/></g></g><g><g><path fill="gray" d="M84.14 194.006l7.905 7.224h-16.57zm.031-1.365l-11.536 9.618h22.06z"/></g></g><g><g><path fill="gray" d="M80.11 203.398l2.693 8.236H72.54zm.432-1.99l-10.344 11.255h14.024z"/></g></g><g><g><path fill="gray" d="M60.379 293.902l6.866-63.722 9.245-35.811 8.058-28.55 1.732-20.294 2.058-23.678 1.2-24.68 2.14-33.562 2.488-17.173 2.053-23.61 2.537-8.837h7.969l2.536 8.838 2.057 23.638 2.482 17.103 2.142 33.595 1.202 24.707 2.057 23.659 1.714 20.197 8.072 28.636 9.249 35.822 6.866 63.722-42.362-43.28zm78.875-63.87l-9.273-35.943-8.045-28.503-1.71-20.15-2.056-23.639-1.202-24.695-2.146-33.644-2.482-17.115-2.058-23.66-2.782-9.727h-9.52l-2.763 9.63-2.072 23.728-2.49 17.185-2.144 33.61-1.199 24.668-2.057 23.66-1.71 20.15-8.048 28.513-9.258 35.86-7.2 66.782 43.701-44.65 43.702 44.65z"/></g></g><g><g><path fill="gray" d="M90.335 245.202l-6.252 13.432-6.252-13.432zm-13.429.451l6.758 14.519h-18.45zm16.703 14.519h-9.106l7.445-15.999H77.352l-.211-.452-.364.452H65.164v1.029H75.95L63.065 261.2h30.544z"/></g></g><g><g><path fill="gray" d="M128.303 245.202l-6.965 13.679-6.333-13.68zm.928.444l11.184 14.526h-18.58zm13.274 15.554l-12.318-15.998h10.13v-1.029h-10.922l-.342-.444-.226.444h-15.431l7.406 15.999h-8.596v1.028h9.072l.016.034z"/></g></g><g><g><path fill="gray" d="M133.466 262.195l8.415 11.891h-14.697zm-.127-1.961l-7.862 14.881h18.392z"/></g></g><g><g><path fill="gray" d="M71.42 261.977l7.72 11.061H63.51zm.01-1.783l-9.92 13.873h19.603z"/></g></g><g><g><path fill="gray" d="M121.339 194.007l8.666 7.223h-16.54zm-.034-1.367l-10.483 9.619h22.025z"/></g></g><g><g><path fill="gray" d="M126.165 203.534l7.18 9.206H123.5zm-.428-2.221l-3.606 12.456h13.32z"/></g></g><g><g><path fill="gray" d="M129.277 245.578l-6.038-6.383.748-.706 5.02 5.308 6.035-12.244 5.745 12.925-.94.418-4.853-10.919z"/></g></g><g><g><path fill="gray" d="M77.64 245.515l-6.364-11.32-5.657 10.732-.91-.48 6.539-12.402 6.64 11.814 4.896-4.655.71.746z"/></g></g><g><g><path fill="gray" d="M149.715 93.662v-30.13h1.03v30.13z"/></g></g><g><g><path fill="gray" d="M53.408 93.662v-30.13h1.028v30.13z"/></g></g><g><g><path fill="gray" d="M15.476 163.606v-40.412h1.029v40.412z"/></g></g><g><g><path fill="gray" d="M189.319 163.606v-41.784h1.029v41.784z"/></g></g><g><g><path fill="gray" d="M163.088 202.583V165.68h1.03v36.904z"/></g></g><g><g><path fill="gray" d="M38.792 202.582v-36.903h1.03v36.903z"/></g></g><g><path fill="#767676" d="M149.36 93.662a.502.502 0 0 1-.502-.502v-7.139c0-.277.225-.502.503-.502h1.738c.278 0 .502.225.502.502v7.14a.502.502 0 0 1-.502.501z"/></g><g><path fill="#767676" d="M188.88 163.606a.418.418 0 0 1-.418-.418v-7.308c0-.23.187-.418.418-.418h1.907c.23 0 .418.188.418.419v7.307c0 .23-.187.418-.418.418z"/></g><g><path fill="#767676" d="M162.726 202.583a.495.495 0 0 1-.495-.495v-7.153c0-.274.222-.495.495-.495h1.753c.273 0 .495.221.495.495v7.153a.495.495 0 0 1-.495.495z"/></g><g><path fill="#767676" d="M52.976 93.662a.426.426 0 0 1-.425-.425v-7.292c0-.235.19-.426.425-.426h1.892c.235 0 .426.19.426.426v7.292c0 .235-.191.425-.426.425z"/></g><g><path fill="#767676" d="M15.213 163.606a.594.594 0 0 1-.594-.595v-6.954c0-.328.266-.595.594-.595h1.554c.329 0 .595.267.595.595v6.954a.594.594 0 0 1-.595.595z"/></g><g><path fill="#767676" d="M38.555 202.582a.62.62 0 0 1-.62-.62v-6.904a.62.62 0 0 1 .62-.62h1.503a.62.62 0 0 1 .62.62v6.904a.62.62 0 0 1-.62.62z"/></g></g><g><g><path fill="#298fe2" d="M185.18 411.556h-4.139v-29.49c0-6.975-5.674-12.665-12.649-12.686l-81.06-.24.013-4.14 81.06.24c9.25.028 16.776 7.576 16.776 16.826z"/></g></g><g><g><g><path fill="#006830" d="M125.739 182.67l-43.73-54.774c-.463.37-.73.986-.564 1.656 1.991 8.132 7.38 28.647 12.43 34.959 5.025 6.27 23.04 15.05 30.163 18.361a1.604 1.604 0 0 0 1.7-.203z"/></g><g><path fill="#00923d" d="M115.086 147.577c-5.037-6.324-23.848-16.12-31.337-19.863a1.598 1.598 0 0 0-1.74.183l43.73 54.773c.453-.362.718-.96.574-1.614-1.652-7.679-6.223-27.192-11.227-33.48z"/></g></g><g><g><path fill="#006830" d="M123.507 232.135c-.51-1.677-12.307-41.208 3.463-53.566l1.687 2.152c-14.31 11.215-2.652 50.225-2.533 50.618z"/></g></g><g><g><path fill="#006830" d="M124.908 182.026l55.83-66.243c.561.472.871 1.241.642 2.064-2.727 9.983-10.058 35.154-16.506 42.787-6.413 7.584-28.963 17.84-37.871 21.698a1.982 1.982 0 0 1-2.095-.306z"/></g><g><path fill="#00923d" d="M139.222 139.014c6.43-7.648 29.997-19.136 39.373-23.515a1.975 1.975 0 0 1 2.144.284l-55.831 66.242a1.982 1.982 0 0 1-.657-2.013c2.293-9.433 8.582-33.393 14.97-40.998z"/></g></g></g><g><g><g><path fill="#006830" d="M214.026 499.363l50.665 21.614c-.183.428-.592.76-1.136.775-6.576.2-23.244.427-29.085-2.072-5.805-2.488-16.237-14.288-20.24-18.987a1.26 1.26 0 0 1-.204-1.33z"/></g><g><path fill="#00923d" d="M242.84 500.06c5.846 2.486 17.217 14.675 21.624 19.561.366.402.41.927.227 1.356l-50.665-21.614a1.26 1.26 0 0 1 1.1-.774c6.163-.362 21.901-.998 27.714 1.47z"/></g></g><g><g><path fill="#006830" d="M178.275 511.454c-.677 0-1.108-.009-1.243-.012l.053-2.149c.333.007 32.32.635 37.804-12.55l1.984.826c-5.455 13.115-32.37 13.885-38.598 13.885z"/></g></g><g><g><path fill="#006830" d="M214.688 499.856l38.442-56.195a1.553 1.553 0 0 0-1.699-.052c-6.987 4.162-24.51 15-28.937 21.487-4.396 6.45-7.428 25.682-8.478 33.238a1.556 1.556 0 0 0 .672 1.522z"/></g><g><path fill="#00923d" d="M244.256 479.983c4.44-6.477 8.192-26.737 9.538-34.758a1.552 1.552 0 0 0-.664-1.564l-38.442 56.195a1.556 1.556 0 0 0 1.662.075c6.663-3.717 23.488-13.513 27.906-19.948z"/></g></g></g><g><g><path fill="#298fe2" d="M89.039 403.339h-3.4v-33.567c0-10.895-8.864-19.758-19.759-19.758H45.327c-12.769 0-23.158-10.39-23.158-23.16v-9.73c0-12.769 10.39-23.158 23.158-23.158h73.18v3.4h-73.18c-10.894 0-19.758 8.864-19.758 19.759v9.73c0 10.894 8.864 19.758 19.758 19.758H65.88c12.77 0 23.159 10.39 23.159 23.159z"/></g></g><g><path fill="#fff" d="M327.905 92.805a5.157 5.157 0 0 1-5.156 5.158l-.263-.007-13.147-.277-39.945-.2c-4 0-6.936-1.335-6.936-3.575 0-2.79 1.493-4.195 5.418-3.937a10.293 10.293 0 0 1-.326-2.588c0-5.685 4.61-10.3 10.3-10.3 2.693 0 5.148 1.036 6.981 2.729.418-5.299 4.853-9.474 10.264-9.474 5.026 0 9.211 3.603 10.114 8.365a10.227 10.227 0 0 1 5.541-1.62c5.69 0 10.3 4.615 10.3 10.3 0 .186-.003.372-.018.559a5.157 5.157 0 0 1 6.872 4.867z"/></g><g><path fill="#fff" d="M229.388 44.085c0 4.024-3.26 7.29-7.284 7.29l-.372-.01-18.578-.393-56.442-.282c-5.652 0-9.8-1.886-9.8-5.052 0-3.942 2.109-5.927 7.656-5.562a14.55 14.55 0 0 1-.461-3.657c0-8.034 6.515-14.554 14.553-14.554a14.5 14.5 0 0 1 9.865 3.856c.59-7.488 6.857-13.387 14.503-13.387 7.101 0 13.016 5.09 14.29 11.82a14.452 14.452 0 0 1 7.831-2.289c8.039 0 14.553 6.52 14.553 14.554 0 .263-.004.526-.024.789a7.282 7.282 0 0 1 2.426-.412 7.287 7.287 0 0 1 7.284 7.289z"/></g><g><g><path fill="#999" d="M193.663 407.027v6.611h-23.006v-.06h11.508V402.04h6.522a4.978 4.978 0 0 1 4.976 4.987z"/></g><g><path fill="#999" d="M199.131 415.284c0 .944-.762 1.706-1.695 1.706h-15.271v-3.351h-11.508v-.06h26.779c.933 0 1.695.762 1.695 1.705z"/></g><g><path fill="gray" d="M182.164 413.578v3.412h-15.272a1.703 1.703 0 0 1-1.706-1.706c0-.944.762-1.706 1.706-1.706z"/></g><g><path fill="gray" d="M182.165 402.04v11.538h-11.508v-6.551a4.98 4.98 0 0 1 4.986-4.987z"/></g><g><path fill="#00c0ff" d="M215.002 420.861v90.747a2.241 2.241 0 0 1-2.245 2.237H52.749c-1.238 0-2.245-1-2.245-2.237V420.86a3.873 3.873 0 0 1 3.88-3.871h156.739c2.142 0 3.88 1.73 3.88 3.871z"/></g><g><path fill="#999" d="M100.707 407.027v6.611H77.7v-.06h11.508V402.04h6.522a4.978 4.978 0 0 1 4.977 4.987z"/></g><g><path fill="#999" d="M106.175 415.284c0 .944-.763 1.706-1.696 1.706H89.21v-3.351h-11.51v-.06h26.78c.933 0 1.696.762 1.696 1.705z"/></g><g><path fill="#298fe2" d="M215.002 510.569v1.039a2.241 2.241 0 0 1-2.245 2.237H52.749c-1.238 0-2.245-1-2.245-2.237V420.86a3.873 3.873 0 0 1 3.88-3.871h.674z"/></g><g><path fill="gray" d="M89.208 413.578v3.412h-15.27a1.705 1.705 0 1 1 0-3.412H77.7z"/></g><g><path fill="gray" d="M89.208 402.04v11.538H77.7v-6.551a4.98 4.98 0 0 1 4.987-4.987z"/></g><g><path fill="gray" d="M77.7 413.878v-.06h11.508v.06z"/></g><g opacity=".51"><path fill="#fffeff" d="M118.274 422.755h85.166a4.109 4.109 0 0 1 4.108 4.109v50.898z"/></g><g><path fill="#b3b3b3" d="M91.3 403.644h4.363a2.677 2.677 0 0 1 2.677 2.678v5.652z"/></g><g><path fill="#b3b3b3" d="M184.256 403.674h4.364c1.479 0 2.678 1.2 2.678 2.678v5.653z"/></g><g><g><path fill="#fff" d="M70.546 502.242v-27.963h3.408v27.963z"/></g></g><g><g><path fill="#fff" d="M58.268 489.965v-3.41h27.964v3.41z"/></g></g><g><g><path fill="#fff" d="M170.621 436.035v-3.408h27.963v3.408z"/></g></g></g><g><g><g><path fill="#b1edff" d="M457.523 406.408h-20.18a2.198 2.198 0 1 1 0-4.396h20.18c15.903 0 28.84-12.937 28.84-28.838 0-15.903-12.937-28.84-28.84-28.84H302.687a2.198 2.198 0 1 1 0-4.396h154.836c18.326 0 33.235 14.91 33.235 33.235 0 18.326-14.909 33.235-33.235 33.235z"/></g></g><g transform="rotate(-90 344 404.5)"><path fill="#a4e2f5" d="M335.07 492.813c-5.747 0-10.407-4.66-10.407-10.407V326.014c0-5.748 4.66-10.407 10.407-10.407h17.228c5.747 0 10.407 4.66 10.407 10.407v156.392c0 5.747-4.66 10.407-10.407 10.407z"/></g><g transform="rotate(-90 268.5 404.5)"><path fill="#d77578" d="M259.531 409.747a2.042 2.042 0 0 1-2.042-2.042v-6.51c0-1.127.914-2.041 2.042-2.041h18.067c1.127 0 2.042.914 2.042 2.042v6.51a2.042 2.042 0 0 1-2.042 2.041z"/></g><g transform="rotate(-90 437.5 404.5)"><path fill="#a4e2f5" d="M434.319 409.266a2.032 2.032 0 0 1-2.032-2.032v-8.08h10.112v8.08c0 1.122-.91 2.032-2.032 2.032z"/></g><g><path fill="#77c8e1" d="M281.578 404.21c0-6.901 5.594-12.496 12.496-12.496 6.901 0 12.496 5.595 12.496 12.496 0 6.901-5.595 12.496-12.496 12.496-6.902 0-12.496-5.595-12.496-12.496z"/></g><g transform="rotate(-80.783 328 404)"><path fill="#77c8e1" d="M315.73 404.21c0-6.902 5.596-12.496 12.497-12.496s12.496 5.594 12.496 12.496c0 6.901-5.595 12.496-12.496 12.496-6.901 0-12.496-5.595-12.496-12.496z"/></g><g><path fill="#77c8e1" d="M350.962 404.21c0-6.901 5.595-12.496 12.496-12.496 6.902 0 12.496 5.595 12.496 12.496 0 6.901-5.594 12.496-12.496 12.496-6.9 0-12.496-5.595-12.496-12.496z"/></g><g transform="rotate(-80.783 398.5 404)"><path fill="#77c8e1" d="M385.953 404.21c0-6.902 5.595-12.496 12.496-12.496 6.901 0 12.496 5.594 12.496 12.496 0 6.901-5.595 12.496-12.496 12.496-6.901 0-12.496-5.595-12.496-12.496z"/></g><g><path fill="#6ab4ca" d="M295.545 398.366a1.51 1.51 0 1 1-3.021 0 1.51 1.51 0 0 1 3.021 0z"/></g><g><path fill="#6ab4ca" d="M292.523 409.905a1.511 1.511 0 1 1 3.022 0 1.511 1.511 0 0 1-3.022 0z"/></g><g><path fill="#6ab4ca" d="M329.614 398.366a1.511 1.511 0 1 1-3.022 0 1.511 1.511 0 0 1 3.022 0z"/></g><g><path fill="#6ab4ca" d="M326.592 409.905a1.511 1.511 0 1 1 3.022 0 1.511 1.511 0 0 1-3.022 0z"/></g><g><path fill="#6ab4ca" d="M364.782 398.366a1.51 1.51 0 1 1-3.021 0 1.51 1.51 0 0 1 3.021 0z"/></g><g><path fill="#6ab4ca" d="M361.76 409.905a1.511 1.511 0 1 1 3.022 0 1.511 1.511 0 0 1-3.022 0z"/></g><g><path fill="#6ab4ca" d="M396.928 397.816a1.511 1.511 0 1 1 3.022 0 1.511 1.511 0 0 1-3.022 0z"/></g><g><path fill="#6ab4ca" d="M399.95 409.355a1.511 1.511 0 1 1-3.023 0 1.511 1.511 0 0 1 3.023 0z"/></g></g><g><g><path fill="#298fe2" d="M313.451 404.24c0-8.109 6.573-14.682 14.682-14.682 8.108 0 14.681 6.573 14.681 14.682 0 8.108-6.573 14.681-14.681 14.681-8.109 0-14.682-6.573-14.682-14.681z"/></g><g><path fill="#00c0ff" d="M339.025 404.675c0 6.78-19.055-12.275-12.275-12.275"/></g><g><g><path fill="#298fe2" d="M360.653 470.78h-13.655c-11.317 0-20.523-9.206-20.523-20.522V416.79h2.842v33.468c0 9.75 7.932 17.68 17.68 17.68h13.656c9.75 0 17.681-7.93 17.681-17.68V301.232h2.842v149.026c0 11.316-9.206 20.522-20.523 20.522z"/></g></g></g><g><g><path fill="#fff" d="M317.47 475.55L287.49 505.53a3.222 3.222 0 1 1-4.558-4.559l29.978-29.978a3.223 3.223 0 1 1 4.559 4.559z"/></g><g><path fill="#fff" d="M287.491 470.992l29.979 29.978a3.223 3.223 0 1 1-4.559 4.559l-29.978-29.978a3.223 3.223 0 1 1 4.558-4.56z"/></g></g><g><g><path fill="#b7eaff" d="M452.508 433.982v42.396a3.223 3.223 0 1 1-6.446 0v-42.396a3.223 3.223 0 1 1 6.446 0z"/></g><g><path fill="#b7eaff" d="M428.088 451.957h42.395a3.223 3.223 0 1 1 0 6.446h-42.395a3.223 3.223 0 1 1 0-6.446z"/></g></g><g><g><path fill="#fff" d="M479.333 291.92v26.412a2.007 2.007 0 0 1-4.016 0V291.92a2.008 2.008 0 1 1 4.016 0z"/></g><g><path fill="#fff" d="M464.12 303.118h26.411a2.008 2.008 0 0 1 0 4.016H464.12a2.008 2.008 0 1 1 0-4.016z"/></g></g><g><g><path fill="#b7eaff" d="M321.646 146.607l18.675 18.675a2.008 2.008 0 1 1-2.84 2.84l-18.674-18.676a2.007 2.007 0 1 1 2.84-2.84z"/></g><g><path fill="#b7eaff" d="M318.807 165.282l18.675-18.675a2.008 2.008 0 0 1 2.84 2.84l-18.676 18.675a2.008 2.008 0 0 1-2.84-2.84z"/></g></g><g><g><path fill="#00923d" d="M26.092 250.708l15.854 15.855a1.704 1.704 0 1 1-2.41 2.41L23.68 253.12a1.704 1.704 0 1 1 2.41-2.41z"/></g><g><path fill="#00923d" d="M23.68 266.563l15.855-15.854a1.705 1.705 0 0 1 2.411 2.41l-15.854 15.855a1.704 1.704 0 1 1-2.411-2.411z"/></g></g><g><g><path fill="#b7eaff" d="M27.323 88.823l11.367 11.368a1.222 1.222 0 1 1-1.728 1.729L25.594 90.552a1.222 1.222 0 1 1 1.729-1.729z"/></g><g><path fill="#b7eaff" d="M25.594 100.191l11.368-11.368a1.222 1.222 0 0 1 1.728 1.729L27.323 101.92a1.222 1.222 0 1 1-1.729-1.729z"/></g></g><g><g><path fill="#fff" d="M222.74 80.247l9.651 9.65a1.038 1.038 0 0 1-1.468 1.468l-9.65-9.65a1.037 1.037 0 1 1 1.467-1.468z"/></g><g><path fill="#fff" d="M221.273 89.897l9.65-9.65a1.037 1.037 0 1 1 1.468 1.467l-9.65 9.651a1.038 1.038 0 0 1-1.468-1.468z"/></g></g><g><g><path fill="#fff" d="M54.177 183.608l9.65 9.651a1.038 1.038 0 0 1-1.467 1.468l-9.65-9.651a1.038 1.038 0 0 1 1.467-1.468z"/></g><g><path fill="#fff" d="M52.71 193.259l9.65-9.65a1.038 1.038 0 0 1 1.467 1.467l-9.65 9.65a1.038 1.038 0 0 1-1.468-1.467z"/></g></g><g><g><path fill="#00923d" d="M483.741 63.456l11.368 11.368a1.223 1.223 0 0 1-1.728 1.728l-11.369-11.367a1.222 1.222 0 1 1 1.729-1.73z"/></g><g><path fill="#00923d" d="M482.012 74.824l11.369-11.368a1.222 1.222 0 1 1 1.728 1.729l-11.368 11.367a1.222 1.222 0 0 1-1.729-1.728z"/></g></g><g><g><path fill="#00923d" d="M56.18 316.54l11.368 11.367a1.222 1.222 0 1 1-1.729 1.729l-11.368-11.368a1.222 1.222 0 0 1 1.729-1.729z"/></g><g><path fill="#00923d" d="M54.451 327.907l11.368-11.368a1.222 1.222 0 1 1 1.729 1.73L56.18 329.634a1.222 1.222 0 1 1-1.729-1.728z"/></g></g><g transform="rotate(-80.783 31 383.5)"><path fill="#b7eaff" d="M16.297 383.376c0-8.123 6.585-14.708 14.708-14.708 8.122 0 14.707 6.585 14.707 14.708 0 8.122-6.585 14.707-14.707 14.707-8.123 0-14.708-6.585-14.708-14.707z"/></g><g transform="rotate(-80.783 504.5 110)"><path fill="#b7eaff" d="M494.826 109.932c0-5.495 4.455-9.95 9.95-9.95 5.496 0 9.951 4.455 9.951 9.95 0 5.496-4.455 9.951-9.95 9.951-5.496 0-9.951-4.455-9.951-9.95z"/></g><g><g><path fill="#b7eaff" d="M469.823 221.296c-11.304 11.307-29.639 11.307-40.944 0-11.307-11.307-11.307-29.64 0-40.946 11.305-11.305 29.637-11.305 40.944 0 11.308 11.306 11.308 29.639 0 40.946zm44.804-3.566h10.57l-.003-33.947h-10.57l-7.131-17.227 7.471-7.474-24.005-24.006-7.474 7.475-17.227-7.134v-10.57H432.31v10.567l-17.237 7.126-7.474-7.474-24.005 24.006 7.474 7.474-7.127 17.237h-10.567v33.947l10.567.003 7.137 17.224-7.474 7.474 24.005 24.006 7.474-7.474 17.224 7.137.003 10.567h33.948V266.1l17.203-7.16 7.474 7.474 24.006-24.006-7.474-7.474z"/></g><g><path fill="#e3f9ff" d="M469.824 221.296c-11.305 11.308-29.64 11.308-40.944 0-11.308-11.307-11.308-29.64 0-40.946 11.304-11.305 29.636-11.305 40.944 0 11.307 11.307 11.307 29.639 0 40.946z"/></g><g><g><path fill="#fff" d="M414.674 166.147c9.263-9.263 21.578-14.364 34.678-14.364 13.099 0 25.414 5.101 34.677 14.364 19.12 19.121 19.12 50.234 0 69.355-19.122 19.121-50.234 19.12-69.355 0-19.12-19.121-19.12-50.234 0-69.355zm71.19 71.19c20.133-20.133 20.133-52.892 0-73.025-9.753-9.752-22.72-15.124-36.512-15.124-13.793 0-26.76 5.372-36.513 15.124-20.133 20.133-20.133 52.892 0 73.025 10.067 10.067 23.29 15.1 36.512 15.1 13.223 0 26.446-5.033 36.513-15.1z"/></g></g></g><g><g><g><path fill="#298fe2" d="M432.255 124.243v-98.73a2.43 2.43 0 0 1 2.431-2.428h31.089a2.428 2.428 0 0 1 2.43 2.428v98.73a2.43 2.43 0 0 1-2.43 2.431h-7.84v4.414c0 .699-.568 1.267-1.268 1.267h-12.873a1.268 1.268 0 0 1-1.267-1.267v-4.414h-7.841c-1.34 0-2.43-1.09-2.43-2.43z"/></g><g transform="rotate(180 450.5 33)"><path fill="#ed1c24" d="M435.109 38.39V27.738h30.244V38.39z"/></g><g transform="rotate(180 450.5 47)"><path fill="#ed1c24" d="M435.109 52.276V41.624h30.244v10.652z"/></g><g transform="rotate(180 450.5 61)"><path fill="#ed1c24" d="M435.109 66.161V55.51h30.244v10.652z"/></g><g transform="rotate(180 450.5 74.5)"><path fill="#3cf" d="M435.109 80.047V69.395h30.244v10.652z"/></g><g transform="rotate(180 450.5 88.5)"><path fill="#3cf" d="M435.109 93.933V83.28h30.244v10.652z"/></g><g transform="rotate(180 450.5 102.5)"><path fill="#3cf" d="M435.109 107.818V97.166h30.244v10.652z"/></g><g transform="rotate(180 450.5 116.5)"><path fill="#3cf" d="M435.109 121.704v-10.652h30.244v10.652z"/></g></g><g><g><path fill="#298fe2" d="M385.654 124.243v-98.73a2.428 2.428 0 0 1 2.428-2.428h31.092a2.428 2.428 0 0 1 2.428 2.428v98.73a2.43 2.43 0 0 1-2.428 2.431h-7.842v4.414c0 .699-.567 1.267-1.266 1.267h-12.874c-.699 0-1.267-.568-1.267-1.267v-4.414h-7.843a2.43 2.43 0 0 1-2.428-2.43z"/></g><g transform="rotate(180 403.5 33)"><path fill="#fb3" d="M388.506 38.39V27.738h30.244V38.39z"/></g><g transform="rotate(180 403.5 47)"><path fill="#fb3" d="M388.506 52.276V41.624h30.244v10.652z"/></g><g transform="rotate(180 403.5 61)"><path fill="#fb3" d="M388.506 66.161V55.51h30.244v10.652z"/></g><g transform="rotate(180 403.5 74.5)"><path fill="#fb3" d="M388.506 80.047V69.395h30.244v10.652z"/></g><g transform="rotate(180 403.5 88.5)"><path fill="#fb3" d="M388.506 93.933V83.28h30.244v10.652z"/></g><g transform="rotate(180 403.5 102.5)"><path fill="#3cf" d="M388.506 107.818V97.166h30.244v10.652z"/></g><g transform="rotate(180 403.5 116.5)"><path fill="#3cf" d="M388.506 121.704v-10.652h30.244v10.652z"/></g></g><g><g><path fill="#298fe2" d="M342.664 124.243v-98.73a2.43 2.43 0 0 1 2.431-2.428h31.089a2.429 2.429 0 0 1 2.43 2.428v98.73c0 1.341-1.086 2.431-2.43 2.431h-7.841v4.414c0 .699-.567 1.267-1.267 1.267h-12.873a1.268 1.268 0 0 1-1.267-1.267v-4.414h-7.841c-1.34 0-2.43-1.09-2.43-2.43z"/></g><g transform="rotate(180 360.5 33)"><path fill="#009245" d="M345.518 38.39V27.738h30.244V38.39z"/></g><g transform="rotate(180 360.5 47)"><path fill="#009245" d="M345.518 52.276V41.624h30.244v10.652z"/></g><g transform="rotate(180 360.5 61)"><path fill="#009245" d="M345.518 66.161V55.51h30.244v10.652z"/></g><g transform="rotate(180 360.5 74.5)"><path fill="#009245" d="M345.518 80.047V69.395h30.244v10.652z"/></g><g transform="rotate(180 360.5 88.5)"><path fill="#009245" d="M345.518 93.933V83.28h30.244v10.652z"/></g><g transform="rotate(180 360.5 102.5)"><path fill="#009245" d="M345.518 107.818V97.166h30.244v10.652z"/></g><g transform="rotate(180 360.5 116.5)"><path fill="#3cf" d="M345.518 121.704v-10.652h30.244v10.652z"/></g></g><g><g><path fill="#298fe2" d="M379.562 211.126l-.033-3.4 59.22-.567c5.485 0 9.934-4.448 9.934-9.917v-67.154h3.4v67.154c0 7.343-5.974 13.317-13.317 13.317z"/></g></g><g><g><path fill="#298fe2" d="M401.647 166.923v-36.835h3.4v36.835z"/></g></g><g><g><path fill="#298fe2" d="M450.383 168.624H373.03c-7.344 0-13.318-5.975-13.318-13.318v-27.485h3.4v27.485c0 5.469 4.45 9.917 9.918 9.917h77.354z"/></g></g></g><g><g><path fill="#0071bc" d="M377.274 179.87H98.159a5.848 5.848 0 0 0-3.385 1.066l8.138 4.556c.134-.052.259-.083.393-.103a5.813 5.813 0 0 1 1.19-.125h266.432a5.886 5.886 0 0 1 5.891 5.881v142.187c0 .404-.04.797-.124 1.19a5.822 5.822 0 0 1-1.708 3.065l7.423 4.142a5.816 5.816 0 0 0 .746-2.858v-153.12c0-3.251-2.63-5.881-5.881-5.881z"/></g><g><path fill="#0071bc" d="M376.818 191.145v142.187c0 3.24-2.64 5.88-5.89 5.88H104.495a5.883 5.883 0 0 1-5.881-5.88V191.145a5.877 5.877 0 0 1 5.88-5.881h266.432c3.251 0 5.891 2.63 5.891 5.881z"/></g><g><path fill="#29a4e2" d="M376.818 191.145v142.187c0 .404-.041.797-.124 1.19a3.671 3.671 0 0 1-.145.56 5.812 5.812 0 0 1-1.563 2.506c-.01 0-272.074-152.096-272.074-152.096.134-.052.259-.083.393-.104a5.745 5.745 0 0 1 1.191-.124h266.431a5.886 5.886 0 0 1 5.891 5.881z"/></g><g><path fill="#298fe2" d="M374.975 337.588c-.155.165-.331.31-.507.434a4.113 4.113 0 0 1-.341.239c-.28.196-.591.351-.912.486-.176.072-.351.145-.538.197a3.667 3.667 0 0 1-.56.145 5.652 5.652 0 0 1-1.19.124H104.496a5.883 5.883 0 0 1-5.881-5.88V191.144c0-.238.01-.466.041-.694.021-.145.042-.29.073-.435 0-.04.01-.093.03-.145.032-.145.063-.3.115-.445 0-.01 0-.03.01-.041.062-.176.124-.352.197-.528a7.68 7.68 0 0 1 .238-.508c.072-.134.155-.269.249-.403.083-.135.176-.26.269-.383.093-.125.186-.238.29-.353.114-.124.207-.227.31-.32a5.767 5.767 0 0 1 1.595-1.077c.124-.062.248-.114.383-.156.03-.02.062-.04.093-.04l.404-.125z"/></g><g><path fill="#3cf" d="M152.475 212.722l-41.187-23.058a10.063 10.063 0 0 1 6.947-2.774h16.193c3.614 0 6.937 1.925 8.739 5.052l8.107 14.03a10.108 10.108 0 0 1 1.2 6.75z"/></g><g><path fill="#00c0ff" d="M139.468 237.668h-26.271c-.49 0-.941.261-1.186.685l-13.136 22.751a1.37 1.37 0 0 0 0 1.37l13.136 22.751c.245.424.697.685 1.186.685h26.271c.49 0 .941-.26 1.186-.685l13.136-22.751a1.37 1.37 0 0 0 0-1.37l-13.136-22.75a1.369 1.369 0 0 0-1.186-.686z"/></g><g><path fill="#00c0ff" d="M139.468 288.93h-26.271c-.49 0-.941.26-1.186.684l-13.136 22.751a1.37 1.37 0 0 0 0 1.37l13.136 22.751c.245.424.697.685 1.186.685h26.271c.49 0 .941-.261 1.186-.685l13.136-22.751a1.37 1.37 0 0 0 0-1.37l-13.136-22.751a1.37 1.37 0 0 0-1.186-.685z"/></g><g><path fill="#3cf" d="M207.07 216.066l-8.107 14.019a10.089 10.089 0 0 1-6.802 4.866l-35.462-19.858a10.097 10.097 0 0 1 .487-9.122l8.107-14.03a10.076 10.076 0 0 1 8.738-5.051h16.193c3.614 0 6.937 1.925 8.74 5.052l8.106 14.03a10.104 10.104 0 0 1 0 10.094z"/></g><g><path fill="#00c0ff" d="M195.263 237.668h-26.27c-.49 0-.942.261-1.187.685l-13.135 22.751a1.369 1.369 0 0 0 0 1.37l13.135 22.751a1.37 1.37 0 0 0 1.186.685h26.271c.49 0 .942-.26 1.186-.685l13.136-22.751a1.371 1.371 0 0 0 0-1.37l-13.136-22.75a1.369 1.369 0 0 0-1.186-.686z"/></g><g><path fill="#00c0ff" d="M195.263 289.384h-26.27a1.37 1.37 0 0 0-1.187.685l-13.135 22.751a1.368 1.368 0 0 0 0 1.37l13.135 22.751a1.37 1.37 0 0 0 1.186.685h26.271c.49 0 .942-.261 1.186-.685l13.136-22.751a1.37 1.37 0 0 0 0-1.37L196.45 290.07a1.37 1.37 0 0 0-1.186-.685z"/></g><g><path fill="#3cf" d="M250.612 186.894H224.34c-.49 0-.942.261-1.187.685L210.02 210.33a1.37 1.37 0 0 0 0 1.37l13.135 22.751a1.37 1.37 0 0 0 1.187.685h26.27a1.37 1.37 0 0 0 1.187-.685l13.135-22.751a1.37 1.37 0 0 0 0-1.37l-13.135-22.751a1.37 1.37 0 0 0-1.186-.685z"/></g><g><path fill="#3cf" d="M262.649 266.83l-3.314 5.736-42.087-23.575 3.623-6.274a10.087 10.087 0 0 1 8.74-5.053h16.202c3.604 0 6.938 1.926 8.739 5.053l8.097 14.029a10.035 10.035 0 0 1 0 10.085z"/></g><g><path fill="#00c0ff" d="M250.612 289.384H224.34c-.49 0-.942.261-1.187.685L210.02 312.82a1.369 1.369 0 0 0 0 1.37l13.135 22.751a1.37 1.37 0 0 0 1.187.685h26.27a1.37 1.37 0 0 0 1.187-.685l13.135-22.751a1.37 1.37 0 0 0 0-1.37l-13.135-22.751a1.37 1.37 0 0 0-1.186-.685z"/></g><g><path fill="#3cf" d="M306.207 186.894h-26.271c-.49 0-.942.261-1.186.685l-13.136 22.751a1.372 1.372 0 0 0 0 1.37l13.136 22.751a1.37 1.37 0 0 0 1.186.685h26.27a1.37 1.37 0 0 0 1.187-.685l13.135-22.751a1.37 1.37 0 0 0 0-1.37l-13.135-22.751a1.368 1.368 0 0 0-1.186-.685z"/></g><g><path fill="#3cf" d="M306.207 237.33h-26.271c-.49 0-.942.261-1.186.685l-13.136 22.752a1.372 1.372 0 0 0 0 1.37l13.136 22.75a1.37 1.37 0 0 0 1.186.686h26.27c.49 0 .942-.262 1.187-.685l13.135-22.752a1.37 1.37 0 0 0 0-1.37l-13.135-22.75a1.369 1.369 0 0 0-1.186-.686z"/></g><g><path fill="#3cf" d="M315.41 303.959l-26.029-14.578h11.793c3.603 0 6.937 1.925 8.739 5.052z"/></g><g><path fill="#3cf" d="M362.108 186.894h-26.27c-.49 0-.942.261-1.187.685l-13.135 22.751a1.37 1.37 0 0 0 0 1.37l13.135 22.751a1.37 1.37 0 0 0 1.186.685h26.271a1.37 1.37 0 0 0 1.186-.685L376.43 211.7a1.37 1.37 0 0 0 0-1.37l-13.136-22.751a1.368 1.368 0 0 0-1.186-.685z"/></g><g><path fill="#3cf" d="M361.725 237.33h-26.27c-.49 0-.942.261-1.187.685l-13.135 22.752a1.37 1.37 0 0 0 0 1.37l13.135 22.75a1.37 1.37 0 0 0 1.187.686h26.27c.49 0 .942-.262 1.187-.685l13.135-22.752a1.37 1.37 0 0 0 0-1.37l-13.135-22.75a1.37 1.37 0 0 0-1.187-.686z"/></g><g><path fill="#3cf" d="M373.526 318.547L365.7 332.11l-42.088-23.564a.314.314 0 0 1 .041-.083l8.097-14.03a10.088 10.088 0 0 1 8.738-5.052h16.204c3.603 0 6.937 1.925 8.739 5.052l8.096 14.03a10.084 10.084 0 0 1 0 10.084z"/></g><g><path fill="#1050a9" d="M223.468 368.224v-23.472h27.622v23.472z"/></g><g><path fill="#1050a9" d="M195.719 379.883a1.241 1.241 0 0 1-1.241-1.241v-9.177c0-.685.555-1.24 1.24-1.24h83.12c.686 0 1.242.555 1.242 1.24v9.177c0 .685-.556 1.241-1.241 1.241z"/></g><g><path fill="#1050a9" d="M382.41 341.73a5.855 5.855 0 0 1-5.136 3.022H98.159a5.886 5.886 0 0 1-5.89-5.88V185.75a5.89 5.89 0 0 1 2.505-4.815l8.138 4.556c-.135.031-.28.072-.404.124-.03 0-.062.02-.093.042a2.494 2.494 0 0 0-.383.155 5.771 5.771 0 0 0-2.195 1.75 2.336 2.336 0 0 0-.27.383 4.286 4.286 0 0 0-.248.403c-.083.166-.165.332-.238.508-.073.176-.135.352-.197.528-.01.01-.01.03-.01.041-.052.145-.083.3-.114.445a.412.412 0 0 0-.031.145 5.105 5.105 0 0 0-.114 1.129v142.187c0 3.24 2.63 5.881 5.88 5.881h266.432c.404 0 .808-.041 1.19-.124.187-.031.374-.083.56-.145.186-.052.363-.125.538-.197.321-.135.632-.29.912-.486a4.17 4.17 0 0 0 .341-.238c.176-.125.352-.27.508-.435.01 0 7.433 4.141 7.433 4.141z"/></g><g><path fill="#00c0ff" d="M152.475 212.722a9.988 9.988 0 0 1-1.201 3.344l-8.107 14.019a10.076 10.076 0 0 1-8.739 5.053h-16.193a10.088 10.088 0 0 1-8.738-5.053l-8.107-14.019a10.103 10.103 0 0 1 0-10.094l8.107-14.03a10.11 10.11 0 0 1 1.79-2.278z"/></g><g><path fill="#00c0ff" d="M192.16 234.951a9.983 9.983 0 0 1-1.936.187h-16.193a10.076 10.076 0 0 1-8.739-5.053l-8.106-14.018a7.767 7.767 0 0 1-.487-.974z"/></g><g><path fill="#00c0ff" d="M259.335 272.567l-4.783 8.293a10.088 10.088 0 0 1-8.739 5.052H229.61a10.089 10.089 0 0 1-8.739-5.052l-8.096-14.03a10.084 10.084 0 0 1 0-10.084l4.473-7.755z"/></g><g><path fill="#00c0ff" d="M318.01 318.547l-8.097 14.03a10.088 10.088 0 0 1-8.739 5.052h-16.203a10.088 10.088 0 0 1-8.739-5.053l-8.096-14.029a10.083 10.083 0 0 1 0-10.084l8.096-14.03a10.088 10.088 0 0 1 8.739-5.052h4.41l26.03 14.578 2.599 4.504a10.084 10.084 0 0 1 0 10.084z"/></g><g><path fill="#00c0ff" d="M365.698 332.11l-.269.467a10.088 10.088 0 0 1-8.738 5.052h-16.204a10.088 10.088 0 0 1-8.738-5.052l-8.097-14.03a10.08 10.08 0 0 1-.041-10.001z"/></g><g opacity=".51"><path fill="#fffeff" d="M362.562 289.383v-80.642c0-7.29-5.91-13.2-13.201-13.2H226.206z"/></g></g><g><path fill="#fff" d="M443.847 320.747h-44.491a8.583 8.583 0 1 1 0-17.166h44.491a8.583 8.583 0 1 1 0 17.166z"/></g><g><path fill="#0062a6" d="M150.298 400.982h-35.09a8.583 8.583 0 1 1 0-17.165h35.09a8.583 8.583 0 1 1 0 17.165z"/></g></g></g></svg>