<svg xmlns="http://www.w3.org/2000/svg" width="487" height="487" viewBox="0 0 487 487"><defs><linearGradient id="2r96a" x1="321.63" x2="256.11" y1="383.99" y2="426.11" gradientUnits="userSpaceOnUse"><stop offset="0" stop-color="#09005d"/><stop offset="1" stop-color="#1a0f91"/></linearGradient><linearGradient id="2r96b" x1="290.69" x2="242.72" y1="385.14" y2="456.12" gradientUnits="userSpaceOnUse"><stop offset="0" stop-color="#09005d"/><stop offset="1" stop-color="#1a0f91"/></linearGradient><linearGradient id="2r96c" x1="2245.46" x2="2270.72" y1="348.13" y2="415.06" gradientUnits="userSpaceOnUse"><stop offset="0" stop-color="#febbba"/><stop offset="1" stop-color="#ff928e"/></linearGradient><linearGradient id="2r96d" x1="-937.27" x2="-954.27" y1="330.12" y2="399.29" gradientUnits="userSpaceOnUse"><stop offset="0" stop-color="#cb236d"/><stop offset="1" stop-color="#4c246d"/></linearGradient><linearGradient id="2r96e" x1="-867.4" x2="-842.33" y1="480.5" y2="480.5" gradientUnits="userSpaceOnUse"><stop offset="0" stop-color="#4f52ff"/><stop offset="1" stop-color="#4042e2"/></linearGradient><linearGradient id="2r96f" x1="-804.57" x2="-793.65" y1="-2.93" y2="-108.08" gradientUnits="userSpaceOnUse"><stop offset="0" stop-color="#09005d"/><stop offset="1" stop-color="#1a0f91"/></linearGradient><linearGradient id="2r96g" x1="-910.8" x2="-899.07" y1="480.56" y2="480.56" gradientUnits="userSpaceOnUse"><stop offset="0" stop-color="#4f52ff"/><stop offset="1" stop-color="#4042e2"/></linearGradient><linearGradient id="2r96h" x1="-854.84" x2="-843.92" y1="-10.54" y2="-116.19" gradientUnits="userSpaceOnUse"><stop offset="0" stop-color="#09005d"/><stop offset="1" stop-color="#1a0f91"/></linearGradient><linearGradient id="2r96i" x1="-907.43" x2="-899.81" y1="472.47" y2="472.47" gradientUnits="userSpaceOnUse"><stop offset="0" stop-color="#febbba"/><stop offset="1" stop-color="#ff928e"/></linearGradient><linearGradient id="2r96j" x1="-866.88" x2="-860.53" y1="471.97" y2="471.97" gradientUnits="userSpaceOnUse"><stop offset="0" stop-color="#febbba"/><stop offset="1" stop-color="#ff928e"/></linearGradient><linearGradient id="2r96k" x1="2306.26" x2="2308.15" y1="453.29" y2="336.48" gradientUnits="userSpaceOnUse"><stop offset="0" stop-color="#4f52ff"/><stop offset="1" stop-color="#4042e2"/></linearGradient><linearGradient id="2r96l" x1="-851.05" x2="-877.04" y1="374.38" y2="407.94" gradientUnits="userSpaceOnUse"><stop offset="0" stop-color="#09005d"/><stop offset="1" stop-color="#1a0f91"/></linearGradient><linearGradient id="2r96m" x1="368.45" x2="462.65" y1="299.45" y2="421.44" gradientUnits="userSpaceOnUse"><stop offset="0" stop-color="#4f52ff"/><stop offset="1" stop-color="#4042e2"/></linearGradient><linearGradient id="2r96n" x1="-847.62" x2="-844.49" y1="314.1" y2="294.82" gradientUnits="userSpaceOnUse"><stop offset="0" stop-color="#febbba"/><stop offset="1" stop-color="#ff928e"/></linearGradient><linearGradient id="2r96o" x1="-837.91" x2="-858.15" y1="282.84" y2="298.31" gradientUnits="userSpaceOnUse"><stop offset="0" stop-color="#febbba"/><stop offset="1" stop-color="#ff928e"/></linearGradient><linearGradient id="2r96p" x1="2263.24" x2="2253.6" y1="90.39" y2="47.3" gradientUnits="userSpaceOnUse"><stop offset="0" stop-color="#febbba"/><stop offset="1" stop-color="#ff928e"/></linearGradient><linearGradient id="2r96q" x1="388.95" x2="483.15" y1="283.63" y2="405.61" gradientUnits="userSpaceOnUse"><stop offset="0" stop-color="#4f52ff"/><stop offset="1" stop-color="#4042e2"/></linearGradient><linearGradient id="2r96r" x1="2033.59" x2="2058.86" y1="69.12" y2="136.01" gradientUnits="userSpaceOnUse"><stop offset="0" stop-color="#febbba"/><stop offset="1" stop-color="#ff928e"/></linearGradient><linearGradient id="2r96s" x1="-955.65" x2="-937.4" y1="269.76" y2="293.24" gradientUnits="userSpaceOnUse"><stop offset="0" stop-color="#09005d"/><stop offset="1" stop-color="#1a0f91"/></linearGradient><linearGradient id="2r96t" x1="-838.35" x2="-858.56" y1="279.55" y2="295.03" gradientUnits="userSpaceOnUse"><stop offset="0" stop-color="#febbba"/><stop offset="1" stop-color="#ff928e"/></linearGradient><linearGradient id="2r96u" x1="-693.77" x2="-680.69" y1="1073.5" y2="1373.4" gradientUnits="userSpaceOnUse"><stop offset="0" stop-color="#09005d"/><stop offset="1" stop-color="#1a0f91"/></linearGradient><linearGradient id="2r96v" x1="-670.69" x2="-669.73" y1="1100.24" y2="1122.45" gradientUnits="userSpaceOnUse"><stop offset="0" stop-color="#e1473d"/><stop offset="1" stop-color="#e9605a"/></linearGradient><linearGradient id="2r96w" x1="-686.73" x2="-685" y1="1149.41" y2="1174.16" gradientUnits="userSpaceOnUse"><stop offset="0" stop-color="#4f52ff"/><stop offset="1" stop-color="#4042e2"/></linearGradient><linearGradient id="2r96x" x1="-638.07" x2="-635.96" y1="1163.08" y2="1187.78" gradientUnits="userSpaceOnUse"><stop offset="0" stop-color="#4f52ff"/><stop offset="1" stop-color="#4042e2"/></linearGradient><linearGradient id="2r96y" x1="1015.03" x2="1039.58" y1="1634.38" y2="1637.88" gradientUnits="userSpaceOnUse"><stop offset="0" stop-color="#4f52ff"/><stop offset="1" stop-color="#4042e2"/></linearGradient><linearGradient id="2r96z" x1="-670.88" x2="-669.8" y1="1198.58" y2="1223.35" gradientUnits="userSpaceOnUse"><stop offset="0" stop-color="#4f52ff"/><stop offset="1" stop-color="#4042e2"/></linearGradient><linearGradient id="2r96A" x1="-689.63" x2="-688.67" y1="1181.81" y2="1203.96" gradientUnits="userSpaceOnUse"><stop offset="0" stop-color="#4f52ff"/><stop offset="1" stop-color="#4042e2"/></linearGradient><linearGradient id="2r96B" x1="-689.35" x2="-688.21" y1="1213.21" y2="1239.33" gradientUnits="userSpaceOnUse"><stop offset="0" stop-color="#4f52ff"/><stop offset="1" stop-color="#4042e2"/></linearGradient><linearGradient id="2r96C" x1="589.09" x2="513.9" y1="378.6" y2="397.81" gradientUnits="userSpaceOnUse"><stop offset="0" stop-color="#09005d"/><stop offset="1" stop-color="#1a0f91"/></linearGradient><linearGradient id="2r96D" x1="378.76" x2="432.56" y1="360.53" y2="354.29" gradientUnits="userSpaceOnUse"><stop offset="0" stop-color="#4f52ff"/><stop offset="1" stop-color="#4042e2"/></linearGradient><linearGradient id="2r96E" x1="2308.75" x2="2337.68" y1="357.69" y2="399.49" gradientUnits="userSpaceOnUse"><stop offset="0" stop-color="#febbba"/><stop offset="1" stop-color="#ff928e"/></linearGradient><linearGradient id="2r96F" x1="352.08" x2="146.21" y1="415.79" y2="457.51" gradientUnits="userSpaceOnUse"><stop offset="0" stop-color="#09005d"/><stop offset="1" stop-color="#1a0f91"/></linearGradient><linearGradient id="2r96G" x1="48.05" x2="92.87" y1="428.66" y2="503.36" gradientUnits="userSpaceOnUse"><stop offset="0" stop-color="#ff928e"/><stop offset="1" stop-color="#fe7062"/></linearGradient><linearGradient id="2r96H" x1="57.43" x2="102.25" y1="423.04" y2="497.74" gradientUnits="userSpaceOnUse"><stop offset="0" stop-color="#ff928e"/><stop offset="1" stop-color="#fe7062"/></linearGradient></defs><g><g><g><path fill="#bdd0fb" d="M321.304 222.267s5.098-50.344 29.902-60.88c24.802-10.536 69.813-13.425 80.495-85.292 6.255-42.075 9.612-60.393 11.32-68.35.666-3.103-1.805-5.986-4.973-5.79-22.413 1.38-95.67 9.44-116.67 56.12-24.894 55.339-.074 164.192-.074 164.192z"/></g><g><path fill="#7d97f4" d="M418.6 19.885c-26.722 18.423-59.269 52.875-78.838 88.955-2.685 6.014-9.914 18.613-15.29 41.933-4.628 19.432-6.166 40.386-5.277 54.496.056.892.824 1.57 1.716 1.513 1.534-.096 1.537-1.733 1.517-1.684-.035-23.92 4.878-53.071 15.039-78.657 12.815-31.373 36.268-60.407 59.79-84.578l2.406-2.369c18.148-18.114 21.457-17.85 20.171-19.432a.921.921 0 0 0-1.233-.177z"/></g></g><g><g><path fill="#91b3fa" d="M335.653 291.148c-1.824 3.874-2.017-60.77-41.82-130.693-18.757-32.949-48.007-69.631-42.647-97.075 4.462-22.84 57.567-53.164 75.257-62.694 2.21-1.19 4.81.726 4.317 3.188-2.429 12.138-6.53 39.469 1.167 57.546 10.145 23.828 1.54 51.032-12.355 67.648s-20.513 27.248-7.378 60.22c13.136 32.973 28.641 90.855 23.459 101.86z"/></g><g><path fill="#7d97f4" d="M311.32 26.284c-19.032 16.58-32.982 42.474-30.227 67.906l.274 2.418c.678 5.641 8.869 43.046 19.284 71.15.13.351.52.53.87.4.594-.22.416-.927.408-.845-4.914-16.654-10.28-38.459-13.935-55.051-4.098-18.018-6.731-30.334.878-50.237 8.713-21.85 23.224-34.99 23.185-34.945a.542.542 0 0 0-.737-.796z"/></g></g><g><g><path fill="#91b3fa" d="M333.636 238.27c-2.239 1.28 12.003-25.259 12.39-48.229.384-22.97 4.236-62.282 23.22-86.362 18.983-24.08 40.565-26.947 68.57-6.585 23.338 16.968 37.824 25.44 46.198 26.822 2.074.343 3.204 2.633 2.263 4.512-5.003 10.005-19.324 33.083-44.704 32.35-32.374-.936-72.235-20.614-83.577-2.692-11.34 17.923-9.477 27.674-9.563 35.988-.086 8.316.022 35.732-14.797 44.196z"/></g><g><path fill="#7d97f4" d="M429.6 125.515c-10.218-9.154-26.65-17.933-40.68-15.719-18.227 3.572-30.022 16.223-36.067 34.667-2.342 7.824-3.273 11.99-4.492 21.524-.098.762 1.027.95 1.188.205.97-4.492 1.921-9.193 3.418-14.073 8.609-31.446 29.09-36.334 29.87-36.998 1.564.101 10.777-7.293 33.61 4.017a99.576 99.576 0 0 1 12.353 7.343l.022.015a.627.627 0 0 0 .777-.981z"/></g></g><g><g><g><g><path fill="#91b3fa" d="M70.415 138.223a33.332 33.332 0 0 0 13.545 2.498c12.879-.335 24.986-8.117 30.182-20.78 3.399-8.282 3.369-17.391-.084-25.65-3.453-8.26-9.916-14.68-18.197-18.078-17.096-7.017-36.713 1.186-43.729 18.282a33.751 33.751 0 0 0-1.997 6.848 1.906 1.906 0 0 0 3.751.672c.37-2.07.967-4.113 1.772-6.074 6.218-15.152 23.604-22.421 38.756-16.203 7.34 3.012 13.068 8.702 16.129 16.022 3.06 7.32 3.087 15.395.074 22.735-6.217 15.151-23.601 22.42-38.756 16.203a29.665 29.665 0 0 1-12.512-9.684 1.904 1.904 0 1 0-3.053 2.28 33.474 33.474 0 0 0 14.119 10.93zm39.288 18.14l-10.76 4.498-7.489-8.401-1.037.174a45.596 45.596 0 0 1-14.795.053l-1.039-.167-7.428 8.445-10.79-4.427.645-11.229-.856-.61a45.605 45.605 0 0 1-10.493-10.432l-.616-.852-11.231.72-4.499-10.761 8.401-7.489-.174-1.037a45.603 45.603 0 0 1-.053-14.795l.167-1.038-8.445-7.43 4.427-10.788 11.229.644.61-.856A45.602 45.602 0 0 1 55.91 70.092l.852-.616-.719-11.23 10.76-4.5 7.489 8.401 1.037-.173a45.564 45.564 0 0 1 14.795-.054l1.039.167 7.428-8.445 10.79 4.427-.645 11.23.856.61a45.595 45.595 0 0 1 10.493 10.431l.616.852 11.231-.718 4.499 10.76-8.401 7.488.174 1.037c.823 4.916.84 9.894.053 14.796l-.167 1.038 8.445 7.428-4.427 10.79-11.229-.645-.61.856a45.607 45.607 0 0 1-10.432 10.493l-.852.616zm-13.126 7.57a2.804 2.804 0 0 0 3.172.72l12.087-5.053a2.803 2.803 0 0 0 1.715-2.764l-.631-9.862a49.398 49.398 0 0 0 9.826-9.884l9.86.566c1.197.07 2.3-.629 2.753-1.734l4.973-12.119a2.803 2.803 0 0 0-.742-3.169l-7.415-6.522a49.391 49.391 0 0 0-.05-13.936l7.377-6.576a2.804 2.804 0 0 0 .72-3.173l-5.053-12.086a2.802 2.802 0 0 0-2.764-1.716l-9.863.631a49.392 49.392 0 0 0-9.883-9.826l.566-9.86a2.803 2.803 0 0 0-1.735-2.753l-12.118-4.973a2.802 2.802 0 0 0-3.169.742l-6.522 7.415a49.425 49.425 0 0 0-13.936.05l-6.577-7.376a2.805 2.805 0 0 0-3.172-.721l-12.087 5.053a2.803 2.803 0 0 0-1.716 2.765l.632 9.862a49.366 49.366 0 0 0-9.826 9.884l-9.86-.567a2.807 2.807 0 0 0-2.753 1.735l-4.973 12.118a2.803 2.803 0 0 0 .742 3.169l7.415 6.522a49.381 49.381 0 0 0 .05 13.937l-7.377 6.576a2.805 2.805 0 0 0-.72 3.172l5.053 12.087a2.803 2.803 0 0 0 2.764 1.716l9.863-.632a49.37 49.37 0 0 0 9.883 9.826l-.566 9.86a2.803 2.803 0 0 0 1.734 2.753l12.12 4.973a2.803 2.803 0 0 0 3.168-.742l6.522-7.415a49.38 49.38 0 0 0 13.937-.05l6.576 7.377z"/></g></g><g><g><path fill="#91b3fa" d="M74.541 101.144a10.305 10.305 0 0 1 8.07-4.2c2.326-.06 4.546.642 6.422 2.028a10.295 10.295 0 0 1 4.087 6.797c.41 2.737-.27 5.47-1.916 7.695a10.305 10.305 0 0 1-8.07 4.199c-2.325.06-4.546-.641-6.422-2.028a10.293 10.293 0 0 1-4.087-6.796c-.41-2.737.27-5.47 1.916-7.695zm.661 16.534c2.335 1.726 5.1 2.6 7.998 2.524a12.83 12.83 0 0 0 10.046-5.228 12.815 12.815 0 0 0 2.386-9.582 12.817 12.817 0 0 0-5.09-8.462 12.773 12.773 0 0 0-7.997-2.524A12.828 12.828 0 0 0 72.5 99.633a12.816 12.816 0 0 0-2.386 9.582 12.816 12.816 0 0 0 5.09 8.463z"/></g></g><g><g><g><path fill="#91b3fa" d="M25.01 147.412a.317.317 0 0 0 .253-.497 68.654 68.654 0 0 1-.88-1.312.318.318 0 0 0-.532.348c.29.444.587.885.888 1.324.064.092.167.14.27.137z"/></g></g><g><g><path fill="#91b3fa" d="M151.47 122.478a.318.318 0 0 0 .377-.243c.226-1.044.43-2.108.607-3.16a.318.318 0 1 0-.626-.106 70.219 70.219 0 0 1-.6 3.132.317.317 0 0 0 .242.377zm-1.666 6.186a.318.318 0 0 0 .398-.208c.32-1.019.621-2.059.894-3.092a.318.318 0 0 0-.614-.163 70.195 70.195 0 0 1-.886 3.065.318.318 0 0 0 .208.398zm-2.227 6.007a.319.319 0 0 0 .416-.17c.413-.989.809-1.997 1.174-2.998a.317.317 0 1 0-.596-.217c-.362.991-.754 1.99-1.164 2.97a.317.317 0 0 0 .17.415zm-2.77 5.778a.317.317 0 0 0 .43-.132c.501-.944.987-1.912 1.444-2.877a.318.318 0 0 0-.574-.271 69.513 69.513 0 0 1-1.43 2.85.318.318 0 0 0 .13.43zm-3.284 5.502a.318.318 0 0 0 .44-.092 71.114 71.114 0 0 0 1.7-2.734.318.318 0 0 0-.547-.323 70.06 70.06 0 0 1-1.685 2.709.318.318 0 0 0 .092.44zm-112.647 6.566a.318.318 0 0 0 .236-.52 69.356 69.356 0 0 1-1.984-2.498.318.318 0 0 0-.506.384c.645.851 1.318 1.699 2.001 2.52a.318.318 0 0 0 .253.114zm108.879-1.383a.315.315 0 0 0 .446-.052 71.015 71.015 0 0 0 1.94-2.57.318.318 0 0 0-.516-.37 70.818 70.818 0 0 1-1.922 2.547.317.317 0 0 0 .052.445zm-104.793 6.018a.315.315 0 0 0 .448 0 .317.317 0 0 0 0-.449 70.099 70.099 0 0 1-2.203-2.304.318.318 0 0 0-.47.428 69.93 69.93 0 0 0 2.225 2.325zm100.577-1.197a.318.318 0 0 0 .449-.012 69.848 69.848 0 0 0 2.161-2.383.317.317 0 1 0-.48-.416 70.23 70.23 0 0 1-2.142 2.362.318.318 0 0 0 .012.449zm-95.613 5.605a.316.316 0 0 0 .194-.561 70.534 70.534 0 0 1-2.404-2.094.317.317 0 1 0-.427.469c.79.72 1.606 1.431 2.425 2.113a.316.316 0 0 0 .212.073zm90.978-1.19a.316.316 0 0 0 .448.03c.8-.702 1.597-1.433 2.368-2.175a.317.317 0 1 0-.44-.457 69.632 69.632 0 0 1-2.347 2.154.317.317 0 0 0-.029.448zm-85.875 5.064a.317.317 0 0 0 .172-.58 73.051 73.051 0 0 1-2.585-1.872.317.317 0 1 0-.383.507 73.164 73.164 0 0 0 2.607 1.889c.058.039.124.057.189.056zm80.857-1.093a.317.317 0 0 0 .443.07 69.532 69.532 0 0 0 2.558-1.949.317.317 0 1 0-.396-.495 68.996 68.996 0 0 1-2.535 1.93.318.318 0 0 0-.07.444zm-75.59 4.45a.318.318 0 0 0 .312-.553 69.537 69.537 0 0 1-2.742-1.631.318.318 0 0 0-.337.539c.907.567 1.838 1.12 2.767 1.644zm70.227-.956a.318.318 0 0 0 .435.11 70.2 70.2 0 0 0 2.726-1.705.318.318 0 0 0-.349-.53 68.61 68.61 0 0 1-2.701 1.69c-.151.09-.2.284-.111.435zm-64.484 3.858a.317.317 0 0 0 .26-.58 69.822 69.822 0 0 1-2.878-1.373.318.318 0 0 0-.287.567c.953.482 1.93.948 2.905 1.386zm58.823-.869a.318.318 0 0 0 .423.15c.964-.459 1.93-.947 2.871-1.449a.318.318 0 0 0-.3-.56c-.932.498-1.89.981-2.844 1.436a.318.318 0 0 0-.15.423zm-52.839 3.233a.316.316 0 0 0 .404-.198.318.318 0 0 0-.198-.403 68.797 68.797 0 0 1-2.992-1.103.317.317 0 1 0-.233.59c.996.394 2.012.768 3.02 1.114zm46.927-.773a.318.318 0 0 0 .408.189 70.92 70.92 0 0 0 2.992-1.182.317.317 0 1 0-.247-.585c-.973.41-1.971.804-2.964 1.17a.318.318 0 0 0-.189.408zm-40.666 2.587a.317.317 0 0 0 .066-.626 69.655 69.655 0 0 1-3.08-.824.317.317 0 1 0-.178.61c1.027.3 2.073.58 3.109.831.027.007.056.01.083.009zm34.555-.674a.318.318 0 0 0 .39.224 70.693 70.693 0 0 0 3.087-.904.318.318 0 0 0-.193-.606c-1.004.32-2.034.622-3.06.897a.318.318 0 0 0-.224.39zm-28.323 1.895a.318.318 0 0 0 .093-.628 69.518 69.518 0 0 1-3.143-.538.318.318 0 0 0-.121.624c1.05.204 2.117.387 3.171.542zm22.063-.544a.318.318 0 0 0 .367.259 70.874 70.874 0 0 0 3.157-.622.317.317 0 1 0-.137-.62 71.25 71.25 0 0 1-3.128.616.318.318 0 0 0-.259.367zm-15.662 1.193h.027a.318.318 0 0 0 .008-.634 69.99 69.99 0 0 1-3.179-.25.318.318 0 1 0-.064.632c1.066.109 2.145.193 3.208.252zm9.63-.123l.017-.001a70.148 70.148 0 0 0 3.2-.333.318.318 0 0 0 .275-.355.322.322 0 0 0-.355-.275 70.095 70.095 0 0 1-3.171.33.318.318 0 0 0 .033.634zm-6.413.228c.84.009 1.685.002 2.513-.02.236-.002.47-.013.705-.022a.317.317 0 0 0-.02-.634h-.003c-.233.008-.454.016-.699.021a70.62 70.62 0 0 1-2.49.02c-.182-.01-.319.14-.32.315a.317.317 0 0 0 .314.32z"/></g></g><g><g><path fill="#91b3fa" d="M152.613 116.139a.318.318 0 0 0 .307-.28 74.52 74.52 0 0 0 .174-1.584.318.318 0 0 0-.632-.062 69.6 69.6 0 0 1-.173 1.57.317.317 0 0 0 .324.356z"/></g></g></g><g><g><g><path fill="#91b3fa" d="M138.203 64.32a.317.317 0 0 0 .241-.513c-.327-.418-.66-.833-.997-1.244a.317.317 0 1 0-.491.403c.334.408.664.819.989 1.232a.317.317 0 0 0 .258.122z"/></g></g><g><g><path fill="#91b3fa" d="M85.053 37.424a70.793 70.793 0 0 0-3.138-.024.318.318 0 0 1-.013-.635h.003a70.802 70.802 0 0 1 3.167.024.317.317 0 0 1 0 .635h-.019zm-9.751.065a.317.317 0 0 1 .283-.349 70.969 70.969 0 0 1 3.156-.258c.173-.019.325.123.336.298a.317.317 0 0 1-.298.336c-1.038.062-2.091.148-3.128.256l-.025.002a.318.318 0 0 1-.324-.285zm16.009.405a70.089 70.089 0 0 0-3.124-.305.318.318 0 0 1-.293-.34c.014-.175.16-.3.34-.293a70.24 70.24 0 0 1 3.153.308.317.317 0 1 1-.076.63zm-22.239.556a.318.318 0 0 1 .25-.373 71.044 71.044 0 0 1 3.121-.538.317.317 0 1 1 .094.628 70.7 70.7 0 0 0-3.092.534.317.317 0 0 1-.373-.25zm28.43.474a69.31 69.31 0 0 0-3.084-.585.317.317 0 1 1 .104-.626c1.034.172 2.08.37 3.112.59a.318.318 0 1 1-.133.621zm-34.548 1.039a.317.317 0 0 1 .216-.394 70.352 70.352 0 0 1 3.06-.814.318.318 0 0 1 .15.617 70.86 70.86 0 0 0-3.033.807.317.317 0 0 1-.393-.216zm40.62.545c-1-.31-2.015-.6-3.018-.86a.318.318 0 0 1 .16-.615c1.012.264 2.037.556 3.045.868a.318.318 0 0 1-.187.607zm-46.579 1.507a.317.317 0 0 1 .18-.41 71.1 71.1 0 0 1 2.975-1.085.317.317 0 1 1 .204.601c-.985.335-1.977.696-2.948 1.075a.317.317 0 0 1-.411-.18zm52.483.618a69.018 69.018 0 0 0-2.928-1.13.318.318 0 0 1 .215-.597c.986.355 1.98.739 2.955 1.14a.317.317 0 1 1-.242.587zm-58.232 1.96a.318.318 0 0 1 .142-.425c.94-.468 1.904-.921 2.865-1.347a.318.318 0 0 1 .257.58c-.953.422-1.908.872-2.838 1.335a.318.318 0 0 1-.426-.142zm63.92.69a70.267 70.267 0 0 0-2.814-1.388.317.317 0 1 1 .268-.576c.95.443 1.906.915 2.84 1.402a.317.317 0 1 1-.293.563zm-69.413 2.395a.317.317 0 0 1 .103-.437 69.829 69.829 0 0 1 2.732-1.599.317.317 0 1 1 .308.555 70.084 70.084 0 0 0-2.707 1.584.317.317 0 0 1-.437-.104zm74.84.757a70.36 70.36 0 0 0-2.678-1.636.318.318 0 0 1 .319-.55 71 71 0 0 1 2.703 1.651.318.318 0 0 1-.343.535zm-80.033 2.81a.317.317 0 0 1 .064-.445 69.299 69.299 0 0 1 2.576-1.839.317.317 0 1 1 .357.525c-.863.588-1.722 1.2-2.552 1.822a.317.317 0 0 1-.444-.064zm85.163.813a70.5 70.5 0 0 0-2.526-1.87.318.318 0 1 1 .366-.518 70.829 70.829 0 0 1 2.549 1.886.318.318 0 0 1-.39.502zm-90.01 3.206a.318.318 0 0 1 .023-.449 70.84 70.84 0 0 1 2.399-2.062.318.318 0 0 1 .403.49 69.585 69.585 0 0 0-2.377 2.045.318.318 0 0 1-.449-.024zm94.794.853a70.574 70.574 0 0 0-2.347-2.083.318.318 0 0 1 .411-.484c.801.68 1.598 1.386 2.369 2.101a.318.318 0 1 1-.432.466zm-99.262 3.588a.318.318 0 0 1-.017-.448 72.374 72.374 0 0 1 2.206-2.272.318.318 0 0 1 .446.452 71.217 71.217 0 0 0-2.186 2.252.316.316 0 0 1-.449.016zm103.665.882a70.09 70.09 0 0 0-2.15-2.285.317.317 0 1 1 .452-.445 70.634 70.634 0 0 1 2.17 2.305.317.317 0 1 1-.472.425zM27.19 64.53a.318.318 0 0 1-.056-.445 71.332 71.332 0 0 1 1.994-2.46.317.317 0 1 1 .484.41 70.664 70.664 0 0 0-1.976 2.439.316.316 0 0 1-.446.056zm-3.615 5.17a.318.318 0 0 1-.096-.44 72.448 72.448 0 0 1 1.77-2.627.318.318 0 0 1 .52.366 71.26 71.26 0 0 0-1.755 2.604.317.317 0 0 1-.439.096zm-3.14 5.467a.317.317 0 0 1-.135-.428c.486-.931 1-1.865 1.528-2.775a.317.317 0 1 1 .55.319 69.976 69.976 0 0 0-1.515 2.75.318.318 0 0 1-.429.134zm-2.637 5.729a.317.317 0 0 1-.173-.415c.399-.969.827-1.945 1.272-2.901a.318.318 0 0 1 .576.268 68.716 68.716 0 0 0-1.26 2.875.318.318 0 0 1-.415.173zm-2.108 5.942a.317.317 0 0 1-.21-.397c.312-1.007.65-2.017 1.005-3.004a.317.317 0 1 1 .598.215c-.352.978-.687 1.979-.996 2.977a.318.318 0 0 1-.397.209zm-1.562 6.109a.318.318 0 0 1-.245-.377c.219-1.028.464-2.065.73-3.082a.318.318 0 0 1 .614.16 69.81 69.81 0 0 0-.723 3.054.318.318 0 0 1-.376.245zm-1.006 6.223a.318.318 0 0 1-.277-.353c.126-1.045.277-2.1.449-3.135a.317.317 0 1 1 .626.104 71.216 71.216 0 0 0-.445 3.107.318.318 0 0 1-.353.277z"/></g></g><g><g><path fill="#91b3fa" d="M12.76 103.925a.318.318 0 0 0 .31-.3c.026-.526.06-1.051.099-1.577a.317.317 0 0 0-.634-.047c-.04.53-.073 1.06-.1 1.59a.317.317 0 0 0 .3.334h.026z"/></g></g></g></g><g><g><g><path fill="#91b3fa" d="M179.784 98.386a19.347 19.347 0 0 0 7.862 1.456 19.387 19.387 0 0 0 6.982-1.505 19.268 19.268 0 0 0 10.462-10.531 19.268 19.268 0 0 0-.049-14.844 19.267 19.267 0 0 0-10.53-10.461c-9.895-4.06-21.247.687-25.306 10.58a19.498 19.498 0 0 0-1.155 3.962 1.578 1.578 0 0 0 3.106.556c.202-1.131.528-2.248.968-3.32 3.399-8.285 12.905-12.258 21.189-8.86a16.135 16.135 0 0 1 8.817 8.76 16.132 16.132 0 0 1 .04 12.429 16.134 16.134 0 0 1-8.759 8.818 16.123 16.123 0 0 1-12.429.04 16.209 16.209 0 0 1-6.84-5.293 1.578 1.578 0 0 0-2.528 1.887 19.363 19.363 0 0 0 8.17 6.326zm21.811 9.432l-5.402 2.258-4.167-4.674-.859.144a25.229 25.229 0 0 1-8.177.03l-.86-.139-4.132 4.7-5.417-2.223.358-6.249-.708-.505a25.216 25.216 0 0 1-5.8-5.765l-.51-.706-6.25.4-2.258-5.402 4.675-4.167-.144-.859a25.21 25.21 0 0 1-.03-8.176l.138-.86-4.699-4.134 2.224-5.417 6.248.359.505-.709a25.21 25.21 0 0 1 5.765-5.8l.705-.51-.4-6.249 5.403-2.258 4.167 4.674.858-.143a25.215 25.215 0 0 1 8.177-.03l.86.138 4.134-4.699 5.416 2.223-.359 6.248.71.506a25.208 25.208 0 0 1 5.799 5.765l.51.705 6.249-.4 2.259 5.402-4.675 4.167.144.859c.454 2.716.465 5.468.03 8.177l-.139.86 4.7 4.133-2.223 5.417-6.249-.359-.505.71a25.209 25.209 0 0 1-5.765 5.798l-.706.51zm-7.248 4.929a2.086 2.086 0 0 0 2.356.536l6.815-2.85a2.08 2.08 0 0 0 1.275-2.056l-.339-5.288a28.323 28.323 0 0 0 5.259-5.29l5.289.304a2.08 2.08 0 0 0 2.046-1.288l2.804-6.832a2.086 2.086 0 0 0-.552-2.355l-3.977-3.5c.32-2.475.31-4.977-.027-7.458l3.957-3.527c.663-.591.878-1.54.535-2.36l-2.848-6.81a2.092 2.092 0 0 0-2.054-1.277l-5.291.34a28.337 28.337 0 0 0-5.29-5.26l.304-5.288a2.083 2.083 0 0 0-1.29-2.047l-6.83-2.803a2.086 2.086 0 0 0-2.355.551l-3.499 3.977a28.366 28.366 0 0 0-7.458.027l-3.528-3.956a2.079 2.079 0 0 0-2.359-.536l-6.812 2.848a2.085 2.085 0 0 0-1.275 2.055l.338 5.29a28.34 28.34 0 0 0-5.259 5.29l-5.29-.304a2.089 2.089 0 0 0-2.045 1.29L154.144 71a2.085 2.085 0 0 0 .551 2.355l3.978 3.5c-.32 2.475-.31 4.977.027 7.458l-3.957 3.527a2.084 2.084 0 0 0-.535 2.36l2.847 6.812c.345.822 1.176 1.35 2.058 1.275l5.288-.338a28.365 28.365 0 0 0 5.29 5.258l-.304 5.289a2.084 2.084 0 0 0 1.288 2.046l6.831 2.803a2.085 2.085 0 0 0 2.354-.55l3.5-3.978c2.477.319 4.977.31 7.459-.027l3.528 3.957z"/></g></g><g><g><path fill="#91b3fa" d="M186.873 75.514a4.928 4.928 0 0 1 3.085.974A4.984 4.984 0 0 1 191 83.451a4.953 4.953 0 0 1-3.878 2.018 4.927 4.927 0 0 1-3.085-.974 4.945 4.945 0 0 1-1.964-3.266 4.946 4.946 0 0 1 .92-3.697 4.954 4.954 0 0 1 3.88-2.018zm-4.711 11.518a8.054 8.054 0 0 0 5.043 1.59 8.086 8.086 0 0 0 6.333-3.295c2.667-3.606 1.902-8.71-1.704-11.376a8.053 8.053 0 0 0-5.043-1.591 8.088 8.088 0 0 0-6.333 3.296 8.08 8.08 0 0 0-1.504 6.041 8.08 8.08 0 0 0 3.208 5.335z"/></g></g><g><g><g><path fill="#91b3fa" d="M155.01 104.194a.394.394 0 0 0 .308-.627 39.819 39.819 0 0 1-1.109-1.605.394.394 0 1 0-.66.432c.363.554.74 1.1 1.132 1.638.08.109.205.165.33.162z"/></g></g><g><g><path fill="#91b3fa" d="M223.991 94.627a.394.394 0 0 1-.232-.507c.465-1.254.87-2.545 1.203-3.839a.395.395 0 0 1 .764.196 39.71 39.71 0 0 1-1.228 3.918.394.394 0 0 1-.507.232zm-3.668 7.243a.394.394 0 0 1-.124-.544 39.515 39.515 0 0 0 1.966-3.512.395.395 0 0 1 .707.35 40.355 40.355 0 0 1-2.006 3.583.395.395 0 0 1-.543.123zm-5.06 6.35a.394.394 0 0 1-.012-.557 39.607 39.607 0 0 0 2.634-3.042.394.394 0 1 1 .622.485 40.365 40.365 0 0 1-2.687 3.103.392.392 0 0 1-.557.012zm-55.095 1.906a39.987 39.987 0 0 1-2.9-2.906.395.395 0 0 1 .586-.528 39.023 39.023 0 0 0 2.843 2.848.394.394 0 1 1-.529.586zm48.85 3.279a.394.394 0 0 1 .103-.548 39.053 39.053 0 0 0 3.199-2.438.395.395 0 0 1 .51.601 39.743 39.743 0 0 1-3.264 2.488.395.395 0 0 1-.548-.103zm-42.239 1.573a40.677 40.677 0 0 1-3.428-2.26.395.395 0 0 1 .466-.636 39.756 39.756 0 0 0 3.362 2.216.394.394 0 1 1-.4.68zm35.062 2.22a.395.395 0 0 1 .214-.517 39.22 39.22 0 0 0 3.632-1.73.395.395 0 0 1 .376.695 40.47 40.47 0 0 1-3.706 1.764.396.396 0 0 1-.516-.213zm-27.603 1.189a40.12 40.12 0 0 1-3.817-1.512.395.395 0 0 1 .328-.718 39.249 39.249 0 0 0 3.742 1.482.395.395 0 0 1-.253.748zm19.803 1.06c-.041-.214.1-.421.314-.462a39.67 39.67 0 0 0 3.909-.954.394.394 0 1 1 .226.755c-1.307.39-2.648.719-3.988.974a.395.395 0 0 1-.461-.313zm-11.803.743a40.017 40.017 0 0 1-4.046-.695.395.395 0 1 1 .174-.77c1.3.294 2.635.523 3.966.682a.394.394 0 0 1-.094.783zm4.096.276a.395.395 0 0 1-.388-.4c.003-.219.179-.379.4-.39 1.345.023 2.7-.024 4.023-.14a.39.39 0 0 1 .426.359.394.394 0 0 1-.358.427 39.94 39.94 0 0 1-4.103.144z"/></g></g><g><g><path fill="#91b3fa" d="M226.17 86.754a.395.395 0 0 0 .38-.336c.097-.657.178-1.316.243-1.975a.395.395 0 0 0-.785-.078 40.154 40.154 0 0 1-.24 1.937.395.395 0 0 0 .402.452z"/></g></g></g><g><g><g><path fill="#91b3fa" d="M218.191 56.479a.394.394 0 0 0 .3-.637 39.641 39.641 0 0 0-1.267-1.537.395.395 0 0 0-.596.517c.428.493.842.995 1.242 1.506.08.102.201.154.321.151z"/></g></g><g><g><path fill="#91b3fa" d="M180.548 41.438a.395.395 0 0 1 .33-.451 40.531 40.531 0 0 1 4.016-.418.397.397 0 0 1 .415.373.395.395 0 0 1-.373.415c-1.313.07-2.638.208-3.938.41a.394.394 0 0 1-.45-.33zm12.287.293a39.372 39.372 0 0 0-3.94-.386.394.394 0 0 1-.375-.413.387.387 0 0 1 .412-.375c1.34.063 2.693.196 4.02.394a.394.394 0 1 1-.117.78zm-19.997 1.793a.394.394 0 0 1 .232-.507 40.48 40.48 0 0 1 3.852-1.211.394.394 0 1 1 .198.763c-1.27.331-2.541.73-3.776 1.188a.394.394 0 0 1-.507-.233zm27.66.164a39.104 39.104 0 0 0-3.782-1.173.394.394 0 1 1 .195-.764c1.3.331 2.598.734 3.858 1.196a.395.395 0 0 1-.271.741zm-34.793 3.427a.394.394 0 0 1 .125-.544 39.79 39.79 0 0 1 3.53-1.96.395.395 0 0 1 .348.708 38.958 38.958 0 0 0-3.46 1.921.396.396 0 0 1-.543-.125zm41.902.038a39.4 39.4 0 0 0-3.467-1.913.395.395 0 0 1 .346-.71 40.18 40.18 0 0 1 3.537 1.952.394.394 0 1 1-.416.67zm-48.163 4.917a.394.394 0 0 1 .014-.558c.97-.925 2-1.81 3.06-2.632a.394.394 0 1 1 .483.623 39.248 39.248 0 0 0-3 2.58.393.393 0 0 1-.557-.013zm54.44-.102a39.76 39.76 0 0 0-3.018-2.564.394.394 0 1 1 .48-.626 40.64 40.64 0 0 1 3.077 2.615.395.395 0 0 1-.54.575zm-59.58 6.216a.394.394 0 0 1-.097-.549 40.758 40.758 0 0 1 2.472-3.193.393.393 0 1 1 .599.513 40 40 0 0 0-2.425 3.132.393.393 0 0 1-.549.097zm-3.82 7.017a.394.394 0 0 1-.206-.519 40.081 40.081 0 0 1 1.786-3.623.395.395 0 0 1 .69.385 39.426 39.426 0 0 0-1.752 3.55.394.394 0 0 1-.519.207zm-2.326 7.641a.394.394 0 0 1-.307-.465c.272-1.316.614-2.63 1.018-3.91a.394.394 0 1 1 .752.237 39.253 39.253 0 0 0-.997 3.832.394.394 0 0 1-.466.306z"/></g></g><g><g><path fill="#91b3fa" d="M147.484 78.803a.395.395 0 0 0 .384-.374c.033-.649.083-1.298.149-1.946a.395.395 0 0 0-.785-.08 39.652 39.652 0 0 0-.152 1.986.394.394 0 0 0 .404.414z"/></g></g></g></g></g><g><path fill="url(#2r96a)" d="M221.901 455.828V412.54h43.289v43.288z"/></g><g><path fill="#007cff" d="M6.563 412.694c0 4.661 3.818 8.475 8.484 8.475h458.74c4.665 0 8.483-3.814 8.483-8.475l3.817-263.626c0-4.66-5.492-13.761-15.557-13.077L22.2 124.39a21.4 21.4 0 0 0-15.661 6.233 21.356 21.356 0 0 0-6.275 15.63z"/></g><g opacity=".4"><path d="M6.563 412.694c0 4.661 3.818 8.475 8.484 8.475h458.74c4.665 0 8.483-3.814 8.483-8.475l3.817-263.626c0-4.66-5.492-13.761-15.557-13.077L22.2 124.39a21.4 21.4 0 0 0-15.661 6.233 21.356 21.356 0 0 0-6.275 15.63z"/></g><g><path fill="#007cff" d="M14.939 399.715c0 4.34 3.611 7.891 8.026 7.891h439.76c4.413 0 8.025-3.55 8.025-7.891l3.602-235.328c-.424-14.161-13.05-19.251-20.705-18.95L23.95 134.1a15.14 15.14 0 0 0-11.002 4.306 14.625 14.625 0 0 0-4.4 10.812z"/></g><g><path fill="#fff" d="M465.997 290.78h-.017a1.088 1.088 0 0 1-1.071-1.104l.285-19.409c.008-.6.501-1.036 1.103-1.071a1.088 1.088 0 0 1 1.071 1.104l-.285 19.408a1.088 1.088 0 0 1-1.086 1.072z"/></g><g><path fill="#fff" d="M466.696 243.218h-.017a1.088 1.088 0 0 1-1.071-1.104l1.091-74.335c-.02-4.442-1.37-7.99-4.011-10.52-4.921-4.715-12.73-4.471-13.063-4.461l-137.332-3.683a1.087 1.087 0 1 1 .06-2.173l137.254 3.682c.852-.04 9.1-.191 14.586 5.065 3.083 2.954 4.658 7.026 4.681 12.1l-1.092 74.358a1.087 1.087 0 0 1-1.086 1.071z"/></g><g><path fill="url(#2r96b)" d="M345.549 448.809H141.886c-4.015 0-7.27 2.965-7.27 6.98 0 3.412 2.767 5.89 6.18 5.89h204.753c3.413 0 6.218-3.041 6.218-6.454v-1.09c0-3.414-2.805-5.326-6.218-5.326z"/></g><g><path fill="#2c9bff" d="M49.895 390.225l385.589-9.387c6.625-.161 11.911-5.578 11.911-12.205V177.591c0-6.743-5.466-12.21-12.208-12.21H55.07c-6.613 0-12.024 5.266-12.204 11.876l-5.473 200.43c-.19 6.987 5.514 12.708 12.502 12.538z"/></g><g><g><path fill="#fff" d="M271.987 261.11l-46.008-26.563c-.537-.31-.766-.31-1.302 0-.537.31-.436.883-.436 1.502v53.127c0 .62-.101 1.192.436 1.501.536.31.981.31 1.518 0l45.9-26.563c.537-.31.813-.882.813-1.502s-.384-1.192-.92-1.501z"/></g><g><g><path fill="#fff" d="M288.974 262.612c0 25.541-20.78 46.321-46.32 46.321-25.542 0-46.32-20.78-46.32-46.32 0-25.542 20.778-46.321 46.32-46.321 25.54 0 46.32 20.779 46.32 46.32zm2.731 0c0-27.047-22.005-49.051-49.052-49.051s-49.051 22.004-49.051 49.051 22.004 49.052 49.051 49.052 49.052-22.005 49.052-49.052z"/></g></g></g><g><g><g><g><path fill="url(#2r96c)" d="M352.098 360.162l7.976 3.89c7.044-.677 12.472-2.868 16.641-5.648-2.509-6.24-5.057-9.94-7.059-12.109-6.557 9.223-17.558 13.867-17.558 13.867z"/></g><g><path fill="url(#2r96d)" d="M389.65 340.851l-11.711-18.308c-.768 10.326-4.257 18.09-8.283 23.752 2.002 2.169 4.55 5.87 7.059 12.109 10.404-6.937 12.934-17.553 12.934-17.553z"/></g></g><g><path fill="url(#2r96e)" d="M402.103 485.55c-5.839.268-11.49.099-15.262-.095 3.435-2.445 11.35-7.765 17.972-9.883l4.546-.272s1.54 2.343 2.09 7.704c-.753.94-2.956 2.251-9.346 2.545z"/></g><g><path fill="url(#2r96f)" d="M386.793 485.489l.047-.034c3.773.194 9.424.363 15.262.094 6.39-.294 8.593-1.605 9.347-2.545.025.247.051.493.072.752a2.129 2.129 0 0 1-1.956 2.299c-4.781.362-16.636 1.18-22.353.88-.754-.039-1.034-1.008-.419-1.446z"/></g><g><path fill="url(#2r96g)" d="M443.858 483.987c.428-2.74 1.113-6.703 1.643-7.716.831-1.59 3.676 0 3.676 0s1.997.931 2.916 2.484c.586.989 2.206 3.804 3.304 5.715.126.22.179.454.172.68l-11.39.4a2.276 2.276 0 0 1-.321-1.563z"/></g><g><path fill="url(#2r96h)" d="M455.569 485.15a1.298 1.298 0 0 1-1.262 1.262l-8.115.223a2.29 2.29 0 0 1-2.014-1.086z"/></g><g><path fill="url(#2r96i)" d="M442.988 467.162c.098.329 1.57 7.464 2.214 10.596a1.788 1.788 0 0 0 1.84 1.428 20.852 20.852 0 0 0 1.631-.143 2.159 2.159 0 0 0 1.878-2.058c.105-2.743.156-8.01-.851-10.05-1.39-2.816-6.712.227-6.712.227z"/></g><g><path fill="url(#2r96j)" d="M410.252 469.205c-.631-.02.252 3.26-.703 6.483-.215.727-.76 1.297-1.517 1.307a18.226 18.226 0 0 1-1.665-.05 1.83 1.83 0 0 1-1.686-1.65l-.777-8.36z"/></g><g><path fill="url(#2r96k)" d="M392.595 380.33c.281 1.372 10.227 59.381 10.83 89.398.011.503.381.926.88.995 1.262.176 3.72.402 6.105-.04a.72.72 0 0 0 .593-.66c.348-5.595 3.143-52.89-.28-75.153 0 0 28.277 59.515 32.564 75.925.104.4.47.668.883.646 1.21-.064 3.73-.282 5.73-1.018a1.498 1.498 0 0 0 .944-1.759c-2.395-9.821-19.179-77.485-30.575-92.393z"/></g><g><path fill="url(#2r96l)" d="M410.723 395.241a.371.371 0 0 0 .266-.63l-3.787-3.873a.371.371 0 1 0-.53.52l3.786 3.871a.37.37 0 0 0 .265.112z"/></g><g><path fill="url(#2r96m)" d="M376.43 307.703c7.264-1.903 20.663-4.883 31.329-4.247 2.449.146 4.412 2.083 4.551 4.533 1.611 28.407 3.813 53.615 7.96 68.282-9.32 3.687-18.56 5.398-27.675 4.059-6.83-14.627-12.8-31.513-17.9-50.69 0 0-2.994-15.295-.087-20.393.453-.795 1.05-1.342 1.822-1.544z"/></g><g><path fill="url(#2r96n)" d="M393.901 287.804s1.834 10.943 2.381 16.003c.09.823-.341 1.6-1.076 1.978-2.005 1.032-6.284 2.695-10.948 1.17-.768-.252-1.271-.995-1.253-1.803l.32-14.609z"/></g><g><path fill="url(#2r96o)" d="M381.94 275.68s-3.54 8.13-3.777 12.396c-.238 4.267-1.157 7.036 3.776 7.895 4.934.86 9.09-1.598 11.342-5.849 0 0 3.528-6.549 2.737-9.231-.792-2.682-14.079-5.211-14.079-5.211z"/></g><g><g><path fill="url(#2r96p)" d="M431.106 345.536c3.592 10.078 1.57 20.883 1.57 20.883l4.734 1.263s6.117-7.275 4.718-23.42c-4.37-.667-8.464.357-11.022 1.274z"/></g><g><path fill="url(#2r96q)" d="M442.128 344.262a63.647 63.647 0 0 0-.771-5.778c-3.2-17.806-26.026-31.502-31.398-34.501a.734.734 0 0 0-1.09.669l.764 24.204c12.713 1.709 18.73 8.983 21.474 16.68 2.557-.916 6.651-1.94 11.021-1.274z"/></g></g><g><path fill="url(#2r96r)" d="M336.387 374.94a3.068 3.068 0 0 1-1.361-2.242c-.192-1.773-.17-4.508 1.737-4.728 2.842-.327 5.86 5.745 5.86 5.745l1.05 4.278 1.698 1.63c-2.008-.088-5.292-2.081-8.984-4.683z"/></g><g><path fill="url(#2r96s)" d="M376.626 266.021c5.326-7.101 3.692 1.118 9.25 3.712.672.247 1.46.474 2.379.666 8.41 1.034 11.129 6.115 10.67 7.35.02.18.04.36.045.547a.336.336 0 0 0 .519.274c.45-.273 1.169-.402 2.13.406 1.671 1.406.987 5.051-2.677 8.051-.174.142-.172.414.016.537.664.432 1.654 1.461-.911 2.833-2.625 1.403-4.178 1.25-4.765 1.1a.336.336 0 0 1-.254-.347l.23-3.741a.346.346 0 0 0-.334-.37h-1.953s1.724-3.527 1.1-5.314c-10.19 3.05-21.417-7.742-15.445-15.704z"/></g><g><path fill="url(#2r96t)" d="M391.442 287.846s1.35-5.193 3.678-3.737c2.328 1.456-1.208 5.819-3.08 6.013z"/></g><g><g><path fill="url(#2r96u)" d="M302.85 332.52L327.764 303c6.125-7.257 16.974-8.174 24.23-2.05l108.816 91.84c7.257 6.125 8.175 16.973 2.05 24.23l-24.915 29.52c-6.125 7.258-16.973 8.176-24.23 2.05L304.9 356.75c-7.257-6.124-8.175-16.972-2.05-24.23z"/></g><g><path fill="url(#2r96v)" d="M311.904 348.048a6.605 6.605 0 1 0 8.52-10.096 6.605 6.605 0 0 0-8.52 10.096z"/></g><g><g><path fill="url(#2r96w)" d="M349.975 329.227a7.366 7.366 0 1 1 14.727-.387 7.366 7.366 0 0 1-14.727.387z"/></g><g><path fill="url(#2r96x)" d="M326.122 357.609a7.366 7.366 0 1 1 14.719-.616 7.366 7.366 0 0 1-14.72.616z"/></g></g><g><g><path fill="url(#2r96y)" d="M414.72 385.847a7.366 7.366 0 1 1 2.712-14.48 7.366 7.366 0 0 1-2.713 14.48z"/></g><g><path fill="url(#2r96z)" d="M387.468 412.504a7.366 7.366 0 1 0 9.5-11.259 7.366 7.366 0 0 0-9.5 11.26z"/></g></g><g><path fill="url(#2r96A)" d="M374.854 400.077a5.644 5.644 0 0 0 7.954-.673l24.322-28.818a5.644 5.644 0 0 0-.673-7.953l-.183-.155a5.644 5.644 0 0 0-7.954.672l-24.322 28.818a5.645 5.645 0 0 0 .672 7.955z"/></g><g><path fill="url(#2r96B)" d="M410.702 408.436a7.766 7.766 0 0 0 10.943-.926 7.766 7.766 0 1 0-10.944.926z"/></g><g><path fill="url(#2r96C)" d="M413.639 448.527l-5.874-4.958 47.096-55.8 5.873 4.957z"/></g><g><g><path fill="#7d97f4" d="M348.744 361.85c0-10.281 8.334-18.616 18.615-18.616 10.28 0 18.615 8.335 18.615 18.615 0 10.281-8.334 18.615-18.615 18.615-10.28 0-18.615-8.334-18.615-18.615z"/></g><g><path fill="url(#2r96D)" d="M361.542 368.741a9.013 9.013 0 1 0 11.626-13.775 9.013 9.013 0 0 0-11.626 13.775z"/></g></g><g opacity=".8"><g opacity=".8"><g opacity=".8"><path fill="#fff" d="M356.494 358.336a.958.958 0 0 0 .227-.6l.097-4.94 4.854-.927a.962.962 0 0 0-.36-1.887l-5.62 1.072a.96.96 0 0 0-.78.925l-.113 5.72a.961.961 0 0 0 1.695.637z"/></g></g><g opacity=".8"><g opacity=".8"><path fill="#fff" d="M372.83 372.124a.959.959 0 0 1 .555-.324l4.853-.926.097-4.94a.961.961 0 0 1 1.922.038l-.113 5.719a.961.961 0 0 1-.78.925l-5.62 1.072a.96.96 0 0 1-.914-1.564z"/></g></g></g><g opacity=".8"><g opacity=".8"><g opacity=".8"><path fill="#fff" d="M364.03 372.869a.958.958 0 0 0-.601-.226l-4.94-.098-.926-4.854a.962.962 0 0 0-1.888.36l1.072 5.62a.96.96 0 0 0 .925.78l5.72.113a.961.961 0 0 0 .638-1.695z"/></g></g><g opacity=".8"><g opacity=".8"><path fill="#fff" d="M377.817 356.533a.96.96 0 0 1-.324-.554l-.926-4.854-4.94-.098a.961.961 0 0 1 .038-1.92l5.72.112a.96.96 0 0 1 .924.78l1.072 5.62a.96.96 0 0 1-1.564.914z"/></g></g></g><g><g><path fill="#fff" d="M366.984 365.019c-.535.669-1.483.548-2.333-.133-.856-.687-1.137-1.572-.606-2.233.535-.668 1.477-.542 2.327.14.785.628 1.158 1.545.612 2.226zm.257-3.245c-1.433-1.149-2.998-.976-4.023.302-1.04 1.297-.668 2.84.577 3.838 1.31 1.05 2.96 1 3.995-.292 1.076-1.342.658-2.88-.549-3.848z"/></g><g><path fill="#fff" d="M365.532 359.335l.785-.98 1.427 1.144.762-.007-1.03-2.583.926-1.154 1.288 3.536 3.02.045-.971 1.213-2.249-.172c-.233-.027-.472-.048-.719-.086l-.015.02 1.933 1.548-.785.98z"/></g></g><g><g><g><path fill="#fff" d="M319.744 346.02a4.389 4.389 0 0 0-.523-6.176 4.353 4.353 0 0 0-3.197-1.018.72.72 0 0 0 .122 1.436 2.923 2.923 0 0 1 2.145.683 2.946 2.946 0 0 1 .351 4.146 2.945 2.945 0 0 1-4.146.35 2.922 2.922 0 0 1-1.034-2 .72.72 0 0 0-1.436.122 4.355 4.355 0 0 0 1.54 2.98 4.389 4.389 0 0 0 6.178-.523z"/></g></g><g><g><path fill="#fff" d="M315.986 344.107c.314.264.802.2 1.092-.142l.062-.074c.29-.343.399-.988.086-1.252l-3.27-2.76c-.314-.265-.932-.049-1.221.294l-.062.073c-.29.344-.27.836.043 1.1z"/></g></g></g></g><g><path fill="url(#2r96E)" d="M432.992 364.052l-6.494.32s5.389 2.528 5.547 5.524c.157 2.995-1.886 9.199-2.842 10.888-1.045 1.847 13.256-2.75 8.208-16.732z"/></g></g><g><path fill="#7d97f4" d="M379.447 276.305c-.05-.05-4.986-5.032-.015-10.747l.44.384c-4.604 5.295-.204 9.758-.014 9.945z"/></g></g><g><g><path fill="#fff" d="M127.287 378.238a6.997 6.997 0 0 1-9.84-.94c-2.453-2.971-2.032-7.385.94-9.839 2.972-2.454 7.385-2.032 9.839.94a6.997 6.997 0 0 1-.94 9.839zm-11.829-14.325c-4.926 4.067-5.625 11.387-1.557 16.314 4.068 4.926 11.387 5.625 16.314 1.557s5.625-11.388 1.558-16.314c-4.069-4.927-11.388-5.625-16.315-1.557z"/></g><g><path fill="#fff" d="M147.22 352.715c-11.101-13.444-31.072-15.351-44.516-4.25a31.185 31.185 0 0 0-2.85 2.673 1.692 1.692 0 0 0 .118 2.442l2.686 2.317a1.673 1.673 0 0 0 2.311-.117c.661-.699 1.367-1.368 2.127-1.995 10.512-8.68 26.124-7.189 34.804 3.322a23.917 23.917 0 0 1 1.49 2.013c.615.927 1.923 1.05 2.667.223l2.432-2.706c.531-.59.57-1.466.111-2.115a30.428 30.428 0 0 0-1.38-1.807z"/></g><g><path fill="#fff" d="M91.356 334.722a48.992 48.992 0 0 0-5.049 4.82c-.63.692-.544 1.774.164 2.385l2.678 2.312c.682.588 1.715.542 2.322-.123a42.217 42.217 0 0 1 4.278-4.075c18.09-14.937 44.957-12.37 59.894 5.719l.013.015c.653.792 1.849.835 2.535.072l2.386-2.654c.02-.842.031-1.385.05-2.228-17.422-20.657-48.383-23.49-69.27-6.243z"/></g><g><path fill="#fff" d="M172.578 327.597c-23.967-26.374-64.803-29.545-92.57-6.619a66.905 66.905 0 0 0-7.193 6.917c-.625.698-.54 1.779.168 2.39l2.675 2.31a1.682 1.682 0 0 0 2.355-.164 59.927 59.927 0 0 1 6.388-6.132c25-20.643 61.81-17.716 83.29 6.167.674.75 1.84.77 2.514.02l2.368-2.633c.575-.64.584-1.62.005-2.256z"/></g></g><g><path fill="url(#2r96F)" d="M59.282 484.082c-7.042 0-12.75-5.708-12.75-12.75v-26.666c0-7.041 5.708-12.75 12.75-12.75h169.007c7.041 0 12.75 5.709 12.75 12.75v26.667c0 7.04-5.709 12.749-12.75 12.749z"/></g><g><path fill="#007cff" d="M59.282 486.76c-7.042 0-12.75-5.708-12.75-12.75v-26.666c0-7.041 5.708-12.75 12.75-12.75h169.007c7.041 0 12.75 5.709 12.75 12.75v26.666c0 7.042-5.709 12.75-12.75 12.75z"/></g><g><path fill="url(#2r96G)" d="M54.87 447.068a4.226 4.226 0 1 1 8.452 0 4.226 4.226 0 0 1-8.453 0z"/></g><g><path fill="url(#2r96H)" d="M67.621 447.068a4.226 4.226 0 1 1 8.453 0 4.226 4.226 0 0 1-8.453 0z"/></g></g></svg>