<svg xmlns="http://www.w3.org/2000/svg" width="491" height="470" viewBox="0 0 491 470"><defs><linearGradient id="7hp3a" x1="245.79" x2="245.79" y1="32.05" y2="438.69" gradientUnits="userSpaceOnUse"><stop offset="0" stop-color="#eaf9ff"/><stop offset="1" stop-color="#f6f5ff"/></linearGradient></defs><g><g><g><path fill="url(#7hp3a)" d="M204.472 38.18C165.248 28.388 69.855 21.415 51.61 90.943c-18.245 69.528 19.724 106.51 0 159.273-19.724 52.762-22.19 170.615 62.131 182.449 84.321 11.835 315.045 10.29 303.753-42.407-23.67-110.456 51.148-107.647 30.079-185.9C409.604 63.328 275.898 56.012 204.473 38.18z"/></g><g><g><path fill="#407bff" d="M307.363 70.218l-1.91-.368c-3.662-.153-6.774 2.707-6.931 6.366l-1.06 24.328c-.124 2.719 1.512 5.262 4.063 6.308 37.975 15.502 67.69 46.587 81.533 85.287a6.475 6.475 0 0 0 5.827 4.293l24.78 1.079a6.678 6.678 0 0 0 5.532-2.562c1.33-1.691 1.734-3.903 1.14-5.958-16.464-55.132-58.703-99.54-112.974-118.773z"/></g><g><path fill="#407bff" d="M316.734.414c-3.662-.16-6.774 2.683-6.93 6.345l-1.04 23.953c-.134 2.977 1.786 5.655 4.68 6.53 70.014 20.71 123.86 77.766 140.557 148.964.66 2.843 3.16 4.92 6.053 5.04l24.01 1.043a6.64 6.64 0 0 0 5.354-2.34c1.323-1.567 1.866-3.626 1.44-5.62C472.792 96.07 405.005 23.97 318.17.623z"/></g><g transform="rotate(-44.995 87.5 132.5)"><path fill="#407bff" d="M46.564 145.296v-26.12H128.3v26.12z"/></g><g transform="rotate(-45.004 51 95.5)"><path fill="#407bff" d="M10.165 108.901v-26.12h81.732v26.12z"/></g><g><path fill="#616e7d" d="M190.016 162.396L74.356 46.735a5.227 5.227 0 0 0-3.663-1.516 5.235 5.235 0 0 0-3.655 1.516l-65.11 65.11a5.203 5.203 0 0 0-1.516 3.658c0 1.36.55 2.693 1.516 3.659l117.057 117.046a5.175 5.175 0 0 0 3.644 1.52c1.366 0 2.7-.558 3.666-1.52l18.297-18.287 4.777 4.781c1.487-14.598 6.742-28.486 15.907-40.1l-42.647 42.633-17.922-17.918-19.022-19.022-17.918-17.93-18.469-18.468v.004L31.37 133.975l-18.465-18.472 57.789-57.796L89.16 76.176l17.936 17.929 18.472 18.472 17.922 17.922 19.022 19.022 17.915 17.926-2.879 2.875a73.337 73.337 0 0 1 12.467-7.926z"/></g><g transform="rotate(-44.994 338.5 383)"><path fill="#407bff" d="M297.304 396.045v-26.126h81.737v26.126z"/></g><g transform="rotate(-44.991 374.5 419.5)"><path fill="#407bff" d="M333.705 432.438v-26.12h81.729v26.12z"/></g><g transform="rotate(-44.993 301.5 346)"><path fill="#407bff" d="M260.635 359.762V332.86h81.737v26.9z"/></g><g><path fill="#616e7d" d="M265.972 326.964c-5.455 1.294-11.092 2.016-16.792 2.176l-14.98 14.977a5.198 5.198 0 0 0-1.52 3.655c0 1.363.554 2.697 1.52 3.663L351.251 468.48a5.199 5.199 0 0 0 3.659 1.52 5.214 5.214 0 0 0 3.65-1.52l65.11-65.106a5.201 5.201 0 0 0 1.524-3.658c0-1.36-.554-2.693-1.523-3.659L315.689 288.074a73.358 73.358 0 0 1-5.463 9.169l10.663 10.663 19.03 19.018 17.918 17.926 18.476 18.472 8.957 8.965 8.96 8.957 18.47 18.472-57.79 57.796-18.468-18.473-17.932-17.925-18.472-18.476-17.926-17.921-19.019-19.02-17.921-17.925 14.63-14.627z"/></g><g opacity=".5" transform="rotate(-44.996 320 364.5)"><path fill="#407bff" d="M279.109 377.456V352.11h81.737v25.346z"/></g><g opacity=".5"><path fill="#407bff" d="M318.508 421.115l17.934 17.925v-.002l57.788-57.793-8.96-8.958-8.957-8.965z"/></g><g opacity=".5"><path fill="#407bff" d="M265.974 326.964l-6.17 6.18-14.63 14.628 17.921 17.926 57.796-57.792-10.663-10.663a73.216 73.216 0 0 1-8.24 9.806c-10.126 10.127-22.567 16.734-36.014 19.915z"/></g><g transform="rotate(-44.995 124 169)"><path fill="#407bff" d="M83.227 182.359v-26.902h81.742v26.902z"/></g><g opacity=".5" transform="rotate(-44.995 105.5 150.5)"><path fill="#407bff" d="M64.756 163.107V137.76h81.74v25.347z"/></g><g opacity=".5"><path fill="#407bff" d="M49.296 151.9v-.002l57.799-57.792L89.16 76.177l-57.792 57.799z"/></g><g opacity=".5"><path fill="#407bff" d="M122.628 225.235l42.647-42.633a72.743 72.743 0 0 1 5.769-6.504 73.815 73.815 0 0 1 6.505-5.776l2.879-2.875-17.915-17.926-57.807 57.796z"/></g><g><path fill="#407bff" d="M151.671 253.484c-18.122 20.287-17.452 51.437 2.023 70.911 19.485 19.47 50.63 20.145 70.914 2.03-16.68-4.183-32.877-13.079-46.375-26.57-13.48-13.49-22.39-29.692-26.562-46.37z"/></g><g><path fill="#407bff" d="M277.35 188.31c-.409-.85-.89-1.644-1.2-2.563l-.535-1.782c-.536-2.113-.737-4.245-.682-6.344-31.93-21.646-72.93-20.775-98.03 4.326-28.96 28.96-25.742 79.132 7.171 112.056 32.936 32.932 83.108 36.15 112.071 7.19 25.695-25.702 26.02-68.087 2.745-100.319-.463.026-.915.131-1.37.131-1.662 0-3.32-.178-4.975-.546-.794-.179-1.585-.434-2.39-.707-.912-.314-1.717-.795-2.573-1.203l-47.038 47.046c-2.832 2.828-7.42 2.828-10.237 0a7.225 7.225 0 0 1 0-10.244z"/></g><g opacity=".6"><path fill="#fff" d="M230.309 235.351a7.225 7.225 0 0 0 0 10.244c2.816 2.828 7.404 2.828 10.236 0l47.038-47.046c-2.252-1.093-4.344-2.394-6.09-4.129-1.741-1.738-3.046-3.844-4.142-6.11z"/></g><g opacity=".5"><path fill="#407bff" d="M285.78 166.71c-4.279 4.279-5.663 10.302-4.279 15.772l.386 1.29c.795 2.318 2.041 4.504 3.893 6.348 1.85 1.844 4.037 3.102 6.344 3.896l1.767.525a16.68 16.68 0 0 0 3.63.397c4.23 0 8.443-1.596 11.665-4.818 6.464-6.464 6.464-16.945 0-23.406a16.504 16.504 0 0 0-11.702-4.85 16.505 16.505 0 0 0-11.704 4.846z"/></g><g><path fill="#407bff" d="M309.186 190.12c-3.222 3.222-7.434 4.818-11.665 4.818-1.22 0-2.434-.131-3.63-.397l-1.767-.525c-2.307-.794-4.493-2.052-6.344-3.896-1.852-1.844-3.098-4.03-3.893-6.348l-.386-1.29c-1.384-5.47 0-11.493 4.279-15.772a16.504 16.504 0 0 1 11.704-4.846c4.235 0 8.466 1.618 11.702 4.85 6.464 6.461 6.464 16.942 0 23.406zm-27.692-27.702a22.26 22.26 0 0 0-6.56 15.203c-.054 2.099.146 4.23.682 6.344l.536 1.782c.31.919.79 1.713 1.199 2.562 1.096 2.267 2.401 4.373 4.143 6.111 1.746 1.735 3.837 3.036 6.09 4.13.856.407 1.661.888 2.572 1.202.806.273 1.596.528 2.39.707a22.83 22.83 0 0 0 4.975.546c.455 0 .907-.105 1.37-.13 5.514-.332 10.666-2.537 14.591-6.466 4.267-4.274 6.629-9.955 6.629-15.99 0-6.046-2.362-11.727-6.64-16.001a22.457 22.457 0 0 0-15.987-6.625c-6.038 0-11.726 2.354-15.99 6.625z"/></g></g></g></g></svg>