<?xml version="1.0" encoding="utf-8"?>
<!-- Generator: Adobe Illustrator 25.1.0, SVG Export Plug-In . SVG Version: 6.00 Build 0)  -->
<svg version="1.1" id="Layer_1" xmlns="http://www.w3.org/2000/svg" xmlns:xlink="http://www.w3.org/1999/xlink" x="0px" y="0px"
	 viewBox="0 0 53.3 53.3" style="enable-background:new 0 0 53.3 53.3;" xml:space="preserve">
<style type="text/css">
	.st0{fill:#396AB3;}
</style>
<g id="_001-live" transform="translate(1773.6 4055.65)">
	<path id="Path_811" class="st0" d="M-1723.2-4032.9h-18c-0.6-3.2-3.8-5.3-7-4.7c-2.4,0.5-4.2,2.3-4.7,4.7h-18
		c-0.6,0-1.1,0.5-1.1,1.1v23.7c0,0.6,0.5,1.1,1.1,1.1c0,0,0,0,0,0h47.7c0.6,0,1.1-0.5,1.1-1.1c0,0,0,0,0,0v-23.7
		C-1722.1-4032.4-1722.6-4032.9-1723.2-4032.9z M-1747-4035.5c2.1,0,3.8,1.7,3.8,3.8c0,2.1-1.7,3.8-3.8,3.8c-2.1,0-3.8-1.7-3.8-3.8
		l0,0C-1750.9-4033.8-1749.2-4035.5-1747-4035.5C-1747.1-4035.5-1747.1-4035.5-1747-4035.5z M-1724.2-4009.2h-45.6v-21.6h16.9
		c0.5,3.2,3.5,5.5,6.8,5c2.6-0.4,4.6-2.4,5-5h16.9L-1724.2-4009.2z"/>
	<path id="Path_812" class="st0" d="M-1763-4022.7h-2v9.6h6.8v-1.6h-4.9V-4022.7z"/>
	<path id="Path_813" class="st0" d="M-1754.3-4022.8h2v9.6h-2V-4022.8z"/>
	<path id="Path_814" class="st0" d="M-1744.4-4015.6l-2.5-7.1h-2.1l3.4,9.6h2.1l3.5-9.6h-2.1L-1744.4-4015.6z"/>
	<path id="Path_815" class="st0" d="M-1729.1-4014.7h-5.4v-2.6h4.9v-1.6h-4.9v-2.2h5.2v-1.6h-7.2v9.6h7.4V-4014.7z"/>
	<path id="Path_816" class="st0" d="M-1756-4040.7c-0.4,0.4-0.4,1.1,0,1.5c0.4,0.4,1.1,0.4,1.5,0c4.1-4.1,10.8-4.1,15,0
		c0.4,0.4,1.1,0.4,1.5,0c0.4-0.4,0.4-1.1,0-1.5C-1743-4045.6-1751-4045.6-1756-4040.7z"/>
	<path id="Path_817" class="st0" d="M-1759.2-4043.9c6.6-6.7,17.5-6.8,24.2-0.1c0,0,0.1,0.1,0.1,0.1c0.4,0.4,1.1,0.4,1.5,0
		c0.4-0.4,0.4-1.1,0-1.5c-7.5-7.5-19.8-7.6-27.3,0c0,0,0,0,0,0c-0.4,0.4-0.4,1.1,0,1.5c0,0,0,0,0,0
		C-1760.3-4043.5-1759.6-4043.5-1759.2-4043.9z"/>
</g>
</svg>
