<svg xmlns="http://www.w3.org/2000/svg" width="102.401" height="120.046" viewBox="0 0 102.401 120.046">
  <g id="_002-dollar-tag" data-name="002-dollar-tag" transform="translate(52.763) rotate(30)">
    <g id="Group_195" data-name="Group 195" transform="translate(0)">
      <g id="Group_194" data-name="Group 194">
        <path id="Path_820" data-name="Path 820" d="M164.655,35.749,150.144,17.4a15.623,15.623,0,0,0-9.968-5.734V2.205a2.205,2.205,0,1,0-4.411,0v9.461a15.333,15.333,0,0,0-9.946,5.734l-14.555,18.37a9.189,9.189,0,0,0-1.963,5.646V96.528a9.035,9.035,0,0,0,9.064,9H157.51a9.036,9.036,0,0,0,9.108-8.954V41.416A9.3,9.3,0,0,0,164.655,35.749Zm-26.685-2.58a6.418,6.418,0,1,1-6.418,6.418A6.409,6.409,0,0,1,137.97,33.168Zm24.259,63.359a4.622,4.622,0,0,1-4.7,4.587H118.409a4.622,4.622,0,0,1-4.7-4.587V41.416a4.628,4.628,0,0,1,1.014-2.911l14.533-18.37a11.058,11.058,0,0,1,6.506-3.992V28.978a10.835,10.835,0,1,0,4.411,0V16.143a11.147,11.147,0,0,1,2.624.882,11,11,0,0,1,3.859,3.11l14.555,18.348a4.735,4.735,0,0,1,1.014,2.933Z" transform="translate(-109.301)" fill="#9ec5fd"/>
      </g>
    </g>
    <g id="Group_197" data-name="Group 197" transform="translate(21.297 62.102)">
      <g id="Group_196" data-name="Group 196">
        <path id="Path_821" data-name="Path 821" d="M220.279,299.926a7.387,7.387,0,0,0-7.035-5.161,2.955,2.955,0,1,1,2.955-2.955,2.205,2.205,0,1,0,4.411,0,7.386,7.386,0,0,0-5.161-7.035v-.97a2.205,2.205,0,0,0-4.411,0v.97a7.368,7.368,0,0,0,2.205,14.4,2.955,2.955,0,1,1-2.955,2.955,2.205,2.205,0,0,0-4.411,0,7.386,7.386,0,0,0,5.16,7.035v1.1a2.205,2.205,0,1,0,4.411,0v-1.1A7.379,7.379,0,0,0,220.279,299.926Z" transform="translate(-205.871 -281.6)" fill="#9ec5fd"/>
      </g>
    </g>
  </g>
</svg>
