<svg xmlns="http://www.w3.org/2000/svg" width="54" height="54" viewBox="0 0 54 54"><g><g><path fill="#396ab3" d="M42.476 13.596a2.697 2.697 0 0 1-2.693 2.694 2.697 2.697 0 0 1-2.694-2.694 2.697 2.697 0 0 1 2.694-2.693c.415 0 .802.102 1.154.27l-1.79 1.789a.897.897 0 1 0 1.27 1.27l1.79-1.79c.168.352.27.74.27 1.154zm5.388 12.458L22.79 51.804a1.374 1.374 0 0 1-1.941 0L2.472 33.429a1.375 1.375 0 0 1 .003-1.944L28.233 5.515h18.361l-4.34 4.34a4.461 4.461 0 0 0-2.471-.748 4.495 4.495 0 0 0-4.49 4.49 4.495 4.495 0 0 0 4.49 4.489 4.495 4.495 0 0 0 4.49-4.49c0-.913-.278-1.761-.749-2.472l4.34-4.339zM52.988.39a.897.897 0 0 0-1.27 0L48.39 3.72H27.484L1.203 30.217a3.149 3.149 0 0 0-.928 2.24c0 .846.33 1.643.928 2.24l18.376 18.377a3.152 3.152 0 0 0 2.237.926c.814 0 1.629-.312 2.253-.935l25.59-26.282V4.989l3.33-3.328a.897.897 0 0 0 0-1.27z"/></g></g></svg>