<svg xmlns="http://www.w3.org/2000/svg" width="553" height="426" viewBox="0 0 553 426"><g><g><g><g><path fill="#263238" d="M409.836 33.578s7.891 3.304 10.777 11.601c0 0-.866-13.06 5.195-18.256 0 0-5.484 4.329-6.638 10.678 0 0-3.082-3.14-9.334-4.023z"/></g><g><path fill="#263238" d="M382.964.82s10.041 7.806 12.787 15.001c0 0 1.532-7.724 8.814-10.027 0 0-5.25-.408-8.814 4.47 0 0-3.807-6.288-12.787-9.443z"/></g><g><path fill="#263238" d="M372.228 34.773s8.235-1.31 12.166 3.742c0 0-2.433-7.486 0-12.539 0 0-3.246 2.085-2.123 9.602 0 0-3.118-3.238-10.043-.805z"/></g></g></g><g><path fill="#b4d4fc" d="M45.538 104.533h101.764s-6.167-9.692-16.74-4.846c0 0-1.983-10.131-8.811-10.351-6.828-.221-9.25 5.066-9.25 5.066s-7.93-12.335-20.046-9.692C80.34 87.353 79.24 98.587 79.24 98.587s-18.063-9.251-33.702 5.946z"/></g><g><path fill="#b4d4fc" d="M432.187 36.021h101.764s-6.167-9.692-16.74-4.846c0 0-1.983-10.133-8.81-10.353-6.83-.22-9.252 5.068-9.252 5.068s-7.93-12.337-20.044-9.692c-12.115 2.643-13.217 13.876-13.217 13.876s-18.062-9.252-33.7 5.947z"/></g><g><path fill="#b4d4fc" d="M35.814 36.021h101.764s-6.168-9.692-16.741-4.846c0 0-1.982-10.133-8.811-10.353-6.828-.22-9.25 5.068-9.25 5.068s-7.93-12.337-20.046-9.692C70.615 18.84 69.515 30.074 69.515 30.074s-18.062-9.252-33.7 5.947z"/></g><g><g><g><g><path fill="#e6e6e6" d="M110.37 277.439V66.854h107.907v210.585z"/></g><g><path fill="#f0f0f0" d="M110.37 277.439V66.854h88.288v210.585z"/></g><g><path fill="#e0e0e0" d="M108.048 70.29v-3.436h111.498v3.436z"/></g><g><path fill="#e0e0e0" d="M108.048 63.417v-3.436h111.498v3.436z"/></g><g><path fill="#f0f0f0" d="M110.37 66.854v-3.437h106.833v3.437z"/></g><g><g><path fill="#e6e6e6" d="M118.751 95.834V79.251h16.583v16.583z"/></g><g><path fill="#f5f5f5" d="M120.213 95.834V79.251h15.12v16.583z"/></g></g><g><g><path fill="#e6e6e6" d="M143.862 95.834V79.251h16.583v16.583z"/></g><g><path fill="#f5f5f5" d="M145.324 95.834V79.251h15.121v16.583z"/></g></g><g><g><path fill="#e6e6e6" d="M168.973 95.834V79.251h16.583v16.583z"/></g><g><path fill="#f5f5f5" d="M170.435 95.834V79.251h15.121v16.583z"/></g></g><g><g><path fill="#e6e6e6" d="M118.751 120.252v-16.583h16.583v16.583z"/></g><g><path fill="#f5f5f5" d="M120.213 120.252v-16.583h15.12v16.583z"/></g></g><g><g><path fill="#e6e6e6" d="M143.862 120.252v-16.583h16.583v16.583z"/></g><g><path fill="#f5f5f5" d="M145.324 120.252v-16.583h15.121v16.583z"/></g></g><g><g><path fill="#e6e6e6" d="M168.973 120.252v-16.583h16.583v16.583z"/></g><g><path fill="#f5f5f5" d="M170.435 120.252v-16.583h15.121v16.583z"/></g></g><g><g><path fill="#e6e6e6" d="M118.751 164.97v-16.582h16.583v16.582z"/></g><g><path fill="#f5f5f5" d="M120.213 164.97v-16.582h15.12v16.582z"/></g></g><g><g><path fill="#e6e6e6" d="M143.862 164.97v-16.582h16.583v16.582z"/></g><g><path fill="#f5f5f5" d="M145.324 164.97v-16.582h15.121v16.582z"/></g></g><g><g><path fill="#e6e6e6" d="M168.973 164.97v-16.582h16.583v16.582z"/></g><g><path fill="#f5f5f5" d="M170.435 164.97v-16.582h15.121v16.582z"/></g></g><g><g><path fill="#e6e6e6" d="M118.751 189.388v-16.583h16.583v16.583z"/></g><g><path fill="#f5f5f5" d="M120.213 189.388v-16.583h15.12v16.583z"/></g></g><g><g><path fill="#e6e6e6" d="M143.862 189.388v-16.583h16.583v16.583z"/></g><g><path fill="#f5f5f5" d="M145.324 189.388v-16.583h15.121v16.583z"/></g></g><g><g><path fill="#e6e6e6" d="M168.973 189.388v-16.583h16.583v16.583z"/></g><g><path fill="#f5f5f5" d="M170.435 189.388v-16.583h15.121v16.583z"/></g></g><g><g><path fill="#e6e6e6" d="M118.751 239.084V222.5h16.583v16.583z"/></g><g><path fill="#f5f5f5" d="M120.213 239.084V222.5h15.12v16.583z"/></g></g><g><g><path fill="#e6e6e6" d="M143.862 239.084V222.5h16.583v16.583z"/></g><g><path fill="#f5f5f5" d="M145.324 239.084V222.5h15.121v16.583z"/></g></g><g><g><path fill="#e6e6e6" d="M168.973 239.084V222.5h16.583v16.583z"/></g><g><path fill="#f5f5f5" d="M170.435 239.084V222.5h15.121v16.583z"/></g></g><g><g><path fill="#e6e6e6" d="M118.751 263.501v-16.583h16.583v16.583z"/></g><g><path fill="#f5f5f5" d="M120.213 263.501v-16.583h15.12v16.583z"/></g></g><g><g><path fill="#e6e6e6" d="M143.862 263.501v-16.583h16.583v16.583z"/></g><g><path fill="#f5f5f5" d="M145.324 263.501v-16.583h15.121v16.583z"/></g></g><g><g><path fill="#e6e6e6" d="M168.973 263.501v-16.583h16.583v16.583z"/></g><g><path fill="#f5f5f5" d="M170.435 263.501v-16.583h15.121v16.583z"/></g></g><g><path fill="#e0e0e0" d="M110.37 133.447v-1.534h107.907v1.534z"/></g><g><path fill="#e0e0e0" d="M110.37 209.882v-1.534h107.907v1.534z"/></g></g><g><g><path fill="#e0e0e0" d="M17.515 311.515V129.911h74.633v181.604z"/></g><g><path fill="#f0f0f0" d="M17.515 311.515V129.911H70.89v181.604z"/></g><g><g><path fill="#e6e6e6" d="M23.016 154.479v-9.643H42.88v9.643z"/></g><g><path fill="#f5f5f5" d="M24.34 154.479v-9.643h18.54v9.643z"/></g></g><g><g><path fill="#e6e6e6" d="M45.992 154.479v-9.643h19.864v9.643z"/></g><g><path fill="#f5f5f5" d="M47.315 154.479v-9.643h18.541v9.643z"/></g></g><g><g><path fill="#e6e6e6" d="M23.016 172.63v-9.643H42.88v9.643z"/></g><g><path fill="#f5f5f5" d="M24.34 172.63v-9.643h18.54v9.643z"/></g></g><g><g><path fill="#e6e6e6" d="M45.992 172.63v-9.643h19.864v9.643z"/></g><g><path fill="#f5f5f5" d="M47.315 172.63v-9.643h18.541v9.643z"/></g></g><g><g><path fill="#e6e6e6" d="M23.016 195.827v-9.643H42.88v9.643z"/></g><g><path fill="#f5f5f5" d="M24.34 195.827v-9.643h18.54v9.643z"/></g></g><g><g><path fill="#e6e6e6" d="M45.992 195.827v-9.643h19.864v9.643z"/></g><g><path fill="#f5f5f5" d="M47.315 195.827v-9.643h18.541v9.643z"/></g></g><g><g><path fill="#e6e6e6" d="M23.016 209.157v-9.643H42.88v9.643z"/></g><g><path fill="#f5f5f5" d="M24.34 209.157v-9.643h18.54v9.643z"/></g></g><g><g><path fill="#e6e6e6" d="M45.992 209.157v-9.643h19.864v9.643z"/></g><g><path fill="#f5f5f5" d="M47.315 209.157v-9.643h18.541v9.643z"/></g></g><g><g><path fill="#e6e6e6" d="M23.016 231.054v-9.643H42.88v9.643z"/></g><g><path fill="#f5f5f5" d="M24.34 231.054v-9.643h18.54v9.643z"/></g></g><g><g><path fill="#e6e6e6" d="M45.992 231.054v-9.643h19.864v9.643z"/></g><g><path fill="#f5f5f5" d="M47.315 231.054v-9.643h18.541v9.643z"/></g></g><g><g><path fill="#e6e6e6" d="M23.016 244.383v-9.643H42.88v9.643z"/></g><g><path fill="#f5f5f5" d="M24.34 244.383v-9.643h18.54v9.643z"/></g></g><g><g><path fill="#e6e6e6" d="M45.992 244.383v-9.643h19.864v9.643z"/></g><g><path fill="#f5f5f5" d="M47.315 244.383v-9.643h18.541v9.643z"/></g></g><g><g><path fill="#e6e6e6" d="M23.016 268.214v-9.643H42.88v9.643z"/></g><g><path fill="#f5f5f5" d="M24.34 268.214v-9.643h18.54v9.643z"/></g></g><g><g><path fill="#e6e6e6" d="M45.992 268.214v-9.643h19.864v9.643z"/></g><g><path fill="#f5f5f5" d="M47.315 268.214v-9.643h18.541v9.643z"/></g></g><g><g><path fill="#e6e6e6" d="M23.016 285.816v-9.643H42.88v9.643z"/></g><g><path fill="#f5f5f5" d="M24.34 285.816v-9.643h18.54v9.643z"/></g></g><g><g><path fill="#e6e6e6" d="M45.992 285.816v-9.643h19.864v9.643z"/></g><g><path fill="#f5f5f5" d="M47.315 285.816v-9.643h18.541v9.643z"/></g></g><g opacity=".05"><path d="M17.515 180.237v-1.66h74.633v1.66z"/></g><g opacity=".05"><path d="M17.515 216.113v-1.659h74.633v1.66z"/></g><g opacity=".05"><path d="M17.515 252.307v-1.66h74.633v1.66z"/></g><g><path fill="#e0e0e0" d="M14 130.34v-5.8h78.148v5.8z"/></g><g opacity=".05"><path d="M74.29 130.34v-5.8h17.858v5.8z"/></g></g><g><g><path fill="#e6e6e6" d="M262.87 263.089V35.32h87.64v227.768z"/></g><g><path fill="#f0f0f0" d="M230.427 263.089V35.319h87.644v227.77z"/></g><g><g><path fill="#e6e6e6" d="M238.075 62.385V50.784h72.348v11.601z"/></g><g><path fill="#f5f5f5" d="M240.882 62.385V50.784h69.541v11.601z"/></g></g><g><g><path fill="#e6e6e6" d="M238.075 81.912V70.31h72.348v11.6z"/></g><g><path fill="#f5f5f5" d="M240.882 81.912V70.31h69.541v11.6z"/></g></g><g><g><path fill="#e6e6e6" d="M238.075 102.208V90.607h72.348v11.601z"/></g><g><path fill="#f5f5f5" d="M240.882 102.208V90.607h69.541v11.601z"/></g></g><g><g><path fill="#e6e6e6" d="M238.075 122.505v-11.602h72.348v11.602z"/></g><g><path fill="#f5f5f5" d="M240.882 122.505v-11.602h69.541v11.602z"/></g></g><g><g><path fill="#e6e6e6" d="M238.075 142.801V131.2h72.348V142.8z"/></g><g><path fill="#f5f5f5" d="M240.882 142.801V131.2h69.541V142.8z"/></g></g><g><g><path fill="#e6e6e6" d="M238.075 163.098v-11.602h72.348v11.602z"/></g><g><path fill="#f5f5f5" d="M240.882 163.098v-11.602h69.541v11.602z"/></g></g><g><g><path fill="#e6e6e6" d="M238.075 185.466v-11.602h72.348v11.602z"/></g><g><path fill="#f5f5f5" d="M240.882 185.466v-11.602h69.541v11.602z"/></g></g><g><g><path fill="#e6e6e6" d="M238.075 207.834v-11.601h72.348v11.601z"/></g><g><path fill="#f5f5f5" d="M240.882 207.834v-11.601h69.541v11.601z"/></g></g><g><g><path fill="#e6e6e6" d="M238.075 230.202v-11.601h72.348v11.601z"/></g><g><path fill="#f5f5f5" d="M240.882 230.202v-11.601h69.541v11.601z"/></g></g><g><g><path fill="#e6e6e6" d="M238.075 252.57v-11.6h72.348v11.6z"/></g><g><path fill="#f5f5f5" d="M240.882 252.57v-11.6h69.541v11.6z"/></g></g><g><path fill="#e0e0e0" d="M227.948 38.585v-5.558h124.835v5.558z"/></g><g><path fill="#e0e0e0" d="M227.948 28.558V23h124.835v5.558z"/></g><g><path fill="#f0f0f0" d="M230.427 33.027V27.47h118.21v5.558z"/></g><g><path fill="#e0e0e0" d="M326.089 62.386V50.779h24.42v11.607z"/></g><g><path fill="#e0e0e0" d="M326.089 81.483V69.876h24.42v11.607z"/></g><g><path fill="#e0e0e0" d="M326.089 100.58V88.972h24.42v11.606z"/></g><g><path fill="#e0e0e0" d="M326.089 122.507v-11.606h24.42v11.606z"/></g><g><path fill="#e0e0e0" d="M326.089 142.804v-11.607h24.42v11.607z"/></g><g><path fill="#e0e0e0" d="M326.089 163.1v-11.606h24.42V163.1z"/></g><g><path fill="#e0e0e0" d="M326.089 185.468v-11.606h24.42v11.606z"/></g><g><path fill="#e0e0e0" d="M326.089 207.837V196.23h24.42v11.607z"/></g><g><path fill="#e0e0e0" d="M326.089 230.205v-11.607h24.42v11.607z"/></g><g><path fill="#e0e0e0" d="M326.089 252.573v-11.606h24.42v11.606z"/></g></g><g><g><path fill="#e0e0e0" d="M541.847 221.022v-10.997h7.03v10.997z"/></g><g><path fill="#e0e0e0" d="M541.847 239.017v-10.996h7.03v10.996z"/></g><g><path fill="#e0e0e0" d="M541.847 256.505v-10.996h7.03v10.996z"/></g><g><path fill="#e0e0e0" d="M541.847 275v-10.997h7.03v10.996z"/></g><g><path fill="#e0e0e0" d="M541.847 292.99v-10.996h7.03v10.996z"/></g><g><path fill="#e6e6e6" d="M474.93 311.445V198.978h73.947v112.467z"/></g><g><path fill="#f0f0f0" d="M474.932 311.443V198.975h61.454v112.468z"/></g><g><path fill="#ebebeb" d="M480.46 221.026V210.03h49.975v10.995z"/></g><g><path fill="#ebebeb" d="M480.46 239.017v-10.995h49.975v10.995z"/></g><g><path fill="#ebebeb" d="M480.46 257.007v-10.994h49.975v10.994z"/></g><g><path fill="#ebebeb" d="M480.46 274.998v-10.994h49.975v10.994z"/></g><g><path fill="#ebebeb" d="M480.46 292.99v-10.995h49.975v10.994z"/></g><g><g><path fill="#f5f5f5" d="M482.303 221.026V210.03h48.132v10.995z"/></g><g><path fill="#f5f5f5" d="M482.303 239.017v-10.995h48.132v10.995z"/></g><g><path fill="#f5f5f5" d="M482.303 257.007v-10.994h48.132v10.994z"/></g><g><path fill="#f5f5f5" d="M482.303 274.998v-10.994h48.132v10.994z"/></g><g><path fill="#f5f5f5" d="M482.303 292.99v-10.995h48.132v10.994z"/></g></g></g></g></g><g><g><g><path fill="#407bff" d="M110.203 349.976v-245.68h125.892v245.68z"/></g><g opacity=".4"><path fill="#fff" d="M110.203 349.976v-245.68h103.003v245.68z"/></g><g><path fill="#407bff" d="M107.493 108.298v-4.004h130.083v4.004z"/></g><g><path fill="#407bff" d="M107.493 100.29v-4.02h130.083v4.02z"/></g><g><path fill="#f0f0f0" d="M110.207 104.294v-4.004h124.64v4.004z"/></g><g><g><path fill="#407bff" d="M119.982 138.106v-19.347h19.346v19.347z"/></g><g opacity=".2"><path fill="#fff" d="M121.687 138.106v-19.347h17.641v19.347z"/></g></g><g><g><path fill="#407bff" d="M149.278 138.106v-19.347h19.347v19.347z"/></g><g opacity=".2"><path fill="#fff" d="M150.983 138.106v-19.347h17.642v19.347z"/></g></g><g><g><path fill="#407bff" d="M178.574 138.106v-19.347h19.347v19.347z"/></g><g opacity=".2"><path fill="#fff" d="M180.28 138.106v-19.347h17.64v19.347z"/></g></g><g><g><path fill="#407bff" d="M119.982 166.593v-19.347h19.346v19.347z"/></g><g opacity=".2"><path fill="#fff" d="M121.687 166.593v-19.347h17.641v19.347z"/></g></g><g><g><path fill="#407bff" d="M149.278 166.593v-19.347h19.347v19.347z"/></g><g opacity=".2"><path fill="#fff" d="M150.983 166.593v-19.347h17.642v19.347z"/></g></g><g><g><path fill="#407bff" d="M178.574 166.593v-19.347h19.347v19.347z"/></g><g opacity=".2"><path fill="#fff" d="M180.28 166.593v-19.347h17.64v19.347z"/></g></g><g><g><path fill="#407bff" d="M119.982 218.764v-19.347h19.346v19.347z"/></g><g opacity=".2"><path fill="#fff" d="M121.687 218.764v-19.347h17.641v19.347z"/></g></g><g><g><path fill="#407bff" d="M149.278 218.764v-19.347h19.347v19.347z"/></g><g opacity=".2"><path fill="#fff" d="M150.983 218.764v-19.347h17.642v19.347z"/></g></g><g><g><path fill="#407bff" d="M178.574 218.764v-19.347h19.347v19.347z"/></g><g opacity=".2"><path fill="#fff" d="M180.28 218.764v-19.347h17.64v19.347z"/></g></g><g><g><path fill="#407bff" d="M119.982 247.251v-19.346h19.346v19.346z"/></g><g opacity=".2"><path fill="#fff" d="M121.687 247.251v-19.346h17.641v19.346z"/></g></g><g><g><path fill="#407bff" d="M149.278 247.251v-19.346h19.347v19.346z"/></g><g opacity=".2"><path fill="#fff" d="M150.983 247.251v-19.346h17.642v19.346z"/></g></g><g><g><path fill="#407bff" d="M178.574 247.251v-19.346h19.347v19.346z"/></g><g opacity=".2"><path fill="#fff" d="M180.28 247.251v-19.346h17.64v19.346z"/></g></g><g><g><path fill="#407bff" d="M119.982 305.229v-19.347h19.346v19.347z"/></g><g opacity=".2"><path fill="#fff" d="M121.687 305.229v-19.347h17.641v19.347z"/></g></g><g><g><path fill="#407bff" d="M149.278 305.229v-19.347h19.347v19.347z"/></g><g opacity=".2"><path fill="#fff" d="M150.983 305.229v-19.347h17.642v19.347z"/></g></g><g><g><path fill="#407bff" d="M178.574 305.229v-19.347h19.347v19.347z"/></g><g opacity=".2"><path fill="#fff" d="M180.28 305.229v-19.347h17.64v19.347z"/></g></g><g><g><path fill="#407bff" d="M119.982 333.716v-19.347h19.346v19.347z"/></g><g opacity=".2"><path fill="#fff" d="M121.687 333.716v-19.347h17.641v19.347z"/></g></g><g><g><path fill="#407bff" d="M149.278 333.716v-19.347h19.347v19.347z"/></g><g opacity=".2"><path fill="#fff" d="M150.983 333.716v-19.347h17.642v19.347z"/></g></g><g><g><path fill="#407bff" d="M178.574 333.716v-19.347h19.347v19.347z"/></g><g opacity=".2"><path fill="#fff" d="M180.28 333.716v-19.347h17.64v19.347z"/></g></g><g opacity=".2"><path fill="#fff" d="M110.203 181.987v-1.79h125.892v1.79z"/></g><g opacity=".2"><path fill="#fff" d="M110.203 271.16v-1.789h125.892v1.79z"/></g><g><path fill="#407bff" d="M322.364 349.976v-211.87h87.071v211.87z"/></g><g opacity=".4"><path fill="#fff" d="M322.364 349.976v-211.87H388.6v211.87z"/></g><g><g><path fill="#407bff" d="M328.782 166.768v-11.25h23.175v11.25z"/></g><g opacity=".2"><path fill="#fff" d="M330.326 166.768v-11.25h21.63v11.25z"/></g></g><g><g><path fill="#407bff" d="M355.587 166.768v-11.25h23.175v11.25z"/></g><g opacity=".2"><path fill="#fff" d="M357.13 166.768v-11.25h21.632v11.25z"/></g></g><g><g><path fill="#407bff" d="M328.782 187.945v-11.25h23.175v11.25z"/></g><g opacity=".2"><path fill="#fff" d="M330.326 187.945v-11.25h21.63v11.25z"/></g></g><g><g><path fill="#407bff" d="M355.587 187.945v-11.25h23.175v11.25z"/></g><g opacity=".2"><path fill="#fff" d="M357.13 187.945v-11.25h21.632v11.25z"/></g></g><g><g><path fill="#407bff" d="M328.782 215.008v-11.25h23.175v11.25z"/></g><g opacity=".2"><path fill="#fff" d="M330.326 215.008v-11.25h21.63v11.25z"/></g></g><g><g><path fill="#407bff" d="M355.587 215.008v-11.25h23.175v11.25z"/></g><g opacity=".2"><path fill="#fff" d="M357.13 215.008v-11.25h21.632v11.25z"/></g></g><g><g><path fill="#407bff" d="M328.782 230.56v-11.251h23.175v11.25z"/></g><g opacity=".2"><path fill="#fff" d="M330.326 230.56v-11.251h21.63v11.25z"/></g></g><g><g><path fill="#407bff" d="M355.587 230.56v-11.251h23.175v11.25z"/></g><g opacity=".2"><path fill="#fff" d="M357.13 230.56v-11.251h21.632v11.25z"/></g></g><g><g><path fill="#407bff" d="M328.782 256.105v-11.25h23.175v11.25z"/></g><g opacity=".2"><path fill="#fff" d="M330.326 256.105v-11.25h21.63v11.25z"/></g></g><g><g><path fill="#407bff" d="M355.587 256.105v-11.25h23.175v11.25z"/></g><g opacity=".2"><path fill="#fff" d="M357.13 256.105v-11.25h21.632v11.25z"/></g></g><g><g><path fill="#407bff" d="M328.782 271.656v-11.25h23.175v11.25z"/></g><g opacity=".2"><path fill="#fff" d="M330.326 271.656v-11.25h21.63v11.25z"/></g></g><g><g><path fill="#407bff" d="M355.587 271.656v-11.25h23.175v11.25z"/></g><g opacity=".2"><path fill="#fff" d="M357.13 271.656v-11.25h21.632v11.25z"/></g></g><g><g><path fill="#407bff" d="M328.782 299.458v-11.25h23.175v11.25z"/></g><g opacity=".2"><path fill="#fff" d="M330.326 299.458v-11.25h21.63v11.25z"/></g></g><g><g><path fill="#407bff" d="M355.587 299.458v-11.25h23.175v11.25z"/></g><g opacity=".2"><path fill="#fff" d="M357.13 299.458v-11.25h21.632v11.25z"/></g></g><g><g><path fill="#407bff" d="M328.782 319.995v-11.25h23.175v11.25z"/></g><g opacity=".2"><path fill="#fff" d="M330.326 319.995v-11.25h21.63v11.25z"/></g></g><g><g><path fill="#407bff" d="M355.587 319.995v-11.25h23.175v11.25z"/></g><g opacity=".2"><path fill="#fff" d="M357.13 319.995v-11.25h21.632v11.25z"/></g></g><g><path fill="#407bff" d="M318.263 138.606v-6.767h91.172v6.767z"/></g><g opacity=".2"><path d="M388.601 138.606v-6.767h20.834v6.767z"/></g><g><path fill="#e0e0e0" d="M314.162 244.485v-12.829h8.202v12.83z"/></g><g><path fill="#e0e0e0" d="M314.162 265.48v-12.829h8.202v12.83z"/></g><g><path fill="#e0e0e0" d="M314.162 285.882v-12.829h8.202v12.83z"/></g><g><path fill="#e0e0e0" d="M314.162 307.459v-12.83h8.202v12.83z"/></g><g><path fill="#e0e0e0" d="M314.162 328.448v-12.83h8.202v12.83z"/></g><g><path fill="#407bff" d="M236.092 349.978v-131.21h86.272v131.21z"/></g><g opacity=".3"><path fill="#fff" d="M236.095 349.976V218.764h71.696v131.212z"/></g><g><path fill="#407bff" d="M242.544 244.49v-12.827h58.304v12.827z"/></g><g><path fill="#407bff" d="M242.544 265.479v-12.827h58.304v12.827z"/></g><g><path fill="#407bff" d="M242.544 286.468v-12.826h58.304v12.826z"/></g><g><path fill="#407bff" d="M242.544 307.458V294.63h58.304v12.827z"/></g><g><path fill="#407bff" d="M242.544 328.447V315.62h58.304v12.827z"/></g><g opacity=".1"><g opacity=".1"><path fill="#fff" d="M244.694 244.49v-12.827h56.154v12.827z"/></g><g opacity=".1"><path fill="#fff" d="M244.694 265.479v-12.827h56.154v12.827z"/></g><g opacity=".1"><path fill="#fff" d="M244.694 286.468v-12.826h56.154v12.826z"/></g><g opacity=".1"><path fill="#fff" d="M244.694 307.458V294.63h56.154v12.827z"/></g><g opacity=".1"><path fill="#fff" d="M244.694 328.447V315.62h56.154v12.827z"/></g></g><g><path fill="#407bff" d="M58.485 259.066H.606v90.91h92.358V218.764z"/></g><g><path fill="#407bff" d="M92.964 349.976V218.764h17.239v131.212z"/></g><g opacity=".7"><path fill="#fff" d="M92.964 349.976V218.764h17.239v131.212z"/></g><g opacity=".7"><path fill="#fff" d="M213.206 349.978V108.305h22.89v241.673z"/></g><g opacity=".6"><path fill="#fff" d="M307.79 349.978V218.764h14.574v131.214z"/></g><g opacity=".7"><path fill="#fff" d="M388.601 349.978V138.606h20.834v211.372z"/></g><g opacity=".5"><path fill="#fff" d="M418.358 115.826V102.29h3.275v13.535z"/></g><g opacity=".5"><path fill="#fff" d="M418.358 138.606v-13.535h3.275v13.535z"/></g><g opacity=".5"><path fill="#fff" d="M418.358 162.286V148.75h3.275v13.535z"/></g><g opacity=".5"><path fill="#fff" d="M418.358 185.965V172.43h3.275v13.535z"/></g><g opacity=".5"><path fill="#fff" d="M418.358 209.644v-13.535h3.275v13.535z"/></g><g opacity=".5"><path fill="#fff" d="M418.358 233.323v-13.535h3.275v13.535z"/></g><g opacity=".5"><path fill="#fff" d="M418.358 259.419v-13.535h3.275v13.535z"/></g><g opacity=".5"><path fill="#fff" d="M418.358 285.515V271.98h3.275v13.535z"/></g><g opacity=".5"><path fill="#fff" d="M418.358 311.61v-13.534h3.275v13.535z"/></g><g opacity=".5"><path fill="#fff" d="M418.358 337.707v-13.535h3.275v13.535z"/></g><g><g><path fill="#407bff" d="M447.285 349.978V84.251h102.246v265.727z"/></g><g><path fill="#407bff" d="M409.435 349.978V84.248h102.25v265.73z"/></g><g opacity=".7"><path fill="#fff" d="M511.686 349.978V88.059h37.845v261.919z"/></g><g><g><path fill="#407bff" d="M521.04 115.826v-13.54h28.49v13.54z"/></g><g><path fill="#407bff" d="M521.04 138.106v-13.541h28.49v13.54z"/></g><g><path fill="#407bff" d="M521.04 160.385v-13.54h28.49v13.54z"/></g><g><path fill="#407bff" d="M521.04 185.967v-13.54h28.49v13.54z"/></g><g><path fill="#407bff" d="M521.04 209.646v-13.54h28.49v13.54z"/></g><g><path fill="#407bff" d="M521.04 233.326v-13.541h28.49v13.54z"/></g><g><path fill="#407bff" d="M521.04 259.422V245.88h28.49v13.54z"/></g><g><path fill="#407bff" d="M521.04 285.518v-13.54h28.49v13.54z"/></g><g><path fill="#407bff" d="M521.04 311.614v-13.54h28.49v13.54z"/></g><g><path fill="#407bff" d="M521.04 337.71v-13.54h28.49v13.54z"/></g><g opacity=".3"><path fill="#fff" d="M521.04 115.826v-13.54h28.49v13.54z"/></g><g opacity=".3"><path fill="#fff" d="M521.04 138.106v-13.541h28.49v13.54z"/></g><g opacity=".3"><path fill="#fff" d="M521.04 160.385v-13.54h28.49v13.54z"/></g><g opacity=".3"><path fill="#fff" d="M521.04 185.967v-13.54h28.49v13.54z"/></g><g opacity=".3"><path fill="#fff" d="M521.04 209.646v-13.54h28.49v13.54z"/></g><g opacity=".3"><path fill="#fff" d="M521.04 233.326v-13.541h28.49v13.54z"/></g><g opacity=".3"><path fill="#fff" d="M521.04 259.422V245.88h28.49v13.54z"/></g><g opacity=".3"><path fill="#fff" d="M521.04 285.518v-13.54h28.49v13.54z"/></g><g opacity=".3"><path fill="#fff" d="M521.04 311.614v-13.54h28.49v13.54z"/></g><g opacity=".3"><path fill="#fff" d="M521.04 337.71v-13.54h28.49v13.54z"/></g></g><g opacity=".4"><path fill="#fff" d="M409.435 349.978V84.248h102.25v265.73z"/></g><g><g><path fill="#407bff" d="M418.358 115.826V102.29h84.406v13.535z"/></g><g opacity=".2"><path fill="#fff" d="M421.633 115.826V102.29h81.13v13.535z"/></g></g><g><g><path fill="#407bff" d="M418.358 138.606v-13.535h84.406v13.535z"/></g><g opacity=".2"><path fill="#fff" d="M421.633 138.606v-13.535h81.13v13.535z"/></g></g><g><g><path fill="#407bff" d="M418.358 162.286V148.75h84.406v13.535z"/></g><g opacity=".2"><path fill="#fff" d="M421.633 162.286V148.75h81.13v13.535z"/></g></g><g><g><path fill="#407bff" d="M418.358 185.965V172.43h84.406v13.535z"/></g><g opacity=".2"><path fill="#fff" d="M421.633 185.965V172.43h81.13v13.535z"/></g></g><g><g><path fill="#407bff" d="M418.358 209.644v-13.535h84.406v13.535z"/></g><g opacity=".2"><path fill="#fff" d="M421.633 209.644v-13.535h81.13v13.535z"/></g></g><g><g><path fill="#407bff" d="M418.358 233.323v-13.535h84.406v13.535z"/></g><g opacity=".2"><path fill="#fff" d="M421.633 233.323v-13.535h81.13v13.535z"/></g></g><g><g><path fill="#407bff" d="M418.358 259.419v-13.535h84.406v13.535z"/></g><g opacity=".2"><path fill="#fff" d="M421.633 259.419v-13.535h81.13v13.535z"/></g></g><g><g><path fill="#407bff" d="M418.358 285.515V271.98h84.406v13.535z"/></g><g opacity=".2"><path fill="#fff" d="M421.633 285.515V271.98h81.13v13.535z"/></g></g><g><g><path fill="#407bff" d="M418.358 311.61v-13.534h84.406v13.535z"/></g><g opacity=".2"><path fill="#fff" d="M421.633 311.61v-13.534h81.13v13.535z"/></g></g><g><g><path fill="#407bff" d="M418.358 337.707v-13.535h84.406v13.535z"/></g><g opacity=".2"><path fill="#fff" d="M421.633 337.707v-13.535h81.13v13.535z"/></g></g><g><path fill="#407bff" d="M511.686 81.575V76.36h35.66v5.214z"/></g><g><path fill="#f0f0f0" d="M409.435 81.575V75.09h137.911v6.485z"/></g><g><g><path fill="#407bff" d="M406.543 88.06v-6.485h145.64v6.484z"/></g><g><path fill="#407bff" d="M406.543 76.36v-6.484h145.64v6.485z"/></g><g opacity=".05"><path d="M406.543 88.06v-6.485h145.64v6.484z"/></g><g opacity=".05"><path d="M406.543 76.36v-6.484h145.64v6.485z"/></g></g></g><g opacity=".2"><path fill="#fff" d="M322.364 196.505v-1.935h87.071v1.935z"/></g><g opacity=".2"><path fill="#fff" d="M322.364 238.36v-1.935h87.071v1.936z"/></g><g opacity=".2"><path fill="#fff" d="M322.364 280.586v-1.935h87.071v1.935z"/></g><g opacity=".2"><path d="M213.206 108.305v-4.011h24.37v4.01z"/></g><g opacity=".2"><path d="M213.206 100.285v-4.01h24.37v4.01z"/></g><g opacity=".2"><path d="M511.686 88.06v-6.485h40.497v6.484z"/></g><g opacity=".2"><path d="M511.686 76.36v-6.484h40.497v6.485z"/></g><g opacity=".4"><path fill="#fff" d="M58.485 259.066H.606v90.91h92.358V218.764z"/></g><g><g><path fill="#407bff" d="M8.983 291.242v-13.744h13.744v13.744z"/></g><g><path fill="#407bff" d="M36.947 291.242v-13.744H50.69v13.744z"/></g><g><path fill="#407bff" d="M64.91 291.242v-13.744h13.744v13.744z"/></g><g><path fill="#407bff" d="M8.983 314.37v-13.745h13.744v13.744z"/></g><g><path fill="#407bff" d="M36.947 314.37v-13.745H50.69v13.744z"/></g><g><path fill="#407bff" d="M64.91 314.37v-13.745h13.744v13.744z"/></g><g><path fill="#407bff" d="M8.983 337.497v-13.744h13.744v13.744z"/></g><g><path fill="#407bff" d="M36.947 337.497v-13.744H50.69v13.744z"/></g><g><path fill="#407bff" d="M64.91 337.497v-13.744h13.744v13.744z"/></g><g><g opacity=".2"><path fill="#fff" d="M10.498 291.242v-13.744h13.745v13.744z"/></g><g opacity=".2"><path fill="#fff" d="M38.462 291.242v-13.744h13.744v13.744z"/></g><g opacity=".2"><path fill="#fff" d="M66.425 291.242v-13.744H80.17v13.744z"/></g><g opacity=".2"><path fill="#fff" d="M10.498 314.37v-13.745h13.745v13.744z"/></g><g opacity=".2"><path fill="#fff" d="M38.462 314.37v-13.745h13.744v13.744z"/></g><g opacity=".2"><path fill="#fff" d="M66.425 314.37v-13.745H80.17v13.744z"/></g><g opacity=".2"><path fill="#fff" d="M10.498 337.497v-13.744h13.745v13.744z"/></g><g opacity=".2"><path fill="#fff" d="M38.462 337.497v-13.744h13.744v13.744z"/></g><g opacity=".2"><path fill="#fff" d="M66.425 337.497v-13.744H80.17v13.744z"/></g></g></g></g></g><g><g><g><g><path fill="#407bff" d="M268.9 360.515l-7.969 40.374h26.717l-2.708-40.374z"/></g><g><path fill="#407bff" d="M293.857 360.515l11.445 40.374h17.894l-14.67-40.374z"/></g><g><path fill="#407bff" d="M318.599 360.515l23.541 40.374h20.317l-30.603-40.374z"/></g><g><path fill="#407bff" d="M342.487 360.515L381.5 400.89h24.297l-48.75-40.374z"/></g><g><path fill="#407bff" d="M258.932 360.515l-11.445 40.374h-17.894l14.67-40.374z"/></g><g><path fill="#407bff" d="M234.19 360.515L210.65 400.89h-20.316l30.602-40.374z"/></g><g><path fill="#407bff" d="M210.302 360.515L171.29 400.89h-24.297l48.75-40.374z"/></g><g opacity=".4"><path fill="#fff" d="M268.9 360.515l-7.969 40.374h26.717l-2.708-40.374z"/></g><g opacity=".4"><path fill="#fff" d="M293.857 360.515l11.445 40.374h17.894l-14.67-40.374z"/></g><g opacity=".4"><path fill="#fff" d="M318.599 360.515l23.541 40.374h20.317l-30.603-40.374z"/></g><g opacity=".4"><path fill="#fff" d="M342.487 360.515L381.5 400.89h24.297l-48.75-40.374z"/></g><g opacity=".4"><path fill="#fff" d="M258.932 360.515l-11.445 40.374h-17.894l14.67-40.374z"/></g><g opacity=".4"><path fill="#fff" d="M234.19 360.515L210.65 400.89h-20.316l30.602-40.374z"/></g><g opacity=".4"><path fill="#fff" d="M210.302 360.515L171.29 400.89h-24.297l48.75-40.374z"/></g></g><g><g><g><g><path fill="#407bff" d="M86.543 345.314c9.322-.336 18.424-4.747 24.463-11.856 6.039-7.109 8.922-16.805 7.746-26.058-.84-6.618-3.613-12.811-5.57-19.19-3.706-12.072-4.88-25.685-13.379-35.027-5.215-5.733-12.902-9.136-20.652-9.143-7.75-.005-15.442 3.386-20.667 9.11-5.504 6.033-8.11 14.201-9.247 22.289-1.136 8.086-.961 16.3-1.721 24.432-.632 6.756-1.91 13.489-1.64 20.268.27 6.78 2.317 13.827 7.285 18.448 2.451 2.28 5.47 3.845 8.47 5.328 3.002 1.485 6.092 2.937 9.412 3.382 3.319.445 6.955-.262 9.343-2.61 1.48.538 4.583.684 6.157.627z"/></g><g opacity=".7"><path fill="#fff" d="M86.543 345.314c9.322-.336 18.424-4.747 24.463-11.856 6.039-7.109 8.922-16.805 7.746-26.058-.84-6.618-3.613-12.811-5.57-19.19-3.706-12.072-4.88-25.685-13.379-35.027-5.215-5.733-12.902-9.136-20.652-9.143-7.75-.005-15.442 3.386-20.667 9.11-5.504 6.033-8.11 14.201-9.247 22.289-1.136 8.086-.961 16.3-1.721 24.432-.632 6.756-1.91 13.489-1.64 20.268.27 6.78 2.317 13.827 7.285 18.448 2.451 2.28 5.47 3.845 8.47 5.328 3.002 1.485 6.092 2.937 9.412 3.382 3.319.445 6.955-.262 9.343-2.61 1.48.538 4.583.684 6.157.627z"/></g></g><g><g><path fill="#407bff" d="M71 369.958v-1.685l2.805-2.385s3.366-34.361 3.928-44.255c.56-9.895 1.262-25.608-2.385-36.972 0 0 4.77 10.65 6.874 24.195 0 0 4.349-15.637 12.065-25.597 0 0-9.4 24.027-8.137 46.384 1.262 22.357 4.77 37.789 4.77 37.789l1.684 1.122.14 1.404z"/></g><g><path fill="#407bff" d="M79.576 314.819s-2.43-10.832-9.014-16.204c0 0 5.505 7.576 7.311 20.449 1.805 12.872 3.73 4.669 3.73 4.669z"/></g><g><path fill="#407bff" d="M76.707 344.119s-.892-3.917-4.91-6.373c0 0 2.513 2.44 3.711 10.26 1.2 7.82 4.101 3.468 4.101 3.468l.223-4.303z"/></g><g opacity=".2"><path d="M75.508 348.006c-1.198-7.82-3.712-10.26-3.712-10.26a11.318 11.318 0 0 1 4.232 4.616c.757-8.32 1.472-16.628 1.705-20.73.046-.815.093-1.684.139-2.573-1.807-12.87-7.31-20.444-7.31-20.444 3.828 3.122 6.25 8.087 7.607 11.7.112-8.465-.375-18.034-2.82-25.654 0 0 4.769 10.65 6.873 24.195 0 0 4.349-15.637 12.065-25.597 0 0-9.4 24.027-8.137 46.384 1.262 22.357 4.77 37.789 4.77 37.789l1.684 1.122.14 1.404H70.999v-1.685l2.806-2.385s.811-8.282 1.703-17.882z"/></g></g></g><g><g><g><path fill="#407bff" d="M461 350.75c-10.523-.378-20.799-5.359-27.616-13.383-6.818-8.025-10.071-18.97-8.745-29.416.948-7.473 4.078-14.463 6.288-21.664 4.184-13.629 5.511-28.994 15.104-39.541 5.887-6.472 14.565-10.314 23.313-10.32 8.749-.008 17.434 3.821 23.33 10.283 6.215 6.81 9.156 16.031 10.44 25.16 1.283 9.13 1.084 18.402 1.943 27.582.712 7.626 2.156 15.227 1.851 22.88-.305 7.654-2.615 15.61-8.224 20.826-2.767 2.575-6.174 4.34-9.562 6.015-3.389 1.676-6.877 3.315-10.624 3.817-3.747.502-7.85-.296-10.547-2.945-1.672.606-5.175.77-6.951.707z"/></g><g opacity=".7"><path fill="#fff" d="M461 350.75c-10.523-.378-20.799-5.359-27.616-13.383-6.818-8.025-10.071-18.97-8.745-29.416.948-7.473 4.078-14.463 6.288-21.664 4.184-13.629 5.511-28.994 15.104-39.541 5.887-6.472 14.565-10.314 23.313-10.32 8.749-.008 17.434 3.821 23.33 10.283 6.215 6.81 9.156 16.031 10.44 25.16 1.283 9.13 1.084 18.402 1.943 27.582.712 7.626 2.156 15.227 1.851 22.88-.305 7.654-2.615 15.61-8.224 20.826-2.767 2.575-6.174 4.34-9.562 6.015-3.389 1.676-6.877 3.315-10.624 3.817-3.747.502-7.85-.296-10.547-2.945-1.672.606-5.175.77-6.951.707z"/></g></g><g><g><path fill="#407bff" d="M478.547 378.57v-1.9l-3.167-2.693s-3.8-38.79-4.435-49.96c-.633-11.17-1.425-28.907 2.692-41.735 0 0-5.383 12.023-7.76 27.312 0 0-4.909-17.652-13.62-28.896 0 0 10.612 27.123 9.187 52.362-1.427 25.24-5.385 42.66-5.385 42.66l-1.9 1.266-.16 1.584z"/></g><g><path fill="#407bff" d="M468.864 316.327s2.744-12.23 10.176-18.295c0 0-6.214 8.555-8.252 23.086-2.039 14.532-4.211 5.27-4.211 5.27z"/></g><g><path fill="#407bff" d="M472.103 349.402s1.008-4.423 5.544-7.194c0 0-2.838 2.755-4.191 11.582-1.353 8.828-4.63 3.914-4.63 3.914l-.25-4.857z"/></g><g opacity=".2"><path d="M473.457 353.79c1.352-8.827 4.19-11.582 4.19-11.582a12.774 12.774 0 0 0-4.778 5.21c-.854-9.392-1.661-18.77-1.924-23.402-.052-.92-.104-1.9-.157-2.904 2.04-14.528 8.252-23.08 8.252-23.08-4.32 3.525-7.054 9.132-8.587 13.21-.126-9.556.423-20.36 3.184-28.96 0 0-5.383 12.023-7.76 27.312 0 0-4.909-17.652-13.62-28.896 0 0 10.612 27.123 9.187 52.362-1.427 25.24-5.385 42.66-5.385 42.66l-1.9 1.266-.16 1.584h24.548v-1.9l-3.167-2.693s-.916-9.35-1.923-20.187z"/></g></g></g></g></g><g><g><g><g><path fill="#ffb570" d="M368.554 276.813c-4.139 5.578-5.736 8.136-7.34 9.72-1.741 1.72-19.58.408-21.736-.496-1.653-.694-.512-2.834.267-2.727 2.936.407 13.974-1.525 17.246-2.954.573-.252 6.168-7.045 6.168-7.045z"/></g></g><g><g><g><path fill="#407bff" d="M361.76 273.131c3.5-6.412 10.388-11.118 12.472-11.382 3-.39 4.01.203 3.13 2.618-1.493 4.095-4.241 8.411-8.112 13.63z"/></g></g><g opacity=".1"><g opacity=".1"><path d="M361.76 273.131c3.5-6.412 10.388-11.118 12.472-11.382 3-.39 4.01.203 3.13 2.618-1.493 4.095-4.241 8.411-8.112 13.63z"/></g></g></g></g><g><path fill="#407bff" d="M374.232 261.749c1.718-.618 2.437-.846 5.157-1.55a67.796 67.796 0 0 1 9.7-1.6c2.068-.233 4.104-.304 5.73-.316.192 0 .387.02.576.063 1.467.329 2.416 1.84 2.12 3.374-3.212 16.967-3.366 24.494-2.903 33.232l-19.531.698c-.5.018-.937-.356-1.039-.876-.863-4.406-3.57-14.19-3.57-14.19-2.438-2.34-2.842-5.238-3.085-6.915-.133-.918 1.915-1.905 4.132-6.758 0 0 1.708-4.795 2.713-5.162z"/></g><g><path fill="#263238" d="M386.577 295.236l-7.122.259c-1.063-8.452-.86-15.941-.492-24.358 2.29 8.452 4.46 15.832 7.614 24.099z"/></g><g><g><g><g><g><path fill="#ffb570" d="M388.639 360.338c-.177-.39-.356-.797-.528-1.211-7.68-18.354-13.555-55.45-13.555-55.45l13.701-6.986s3.9 32.61 9.236 53.828c.82 3.234 1.657 6.192 2.526 8.72l-9.348 4.296z"/></g></g></g><g opacity=".8"><g opacity=".8"><g opacity=".8"><path fill="#263238" d="M388.639 360.338c-.177-.39-.356-.797-.528-1.211-7.68-18.354-13.555-55.45-13.555-55.45l13.701-6.986s3.9 32.61 9.236 53.828c.82 3.234 1.657 6.192 2.526 8.72l-9.348 4.296z"/></g></g></g></g><g><g><path fill="#ffb570" d="M375.574 298.862s-6.263 43.866-4.78 61.813c1.565 18.906 7.155 51.284 7.155 51.284l4.62-.314s2.762-24.37-1.142-50.703c10.58-27.235 11.766-61.384 11.766-61.384z"/></g><g opacity=".8"><path fill="#263238" d="M375.574 298.862s-6.263 43.866-4.78 61.813c1.565 18.906 7.155 51.284 7.155 51.284l4.62-.314s2.762-24.37-1.142-50.703c10.58-27.235 11.766-61.384 11.766-61.384z"/></g></g><g><path fill="#263238" d="M383.162 413.088c.323.607.502 1.288.521 1.985.122 2.536.3 9.281.3 9.281l-.558.038s-.34-3.306-.72-4.961c-.382-1.654-.637-.23-1.485 1.576-.85 1.809-3.224 3.662-6.842 4.002-4.245.396-5.976.314-4.807-.871 1.167-1.185 3.939-2.086 3.939-2.086s3.691-6.326 3.479-10.585c-.231-4.548 5.02-.277 6.04-.914.357.055-.07 2.165.133 2.535z"/></g><g><g><path fill="#263238" d="M397.805 352.118c-2.69.584-5.07 2.557-12.132 3.268-.14.01-.279.025-.424.035-.296.033-.606.054-.928.07-1.898.103-12.734-.404-14.747-1.581 1.749-18.05 5.189-56.396 5.189-56.396l8.28-1.007 10.674-.326s11.773 12.162 9.067 23.193c-4.05 16.508-2.023 19.072-4.979 32.744z"/></g></g></g><g><path fill="#ffb570" d="M394.513 286.289c-.56-.655-.936-1.353-.802-2.186 0 0-.02-1.212-.042-3.06-.062-5.404-.107-16.172.457-17.597 1.231-3.088 3.337-4.761 4.44-2.957 1.291 2.108 1.385 18.105 1.385 18.105-.302 10.578-4.176 9.172-5.438 7.695z"/></g><g><g><path fill="#407bff" d="M391.95 257.973l-.646 1.167c-2.494 4.527-8.268 10.348-10.527 10.921a8.35 8.35 0 0 0-2.36-3.145 4.933 4.933 0 0 0-2.524 2.97c-1.935-3.144-1.764-7.113-1.275-9.08a71.119 71.119 0 0 1 3.507-.98 70.359 70.359 0 0 1 9.704-1.56 33.367 33.367 0 0 1 4.121-.293z"/></g><g opacity=".8"><path fill="#fff" d="M391.95 257.973l-.646 1.167c-2.494 4.527-8.268 10.348-10.527 10.921-.527-1.225-1.069-3.34-1.069-3.34-1.208.597-2.095 2.3-2.498 3.6-1.937-3.143-3.081-7.548-2.592-9.514a71.119 71.119 0 0 1 3.507-.982 70.359 70.359 0 0 1 9.704-1.558 33.367 33.367 0 0 1 4.121-.294z"/></g></g><g><g><g><path fill="#ffb570" d="M377.09 279.993l-2.673-3.628-2.392 4.74s2.444 1.366 4.473.907z"/></g><g><path fill="#ffb570" d="M370.171 275.243l-1.139 3.834 2.988 2.005 2.397-4.717z"/></g></g></g><g><g><path fill="#407bff" d="M394.595 297.198l-9.892.266-.83.02-2.136.054-.823.025-5.804.153c-.18-.02-.34-.088-.347-.202l-.229-1.863c-.02-.127.14-.241.342-.249l5.742-.227.69-.028 2.835-.108.672-.028 9.525-.375c.13-.016.26.036.344.147l.236 2.113c.076.141-.092.294-.325.302z"/></g><g opacity=".2"><path fill="#fff" d="M394.595 297.198l-9.892.266-.83.02-2.136.054-.823.025-5.804.153c-.18-.02-.34-.088-.347-.202l-.229-1.863c-.02-.127.14-.241.342-.249l5.742-.227.69-.028 2.835-.108.672-.028 9.525-.375c.13-.016.26.036.344.147l.236 2.113c.076.141-.092.294-.325.302z"/></g></g><g><g><path fill="#263238" d="M377.846 297.89l.634-.01c.13.014.221-.075.216-.16l-.355-2.638c.008-.076-.123-.148-.254-.148l-.634.017c-.13-.013-.221.075-.215.154l.353 2.645c.04.082.122.146.255.14z"/></g><g><path fill="#263238" d="M388.867 297.73l.603-.015c.122.012.208-.072.203-.145l-.354-2.652c.006-.073-.124-.14-.242-.132l-.601.015c-.124-.013-.209.065-.204.145l.355 2.639c.012.088.117.145.24.145z"/></g></g><g><g><g><path fill="#407bff" d="M392.147 309.126l-1.525-.546 6.852-20.495c1.09-3.258.675-6.363-3.363-7.789-3.777-1.335-6.749.568-7.848 3.818l-6.921 20.432-1.52-.544 6.93-20.424c1.28-3.775 3.742-6.338 9.682-4.24 5.95 2.1 5.821 5.494 4.556 9.283z"/></g></g><g><path fill="#407bff" d="M396.017 321.768l-30.007-10.783 6.807-19.872c.667-1.948 2.753-2.975 4.66-2.297l21.872 7.773c2.47.878 3.798 3.635 2.962 6.16z"/></g><g opacity=".4"><path fill="#fff" d="M392.691 320.574l-23.382-8.403c-1.823-.655-2.779-2.704-2.138-4.575l5.646-16.483c.667-1.948 2.753-2.975 4.66-2.297l21.872 7.774c2.47.877 3.798 3.634 2.962 6.159l-5.163 15.602c-.625 1.886-2.62 2.883-4.457 2.223z"/></g><g opacity=".3"><g opacity=".3"><path fill="#fff" d="M392.147 309.126l-1.206 1.054-.32-1.6 6.853-20.495c1.09-3.258.675-6.363-3.363-7.789-3.777-1.335-6.749.568-7.848 3.818l-6.921 20.432-1.245 1.038-.275-1.582 6.93-20.424c1.28-3.775 3.742-6.338 9.682-4.24 5.95 2.1 5.821 5.494 4.556 9.283z"/></g></g><g><path fill="#407bff" d="M382.448 296.79l-2.503-.892.322-.947 2.502.892z"/></g><g><path fill="#407bff" d="M380.369 302.933l-2.508-.896.323-.951 2.507.895z"/></g><g><path fill="#407bff" d="M395.31 301.374l-2.512-.896.317-.95 2.513.895z"/></g><g><path fill="#407bff" d="M393.255 307.538l-2.518-.9.32-.954 2.516.899z"/></g><g><path fill="#fff" d="M390.345 300.21l-5.374-1.916.685-2.027 5.37 1.912z"/></g></g><g><path fill="#ffb570" d="M396.824 287.24c-2.404 1.383-12.15-.181-20.392-5.139-.389-.232-.793-.2-.919-.296-.511-.38.793-1.246 1.564-1.645.422-.22 18.612 2.078 19.865 2.254 1.399 3.706.116 3.66-.118 4.825z"/></g><g><g><path fill="#ffb570" d="M389.06 361.826c1.329 3.776 5.768 5.438 8.871 3.095.129-.097.25-.198.366-.305 13.465-12.467 30.595-30.638 30.595-30.638l-2.885-3.659s-13.591 7.464-28.514 20.2a173.311 173.311 0 0 0-9.382 8.608l.001.007z"/></g><g opacity=".8"><path fill="#263238" d="M389.06 361.826c1.329 3.776 5.768 5.438 8.871 3.095.129-.097.25-.198.366-.305 13.465-12.467 30.595-30.638 30.595-30.638l-2.885-3.659s-13.591 7.464-28.514 20.2a173.311 173.311 0 0 0-9.382 8.608l.001.007z"/></g></g><g><path fill="#263238" d="M424.264 330.763a3.94 3.94 0 0 1 .982-1.636c1.616-1.682 5.985-6.023 5.985-6.023l.397.39s-1.97 2.311-2.82 3.63c-.849 1.319.272.617 2.038.119 1.766-.498 4.575.107 7.212 2.586 3.097 2.914 4.201 4.258 2.636 4.132-1.564-.125-4.014-1.628-4.014-1.628s-6.677 1.228-9.387 4.083c-2.905 3.068-3.537-3.592-4.644-3.953-.2-.303 1.502-1.315 1.615-1.7z"/></g><g><g><g><g><path fill="#ffb570" d="M378.039 257.416c1.45 1.723 2.573 3.806.644 6.351-.406.538-.66 1.197-.629 1.875.048 1.086.741 2.1 4.094-.222 4.848-3.354 4.188-6.717 4.188-6.717-2.71-.63-4.68-6.133-5.512-9.29z"/></g><g opacity=".2"><path d="M380.87 254.237c.483 1.34-.806 3.618-1.838 4.559a9.213 9.213 0 0 0-.988-1.383l1.65-4.738c.493.433.894.966 1.176 1.562z"/></g><g><path fill="#263238" d="M366.47 242.725c-1.292 5.022.635 10.537 4.186 14.323 3.586-3.932 10.363-3.105 14.134-6.833 2.523-2.494 2.987-6.684 1.427-9.869-1.683-3.435-6.639-6.743-10.545-6.201-4.385.608-8.114 4.346-9.203 8.58z"/></g><g><path fill="#ffb570" d="M381.409 241.014a7.044 7.044 0 0 0-9.8-1.854c-4.552 3.068-3.703 10.76-1.675 15.119 2.234 4.87 8.75 5.066 11.794.294 2.038-3.176 1.604-5.35.85-10.507a7.096 7.096 0 0 0-1.169-3.052z"/></g><g><path fill="#ff8935" d="M372.51 251.791a1.823 1.823 0 0 1-1.533.032c.445-.942.757-1.94.928-2.965z"/></g><g><path fill="#263238" d="M376.458 251.344a.126.126 0 0 0-.07-.163.126.126 0 0 0-.163.07 3.321 3.321 0 0 1-2.403 1.85.128.128 0 0 0-.093.147l.002.006a.117.117 0 0 0 .138.09 3.526 3.526 0 0 0 2.588-2z"/></g></g><g><g><path fill="#263238" d="M372.801 236.816a5.266 5.266 0 0 0-.764 2.15c6.012 1.39 10.447 7.683 12.148 13.677 1.629-2.137 4.817-4.753 6.05-7.325 1.383-2.884-.46-6.188-3.231-7.776-1.898-1.086-5.525-2.333-7.618-3.01-2.456-.792-5.226.083-6.585 2.284z"/></g></g><g><path fill="#ffb570" d="M384.844 247.174a1.705 1.705 0 0 0-2.006-1.337c-1.269.282-1.733 2.058-1.657 3.193.103 1.257 1.082 2.124 2.162 1.341a3.83 3.83 0 0 0 1.497-2.494c.05-.231.05-.472.004-.703z"/></g></g><g><g><path fill="#263238" d="M374.94 246.663c.136.502-.023.983-.356 1.075-.332.093-.702-.246-.833-.757-.13-.513.024-.984.35-1.073.326-.09.703.246.84.755z"/></g><g><path fill="#263238" d="M370.353 248.308c.133.503-.025.985-.352 1.074-.327.09-.702-.247-.84-.756-.135-.509.028-.984.354-1.073.326-.09.708.243.838.755z"/></g><g><path fill="#263238" d="M369.667 247.541l-1.3-.023"/></g><g><path fill="#263238" d="M375.906 244.384a.308.308 0 0 0 .098-.088.256.256 0 0 0-.075-.354l-.004-.002a2.957 2.957 0 0 0-2.72-.324.264.264 0 0 0-.125.338.253.253 0 0 0 .33.128 2.482 2.482 0 0 1 2.247.29c.075.047.169.05.249.012z"/></g><g><path fill="#263238" d="M368.17 247.138a.278.278 0 0 0 .078-.106c.28-.75.9-1.32 1.666-1.535a.254.254 0 0 0 .205-.296l-.001-.004a.26.26 0 0 0-.304-.2 3.016 3.016 0 0 0-2.042 1.846.254.254 0 0 0 .398.295z"/></g><g><path fill="#263238" d="M374.253 245.896l-1.3-.023"/></g></g><g><path fill="#263238" d="M367.467 249.983c.59 3.158 3.156 7.524 5.89 9.199-1.842 1.397-5.14-.183-7.08-1.42-1.938-1.236-3.133-3.45-3.47-5.734-.337-2.281.11-4.621.909-6.781 1.316-3.556 3.819-6.383 6.763-8.745.591-.474 1.593-.854 1.977-.205.264.446-.038 1.006-.333 1.434-2.844 4.14-5.075 7.029-4.656 12.252z"/></g><g><g><path fill="#263238" d="M381.754 255.761a.193.193 0 0 1-.187-.239c2.053-8.307-6.852-14.647-9.631-16.392a.193.193 0 0 1-.061-.266.194.194 0 0 1 .265-.061c2.834 1.78 11.916 8.253 9.8 16.812a.191.191 0 0 1-.186.146z"/></g></g><g><path fill="#407bff" d="M383.314 249.742l-.17 2.936.783.644.384-.901z"/></g></g><g><g><g><path fill="#407bff" d="M396.277 258.55c-1.248-.299-2.59.04-3.475.97-.974 1.025-1.585 2.458-1.769 3.891-.283 2.219.273 4.46.878 6.624.605 2.166 1.272 4.368 1.211 6.623 2.358-1.292 5.782-3.864 9.077-4.188-.455-5.245-1.062-8.736-2.08-10.472-.585-.997-1.189-2.016-2.083-2.738-.4-.322-1.101-.552-1.759-.71z"/></g></g><g opacity=".1"><g opacity=".1"><path fill="#fff" d="M396.277 258.55c-1.248-.299-2.59.04-3.475.97-.974 1.025-1.585 2.458-1.769 3.891-.283 2.219.273 4.46.878 6.624.605 2.166 1.272 4.368 1.211 6.623 2.358-1.292 5.782-3.864 9.077-4.188-.455-5.245-1.062-8.736-2.08-10.472-.585-.997-1.189-2.016-2.083-2.738-.4-.322-1.101-.552-1.759-.71z"/></g></g></g><g><g><path fill="#ffb570" d="M340.193 283.258s-5.81.961-5.886 1.223c-.074.263-.048 3.533-.048 3.533l5.22-1.977z"/></g><g><path fill="#ffb570" d="M334.26 288.013l-4.91-4.626 2.194-.636 3.64 1.975z"/></g></g></g><g><g><g><path fill="#ff978d" d="M186.025 405.378l5.486-.3.483 12.995-5.486.3z"/></g><g><path fill="#263238" d="M193.347 416.9c1.702 1.057 4.174 1.98 8.679 2.433.995.101 1.326 2.388-.995 2.637-2.32.25-6.36.617-8.033.8-2.73.295-3.748.537-5.905.807a.98.98 0 0 1-1.072-.874l-.234-4.94a.4.4 0 0 1 .366-.425l6.205-.678c.347-.029.694.055.99.24z"/></g><g opacity=".2"><path d="M186.27 412.08l5.493-.298-.254-6.697-5.485.3z"/></g><g><path fill="#407bff" d="M193.858 417.516c.587-.442 1.463-1.042 1.84-.933.08.022.142.084.161.164a.449.449 0 0 1-.04.472c-.23.292-.951.401-1.963.311zm2.155-.155a.71.71 0 0 0 .085-.708.48.48 0 0 0-.346-.328c-.7-.192-2.146 1.042-2.308 1.19a.136.136 0 0 0-.028.132c.016.05.058.088.11.097.495.066.995.077 1.49.031.373-.009.727-.157.997-.414z"/></g><g><path fill="#407bff" d="M194.106 415.417c.19-.004.28.088.264.158a2.592 2.592 0 0 1-.761 1.778 2.928 2.928 0 0 1 .17-1.795.368.368 0 0 1 .269-.138zm-.486 2.296c.52-.391 1.21-1.633 1.022-2.22a.498.498 0 0 0-.51-.339.653.653 0 0 0-.53.237c-.496.6-.17 2.18-.184 2.242a.13.13 0 0 0 .075.097l.063.012z"/></g><g><path fill="#ff978d" d="M142.66 399.613l5.44 1.151-3.965 12.309-5.433-1.15z"/></g><g><path fill="#263238" d="M145.61 413.08c1.275 1.526 3.907 3.406 8.048 5.236.923.413.515 2.682-1.766 2.199-2.282-.483-6.795-1.621-8.45-1.97-2.685-.57-3.727-.659-5.858-1.067a.98.98 0 0 1-.747-1.168l1.314-4.773a.398.398 0 0 1 .482-.283l6.107 1.293c.34.077.646.264.87.532z"/></g><g opacity=".2"><path d="M140.618 405.961l5.433 1.15 2.047-6.34-5.44-1.151z"/></g><g><g><path fill="#407bff" d="M177.202 284.402s5.792 50.083 6.233 68.803c.405 17.246.117 55.414.117 55.414l9.982-.467s4.162-35.462 5.356-52.841c1.093-15.91-2.315-66.808-2.315-66.808z"/></g><g opacity=".2"><path d="M179.58 304.165c.898 10.362 2.111 23.694 3.22 34.846 2.288-6.453 3.694-22.688.954-32.643-1.655-6.055-3.159-4.722-4.173-2.203z"/></g><g><path fill="#263238" d="M181.917 406.623l12.905-.982-.593 4.242-10.86.9z"/></g><g><path fill="#407bff" d="M165.878 286.343s-9.343 46.092-12.572 64.536c-2.972 16.995-14.645 53.034-14.645 53.034l9.954 2.106s16.5-36.454 21.073-53.285c4.177-15.373 14.637-62.485 14.637-62.485z"/></g><g><path fill="#263238" d="M138.417 400.532l13.377 2.214-1.398 3.65-12.138-2.57z"/></g></g><g><path fill="#407bff" d="M145.448 413.293c.71-.272 1.713-.539 2.006-.31a.24.24 0 0 1 .1.21.47.47 0 0 1-.185.433c-.311.196-1.034.073-1.96-.32zm2.062.56a.713.713 0 0 0 .3-.664.486.486 0 0 0-.216-.424c-.606-.396-2.372.327-2.572.408a.161.161 0 0 0-.076.122c0 .051.03.097.076.117.45.218.92.386 1.406.503.356.109.74.087 1.082-.063z"/></g><g><path fill="#407bff" d="M146.348 411.375c.182.068.22.164.204.24 0 .407-.725 1.154-1.282 1.45.059-.612.31-1.19.721-1.65a.392.392 0 0 1 .301-.052zm-1.202 2.043c.596-.209 1.656-1.169 1.657-1.794a.496.496 0 0 0-.377-.48.645.645 0 0 0-.574.068c-.662.412-.859 1.998-.874 2.068a.116.116 0 0 0 .042.11c.019.011.04.016.062.014.02.011.042.015.064.014z"/></g></g><g><g><g><g><g><path fill="#407bff" d="M147.641 296.626c1.3-1.294 1.486-2.71 2.29-4.211.549-1.024-.716-.624.547-.49.453.047.934.312 1.35.472 1.096.418 2.153.942 3.259 1.335.948.338 2.65.182 3.454.652 1.312.768.052 4.16-.218 5.253-.328 1.324 1.694 2.015 2.024.679.47-1.909 1.69-5.316.217-7.108-.912-1.111-2.32-.889-3.587-1.136-2.389-.467-4.838-2.648-7.35-2.39-.855.09-1.348.466-1.7 1.24-.4.877-.164 1.854-.686 2.777-.27.475-.618.934-1.006 1.32-.97.967.431 2.577 1.406 1.607z"/></g></g><g opacity=".3"><g opacity=".3"><path d="M147.641 296.626c1.3-1.294 1.486-2.71 2.29-4.211.549-1.024-.716-.624.547-.49.453.047.934.312 1.35.472 1.096.418 2.153.942 3.259 1.335.948.338 2.65.182 3.454.652 1.312.768.052 4.16-.218 5.253-.328 1.324 1.694 2.015 2.024.679.47-1.909 1.69-5.316.217-7.108-.912-1.111-2.32-.889-3.587-1.136-2.389-.467-4.838-2.648-7.35-2.39-.855.09-1.348.466-1.7 1.24-.4.877-.164 1.854-.686 2.777-.27.475-.618.934-1.006 1.32-.97.967.431 2.577 1.406 1.607z"/></g></g></g></g><g><g transform="rotate(18.525 147.5 310.5)"><path fill="#407bff" d="M128.418 325.41a3.381 3.381 0 0 1-3.381-3.382V298.86c0-1.084.879-1.963 1.962-1.963h41.644c1.083 0 1.962.879 1.962 1.963v23.168a3.381 3.381 0 0 1-3.381 3.381z"/></g><g opacity=".3" transform="rotate(18.525 147.5 310.5)"><path fill="#fff" d="M128.418 325.41a3.381 3.381 0 0 1-3.381-3.382V298.86c0-1.084.879-1.963 1.962-1.963h41.644c1.083 0 1.962.879 1.962 1.963v23.168a3.381 3.381 0 0 1-3.381 3.381z"/></g><g><g><g transform="rotate(-70.715 147.5 316)"><path fill="#407bff" d="M138.322 316.235v-.77h18.332v.77z"/></g><g opacity=".3"><g opacity=".3" transform="rotate(-70.715 147.5 316)"><path d="M138.322 316.235v-.77h18.332v.77z"/></g></g></g></g><g opacity=".2"><path d="M170.911 306.59l-38.832-13.012a2.305 2.305 0 0 0-2.92 1.454l-.27.802a6.498 6.498 0 0 0 4.096 8.225l30.887 10.35a6.498 6.498 0 0 0 8.225-4.096l.268-.803a2.306 2.306 0 0 0-1.454-2.92z"/></g><g><path fill="#407bff" d="M171.767 304.142l-38.833-13.012a2.307 2.307 0 0 0-2.92 1.454l-.27.803a6.498 6.498 0 0 0 4.098 8.225l30.886 10.35a6.498 6.498 0 0 0 8.225-4.097l.268-.803a2.307 2.307 0 0 0-1.454-2.92z"/></g><g><g><path fill="#407bff" d="M171.767 304.142l-38.833-13.012a2.307 2.307 0 0 0-2.92 1.454l-.27.803a6.498 6.498 0 0 0 4.098 8.225l30.886 10.35a6.498 6.498 0 0 0 8.225-4.097l.268-.803a2.307 2.307 0 0 0-1.454-2.92z"/></g><g opacity=".5"><path fill="#fff" d="M171.767 304.142l-38.833-13.012a2.307 2.307 0 0 0-2.92 1.454l-.27.803a6.498 6.498 0 0 0 4.098 8.225l30.886 10.35a6.498 6.498 0 0 0 8.225-4.097l.268-.803a2.307 2.307 0 0 0-1.454-2.92z"/></g></g><g transform="rotate(18.524 138.5 304)"><path fill="#407bff" d="M137.637 308.524a1.18 1.18 0 0 1-1.18-1.18v-6.8c0-.653.528-1.18 1.18-1.18h1.998c.652 0 1.18.528 1.18 1.18v6.8a1.18 1.18 0 0 1-1.18 1.18z"/></g><g transform="rotate(18.514 159.5 311)"><path fill="#407bff" d="M158.55 315.532a1.18 1.18 0 0 1-1.18-1.18v-6.8c0-.652.53-1.18 1.181-1.18h1.998c.651 0 1.18.527 1.18 1.179v6.8a1.18 1.18 0 0 1-1.18 1.18z"/></g><g transform="rotate(18.524 138.5 304)"><path fill="#fff" d="M137.637 308.524a1.18 1.18 0 0 1-1.18-1.18v-6.8c0-.653.528-1.18 1.18-1.18h1.998c.652 0 1.18.528 1.18 1.18v6.8a1.18 1.18 0 0 1-1.18 1.18z"/></g><g transform="rotate(18.514 159.5 311)"><path fill="#fff" d="M158.55 315.532a1.18 1.18 0 0 1-1.18-1.18v-6.8c0-.652.53-1.18 1.181-1.18h1.998c.651 0 1.18.527 1.18 1.179v6.8a1.18 1.18 0 0 1-1.18 1.18z"/></g></g></g><g><g><g><path fill="#263238" d="M203.612 246.931c.345.684.782 1.5 1.184 2.252.402.752.85 1.521 1.285 2.274.882 1.499 1.782 2.98 2.74 4.383a44.434 44.434 0 0 0 2.99 3.918 13.209 13.209 0 0 0 3.017 2.704l.157.096c.048.01 0 0 .034.008l.034.006.19.041a3.01 3.01 0 0 0 1.24-.291 14.928 14.928 0 0 0 3.63-2.432 37.171 37.171 0 0 0 3.628-3.531c.584-.644 1.173-1.284 1.733-1.954.56-.669 1.136-1.377 1.636-1.995l.097-.122a2.992 2.992 0 0 1 4.971 3.33 48.24 48.24 0 0 1-6.93 9.638 22.093 22.093 0 0 1-5.218 4.14 11.29 11.29 0 0 1-4.008 1.337 8.594 8.594 0 0 1-3.862-.428c-.21-.044-.447-.165-.609-.242l-.459-.21a20.972 20.972 0 0 1-5.564-4.188 40.773 40.773 0 0 1-3.98-4.66 67.578 67.578 0 0 1-3.313-4.866 38.411 38.411 0 0 1-1.492-2.502c-.477-.867-.932-1.665-1.417-2.626a4.639 4.639 0 0 1 8.275-4.196z"/></g><g><path fill="#ff978d" d="M229.68 254.72l4.362 1.584-.305-5.095s-4.535-1.607-5.138.806l-.002 1.113a1.68 1.68 0 0 0 1.082 1.592z"/></g><g><path fill="#ff978d" d="M238.527 255.096l.921-4.353-5.711.465.305 5.096z"/></g></g><g><g opacity=".3"><path d="M204.906 264.786a54.772 54.772 0 0 1-1.48-1.767 48.602 48.602 0 0 1-4.02-6.034 63.58 63.58 0 0 1-3.15-6.336c-.132-.303-.256-.613-.38-.922 2.339-1.395 7.295-.71 8.905 5.765a24.12 24.12 0 0 1 .125 9.294z"/></g><g><path fill="#fff" d="M194.906 292.489l-29.028-6.146c.34-2.639 2.705-10.962 4.558-21.805a174.96 174.96 0 0 0 1.993-22.595l.002-.065a3.556 3.556 0 0 1 3.75-3.35l.064.014c1.807.113 4.06.314 6.24.666 4.164.639 8.288 1.512 12.353 2.617 1.339.434 2.65.954 3.922 1.557a5.403 5.403 0 0 1 3.24 4.478c.508 6.352.264 18.764-7.094 44.629z"/></g><g><path fill="#407bff" d="M191.242 246.01l-.83 1.662c-.154.308-.4.485-.64.462l-1.439-.124c-.207-.007-.377-.184-.453-.453l-.585-1.994 2.155-1.34z"/></g><g><path fill="#263238" d="M182.173 238.692c-2.292-.368-4.674-.582-6.583-.703l-.062-.012a3.734 3.734 0 0 0-3.968 3.6c-.176 5.471-.603 15.112-2.092 23.824-2.82 20.238-5.615 24.262-5.615 24.262l12.954 2.445c3.913-18.38 6.933-43.484 6.616-53.245z"/></g><g opacity=".3"><path d="M169.907 262.608c.94-6.53 1.35-13.276 1.556-18.195.06-.069.126-.13.198-.185 1.631-1.384 5.68 1.938 4.578 8.144-1.045 5.897-3.912 9.448-6.332 10.236z"/></g><g><path fill="#263238" d="M197.09 296.698l-7.821-2.093c4.91-34.443 6.057-43.594 4.955-53.244a55.918 55.918 0 0 1 5.717 1.834 6.299 6.299 0 0 1 3.526 5.108c.659 5.401-3.433 19.19-6.376 48.395z"/></g><g><path fill="#263238" d="M188.082 282.498a1.649 1.649 0 0 1 2.213.736l.002.005a1.656 1.656 0 1 1-2.224-.737z"/></g><g><path fill="#fff" d="M187.103 284.874a1.934 1.934 0 0 1 .838-2.604c.457-.235.99-.274 1.477-.109a1.927 1.927 0 0 1-1 3.72 1.939 1.939 0 0 1-1.315-1.007z"/></g><g><path fill="#ff978d" d="M189.641 244.264c-6.192-.962-7.64-5.1-7.64-5.1 3.252-2.117 3.757-9.583 3.682-13.756l2.723 3.441 3.71 4.687c-.259.575-.482 1.163-.67 1.763-.76 2.383-.598 4.743 2.811 6.351 0 0 .666 3.412-4.616 2.614z"/></g><g><path fill="#fff" d="M180.845 238.44l2.032-.296a19.073 19.073 0 0 0 6.354 6.032 7.355 7.355 0 0 0-3.33 2.689c-6.05-3.591-5.056-8.424-5.056-8.424z"/></g><g><path fill="#fff" d="M194.308 241.305l-1.68-.741s-1.485 3.508-3.402 3.64c2.898 1.893 3.09 3.562 3.09 3.562 4.854-.507 1.992-6.461 1.992-6.461z"/></g><g opacity=".2"><path d="M191.642 234.737l-3.554-4.464a8.265 8.265 0 0 0-.295 1.722c-.114 1.77 1.724 4.009 3.328 4.718z"/></g><g><path fill="#263238" d="M195.543 226.584s.19 2.772 3.082 1.713c.124-2.954 1.094-2.726 2.091-4.455a6.402 6.402 0 0 0 .386-6.555l-1.84-.927c-7.175-2.224-3.72 10.224-3.72 10.224z"/></g><g opacity=".6"><path fill="#fff" d="M195.543 226.584s.19 2.772 3.082 1.713c.124-2.954 1.094-2.726 2.091-4.455a6.402 6.402 0 0 0 .386-6.555l-1.84-.927c-7.175-2.224-3.72 10.224-3.72 10.224z"/></g><g><path fill="#ff978d" d="M188.045 215.38a7.275 7.275 0 0 1 10.27-.587c4.474 3.796 2.9 11.878.383 16.252a7.182 7.182 0 0 1-12.715-.257c-1.85-3.589-.863-6.673.372-12.06a7.27 7.27 0 0 1 1.69-3.348z"/></g><g><path fill="#263238" d="M185.477 223.63s.722 2.396 3.34 1.114c-.454-2.587.533-2.518 1.178-4.153.923-1.875.582-4.103-.887-5.802l-1.978-.578c-9.403-.902-1.653 9.418-1.653 9.418z"/></g><g opacity=".6"><path fill="#fff" d="M185.477 223.63s.722 2.396 3.34 1.114c-.454-2.587.533-2.518 1.178-4.153.923-1.875.582-4.103-.887-5.802l-1.978-.578c-9.403-.902-1.653 9.418-1.653 9.418z"/></g><g><g><path fill="#263238" d="M194.815 208.845a2.93 2.93 0 0 0-2.895.516c-.514.447-1.019 1.133-1.687.998-.339-.067-.593-.34-.875-.54-1.082-.768-2.647-.443-3.696.372-1.047.815-1.71 2.011-2.4 3.145-.691 1.133-1.488 2.28-2.67 2.882a8.432 8.432 0 0 0 6.868.168 4.504 4.504 0 0 1-2.405 1.506 9.316 9.316 0 0 0 6.543-.529c1.147-.545 2.208-1.338 3.459-1.553 1.252-.215 2.8.463 2.915 1.726.174-.665 1.084-.887 1.705-.592.62.295 1.005.92 1.34 1.52.334.602.68 1.238 1.268 1.593.589.356 1.498.277 1.8-.34-.914-.041-1.727-.857-1.764-1.771a3.306 3.306 0 0 0 2.224.36c-1.005-.068-2.967-3.64-3.27-4.601-.304-.96-.763-1.93-1.593-2.5-.935-.64-1.88.477-2.767.004-.839-.448-1.1-1.984-2.1-2.364z"/></g><g><g><path fill="#263238" d="M193.567 228.282a3.534 3.534 0 0 1-1.258-2.394l1.566.617c.652.255 2.532 1.046 2.115 2.082-.393.973-1.92.108-2.423-.305z"/></g><g><path fill="#263238" d="M197.985 229.977a3.534 3.534 0 0 0 2.475-1.089l-1.608-.494c-.67-.205-2.634-.759-2.952.313-.299 1.005 1.434 1.28 2.085 1.27z"/></g></g></g><g><path fill="#ff5551" d="M195.855 228.197c.63.402 1.408.506 2.12.282a16.531 16.531 0 0 1-.953-4.351z"/></g><g><path fill="#ff978d" d="M185.787 219.902c1.308.445 1.82 2.632 1.76 4.007-.07 1.533-1.077 2.483-2.21 1.517a5.181 5.181 0 0 1-1.588-3.106c-.2-1.495.729-2.862 2.038-2.418z"/></g><g><path fill="#263238" d="M194.48 222.34c.277.094.389.561.27.95-.119.389-.446.662-.724.573-.28-.087-.366-.506-.273-.944.128-.431.448-.675.727-.58z"/></g><g><path fill="#263238" d="M199.342 223.674c.279.095.4.513.272.944-.127.431-.455.71-.733.616-.277-.096-.398-.522-.27-.953.125-.423.453-.702.731-.607z"/></g><g><path fill="#263238" d="M195.367 230.61a.135.135 0 0 0 .154-.11.142.142 0 0 0-.11-.153 3.693 3.693 0 0 1-2.7-1.82.13.13 0 1 0-.236.114 3.833 3.833 0 0 0 2.387 1.858c.16.043.337.064.505.11z"/></g><g><path fill="#263238" d="M199.167 221.823a.278.278 0 0 0 .163.188 2.237 2.237 0 0 1 1.422 1.327c.034.137.174.22.312.186l.012-.004a.272.272 0 0 0 .18-.324 2.723 2.723 0 0 0-1.754-1.68.269.269 0 0 0-.334.166.31.31 0 0 0-.001.14z"/></g><g><path fill="#263238" d="M193.56 220.45c.07.055.16.072.245.05a2.23 2.23 0 0 1 1.938.171.255.255 0 0 0 .359-.046l.008-.01a.27.27 0 0 0-.056-.367 2.726 2.726 0 0 0-2.417-.247.27.27 0 0 0-.163.337c.02.043.05.081.087.112z"/></g><g><g><path fill="#ff978d" d="M151.96 287.416l-.999-.112c-2.354 1.134.203 5.488.203 5.488l6.93-.845-2.01-2.35a6.4 6.4 0 0 0-4.125-2.18z"/></g><g><path fill="#ff978d" d="M158.302 294.932l-.228-2.995-6.93.845.39 3.55a1.052 1.052 0 0 0 1.312.906l4.666-1.222c.49-.124.821-.58.79-1.084z"/></g></g><g><path fill="#407bff" d="M192.312 274.861s-2.409 5.796-3.47 4.995c-1.063-.8-3.51-5.232-3.518-5.325 0-.154 3.01-26.52 3.01-26.52l1.438.123c-.592 2.963 2.54 26.727 2.54 26.727z"/></g></g></g><g><path fill="#263238" d="M152.645 260.535c-2.875 4.117-3.565 23.432-2.814 28.398 1.166-1.404 3.456-1.69 4.93-.618.069-3.4 2.829-15.554 4.014-20.626a6.086 6.086 0 0 1 2.362-3.544c5.077-3.684 14.273-10.962 15.287-13.826 1.642-4.635.232-14.087-3.846-11.174-3.847 2.747-17.643 18.107-19.933 21.39z"/></g></g></g></g></svg>