<svg xmlns="http://www.w3.org/2000/svg" width="110" height="110" viewBox="0 0 110 110"><g><g opacity=".2"><path fill="#9ec5fd" d="M0 55C0 24.624 24.624 0 55 0s55 24.624 55 55-24.624 55-55 55S0 85.376 0 55z"/></g><g><g><path fill="#396ab3" d="M55.42 28.162c-.57 0-1.031.462-1.031 1.032v4.13a1.032 1.032 0 1 0 2.064 0v-4.13c0-.57-.462-1.032-1.032-1.032z"/></g><g><path fill="#396ab3" d="M51.291 28.162c-.57 0-1.032.462-1.032 1.032v4.13a1.033 1.033 0 0 0 2.064 0v-4.13c0-.57-.461-1.032-1.032-1.032z"/></g><g><path fill="#396ab3" d="M59.55 28.162c-.57 0-1.032.462-1.032 1.032v4.13a1.033 1.033 0 1 0 2.065 0v-4.13c0-.57-.463-1.032-1.033-1.032z"/></g><g><path fill="#396ab3" d="M66.777 62.746a1.55 1.55 0 0 1-1.549 1.549H45.613a1.55 1.55 0 0 1-1.548-1.549V39.518h22.712zm-9.292 7.743h-4.129v-4.13h4.13zm-9.29-45.424h14.452v12.388H48.194zm16.517 12.388v-13.42c0-.571-.462-1.033-1.032-1.033H47.162c-.57 0-1.033.462-1.033 1.032v13.421h-3.097c-.57 0-1.032.463-1.032 1.032v24.261a3.617 3.617 0 0 0 3.613 3.613h5.678v5.162c0 .57.463 1.032 1.032 1.032h2.066v9.292a1.032 1.032 0 0 0 2.064 0v-9.292h2.065c.57 0 1.032-.461 1.032-1.032V66.36h5.678a3.617 3.617 0 0 0 3.614-3.613v-24.26c0-.57-.463-1.033-1.033-1.033z"/></g><g><path fill="#396ab3" d="M55.42 83.91c-.57 0-1.031.462-1.031 1.032v1.032a1.032 1.032 0 1 0 2.064 0v-1.032c0-.57-.462-1.032-1.032-1.032z"/></g></g></g></svg>