<svg xmlns="http://www.w3.org/2000/svg" width="621" height="472" viewBox="0 0 621 472"><g><g><g opacity=".5"><path fill="#d2d4d5" d="M269 93.399c0-21.807 17.678-39.486 39.486-39.486 21.807 0 39.486 17.679 39.486 39.486s-17.679 39.486-39.486 39.486c-21.808 0-39.486-17.679-39.486-39.486z"/></g><g><g><g><path fill="#d9e5ff" d="M545.638 301.698h-133.83c.032 0 .032-.03.061-.03 1.162-6.565 4.978-11.573 10.718-12.55 2.138-.335 4.703.947 6.626-.274 2.2-1.435 4.122-5.894 6.32-7.786 9.099-7.817 20.703-7.145 29.558.121 2.962-7.144 10.258-10.717 16.793-11.755 3.083-.519 7.663-1.008 11.939-.366 2.687-.642 5.588-.153 7.541.366 4.154 1.038 8.764 4.61 10.626 11.755 5.588-7.266 12.916-7.938 18.657-.121 1.404 1.892 2.626 6.35 4 7.786 1.221 1.221 2.84-.061 4.182.275 3.633.976 6.046 5.984 6.78 12.549z"/></g></g></g><g><g><g><path fill="#d9e5ff" d="M196.06 136.327c-.06.018-.12.035-.194.053a1.23 1.23 0 0 1-.491.463c-.328.48-.88.534-1.356.285-1.176.16-2.354.285-3.53.392-8.388 1.175-17.49.053-25.684.071-11.337.018-22.66.053-33.996-.018-1.177.018-1.758-1.086-1.758-2.172 0-1.087.58-2.19 1.758-2.173.774-.018 1.534 0 2.308-.018.433-2.404 1.58-4.238 3.725-5.182.745-.32 2.905 0 3.397-.338.67-.463.477-1.318 1.191-2.28 4.396-6.036 9.907-8.173 14.66-2.475 3.813-11.272 16.476-10.738 20.35.018 3.56-4.47 9.415-2.44 10.562 3.864 4.529-2.012 8.641 1.62 8.715 7.426.06.054.105.107.15.178.074.018.133.036.193.054.76.231.76 1.62 0 1.852z"/></g></g></g><g><g><g><path fill="#d9e5ff" d="M463.244 143.427c-.276 0-.52-.03-.795-.03H361.137c-.273 0-.518.03-.762.03-.03-.183 0-.397.183-.458h.122c.672-6.168 7.085-7.878 11.482-5.74 3.54-11.45 14.716-13.954 21.648-5.466 2.84-7.358 8.64-16.305 15.48-18.412v-.214c.856-.183 1.68-.274 2.534-.213.825-.031 1.649.03 2.505.213v.214c6.809 2.138 12.64 11.054 15.48 18.412 6.9-8.488 18.076-5.985 21.618 5.466 4.427-2.138 10.81-.428 11.511 5.74h.092c.183.06.244.275.214.458z"/></g></g></g><g><g><g><path fill="#d9e5ff" d="M259.907 217.3c-.798-.434-1.679-.702-2.642-.702h-103.11c-.983 0-1.863.268-2.662.703 0-.167.04-.368.123-.536 1.679-3.885 3.665-6.798 6.123-8.506 2.723-1.842 4.915-.436 7.557-1.038 2.498-.57 4.402-4.79 6.716-6.631 2.417-1.976 5.018-2.98 7.639-3.149 2.621-.133 5.243.637 7.72 2.412 1.536 1.105 2.417 2.712 4.158 2.076 1.228-.435 2.826-3.315 3.973-4.32 1.679-1.474 3.521-2.679 5.447-3.483v-.167c1.535-.703 3.134-1.005 4.751-.904a9.916 9.916 0 0 1 4.772.904v.167c1.904.804 3.747 2.01 5.426 3.483 1.167 1.005 2.765 3.885 3.994 4.32 1.74.636 2.6-.97 4.157-2.076 2.457-1.775 5.099-2.545 7.7-2.412 2.622.168 5.222 1.173 7.66 3.149 2.313 1.842 4.218 6.062 6.716 6.63 2.622.603 4.833-.803 7.556 1.039 2.458 1.708 4.445 4.621 6.103 8.506.082.168.123.369.123.536z"/></g></g></g><g><g><g><path fill="#a5a6a9" d="M276.198 333.032a2.115 2.115 0 0 0-.1-.621c-6.51-19.5-25.265-26.106-38.822-14.193-4.082-7.07-12.588-11.236-19.069-11.913-8.775-.89-18.786 3.49-25.55 10.756-10.264-4.185-24.267-4.025-29.02 9.384-4.925-1.157-10.292 1.481-12.773 6.587z"/></g></g></g><g><g><g><path fill="#d9e5ff" d="M46.07 271.724c-.106.16-.193.341-.262.532h88.913c0-.171-.013-.348-.056-.532-1.072-4.88-5.318-7.016-9.281-6.535-1.758-3.544-5.87-6.411-8.58-7.266-3.532-1.104-7.524-.463-10.624 1.799-2.145-3.028-5.228-5.325-8.148-6.215-3.128-.962-6.138-.534-8.79.944-2.31-5.699-10.398-7.266-15.106-6.447-4.917.855-8.343 3.598-10.8 7.658-4.142-1.906-9.282 1.513-9.714 7.408-3.933-.232-8.283 3.134-7.672 8.28.015.142.06.267.12.374z"/></g></g></g><g><g><g><g><g><path fill="#d2d4d5" d="M331.256 394.05c.023 0 .023-.036 0-.036"/></g></g></g><g><g><g><path fill="#d2d4d5" d="M144.563 420.556V292.24h61.136v128.316z"/></g></g></g><g><g><g><path fill="#d2d4d5" d="M150.627 319.611v-37.638h49.01v37.638z"/></g></g></g><g><g><g><path fill="#d2d4d5" d="M131.68 420.556v-85.55h32.336v85.55z"/></g></g></g><g><g><g><path fill="#d2d4d5" d="M192.31 410.706v-75.7h38.4v75.7z"/></g></g></g><g><g><g><path fill="#d2d4d5" d="M213.531 415.758v-96.147h106.104v96.147z"/></g></g></g><g><g><g><path fill="#d2d4d5" d="M228.184 394.015V240.916h84.206v153.099z"/></g></g></g><g><g><g><path fill="#d2d4d5" d="M268.604 343.507V160.462h43.786v183.045z"/></g></g></g><g><g><g><path fill="#d2d4d5" d="M240.815 252.253v-15.465h15.465v15.465z"/></g></g></g><g><g><g><path fill="#d2d4d5" d="M419.17 420.556V281.973h47.495v138.583z"/></g></g></g><g><g><g><path fill="#d2d4d5" d="M428.265 295.66v-20.868h5.053v20.867z"/></g></g></g><g><g><g><path fill="#d2d4d5" d="M419.17 406.158v-45.49h70.231v45.49z"/></g></g></g><g><g><g><path fill="#d2d4d5" d="M308.52 415.758v-80.751h132.377v80.751z"/></g></g></g></g><g><g><path fill="#d2d4d5" d="M79.679 418.525v-50.84H192.31v50.84z"/></g></g></g><g><g><g><g><path fill="#3362cc" d="M336 398.757V86.447h3.574v312.31z"/></g></g></g><g><g><g><path fill="#3362cc" d="M348.967 398.757V86.447h3.574v312.31z"/></g></g></g><g><g><g><path fill="#3362cc" d="M336 99.22V95.8h14.754v3.42z"/></g></g></g><g><g><g><path fill="#3362cc" d="M336 112.905v-3.42h14.754v3.42z"/></g></g></g><g><g><g><path fill="#3362cc" d="M336 126.59v-3.419h14.754v3.42z"/></g></g></g><g><g><g><path fill="#3362cc" d="M336 140.276v-3.419h14.754v3.42z"/></g></g></g><g><g><g><path fill="#3362cc" d="M336 153.962v-3.42h14.754v3.42z"/></g></g></g><g><g><g><path fill="#3362cc" d="M336 167.648v-3.42h14.754v3.42z"/></g></g></g><g><g><g><path fill="#3362cc" d="M336 181.334v-3.42h14.754v3.42z"/></g></g></g><g><g><g><path fill="#3362cc" d="M336 195.02v-3.42h14.754v3.42z"/></g></g></g><g><g><g><path fill="#3362cc" d="M336 208.705v-3.42h14.754v3.42z"/></g></g></g><g><g><g><path fill="#3362cc" d="M336 222.39v-3.418h14.754v3.419z"/></g></g></g><g><g><g><path fill="#3362cc" d="M336 236.077v-3.42h14.754v3.42z"/></g></g></g><g><g><g><path fill="#3362cc" d="M336 249.762v-3.419h14.754v3.42z"/></g></g></g><g><g><g><path fill="#3362cc" d="M336 263.448v-3.42h14.754v3.42z"/></g></g></g><g><g><g><path fill="#3362cc" d="M336 277.134v-3.42h14.754v3.42z"/></g></g></g><g><g><g><path fill="#3362cc" d="M336 290.82v-3.42h14.754v3.42z"/></g></g></g><g><g><g><path fill="#3362cc" d="M336 304.505v-3.419h14.754v3.42z"/></g></g></g><g><g><g><path fill="#3362cc" d="M336 318.191v-3.42h14.754v3.42z"/></g></g></g><g><g><g><path fill="#3362cc" d="M336 331.877v-3.42h14.754v3.42z"/></g></g></g><g><g><g><path fill="#3362cc" d="M378.606 75.886c-.91 1.289-1.819 2.592-2.41 4.063-.485 1.212-.44 3.016-1.47 3.865-.44.364-.94.394-1.334.136-5.184 6.003-15.34 6.078-22.63 6.306-12.627.379-25.041-1.637-36.985-5.684a1.54 1.54 0 0 1-1.077-1.334c-.955-.349-1.712-1.804-2.137-2.456-1.182-1.803-2.425-3.562-3.334-5.517-.334-.728.181-1.516.833-1.622a3.655 3.655 0 0 1-.925-1.774c-.15-.788-.211-1.879.561-2.379.304-.197.652-.258 1.016-.228.834-1.576 2.44-2.758 3.47-4.213 1.229-1.743 1.85-3.896 3.139-5.548a.643.643 0 0 1 .651-.258c.167-.394.5-.712 1.032-.864a94.34 94.34 0 0 1 18.916-3.274c0-.637.045-1.288.136-1.97-.5-.046-.803-.06-.833 0-1.046 1.97-3.925 1.318-4.533-.591-.454-1.41-.53-1.986-.651-3.456-.167-2.198 2.834-2.638 3.88-1.046.046.06.06.106.107.151 1.09-.242 2.318-.182 3.531.016 5.548.879 10.717 1.136 16.25-.167 1.53-.364 3.47 1.091 2.803 2.804-.015.03-.03.075-.045.106.212.803.045 1.667-.727 2.38-.228.5-.456.985-.683 1.485-.197.546-.515.97-.91 1.258 5.64.622 11.293.788 15.674-1.728 1.925-1.121 3.683 1.895 1.743 3.002-.107.06-.197.106-.288.151 1.516 3.047 2.44 6.836 3.137 10.11.227 1.107-.682 1.774-1.53 1.667.363.895.909 1.728 1.606 2.365 1.061.97 2.76 1.228 3.653 2.304.182.228.258.485.273.758.258.334.349.788.091 1.182z"/></g></g></g><g><g><g><path fill="#3362cc" d="M287.829 71.43c0-2.232 24.657-4.042 55.073-4.042s55.073 1.81 55.073 4.042c0 2.232-24.657 4.042-55.073 4.042s-55.073-1.81-55.073-4.042z"/></g></g></g><g><g><g><path fill="#3362cc" d="M384.328 59.667c0 .47-.273.925-.788 1.365h-81.275c-.516-.44-.789-.895-.789-1.365 0-3.046 11.474-5.638 27.526-6.593a6.45 6.45 0 0 0-.363-1.364c-.546-1.41-1.44-2.653-2.487-3.744-.758-.303-1.181-.621-1.181-.955 0-.046.03-.091.045-.136-.015-.016-.03-.016-.03-.03-.258-.213.015-.683.318-.562l.182.091c1.894-1.182 8.958-2.076 17.417-2.076 7.639 0 14.14.727 16.734 1.743.318-.091.636.091.772.379.273.197.424.379.424.591 0 .318-.393.621-1.076.91-.848 1.152-1.577 2.364-2.045 3.744-.168.47-.274.954-.364 1.44 15.748.985 26.98 3.562 26.98 6.562z"/></g></g></g><g><g><g><path fill="#3362cc" d="M344.467 47.965C344.171 19.643 343.581.31 342.9.31c-.678 0-1.267 19.209-1.564 47.383a15.71 15.71 0 0 1 3.131.27z"/></g></g></g><g><g><g><path fill="#3362cc" d="M297.934 86.065c0-2.78 20.133-5.035 44.968-5.035 24.835 0 44.968 2.254 44.968 5.035 0 2.78-20.133 5.034-44.968 5.034-24.835 0-44.968-2.254-44.968-5.034z"/></g></g></g><g><g><g><g><path fill="#3362cc" d="M341.73 163.968c2.425 13.248 4.472 26.602 4.638 40.107.182 14.324-1.606 28.603-3.607 42.76-7.152 50.613-10.127 100.954-6.022 151.922h10.19c.323-5.65.203-11.377.319-17.003.136-6.548.288-13.112.44-19.66l.954-41.577c.303-13.34.546-26.663 1.182-39.986.577-12.369 1.895-24.586 3.047-36.88.03 25.936 1.32 51.947 1.97 77.851.655 25.752 1.215 51.503 1.849 77.255h7.358c4.096-50.965 1.12-101.314-6.038-151.922-2.002-14.157-3.775-28.436-3.593-42.76.167-13.505 2.213-26.86 4.623-40.107 4.411-24.177 10.08-48.52 7.216-73.227-.016-.258-.182-.41-.38-.485-.106-1.804-.242-3.607-.5-5.396-.137-1-1.62-.682-1.667.227v.152c-.773-.516-2.031-.228-1.97.97 0 .273.015.53.03.803-.561.03-1.061.394-1 1.107.863 9.155.772 18.31-.623 27.42a108.328 108.328 0 0 1-2.622 12.232c-.879 3.184-4.456 18.523-11.064 12.323-2.213-2.076-3.048-7.927-3.926-10.762-1.228-3.986-2.38-7.972-3.275-12.05-1.894-8.443-2.804-16.961-3.683-25.54l.046-1.001c.014-.212-.06-.364-.198-.44-.06-.545-.105-1.106-.166-1.652-.06-.59-.94-.621-.94 0-.03 1.274 0 2.547.03 3.805-2.41 24.13 3.092 47.913 7.382 71.514z"/></g></g></g><g><g><g><path fill="#3362cc" d="M326.072 163.968c1.39 7.637 2.649 15.311 3.51 23.028.037.645.106 1.29.129 1.901v.083c.051.443.103.886.148 1.33.49 1.657.58 3.315.472 5.058l.016.237a9.4 9.4 0 0 0 .012.143l.13-.961c-.103.997-.048 1.963.082 2.957a7.979 7.979 0 0 1-.004 1.648c.07 1.56.124 3.12.143 4.683.166 14.324-1.607 28.603-3.607 42.76-7.166 50.608-10.137 100.962-6.036 151.922h5.842c1.01-32.684 2.07-65.367 3.15-98.052 1.033-31.102 2.821-62.334 2.95-93.487.08-.246.12-.504.175-.757V186.4c-5.657-32.421-8.363-65.382-7.688-98.282.03-2.229-3.425-2.229-3.456 0v.424c-.485-.44-1.395-.41-1.683.44-.06.151-.106.318-.151.47a1.603 1.603 0 0 0-1.395.439c-.303.243-.5.606-.5 1.107-.045 2.334-.5 5.229-.075 7.654-1.031 22.01 3.91 43.73 7.836 65.315z"/></g></g></g></g><g><g><g><g><path fill="#3362cc" d="M376.276 338.632c-3.818-4.858-17.968-8.465-34.851-8.465-16.882 0-31.034 3.607-34.851 8.465z"/></g></g></g><g><g><g><path fill="#3362cc" d="M307.487 344.853c4.83 4.363 18.195 7.5 33.938 7.5 15.744 0 29.109-3.137 33.938-7.5z"/></g></g></g></g></g><g><g><g><path fill="#d9e5ff" d="M555.247 195.384c-.863-2.568-2.393-4.467-4.74-5.518-1.802-.802-2.934-.285-4.647-.588-1.595-.303-1.713.018-1.639.214-.164-.196-.566-.588-1.535-1.407-5.765-4.826-11.516-8.37-17.95-3.757-2.787-13.018-16.552-16.42-22.899-5.093-6.614-13.018-22.42-9.67-25.37 5.146-3.322-1.585-6.868-.053-8.566 3.633-2.086-2.066-5.349-1.194-6.466 2.315-.045.16-.059.302-.059.445a10.09 10.09 0 0 0-.91.82c-.897.938-1.795 2.298-2.367 3.79z"/></g></g></g><g><g><path fill="#3362cc" d="M501.045 420.556V378.16h57.251v42.395z"/></g></g><g><g><path fill="#3362cc" d="M22.428 418.525V399.74h35.776v18.786z"/></g></g><g><g><g><path fill="#b3caff" d="M620.93 420.556v-15.639h-23.238v-53.434h-7.082v-5.16h-13.373v5.16h-10.872v37.77h-24.242V317.01h-24.764v72.243h-38.901v15.664h-1.282v-61.495H449.88v28.793h-45.955V240.83h-5.556v-8.275h-18.961v8.275h-5.314v152.088H307.41v14.137h-25.253v-81.586h-10.105v-8.824l-14.167-3.695-14.14 3.695v8.824H233.64v35.114H219.99v15.39H169.06v-29.65h-5.311v-3.755h-31.297v3.756h-5.314v30.839h-9.067v6.534h-17.68v28.305H67.626v-34.839H55.932v15.542H36.237V412H.359v8.555z"/></g></g><g><g><path fill="#b3caff" d="M470.512 407.075v-28.914h16.03v28.914z"/></g></g></g><g><g><path fill="#f5f5f5" d="M113.512 460.195c0-6.41 88.012-11.608 196.58-11.608 108.569 0 196.58 5.197 196.58 11.608 0 6.411-88.011 11.608-196.58 11.608-108.568 0-196.58-5.197-196.58-11.608z"/></g></g><g><g><g><g><path fill="#407bff" d="M234.844 457.573c.231.733-.338 1.476-1.107 1.476h-78.66c-2.457 0-2.457-15.994 0-15.994h78.66c.77 0 1.338.743 1.107 1.476-.958 3.046-.958 9.996 0 13.042z"/></g><g opacity=".8"><path fill="#fff" d="M234.734 444.924h-47.72c-1.883 0-1.883 12.256 0 12.256h47.72c-.806-3.075-.806-9.181 0-12.256z"/></g><g opacity=".2"><path d="M184.636 457.573c.231.733-.338 1.476-1.107 1.476h-28.452c-2.457 0-2.457-15.994 0-15.994h28.452c.77 0 1.338.743 1.107 1.476-.957 3.046-.957 9.996 0 13.042z"/></g><g><path fill="#407bff" d="M167.202 443.055h-6.494c-2.457 0-2.457 15.994 0 15.994h6.494c-2.458 0-2.458-15.994 0-15.994z"/></g><g><path fill="#407bff" d="M172.323 443.055h-2.551c-2.458 0-2.458 15.994 0 15.994h2.551c-2.457 0-2.457-15.994 0-15.994z"/></g></g><g><g><path fill="#263238" d="M150.491 441.729c-.27.658.397 1.326 1.298 1.326h70.73c2.882 0 2.882-14.379 0-14.379h-70.73c-.901 0-1.568.668-1.298 1.327 1.124 2.738 1.124 8.987 0 11.726z"/></g><g opacity=".2"><path d="M150.491 441.729c-.27.658.397 1.326 1.298 1.326h34.685c2.883 0 2.883-14.379 0-14.379h-34.685c-.901 0-1.568.668-1.298 1.327 1.124 2.738 1.124 8.987 0 11.726z"/></g><g opacity=".8"><path fill="#fff" d="M150.62 430.356h34.428c2.21 0 2.21 11.02 0 11.02H150.62c.946-2.766.946-8.255 0-11.02z"/></g><g opacity=".2"><path fill="#fff" d="M196.491 431.882c-.214-.636.406-1.255 1.263-1.255h19.802c2.1 0 2.1 10.478 0 10.478h-19.802c-.857 0-1.477-.62-1.263-1.256.678-2.016.678-5.95 0-7.967z"/></g></g></g><g><g><g><g><path fill="#407bff" d="M339.624 435.313c.244.854-.357 1.718-1.17 1.718h-83.101c-2.597 0-2.597-18.61 0-18.61h83.101c.813 0 1.414.864 1.17 1.718-1.013 3.544-1.013 11.63 0 15.174z"/></g><g opacity=".5"><path fill="#fff" d="M339.624 435.313c.244.854-.357 1.718-1.17 1.718h-83.101c-2.597 0-2.597-18.61 0-18.61h83.101c.813 0 1.414.864 1.17 1.718-1.013 3.544-1.013 11.63 0 15.174z"/></g></g><g opacity=".8"><path fill="#fff" d="M339.507 420.596h-50.414c-1.99 0-1.99 14.26 0 14.26h50.414c-.851-3.577-.851-10.682 0-14.26z"/></g><g opacity=".6"><path fill="#407bff" d="M286.581 435.313c.243.854-.357 1.718-1.17 1.718h-30.058c-2.597 0-2.597-18.61 0-18.61h30.058c.813 0 1.413.864 1.17 1.718-1.012 3.544-1.012 11.63 0 15.174z"/></g><g opacity=".5"><path fill="#fff" d="M274.383 419.8c.223-.667-.201-1.378-.847-1.378h-11.46c-2.596 0-2.596 18.61 0 18.61h11.46c.646 0 1.07-.712.847-1.379-1.154-3.446-1.154-12.407 0-15.853z"/></g></g><g><g><g><path fill="#407bff" d="M333.662 457.002c.346 1.01-.506 2.031-1.659 2.032l-86.343.015c-3.684 0-3.687-22.015-.004-22.015l86.344-.015c1.152 0 2.005 1.022 1.66 2.03-1.436 4.194-1.435 13.761.002 17.953z"/></g><g opacity=".2"><path fill="#fff" d="M333.662 457.002c.346 1.01-.506 2.031-1.659 2.032l-86.343.015c-3.684 0-3.687-22.015-.004-22.015l86.344-.015c1.152 0 2.005 1.022 1.66 2.03-1.436 4.194-1.435 13.761.002 17.953z"/></g></g><g opacity=".8"><path fill="#fff" d="M333.494 439.59l-52.206.01c-2.824 0-2.822 16.87.002 16.87l52.206-.01c-1.208-4.232-1.21-12.636-.002-16.87z"/></g><g opacity=".6"><path fill="#407bff" d="M277.724 457.011c.347 1.01-.506 2.032-1.659 2.032l-30.405.006c-3.684 0-3.687-22.015-.004-22.015l30.407-.006c1.152 0 2.004 1.022 1.659 2.032-1.436 4.192-1.434 13.76.002 17.951z"/></g><g opacity=".5"><path fill="#fff" d="M259.51 437.796c.221-.338-.054-.765-.483-.765l-5.166.001c-3.685 0-3.681 22.016.003 22.015h5.166c.43 0 .704-.427.483-.765-2.22-3.396-2.222-17.09-.002-20.486z"/></g><g opacity=".5"><path fill="#fff" d="M267.57 437.794c.221-.338-.053-.764-.483-.764h-5.166c-3.684.001-3.68 22.017.004 22.016l5.165-.001c.43 0 .704-.427.483-.765-2.22-3.395-2.223-17.09-.003-20.486z"/></g></g><g><g><path fill="#407bff" d="M332.813 406.707c-.193-1.936-.56-3.468-1.09-4.552l.507-.248c.56 1.144.945 2.741 1.144 4.745z"/></g><g><path fill="#407bff" d="M315.25 400.28v-.565h14.022v.564z"/></g><g><path fill="#407bff" d="M237.88 416.878c-.285.767.42 1.544 1.372 1.544h90.02c3.045 0 3.045-16.731 0-16.731h-90.02c-.952 0-1.657.777-1.371 1.543 1.187 3.187 1.187 10.458 0 13.644z"/></g><g opacity=".2"><path d="M237.88 416.878c-.285.767.42 1.544 1.372 1.544h51.94c3.047 0 3.047-16.731 0-16.731h-51.94c-.952 0-1.657.777-1.371 1.543 1.187 3.187 1.187 10.458 0 13.644z"/></g><g opacity=".8"><path fill="#fff" d="M238.018 403.646h51.668c2.335 0 2.335 12.82 0 12.82h-51.668c.999-3.216.999-9.603 0-12.82z"/></g><g opacity=".2"><path fill="#fff" d="M301.776 405.421c-.227-.74.428-1.46 1.334-1.46h20.92c2.219 0 2.219 12.19 0 12.19h-20.92c-.906 0-1.561-.719-1.334-1.46.715-2.345.715-6.925 0-9.27z"/></g></g></g><g><g><g><path fill="#263238" d="M229.466 279.382c-2.545 2.73-8.759-.003-9.712 7.51-1.028 8.091 2.87 11.985-2.162 14.091-7.89 3.303-13.575 16.502-2.575 21.476 11.002 4.973 34.348-.239 31.716-10.33-2.634-10.092-2.11-15.497.995-20.256 4.095-6.279 3.216-14.354-.117-17.28-5.197-4.56-12.368-1.404-18.145 4.79z"/></g><g><path fill="#263238" d="M243.046 311.87a.175.175 0 0 1-.174-.15.176.176 0 0 1 .15-.199c2.178-.298 3.477-.835 4.082-1.692.758-1.07.434-2.655.023-4.662-.67-3.27-1.587-7.75 1.347-13.404 3.559-6.856 2.287-14.377-1.08-16.838a.175.175 0 1 1 .207-.283c3.482 2.544 4.825 10.269 1.185 17.282-2.878 5.544-1.974 9.953-1.316 13.173.429 2.09.767 3.741-.079 4.935-.666.941-2.039 1.525-4.321 1.837-.009.002-.017.002-.024.002z"/></g><g><path fill="#263238" d="M214.585 302.094c-.334 0-.69-.024-1.067-.07a.174.174 0 0 1-.153-.196.175.175 0 0 1 .196-.152c1.608.198 2.769-.04 3.552-.73 1.47-1.29 1.488-3.995 1.51-7.127.023-3.545.05-7.562 2.346-10.298a.176.176 0 0 1 .269.226c-2.216 2.638-2.242 6.589-2.265 10.074-.02 3.216-.039 5.994-1.628 7.39-.673.59-1.583.883-2.76.883z"/></g><g><path fill="#407bff" d="M269.992 401.677c-3.762-.047-5.245-.282-6.978-.253-1.816.03-2.143.332-3.98.254-1.215-.052-1.225-1.5-.756-2.497.366-.778.817-1.561 1.237-2.534l4.777.347c.642 1.822 3.84 2.6 6.636 3.245 1.144.264.57 1.455-.936 1.438z"/></g><g><path fill="#263238" d="M245.09 332.327s12.637 10.867 25.418 22.394c5.396 4.88-5.923 42.114-5.923 42.114-.24.794-4.446-.34-5.098-.968 0 0-.642-28.899 2.094-34.718-28.318-7.16-32.746-21.063-32.746-21.063l2.028-8.623z"/></g><g opacity=".2"><path d="M230.715 343.512c1.139 1.629 2.901 3.708 5.583 5.92 2.828-3.305 2.028-8.64 2.028-8.64z"/></g><g><g><path fill="#263238" d="M265.558 395.226c-.079.56-.215 1.56-.288 2.302a.477.477 0 0 1-.484.426c-1.84-.04-4.665-.732-5.59-.97a.415.415 0 0 1-.311-.4l-.04-2.062a.477.477 0 0 1 .526-.478l5.821.704c.238.028.4.238.366.478z"/></g><g opacity=".3"><path fill="#fff" d="M265.558 395.226c-.079.56-.215 1.56-.288 2.302a.477.477 0 0 1-.484.426c-1.84-.04-4.665-.732-5.59-.97a.415.415 0 0 1-.311-.4l-.04-2.062a.477.477 0 0 1 .526-.478l5.821.704c.238.028.4.238.366.478z"/></g></g><g><path fill="#407bff" d="M214.715 428.676c-3.829 0-5.107-1.436-7.218-1.83-1.807-.343-2.29-.184-3.747-.44-1.217-.212-1.313-1.045-.583-2.281.366-.622.843-1.598 1.24-2.68l5.802.386c.606 1.55 2 4.709 4.126 5.095 2.03.369 1.906 1.75.38 1.75z"/></g><g><path fill="#263238" d="M244.216 332.289s-13.353 23.742-18.724 38.424c-5.641 15.42-14.634 40.67-15.283 51.118-.957.458-4.107.28-5.803-.385 0 0-1.569-36.121 9.3-50.605 2.59-30.999 6.89-35.957 11.463-39.73z"/></g><g><g><path fill="#263238" d="M210.91 419.693c-.046.526-.11 1.443-.058 2.15a.477.477 0 0 1-.438.501c-2.166.198-5.18-.496-6.134-.736a.414.414 0 0 1-.314-.391l-.073-2.021a.477.477 0 0 1 .512-.485l6.12.525c.237.02.407.22.386.457z"/></g><g opacity=".3"><path fill="#fff" d="M210.91 419.693c-.046.526-.11 1.443-.058 2.15a.477.477 0 0 1-.438.501c-2.166.198-5.18-.496-6.134-.736a.414.414 0 0 1-.314-.391l-.073-2.021a.477.477 0 0 1 .512-.485l6.12.525c.237.02.407.22.386.457z"/></g></g><g><path fill="#ffb573" d="M247.76 309.002c.57 1.071 1.173 2.247 1.795 3.358a220.773 220.773 0 0 0 1.88 3.36c1.28 2.217 2.608 4.392 4.037 6.442l-.767-.683c.458.334 1.102.67 1.852.918.747.249 1.58.46 2.45.606.868.16 1.775.265 2.695.352.91.09 1.884.136 2.766.188l.115.007a1.582 1.582 0 0 1 .411 3.08 21.594 21.594 0 0 1-3.085.775 23.027 23.027 0 0 1-3.187.344c-1.087.028-2.209 0-3.372-.2-1.159-.193-2.384-.525-3.613-1.197a2.166 2.166 0 0 1-.618-.505l-.148-.178a54.278 54.278 0 0 1-2.574-3.29 63.292 63.292 0 0 1-2.316-3.416 69.939 69.939 0 0 1-2.102-3.522c-.658-1.21-1.298-2.375-1.903-3.678a3.16 3.16 0 0 1 5.65-2.824z"/></g><g><path fill="#407bff" d="M244.643 304.448c3.685 1.215 4.28 2.866 6.3 8.977-1.341 3.665-6.784 5.519-6.784 5.519s-6.4-10.443.484-14.496z"/></g><g><path fill="#407bff" d="M249.685 312.398c-.205 2.022-.727 4.43-1.816 9.165-.845 4.021-.86 11.876-2.214 12.27-2.603 1.285-9.119.791-20.486-2.722.36-5.871 1.045-9.856-.908-23.33-.452-3.123 1.834-5.762 4.912-5.666.823.025 1.693.07 2.582.146 3.457.29 6.287.554 9.302 1.237.999.226 2.03.492 3.013.765 3.549.982 5.984 4.51 5.615 8.135z"/></g><g><path fill="#ffb573" d="M209.886 335.745l1.144-1.034a1.79 1.79 0 0 0 .58-1.537l-.31-2.692a3.347 3.347 0 0 0-1.711-2.548l-.588-.323c-2.015 1.584-3.027 4.78-3.027 4.78l-.389.88c-.346.783-.034 1.653.719 1.998l1.732.793c.598.275 1.334.149 1.85-.317z"/></g><g><path fill="#ffb573" d="M269.145 322.182l-1.444-.54a1.793 1.793 0 0 0-1.631.192l-2.247 1.515a3.344 3.344 0 0 0-1.475 2.691l-.016.671c2.333 1.06 5.637.487 5.637.487l.96-.058c.854-.053 1.482-.73 1.442-1.557l-.091-1.904c-.033-.657-.483-1.253-1.135-1.497z"/></g><g><path fill="#ffb573" d="M227.627 309.604l-.727.33-.786.364a56.071 56.071 0 0 0-4.627 2.51c-1 .604-1.964 1.251-2.898 1.926-.938.675-1.807 1.405-2.658 2.153l.375-.474c-.216.287-.474.778-.72 1.281-.248.51-.485 1.068-.71 1.639a75.373 75.373 0 0 0-1.295 3.552c-.42 1.211-.819 2.442-1.223 3.677l-1.217 3.707-.003.009a1.58 1.58 0 0 1-3.078-.56c.059-1.36.186-2.681.336-4.016.154-1.332.348-2.66.579-3.993.244-1.33.505-2.668.87-4.021.183-.677.382-1.36.628-2.066.25-.711.533-1.422 1.008-2.253.07-.122.152-.234.243-.333l.132-.141c.948-1.02 1.926-2.015 2.985-2.884a34.06 34.06 0 0 1 3.262-2.467 38.553 38.553 0 0 1 3.472-2.093c.6-.312 1.202-.616 1.818-.906.308-.143.615-.29.934-.424.327-.138.618-.257 1.015-.409a3.157 3.157 0 0 1 2.443 5.82z"/></g><g><path fill="#407bff" d="M233.096 303.608c-2.767-1.983-4.446-2.196-11.142.71-.797 4.212 1.81 10.39 1.81 10.39s8.892-4.638 9.332-11.1z"/></g><g><path fill="#ffb573" d="M233.8 291.873c.412 3.101.677 8.717-1.534 10.455 0 0 2.891-.048 8.416 4.474 2.075-2.267.887-3.236.887-3.236-3.292-1.25-3.06-3.738-2.344-6.01z"/></g><g><path fill="#fff" d="M239.516 305.885c-2.02.018-3.039 2.93-3.039 2.93s-4.84-3.86-5.507-6.577c.756-.276 1.886-.872 1.886-.872s5.655 3.22 6.66 4.52z"/></g><g><path fill="#fff" d="M241.443 305.817s1.529.549 2.027 2.843c1.034-4.305-.982-4.982-.982-4.982s-.562-.526-1.758-.497c1.462 1.04.713 2.636.713 2.636z"/></g><g opacity=".2"><path d="M236.011 294.192l3.212 3.361a9.435 9.435 0 0 0-.384 1.63c-1.264-.356-2.933-2.002-2.99-3.369-.03-.68.036-1.324.162-1.622z"/></g><g><path fill="#ffb573" d="M230.326 287.364c1.155 4.824 1.542 6.885 4.435 9.083 4.353 3.308 10.004 1.166 10.308-3.825.274-4.493-1.66-11.628-6.758-12.988-5.022-1.341-9.14 2.905-7.985 7.73z"/></g><g><path fill="#263238" d="M231.265 290.83c1.775-.867 3.651-5.144 1.125-7.16 2.083.388 4.473-.173 6.677-1.88 2.88-2.228 7.122 3.35 5.726.06-2.01-4.74-8.066-5.93-13.528-1.99-5.461 3.94-5.11 8.734 0 10.97z"/></g><g><path fill="#fff" d="M229.765 289.865a.087.087 0 0 1-.08-.052.087.087 0 0 1 .046-.116c1.412-.61 7.402-1.886 7.656-1.94.048-.01.094.02.104.068a.087.087 0 0 1-.068.104c-.062.013-6.226 1.326-7.623 1.93a.084.084 0 0 1-.035.006z"/></g><g opacity=".2"><path d="M237.019 287.836s-1.049-.476-1.907-.047"/></g><g opacity=".2"><path d="M236.977 288.289s-1.026-.226-1.684.39"/></g><g><path fill="#263238" d="M238.08 287.795c.08.409.356.714.62.682.262-.033.412-.391.332-.8-.08-.409-.357-.715-.62-.682-.263.032-.412.39-.332.8z"/></g><g><path fill="#263238" d="M243.04 287.256c.078.41.356.714.619.682.263-.033.411-.39.332-.8-.08-.409-.357-.714-.62-.682-.263.033-.411.39-.332.8z"/></g><g><path fill="#263238" d="M243.26 286.493l.91-.402"/></g><g><path fill="#ed893e" d="M242.081 288.043s.925 1.734 1.796 2.543c-.465.544-1.404.37-1.404.37z"/></g><g><path fill="#263238" d="M240.332 292.78c.216.01.445.005.686-.025a.112.112 0 0 0 .095-.135.132.132 0 0 0-.142-.105c-1.763.219-2.832-.934-2.843-.946-.046-.052-.123-.058-.17-.015-.047.042-.05.119-.003.17.041.045.902.974 2.377 1.055z"/></g><g><path fill="#ffb573" d="M229.176 291.683c.666.897 1.58 1.36 2.358 1.427 1.17.098 1.428-1.269.83-2.482-.54-1.092-1.798-2.459-2.84-1.987-1.027.464-1.11 2.016-.348 3.042z"/></g><g><path fill="#263238" d="M236.494 284.686a.221.221 0 0 0 .166-.082 1.783 1.783 0 0 1 1.546-.682.222.222 0 0 0 .258-.204.264.264 0 0 0-.221-.275 2.223 2.223 0 0 0-1.965.84c-.081.1-.06.253.045.342a.26.26 0 0 0 .171.06z"/></g><g><path fill="#263238" d="M243.954 284.448c.06.006.12-.01.168-.05.098-.083.105-.236.015-.34-.9-1.052-1.998-.965-2.045-.96a.222.222 0 0 0-.198.262c.022.133.145.231.276.22.043-.004.897-.059 1.612.777.046.054.11.085.172.091z"/></g><g><path fill="#fff" d="M239.426 284.445c1.097 0 2.057 1.192 2.163 2.72.11 1.578-.73 2.925-1.873 3.005-1.151.075-2.16-1.14-2.269-2.717-.053-.77.116-1.506.474-2.076.354-.56.85-.89 1.399-.928.035-.002.07-.004.106-.004zm.186 5.903c.038 0 .077 0 .116-.004 1.239-.085 2.153-1.517 2.036-3.19-.116-1.675-1.21-2.97-2.456-2.88-.605.042-1.151.4-1.535 1.01-.38.6-.557 1.375-.501 2.181.113 1.62 1.15 2.883 2.34 2.883z"/></g><g><path fill="#fff" d="M246.865 286.866c.053.769-.116 1.506-.474 2.075-.355.56-.851.89-1.4.93l-.105.003c-1.098 0-2.058-1.192-2.163-2.72-.054-.77.115-1.506.474-2.076.354-.561.85-.891 1.398-.929l.105-.003c1.099 0 2.058 1.192 2.165 2.72zm-1.978 3.183c.039 0 .078-.001.117-.004.605-.042 1.15-.4 1.535-1.01.38-.6.556-1.375.501-2.181-.116-1.674-1.219-2.968-2.457-2.88-.606.042-1.15.4-1.535 1.01-.379.601-.556 1.376-.501 2.181.113 1.621 1.15 2.884 2.34 2.884z"/></g><g><path fill="#fff" d="M242.648 287.397a.089.089 0 0 1-.075-.04c-.216-.344-.838.024-.844.027a.088.088 0 0 1-.09-.15c.031-.019.774-.46 1.084.028a.088.088 0 0 1-.075.135z"/></g><g><path fill="#263238" d="M238.3 287.032l.911-.403"/></g></g></g></g><g><g><g><path fill="#b55b52" d="M398.393 456.824l-5.066-1.2 2.804-12.176 5.066 1.2z"/></g><g><path fill="#b55b52" d="M437.304 459.973h-5.3l-.626-12.274h5.3z"/></g><g><path fill="#263238" d="M431.137 459.36h6.462c.217 0 .404.15.451.362l1.047 4.711a.779.779 0 0 1-.776.942c-2.079-.035-3.596-.157-6.214-.157-1.612 0-5.154.167-7.378.167-2.176 0-2.515-2.2-1.604-2.4 4.083-.892 5.844-2.124 7.152-3.3.235-.211.543-.325.86-.325z"/></g><g><path fill="#263238" d="M393.086 455.007l5.637 1.316c.21.05.36.238.357.455l-.052 4.826a.77.77 0 0 1-.957.745c-2.025-.51-4.935-1.315-7.491-1.912-2.988-.698-3.047-.582-6.551-1.4-2.119-.496-2.207-2.775-1.275-2.762 4.244.06 5.004.18 8.996-1.157.433-.145.891-.215 1.336-.111z"/></g><g><path fill="#b65b52" d="M420.385 296.663a200.152 200.152 0 0 0-6.862 9.867 174.318 174.318 0 0 0-3.217 5.098 117.848 117.848 0 0 0-3.058 5.264l-.367.675-.184.338-.289.57c-.194.452-.389.912-.511 1.615-.114.667-.16 1.58.205 2.579.35.992 1.066 1.775 1.677 2.205.622.447 1.179.67 1.636.814l4.97-6.303c1.85-2.798 3.789-5.597 5.747-8.384l6.754-9.619z"/></g><g opacity=".2"><path d="M396.13 443.452l-1.445 6.276 5.068 1.2 1.447-6.277z"/></g><g><g><path fill="#407bff" d="M430.337 297.813c1.44 4.859-7.073 14.174-7.073 14.174l-10.304-6.557s2.111-3.647 6.106-8.838c4.35-5.653 9.527-4.664 11.27 1.221z"/></g><g opacity=".4"><path d="M430.337 297.813c1.44 4.859-7.073 14.174-7.073 14.174l-10.304-6.557s2.111-3.647 6.106-8.838c4.35-5.653 9.527-4.664 11.27 1.221z"/></g></g><g opacity=".2"><path d="M436.68 447.703h-5.303l.325 6.326h5.302z"/></g><g><g><path fill="#407bff" d="M451.982 299.657c-6.212 18.894-6.747 38.542-7.375 42.65-4.134-.44-19.702-2.118-28.188-3.034-2.24-25.024 4.057-40.337 6.31-44.896a2.856 2.856 0 0 1 2.333-1.59c.735-.058 1.684-.12 2.754-.155a49.057 49.057 0 0 1 3.955.027c3.194.17 8.37 1.04 11.928 1.73.745.147 1.503.313 2.234.485a72.91 72.91 0 0 1 4.158 1.141 2.868 2.868 0 0 1 1.891 3.642z"/></g><g opacity=".3"><path d="M451.982 299.657c-6.212 18.894-6.747 38.542-7.375 42.65-4.134-.44-19.702-2.118-28.188-3.034-2.24-25.024 4.057-40.337 6.31-44.896a2.856 2.856 0 0 1 2.333-1.59c.735-.058 1.684-.12 2.754-.155a49.057 49.057 0 0 1 3.955.027c3.194.17 8.37 1.04 11.928 1.73.745.147 1.503.313 2.234.485a72.91 72.91 0 0 1 4.158 1.141 2.868 2.868 0 0 1 1.891 3.642z"/></g></g><g><path fill="#407bff" d="M430.103 292.612c.066-.003.138.002.205 0 .483 0 .971.022 1.466.05 3.192.17 8.367 1.041 11.926 1.726.575.113 1.149.24 1.715.372l-.929.69c-2.75 2.038-5.916 3.882-10.396 3.569-.19-.013-.382-.026-.572-.046-2.28-.252-3.69-1.099-4.206-2.53-.47-1.319.018-2.72.79-3.831z"/></g><g><path fill="#b55b52" d="M444.463 280.788c-1.309 3.728-3.08 10.65-.766 13.6-2.386 1.77-5.46 3.77-10.04 3.27-4.58-.501-3.33-3.52-1.886-5 4.427-.4 4.778-3.591 4.464-6.68z"/></g><g opacity=".2"><path d="M441.108 282.905l-4.869 3.07c.077.731.113 1.466.061 2.17 1.669 0 4.175-1.469 4.597-3.155.21-.84.293-1.667.211-2.085z"/></g><g><path fill="#263238" d="M436.021 275.127l1.949.27c2.495-.063 7.099-5.086 5.443-9.43-5.575-.97-11.422 1.787-7.392 9.16z"/></g><g><path fill="#b55b52" d="M448.192 277.848c-2.731 4.494-4.102 7.265-7.704 8.413-5.418 1.728-10.032-3.42-8.698-8.64 1.2-4.7 5.467-11.261 10.988-10.716 5.439.539 8.147 6.447 5.414 10.943z"/></g><g><path fill="#263238" d="M451.359 271.24l-1.967.046c-2.454.461-6.194 6.156-3.864 10.18 5.575.959 12.395-4.247 5.831-10.226z"/></g><g><path fill="#263238" d="M447.968 273.123c-5.061-1.07-9.973-6.883-9.721-10.48.265-3.805 5.605-1.795 6.609-.594-.158-2.099 1.33-1.603 2.327-.316.998 1.288 2.274 5.923 6.088 9.306 2.54 2.254.484 3.309-5.303 2.084z"/></g><g><path fill="#263238" d="M452.567 273.058s2.11.843 2.604.165"/></g><g><path fill="#b55b52" d="M447.594 284.073c-1.222.72-2.663.81-3.786.501-1.69-.464-1.637-2.194-.414-3.318 1.1-1.013 3.306-1.99 4.64-.92 1.315 1.053.956 2.913-.44 3.737z"/></g><g><path fill="#407bff" d="M417.04 395.881c3.366-11.29 17.91-54.61 17.91-54.61l-18.53-1.996s-10.553 38.695-13.239 54.647c-2.795 16.586-10.306 53.02-10.306 53.02l9.058 2.495s11.741-42.266 15.107-53.556z"/></g><g opacity=".2"><path d="M428.044 351.988c-4.575 7.12-6.932 22.756-7.095 31.535 3.01-9.262 6.909-21.01 9.824-29.763-1.166-.836-2.23-1.539-2.73-1.772z"/></g><g><path fill="#407bff" d="M426.417 340.352s-1.51 43.52-.9 59.038c.669 16.993 3.747 53.414 3.747 53.414h9.707s-.902-36.278-.115-52.842c.897-18.867 5.748-57.65 5.748-57.65z"/></g><g><g><path fill="#407bff" d="M428.468 453.014h11.43v-3.415l-12.014-.549z"/></g><g opacity=".5"><path fill="#fff" d="M428.468 453.014h11.43v-3.415l-12.014-.549z"/></g></g><g><g><path fill="#407bff" d="M391.858 448.03l10.415 2.432.786-3.365-10.578-3.046z"/></g><g opacity=".5"><path fill="#fff" d="M391.858 448.03l10.415 2.432.786-3.365-10.578-3.046z"/></g></g><g><path fill="#263238" d="M440.462 275.435c-.2.378-.561.58-.808.45-.248-.131-.286-.543-.087-.922.2-.378.561-.579.809-.449.247.13.286.543.086.92z"/></g><g><path fill="#263238" d="M436.187 273.183c-.199.378-.562.58-.809.45-.246-.131-.286-.543-.086-.921.199-.379.56-.58.808-.45.247.13.286.543.087.921z"/></g><g><path fill="#a02724" d="M437.447 274.087s-2.01 1.73-3.51 2.283c.34.977 1.627 1.291 1.627 1.291z"/></g><g><path fill="#263238" d="M436.626 279.513c1.54.563 2.734-.084 2.79-.114a.126.126 0 0 0-.123-.22c-.013.008-1.404.756-3.06-.115a.126.126 0 0 0-.17.052.126.126 0 0 0 .054.17 4 4 0 0 0 .51.227z"/></g><g><path fill="#263238" d="M443.444 273.638a.252.252 0 0 0 .334-.277c-.225-1.37-1.28-1.85-1.325-1.87a.25.25 0 0 0-.33.13.25.25 0 0 0 .126.33c.035.015.854.398 1.034 1.492.015.092.079.165.161.195z"/></g><g><path fill="#263238" d="M437.593 270.53a.252.252 0 0 0-.233-.05c-1.064.307-1.761-.27-1.79-.294a.252.252 0 0 0-.327.38c.038.033.922.78 2.257.396a.252.252 0 0 0 .093-.432z"/></g><g><g><path fill="#407bff" d="M430.407 459.919c-.9.18-1.592.147-1.882-.096-.128-.106-.183-.256-.17-.455.005-.098.045-.13.079-.148.305-.156 1.278.297 1.973.699zm-1.023.366c.49 0 1.019-.101 1.387-.19a.126.126 0 0 0 .037-.228c-.193-.12-1.903-1.17-2.489-.87-.09.047-.202.146-.215.355-.017.28.07.504.26.663.24.202.617.27 1.02.27z"/></g><g><path fill="#407bff" d="M429.672 457.95c.103 0 .198.036.288.11.395.323.564 1.214.626 1.66-.545-.413-1.22-1.29-1.154-1.64.006-.032.02-.106.183-.126a.657.657 0 0 1 .057-.004zm1.07 2.15a.126.126 0 0 0 .125-.136c-.005-.065-.132-1.594-.748-2.098a.688.688 0 0 0-.535-.161c-.3.037-.379.221-.4.328-.112.592.95 1.753 1.497 2.05a.13.13 0 0 0 .06.016z"/></g><g><path fill="#407bff" d="M389.855 454.103c.42-.043 1.445.648 2.172 1.23-1.183-.077-2.02-.325-2.273-.68a.456.456 0 0 1-.056-.428c.02-.063.053-.096.108-.113a.28.28 0 0 1 .049-.009zm2.557 1.498a.127.127 0 0 0 .104-.08.126.126 0 0 0-.035-.14c-.206-.176-2.035-1.713-2.744-1.51a.398.398 0 0 0-.278.278.704.704 0 0 0 .09.648c.449.634 1.976.776 2.846.805h.017z"/></g><g><path fill="#407bff" d="M391.394 453.195a.663.663 0 0 1 .593.275c.349.455.339 1.33.31 1.751-.547-.53-1.18-1.603-1.042-1.94.008-.022.03-.074.14-.086zm1.018 2.406a.102.102 0 0 0 .035-.009.124.124 0 0 0 .077-.099c.008-.06.193-1.483-.338-2.175a.917.917 0 0 0-.628-.368c-.344-.044-.481.103-.535.235-.231.561.742 1.966 1.3 2.391.026.02.058.028.09.025z"/></g></g><g><g><path fill="#b65b52" d="M453.48 304.16a44.818 44.818 0 0 1-1.556 2.695c-.534.862-1.06 1.726-1.632 2.559a84.456 84.456 0 0 1-3.559 4.904c-1.253 1.588-2.55 3.146-3.936 4.636l-.538.588a6.48 6.48 0 0 1-1.29 1.121 5.2 5.2 0 0 1-1.105.544 4.74 4.74 0 0 1-1.513.266c-1.117.015-2.116-.423-2.707-.841a5.78 5.78 0 0 1-1.291-1.22 8.193 8.193 0 0 1-.69-1.04 13.02 13.02 0 0 1-.818-1.786c-.814-2.22-1.212-4.216-1.565-6.24a80.854 80.854 0 0 1-.789-5.982c-.388-3.97-.572-7.894-.575-11.875l3.966-.341c.713 3.777 1.465 7.591 2.282 11.319a126.01 126.01 0 0 0 1.342 5.508c.498 1.772 1.043 3.573 1.698 4.966.16.338.33.643.469.833.066.093.126.159.141.16.007-.003-.012-.06-.23-.223-.19-.143-.712-.406-1.34-.396-.626 0-1.076.229-1.255.344-.188.117-.218.16-.213.139l.397-.534a118.952 118.952 0 0 0 3.26-4.57 166.291 166.291 0 0 0 3.096-4.7l1.5-2.376 1.415-2.335z"/></g><g><path fill="#b65b52" d="M409.415 325.688c.946.293 1.65.342 2.32.38 1.32.048 2.436-.058 3.528-.216a43.176 43.176 0 0 0 3.148-.583c4.073-.938 7.871-2.223 11.657-3.776l-.858-3.8c-1.91.294-4.123.595-6.046.851-1.924.267-3.84.52-5.715.677-.935.086-1.862.147-2.748.162-.107.002-.21.001-.316.002"/></g><g><path fill="#b55b52" d="M428.061 317.86l4.246-.9.92 6.288s-4.713.726-6.155-2.854z"/></g><g><path fill="#b55b52" d="M437.095 318.916l-.814 3.863-3.054.469-.92-6.289z"/></g><g><g><path fill="#407bff" d="M454.361 300.01c2.288 4.522-4.413 15.214-4.413 15.214l-11.314-4.6s1.423-3.968 4.42-9.79c3.265-6.344 8.535-6.3 11.307-.824z"/></g><g opacity=".3"><path d="M454.361 300.01c2.288 4.522-4.413 15.214-4.413 15.214l-11.314-4.6s1.423-3.968 4.42-9.79c3.265-6.344 8.535-6.3 11.307-.824z"/></g></g><g><path fill="#b55b52" d="M434.403 293.416l.393-5.37-6.25 1.126s.228 4.926 2.827 5.32z"/></g><g><path fill="#b55b52" d="M432.968 283.002l-5.323 1.945.901 4.225 6.25-1.126z"/></g></g></g></g></g></g></svg>