<?xml version="1.0" encoding="utf-8"?>
<!-- Generator: Adobe Illustrator 25.1.0, SVG Export Plug-In . SVG Version: 6.00 Build 0)  -->
<svg version="1.1" id="Layer_1" xmlns="http://www.w3.org/2000/svg" xmlns:xlink="http://www.w3.org/1999/xlink" x="0px" y="0px"
	 viewBox="0 0 786 338" style="enable-background:new 0 0 786 338;" xml:space="preserve">
<style type="text/css">
	.st0{fill-rule:evenodd;clip-rule:evenodd;fill:#90C642;}
</style>
<path class="st0" d="M295.3,0c11.2,0,23.1,6.9,31.8,25.2c18.7,39.1,33.7,112.8,41,142.9c6.2,25.3,15.6,65.8,23,92.5
	c5.3,19,8.9,29.5,10.6,29.5c1.7,0,3.9-9.4,6.6-26.9c5.4-34.8,12.5-93.4,15.9-118c2-14.5,7.5-64.8,15.9-98.3
	c5.2-20.5,12.1-30.7,21-30.7c4.5,0,13,6.1,17,21.6c8.8,33.7,13.3,84.7,15,99.5c1.7,14.9,10.2,90.4,13.2,90.4
	c2.9,0,9.1-66.2,11.7-88.8c1.8-15.9,7.2-65.3,14.7-93.8c3.1-12,7-20.8,12.2-20.8c5.2,0,8.4,11.7,11,25.7c3,16.5,3.7,34.9,4,49.9
	c0.3,13.2-2.8,16.5-5.6,16.5c-6.4,0-5.4-9.5-5.7-29.3c-0.2-11.8-1.6-28.3-4-28.3c-2.4,0-8.8,53.3-11.3,79.8
	c-1.6,17.1-6,71.5-14.9,101.3c-4.1,13.8-8.7,21-16,21c-6.2,0-9.5-6.5-12.7-17.9c-6.1-22-9.3-54.6-12.4-77.7
	c-2.5-19.3-5.1-41.9-6.4-52.7c-2.5-20.5-6.5-51-8.8-51c-2.3,0-4.2,6-7.2,26.3c-3,20.3-18.1,159-27.3,194.7
	c-6.2,24.1-15.2,52.3-27.6,55c-11.6,2.5-16.1-4-20.5-10.5c-12.1-17.9-22.9-57.8-39-120.6c-26-101.3-37.7-136.3-41.5-136.3
	c-3.7,0-10.6,21.2-16.3,57.1c-6.8,42.7-7.4,66.9-17.7,77.5c-4.7,4.8-13.4,8.3-22.1,6.9c-6.9-1.2-11.3-5.1-13.8-11
	c-7.7-18,0.3-54.2,6.4-92.4c5.3-33,17.7-66.2,28.1-85.2C271.8,8.2,283.4,0,295.3,0z"/>
</svg>
