<svg xmlns="http://www.w3.org/2000/svg" width="526" height="404" viewBox="0 0 526 404"><g><g><g><g><g><path fill="#ebebeb" d="M0 356.155v-.263h525.604v.263z"/></g><g><path fill="#ebebeb" d="M438.122 373.075v-.263h34.818v.263z"/></g><g><path fill="#ebebeb" d="M339.043 375.928v-.263h9.138v.263z"/></g><g><path fill="#ebebeb" d="M416.894 363.314v-.263h20.175v.263z"/></g><g><path fill="#ebebeb" d="M55.145 365.08v-.263h45.406v.263z"/></g><g><path fill="#ebebeb" d="M109.91 365.08v-.263h6.657v.263z"/></g><g><path fill="#ebebeb" d="M138.204 369.518v-.263h98.472v.263z"/></g><g><path fill="#ebebeb" d="M249.151 11.942a5.743 5.743 0 0 1 5.736 5.736V303.01a5.743 5.743 0 0 1-5.736 5.737H46.164a5.743 5.743 0 0 1-5.738-5.737V17.678a5.743 5.743 0 0 1 5.738-5.736zm6 291.068V17.678c0-3.308-2.693-5.999-6-5.999H46.164c-3.308 0-6 2.691-6 6v285.33c0 3.309 2.692 6.001 6 6.001H249.15c3.307 0 6-2.692 6-6z"/></g><g><path fill="#ebebeb" d="M476.523 11.942a5.744 5.744 0 0 1 5.739 5.736V303.01a5.744 5.744 0 0 1-5.739 5.737H273.537a5.743 5.743 0 0 1-5.736-5.737V17.678a5.743 5.743 0 0 1 5.736-5.736zm6.002 291.068V17.678c0-3.308-2.693-5.999-6.002-5.999H273.537c-3.308 0-6 2.691-6 6v285.33c0 3.309 2.692 6.001 6 6.001h202.986a6.008 6.008 0 0 0 6.002-6z"/></g></g><g><path fill="#f0f0f0" d="M414.103 107.711L299.685 69.066l-.089-.09-60.449-61.958-48.476 44.278-.71-.776L239.19 5.557l61.072 62.595 113.445 38.316 46.563-64.057.85.618z"/></g><g><g><path fill="#f0f0f0" d="M58.46 202.825a5.655 5.655 0 1 1-11.31-.001 5.655 5.655 0 0 1 11.31.001z"/></g><g><path fill="#f0f0f0" d="M244.823 6.287a5.656 5.656 0 1 1-11.312 0 5.656 5.656 0 0 1 11.312 0z"/></g><g><path fill="#f0f0f0" d="M466.349 42.72a5.655 5.655 0 1 1-11.31 0 5.655 5.655 0 0 1 11.31 0z"/></g><g><path fill="#f0f0f0" d="M466.84 341.161a5.655 5.655 0 1 1-11.31-.001 5.655 5.655 0 0 1 11.31.001z"/></g><g><path fill="#f0f0f0" d="M305.628 68.61a5.655 5.655 0 1 1-11.31-.002 5.655 5.655 0 0 1 11.31.001z"/></g></g><g><path fill="#f0f0f0" d="M201.154 341.306l-.438-.083-141.829-26.78.195-1.033 141.39 26.697L299.48 68.429l.987.36z"/></g><g transform="rotate(-48.475 89.5 115.5)"><path fill="#f0f0f0" d="M88.996 147.771V83.133h1.052v64.638z"/></g><g><path fill="#f0f0f0" d="M460.91 341.608l-70.12-43.457 1.53-.42 73.671-70.877-52.567-119.553.961-.423 52.864 120.225-.265.254-73.825 71.026 68.304 42.331z"/></g><g><path fill="#f0f0f0" d="M59.426 314.211l-.883-.57 42.38-65.464-48.859-45.323.356-.385 61.198-66.257.364.211 278.87 161.324-.528.91L113.82 137.544l-60.27 65.253 48.736 45.21z"/></g></g><g><g><path fill="#f5f5f5" d="M58.984 391.465c0-6.574 91.253-11.904 203.818-11.904 112.566 0 203.818 5.33 203.818 11.904s-91.252 11.903-203.818 11.903c-112.565 0-203.818-5.33-203.818-11.903z"/></g></g><g><g><g><g><g><path fill="#407bff" d="M253.341 268.36c2.828.234 5.63.328 8.403.286 23.76-.347 45.502-10.542 60.921-26.933 12.782-13.587 21.223-31.438 22.88-51.474.043-.519.08-1.038.115-1.552.691-10.72-.628-21.114-3.637-30.81v-.005c-9.214-29.64-34.219-52.788-65.928-58.678a87.303 87.303 0 0 0-8.672-1.157 85.398 85.398 0 0 0-20.788.806c-19.923 3.228-37.752 13.411-50.649 28.167-11.59 13.27-19.202 30.23-20.766 49.147-.838 10.135.129 20.002 2.63 29.279 9.11 33.805 38.59 59.874 75.491 62.925z"/></g></g><g opacity=".7"><g opacity=".7"><path fill="#fff" d="M253.341 268.36c2.828.234 5.63.328 8.403.286 23.76-.347 45.502-10.542 60.921-26.933 12.782-13.587 21.223-31.438 22.88-51.474.043-.519.08-1.038.115-1.552.691-10.72-.628-21.114-3.637-30.81v-.005c-9.214-29.64-34.219-52.788-65.928-58.678a87.303 87.303 0 0 0-8.672-1.157 85.398 85.398 0 0 0-20.788.806c-19.923 3.228-37.752 13.411-50.649 28.167-11.59 13.27-19.202 30.23-20.766 49.147-.838 10.135.129 20.002 2.63 29.279 9.11 33.805 38.59 59.874 75.491 62.925z"/></g></g><g><g><path fill="#407bff" d="M196.381 204.04c-.275 1.588-2.295 2.159-3.923 2.364-2.444.301-4.887.61-7.33.911-1.154-3.036-4.748-3.062-7.277-1.88 9.108 33.806 38.59 59.875 75.49 62.926 2.828.233 5.63.327 8.404.285a2.49 2.49 0 0 0 .137-.21c1.273-2.239-.575-4.221-1.563-6.057-.223-.415-2.318-5.708-1.623-5.722a22.615 22.615 0 0 1-6.656-.861c-.163-.047-.342-.106-.427-.254-.203-.35.285-.691.678-.784 1.006-.235 2.052-.29 3.041-.586.99-.296 1.965-.9 2.349-1.859.385-.964.102-2.069.321-3.084.27-1.237 1.278-2.212 2.42-2.76 1.103-.53 2.345-.722 3.53-.941-2.582-1.406-.703-4.335-2.728-6.292-.65-.629-1.599-1.397-1.198-2.209.38-.771 1.746-.76 1.915-1.604.12-.59-.502-1.075-1.089-1.209-.588-.132-1.23-.085-1.756-.376-.74-.41-.988-1.504-.497-2.194.442-.618 1.258-.808 1.928-1.166.672-.357 1.276-1.184.874-1.83a1.2 1.2 0 0 0-.388-.363c-1.094-.677-2.526-.112-3.595.604-1.07.717-2.152 1.617-3.439 1.604-.294-.484-.087-1.201.422-1.453.176-.088.383-.128.521-.269.3-.307.075-.811-.13-1.188a7.7 7.7 0 0 1-.59-5.868l7.824.149c.065-.587.13-.937.75-1.115-1.75-2.09-3.658-4.03-5.206-6.307-.186-.272-.388-.564-.699-.675-.324-.116-.684-.005-1.025-.052-1.129-.154-1.31-1.697-1.195-2.829-.159-.344-.714-.195-.922.12-.208.316-.257.727-.512 1.008-.38.418-1.055.374-1.583.171-1.834-.706-2.804-3.086-1.986-4.873.098-.212.225-.426.428-.541.447-.256.987.058 1.494.149 1.996.36 1.692-1.847 1.21-2.891-.65-1.414-2.594-2.326-4.006-2.688-1.65-.422-12.654-2.525-10.84-6.113.17-.336.502-.564.848-.716 1.048-.458 2.259-.329 3.36-.64 1.101-.31 2.17-1.457 1.69-2.495-.192-.417-.59-.703-.814-1.104-.621-1.118.336-2.568-.105-3.769-.203-.552-.672-.958-.967-1.467-.294-.509-.343-1.275.159-1.58.563-.342 1.335.166 1.935-.103.63-.283.582-1.315.013-1.707-.57-.391-1.373-.242-1.946.145-.3.202-.58.47-.939.52-.643.084-1.122-.555-1.45-1.114-.522-.888-1.042-1.778-1.564-2.667-.588.011-1.04.55-1.241 1.104-.2.554-.24 1.16-.47 1.707-1.106 2.635-5.118 2.322-4.599 5.93 1.082-.13 2.081 1.088 1.742 2.123-.419 1.276-2.335 1.976-2.067 3.293.094.458.458.829.531 1.29.203 1.274-1.767 1.742-2.613 2.032-2.805.962-2.996-.88-5.427-.989-1.112-.05-2.11.7-3.216.821-1.019.113-2.031-.318-3.054-.258-2.811.164-1.401 3.974-1.203 5.63-1.51-1.006-3.529.168-4.73 1.524-1.846 2.083-1.674 1.716-4.118 1.808-.646.024-1.322.343-1.584.934-.455 1.028.512 2.136.537 3.26.012.54-.197 1.07-.148 1.608.13 1.41 1.8 2.024 2.814 3.015a3.873 3.873 0 0 1 1.084 3.404 8.091 8.091 0 0 1-2.16-.155c-.422-.817-.844-1.633-1.268-2.45-.373-.723-.77-1.471-1.428-1.95-.367-.268-.816-.451-1.083-.82-.533-.732-.102-1.737.024-2.634.307-2.175-.786-5.834-1.318-7.992-.568-2.3-2.095-3.204-2.65-5.327-.098-.375-.62-.497-.957-.305-.336.19-.51.577-.606.952a4.02 4.02 0 0 0 .233 2.631c-.487-1.072-3.2 1.75-3.362 2.286-.27.876.313 2.127.291 3.039-.057 2.26-.602 3.53-2.939 1.867-.894-.636-2.037-1.386-2.984-.833.202.615-.21 1.306-.788 1.598-.577.292-1.264.265-1.9.144-.428-.082-.877-.222-1.152-.56-.148-.181-.238-.411-.422-.555-.6-.467-1.355.342-1.68 1.029"/></g><g><path fill="#407bff" d="M299.624 136.846c.473.74-.027 1.705-.565 2.398-.539.694-1.169 1.509-.932 2.354l3.042.277c.191.018.403.047.524.195.123.15.106.367.083.559-.08.652-.16 1.302-.238 1.954-.641.5-1.258-1.074-2.055-.917-.352.069-.532.448-.724.751-1.648 2.582-4.52.648-6.06-.695-1.784-1.558-4.371-1.659-6.744-1.685-.843-.006-1.79.022-2.388.628-.59.587-.624 1.517-.921 2.305-.51 1.362-1.818 2.255-2.558 3.51-2.586 4.386 2.064 7.757 6.016 6.564 2.05-.618 1.697-.977 3.792-.375.872.25 1.943.035 2.478 1.004.567 1.028-.227 2.387-1.426 2.375-1.174-.012-2.306.171-3.368-.392.399 1.386-.04 2.967-.151 4.44-1.342-.314-2.67 1.347-2.069 2.586.667.01 1.57.261 1.514.926-.016.195-.123.368-.235.528-.464.668-1.06 1.244-1.46 1.954-.613 1.093-.609 4.364-2.173 4.756-.275.07-.568.046-.839.132-.576.184-.901.873-.767 1.462.135.59.656 1.045 1.24 1.201.39.104.805.094 1.185.226 2.022.704.247 2.7.73 3.688.233.473 3.609 2.608 4.031 2.681-1.188.815-2.234 2.09-2.277 3.591-.047 1.644 1.203 2.441 2.767 2.93 1.651.516 3.653.688 4.843 1.147.639.247 1.42.476 1.958.051.672-.53.525-1.781 1.3-2.145.247-.116.53-.105.8-.13 1.589-.152 2.857-1.823 2.575-3.393.368-.478 1.084-.433 1.687-.417.604.017 1.367-.182 1.454-.779.1-.686-.778-1.068-1.47-1.109a7.64 7.64 0 0 0-2.11.168c-.516.115-1.072.28-1.553.063-.365-.164-.606-.514-.814-.854-.501-.821-.94-1.746-.86-2.705.08-.96.853-1.917 1.815-1.883.258.01.517.087.771.046.655-.106.94-.911.901-1.573-.04-.662-.265-1.337-.083-1.976.18-.639 1.066-1.114 1.508-.619.37-.848.617-2.082-.215-2.491-.266-.13-.577-.123-.872-.151-1.828-.172-4.298-2.646-2.267-4.054 1.335-.926 3.491 1.005 4.665-.748.56-.84.214-2.06.79-2.888.342-.246.741.251.817.666a3.903 3.903 0 0 1-1.273 3.595c1.026.599 2.651-.084 3.348.878.69.95-.331 2.603.58 3.345.259.213.609.27.943.319 1.643.243 4.714-.037 4.815 2.318.011.286-.032.579.051.851.252.83 1.38.909 2.242.823.444-.848-.134-1.838-.517-2.715-.383-.878-.356-2.221.575-2.44.668-.157 1.445.415 2.007.024.26-.181.38-.528.661-.678.68-.36 1.253.686 1.985.92 1.01.32 1.774-1.003 1.775-2.062.001-1.06-.264-2.266.427-3.069.22-.254.513-.433.754-.666.742-.72.888-1.839.993-2.867.167-1.642 6.648 2.611 7.057 2.68 3.117.519 5.03-2.57 7.164-4.263 1.125-.883 2.423-1.494 3.72-2.106-8.872-28.537-32.768-50.947-61.87-57.82-1.304-.308-2.652-.66-3.967-.769.402 1.986 1.628 5.122.296 7.007-1.692 2.394-5.276.298-6.594 3.106-.044.716 1.15.598 1.702 1.058.307.254.384.684.536 1.053.153.369.51.74.892.625.444.664-.247 1.478-.835 2.018-.69.634-1.337 1.371-1.599 2.272-.544 1.878.69 3.743 1.48 5.53.655 1.477 1.022 3.062 1.387 4.635.011-.746 1.069-1.045 1.735-.707.667.338 1.074 1.02 1.614 1.539.92.882 2.108.347 3.099 1.102 1.233.932 2.02 2.61 3.542 2.862 1.845.31 3.186-1.658 4.005-3.334 2.027 1.074 3.28 3.665 5.572 3.835.882.068 1.734-.265 2.554-.588 1.68-.66 3.36-1.322 5.034-1.984.697-.275 1.462-.553 2.166-.3.833.29 1.255 1.195 1.585 2.003l1.085 2.64c.146.366.297.762.202 1.138-.103.407-.453.687-.806.916a9.092 9.092 0 0 1-6.522 1.332c.22 3.04.816 6.057 1.78 8.952-1.715-.444-3.687.128-5.274-.533"/></g><g><path fill="#407bff" d="M280.083 206.225c-.642.765-1.579 1.348-2.578 1.322-.616-.015-1.203-.256-1.813-.342-.61-.086-1.324.034-1.66.55-.43.659-.023 1.524.383 2.198.33.546.716 1.138 1.33 1.313.45.128.935.002 1.396.077.913.15 1.499 1.013 2.104 1.712.607.698 1.597 1.327 2.403.874.531-.298.76-.969 1.274-1.294 1.256-.791 2.802.93 3.94.28 1.349-.768.855-2.963.295-4.2-.565-1.252-1.717-2.218-2.683-3.155-2.732-2.652-2.35-1.769-4.391.665z"/></g><g><path fill="#407bff" d="M322.696 241.644c13.444-13.322 21.306-32.736 22.849-51.405.043-.519.08-1.038.115-1.552-2.592-2.675-7.756-4.38-9.108.43-.533-.04-.643-.356-1.048-.657-.637-.472-1.533.168-1.89.876-1.172 2.323-1.333 5.24-4.553 4.613-3.84-.747-1.235-2.39-2.486-4.508-.181-.307-.5-.502-.75-.755-.917-.93-.796-2.429-.61-3.722.735.384 1.77-.047 2.017-.84.092-.298.094-.642.296-.882.434-.513 1.332-.032 1.54.608.208.64.048 1.345.188 2.003.139.658.857 1.303 1.432.953.24-.146.368-.421.45-.69a3.658 3.658 0 0 0-.66-3.332c.634-.167 1.11-.8 1.096-1.456a1.519 1.519 0 0 0-1.158-1.406c-.935-.204-2.27.348-2.65-.532a2.124 2.124 0 0 1-.822 2.055c-2.48 1.8-8.054.196-7.499 5.477.09.848.386 1.674.367 2.528-.02.852-.488 1.795-1.325 1.958 1.505 1.214.954 3.995 2.57 5.057.762.499 1.869.381 2.508-.266.106-.109.208-.234.353-.278.294-.092.568.185.87.25.523.112.976-.43 1.511-.46.747-.042 1.153.85 1.285 1.586.132.735.33 1.636 1.05 1.838.246.068.51.034.756.104.494.138.791.675.819 1.188.027.514-.158 1.01-.34 1.491-.31.313-.865.122-1.164-.202-.3-.323-.479-.754-.825-1.028-.193-.153-4.66.19-4.52-.133-.664 1.538-1 4.904-3.308 4.046-.815-.303-1.646-.855-2.48-.607.396-1.087.78-2.178 1.15-3.273-.337-.3-.862.11-1.005.538-.143.428-.166.947-.527 1.218-.253.19-.597.193-.913.186l-3.092-.06c-1.118-.023-2.405.03-3.102.905-.793.994-.337 2.52.51 3.47.202.229.44.48.418.785-.018.275-.245.482-.444.675-1.05 1.008-1.745 2.476-1.518 3.915.228 1.437 1.56 2.712 3.01 2.582.557-.05 1.25-.236 1.578.217.193.266.188.696.487.831.377.17.694-.303.965-.616.49-.565 1.396-.712 2.04-.33.329.195 1.36 3.37 1.092 3.83-.617 1.056-3.543.64-4.688.691-.442.02-.936.064-1.226.398-.454.521-.086 1.352.421 1.82.508.47 1.168.835 1.42 1.479.147.373.132.788.113 1.19-.038.812-.12 1.722-.74 2.251-.288.246-.664.377-.953.623-.662.563-.708 1.582-.478 2.42.23.836.68 1.609.84 2.462.34 1.817-.657 3.789.065 5.49.348.823 1.435 1.479 2.116.9.587-.5.582-1.681 1.348-1.767.735-.084 1.645 1.769 2.255 2.128.482.285 1.456-.185 2.342.457.719.52.865 1.67 1.64 2.235z"/></g><g><path fill="#407bff" d="M208.585 127.79c.756-.962 1.232-2.069 2.651-2.316 1.933-.337 2.665.747 1.819 2.58-.076.163-.155.342-.114.516.133.558.967.232 1.443-.09 1.112-.75 2.523-.7 3.71-.178.282.124.805-5.18.53-5.789-.966-2.132-5.435-1.128-4.52-3.448 1.673-.036 3.387.182 5.067.305l.275-2.421c-.068.601 3.056.477 3.41.298 1.374-.698 1.002-3.202 3.47-2.796 3.122.515 3.301 6.652-.25 5.652-.85 1.801-1.173 3.957-1.265 5.945-.642-.002-1.29-.012-1.932-.02a1.745 1.745 0 0 0-.236 1.56c1.542 1.085 3.763 1.105 5.33.05 1.014.778 2.448.033 3.491-.706 1.463 2.35 5.653 2.023 6.732-.526 1.081-2.556-1.605-5.79-4.312-5.2a6.201 6.201 0 0 0-1.317-3.567c3.354.114 6.654-2.17 7.722-5.351.543-1.599.665-3.535 2.014-4.55.599-.456 1.358-.644 1.984-1.06 1.4-.941 1.811-2.784 2.031-4.46a50.54 50.54 0 0 0 .318-3.375c-19.924 3.228-37.753 13.411-50.65 28.167-.068.593-.106 1.207.127 1.742.44.994 1.625 1.381 2.679 1.658 4.099 1.082 6.72.847 9.56-2.341.082-.09.158-.184.233-.279z"/></g></g><g opacity=".4"><g opacity=".4"><path fill="#fff" d="M196.381 204.04c-.275 1.588-2.295 2.159-3.923 2.364-2.444.301-4.887.61-7.33.911-1.154-3.036-4.748-3.062-7.277-1.88 9.108 33.806 38.59 59.875 75.49 62.926 2.828.233 5.63.327 8.404.285a2.49 2.49 0 0 0 .137-.21c1.273-2.239-.575-4.221-1.563-6.057-.223-.415-2.318-5.708-1.623-5.722a22.615 22.615 0 0 1-6.656-.861c-.163-.047-.342-.106-.427-.254-.203-.35.285-.691.678-.784 1.006-.235 2.052-.29 3.041-.586.99-.296 1.965-.9 2.349-1.859.385-.964.102-2.069.321-3.084.27-1.237 1.278-2.212 2.42-2.76 1.103-.53 2.345-.722 3.53-.941-2.582-1.406-.703-4.335-2.728-6.292-.65-.629-1.599-1.397-1.198-2.209.38-.771 1.746-.76 1.915-1.604.12-.59-.502-1.075-1.089-1.209-.588-.132-1.23-.085-1.756-.376-.74-.41-.988-1.504-.497-2.194.442-.618 1.258-.808 1.928-1.166.672-.357 1.276-1.184.874-1.83a1.2 1.2 0 0 0-.388-.363c-1.094-.677-2.526-.112-3.595.604-1.07.717-2.152 1.617-3.439 1.604-.294-.484-.087-1.201.422-1.453.176-.088.383-.128.521-.269.3-.307.075-.811-.13-1.188a7.7 7.7 0 0 1-.59-5.868l7.824.149c.065-.587.13-.937.75-1.115-1.75-2.09-3.658-4.03-5.206-6.307-.186-.272-.388-.564-.699-.675-.324-.116-.684-.005-1.025-.052-1.129-.154-1.31-1.697-1.195-2.829-.159-.344-.714-.195-.922.12-.208.316-.257.727-.512 1.008-.38.418-1.055.374-1.583.171-1.834-.706-2.804-3.086-1.986-4.873.098-.212.225-.426.428-.541.447-.256.987.058 1.494.149 1.996.36 1.692-1.847 1.21-2.891-.65-1.414-2.594-2.326-4.006-2.688-1.65-.422-12.654-2.525-10.84-6.113.17-.336.502-.564.848-.716 1.048-.458 2.259-.329 3.36-.64 1.101-.31 2.17-1.457 1.69-2.495-.192-.417-.59-.703-.814-1.104-.621-1.118.336-2.568-.105-3.769-.203-.552-.672-.958-.967-1.467-.294-.509-.343-1.275.159-1.58.563-.342 1.335.166 1.935-.103.63-.283.582-1.315.013-1.707-.57-.391-1.373-.242-1.946.145-.3.202-.58.47-.939.52-.643.084-1.122-.555-1.45-1.114-.522-.888-1.042-1.778-1.564-2.667-.588.011-1.04.55-1.241 1.104-.2.554-.24 1.16-.47 1.707-1.106 2.635-5.118 2.322-4.599 5.93 1.082-.13 2.081 1.088 1.742 2.123-.419 1.276-2.335 1.976-2.067 3.293.094.458.458.829.531 1.29.203 1.274-1.767 1.742-2.613 2.032-2.805.962-2.996-.88-5.427-.989-1.112-.05-2.11.7-3.216.821-1.019.113-2.031-.318-3.054-.258-2.811.164-1.401 3.974-1.203 5.63-1.51-1.006-3.529.168-4.73 1.524-1.846 2.083-1.674 1.716-4.118 1.808-.646.024-1.322.343-1.584.934-.455 1.028.512 2.136.537 3.26.012.54-.197 1.07-.148 1.608.13 1.41 1.8 2.024 2.814 3.015a3.873 3.873 0 0 1 1.084 3.404 8.091 8.091 0 0 1-2.16-.155c-.422-.817-.844-1.633-1.268-2.45-.373-.723-.77-1.471-1.428-1.95-.367-.268-.816-.451-1.083-.82-.533-.732-.102-1.737.024-2.634.307-2.175-.786-5.834-1.318-7.992-.568-2.3-2.095-3.204-2.65-5.327-.098-.375-.62-.497-.957-.305-.336.19-.51.577-.606.952a4.02 4.02 0 0 0 .233 2.631c-.487-1.072-3.2 1.75-3.362 2.286-.27.876.313 2.127.291 3.039-.057 2.26-.602 3.53-2.939 1.867-.894-.636-2.037-1.386-2.984-.833.202.615-.21 1.306-.788 1.598-.577.292-1.264.265-1.9.144-.428-.082-.877-.222-1.152-.56-.148-.181-.238-.411-.422-.555-.6-.467-1.355.342-1.68 1.029"/></g><g opacity=".4"><path fill="#fff" d="M299.624 136.846c.473.74-.027 1.705-.565 2.398-.539.694-1.169 1.509-.932 2.354l3.042.277c.191.018.403.047.524.195.123.15.106.367.083.559-.08.652-.16 1.302-.238 1.954-.641.5-1.258-1.074-2.055-.917-.352.069-.532.448-.724.751-1.648 2.582-4.52.648-6.06-.695-1.784-1.558-4.371-1.659-6.744-1.685-.843-.006-1.79.022-2.388.628-.59.587-.624 1.517-.921 2.305-.51 1.362-1.818 2.255-2.558 3.51-2.586 4.386 2.064 7.757 6.016 6.564 2.05-.618 1.697-.977 3.792-.375.872.25 1.943.035 2.478 1.004.567 1.028-.227 2.387-1.426 2.375-1.174-.012-2.306.171-3.368-.392.399 1.386-.04 2.967-.151 4.44-1.342-.314-2.67 1.347-2.069 2.586.667.01 1.57.261 1.514.926-.016.195-.123.368-.235.528-.464.668-1.06 1.244-1.46 1.954-.613 1.093-.609 4.364-2.173 4.756-.275.07-.568.046-.839.132-.576.184-.901.873-.767 1.462.135.59.656 1.045 1.24 1.201.39.104.805.094 1.185.226 2.022.704.247 2.7.73 3.688.233.473 3.609 2.608 4.031 2.681-1.188.815-2.234 2.09-2.277 3.591-.047 1.644 1.203 2.441 2.767 2.93 1.651.516 3.653.688 4.843 1.147.639.247 1.42.476 1.958.051.672-.53.525-1.781 1.3-2.145.247-.116.53-.105.8-.13 1.589-.152 2.857-1.823 2.575-3.393.368-.478 1.084-.433 1.687-.417.604.017 1.367-.182 1.454-.779.1-.686-.778-1.068-1.47-1.109a7.64 7.64 0 0 0-2.11.168c-.516.115-1.072.28-1.553.063-.365-.164-.606-.514-.814-.854-.501-.821-.94-1.746-.86-2.705.08-.96.853-1.917 1.815-1.883.258.01.517.087.771.046.655-.106.94-.911.901-1.573-.04-.662-.265-1.337-.083-1.976.18-.639 1.066-1.114 1.508-.619.37-.848.617-2.082-.215-2.491-.266-.13-.577-.123-.872-.151-1.828-.172-4.298-2.646-2.267-4.054 1.335-.926 3.491 1.005 4.665-.748.56-.84.214-2.06.79-2.888.342-.246.741.251.817.666a3.903 3.903 0 0 1-1.273 3.595c1.026.599 2.651-.084 3.348.878.69.95-.331 2.603.58 3.345.259.213.609.27.943.319 1.643.243 4.714-.037 4.815 2.318.011.286-.032.579.051.851.252.83 1.38.909 2.242.823.444-.848-.134-1.838-.517-2.715-.383-.878-.356-2.221.575-2.44.668-.157 1.445.415 2.007.024.26-.181.38-.528.661-.678.68-.36 1.253.686 1.985.92 1.01.32 1.774-1.003 1.775-2.062.001-1.06-.264-2.266.427-3.069.22-.254.513-.433.754-.666.742-.72.888-1.839.993-2.867.167-1.642 6.648 2.611 7.057 2.68 3.117.519 5.03-2.57 7.164-4.263 1.125-.883 2.423-1.494 3.72-2.106-8.872-28.537-32.768-50.947-61.87-57.82-1.304-.308-2.652-.66-3.967-.769.402 1.986 1.628 5.122.296 7.007-1.692 2.394-5.276.298-6.594 3.106-.044.716 1.15.598 1.702 1.058.307.254.384.684.536 1.053.153.369.51.74.892.625.444.664-.247 1.478-.835 2.018-.69.634-1.337 1.371-1.599 2.272-.544 1.878.69 3.743 1.48 5.53.655 1.477 1.022 3.062 1.387 4.635.011-.746 1.069-1.045 1.735-.707.667.338 1.074 1.02 1.614 1.539.92.882 2.108.347 3.099 1.102 1.233.932 2.02 2.61 3.542 2.862 1.845.31 3.186-1.658 4.005-3.334 2.027 1.074 3.28 3.665 5.572 3.835.882.068 1.734-.265 2.554-.588 1.68-.66 3.36-1.322 5.034-1.984.697-.275 1.462-.553 2.166-.3.833.29 1.255 1.195 1.585 2.003l1.085 2.64c.146.366.297.762.202 1.138-.103.407-.453.687-.806.916a9.092 9.092 0 0 1-6.522 1.332c.22 3.04.816 6.057 1.78 8.952-1.715-.444-3.687.128-5.274-.533"/></g><g opacity=".4"><path fill="#fff" d="M280.083 206.225c-.642.765-1.579 1.348-2.578 1.322-.616-.015-1.203-.256-1.813-.342-.61-.086-1.324.034-1.66.55-.43.659-.023 1.524.383 2.198.33.546.716 1.138 1.33 1.313.45.128.935.002 1.396.077.913.15 1.499 1.013 2.104 1.712.607.698 1.597 1.327 2.403.874.531-.298.76-.969 1.274-1.294 1.256-.791 2.802.93 3.94.28 1.349-.768.855-2.963.295-4.2-.565-1.252-1.717-2.218-2.683-3.155-2.732-2.652-2.35-1.769-4.391.665z"/></g><g opacity=".4"><path fill="#fff" d="M322.696 241.644c13.444-13.322 21.306-32.736 22.849-51.405.043-.519.08-1.038.115-1.552-2.592-2.675-7.756-4.38-9.108.43-.533-.04-.643-.356-1.048-.657-.637-.472-1.533.168-1.89.876-1.172 2.323-1.333 5.24-4.553 4.613-3.84-.747-1.235-2.39-2.486-4.508-.181-.307-.5-.502-.75-.755-.917-.93-.796-2.429-.61-3.722.735.384 1.77-.047 2.017-.84.092-.298.094-.642.296-.882.434-.513 1.332-.032 1.54.608.208.64.048 1.345.188 2.003.139.658.857 1.303 1.432.953.24-.146.368-.421.45-.69a3.658 3.658 0 0 0-.66-3.332c.634-.167 1.11-.8 1.096-1.456a1.519 1.519 0 0 0-1.158-1.406c-.935-.204-2.27.348-2.65-.532a2.124 2.124 0 0 1-.822 2.055c-2.48 1.8-8.054.196-7.499 5.477.09.848.386 1.674.367 2.528-.02.852-.488 1.795-1.325 1.958 1.505 1.214.954 3.995 2.57 5.057.762.499 1.869.381 2.508-.266.106-.109.208-.234.353-.278.294-.092.568.185.87.25.523.112.976-.43 1.511-.46.747-.042 1.153.85 1.285 1.586.132.735.33 1.636 1.05 1.838.246.068.51.034.756.104.494.138.791.675.819 1.188.027.514-.158 1.01-.34 1.491-.31.313-.865.122-1.164-.202-.3-.323-.479-.754-.825-1.028-.193-.153-4.66.19-4.52-.133-.664 1.538-1 4.904-3.308 4.046-.815-.303-1.646-.855-2.48-.607.396-1.087.78-2.178 1.15-3.273-.337-.3-.862.11-1.005.538-.143.428-.166.947-.527 1.218-.253.19-.597.193-.913.186l-3.092-.06c-1.118-.023-2.405.03-3.102.905-.793.994-.337 2.52.51 3.47.202.229.44.48.418.785-.018.275-.245.482-.444.675-1.05 1.008-1.745 2.476-1.518 3.915.228 1.437 1.56 2.712 3.01 2.582.557-.05 1.25-.236 1.578.217.193.266.188.696.487.831.377.17.694-.303.965-.616.49-.565 1.396-.712 2.04-.33.329.195 1.36 3.37 1.092 3.83-.617 1.056-3.543.64-4.688.691-.442.02-.936.064-1.226.398-.454.521-.086 1.352.421 1.82.508.47 1.168.835 1.42 1.479.147.373.132.788.113 1.19-.038.812-.12 1.722-.74 2.251-.288.246-.664.377-.953.623-.662.563-.708 1.582-.478 2.42.23.836.68 1.609.84 2.462.34 1.817-.657 3.789.065 5.49.348.823 1.435 1.479 2.116.9.587-.5.582-1.681 1.348-1.767.735-.084 1.645 1.769 2.255 2.128.482.285 1.456-.185 2.342.457.719.52.865 1.67 1.64 2.235z"/></g><g opacity=".4"><path fill="#fff" d="M208.585 127.79c.756-.962 1.232-2.069 2.651-2.316 1.933-.337 2.665.747 1.819 2.58-.076.163-.155.342-.114.516.133.558.967.232 1.443-.09 1.112-.75 2.523-.7 3.71-.178.282.124.805-5.18.53-5.789-.966-2.132-5.435-1.128-4.52-3.448 1.673-.036 3.387.182 5.067.305l.275-2.421c-.068.601 3.056.477 3.41.298 1.374-.698 1.002-3.202 3.47-2.796 3.122.515 3.301 6.652-.25 5.652-.85 1.801-1.173 3.957-1.265 5.945-.642-.002-1.29-.012-1.932-.02a1.745 1.745 0 0 0-.236 1.56c1.542 1.085 3.763 1.105 5.33.05 1.014.778 2.448.033 3.491-.706 1.463 2.35 5.653 2.023 6.732-.526 1.081-2.556-1.605-5.79-4.312-5.2a6.201 6.201 0 0 0-1.317-3.567c3.354.114 6.654-2.17 7.722-5.351.543-1.599.665-3.535 2.014-4.55.599-.456 1.358-.644 1.984-1.06 1.4-.941 1.811-2.784 2.031-4.46a50.54 50.54 0 0 0 .318-3.375c-19.924 3.228-37.753 13.411-50.65 28.167-.068.593-.106 1.207.127 1.742.44.994 1.625 1.381 2.679 1.658 4.099 1.082 6.72.847 9.56-2.341.082-.09.158-.184.233-.279z"/></g></g></g></g></g><g><g><g><g><path fill="#407bff" d="M52.806 94.025c0 4.635 2.523 8.69 6.27 10.849a12.421 12.421 0 0 0 6.251 1.671c2.912 0 5.59-.991 7.714-2.662a12.485 12.485 0 0 0 4.807-9.858c0-6.914-5.607-12.52-12.52-12.52-6.916 0-12.522 5.606-12.522 12.52z"/></g><g opacity=".3" transform="rotate(-9.217 65.5 94)"><path fill="#fff" d="M53.519 94.026c0-6.521 5.286-11.807 11.807-11.807 6.52 0 11.807 5.286 11.807 11.807 0 6.52-5.286 11.807-11.807 11.807-6.52 0-11.807-5.286-11.807-11.807z"/></g><g><path fill="#407bff" d="M58.308 93.828a1.906 1.906 0 0 0 1.449 1.749s-.3.795.051 1.75c.354.96 2.285.96 2.285.96s.166.514.878.592c.04.057.088.103.124.15.083.124.176.255.275.379.239 1.9.192 3.904-.737 4.921.005.006.016.01.021.021-.81.089-1.625.197-2.43.327-.384.057-.768.124-1.147.197a12.42 12.42 0 0 0 6.25 1.671c2.912 0 5.59-.991 7.714-2.662a81.975 81.975 0 0 0-3.4.01c-.006-.016-.011-.031-.02-.046-1.35-.224-2.005-.857-2.274-1.662-.136-.4-.166-.841-.15-1.297a4.133 4.133 0 0 0 1.037-.343 4.297 4.297 0 0 0 2.129-2.33c.056-.141.103-.286.145-.437.28-1.065.4-2.41.27-3.727.348-.207.726-.571.851-1.204.25-1.272-.888-1.574-.888-1.574s1.242-.202 1.288-1.754c.051-1.552-1.288-1.552-1.288-1.552s.457-.66-.431-1.885c-.882-1.219-2.112-.472-2.112-.472s-.934-1.47-2.455-1.11c-1.527.363-1.916 1.26-1.916 1.26s0-.897-1.734-.399c-1.734.504-1.521 2.497-1.521 2.497s-1.163-.592-1.765.659c-.603 1.251.7 3.442.7 3.442s-1.349.363-1.199 1.869z"/></g><g opacity=".7"><path fill="#fff" d="M52.806 94.025c0 4.635 2.523 8.69 6.27 10.849a12.421 12.421 0 0 0 6.251 1.671c2.912 0 5.59-.991 7.714-2.662a12.485 12.485 0 0 0 4.807-9.858c0-6.914-5.607-12.52-12.52-12.52-6.916 0-12.522 5.606-12.522 12.52z"/></g></g><g><g><path fill="#407bff" d="M47.855 313.926c0-6.147 4.983-11.13 11.13-11.13 6.146 0 11.129 4.983 11.129 11.13 0 6.146-4.983 11.13-11.13 11.13-6.146 0-11.13-4.984-11.13-11.13z"/></g><g opacity=".3"><path fill="#fff" d="M69.48 313.928c0 2.422-.82 4.654-2.2 6.43a10.497 10.497 0 0 1-8.297 4.062 10.45 10.45 0 0 1-5.91-1.823 10.479 10.479 0 0 1-4.582-8.67c0-5.796 4.697-10.497 10.492-10.497 5.797 0 10.498 4.701 10.498 10.498z"/></g><g><path fill="#407bff" d="M67.28 320.359a10.497 10.497 0 0 1-8.297 4.06 10.45 10.45 0 0 1-5.91-1.822c.35-.798.572-1.273.572-1.273 1.31-.42 2.644-.743 3.996-.983.342-.305.794-.545 1.375-.683.282-.844.116-1.767-.079-2.39a4.155 4.155 0 0 1-1.07-1.057 2.997 2.997 0 0 1-.568-.558c-.322-.134-2.555-1.172-2.67-4.832a4.5 4.5 0 0 1 .009-.447c-.693-.069-1.413.148-.915 1.555.863 2.428-.041 3.7-.041 3.7.041-.78-.079-1.605-.079-1.605 0 2.51-1.356 2.671-1.356 2.671s.863-.904-.41-3.696c-1.274-2.796-.905-6.575 1.517-6.736 1.301-.088 2.16.53 2.682 1.126 1.37-1.218 3.441-1.436 4.756-.554 0 0 2.179-.53 2.792.041.134.125.032.411-.23.79.553.369 1.019.932 1.218 1.8.341 1.498-.097 2.647-.595 3.41.29 2.759-.18 4.825-2.372 5.019l-.015.204a6.687 6.687 0 0 0-.008.28c-.01.531.055.91.152 1.178.323.06.632.147.918.249 1.966-.005 4.162.207 4.162.207l.023.014c.125.07.272.185.443.332z"/></g><g opacity=".7"><path fill="#fff" d="M47.855 313.926c0-6.147 4.983-11.13 11.13-11.13 6.146 0 11.129 4.983 11.129 11.13 0 6.146-4.983 11.13-11.13 11.13-6.146 0-11.13-4.984-11.13-11.13z"/></g></g><g><g transform="rotate(-45 466.5 227)"><path fill="#407bff" d="M454.336 226.978c0-6.784 5.5-12.284 12.284-12.284 6.785 0 12.284 5.5 12.284 12.284 0 6.785-5.5 12.285-12.284 12.285-6.784 0-12.284-5.5-12.284-12.285z"/></g><g opacity=".3"><path fill="#fff" d="M478.202 226.978a11.52 11.52 0 0 1-1.94 6.418 11.558 11.558 0 0 1-9.642 5.168c-2.673 0-5.133-.906-7.095-2.433a11.554 11.554 0 0 1-4.486-9.153c0-6.397 5.184-11.581 11.58-11.581 6.398 0 11.583 5.184 11.583 11.581z"/></g><g><path fill="#407bff" d="M476.261 233.396a11.558 11.558 0 0 1-9.641 5.168c-2.673 0-5.133-.906-7.095-2.433-.127-.709.016-1.39.067-1.9.142-1.416 1.777-2.557 1.746-3.55-.03-.993-1.675-2.271-.61-2.842 1.065-.57 1.294-2.775.438-4.014-.708-.814-1.228-2.103.066-3.763.804-1.03 1.976-1.518 3.157-1.717.816-.437 1.926-.657 3.428-.494 1.441.154 2.557.571 3.407 1.157a4.965 4.965 0 0 1 1.772 2.185s1.273 2.439.367 5.016c-.58 1.655 1.996 1.558 2.068 3.082.071 1.518-1.207 1.604-.983 2.622.102.47.988.908 1.813 1.483z"/></g><g opacity=".7" transform="rotate(-45 466.5 227)"><path fill="#fff" d="M454.336 226.978c0-6.784 5.5-12.284 12.284-12.284 6.785 0 12.284 5.5 12.284 12.284 0 6.785-5.5 12.285-12.284 12.285-6.784 0-12.284-5.5-12.284-12.285z"/></g></g></g><g><g transform="rotate(-23.438 366.5 125)"><path fill="#407bff" d="M315.663 125.754v-1.05h102.202v1.05z"/></g><g transform="rotate(-31.757 210 83)"><path fill="#407bff" d="M209.835 121.375V45.206h1.051v76.17z"/></g><g transform="rotate(-11.833 151.5 234.5)"><path fill="#407bff" d="M98.25 234.994v-1.051h106.266v1.051z"/></g><g opacity=".8" transform="rotate(-23.438 366.5 125)"><path fill="#fff" d="M315.663 125.754v-1.05h102.202v1.05z"/></g><g transform="rotate(-32.068 362 254.5)"><path fill="#407bff" d="M361.294 310.81V198.092h1.052V310.81z"/></g><g opacity=".8" transform="rotate(-32.068 362 254.5)"><path fill="#fff" d="M361.294 310.81V198.092h1.052V310.81z"/></g><g opacity=".8" transform="rotate(-31.757 210 83)"><path fill="#fff" d="M209.835 121.375V45.206h1.051v76.17z"/></g><g opacity=".8" transform="rotate(-11.833 151.5 234.5)"><path fill="#fff" d="M98.25 234.994v-1.051h106.266v1.051z"/></g><g><path fill="#407bff" d="M114.218 137.107l76.362-85.705 138.384-19.137 84.13 72.85-21.831 196.656-190.288 38.366-101.044-94.991zm277.628 165.619l.377-.076 21.947-197.692.03-.275-84.908-73.525-139.047 19.23-.193.026-76.726 86.115-.108.12-14.4 108.893 101.833 95.733z"/></g><g opacity=".8"><path fill="#fff" d="M114.218 137.107l76.362-85.705 138.384-19.137 84.13 72.85-21.831 196.656-190.288 38.366-101.044-94.991zm277.628 165.619l.377-.076 21.947-197.692.03-.275-84.908-73.525-139.047 19.23-.193.026-76.726 86.115-.108.12-14.4 108.893 101.833 95.733z"/></g><g><g><path fill="#407bff" d="M231.983 115.673l-1.577 9.205-1.577-9.205z"/></g><g><path fill="#407bff" d="M234.97 115.673a4.564 4.564 0 1 1-9.128 0 4.564 4.564 0 0 1 9.128 0z"/></g><g opacity=".3"><path fill="#fff" d="M230.852 112.454c.508.668.107 1.827-.896 2.591-1.003.763-2.228.842-2.735.175-.508-.667-.107-1.827.895-2.59 1.003-.764 2.228-.842 2.736-.176z"/></g></g><g><g><path fill="#407bff" d="M321.458 145.558l-1.577 9.205-1.577-9.205z"/></g><g><path fill="#407bff" d="M315.317 145.558a4.564 4.564 0 1 1 9.128 0 4.564 4.564 0 0 1-9.128 0z"/></g><g opacity=".3"><path fill="#fff" d="M320.327 142.34c.508.666.108 1.826-.895 2.59-1.003.763-2.228.842-2.736.175s-.107-1.826.896-2.59c1.003-.764 2.228-.843 2.735-.175z"/></g></g><g><g><path fill="#407bff" d="M204.968 223.045l-1.577 9.204-1.577-9.204z"/></g><g><path fill="#407bff" d="M198.827 223.045a4.564 4.564 0 1 1 9.128 0 4.564 4.564 0 0 1-9.128 0z"/></g><g opacity=".3"><path fill="#fff" d="M203.838 219.826c.507.667.106 1.827-.897 2.59-1.003.764-2.228.843-2.735.175-.508-.666-.106-1.827.896-2.59 1.002-.764 2.227-.842 2.736-.175z"/></g></g><g><g><path fill="#407bff" d="M333.474 206.692l-1.577 9.205-1.576-9.205z"/></g><g><path fill="#407bff" d="M336.462 206.692a4.564 4.564 0 1 1-9.128 0 4.564 4.564 0 0 1 9.128 0z"/></g><g opacity=".3"><path fill="#fff" d="M332.344 203.474c.507.666.107 1.826-.896 2.59-1.003.763-2.227.842-2.735.175s-.107-1.827.895-2.59c1.003-.765 2.228-.843 2.736-.175z"/></g></g></g><g><g><path fill="#407bff" d="M448.95 107.09a34.925 34.925 0 0 1-6.99 21.01 33.815 33.815 0 0 1-5.339 5.656 33.253 33.253 0 0 1-5.787 4.016 34.836 34.836 0 0 1-16.926 4.36 34.733 34.733 0 0 1-14.494-3.144c-.41-.172-.82-.37-1.216-.582l-.013-.013a33.512 33.512 0 0 1-6.87-4.518 34.622 34.622 0 0 1-7.836-9.395 34.772 34.772 0 0 1-4.626-17.39c0-19.356 15.698-35.054 35.055-35.054 19.358 0 35.042 15.698 35.042 35.055z"/></g><g opacity=".7" transform="rotate(-45 413.5 107.5)"><path fill="#fff" d="M379.876 107.09c0-18.794 15.235-34.03 34.029-34.03 18.793 0 34.028 15.236 34.028 34.03 0 18.793-15.235 34.028-34.028 34.028-18.794 0-34.029-15.235-34.029-34.029z"/></g><g><g><path fill="#e4897b" d="M391.315 122.992l3.284-13.639s2.083-1.66 2.214-2.867c.132-1.206-1.281-8.351-2.185-8.782-.904-.431-6.243 1.43-6.505 2.956-.26 1.525 1.847 7.525 2.27 8.015L385 124.54z"/></g><g><path fill="#407bff" d="M393.948 115.173l-1.977 17.92a33.636 33.636 0 0 1-7.607-9.12c1.22-4.297 2.45-8.16 3.028-9.89.193-.617.308-.962.308-.962l1.128.14 4.683.59.577.077z"/></g><g><path fill="#407bff" d="M402.888 126.718l-3.052 11.34c-.399-.167-.796-.36-1.181-.564l-.013-.013a32.565 32.565 0 0 1-6.67-4.387c.243-.551 6.49-14.65 8.825-14.483z"/></g><g opacity=".3"><path d="M393.948 115.173l-1.977 17.92a33.636 33.636 0 0 1-7.607-9.12c1.22-4.297 2.45-8.16 3.028-9.89.193-.617.308-.962.308-.962l1.128.14 4.683.59.577.077z"/></g><g opacity=".3"><path d="M402.888 126.718l-3.052 11.34c-.399-.167-.796-.36-1.181-.564l-.013-.013a32.565 32.565 0 0 1-6.67-4.387c.243-.551 6.49-14.65 8.825-14.483z"/></g><g><path fill="#407bff" d="M395.413 112.816l-1.077 2.415-7.46-1.24.17-1.375z"/></g><g><path fill="#263238" d="M434.61 95.386c-.87 3.335 3.888 12.534 1.959 29.268-1.93 16.735-20.282 15.714-28.53 10.135-8.248-5.579-6.821-35.852-3.984-41.822 2.836-5.97 30.554 2.419 30.554 2.419z"/></g><g><g><path fill="#407bff" d="M439.463 122.446c-.181.488-.334.963-.502 1.45-.178.475-.333.949-.486 1.411-.308.924-.604 1.822-.9 2.694-.589 1.744-1.114 3.413-1.615 4.977a32.218 32.218 0 0 1-5.618 3.9 33.812 33.812 0 0 1-16.434 4.234 33.725 33.725 0 0 1-14.073-3.054c-.398-.167-.795-.36-1.18-.564.013-.333.013-.68.013-1 0-.334 0-.655.013-.975.013-.962.052-1.861.077-2.707.025-.565.051-1.117.064-1.63l.038-.77c.051-.936.09-1.782.154-2.578.013-.256.04-.513.052-.757.05-.744.114-1.411.166-2.026.385-3.888.899-5.427 1.232-6.043.064-.128.128-.205.18-.269.102-.115.153-.128.153-.128s.513-.052 1.373-.116c2.27-.192 6.98-.526 11.238-.5.077 0 .167 0 .243.013.565.012 1.13.038 1.694.076 2.194.116 4.387.308 6.555.579.809.101 1.616.217 2.424.333.873.128 1.745.269 2.618.422.114.027.244.04.36.065 3.218.551 6.4 1.27 9.543 2.18.873.245 1.744.501 2.604.783z"/></g><g opacity=".3"><path d="M439.45 122.446c0 .013 0 .013-.013.026-.168.474-.334.95-.476 1.423-.178.476-.333.95-.486 1.412-.308.924-.604 1.822-.899 2.694-.59 1.744-1.115 3.413-1.616 4.977a32.218 32.218 0 0 1-5.618 3.9 33.812 33.812 0 0 1-16.434 4.234 33.725 33.725 0 0 1-14.072-3.054c-.399-.167-.796-.36-1.181-.564l-.013-.013c0-.333.013-.667.026-.988 0-.333 0-.654.013-.974.013-.962.052-1.861.077-2.707.025-.565.051-1.117.064-1.63l.038-.77c.039-.936.09-1.782.154-2.578.013-.256.04-.513.052-.757.05-.744.115-1.411.166-2.026.385-3.888.899-5.427 1.232-6.043.064-.128.128-.205.18-.269.102-.115.153-.128.153-.128s.513-.052 1.373-.116c2.27-.192 6.98-.526 11.238-.5.077 0 .167 0 .243.013.565.012 1.13.038 1.694.076 2.194.116 4.387.308 6.555.579.809.101 1.616.217 2.424.333.873.128 1.745.269 2.618.422.114.027.244.04.36.065 3.218.551 6.4 1.27 9.543 2.18.873.245 1.744.501 2.604.783z"/></g></g><g><path fill="#fff" d="M419.77 117.09c7.508.589 8.43 2.858 7.627 4.046-.8 1.188-10.971 11.13-14.032 17.789 0 0-11.025-23.203 6.406-21.835z"/></g><g><path fill="#e4897b" d="M415.894 124.654c7.43-.95 9.663-4.124 9.663-4.124-4.714-4.45-.797-12.158-.797-12.158l-8.944 1.67c.234 1.479.335 2.718.349 3.766.068 5.428-2.387 5.482-2.387 5.482-1.57 2.94 2.116 5.364 2.116 5.364z"/></g><g opacity=".2"><path d="M415.816 110.043c.234 1.478.335 2.717.349 3.765 6.042 0 8.595-5.436 8.595-5.436z"/></g><g><g><g><path fill="#e4897b" d="M420.76 85.032c-7.775-.425-10.506 3.6-11.514 11.581-1.26 9.974.57 17.21 10.409 15.604 13.362-2.182 14.018-26.477 1.105-27.185z"/></g><g><path fill="#de5753" d="M414.296 96.454s-1.19 1.972-2.439 3.1c0 0 .608 1.095 2.002.993z"/></g><g><g><path fill="#263238" d="M419.09 96.08c-.05.636.254 1.181.68 1.215.424.032.81-.458.86-1.096.05-.638-.255-1.181-.68-1.215-.425-.032-.81.457-.86 1.095z"/></g><g><path fill="#263238" d="M420.125 95.03l-1.345-.654"/></g></g><g><g><path fill="#263238" d="M411.17 95.326c-.05.638.255 1.181.68 1.215.425.032.81-.457.86-1.094.05-.638-.254-1.183-.68-1.216-.424-.033-.81.457-.86 1.095z"/></g><g><path fill="#263238" d="M412.206 94.276l-1.345-.653"/></g></g><g><path fill="#263238" d="M422.77 92.435a.361.361 0 0 1-.293-.148c-.972-1.34-2.97-1.218-2.99-1.213a.361.361 0 0 1-.053-.719c.099-.007 2.416-.16 3.628 1.507a.362.362 0 0 1-.292.573z"/></g><g><path fill="#263238" d="M410.695 90.906a.362.362 0 0 1-.183-.671c1.923-1.132 3.398-.515 3.46-.49a.36.36 0 0 1-.285.663c-.051-.02-1.22-.49-2.81.448a.357.357 0 0 1-.182.05z"/></g><g><g><path fill="#263238" d="M414.825 103.668c.397.962.759 2.75.759 2.75.168-.004.335-.007.503-.02 2.275-.104 3.297-.905 3.738-1.76.24-.47.301-.96.299-1.359a2.821 2.821 0 0 0-.102-.788c-1.173.776-3.287 1.037-4.423 1.129a10.92 10.92 0 0 1-.774.048z"/></g><g><path fill="#fff" d="M415.6 103.62l.244.805c2.144-.104 3.638-.465 4.28-1.146.002-.46-.102-.788-.102-.788-1.173.776-3.287 1.037-4.423 1.129z"/></g><g><path fill="#de5753" d="M416.087 106.398c2.275-.104 3.297-.905 3.738-1.76-.774.066-1.7.23-2.504.616a2.744 2.744 0 0 0-1.234 1.144z"/></g></g><g><path fill="#263238" d="M428.54 98.602s-3.285-6.587-2.465-11.488c0 0-15.063-7.14-16.68 8.459 0 0-.744-13.97 12.638-13.547 13.362.421 12.255 19.974 5.033 25.421 0 0 3.504-4.726 1.474-8.845z"/></g><g><path fill="#e4897b" d="M427.18 100.174c.12-1.249 1.528-3.297 3.843-2.915 2.394.394 3.272 5.404-2.786 6.265-.87.123-1.309-.744-1.058-3.35z"/></g></g><g><path fill="#263238" d="M424.004 86.337s-1.234 9.592 4.534 18.3c4.375 6.605-.651 12.394-.651 12.394s7.762-4.943 8.034-12.394c0 0 6.416-17.817-6.899-22.62 0 0-.054-4.013-8.734-3.25-8.68.763-15.674 8.204-17 17.687-1.326 9.484 3.618 20.06 3.618 20.06s-5.257-33.607 17.098-30.177z"/></g><g><path fill="#263238" d="M424.504 86.496c-.612 2.157-.737 4.57-.645 6.892a34.107 34.107 0 0 0 1.117 6.956 29.45 29.45 0 0 0 2.6 6.57c1.156 2.052 2.552 4.023 4.4 5.526-1.904-1.436-3.385-3.366-4.626-5.395a29.847 29.847 0 0 1-2.88-6.555 34.763 34.763 0 0 1-1.398-7.05c-.173-2.408-.167-4.813.43-7.262z"/></g></g><g><g><path fill="#407bff" d="M441.143 127.487a32.772 32.772 0 0 1-5.183 5.49 32.218 32.218 0 0 1-5.618 3.9c.115-.448.269-.897.422-1.346 1.334-3.771 3.695-7.209 5.606-9.608 1.578-1.976 2.862-3.259 3.067-3.45l.026-.027c.807.667 1.334 2.502 1.68 5.041z"/></g><g opacity=".3"><path d="M441.143 127.487a32.772 32.772 0 0 1-5.183 5.49 32.218 32.218 0 0 1-5.618 3.9c.115-.448.269-.897.422-1.346 1.334-3.771 3.695-7.209 5.606-9.608 1.578-1.976 2.862-3.259 3.067-3.45l.026-.027c.807.667 1.334 2.502 1.68 5.041z"/></g></g></g></g><g><g><path fill="#407bff" d="M308.95 33.814c0-10.564 8.563-19.128 19.127-19.128 10.564 0 19.128 8.564 19.128 19.128s-8.564 19.128-19.128 19.128-19.128-8.564-19.128-19.128z"/></g><g opacity=".3"><path fill="#fff" d="M346.114 33.817c0 4.742-1.832 9.05-4.822 12.27a17.978 17.978 0 0 1-13.212 5.764 17.987 17.987 0 0 1-13.901-6.543 17.888 17.888 0 0 1-4.14-11.49c0-9.97 8.073-18.041 18.041-18.041 9.96 0 18.034 8.072 18.034 18.04z"/></g><g><path fill="#407bff" d="M341.292 46.086a17.978 17.978 0 0 1-13.212 5.765 17.987 17.987 0 0 1-13.901-6.543c.094-.039.19-.071.285-.094.23-.326.507-.635.865-.904 0-.048 0-.096.007-.15l.318-.057c.523-.31 1.165-.516 1.974-.516.19 0 .38.009.587.032l1.126-.206-.024.309c1.428.111 3.6.246 6.075.413a3.209 3.209 0 0 0 1.118-1.578c.214-.642.254-1.349.214-2.078a6.251 6.251 0 0 1-2.522-.667 6.462 6.462 0 0 1-3.314-4.194c-.468-1.944-.58-4.481-.096-6.813v-.015c-.063 0-.126.008-.19 0-.095-.016-.159-.095-.159-.198 0-.016.008-.033.008-.047a.211.211 0 0 1 .238-.176c.017 0 .032-.007.056-.007-.143-1.524.079-3.054.301-4.077-.626-1.102-.626-3.251-.031-4.115.674-.968.15-.444 1.918-.595 1.77-.15.698-1.721 1.824-1.737 1.126-.016.897.69 2.276 1.213 1.38.524.873-1.046 2.443-1.197 1.57-.15 1.792 1.047 2.918 1.348 1.126.294 1.349 0 2.173 0 .825 0 .897 2.395 1.245 2.839.349.452.928-.222 1.673 1.008.096.158.135.356.135.586 0 1.587-1.982 4.608-1.982 4.608a22.57 22.57 0 0 1-.405 2.236c.596.57.762 1.515.357 2.379a4.442 4.442 0 0 1-1.744 1.863 12.92 12.92 0 0 1-1.134 1.983c-.5 2.752-.738 6.003.198 8.058 3.188.333 6.233.752 8.382 1.324z"/></g><g opacity=".5"><path fill="#fff" d="M308.95 33.814c0-10.564 8.563-19.128 19.127-19.128 10.564 0 19.128 8.564 19.128 19.128s-8.564 19.128-19.128 19.128-19.128-8.564-19.128-19.128z"/></g></g><g><g transform="rotate(-45 200.5 339)"><path fill="#407bff" d="M181.685 339.036c0-10.564 8.564-19.128 19.128-19.128s19.128 8.564 19.128 19.128-8.564 19.128-19.128 19.128-19.128-8.564-19.128-19.128z"/></g><g opacity=".2"><path fill="#fff" d="M218.854 339.036c0 5.162-2.174 9.818-5.647 13.092a17.926 17.926 0 0 1-12.395 4.941c-3.79 0-7.303-1.166-10.206-3.164-4.726-3.251-7.827-8.699-7.827-14.87 0-9.96 8.073-18.032 18.033-18.032s18.042 8.072 18.042 18.033z"/></g><g><path fill="#407bff" d="M213.207 352.128a17.926 17.926 0 0 1-12.395 4.941c-3.79 0-7.303-1.166-10.206-3.164 1.309-.182 2.688-.349 4.091-.492 1.087-2.363.81-6.121.23-9.301-.403-.58-.855-1.34-1.3-2.293a5.019 5.019 0 0 1-2.014-2.148c-.468-1-.286-2.086.405-2.752-.373-1.626-.57-3.102-.588-4.338l-.078.04s-1.452-5.6 3.972-7.654c5.425-2.053 10.904 1.618 10.904 1.618s1.174-2.188 2.578-1.618c1.19.485.555 2.039.333 2.515a2.89 2.89 0 0 1 1.229-1.071c.96-.436 2.284.785-.69 3.759a4.342 4.342 0 0 1-1.063.762c.175 1.182.278 2.64.08 4.06.555 2.688.436 5.623-.111 7.859a5.433 5.433 0 0 1-.23.753 7.377 7.377 0 0 1-3.6 4.092 7.052 7.052 0 0 1-2.91.777c-.049.84.007 1.657.245 2.395.238.705.65 1.332 1.293 1.824 2.863-.199 5.368-.34 7.017-.476-.015-.238-.031-.357-.031-.357l1.301.238a5.479 5.479 0 0 1 1.538.031z"/></g><g opacity=".5" transform="rotate(-45 200.5 339)"><path fill="#fff" d="M181.685 339.036c0-10.564 8.564-19.128 19.128-19.128s19.128 8.564 19.128 19.128-8.564 19.128-19.128 19.128-19.128-8.564-19.128-19.128z"/></g></g><g><g transform="rotate(-76.717 113.5 136.5)"><path fill="#407bff" d="M94.59 136.878c0-10.564 8.564-19.128 19.128-19.128s19.128 8.564 19.128 19.128-8.564 19.128-19.128 19.128-19.128-8.564-19.128-19.128z"/></g><g opacity=".2"><path fill="#fff" d="M131.758 136.877c0 4.616-1.736 8.827-4.584 12.014-3.306 3.696-8.112 6.028-13.457 6.028a17.94 17.94 0 0 1-10.619-3.458c-4.496-3.284-7.415-8.597-7.415-14.584 0-9.96 8.073-18.034 18.034-18.034 9.96 0 18.041 8.074 18.041 18.034z"/></g><g><path fill="#407bff" d="M127.174 148.891c-3.306 3.696-8.112 6.028-13.457 6.028a17.94 17.94 0 0 1-10.619-3.458l7.154-2.205c.134.151.261.317.396.492.3-.056.61-.119.92-.175.57-.103 1.141-.182 1.72-.269.421-.698.635-1.46.714-2.213-.602.032-.983.04-.983.04.198-.713-.865-2.197-.865-2.197l-.356 1.959s-.722-.119-1.206-.42c-.476-.301-1.101-2.435-1.101-2.435s-1.238 2.078-1.508 2.554c-.277.484-.991 0-.991 0s-.475-1.8.119-3.656c.603-1.864-1.26-1.808-1.26-1.808s0 .785-.477 2.046c-.483 1.261-.483 1.92-.483 2.672 0 .753.063 1.284-.477 1.284-.546 0-.602-.475-.546-1.284.063-.809-.778-1.594-.293-2.252.475-.658.118-2.466.118-2.466-.301 1.26-1.682 1.206-1.92 2.101-.245.904.659 2.165.238 2.617-.42.452-1.141 0-1.141 0s.603-.992.183-1.57c-.42-.57-1.087-.865-.786-2.038.302-1.182.84-1.166.667-2.466-.183-1.3-.785-1.222 0-1.705.777-.476 1.8-2.76 1.8-3.752 0-.99-.42-3.267 1.26-4.067 1.682-.801 2.101-1.42 1.8-3.537-.301-2.126 1.317-1.967 3.363-1.547 0 0 1.015-1.618 1.975-1.316.96.293 1.68.119 1.887-.42.198-.548 2.855-.484 3.251 0 .397.475 1.825.84 2.689.475.864-.357 3.164 1.078 3.093 2.038-.072.967-.056 1.508 1.181 2.054 1.229.548 1.468.833 2.007 2.982.54 2.15-.357 3.013.721 3.846 1.079.825.96 4.148 1.023 5.17.056 1.016 0 2.158 0 2.158l-.3.087c-.302.079-.54-1.11-.485-1.991.064-.84-1.824-2.07-1.982-2.173.039.087.38.817.602 1.396.238.61.301 2.205.238 3.22-.056 1.023 1.142 1.586 1.142 1.586l-1.316.658s-1.023-2.18-.674-3.314c.349-1.134-.651-2.15-.651-2.15v2.15s-.356.768-.896 1.791c-.539 1.024.42 1.325.571 1.864.143.54-1.181.57-1.181.57l-.246-1.291-.452 1.292c-.477.349-1.467.603-2.601.793.063.992.269 1.634.523 2.054.428-.024.856-.048 1.285-.064.848-.007 1.728.009 2.578.04h.015c1.522.048 2.957.143 4.02.222z"/></g><g opacity=".5" transform="rotate(-76.717 113.5 136.5)"><path fill="#fff" d="M94.59 136.878c0-10.564 8.564-19.128 19.128-19.128s19.128 8.564 19.128 19.128-8.564 19.128-19.128 19.128-19.128-8.564-19.128-19.128z"/></g></g><g><g><path fill="#407bff" d="M156.923 49.335c0-17.72 14.365-32.085 32.084-32.085 17.72 0 32.085 14.365 32.085 32.085s-14.365 32.084-32.085 32.084-32.084-14.365-32.084-32.084z"/></g><g opacity=".7"><path fill="#fff" d="M220.044 49.335a30.86 30.86 0 0 1-6.455 18.912 30.204 30.204 0 0 1-3.689 4.015 29.028 29.028 0 0 1-3.984 3.07.491.491 0 0 1-.179.115 28.393 28.393 0 0 1-3.449 1.935 30.88 30.88 0 0 1-13.277 2.985c-9.45 0-17.933-4.247-23.62-10.922l-.01-.01c-4.625-5.425-7.412-12.436-7.412-20.1 0-17.113 13.929-31.031 31.042-31.031 17.105 0 31.033 13.918 31.033 31.031z"/></g><g><g><path fill="#ebb376" d="M196.226 49.334c.684-1.519 1.17-.86 3.145.665s2.288 2.901 2.288 4.518-.313 4.838-.313 4.838l5.13 5.754-2.323 3.5-5.96-6.723s-2.946-2.218-3.431-4.713c-.485-2.495 1.464-7.839 1.464-7.839z"/></g><g><g><path fill="#263238" d="M195.548 47.608l4.2 7.543c.19.34.147.762-.109 1.056l-3.259 3.762a.926.926 0 0 1-1.491-.125l-3.766-6.206z"/></g><g opacity=".4"><path fill="#407bff" d="M195.316 48.42l3.708 6.985-3.53 4.159-3.797-6.169z"/></g></g><g><path fill="#407bff" d="M205.916 75.332c.03.157.051.305.072.452a8.25 8.25 0 0 1-.25-.337 28.39 28.39 0 0 1-3.45 1.935c.275-2.134.578-4.058.852-5.666.241-1.472.462-2.681.631-3.532.157-.852.263-1.346.283-1.43v-.01c.37.062.736.178 1.104.357 1.61.788 3.196 2.67 4.742 5.161a29.032 29.032 0 0 1-3.984 3.07z"/></g><g><g><path fill="#407bff" d="M205.988 75.784a8.254 8.254 0 0 1-.25-.337 28.393 28.393 0 0 1-3.45 1.935 30.88 30.88 0 0 1-13.277 2.985c-9.45 0-17.933-4.247-23.62-10.922a40.775 40.775 0 0 1 1.63-.347l.167-.031c.107-.021.21-.043.326-.064 1.42-.273 2.87-.515 4.322-.725.01-.01.02-.01.03-.01.632-.095 1.272-.18 1.903-.263.84-.116 1.683-.21 2.513-.305.062-.01.137-.021.2-.021 1.924-.22 3.846-.4 5.719-.536.619-.042 1.229-.084 1.828-.116h.011c.789-.052 1.566-.105 2.333-.147.767-.042 1.535-.074 2.27-.105l.916-.032c.915-.031 1.797-.052 2.638-.073 2.765-.063 5.193-.063 7.127-.042.452.01.883.01 1.282.02.726.011 1.346.032 1.851.053 1.03.021 1.597.053 1.597.053.126.462.253.946.37 1.44v.01c.534 2.156 1.03 4.552 1.492 7.128.03.157.051.305.072.452z"/></g><g opacity=".2"><path d="M205.988 75.784a8.282 8.282 0 0 1-.25-.337 28.393 28.393 0 0 1-3.45 1.935 30.88 30.88 0 0 1-13.277 2.985c-9.45 0-17.933-4.247-23.62-10.922l-.757.158c.243-.053.494-.116.747-.169.547-.115 1.093-.23 1.64-.336l.167-.031c.107-.021.21-.043.326-.064 1.42-.273 2.87-.515 4.322-.725.01-.01.02-.01.03-.01.632-.095 1.272-.18 1.903-.263.84-.116 1.683-.21 2.513-.305.062-.01.137-.021.2-.021 1.924-.22 3.846-.4 5.719-.536l1.817-.126c.8-.053 1.577-.095 2.355-.137.767-.042 1.535-.074 2.27-.105l.916-.032c.903-.031 1.786-.063 2.628-.084 2.775-.052 5.203-.052 7.137-.042.462.01.883.01 1.282.021.715.01 1.326.032 1.83.042a74.64 74.64 0 0 1 1.618.063v.01c.126.463.253.947.37 1.441v.01c.534 2.156 1.03 4.552 1.492 7.128.03.157.051.305.072.452z"/></g></g><g><path fill="#ebb376" d="M176.233 67.66c3.413 3.101 11.775 1.954 11.775 1.954s5.218-1.428 4.122-3.059c-3.074-.509-4.562-1.942-5.177-3.779-.356-1.069-.41-2.272-.312-3.51.045-.65.143-1.31.259-1.96l-10.337-7.655c1.354 5.053 3.012 14.347-.33 18.009z"/></g><g opacity=".2"><path d="M178.951 54.517c.41 6.2 5.507 7.912 8.002 8.26-.356-1.07-.41-2.273-.312-3.51z"/></g><g><g><path fill="#263238" d="M196.787 34.913s1.468 9.653-3.656 13.366c-5.123 3.713-5.123-14.258-5.123-14.258z"/></g><g><path fill="#ebb376" d="M178.257 55.95c2.485 3.574 6.54 4.51 10.06 3.396a9.758 9.758 0 0 0 5.569-4.536c.17-.293.32-.605.462-.926 2.522-5.9 3.324-16.218-2.914-20.085-4.427-2.79-10.29-1.462-13.08 2.977a9.434 9.434 0 0 0-1.426 4.178c-.765 6.897-1.541 10.916 1.329 14.997z"/></g><g><path fill="#263238" d="M186.983 44.64c-.134.545.118 1.055.488 1.118.37.062.735-.344.833-.898.099-.554-.127-1.058-.489-1.118-.36-.061-.733.335-.832.898z"/></g><g><path fill="#263238" d="M193.278 45.714c-.133.546.128 1.059.49 1.118.36.061.734-.343.832-.896.098-.554-.128-1.059-.49-1.12-.36-.06-.74.37-.832.898z"/></g><g><path fill="#d58745" d="M191.23 45.647a20.141 20.141 0 0 0 1.848 5.219 3.27 3.27 0 0 1-2.762.042z"/></g><g><path fill="#263238" d="M185.377 42.267c.118.038.247.01.339-.074a2.675 2.675 0 0 1 2.28-.737.33.33 0 1 0 .158-.64h-.001a3.29 3.29 0 0 0-2.887.892.33.33 0 0 0-.028.465l.005.007c.04.036.085.065.134.087z"/></g><g><path fill="#263238" d="M196.354 44.006c.057.034.123.05.19.046a.329.329 0 0 0 .23-.405v-.007a3.288 3.288 0 0 0-2.042-2.24.33.33 0 0 0-.41.22.339.339 0 0 0 .22.413 2.671 2.671 0 0 1 1.588 1.798.339.339 0 0 0 .224.175z"/></g><g><path fill="#263238" d="M183.403 33.28v3.08c-1.06.41-1.797 1.46-1.485 2.711.668 2.674-1.264 6.457-3.415 7.797 0 0 .074-1.114-.892-.965-.965.148-1.41 5.94.075 8.91 0 0-2.45-2.821-3.267-9.06-.756-5.767-.366-10.45 1.048-12.474z"/></g><g><path fill="#ebb376" d="M172.983 46.051a6.603 6.603 0 0 0 3.168 3.929c2.04 1.095 3.564-.61 3.426-2.8-.142-1.946-1.352-4.921-3.611-5.092-2.26-.17-3.564 1.898-2.983 3.963z"/></g><g><path fill="#263238" d="M183.403 36.36s2.003 1.984 3.945.532c0 0 2.2 1.832 3.994.532 0 0 .98 1.661 2.591 1.86 1.61.2 1.615-1.461 1.615-1.461s2.544 1.462 3.484.777c.94-.683-.513-3.417-.513-3.417s1.196-.646.426-2.843c-.768-2.198-4.322-1.686-4.322-1.686s.136-2.05-2.341-4.187c-2.479-2.136-3.955.513-3.955.513s-2.4-3.246-5.375-2.819c-2.975.427-2.633 2.478-2.633 2.478s-3.417-2.136-4.955 0c-1.538 2.136 0 3.16 0 3.16s-3.418 1.149-3.248 3.48c.172 2.33 1.924 1.99 1.924 1.99s-.983 1.11 1.238 2.05c2.222.94 4.307-1.367 4.307-1.367s-.865 1.324.734 2.222c1.599.897 3.084-1.814 3.084-1.814z"/></g><g><g><path fill="#263238" d="M190.175 52.978c-.797.67-1.941 2.09-1.941 2.09-.149-.081-.296-.161-.438-.25-1.97-1.142-2.508-2.323-2.506-3.286.003-.526.176-.99.362-1.343.21-.409.454-.653.454-.653.683 1.23 2.439 2.437 3.403 3.041.401.258.666.4.666.4z"/></g><g><path fill="#fff" d="M189.509 52.577l-.588.602c-1.854-1.08-3.014-2.09-3.27-2.99.211-.409.455-.653.455-.653.683 1.23 2.439 2.437 3.403 3.041z"/></g><g><path fill="#de5753" d="M187.796 54.818c-1.97-1.142-2.508-2.323-2.506-3.286.657.416 1.403.99 1.938 1.702.41.545.548 1.096.568 1.584z"/></g></g></g><g><path fill="#407bff" d="M188.008 69.614s-12.059-8.193-15.897-8.652c-3.839-.46-3.156 4.325-3.156 4.325s-2.962 0-1.822 3.646c1.14 3.646 17.517 5.657 23.569 3.854 6.05-1.803 9.646-5.196 8.646-8.398-1-3.203-3.8-.46-3.8-.46s-1.627-3.017-3.97-2.31c-2.344.706-3.57 7.995-3.57 7.995z"/></g><g><path fill="#407bff" d="M213.589 68.247a30.204 30.204 0 0 1-3.689 4.015 29.03 29.03 0 0 1-3.984 3.07c.03.157.051.305.072.452a8.26 8.26 0 0 1-.25-.337 67.564 67.564 0 0 1-2.598-3.731c-1.094-1.745-2.092-3.564-2.534-5.067v-.01a5.348 5.348 0 0 1-.25-1.304l-1-1.388.325-.378 2.65-3.112.577-.673 1.136 1.483s1.46-.526 6.14 3.5c1.197 1.03 2.417 2.334 3.405 3.48z"/></g></g></g><g><g><path fill="#407bff" d="M69.988 246.845c0-16.754 13.582-30.336 30.336-30.336 16.754 0 30.336 13.582 30.336 30.336 0 16.754-13.582 30.336-30.336 30.336-16.754 0-30.336-13.582-30.336-30.336z"/></g><g opacity=".7"><path fill="#fff" d="M129.606 246.843a29.06 29.06 0 0 1-6.581 18.47 29.399 29.399 0 0 1-4.152 4.173c-.484.4-.988.788-1.514 1.156a28.475 28.475 0 0 1-4.541 2.68 29.12 29.12 0 0 1-12.5 2.807 28.93 28.93 0 0 1-14.727-3.994 27.305 27.305 0 0 1-3.185-2.155h-.01c-.053-.042-.105-.084-.158-.137a25.994 25.994 0 0 1-3.311-3.048 29.076 29.076 0 0 1-7.884-19.952c0-16.147 13.13-29.287 29.276-29.287 16.157 0 29.287 13.14 29.287 29.287z"/></g><g><g><path fill="#263238" d="M118.873 269.486c-.484.399-.988.788-1.514 1.156a28.476 28.476 0 0 1-4.541 2.68 29.12 29.12 0 0 1-12.5 2.807 28.931 28.931 0 0 1-14.727-3.994 27.304 27.304 0 0 1-3.185-2.155h-.01a1.812 1.812 0 0 1-.158-.137c.021-.074.032-.126.053-.2v-.01c.252-.946.494-1.934.714-2.965.316-1.387.6-2.827.852-4.33.641-3.89 1.02-8.105.883-12.384-.515-15.505 2.302-21.192 8.64-24.23.285-.137.58-.284.894-.41 1.493-.63 3.007-.746 4.468-.557h.01c5.425.736 10.134 5.792 10.134 5.792s1.051 1.44 2.481 4.194c2.565 4.951 6.339 14.15 7.285 26.743v.01c.2 2.534.284 5.193.22 7.99z"/></g><g><path fill="#407bff" d="M118.652 261.496v-.01c-1.135-.83-2.197-1.42-3.06-1.598 0 0-6.18-.6-11.552-.557-.589.021-1.188.052-1.776.084a86.26 86.26 0 0 0-8.231.841c-.8.116-1.598.242-2.387.389a78.451 78.451 0 0 0-7.789 1.692c-1.23.326-2.45.684-3.669 1.073-.452.567-.862 1.755-1.261 3.385a25.995 25.995 0 0 0 3.311 3.048c.053.053.105.095.158.137h.01a27.3 27.3 0 0 0 3.185 2.155 28.931 28.931 0 0 0 14.728 3.994 29.12 29.12 0 0 0 12.499-2.806 28.482 28.482 0 0 0 4.54-2.681c.527-.368 1.031-.757 1.515-1.156a29.392 29.392 0 0 0 4.152-4.174c-1.43-1.408-2.964-2.796-4.373-3.816z"/></g><g opacity=".2"><path fill="#fff" d="M118.652 261.496v-.01c-1.135-.83-2.197-1.42-3.06-1.598 0 0-6.18-.6-11.552-.557-.589.021-1.188.052-1.776.084a86.26 86.26 0 0 0-8.231.841c-.8.116-1.598.242-2.387.389a78.451 78.451 0 0 0-7.789 1.692c-1.23.326-2.45.684-3.669 1.073-.452.567-.862 1.755-1.261 3.385a25.995 25.995 0 0 0 3.311 3.048c.053.053.105.095.158.137h.01a27.3 27.3 0 0 0 3.185 2.155 28.931 28.931 0 0 0 14.728 3.994 29.12 29.12 0 0 0 12.499-2.806 28.482 28.482 0 0 0 4.54-2.681c.527-.368 1.031-.757 1.515-1.156a29.392 29.392 0 0 0 4.152-4.174c-1.43-1.408-2.964-2.796-4.373-3.816z"/></g><g><path fill="#eec1bb" d="M101.767 265.435c-6.807-.873-8.854-3.784-8.854-3.784 2.783-2.62 2.277-6.491 1.566-8.906-.384-1.336-.838-2.226-.838-2.226l8.195 1.532c-.215 1.353-.31 2.493-.318 3.451-.016 1.054.078 1.884.232 2.535.557 2.45 1.953 2.483 1.953 2.483 1.438 2.689-1.936 4.915-1.936 4.915z"/></g><g opacity=".2"><path d="M101.518 255.502c-.016 1.054.078 1.884.232 2.535-3.254-.428-5.72-3.032-7.27-5.292-.385-1.336-.84-2.226-.84-2.226l8.196 1.532c-.215 1.353-.31 2.493-.318 3.451z"/></g><g><g><path fill="#eec1bb" d="M100.166 229.362c7.126.264 9.278 4.165 9.528 11.528.312 9.2-1.965 15.646-10.803 13.355-12.001-3.111-10.559-25.322 1.275-24.883z"/></g><g><path fill="#d4827d" d="M105.102 240.32s.919 1.898 1.964 3.033c0 0-.646.946-1.908.735z"/></g><g><path fill="#263238" d="M97.742 235.987a.373.373 0 0 1-.28-.617c1.261-1.437 3.385-1.099 3.473-1.084a.371.371 0 1 1-.123.734c-.017-.003-1.806-.28-2.79.84a.37.37 0 0 1-.28.127z"/></g><g><path fill="#263238" d="M108.882 235.607a.374.374 0 0 1-.218-.071c-1.354-.975-2.442-.652-2.487-.638a.374.374 0 0 1-.466-.242.37.37 0 0 1 .236-.466c.06-.022 1.476-.465 3.153.742a.372.372 0 0 1-.218.675z"/></g><g><g><path fill="#263238" d="M104.015 246.854c-.445.844-.924 2.444-.924 2.444-.152-.018-.305-.035-.456-.06-2.067-.287-2.931-1.102-3.262-1.92-.18-.447-.195-.9-.159-1.263.038-.42.16-.71.16-.71 1.005.806 2.91 1.221 3.938 1.4.429.08.703.11.703.11z"/></g><g><path fill="#fff" d="M103.312 246.745l-.292.714c-1.945-.275-3.278-.729-3.806-1.404.038-.42.16-.71.16-.71 1.005.806 2.91 1.221 3.938 1.4z"/></g><g><path fill="#de5753" d="M102.635 249.238c-2.067-.287-2.931-1.102-3.262-1.92.7.126 1.53.354 2.232.773.536.32.844.74 1.03 1.147z"/></g></g><g><path fill="#263238" d="M91.932 241.084s3.55-5.732 3.213-10.27c0 0 14.335-5.246 14.5 9.114 0 0 1.852-12.677-10.388-13.415-12.22-.737-12.852 17.185-6.723 22.76 0 0-2.799-4.604-.602-8.189z"/></g><g><path fill="#eec1bb" d="M93.04 242.63c-.005-1.149-1.117-3.134-3.26-2.98-2.216.159-3.437 4.653 2.016 5.947.782.186 1.255-.569 1.244-2.967z"/></g><g><path fill="#263238" d="M96.163 224.653c3.854-1.072 14.13-1.213 16.556 9.419l-1.427.713s-3.425-1.855-7.707-2.283c0 0-.856-1.57-1.997-2.854 0 0 .142 1.713 0 2.711 0 0-6.704.982-9.705 3.71-4.71 4.282-4.995 6.995-4.995 6.995s-3.267-14.928 9.275-18.411z"/></g><g><path fill="#263238" d="M113.719 233.972a.256.256 0 0 1-.244-.176c-1.219-3.656-3.304-6.232-6.2-7.656-5.284-2.6-11.534-.481-11.597-.46a.257.257 0 0 1-.17-.485c.066-.023 6.52-2.21 11.994.484 3.023 1.487 5.197 4.165 6.46 7.955a.256.256 0 0 1-.243.338z"/></g><g><path fill="#263238" d="M98.804 239.583s1.668-1.418 2.459.49"/></g><g><path fill="#263238" d="M106.73 240.637s.924-1.932 2.152-.564"/></g></g></g></g><g><g transform="rotate(-45 393 299)"><path fill="#407bff" d="M355.41 298.96c0-20.763 16.831-37.595 37.595-37.595 20.763 0 37.595 16.832 37.595 37.595 0 20.764-16.832 37.596-37.595 37.596-20.764 0-37.596-16.832-37.596-37.596z"/></g><g opacity=".7"><path fill="#fff" d="M429.548 298.955a36.202 36.202 0 0 1-3.9 16.41 36.73 36.73 0 0 1-1.619 2.88 31.63 31.63 0 0 1-1.44 2.134 36.575 36.575 0 0 1-7.621 7.768c-.663.505-1.346.978-2.05 1.44a36.38 36.38 0 0 1-19.91 5.918 36.284 36.284 0 0 1-15.106-3.269 53.892 53.892 0 0 1-1.755-.851v-.01a36.607 36.607 0 0 1-8.852-6.476 36.785 36.785 0 0 1-6.444-8.567 37.742 37.742 0 0 1-1.345-2.786h-.01a36.321 36.321 0 0 1-3.039-14.59c0-20.142 16.4-36.54 36.55-36.54 20.153 0 36.54 16.398 36.54 36.54z"/></g><g><g><path fill="#9f5b53" d="M374.77 297.515c-.474.904-2.26 2.733-2.26 2.733l-3.154 14.917-2.06 9.734a36.783 36.783 0 0 1-6.445-8.567c.253-.789.526-1.609.789-2.44 2.228-6.916 4.793-14.926 4.982-15.715.337-1.408-.893-8.315-.61-9.587.295-1.261 6.592-2.754 7.958-2.733 1.367.021 1.262 10.765.8 11.658z"/></g><g><path fill="#407bff" d="M379.7 313.945s0 .022-.011.053l-1.325 13.592-.462 4.647a54.015 54.015 0 0 1-1.756-.852v-.01a36.606 36.606 0 0 1-8.85-6.476 36.783 36.783 0 0 1-6.445-8.567 37.712 37.712 0 0 1-1.345-2.786l2.134.347 7.716 1.272 1.66.273-1.944 9.43s7.074-9.85 10.628-10.923z"/></g><g opacity=".3"><path d="M379.7 313.945s0 .022-.011.053l-1.325 13.592-.462 4.647a54.015 54.015 0 0 1-1.756-.852v-.01a36.606 36.606 0 0 1-8.85-6.476 36.783 36.783 0 0 1-6.445-8.567 37.712 37.712 0 0 1-1.345-2.786l2.134.347 7.716 1.272 1.66.273-1.944 9.43s7.074-9.85 10.628-10.923z"/></g><g><g><path fill="#407bff" d="M425.648 315.365a36.76 36.76 0 0 1-1.62 2.88c-.451.725-.924 1.44-1.44 2.134a36.576 36.576 0 0 1-7.62 7.768c-.663.505-1.346.978-2.05 1.44a36.38 36.38 0 0 1-19.91 5.918 36.285 36.285 0 0 1-15.106-3.269 53.929 53.929 0 0 1-1.756-.85v-.011c1.472-10.502 3.354-16.767 3.543-17.377.01-.031.01-.053.01-.053a75.92 75.92 0 0 1 11.564-2.354c.063 0 .115-.01.179-.01h.01a146.388 146.388 0 0 1 16.914-.358h.053c3.91.105 7.8.483 11.657 1.156.505.21 3.091 1.283 5.572 2.986z"/></g><g opacity=".3"><path d="M425.648 315.365a36.76 36.76 0 0 1-1.62 2.88c-.451.725-.924 1.44-1.44 2.134a36.576 36.576 0 0 1-7.62 7.768c-.663.505-1.346.978-2.05 1.44a36.38 36.38 0 0 1-19.91 5.918 36.285 36.285 0 0 1-15.106-3.269 53.929 53.929 0 0 1-1.756-.85v-.011c1.472-10.502 3.354-16.767 3.543-17.377.01-.031.01-.053.01-.053a75.92 75.92 0 0 1 11.564-2.354c.063 0 .115-.01.179-.01h.01a146.388 146.388 0 0 1 16.914-.358h.053c3.91.105 7.8.483 11.657 1.156.505.21 3.091 1.283 5.572 2.986z"/></g><g opacity=".8"><path fill="#fff" d="M414.968 328.147c-.663.505-1.346.978-2.05 1.44a36.38 36.38 0 0 1-19.91 5.918 36.285 36.285 0 0 1-15.106-3.269 53.96 53.96 0 0 1-1.756-.851v-.01c.053-.305.095-.61.137-.904a33.935 33.935 0 0 1 2.081-2.88c3.764-4.805 9.062-9.65 11.742-11.995.747.925 2.019 1.713 4.09 2.123 3.448.673 7.39-.935 10.659-2.88 1.472 1.461 3.69 3.784 5.729 6.318 1.535 1.913 2.954 3.942 3.879 5.823.19.4.357.789.505 1.167z"/></g></g><g><path fill="#9f5b53" d="M408.419 311.271s-4.282 5.283-12.448 5.648c-7.079.313-4.711-5.282-4.711-5.282 2.592-.677 4.034-1.893 4.765-3.378.914-1.904.646-4.26.065-6.573l-.13-.484 10.34-9.209c-.958 5.54-1.818 15.675 2.119 19.278z"/></g><g opacity=".2"><path d="M404.6 300.115c-.55 3.55-4.863 7.047-8.575 8.144.914-1.904.646-4.26.065-6.573l8.563-6.562c.291 1.656.28 3.345-.054 4.99z"/></g><g><g><path fill="#263238" d="M397.9 280.035c2.455 2.77.231 5.838-7.845 9.466-1.823-4.234-.523-11.216 2.085-12.389s3.618.518 5.76 2.923z"/></g><g><path fill="#9f5b53" d="M409.253 288.822c-2.173 7.171-3.084 11.472-7.639 14.34-6.857 4.305-15.051-1.155-15.066-8.834-.004-6.895 3.545-17.471 11.351-18.673 5.575-.887 10.813 2.912 11.7 8.487.25 1.565.131 3.167-.346 4.68z"/></g><g><path fill="#263238" d="M397.914 288.24c-.141.591-.571.997-.958.903-.386-.093-.581-.641-.441-1.233.14-.592.562-.997.949-.912.386.085.548.648.45 1.241z"/></g><g><path fill="#263238" d="M391.179 286.652c-.141.592-.571.998-.957.904-.387-.094-.592-.641-.45-1.242.141-.6.571-.997.957-.904.386.095.59.65.45 1.242z"/></g><g><path fill="#892b29" d="M393.31 287.452a21.762 21.762 0 0 1-4.034 4.395c.839 1.23 2.709 1.198 2.709 1.198z"/></g><g><path fill="#263238" d="M400.256 286.552c.075.028.157.03.232.005a.362.362 0 0 0 .19-.47 3.531 3.531 0 0 0-2.492-2.108.344.344 0 0 0-.407.268l-.004.025a.37.37 0 0 0 .293.411c.884.213 1.61.84 1.95 1.684a.37.37 0 0 0 .238.185z"/></g><g><path fill="#263238" d="M388.652 283.656a.37.37 0 0 0 .363-.123 2.843 2.843 0 0 1 2.332-1.11.363.363 0 0 0 .394-.32.362.362 0 0 0-.311-.393 3.564 3.564 0 0 0-2.965 1.373.352.352 0 0 0 .046.497l.004.003c.04.033.086.057.137.073z"/></g><g><path fill="#263238" d="M407.884 281.684c-3.679.36-4.132 4.126-.67 12.269 4.217-1.866 8.013-7.877 6.883-10.502-1.129-2.625-3.001-2.075-6.213-1.767z"/></g><g><path fill="#9f5b53" d="M411.339 295.464a7.127 7.127 0 0 1-4.28 3.364c-2.408.652-3.59-1.508-2.908-3.77.617-2.04 2.618-4.837 5.025-4.488 2.407.348 3.289 2.873 2.163 4.894z"/></g><g><path fill="#263238" d="M400.816 278.653s-.77 7.542 6.106 9.786c6.876 2.245 9.485-1.694 9.485-1.694s-1.117-.113-1.758-.295c0 0 2.945-3.005 1.77-6.936-1.174-3.931-7.241-9.261-12.883-8.752 0 0-4.466-3.13-10.035-1.55-5.568 1.58-6.273 7.932-6.273 7.932s.736-3.78 3.261-4.246c0 0-4.754 6.958-1.08 10.074 0 0 2.342-7.442 11.407-4.319z"/></g><g><g><path fill="#263238" d="M390.694 295.775c.62.867 1.396 2.564 1.396 2.564.167-.043.333-.085.497-.136 2.244-.634 3.075-1.67 3.317-2.625a3.012 3.012 0 0 0-.019-1.424 2.874 2.874 0 0 0-.286-.762c-.988 1.046-3.034 1.799-4.144 2.155-.462.154-.76.228-.76.228z"/></g><g><path fill="#fff" d="M391.455 295.547l.432.745c2.112-.602 3.518-1.31 3.998-2.138-.105-.46-.286-.762-.286-.762-.988 1.046-3.034 1.799-4.144 2.155z"/></g><g><path fill="#de5753" d="M392.587 298.203c2.244-.634 3.075-1.67 3.317-2.625-.757.245-1.641.625-2.352 1.197a2.818 2.818 0 0 0-.965 1.428z"/></g></g></g></g></g></g><g><g><g transform="rotate(2.738 275 110.5)"><path fill="#407bff" d="M267.598 121.678a3.692 3.692 0 0 1-3.693-3.692V103.19a3.692 3.692 0 0 1 3.693-3.692h14.795a3.692 3.692 0 0 1 3.692 3.692v14.795a3.692 3.692 0 0 1-3.693 3.692z"/></g><g opacity=".6"><path fill="#fff" d="M281.302 106.52c-1.443-2.616-4.479-1.783-6.118.118-1.45-2.048-4.393-3.168-6.079-.701-2.842 4.157 2.404 8.386 4.898 10.063.281.192.516.35.71.476.206-.106.454-.24.754-.406 2.642-1.431 8.268-5.14 5.835-9.55z"/></g><g><path fill="#407bff" d="M276.928 120.064s-3.226 6.507-9.833 8.273c0 0 3.7-1.905 3.754-8.84z"/></g></g></g><g><g><g><path fill="#ebb376" d="M293.819 188.673s8.345-8.35 11.035-14.294c0 0-1.016-3.325-.064-5.044.954-1.72 6.513-6.66 7.996-5.612 1.483 1.047 3.632 5.19 2.744 6.927-.888 1.737-6.338 5.292-6.338 5.292s-6.756 13.55-10.942 16.609c-4.185 3.059-4.431-3.878-4.431-3.878z"/></g><g><path fill="#263238" d="M272.715 163.579c4.862.632 10.407 24.197 14.288 26.415 3.881 2.218 13.954-10.807 13.954-10.807l4.62 5.272s-13.306 18.542-18.574 16.89c-5.268-1.65-15.174-19.948-15.174-19.948z"/></g><g opacity=".05"><path fill="#fff" d="M272.715 163.579c4.862.632 10.407 24.197 14.288 26.415 3.881 2.218 13.954-10.807 13.954-10.807l4.62 5.272s-13.306 18.542-18.574 16.89c-5.268-1.65-15.174-19.948-15.174-19.948z"/></g><g><path fill="#ebb376" d="M302.214 380.958l-6.385 1.127-2.619-8.706-2.389-7.99 7.362-2.571 2.138 9.603z"/></g><g><path fill="#263238" d="M294.389 381.918c-.109-.707 8.638-1.682 8.638-1.682s6.276 4.472 11.66 4.775c5.383.304 3.042 3.915-2.735 4.935l-14.29 2.523c-4.104.725-2.156-3.224-3.273-10.551z"/></g><g><g><path fill="#407bff" d="M306.498 378.268c.128.035.344.111.36.234.045.393-1.073 1.284-2.268 1.998.184-.707.563-1.743 1.156-2.122a.887.887 0 0 1 .752-.11zm-1.542 2.63c.93-.388 2.377-.87 3.062-.621a.49.49 0 0 1 .301.258c.146.324.054.431.023.467-.349.408-2.016.211-3.386-.104zm2.368.798c.602 0 1.121-.102 1.37-.392.144-.167.268-.47.047-.96a.947.947 0 0 0-.566-.504c-.506-.18-1.258-.068-1.977.132.638-.5 1.173-1.065 1.12-1.524-.036-.299-.27-.51-.697-.628a1.354 1.354 0 0 0-1.125.168c-1.085.693-1.456 2.834-1.473 2.934a.246.246 0 0 0 .006.103h.001v.001a.227.227 0 0 0 .16.157c.413.115 1.939.513 3.134.513z"/></g></g><g opacity=".2"><path d="M300.356 372.618l-7.115.937-2.404-8.078 7.354-2.615z"/></g><g><path fill="#ebb376" d="M259.587 383.694h-6.484l-1.064-9.028-.964-8.284 7.697-1.252.435 9.828z"/></g><g><path fill="#263238" d="M251.714 383.279c.017-.715 8.8-.155 8.8-.155s5.402 5.496 10.65 6.73c5.25 1.235 2.316 4.385-3.55 4.385h-14.51c-4.168 0-1.564-3.551-1.39-10.96z"/></g><g><g><path fill="#407bff" d="M264.274 381.79c.12.056.32.17.313.294-.023.394-1.28 1.077-2.58 1.572.303-.664.857-1.619 1.507-1.888a.908.908 0 0 1 .355-.075c.135 0 .27.032.405.097zm1.148 2.243a.489.489 0 0 1 .25.307c.088.343-.021.434-.057.463-.414.342-2.024-.144-3.318-.692.986-.218 2.492-.442 3.125-.078zm-.288 1.339c.32 0 .593-.061.774-.21.17-.14.346-.417.214-.937a.938.938 0 0 0-.47-.594c-.466-.268-1.226-.29-1.97-.215.715-.382 1.341-.845 1.366-1.306.018-.3-.176-.549-.577-.74a1.355 1.355 0 0 0-1.136-.03c-1.191.496-1.928 2.545-1.96 2.633a.236.236 0 0 0 .04.226h.002a.209.209 0 0 0 .077.06c.462.22 2.413 1.113 3.64 1.113z"/></g></g><g opacity=".2"><path d="M259.207 375.158l-7.168-.314-.964-8.373 7.697-1.297z"/></g><g><g><path fill="#407bff" d="M300.957 367.552l-10.497 1.85c-10.592-26.39-18.126-48.418-23.447-66.698-2.865-9.864-5.1-18.635-6.815-26.418l.48 28.728v65.26h-10.66c-25.93-123.656-7.554-151.915-7.554-151.915l31.02-5.301c1.179 4.63 2.07 12.136 2.598 17.36l1.4 10.256 12.125 62.615z"/></g></g><g><path fill="#407bff" d="M288.815 368.105l13.02-4.316-.177 5.538-10.767 3.434z"/></g><g><path fill="#407bff" d="M248.627 368.707l13.572-1.986-1.136 5.423-11.201 1.51z"/></g><g><path fill="#263238" d="M270.688 150.685a.26.26 0 0 1-.135-.038c-3.957-2.39-7.486-11.17-7.635-11.543a.263.263 0 0 1 .489-.193c.035.09 3.611 8.987 7.418 11.287a.262.262 0 0 1 .088.36.262.262 0 0 1-.225.127z"/></g><g><path fill="#263238" d="M238.87 127.623s1.542-5.244 11.841-6.14c10.299-.897 15.425 9.254 12.997 16.795 0 0 2.166 10.268 6.322 13.28 0 0-19.818 8.958-29.827 9.008-2.227.011-6.986-11.044-7.6-19.014-.592-7.674 1.725-13.684 6.266-13.929z"/></g><g><path fill="#263238" d="M242.464 213.724v4.63l31.633-2.425v-5.477z"/></g><g opacity=".3"><path fill="#fff" d="M242.464 213.724v4.63l31.633-2.425v-5.477z"/></g><g transform="rotate(-5.118 263.5 214.5)"><path fill="#fff" d="M260.088 217.147v-5.267h6.945v5.267z"/></g><g><g transform="rotate(-2.927 252.5 215.5)"><path fill="#407bff" d="M251.718 219.813v-8.002h1.57v8.002z"/></g></g><g><g transform="rotate(-2.92 271.5 213.5)"><path fill="#407bff" d="M271.043 217.691v-8.002h1.571v8.002z"/></g></g><g><path fill="#263238" d="M274.229 211.009l-31.642 2.733c-.305-4.783-.61-8.883-1.335-13.476-.462-2.944-1.104-6.097-2.029-9.766-.714-2.87-1.608-6.066-2.743-9.724-.053-.2-.116-.4-.179-.599-.652-2.092-5.288-.494-5.708-3.006-1.83-11.185 10.239-12.005 14.685-12.741 4.689-.83 9.45-1.335 14.213-1.493 6.15-.052 13.224.642 13.224.642s1.01.241 1.64 6.77c.578 6.117 1.146 18.374-.126 40.66z"/></g><g><path fill="#ebb376" d="M256.877 169.92c-7.797-.997-10.14-4.328-10.14-4.328 4.947-4.668.836-12.757.836-12.757l9.386 1.753c-.247 1.55-.352 2.851-.366 3.951-.072 5.697 2.505 5.752 2.505 5.752 1.647 3.087-2.22 5.63-2.22 5.63z"/></g><g opacity=".2"><path d="M256.96 154.588c-.248 1.55-.353 2.851-.367 3.951-6.34 0-9.02-5.704-9.02-5.704z"/></g><g><g><path fill="#ebb376" d="M249.763 128.318c7.97-1.805 11.501 1.88 13.945 9.96 3.054 10.098 2.43 17.905-8.031 17.97-14.207.089-19.149-24.933-5.914-27.93z"/></g><g><path fill="#d58745" d="M258.455 139s1.576 1.831 3.068 2.78c0 0-.436 1.238-1.897 1.377z"/></g><g><g><path fill="#263238" d="M253.43 139.453c.163.651-.056 1.267-.49 1.376-.433.11-.92-.33-1.082-.981-.164-.651.056-1.267.49-1.377.434-.109.919.33 1.081.982z"/></g><g><path fill="#263238" d="M252.174 138.548l1.278-.911"/></g></g><g><g><path fill="#263238" d="M261.491 137.284c.163.651-.056 1.267-.49 1.377-.434.108-.918-.331-1.082-.982-.163-.652.055-1.268.49-1.376.434-.11.918.33 1.082.98z"/></g><g><path fill="#263238" d="M260.235 136.38l1.277-.912"/></g></g><g><path fill="#263238" d="M248.92 136.336a.38.38 0 0 1-.34-.55c.96-1.94 3.385-2.188 3.488-2.197a.38.38 0 0 1 .071.758c-.02.003-2.107.222-2.878 1.777a.38.38 0 0 1-.341.213z"/></g><g><path fill="#263238" d="M257.821 132.7a.38.38 0 0 1-.21-.7c.06-.038 1.48-.935 3.669-.1a.38.38 0 1 1-.271.712c-1.813-.693-2.936-.002-2.984.027a.382.382 0 0 1-.204.06z"/></g><g><path fill="#263238" d="M259.174 146.555c-.243 1.066-.302 2.978-.302 2.978a9.8 9.8 0 0 1-.525.07c-2.373.29-3.569-.359-4.176-1.166a3.08 3.08 0 0 1-.547-1.353c-.083-.476-.034-.835-.034-.835 1.35.597 3.584.497 4.774.394.5-.04.81-.088.81-.088z"/></g><g><path fill="#fff" d="M258.364 146.643l-.113.875c-2.235.268-3.845.158-4.627-.434-.083-.476-.034-.835-.034-.835 1.35.597 3.584.497 4.774.394z"/></g><g><path fill="#de5753" d="M258.347 149.603c-2.373.29-3.569-.359-4.176-1.166.812-.068 1.8-.06 2.698.199a2.88 2.88 0 0 1 1.478.967z"/></g><g><path fill="#263238" d="M244.096 143.722s2.243-7.392.534-12.319c0 0 14.33-10.028 18.74 5.825 0 0-1.68-14.583-15.452-11.798-13.749 2.782-9.173 22.815-.745 27.184 0 0-4.455-4.275-3.077-8.892z"/></g><g><path fill="#ebb376" d="M245.779 145.109c-.345-1.271-2.16-3.142-4.488-2.342-2.408.83-2.437 6.165 3.982 5.993.921-.025 1.223-.999.506-3.651z"/></g></g><g><path fill="#263238" d="M244.63 131.403s8.258-3.039 12.908-.748c0 0-5.012-4.497-13.495-.263z"/></g><g><path fill="#ebb376" d="M239.507 166.457s9.155 7.429 17.68 7.309c8.523-.12 11.519-9.706 11.519-9.706s-13.221-3.914-29.199 2.397z"/></g><g opacity=".2"><path d="M267.013 302.704c-2.865-9.864-5.1-18.635-6.815-26.418 0 0 .173-15.127 2.004-27.55 0 0 4.543 35.535 4.811 53.968z"/></g><g><path fill="#ebb376" d="M213.89 182.916s-6.273-10.002-7.568-16.396c0 0 1.732-3.015 1.185-4.903-.545-1.888-4.861-7.944-6.541-7.253-1.68.69-4.698 4.249-4.22 6.14.477 1.89 4.999 6.572 4.999 6.572s3.563 14.717 6.96 18.631c3.398 3.915 5.185-2.791 5.185-2.791z"/></g><g><path fill="#263238" d="M230.974 171.686c3.19-.441 9.625 5.783 8.646 11.167-.98 5.384-9.994 20.518-16.951 19.34-9.829-1.663-20.628-27.572-20.628-27.572l5.394-4.7s12.726 22.045 15.234 21.613c2.51-.43 8.305-19.847 8.305-19.847z"/></g><g opacity=".05"><path fill="#fff" d="M230.974 171.686c3.19-.441 9.625 5.783 8.646 11.167-.98 5.384-9.994 20.518-16.951 19.34-9.829-1.663-20.628-27.572-20.628-27.572l5.394-4.7s12.726 22.045 15.234 21.613c2.51-.43 8.305-19.847 8.305-19.847z"/></g><g><path fill="#263238" d="M199.839 173.038l7.873-4.724 1.247 2.038-7.428 6.574z"/></g><g><path fill="#263238" d="M299.202 179.044l6.376 7.89 1.11-2.476-5.731-6.662z"/></g><g><g><path fill="#407bff" d="M302.388 168.368l10.077-12.274a.95.95 0 0 1 1.386-.087l4.492 4.24a.95.95 0 0 1 .084 1.29l-10.233 12.556a.95.95 0 0 1-1.421.058l-4.336-4.524a.949.949 0 0 1-.049-1.26z"/></g><g opacity=".3"><path d="M302.388 168.368l10.077-12.274a.95.95 0 0 1 1.386-.087l4.492 4.24a.95.95 0 0 1 .084 1.29l-10.233 12.556a.95.95 0 0 1-1.421.058l-4.336-4.524a.949.949 0 0 1-.049-1.26z"/></g><g><path fill="#407bff" d="M301.983 167.874L312.06 155.6a.95.95 0 0 1 1.385-.088l4.492 4.24a.95.95 0 0 1 .084 1.29l-10.233 12.556a.949.949 0 0 1-1.42.057l-4.337-4.522a.95.95 0 0 1-.048-1.26z"/></g><g opacity=".6"><path fill="#fff" d="M312.465 156.094l4.98 4.817-9.744 11.989-4.85-5.093z"/></g></g></g></g></g></g></svg>