<svg xmlns="http://www.w3.org/2000/svg" width="575" height="536" viewBox="0 0 575 536"><g><g><g><path fill="#f0f0f0" d="M488.085 142.445L335.975 91.07l-.118-.12L255.494 8.58l-64.446 58.864-.943-1.032L255.55 6.638l81.19 83.216 150.818 50.938 61.902-85.16 1.13.822z"/></g><g><g><path fill="#f0f0f0" d="M15.284 268.893a7.518 7.518 0 1 1-15.036-.001 7.518 7.518 0 0 1 15.036 0z"/></g><g><path fill="#f0f0f0" d="M263.04 7.61a7.52 7.52 0 1 1-15.038-.002 7.52 7.52 0 0 1 15.038.001z"/></g><g><path fill="#f0f0f0" d="M557.542 56.043a7.518 7.518 0 1 1-15.035 0 7.518 7.518 0 0 1 15.035 0z"/></g><g><path fill="#f0f0f0" d="M558.196 452.8a7.518 7.518 0 1 1-15.036-.001 7.518 7.518 0 0 1 15.036.002z"/></g><g><path fill="#f0f0f0" d="M343.876 90.462a7.518 7.518 0 0 1-7.519 7.517 7.518 7.518 0 1 1 0-15.036 7.52 7.52 0 0 1 7.52 7.519z"/></g></g><g><path fill="#f0f0f0" d="M204.985 452.993l-.583-.11-188.55-35.603.258-1.373 187.969 35.492L335.7 90.222l1.313.48z"/></g><g transform="rotate(-48.475 56.5 152.5)"><path fill="#f0f0f0" d="M55.88 195.702V109.77h1.397v85.932z"/></g><g><path fill="#f0f0f0" d="M550.311 453.394l-93.22-57.773 2.035-.558 97.941-94.225L487.182 141.9l1.28-.562 70.277 159.83-.351.338-98.147 94.424 90.806 56.277z"/></g><g><path fill="#f0f0f0" d="M16.568 416.973l-1.174-.759 56.341-87.029L6.78 268.931l.474-.512 81.358-88.084.483.28 370.738 214.47-.7 1.209L88.879 182.105l-80.125 86.75 64.792 60.103z"/></g><g><path fill="#f5f5f5" d="M15.98 519.675c0-8.74 121.314-15.824 270.962-15.824s270.962 7.085 270.962 15.824c0 8.74-121.314 15.825-270.962 15.825S15.98 528.415 15.98 519.675z"/></g><g><g><g><g><path fill="#407bff" d="M274.364 356.018c3.76.31 7.484.434 11.172.378 31.588-.46 60.49-14.014 80.99-35.805 16.992-18.063 28.214-41.794 30.416-68.43.058-.691.106-1.381.154-2.065.918-14.25-.836-28.069-4.835-40.958v-.008c-12.25-39.404-45.492-70.177-87.648-78.008a116.088 116.088 0 0 0-11.528-1.538 113.535 113.535 0 0 0-27.636 1.072c-26.487 4.291-50.188 17.829-67.334 37.446-15.408 17.64-25.529 40.19-27.608 65.337-1.114 13.474.172 26.59 3.498 38.924 12.11 44.942 51.302 79.599 100.36 83.655z"/></g></g><g opacity=".7"><g opacity=".7"><path fill="#fff" d="M274.364 356.018c3.76.31 7.484.434 11.172.378 31.588-.46 60.49-14.014 80.99-35.805 16.992-18.063 28.214-41.794 30.416-68.43.058-.691.106-1.381.154-2.065.918-14.25-.836-28.069-4.835-40.958v-.008c-12.25-39.404-45.492-70.177-87.648-78.008a116.088 116.088 0 0 0-11.528-1.538 113.535 113.535 0 0 0-27.636 1.072c-26.487 4.291-50.188 17.829-67.334 37.446-15.408 17.64-25.529 40.19-27.608 65.337-1.114 13.474.172 26.59 3.498 38.924 12.11 44.942 51.302 79.599 100.36 83.655z"/></g></g><g><g><path fill="#407bff" d="M198.64 270.507c-.366 2.112-3.052 2.87-5.215 3.143-3.25.401-6.497.81-9.747 1.212-1.533-4.036-6.31-4.071-9.673-2.5 12.11 44.943 51.302 79.6 100.36 83.656 3.758.31 7.483.434 11.17.378.066-.086.125-.181.184-.278 1.692-2.976-.765-5.612-2.078-8.052-.297-.552-3.082-7.589-2.158-7.608a30.065 30.065 0 0 1-8.849-1.145c-.217-.061-.454-.14-.567-.337-.27-.465.378-.92.901-1.042 1.337-.313 2.728-.386 4.043-.78 1.316-.393 2.612-1.195 3.122-2.47.513-1.282.136-2.751.428-4.101.359-1.645 1.699-2.94 3.217-3.67 1.466-.704 3.118-.959 4.693-1.25-3.433-1.87-.935-5.763-3.627-8.365-.864-.835-2.126-1.857-1.593-2.936.504-1.026 2.321-1.01 2.546-2.133.16-.784-.668-1.43-1.448-1.607-.78-.176-1.635-.113-2.335-.5-.984-.545-1.312-2-.66-2.917.587-.821 1.672-1.074 2.563-1.55.893-.475 1.697-1.574 1.162-2.432a1.596 1.596 0 0 0-.516-.484c-1.455-.9-3.358-.148-4.78.804-1.42.953-2.86 2.149-4.57 2.132-.392-.644-.117-1.597.56-1.931.235-.118.51-.17.693-.358.4-.408.1-1.079-.173-1.58a10.237 10.237 0 0 1-.784-7.801l10.401.198c.087-.78.172-1.245.997-1.481-2.326-2.78-4.864-5.358-6.92-8.385-.248-.362-.516-.75-.93-.898-.43-.155-.91-.007-1.363-.07-1.5-.203-1.742-2.255-1.589-3.76-.21-.457-.949-.26-1.225.16-.277.42-.343.966-.68 1.34-.505.556-1.404.497-2.105.227-2.44-.939-3.728-4.103-2.64-6.479.13-.282.299-.566.568-.72.594-.339 1.313.079 1.986.2 2.654.477 2.25-2.456 1.61-3.844-.866-1.88-3.449-3.093-5.327-3.573-2.193-.562-16.822-3.357-14.41-8.127.227-.447.667-.75 1.127-.952 1.393-.609 3.003-.437 4.467-.85 1.464-.414 2.885-1.938 2.246-3.318-.256-.554-.785-.934-1.081-1.468-.826-1.485.445-3.414-.14-5.01-.27-.734-.893-1.274-1.286-1.95-.391-.677-.456-1.696.211-2.101.75-.455 1.775.22 2.573-.137.838-.376.774-1.749.017-2.27-.758-.52-1.825-.321-2.587.193-.398.268-.772.626-1.248.69-.855.114-1.493-.736-1.929-1.48-.693-1.18-1.385-2.363-2.078-3.545-.782.015-1.382.732-1.65 1.467-.267.737-.32 1.542-.625 2.27-1.47 3.503-6.804 3.087-6.114 7.883 1.438-.173 2.767 1.447 2.316 2.823-.557 1.697-3.104 2.628-2.748 4.377.125.61.61 1.103.706 1.716.27 1.694-2.35 2.316-3.474 2.702-3.729 1.278-3.983-1.17-7.214-1.315-1.479-.067-2.806.93-4.277 1.091-1.354.15-2.7-.423-4.06-.344-3.736.218-1.862 5.284-1.598 7.485-2.008-1.337-4.692.224-6.289 2.027-2.454 2.768-2.225 2.28-5.474 2.404-.86.032-1.758.455-2.106 1.24-.605 1.367.68 2.84.714 4.336.016.716-.263 1.422-.197 2.136.172 1.876 2.394 2.692 3.741 4.008a5.149 5.149 0 0 1 1.441 4.526c-.96.06-1.928-.009-2.87-.206a3530.38 3530.38 0 0 0-1.687-3.256c-.496-.962-1.023-1.957-1.898-2.594-.49-.356-1.086-.6-1.44-1.089-.71-.974-.136-2.31.031-3.502.408-2.891-1.045-7.756-1.752-10.625-.755-3.058-2.785-4.26-3.523-7.082-.13-.498-.825-.66-1.272-.406-.447.253-.678.767-.805 1.266a5.343 5.343 0 0 0 .309 3.498c-.647-1.425-4.253 2.326-4.47 3.039-.357 1.165.417 2.828.388 4.04-.076 3.004-.801 4.694-3.908 2.482-1.188-.846-2.708-1.842-3.967-1.107.27.817-.278 1.736-1.047 2.124-.767.389-1.681.352-2.525.192-.57-.11-1.167-.295-1.533-.745-.196-.24-.316-.547-.56-.738-.797-.62-1.802.455-2.235 1.368"/></g><g><path fill="#407bff" d="M335.894 181.178c.628.984-.035 2.267-.75 3.188-.718.922-1.555 2.005-1.24 3.129l4.044.369c.254.024.535.061.696.258.163.2.141.488.11.744l-.316 2.598c-.852.664-1.672-1.428-2.732-1.22-.468.092-.707.597-.963 1-2.19 3.431-6.009.86-8.055-.925-2.373-2.07-5.812-2.205-8.966-2.24-1.121-.008-2.38.03-3.175.834-.784.782-.83 2.017-1.225 3.065-.677 1.811-2.416 2.998-3.4 4.666-3.438 5.83 2.744 10.313 7.998 8.726 2.725-.821 2.256-1.298 5.041-.498 1.16.334 2.583.047 3.294 1.336.755 1.365-.302 3.172-1.895 3.157-1.561-.017-3.066.227-4.478-.522.53 1.842-.054 3.944-.201 5.902-1.783-.417-3.548 1.792-2.75 3.44.887.013 2.086.346 2.012 1.23-.02.259-.163.49-.312.702-.617.887-1.408 1.653-1.94 2.598-.815 1.452-.81 5.801-2.89 6.322-.365.093-.755.062-1.115.176-.765.245-1.199 1.16-1.02 1.943.18.784.872 1.389 1.648 1.597.518.139 1.07.125 1.576.3 2.688.937.329 3.59.972 4.903.309.629 4.796 3.467 5.358 3.565-1.58 1.083-2.97 2.777-3.027 4.774-.063 2.186 1.599 3.245 3.678 3.895 2.195.686 4.856.914 6.438 1.525.85.328 1.888.633 2.604.068.893-.706.697-2.369 1.729-2.852.327-.154.704-.14 1.063-.174 2.112-.2 3.797-2.423 3.423-4.51.489-.635 1.44-.575 2.243-.554.802.022 1.816-.242 1.932-1.036.134-.912-1.034-1.42-1.955-1.474a10.16 10.16 0 0 0-2.803.224c-.686.152-1.426.371-2.066.083-.485-.218-.805-.683-1.081-1.136-.667-1.091-1.25-2.321-1.144-3.595.105-1.276 1.134-2.55 2.412-2.503.344.012.688.116 1.026.061.87-.141 1.25-1.212 1.198-2.092-.053-.88-.352-1.778-.11-2.627.238-.849 1.417-1.48 2.004-.822.493-1.128.82-2.769-.286-3.312-.353-.173-.767-.164-1.16-.201-2.43-.228-5.713-3.518-3.012-5.39 1.774-1.23 4.64 1.337 6.2-.994.747-1.115.285-2.738 1.051-3.84.454-.326.985.335 1.086.885.32 1.74-.35 3.628-1.692 4.78 1.364.797 3.524-.112 4.45 1.168.918 1.264-.44 3.46.77 4.447.346.282.811.358 1.256.424 2.184.322 6.266-.05 6.4 3.081.016.38-.042.77.069 1.132.335 1.103 1.835 1.207 2.98 1.094.59-1.128-.178-2.444-.687-3.61-.51-1.166-.474-2.952.764-3.244.888-.209 1.92.553 2.668.033.347-.242.506-.703.88-.901.902-.48 1.665.91 2.638 1.221 1.343.428 2.359-1.332 2.36-2.74.002-1.41-.35-3.012.568-4.08.292-.338.682-.576 1.002-.886.986-.957 1.18-2.444 1.32-3.81.223-2.184 8.838 3.47 9.382 3.561 4.143.69 6.687-3.416 9.524-5.666 1.495-1.174 3.221-1.986 4.946-2.8-11.795-37.938-43.564-67.731-82.252-76.868-1.734-.41-3.526-.876-5.274-1.022.534 2.64 2.164 6.809.394 9.315-2.25 3.183-7.014.397-8.767 4.13-.058.951 1.53.795 2.263 1.405.408.338.51.91.712 1.4.203.491.678.986 1.186.832.59.882-.329 1.965-1.11 2.682-.918.844-1.778 1.824-2.126 3.021-.724 2.496.917 4.975 1.968 7.351.87 1.964 1.358 4.071 1.843 6.163.016-.992 1.422-1.39 2.308-.94.886.45 1.426 1.357 2.145 2.046 1.223 1.172 2.802.46 4.12 1.464 1.639 1.24 2.686 3.47 4.71 3.806 2.452.412 4.234-2.204 5.322-4.433 2.696 1.428 4.362 4.873 7.409 5.1 1.172.089 2.305-.354 3.396-.783 2.233-.878 4.466-1.757 6.69-2.638.927-.366 1.945-.735 2.881-.398 1.107.386 1.669 1.588 2.107 2.662l1.443 3.51c.194.486.394 1.013.268 1.513-.137.541-.602.913-1.072 1.217-2.522 1.66-5.69 2.302-8.67 1.771a48.93 48.93 0 0 0 2.366 11.901c-2.28-.59-4.901.17-7.011-.708"/></g><g><path fill="#407bff" d="M309.915 273.412c-.854 1.018-2.099 1.792-3.426 1.758-.82-.02-1.6-.34-2.411-.455-.81-.115-1.76.046-2.208.732-.572.875-.03 2.025.51 2.92.439.728.952 1.514 1.77 1.746.597.17 1.241.003 1.854.104 1.214.198 1.992 1.346 2.797 2.275.807.928 2.123 1.765 3.195 1.163.706-.397 1.01-1.289 1.694-1.72 1.67-1.053 3.724 1.235 5.238.372 1.793-1.021 1.136-3.94.392-5.585-.751-1.663-2.283-2.948-3.567-4.194-3.633-3.525-3.124-2.35-5.838.884z"/></g><g><path fill="#407bff" d="M366.566 320.5c17.873-17.71 28.325-43.521 30.376-68.34.058-.69.106-1.38.154-2.064-3.446-3.555-10.312-5.822-12.11.572-.708-.052-.853-.472-1.393-.874-.847-.627-2.037.224-2.511 1.166-1.558 3.088-1.774 6.965-6.054 6.132-5.104-.993-1.642-3.178-3.305-5.992-.24-.408-.664-.668-.997-1.005-1.218-1.236-1.057-3.228-.812-4.947.979.51 2.354-.063 2.682-1.117.123-.397.126-.854.394-1.172.577-.682 1.771-.044 2.048.807.276.85.064 1.788.25 2.663.184.874 1.139 1.733 1.903 1.267.319-.194.49-.56.598-.918a4.864 4.864 0 0 0-.876-4.429c.841-.222 1.475-1.065 1.456-1.935-.02-.87-.689-1.684-1.54-1.87-1.242-.271-3.018.462-3.521-.707a2.824 2.824 0 0 1-1.095 2.732c-3.295 2.392-10.706.261-9.968 7.28.119 1.129.513 2.227.488 3.362-.027 1.133-.649 2.387-1.763 2.603 2.002 1.615 1.27 5.311 3.419 6.722 1.011.664 2.483.508 3.333-.353.14-.144.276-.31.47-.37.39-.122.754.247 1.155.334.696.148 1.298-.573 2.01-.613.992-.055 1.533 1.131 1.707 2.11.176.976.44 2.174 1.396 2.442.328.09.68.046 1.005.138.657.185 1.053.898 1.089 1.58.036.683-.21 1.344-.451 1.983-.413.416-1.15.162-1.547-.269-.399-.43-.638-1.003-1.098-1.366-.257-.204-6.196.253-6.009-.178-.883 2.045-1.329 6.52-4.398 5.38-1.083-.403-2.188-1.137-3.296-.807a193.574 193.574 0 0 0 1.528-4.352c-.448-.398-1.146.147-1.336.715-.19.57-.22 1.26-.7 1.62-.337.253-.794.256-1.214.248l-4.11-.082c-1.487-.029-3.198.041-4.124 1.204-1.055 1.322-.449 3.351.676 4.614.27.304.587.638.558 1.043-.025.366-.327.641-.591.897-1.395 1.34-2.32 3.293-2.018 5.204.303 1.91 2.073 3.606 4 3.434.741-.066 1.662-.314 2.1.288.255.354.248.925.647 1.105.501.227.922-.403 1.283-.819.65-.751 1.856-.947 2.71-.44.438.26 1.81 4.48 1.453 5.093-.82 1.404-4.71.85-6.232.92-.588.024-1.245.083-1.63.528-.603.693-.114 1.797.56 2.42.675.623 1.552 1.11 1.888 1.965.195.496.175 1.048.15 1.582-.051 1.08-.16 2.29-.983 2.993-.384.327-.883.5-1.268.828-.88.749-.942 2.103-.635 3.217.306 1.112.902 2.14 1.116 3.274.453 2.415-.873 5.037.087 7.3.462 1.092 1.907 1.964 2.813 1.194.78-.665.773-2.234 1.792-2.349.976-.11 2.187 2.352 2.997 2.83.642.379 1.936-.246 3.114.608.956.692 1.15 2.22 2.18 2.97z"/></g><g><path fill="#407bff" d="M214.864 169.139c1.005-1.279 1.638-2.75 3.524-3.079 2.57-.449 3.543.992 2.418 3.43-.1.216-.205.454-.15.686.175.742 1.285.308 1.918-.12 1.477-.997 3.354-.931 4.932-.237.374.165 1.07-6.885.704-7.696-1.284-2.834-7.225-1.5-6.008-4.584 2.224-.047 4.501.242 6.735.406l.366-3.219c-.091.8 4.062.635 4.532.396 1.828-.928 1.333-4.257 4.613-3.716 4.152.684 4.39 8.843-.331 7.513-1.13 2.395-1.56 5.261-1.681 7.904-.854-.003-1.716-.017-2.569-.028a2.32 2.32 0 0 0-.314 2.075c2.05 1.443 5.003 1.47 7.086.067 1.348 1.033 3.254.044 4.642-.939 1.943 3.125 7.514 2.69 8.95-.7 1.436-3.397-2.135-7.696-5.733-6.912a8.245 8.245 0 0 0-1.751-4.743c4.458.152 8.846-2.884 10.266-7.113.72-2.126.883-4.7 2.677-6.05.795-.605 1.804-.855 2.637-1.407 1.862-1.253 2.408-3.702 2.7-5.93.192-1.493.332-2.988.422-4.487-26.487 4.291-50.188 17.829-67.334 37.446-.091.788-.141 1.604.169 2.315.585 1.322 2.159 1.837 3.56 2.204 5.45 1.44 8.933 1.127 12.71-3.112a7.02 7.02 0 0 0 .31-.37z"/></g></g><g opacity=".4"><g opacity=".4"><path fill="#fff" d="M198.64 270.507c-.366 2.112-3.052 2.87-5.215 3.143-3.25.401-6.497.81-9.747 1.212-1.533-4.036-6.31-4.071-9.673-2.5 12.11 44.943 51.302 79.6 100.36 83.656 3.758.31 7.483.434 11.17.378.066-.086.125-.181.184-.278 1.692-2.976-.765-5.612-2.078-8.052-.297-.552-3.082-7.589-2.158-7.608a30.065 30.065 0 0 1-8.849-1.145c-.217-.061-.454-.14-.567-.337-.27-.465.378-.92.901-1.042 1.337-.313 2.728-.386 4.043-.78 1.316-.393 2.612-1.195 3.122-2.47.513-1.282.136-2.751.428-4.101.359-1.645 1.699-2.94 3.217-3.67 1.466-.704 3.118-.959 4.693-1.25-3.433-1.87-.935-5.763-3.627-8.365-.864-.835-2.126-1.857-1.593-2.936.504-1.026 2.321-1.01 2.546-2.133.16-.784-.668-1.43-1.448-1.607-.78-.176-1.635-.113-2.335-.5-.984-.545-1.312-2-.66-2.917.587-.821 1.672-1.074 2.563-1.55.893-.475 1.697-1.574 1.162-2.432a1.596 1.596 0 0 0-.516-.484c-1.455-.9-3.358-.148-4.78.804-1.42.953-2.86 2.149-4.57 2.132-.392-.644-.117-1.597.56-1.931.235-.118.51-.17.693-.358.4-.408.1-1.079-.173-1.58a10.237 10.237 0 0 1-.784-7.801l10.401.198c.087-.78.172-1.245.997-1.481-2.326-2.78-4.864-5.358-6.92-8.385-.248-.362-.516-.75-.93-.898-.43-.155-.91-.007-1.363-.07-1.5-.203-1.742-2.255-1.589-3.76-.21-.457-.949-.26-1.225.16-.277.42-.343.966-.68 1.34-.505.556-1.404.497-2.105.227-2.44-.939-3.728-4.103-2.64-6.479.13-.282.299-.566.568-.72.594-.339 1.313.079 1.986.2 2.654.477 2.25-2.456 1.61-3.844-.866-1.88-3.449-3.093-5.327-3.573-2.193-.562-16.822-3.357-14.41-8.127.227-.447.667-.75 1.127-.952 1.393-.609 3.003-.437 4.467-.85 1.464-.414 2.885-1.938 2.246-3.318-.256-.554-.785-.934-1.081-1.468-.826-1.485.445-3.414-.14-5.01-.27-.734-.893-1.274-1.286-1.95-.391-.677-.456-1.696.211-2.101.75-.455 1.775.22 2.573-.137.838-.376.774-1.749.017-2.27-.758-.52-1.825-.321-2.587.193-.398.268-.772.626-1.248.69-.855.114-1.493-.736-1.929-1.48-.693-1.18-1.385-2.363-2.078-3.545-.782.015-1.382.732-1.65 1.467-.267.737-.32 1.542-.625 2.27-1.47 3.503-6.804 3.087-6.114 7.883 1.438-.173 2.767 1.447 2.316 2.823-.557 1.697-3.104 2.628-2.748 4.377.125.61.61 1.103.706 1.716.27 1.694-2.35 2.316-3.474 2.702-3.729 1.278-3.983-1.17-7.214-1.315-1.479-.067-2.806.93-4.277 1.091-1.354.15-2.7-.423-4.06-.344-3.736.218-1.862 5.284-1.598 7.485-2.008-1.337-4.692.224-6.289 2.027-2.454 2.768-2.225 2.28-5.474 2.404-.86.032-1.758.455-2.106 1.24-.605 1.367.68 2.84.714 4.336.016.716-.263 1.422-.197 2.136.172 1.876 2.394 2.692 3.741 4.008a5.149 5.149 0 0 1 1.441 4.526c-.96.06-1.928-.009-2.87-.206a3530.38 3530.38 0 0 0-1.687-3.256c-.496-.962-1.023-1.957-1.898-2.594-.49-.356-1.086-.6-1.44-1.089-.71-.974-.136-2.31.031-3.502.408-2.891-1.045-7.756-1.752-10.625-.755-3.058-2.785-4.26-3.523-7.082-.13-.498-.825-.66-1.272-.406-.447.253-.678.767-.805 1.266a5.343 5.343 0 0 0 .309 3.498c-.647-1.425-4.253 2.326-4.47 3.039-.357 1.165.417 2.828.388 4.04-.076 3.004-.801 4.694-3.908 2.482-1.188-.846-2.708-1.842-3.967-1.107.27.817-.278 1.736-1.047 2.124-.767.389-1.681.352-2.525.192-.57-.11-1.167-.295-1.533-.745-.196-.24-.316-.547-.56-.738-.797-.62-1.802.455-2.235 1.368"/></g><g opacity=".4"><path fill="#fff" d="M335.894 181.178c.628.984-.035 2.267-.75 3.188-.718.922-1.555 2.005-1.24 3.129l4.044.369c.254.024.535.061.696.258.163.2.141.488.11.744l-.316 2.598c-.852.664-1.672-1.428-2.732-1.22-.468.092-.707.597-.963 1-2.19 3.431-6.009.86-8.055-.925-2.373-2.07-5.812-2.205-8.966-2.24-1.121-.008-2.38.03-3.175.834-.784.782-.83 2.017-1.225 3.065-.677 1.811-2.416 2.998-3.4 4.666-3.438 5.83 2.744 10.313 7.998 8.726 2.725-.821 2.256-1.298 5.041-.498 1.16.334 2.583.047 3.294 1.336.755 1.365-.302 3.172-1.895 3.157-1.561-.017-3.066.227-4.478-.522.53 1.842-.054 3.944-.201 5.902-1.783-.417-3.548 1.792-2.75 3.44.887.013 2.086.346 2.012 1.23-.02.259-.163.49-.312.702-.617.887-1.408 1.653-1.94 2.598-.815 1.452-.81 5.801-2.89 6.322-.365.093-.755.062-1.115.176-.765.245-1.199 1.16-1.02 1.943.18.784.872 1.389 1.648 1.597.518.139 1.07.125 1.576.3 2.688.937.329 3.59.972 4.903.309.629 4.796 3.467 5.358 3.565-1.58 1.083-2.97 2.777-3.027 4.774-.063 2.186 1.599 3.245 3.678 3.895 2.195.686 4.856.914 6.438 1.525.85.328 1.888.633 2.604.068.893-.706.697-2.369 1.729-2.852.327-.154.704-.14 1.063-.174 2.112-.2 3.797-2.423 3.423-4.51.489-.635 1.44-.575 2.243-.554.802.022 1.816-.242 1.932-1.036.134-.912-1.034-1.42-1.955-1.474a10.16 10.16 0 0 0-2.803.224c-.686.152-1.426.371-2.066.083-.485-.218-.805-.683-1.081-1.136-.667-1.091-1.25-2.321-1.144-3.595.105-1.276 1.134-2.55 2.412-2.503.344.012.688.116 1.026.061.87-.141 1.25-1.212 1.198-2.092-.053-.88-.352-1.778-.11-2.627.238-.849 1.417-1.48 2.004-.822.493-1.128.82-2.769-.286-3.312-.353-.173-.767-.164-1.16-.201-2.43-.228-5.713-3.518-3.012-5.39 1.774-1.23 4.64 1.337 6.2-.994.747-1.115.285-2.738 1.051-3.84.454-.326.985.335 1.086.885.32 1.74-.35 3.628-1.692 4.78 1.364.797 3.524-.112 4.45 1.168.918 1.264-.44 3.46.77 4.447.346.282.811.358 1.256.424 2.184.322 6.266-.05 6.4 3.081.016.38-.042.77.069 1.132.335 1.103 1.835 1.207 2.98 1.094.59-1.128-.178-2.444-.687-3.61-.51-1.166-.474-2.952.764-3.244.888-.209 1.92.553 2.668.033.347-.242.506-.703.88-.901.902-.48 1.665.91 2.638 1.221 1.343.428 2.359-1.332 2.36-2.74.002-1.41-.35-3.012.568-4.08.292-.338.682-.576 1.002-.886.986-.957 1.18-2.444 1.32-3.81.223-2.184 8.838 3.47 9.382 3.561 4.143.69 6.687-3.416 9.524-5.666 1.495-1.174 3.221-1.986 4.946-2.8-11.795-37.938-43.564-67.731-82.252-76.868-1.734-.41-3.526-.876-5.274-1.022.534 2.64 2.164 6.809.394 9.315-2.25 3.183-7.014.397-8.767 4.13-.058.951 1.53.795 2.263 1.405.408.338.51.91.712 1.4.203.491.678.986 1.186.832.59.882-.329 1.965-1.11 2.682-.918.844-1.778 1.824-2.126 3.021-.724 2.496.917 4.975 1.968 7.351.87 1.964 1.358 4.071 1.843 6.163.016-.992 1.422-1.39 2.308-.94.886.45 1.426 1.357 2.145 2.046 1.223 1.172 2.802.46 4.12 1.464 1.639 1.24 2.686 3.47 4.71 3.806 2.452.412 4.234-2.204 5.322-4.433 2.696 1.428 4.362 4.873 7.409 5.1 1.172.089 2.305-.354 3.396-.783 2.233-.878 4.466-1.757 6.69-2.638.927-.366 1.945-.735 2.881-.398 1.107.386 1.669 1.588 2.107 2.662l1.443 3.51c.194.486.394 1.013.268 1.513-.137.541-.602.913-1.072 1.217-2.522 1.66-5.69 2.302-8.67 1.771a48.93 48.93 0 0 0 2.366 11.901c-2.28-.59-4.901.17-7.011-.708"/></g><g opacity=".4"><path fill="#fff" d="M309.915 273.412c-.854 1.018-2.099 1.792-3.426 1.758-.82-.02-1.6-.34-2.411-.455-.81-.115-1.76.046-2.208.732-.572.875-.03 2.025.51 2.92.439.728.952 1.514 1.77 1.746.597.17 1.241.003 1.854.104 1.214.198 1.992 1.346 2.797 2.275.807.928 2.123 1.765 3.195 1.163.706-.397 1.01-1.289 1.694-1.72 1.67-1.053 3.724 1.235 5.238.372 1.793-1.021 1.136-3.94.392-5.585-.751-1.663-2.283-2.948-3.567-4.194-3.633-3.525-3.124-2.35-5.838.884z"/></g><g opacity=".4"><path fill="#fff" d="M366.566 320.5c17.873-17.71 28.325-43.521 30.376-68.34.058-.69.106-1.38.154-2.064-3.446-3.555-10.312-5.822-12.11.572-.708-.052-.853-.472-1.393-.874-.847-.627-2.037.224-2.511 1.166-1.558 3.088-1.774 6.965-6.054 6.132-5.104-.993-1.642-3.178-3.305-5.992-.24-.408-.664-.668-.997-1.005-1.218-1.236-1.057-3.228-.812-4.947.979.51 2.354-.063 2.682-1.117.123-.397.126-.854.394-1.172.577-.682 1.771-.044 2.048.807.276.85.064 1.788.25 2.663.184.874 1.139 1.733 1.903 1.267.319-.194.49-.56.598-.918a4.864 4.864 0 0 0-.876-4.429c.841-.222 1.475-1.065 1.456-1.935-.02-.87-.689-1.684-1.54-1.87-1.242-.271-3.018.462-3.521-.707a2.824 2.824 0 0 1-1.095 2.732c-3.295 2.392-10.706.261-9.968 7.28.119 1.129.513 2.227.488 3.362-.027 1.133-.649 2.387-1.763 2.603 2.002 1.615 1.27 5.311 3.419 6.722 1.011.664 2.483.508 3.333-.353.14-.144.276-.31.47-.37.39-.122.754.247 1.155.334.696.148 1.298-.573 2.01-.613.992-.055 1.533 1.131 1.707 2.11.176.976.44 2.174 1.396 2.442.328.09.68.046 1.005.138.657.185 1.053.898 1.089 1.58.036.683-.21 1.344-.451 1.983-.413.416-1.15.162-1.547-.269-.399-.43-.638-1.003-1.098-1.366-.257-.204-6.196.253-6.009-.178-.883 2.045-1.329 6.52-4.398 5.38-1.083-.403-2.188-1.137-3.296-.807a193.574 193.574 0 0 0 1.528-4.352c-.448-.398-1.146.147-1.336.715-.19.57-.22 1.26-.7 1.62-.337.253-.794.256-1.214.248l-4.11-.082c-1.487-.029-3.198.041-4.124 1.204-1.055 1.322-.449 3.351.676 4.614.27.304.587.638.558 1.043-.025.366-.327.641-.591.897-1.395 1.34-2.32 3.293-2.018 5.204.303 1.91 2.073 3.606 4 3.434.741-.066 1.662-.314 2.1.288.255.354.248.925.647 1.105.501.227.922-.403 1.283-.819.65-.751 1.856-.947 2.71-.44.438.26 1.81 4.48 1.453 5.093-.82 1.404-4.71.85-6.232.92-.588.024-1.245.083-1.63.528-.603.693-.114 1.797.56 2.42.675.623 1.552 1.11 1.888 1.965.195.496.175 1.048.15 1.582-.051 1.08-.16 2.29-.983 2.993-.384.327-.883.5-1.268.828-.88.749-.942 2.103-.635 3.217.306 1.112.902 2.14 1.116 3.274.453 2.415-.873 5.037.087 7.3.462 1.092 1.907 1.964 2.813 1.194.78-.665.773-2.234 1.792-2.349.976-.11 2.187 2.352 2.997 2.83.642.379 1.936-.246 3.114.608.956.692 1.15 2.22 2.18 2.97z"/></g><g opacity=".4"><path fill="#fff" d="M214.864 169.139c1.005-1.279 1.638-2.75 3.524-3.079 2.57-.449 3.543.992 2.418 3.43-.1.216-.205.454-.15.686.175.742 1.285.308 1.918-.12 1.477-.997 3.354-.931 4.932-.237.374.165 1.07-6.885.704-7.696-1.284-2.834-7.225-1.5-6.008-4.584 2.224-.047 4.501.242 6.735.406l.366-3.219c-.091.8 4.062.635 4.532.396 1.828-.928 1.333-4.257 4.613-3.716 4.152.684 4.39 8.843-.331 7.513-1.13 2.395-1.56 5.261-1.681 7.904-.854-.003-1.716-.017-2.569-.028a2.32 2.32 0 0 0-.314 2.075c2.05 1.443 5.003 1.47 7.086.067 1.348 1.033 3.254.044 4.642-.939 1.943 3.125 7.514 2.69 8.95-.7 1.436-3.397-2.135-7.696-5.733-6.912a8.245 8.245 0 0 0-1.751-4.743c4.458.152 8.846-2.884 10.266-7.113.72-2.126.883-4.7 2.677-6.05.795-.605 1.804-.855 2.637-1.407 1.862-1.253 2.408-3.702 2.7-5.93.192-1.493.332-2.988.422-4.487-26.487 4.291-50.188 17.829-67.334 37.446-.091.788-.141 1.604.169 2.315.585 1.322 2.159 1.837 3.56 2.204 5.45 1.44 8.933 1.127 12.71-3.112a7.02 7.02 0 0 0 .31-.37z"/></g></g></g></g><g><g><g><path fill="#407bff" d="M7.767 124.25a16.633 16.633 0 0 0 8.336 14.423 16.513 16.513 0 0 0 8.31 2.222c3.871 0 7.432-1.318 10.255-3.54a16.598 16.598 0 0 0 6.39-13.104c0-9.193-7.454-16.646-16.645-16.646-9.193 0-16.646 7.453-16.646 16.646z"/></g><g opacity=".3" transform="rotate(-9.217 24.5 124)"><path fill="#fff" d="M8.714 124.251c0-8.669 7.028-15.696 15.697-15.696s15.696 7.027 15.696 15.696c0 8.67-7.027 15.697-15.696 15.697S8.714 132.92 8.714 124.25z"/></g><g><path fill="#407bff" d="M15.082 123.988a2.534 2.534 0 0 0 1.926 2.325s-.4 1.057.068 2.326c.47 1.277 3.037 1.277 3.037 1.277s.22.684 1.167.787c.054.075.117.137.165.2.11.165.234.338.366.503.317 2.527.255 5.19-.98 6.543.007.007.021.014.028.028-1.077.117-2.16.261-3.23.435a36.61 36.61 0 0 0-1.526.261 16.513 16.513 0 0 0 8.31 2.222c3.871 0 7.432-1.318 10.255-3.54-.477-.007-1.015-.014-1.602-.014-.869-.007-1.849.007-2.92.028-.006-.02-.013-.042-.026-.061-1.794-.298-2.665-1.14-3.022-2.21-.18-.53-.221-1.118-.2-1.724.475-.09.937-.242 1.379-.456a5.712 5.712 0 0 0 2.83-3.098c.075-.187.137-.38.193-.58.373-1.416.53-3.203.359-4.956a2.333 2.333 0 0 0 1.132-1.6c.331-1.69-1.18-2.092-1.18-2.092s1.65-.268 1.711-2.332c.069-2.063-1.712-2.063-1.712-2.063s.608-.878-.573-2.506c-1.172-1.62-2.807-.627-2.807-.627s-1.243-1.954-3.265-1.477c-2.03.483-2.546 1.677-2.546 1.677s0-1.194-2.306-.531c-2.305.669-2.022 3.319-2.022 3.319s-1.546-.787-2.347.876c-.8 1.663.932 4.575.932 4.575s-1.794.484-1.594 2.485z"/></g><g opacity=".7"><path fill="#fff" d="M7.767 124.25a16.633 16.633 0 0 0 8.336 14.423 16.513 16.513 0 0 0 8.31 2.222c3.871 0 7.432-1.318 10.255-3.54a16.598 16.598 0 0 0 6.39-13.104c0-9.193-7.454-16.646-16.645-16.646-9.193 0-16.646 7.453-16.646 16.646z"/></g></g><g><g><path fill="#407bff" d="M1.185 416.593c0-8.172 6.624-14.796 14.795-14.796 8.172 0 14.796 6.624 14.796 14.796 0 8.171-6.624 14.796-14.796 14.796-8.171 0-14.795-6.625-14.795-14.796z"/></g><g opacity=".3"><path fill="#fff" d="M29.934 416.595c0 3.22-1.091 6.188-2.925 8.55-2.558 3.283-6.545 5.399-11.03 5.399-2.914 0-5.618-.896-7.857-2.423a13.931 13.931 0 0 1-6.092-11.526c0-7.706 6.244-13.955 13.949-13.955 7.706 0 13.955 6.25 13.955 13.955z"/></g><g><path fill="#407bff" d="M27.01 425.145c-2.56 3.283-6.546 5.399-11.031 5.399-2.914 0-5.618-.896-7.857-2.423.466-1.061.76-1.693.76-1.693a40.455 40.455 0 0 1 5.312-1.306c.455-.406 1.055-.724 1.828-.909.375-1.122.154-2.35-.105-3.178a5.525 5.525 0 0 1-1.422-1.404 3.984 3.984 0 0 1-.755-.742c-.429-.178-3.397-1.559-3.55-6.423-.008-.202 0-.399.012-.594-.921-.092-1.879.195-1.216 2.067 1.147 3.226-.055 4.919-.055 4.919.055-1.037-.105-2.134-.105-2.134 0 3.337-1.802 3.551-1.802 3.551s1.147-1.202-.547-4.914c-1.692-3.717-1.202-8.741 2.018-8.955 1.73-.117 2.87.704 3.565 1.497 1.821-1.62 4.576-1.91 6.324-.737 0 0 2.896-.705 3.712.055.177.166.042.546-.308 1.05.737.49 1.356 1.239 1.62 2.392.454 1.993-.128 3.52-.79 4.533.385 3.669-.24 6.416-3.154 6.674-.007.092-.012.184-.02.27a8.89 8.89 0 0 0-.01.374c-.013.706.072 1.209.202 1.565.43.08.84.196 1.22.331 2.614-.007 5.533.276 5.533.276l.03.018c.167.092.363.246.59.441z"/></g><g opacity=".7"><path fill="#fff" d="M1.185 416.593c0-8.172 6.624-14.796 14.795-14.796 8.172 0 14.796 6.624 14.796 14.796 0 8.171-6.624 14.796-14.796 14.796-8.171 0-14.795-6.625-14.795-14.796z"/></g></g><g><g transform="rotate(-45 558 301)"><path fill="#407bff" d="M541.572 301.003c0-9.02 7.312-16.331 16.331-16.331 9.02 0 16.332 7.311 16.332 16.33 0 9.02-7.312 16.332-16.332 16.332-9.019 0-16.33-7.312-16.33-16.331z"/></g><g opacity=".3"><path fill="#fff" d="M573.3 301.002c0 3.155-.948 6.087-2.58 8.532a15.366 15.366 0 0 1-12.817 6.871 15.29 15.29 0 0 1-9.432-3.235 15.36 15.36 0 0 1-5.964-12.168c0-8.504 6.892-15.396 15.396-15.396 8.505 0 15.398 6.892 15.398 15.396z"/></g><g><path fill="#407bff" d="M570.72 309.534a15.366 15.366 0 0 1-12.817 6.871 15.29 15.29 0 0 1-9.432-3.235c-.169-.942.021-1.849.09-2.525.188-1.883 2.361-3.4 2.32-4.72-.04-1.32-2.227-3.02-.811-3.779 1.416-.757 1.72-3.689.583-5.335-.942-1.083-1.633-2.797.088-5.003 1.069-1.368 2.626-2.018 4.196-2.282 1.085-.582 2.56-.874 4.558-.657 1.916.204 3.398.759 4.529 1.537a6.6 6.6 0 0 1 2.356 2.905s1.693 3.243.488 6.67c-.771 2.199 2.654 2.07 2.749 4.095.095 2.018-1.604 2.133-1.307 3.487.136.624 1.314 1.206 2.41 1.97z"/></g><g opacity=".7" transform="rotate(-45 558 301)"><path fill="#fff" d="M541.572 301.003c0-9.02 7.312-16.331 16.331-16.331 9.02 0 16.332 7.311 16.332 16.33 0 9.02-7.312 16.332-16.332 16.332-9.019 0-16.33-7.312-16.33-16.331z"/></g></g></g><g><g transform="rotate(-23.438 425 166)"><path fill="#407bff" d="M357.217 166.432v-1.397h135.87v1.397z"/></g><g transform="rotate(-31.757 217.5 110)"><path fill="#407bff" d="M216.526 160.61V59.35h1.397V160.61z"/></g><g transform="rotate(-11.833 139 311)"><path fill="#407bff" d="M68.18 311.659v-1.398h141.274v1.398z"/></g><g opacity=".8" transform="rotate(-23.438 425 166)"><path fill="#fff" d="M357.217 166.432v-1.397h135.87v1.397z"/></g><g transform="rotate(-32.068 418.5 337.5)"><path fill="#407bff" d="M417.88 412.451v-149.85h1.398v149.85z"/></g><g opacity=".8" transform="rotate(-32.068 418.5 337.5)"><path fill="#fff" d="M417.88 412.451v-149.85h1.398v149.85z"/></g><g opacity=".8" transform="rotate(-31.757 217.5 110)"><path fill="#fff" d="M216.526 160.61V59.35h1.397V160.61z"/></g><g opacity=".8" transform="rotate(-11.833 139 311)"><path fill="#fff" d="M68.18 311.659v-1.398h141.274v1.398z"/></g><g><path fill="#407bff" d="M89.41 181.525L190.927 67.586 374.9 42.144l111.846 96.85-29.024 261.44-252.974 51.005-134.33-126.284zm369.087 220.179l.5-.101 29.177-262.818.04-.366-112.879-97.746-184.853 25.564-.256.035L88.223 180.756l-.142.16-19.145 144.766 135.38 127.27z"/></g><g opacity=".8"><path fill="#fff" d="M89.41 181.525L190.927 67.586 374.9 42.144l111.846 96.85-29.024 261.44-252.974 51.005-134.33-126.284zm369.087 220.179l.5-.101 29.177-262.818.04-.366-112.879-97.746-184.853 25.564-.256.035L88.223 180.756l-.142.16-19.145 144.766 135.38 127.27z"/></g><g><g><path fill="#407bff" d="M245.97 153.03l-2.097 12.237-2.096-12.237z"/></g><g><path fill="#407bff" d="M249.941 153.03a6.068 6.068 0 1 1-12.136 0 6.068 6.068 0 0 1 12.136 0z"/></g><g opacity=".3"><path fill="#fff" d="M244.466 148.75c.676.888.142 2.43-1.19 3.445-1.334 1.015-2.962 1.12-3.637.232-.675-.886-.143-2.429 1.19-3.443 1.334-1.015 2.962-1.12 3.637-.234z"/></g></g><g><g><path fill="#407bff" d="M364.92 192.76l-2.096 12.237-2.096-12.237z"/></g><g><path fill="#407bff" d="M356.756 192.76a6.068 6.068 0 1 1 12.136 0 6.068 6.068 0 0 1-12.136 0z"/></g><g opacity=".3"><path fill="#fff" d="M363.417 188.482c.675.886.143 2.427-1.19 3.443-1.333 1.015-2.961 1.12-3.636.232-.677-.886-.143-2.427 1.19-3.443 1.333-1.015 2.961-1.12 3.636-.232z"/></g></g><g><g><path fill="#407bff" d="M210.055 295.773l-2.096 12.237-2.097-12.237z"/></g><g><path fill="#407bff" d="M201.89 295.773a6.068 6.068 0 1 1 12.137 0 6.068 6.068 0 0 1-12.136 0z"/></g><g opacity=".3"><path fill="#fff" d="M208.553 291.493c.675.888.14 2.43-1.192 3.445-1.334 1.015-2.962 1.12-3.637.232-.675-.886-.14-2.429 1.192-3.443 1.332-1.016 2.96-1.12 3.637-.234z"/></g></g><g><g><path fill="#407bff" d="M380.895 274.033L378.8 286.27l-2.096-12.237z"/></g><g><path fill="#407bff" d="M384.868 274.033a6.068 6.068 0 1 1-12.136 0 6.068 6.068 0 0 1 12.136 0z"/></g><g opacity=".3"><path fill="#fff" d="M379.392 269.755c.675.886.143 2.428-1.19 3.443-1.334 1.015-2.962 1.12-3.637.232-.675-.886-.142-2.428 1.191-3.443 1.333-1.016 2.961-1.12 3.636-.232z"/></g></g></g><g><g><path fill="#407bff" d="M534.412 141.62a46.43 46.43 0 0 1-9.293 27.931 44.955 44.955 0 0 1-7.097 7.519 44.206 44.206 0 0 1-7.693 5.34 46.313 46.313 0 0 1-22.503 5.795 46.175 46.175 0 0 1-19.268-4.18 19.207 19.207 0 0 1-1.617-.773l-.017-.018a44.55 44.55 0 0 1-9.134-6.007 46.029 46.029 0 0 1-10.417-12.489c-3.917-6.816-6.15-14.703-6.15-23.118 0-25.733 20.87-46.602 46.603-46.602 25.735 0 46.586 20.869 46.586 46.602z"/></g><g opacity=".7" transform="rotate(-45 488 141.5)"><path fill="#fff" d="M442.583 141.618c0-24.984 20.254-45.238 45.239-45.238 24.984 0 45.238 20.254 45.238 45.238 0 24.985-20.254 45.239-45.238 45.239-24.985 0-45.239-20.254-45.239-45.239z"/></g><g><g><path fill="#e4897b" d="M457.791 162.76l4.366-18.132s2.768-2.207 2.943-3.811c.175-1.605-1.703-11.103-2.905-11.676-1.202-.573-8.3 1.902-8.648 3.93-.347 2.027 2.455 10.004 3.017 10.655l-7.17 21.092z"/></g><g><path fill="#407bff" d="M461.29 152.364l-2.627 23.825a44.718 44.718 0 0 1-10.114-12.125c1.622-5.713 3.258-10.847 4.027-13.149.255-.819.41-1.279.41-1.279l1.499.188 6.226.784.767.102z"/></g><g><path fill="#407bff" d="M473.176 167.713l-4.058 15.077a18.976 18.976 0 0 1-1.57-.75l-.016-.018a43.291 43.291 0 0 1-8.869-5.833c.324-.732 8.63-19.476 11.734-19.253z"/></g><g opacity=".3"><path d="M461.29 152.364l-2.627 23.825a44.718 44.718 0 0 1-10.114-12.125c1.622-5.713 3.258-10.847 4.027-13.149.255-.819.41-1.279.41-1.279l1.499.188 6.226.784.767.102z"/></g><g opacity=".3"><path d="M473.176 167.713l-4.058 15.077a18.976 18.976 0 0 1-1.57-.75l-.016-.018a43.291 43.291 0 0 1-8.869-5.833c.324-.732 8.63-19.476 11.734-19.253z"/></g><g><path fill="#407bff" d="M463.239 149.232l-1.432 3.21-9.918-1.65.225-1.826z"/></g><g><path fill="#263238" d="M515.348 126.06c-1.158 4.433 5.169 16.663 2.604 38.91-2.565 22.247-26.963 20.89-37.928 13.473-10.965-7.416-9.068-47.663-5.296-55.6 3.77-7.936 40.62 3.216 40.62 3.216z"/></g><g><g><path fill="#407bff" d="M521.8 162.034c-.24.648-.445 1.28-.667 1.927-.237.632-.443 1.262-.647 1.877-.41 1.228-.802 2.422-1.195 3.582-.784 2.318-1.482 4.536-2.148 6.615a42.828 42.828 0 0 1-7.47 5.185 44.95 44.95 0 0 1-21.847 5.63 44.836 44.836 0 0 1-18.708-4.06 18.987 18.987 0 0 1-1.57-.75c.017-.444.017-.905.017-1.331 0-.443 0-.87.018-1.296.017-1.279.069-2.473.102-3.598.034-.75.069-1.485.086-2.167l.05-1.023c.069-1.245.12-2.37.205-3.428.017-.34.052-.682.069-1.006.067-.99.152-1.877.22-2.694.512-5.168 1.196-7.214 1.639-8.033.085-.17.17-.273.239-.358.135-.154.204-.17.204-.17s.682-.069 1.825-.154c3.018-.256 9.278-.7 14.94-.665.103 0 .221 0 .323.016.75.017 1.501.052 2.252.103 2.916.153 5.832.409 8.715.768 1.074.136 2.148.29 3.222.443 1.16.17 2.32.358 3.48.562.152.035.324.052.478.087 4.28.732 8.51 1.688 12.688 2.898 1.16.324 2.318.665 3.462 1.04z"/></g><g opacity=".3"><path d="M521.782 162.034c0 .018 0 .018-.017.035-.222.63-.443 1.262-.632 1.892-.237.632-.443 1.262-.647 1.877-.41 1.228-.802 2.422-1.195 3.582-.784 2.318-1.483 4.536-2.148 6.615a42.828 42.828 0 0 1-7.47 5.185 44.95 44.95 0 0 1-21.847 5.63 44.836 44.836 0 0 1-18.708-4.06 18.987 18.987 0 0 1-1.57-.75l-.016-.018c0-.443.016-.887.033-1.313 0-.443 0-.87.018-1.296.017-1.279.069-2.473.103-3.598.033-.75.068-1.485.085-2.167l.05-1.023c.052-1.245.12-2.37.205-3.428.017-.34.052-.682.069-1.006.067-.99.152-1.877.22-2.694.512-5.168 1.196-7.214 1.639-8.033.085-.17.17-.273.239-.358.135-.154.204-.17.204-.17s.682-.069 1.825-.154c3.018-.256 9.278-.7 14.94-.665.103 0 .221 0 .323.016.75.017 1.501.052 2.252.103 2.916.153 5.832.409 8.715.768 1.074.136 2.148.29 3.222.443 1.16.17 2.32.358 3.48.562.152.035.324.052.478.087 4.28.732 8.51 1.688 12.688 2.898 1.16.324 2.318.665 3.462 1.04z"/></g></g><g><path fill="#fff" d="M495.62 154.913c9.981.783 11.205 3.8 10.14 5.38-1.066 1.579-14.587 14.795-18.656 23.648 0 0-14.656-30.846 8.516-29.028z"/></g><g><path fill="#e4897b" d="M490.466 164.97c9.88-1.265 12.848-5.484 12.848-5.484-6.268-5.914-1.061-16.162-1.061-16.162l-11.89 2.22c.312 1.965.446 3.613.464 5.006.09 7.217-3.174 7.288-3.174 7.288-2.086 3.91 2.813 7.132 2.813 7.132z"/></g><g opacity=".2"><path d="M490.363 145.545c.311 1.964.446 3.612.464 5.005 8.033 0 11.426-7.226 11.426-7.226z"/></g><g><g><g><path fill="#e4897b" d="M496.935 112.295c-10.336-.566-13.966 4.787-15.307 15.396-1.675 13.26.758 22.879 13.839 20.744 17.763-2.9 18.635-35.2 1.468-36.14z"/></g><g><path fill="#de5753" d="M488.342 127.479s-1.58 2.622-3.242 4.123c0 0 .808 1.454 2.66 1.319z"/></g><g><g><path fill="#263238" d="M494.715 126.981c-.066.847.338 1.571.904 1.616.564.043 1.077-.608 1.143-1.456.067-.849-.338-1.571-.903-1.616-.566-.043-1.077.608-1.144 1.456z"/></g><g><path fill="#263238" d="M496.091 125.585l-1.787-.867"/></g></g><g><g><path fill="#263238" d="M484.187 125.98c-.067.848.339 1.57.903 1.615.566.043 1.078-.608 1.145-1.455.065-.848-.339-1.572-.905-1.615-.564-.045-1.077.606-1.143 1.454z"/></g><g><path fill="#263238" d="M485.564 124.583l-1.789-.867"/></g></g><g><path fill="#263238" d="M499.607 122.136a.48.48 0 0 1-.388-.197c-1.293-1.782-3.948-1.618-3.975-1.612a.48.48 0 0 1-.07-.956c.13-.009 3.21-.213 4.822 2.004a.481.481 0 0 1-.389.761z"/></g><g><path fill="#263238" d="M483.556 120.104a.481.481 0 0 1-.245-.893c2.557-1.505 4.518-.684 4.6-.65a.48.48 0 0 1-.378.88c-.069-.027-1.623-.65-3.736.596a.475.475 0 0 1-.241.067z"/></g><g><g><path fill="#263238" d="M489.045 137.07c.528 1.279 1.009 3.656 1.009 3.656.224-.006.446-.01.67-.027 3.024-.138 4.382-1.203 4.969-2.34.319-.624.4-1.276.397-1.806a3.751 3.751 0 0 0-.136-1.048c-1.56 1.031-4.37 1.38-5.88 1.5-.63.06-1.029.065-1.029.065z"/></g><g><path fill="#fff" d="M490.075 137.006l.326 1.07c2.85-.138 4.836-.617 5.689-1.523a3.751 3.751 0 0 0-.136-1.048c-1.56 1.031-4.37 1.38-5.879 1.5z"/></g><g><path fill="#de5753" d="M490.723 140.7c3.025-.139 4.383-1.204 4.97-2.341-1.03.088-2.261.307-3.329.82a3.649 3.649 0 0 0-1.64 1.52z"/></g></g><g><path fill="#263238" d="M507.278 130.336s-4.367-8.757-3.277-15.274c0 0-20.025-9.49-22.174 11.246 0 0-.99-18.572 16.8-18.01 17.764.56 16.293 26.554 6.692 33.796 0 0 4.658-6.283 1.96-11.758z"/></g><g><path fill="#e4897b" d="M505.47 132.425c.16-1.66 2.032-4.383 5.11-3.876 3.183.525 4.35 7.185-3.704 8.33-1.156.163-1.74-.99-1.406-4.454z"/></g></g><g><path fill="#263238" d="M501.248 114.03s-1.64 12.752 6.028 24.329c5.816 8.78-.866 16.476-.866 16.476s10.32-6.57 10.682-16.476c0 0 8.529-23.687-9.172-30.073 0 0-.073-5.335-11.612-4.32-11.54 1.015-20.837 10.906-22.6 23.513-1.763 12.608 4.81 26.669 4.81 26.669s-6.99-44.679 22.73-40.119z"/></g><g><path fill="#263238" d="M501.913 114.24c-.813 2.868-.98 6.075-.858 9.164a45.34 45.34 0 0 0 1.486 9.247 39.15 39.15 0 0 0 3.457 8.733c1.536 2.73 3.392 5.35 5.849 7.348-2.531-1.909-4.5-4.475-6.15-7.173a39.678 39.678 0 0 1-3.828-8.714 46.208 46.208 0 0 1-1.86-9.371c-.23-3.203-.221-6.4.572-9.656z"/></g></g><g><g><path fill="#407bff" d="M524.033 168.736a43.566 43.566 0 0 1-6.89 7.3 42.827 42.827 0 0 1-7.47 5.184c.154-.597.358-1.193.562-1.79 1.774-5.014 4.913-9.584 7.453-12.773 2.098-2.628 3.804-4.333 4.077-4.588l.035-.035c1.073.887 1.773 3.326 2.233 6.702z"/></g><g opacity=".3"><path d="M524.033 168.736a43.566 43.566 0 0 1-6.89 7.3 42.827 42.827 0 0 1-7.47 5.184c.154-.597.358-1.193.562-1.79 1.774-5.014 4.913-9.584 7.453-12.773 2.098-2.628 3.804-4.333 4.077-4.588l.035-.035c1.073.887 1.773 3.326 2.233 6.702z"/></g></g></g></g><g><g><path fill="#407bff" d="M348.291 44.204c0-14.044 11.385-25.43 25.43-25.43 14.043 0 25.428 11.386 25.428 25.43s-11.385 25.429-25.429 25.429c-14.044 0-25.429-11.385-25.429-25.43z"/></g><g opacity=".3"><path fill="#fff" d="M397.698 44.209a23.88 23.88 0 0 1-6.41 16.31c-4.374 4.712-10.627 7.664-17.564 7.664-7.443 0-14.084-3.384-18.48-8.698-3.448-4.143-5.504-9.467-5.504-15.276 0-13.253 10.733-23.985 23.984-23.985 13.241 0 23.974 10.732 23.974 23.985z"/></g><g><path fill="#407bff" d="M391.288 60.519c-4.374 4.712-10.627 7.664-17.564 7.664-7.443 0-14.084-3.384-18.48-8.698.125-.052.252-.095.378-.126a5.32 5.32 0 0 1 1.15-1.202c0-.063 0-.127.01-.2l.422-.074c.696-.412 1.55-.686 2.625-.686.253 0 .506.011.78.042l1.498-.274-.033.41c1.898.149 4.787.328 8.077.55.749-.569 1.211-1.286 1.485-2.098.285-.853.338-1.793.285-2.762a8.31 8.31 0 0 1-3.352-.886 8.59 8.59 0 0 1-4.407-5.577c-.622-2.584-.77-5.957-.127-9.057v-.02c-.084 0-.168.01-.253 0-.126-.022-.21-.127-.21-.263 0-.021.01-.044.01-.063a.281.281 0 0 1 .316-.234c.023 0 .042-.01.074-.01-.19-2.025.105-4.06.401-5.42-.833-1.464-.833-4.322-.042-5.47.896-1.286.2-.59 2.55-.791 2.353-.2.929-2.288 2.426-2.309 1.496-.021 1.192.917 3.025 1.613 1.835.696 1.16-1.39 3.248-1.592 2.088-.2 2.383 1.392 3.88 1.793 1.496.39 1.792 0 2.888 0 1.097 0 1.192 3.183 1.655 3.773.464.601 1.234-.295 2.225 1.34.127.21.178.474.178.78 0 2.11-2.634 6.126-2.634 6.126a30.012 30.012 0 0 1-.538 2.972c.791.759 1.012 2.014.474 3.163a5.905 5.905 0 0 1-2.319 2.477c-.517 1.097-1.034 1.972-1.508 2.636-.663 3.659-.98 7.981.265 10.712 4.237.443 8.285 1 11.142 1.76z"/></g><g opacity=".5"><path fill="#fff" d="M348.291 44.204c0-14.044 11.385-25.43 25.43-25.43 14.043 0 25.428 11.386 25.428 25.43s-11.385 25.429-25.429 25.429c-14.044 0-25.429-11.385-25.429-25.43z"/></g></g><g><g transform="rotate(-45 204.5 450)"><path fill="#407bff" d="M179.103 449.976c0-14.045 11.385-25.43 25.429-25.43 14.044 0 25.43 11.385 25.43 25.43 0 14.044-11.386 25.429-25.43 25.429s-25.43-11.385-25.43-25.43z"/></g><g opacity=".2"><path fill="#fff" d="M228.516 449.975c0 6.863-2.89 13.053-7.507 17.406a23.832 23.832 0 0 1-16.478 6.568c-5.04 0-9.71-1.55-13.569-4.206-6.283-4.323-10.406-11.565-10.406-19.768 0-13.242 10.733-23.973 23.975-23.973 13.241 0 23.985 10.731 23.985 23.973z"/></g><g><path fill="#407bff" d="M221.009 467.38a23.832 23.832 0 0 1-16.478 6.57c-5.04 0-9.71-1.55-13.569-4.207 1.74-.242 3.574-.464 5.44-.654 1.444-3.142 1.075-8.138.305-12.366a20.57 20.57 0 0 1-1.728-3.048 6.673 6.673 0 0 1-2.678-2.856c-.622-1.33-.38-2.773.538-3.659-.496-2.16-.759-4.122-.781-5.766l-.105.052s-1.93-7.443 5.281-10.174c7.213-2.73 14.497 2.15 14.497 2.15s1.56-2.909 3.426-2.15c1.582.644.738 2.71.443 3.343.2-.316.696-.991 1.634-1.424 1.276-.579 3.037 1.044-.917 4.997a5.772 5.772 0 0 1-1.413 1.013c.232 1.571.37 3.511.107 5.398.737 3.573.578 7.475-.149 10.447a7.211 7.211 0 0 1-.306 1.002 9.807 9.807 0 0 1-4.786 5.44 9.374 9.374 0 0 1-3.868 1.034c-.065 1.116.01 2.202.325 3.183.317.938.865 1.77 1.72 2.425 3.806-.264 7.136-.453 9.329-.633a8.132 8.132 0 0 0-.042-.474l1.73.316a7.278 7.278 0 0 1 2.045.042z"/></g><g opacity=".5" transform="rotate(-45 204.5 450)"><path fill="#fff" d="M179.103 449.976c0-14.045 11.385-25.43 25.429-25.43 14.044 0 25.43 11.385 25.43 25.43 0 14.044-11.386 25.429-25.43 25.429s-25.43-11.385-25.43-25.43z"/></g></g><g><g transform="rotate(-76.717 89 181)"><path fill="#407bff" d="M63.316 181.22c0-14.043 11.385-25.428 25.43-25.428 14.043 0 25.428 11.385 25.428 25.429 0 14.044-11.385 25.429-25.429 25.429-14.044 0-25.429-11.385-25.429-25.43z"/></g><g opacity=".2"><path fill="#fff" d="M112.728 181.219a23.9 23.9 0 0 1-6.094 15.972c-4.395 4.913-10.785 8.013-17.891 8.013a23.85 23.85 0 0 1-14.116-4.596c-5.977-4.366-9.858-11.429-9.858-19.39 0-13.24 10.733-23.973 23.974-23.973 13.243 0 23.985 10.732 23.985 23.974z"/></g><g><path fill="#407bff" d="M106.634 197.19c-4.395 4.915-10.785 8.014-17.891 8.014a23.85 23.85 0 0 1-14.116-4.596l9.51-2.932c.179.201.348.422.527.654.4-.074.812-.158 1.222-.232.76-.137 1.518-.242 2.288-.358.56-.928.843-1.941.95-2.942-.802.042-1.309.052-1.309.052.264-.947-1.149-2.92-1.149-2.92l-.474 2.604s-.96-.158-1.602-.559c-.634-.4-1.465-3.236-1.465-3.236s-1.645 2.762-2.004 3.396c-.369.642-1.318 0-1.318 0s-.632-2.394.158-4.861c.802-2.478-1.676-2.404-1.676-2.404s0 1.044-.633 2.72c-.643 1.677-.643 2.552-.643 3.552 0 1.002.084 1.708-.633 1.708-.726 0-.8-.632-.726-1.708.084-1.074-1.034-2.118-.39-2.993.631-.875.158-3.279.158-3.279-.401 1.676-2.236 1.603-2.552 2.794-.327 1.202.875 2.877.316 3.478-.558.601-1.518 0-1.518 0s.802-1.318.243-2.086c-.559-.759-1.445-1.15-1.044-2.71.401-1.57 1.117-1.55.886-3.278-.243-1.73-1.044-1.624 0-2.267 1.033-.633 2.393-3.669 2.393-4.988 0-1.316-.56-4.343 1.675-5.407 2.236-1.065 2.794-1.888 2.394-4.703-.4-2.825 1.75-2.614 4.47-2.055 0 0 1.35-2.151 2.625-1.75 1.276.39 2.235.158 2.509-.559.264-.728 3.796-.643 4.322 0 .529.632 2.427 1.117 3.575.632 1.149-.474 4.207 1.434 4.112 2.71-.095 1.285-.074 2.003 1.57 2.73 1.634.728 1.951 1.107 2.668 3.965.717 2.856-.475 4.005.96 5.112 1.433 1.097 1.275 5.515 1.359 6.874.074 1.35 0 2.868 0 2.868l-.4.116c-.4.105-.717-1.476-.644-2.647.085-1.116-2.425-2.752-2.634-2.888.051.116.506 1.085.8 1.855.316.812.4 2.931.316 4.281-.074 1.36 1.518 2.109 1.518 2.109l-1.75.875s-1.36-2.9-.896-4.407c.464-1.508-.865-2.858-.865-2.858v2.858s-.473 1.022-1.19 2.382.559 1.76.759 2.477c.19.717-1.571.76-1.571.76l-.327-1.718-.601 1.717c-.633.464-1.95.802-3.458 1.055.084 1.318.358 2.172.696 2.731a86.727 86.727 0 0 1 1.708-.085c1.128-.01 2.298.011 3.427.053h.02c2.024.063 3.932.19 5.345.295z"/></g><g opacity=".5" transform="rotate(-76.717 89 181)"><path fill="#fff" d="M63.316 181.22c0-14.043 11.385-25.428 25.43-25.428 14.043 0 25.428 11.385 25.428 25.429 0 14.044-11.385 25.429-25.429 25.429-14.044 0-25.429-11.385-25.429-25.43z"/></g></g><g><g><path fill="#407bff" d="M146.183 64.837c0-23.557 19.097-42.654 42.654-42.654 23.557 0 42.654 19.097 42.654 42.654 0 23.558-19.097 42.655-42.654 42.655-23.557 0-42.654-19.097-42.654-42.655z"/></g><g opacity=".7"><path fill="#fff" d="M230.098 64.839c0 9.447-3.202 18.167-8.582 25.14a40.156 40.156 0 0 1-4.904 5.34 38.594 38.594 0 0 1-5.296 4.08.653.653 0 0 1-.238.154 37.745 37.745 0 0 1-4.585 2.571 41.052 41.052 0 0 1-17.65 3.969c-12.564 0-23.842-5.646-31.403-14.52l-.012-.014c-6.15-7.211-9.854-16.533-9.854-26.72 0-22.752 18.517-41.255 41.268-41.255 22.74 0 41.256 18.503 41.256 41.255z"/></g><g><g><path fill="#ebb376" d="M198.433 64.837c.91-2.02 1.556-1.143 4.182.883 2.626 2.028 3.04 3.857 3.04 6.007 0 2.15-.414 6.433-.414 6.433l6.818 7.648-3.087 4.654-7.924-8.939s-3.916-2.948-4.561-6.265c-.645-3.317 1.946-10.42 1.946-10.42z"/></g><g><g><path fill="#263238" d="M197.532 62.542l5.584 10.028a1.23 1.23 0 0 1-.145 1.404l-4.332 5.002a1.23 1.23 0 0 1-1.983-.167l-5.006-8.25z"/></g><g opacity=".4"><path fill="#407bff" d="M197.224 63.621l4.93 9.287-4.693 5.529-5.049-8.201z"/></g></g><g><path fill="#407bff" d="M211.316 99.399c.04.21.068.405.096.6-.112-.139-.224-.293-.334-.446a37.746 37.746 0 0 1-4.585 2.571 187.84 187.84 0 0 1 1.132-7.533c.321-1.956.615-3.563.84-4.695.208-1.132.349-1.789.376-1.9v-.015c.49.084.978.238 1.467.475 2.14 1.049 4.248 3.55 6.304 6.862a38.595 38.595 0 0 1-5.296 4.08z"/></g><g><g><path fill="#407bff" d="M211.412 100c-.112-.14-.224-.294-.334-.447a37.746 37.746 0 0 1-4.585 2.571 41.052 41.052 0 0 1-17.65 3.969c-12.564 0-23.842-5.646-31.403-14.52.714-.168 1.44-.322 2.168-.461.068-.014.152-.028.222-.042.141-.028.28-.056.433-.084 1.887-.363 3.815-.685 5.745-.964.013-.014.027-.014.04-.014.84-.126 1.692-.238 2.53-.35 1.118-.153 2.238-.28 3.342-.405.082-.014.181-.028.265-.028a185.28 185.28 0 0 1 7.603-.713c.823-.056 1.633-.111 2.43-.153h.015c1.049-.07 2.081-.14 3.101-.196 1.02-.056 2.04-.098 3.02-.14l1.216-.042c1.216-.042 2.389-.07 3.507-.098a282.11 282.11 0 0 1 9.475-.055c.6.014 1.174.014 1.705.027.964.014 1.789.042 2.46.07 1.37.028 2.124.07 2.124.07.167.615.335 1.258.49 1.915v.014c.711 2.865 1.37 6.051 1.985 9.475.04.21.068.405.096.6z"/></g><g opacity=".2"><path d="M211.412 100c-.112-.14-.224-.294-.334-.447a37.746 37.746 0 0 1-4.585 2.571 41.052 41.052 0 0 1-17.65 3.969c-12.564 0-23.842-5.646-31.403-14.52l-1.006.21c.323-.07.657-.154.994-.224.726-.154 1.452-.308 2.18-.447.068-.014.152-.028.222-.042.141-.028.28-.056.433-.084 1.887-.363 3.815-.685 5.745-.964.013-.014.027-.014.04-.014.84-.126 1.692-.238 2.53-.35 1.118-.153 2.238-.28 3.342-.405.082-.014.181-.028.265-.028 2.558-.293 5.114-.531 7.603-.713l2.416-.167c1.062-.07 2.096-.126 3.13-.182 1.02-.056 2.04-.098 3.02-.14l1.216-.042c1.2-.042 2.375-.084 3.494-.112 3.69-.07 6.916-.07 9.488-.055.615.014 1.174.014 1.705.028.95.013 1.762.041 2.433.055 1.382.042 2.15.084 2.15.084v.014c.168.615.336 1.258.491 1.915v.014c.711 2.865 1.37 6.051 1.985 9.475.04.21.068.405.096.6z"/></g></g><g><path fill="#ebb376" d="M171.854 89.2c4.538 4.123 15.654 2.598 15.654 2.598s6.937-1.9 5.48-4.067c-4.087-.676-6.065-2.582-6.882-5.024-.474-1.421-.545-3.02-.415-4.666.06-.865.19-1.742.344-2.607l-13.742-10.176c1.8 6.718 4.004 19.073-.439 23.942z"/></g><g opacity=".2"><path d="M175.468 71.727c.544 8.244 7.32 10.519 10.638 10.98-.474-1.421-.545-3.02-.415-4.666z"/></g><g><g><path fill="#263238" d="M199.18 45.665s1.95 12.833-4.86 17.769c-6.812 4.936-6.812-18.954-6.812-18.954z"/></g><g><path fill="#ebb376" d="M174.544 73.633c3.304 4.75 8.694 5.995 13.374 4.514a12.973 12.973 0 0 0 7.404-6.03c.225-.39.427-.805.615-1.231 3.353-7.843 4.42-21.561-3.874-26.703-5.886-3.707-13.681-1.942-17.389 3.958a12.543 12.543 0 0 0-1.896 5.555c-1.018 9.17-2.049 14.512 1.766 19.937z"/></g><g><path fill="#263238" d="M186.145 58.596c-.177.725.158 1.403.65 1.487.492.082.977-.457 1.107-1.194.131-.736-.17-1.407-.65-1.487-.48-.08-.974.446-1.107 1.194z"/></g><g><path fill="#263238" d="M194.515 60.024c-.178.725.169 1.407.65 1.487.479.081.976-.457 1.106-1.192.132-.736-.169-1.407-.65-1.488-.479-.08-.985.492-1.106 1.193z"/></g><g><path fill="#d58745" d="M191.792 59.935a26.778 26.778 0 0 0 2.456 6.938 4.346 4.346 0 0 1-3.671.056z"/></g><g><path fill="#263238" d="M184.011 55.442a.46.46 0 0 0 .45-.098 3.557 3.557 0 0 1 3.031-.981.439.439 0 1 0 .21-.851h-.002a4.374 4.374 0 0 0-3.837 1.186.438.438 0 0 0-.038.62l.007.008a.69.69 0 0 0 .179.116z"/></g><g><path fill="#263238" d="M198.604 57.753a.432.432 0 0 0 .253.062.437.437 0 0 0 .306-.538l-.002-.01a4.371 4.371 0 0 0-2.714-2.978.439.439 0 0 0-.546.293.45.45 0 0 0 .293.548 3.551 3.551 0 0 1 2.112 2.391.45.45 0 0 0 .298.232z"/></g><g><path fill="#263238" d="M181.387 43.493v4.096c-1.41.544-2.39 1.94-1.975 3.604.889 3.554-1.68 8.584-4.54 10.366 0 0 .099-1.482-1.186-1.283-1.283.197-1.875 7.897.1 11.845 0 0-3.258-3.75-4.344-12.044-1.005-7.668-.486-13.894 1.393-16.584z"/></g><g><path fill="#ebb376" d="M167.533 60.473a8.778 8.778 0 0 0 4.212 5.222c2.711 1.456 4.738-.81 4.555-3.723-.19-2.587-1.798-6.542-4.8-6.768-3.004-.226-4.738 2.523-3.967 5.269z"/></g><g><path fill="#263238" d="M181.387 47.59s2.662 2.636 5.244.706c0 0 2.924 2.436 5.31.707 0 0 1.303 2.208 3.444 2.474 2.14.264 2.147-1.944 2.147-1.944s3.382 1.944 4.631 1.034c1.25-.908-.682-4.543-.682-4.543s1.59-.858.568-3.779c-1.022-2.922-5.747-2.242-5.747-2.242s.182-2.726-3.112-5.566c-3.295-2.84-5.258.682-5.258.682s-3.191-4.315-7.145-3.748c-3.955.567-3.5 3.294-3.5 3.294s-4.544-2.84-6.589 0c-2.044 2.84 0 4.202 0 4.202s-4.543 1.526-4.317 4.626c.228 3.098 2.558 2.644 2.558 2.644s-1.307 1.477 1.646 2.727c2.953 1.249 5.726-1.817 5.726-1.817s-1.15 1.76.975 2.953c2.126 1.193 4.1-2.41 4.1-2.41z"/></g><g><g><path fill="#263238" d="M190.39 69.68c-1.06.891-2.582 2.78-2.582 2.78-.197-.108-.393-.215-.581-.332-2.62-1.52-3.335-3.089-3.332-4.369.004-.7.233-1.318.48-1.786a3.77 3.77 0 0 1 .605-.868c.908 1.636 3.242 3.24 4.523 4.043.534.343.886.533.886.533z"/></g><g><path fill="#fff" d="M189.503 69.148l-.781.8c-2.465-1.435-4.007-2.778-4.346-3.975.28-.543.603-.868.603-.868.909 1.636 3.243 3.24 4.524 4.043z"/></g><g><path fill="#de5753" d="M187.227 72.128c-2.62-1.52-3.335-3.089-3.332-4.369.873.552 1.864 1.315 2.576 2.263.546.724.73 1.456.756 2.106z"/></g></g></g><g><path fill="#407bff" d="M187.508 91.798s-16.031-10.892-21.134-11.503c-5.103-.61-4.195 5.75-4.195 5.75s-3.938 0-2.423 4.847c1.515 4.847 23.288 7.52 31.333 5.124 8.044-2.397 12.824-6.908 11.495-11.165-1.33-4.258-5.052-.61-5.052-.61s-2.163-4.012-5.279-3.073c-3.115.94-4.745 10.63-4.745 10.63z"/></g><g><path fill="#407bff" d="M221.516 89.98a40.153 40.153 0 0 1-4.904 5.338 38.595 38.595 0 0 1-5.296 4.08c.04.21.068.406.096.602-.112-.14-.224-.294-.334-.447a89.86 89.86 0 0 1-3.453-4.962c-1.454-2.32-2.781-4.737-3.368-6.736v-.013c-.195-.63-.308-1.202-.334-1.733l-1.328-1.845.432-.503 3.522-4.137.768-.894 1.51 1.97s1.942-.698 8.162 4.654c1.592 1.37 3.213 3.102 4.527 4.626z"/></g></g></g><g><g><path fill="#407bff" d="M30.609 327.414c0-22.273 18.056-40.33 40.329-40.33s40.33 18.057 40.33 40.33-18.057 40.33-40.33 40.33-40.33-18.057-40.33-40.33z"/></g><g opacity=".7"><path fill="#fff" d="M109.866 327.41c0 9.308-3.27 17.86-8.748 24.555a39.079 39.079 0 0 1-5.52 5.548 31.795 31.795 0 0 1-2.013 1.537 37.855 37.855 0 0 1-6.037 3.564 38.713 38.713 0 0 1-16.616 3.731c-7.142 0-13.836-1.928-19.58-5.31a36.292 36.292 0 0 1-4.234-2.865h-.014a2.416 2.416 0 0 1-.21-.182 34.555 34.555 0 0 1-4.402-4.053 38.654 38.654 0 0 1-10.48-26.524c0-21.466 17.454-38.935 38.92-38.935 21.48 0 38.934 17.469 38.934 38.935z"/></g><g><g><path fill="#263238" d="M95.598 357.513a31.793 31.793 0 0 1-2.013 1.537 37.859 37.859 0 0 1-6.037 3.564 38.713 38.713 0 0 1-16.616 3.731c-7.142 0-13.836-1.928-19.58-5.31a36.297 36.297 0 0 1-4.234-2.865h-.014a2.417 2.417 0 0 1-.21-.182c.029-.098.043-.168.07-.265v-.014c.336-1.258.657-2.572.95-3.941.42-1.845.797-3.76 1.133-5.758.852-5.171 1.355-10.775 1.174-16.463-.685-20.613 3.06-28.174 11.487-32.212.378-.182.769-.378 1.188-.545 1.985-.839 3.997-.993 5.94-.741h.013c7.212.978 13.472 7.7 13.472 7.7s1.398 1.915 3.299 5.576c3.41 6.583 8.426 18.81 9.684 35.553v.014c.266 3.368.378 6.904.294 10.62z"/></g><g><path fill="#407bff" d="M95.304 346.892v-.014c-1.51-1.104-2.92-1.887-4.067-2.124 0 0-8.217-.797-15.358-.741-.783.028-1.58.07-2.362.112a114.68 114.68 0 0 0-10.942 1.118 79.04 79.04 0 0 0-3.173.517 104.28 104.28 0 0 0-10.355 2.25c-1.635.433-3.256.908-4.878 1.425-.6.755-1.146 2.334-1.677 4.5a34.556 34.556 0 0 0 4.403 4.053c.07.07.14.126.21.182h.013a36.306 36.306 0 0 0 4.235 2.865c5.743 3.382 12.437 5.31 19.579 5.31 5.94 0 11.571-1.342 16.616-3.731a37.853 37.853 0 0 0 6.037-3.564 31.8 31.8 0 0 0 2.013-1.537 39.078 39.078 0 0 0 5.52-5.548c-1.9-1.873-3.941-3.718-5.814-5.073z"/></g><g opacity=".2"><path fill="#fff" d="M95.304 346.892v-.014c-1.51-1.104-2.92-1.887-4.067-2.124 0 0-8.217-.797-15.358-.741-.783.028-1.58.07-2.362.112a114.68 114.68 0 0 0-10.942 1.118 79.04 79.04 0 0 0-3.173.517 104.28 104.28 0 0 0-10.355 2.25c-1.635.433-3.256.908-4.878 1.425-.6.755-1.146 2.334-1.677 4.5a34.556 34.556 0 0 0 4.403 4.053c.07.07.14.126.21.182h.013a36.306 36.306 0 0 0 4.235 2.865c5.743 3.382 12.437 5.31 19.579 5.31 5.94 0 11.571-1.342 16.616-3.731a37.853 37.853 0 0 0 6.037-3.564 31.8 31.8 0 0 0 2.013-1.537 39.078 39.078 0 0 0 5.52-5.548c-1.9-1.873-3.941-3.718-5.814-5.073z"/></g><g><path fill="#eec1bb" d="M72.857 352.128c-9.05-1.161-11.77-5.03-11.77-5.03 3.698-3.485 3.026-8.63 2.082-11.84-.512-1.777-1.116-2.96-1.116-2.96l10.895 2.037c-.285 1.799-.41 3.314-.422 4.588-.022 1.4.104 2.505.308 3.37.74 3.256 2.596 3.3 2.596 3.3 1.912 3.575-2.573 6.535-2.573 6.535z"/></g><g opacity=".2"><path d="M72.526 338.923c-.022 1.4.104 2.505.308 3.37-4.326-.57-7.604-4.03-9.665-7.035-.512-1.777-1.116-2.96-1.116-2.96l10.895 2.037c-.285 1.799-.41 3.314-.422 4.588z"/></g><g><g><path fill="#eec1bb" d="M70.73 304.171c9.471.351 12.333 5.537 12.665 15.326.415 12.232-2.612 20.8-14.361 17.755-15.955-4.137-14.038-33.665 1.695-33.08z"/></g><g><path fill="#d4827d" d="M77.29 318.739s1.222 2.524 2.61 4.032c0 0-.857 1.258-2.536.978z"/></g><g><path fill="#263238" d="M67.506 312.979a.495.495 0 0 1-.372-.82c1.676-1.911 4.5-1.461 4.617-1.442a.493.493 0 1 1-.164.976c-.022-.004-2.4-.372-3.709 1.118a.492.492 0 0 1-.372.168z"/></g><g><path fill="#263238" d="M82.316 312.474a.497.497 0 0 1-.29-.095c-1.8-1.295-3.246-.867-3.306-.848a.497.497 0 0 1-.62-.322.492.492 0 0 1 .314-.619c.08-.03 1.962-.619 4.191.987a.494.494 0 0 1-.29.897z"/></g><g><g><path fill="#263238" d="M75.845 327.426c-.59 1.122-1.228 3.25-1.228 3.25-.203-.025-.405-.047-.607-.08-2.747-.382-3.896-1.466-4.336-2.552-.239-.596-.259-1.198-.211-1.68a3.48 3.48 0 0 1 .212-.945c1.336 1.072 3.87 1.624 5.235 1.862.57.106.935.145.935.145z"/></g><g><path fill="#fff" d="M74.91 327.28l-.387.95c-2.586-.365-4.359-.969-5.06-1.866.05-.56.212-.945.212-.945 1.336 1.072 3.87 1.624 5.235 1.862z"/></g><g><path fill="#de5753" d="M74.01 330.595c-2.747-.381-3.896-1.465-4.336-2.551.93.166 2.035.47 2.967 1.027a3.356 3.356 0 0 1 1.37 1.524z"/></g></g><g><path fill="#263238" d="M59.782 319.755s4.718-7.62 4.271-13.654c0 0 19.058-6.973 19.277 12.117 0 0 2.463-16.853-13.81-17.834-16.246-.98-17.086 22.847-8.938 30.258 0 0-3.72-6.121-.8-10.887z"/></g><g><path fill="#eec1bb" d="M61.255 321.81c-.007-1.527-1.485-4.167-4.333-3.963-2.948.213-4.57 6.187 2.679 7.908 1.04.247 1.668-.756 1.654-3.944z"/></g><g><path fill="#263238" d="M65.407 297.91c5.124-1.423 18.784-1.612 22.01 12.522l-1.897.95s-4.554-2.467-10.246-3.036c0 0-1.138-2.088-2.656-3.794 0 0 .19 2.276 0 3.604 0 0-8.911 1.305-12.901 4.933-6.263 5.692-6.641 9.298-6.641 9.298s-4.342-19.845 12.331-24.476z"/></g><g><path fill="#263238" d="M88.746 310.3a.341.341 0 0 1-.324-.234c-1.62-4.86-4.393-8.284-8.242-10.178-7.025-3.456-15.334-.64-15.418-.612a.342.342 0 0 1-.225-.644c.086-.031 8.667-2.938 15.944.643 4.02 1.977 6.91 5.536 8.589 10.576a.34.34 0 0 1-.324.448z"/></g><g><path fill="#263238" d="M68.918 317.76s2.218-1.886 3.269.65"/></g><g><path fill="#263238" d="M79.455 319.161s1.229-2.569 2.86-.75"/></g></g></g></g><g><g transform="rotate(-45 460 396.5)"><path fill="#407bff" d="M410.057 396.698c0-27.604 22.376-49.98 49.98-49.98 27.603 0 49.98 22.376 49.98 49.98 0 27.603-22.377 49.98-49.98 49.98-27.603 0-49.98-22.377-49.98-49.98z"/></g><g opacity=".7"><path fill="#fff" d="M508.618 396.69c0 7.84-1.858 15.247-5.184 21.816a48.86 48.86 0 0 1-2.152 3.829 42.036 42.036 0 0 1-1.915 2.837 48.628 48.628 0 0 1-10.132 10.327c-.88.671-1.789 1.3-2.725 1.915a48.365 48.365 0 0 1-26.469 7.868 48.238 48.238 0 0 1-20.082-4.346 71.723 71.723 0 0 1-2.334-1.132v-.014a48.669 48.669 0 0 1-11.767-8.609 48.9 48.9 0 0 1-8.567-11.39 50.157 50.157 0 0 1-1.788-3.703h-.014a48.287 48.287 0 0 1-4.04-19.397c0-26.777 21.802-48.578 48.592-48.578s48.577 21.801 48.577 48.578z"/></g><g><g><path fill="#9f5b53" d="M435.794 394.776c-.629 1.202-3.004 3.634-3.004 3.634l-4.193 19.83-2.739 12.941a48.9 48.9 0 0 1-8.567-11.39c.336-1.048.7-2.138 1.049-3.242 2.962-9.195 6.372-19.844 6.624-20.893.447-1.872-1.188-11.054-.81-12.745.39-1.677 8.761-3.661 10.578-3.633 1.817.028 1.677 14.31 1.062 15.498z"/></g><g><path fill="#407bff" d="M442.349 416.62s0 .027-.014.069l-1.761 18.07-.615 6.177a71.692 71.692 0 0 1-2.334-1.132v-.014a48.67 48.67 0 0 1-11.767-8.609 48.901 48.901 0 0 1-8.567-11.39 50.18 50.18 0 0 1-1.788-3.703l2.837.461 10.257 1.691 2.208.364-2.585 12.535s9.405-13.094 14.129-14.52z"/></g><g opacity=".3"><path d="M442.349 416.62s0 .027-.014.069l-1.761 18.07-.615 6.177a71.692 71.692 0 0 1-2.334-1.132v-.014a48.67 48.67 0 0 1-11.767-8.609 48.901 48.901 0 0 1-8.567-11.39 50.18 50.18 0 0 1-1.788-3.703l2.837.461 10.257 1.691 2.208.364-2.585 12.535s9.405-13.094 14.129-14.52z"/></g><g><g><path fill="#407bff" d="M503.434 418.506a48.85 48.85 0 0 1-2.152 3.829 42.036 42.036 0 0 1-1.915 2.837 48.626 48.626 0 0 1-10.132 10.327c-.88.671-1.789 1.3-2.725 1.915a48.047 48.047 0 0 1-12.172 5.716 48.365 48.365 0 0 1-14.297 2.152 48.238 48.238 0 0 1-20.082-4.346 71.753 71.753 0 0 1-2.334-1.132v-.014c1.957-13.961 4.458-22.29 4.71-23.101.014-.042.014-.07.014-.07a100.934 100.934 0 0 1 15.372-3.13c.084 0 .154-.014.238-.014h.014a194.61 194.61 0 0 1 22.486-.475h.07c5.198.14 10.37.642 15.498 1.537.67.28 4.109 1.705 7.407 3.969z"/></g><g opacity=".3"><path d="M503.434 418.506a48.85 48.85 0 0 1-2.152 3.829 42.036 42.036 0 0 1-1.915 2.837 48.626 48.626 0 0 1-10.132 10.327c-.88.671-1.789 1.3-2.725 1.915a48.047 48.047 0 0 1-12.172 5.716 48.365 48.365 0 0 1-14.297 2.152 48.238 48.238 0 0 1-20.082-4.346 71.753 71.753 0 0 1-2.334-1.132v-.014c1.957-13.961 4.458-22.29 4.71-23.101.014-.042.014-.07.014-.07a100.934 100.934 0 0 1 15.372-3.13c.084 0 .154-.014.238-.014h.014a194.61 194.61 0 0 1 22.486-.475h.07c5.198.14 10.37.642 15.498 1.537.67.28 4.109 1.705 7.407 3.969z"/></g><g opacity=".8"><path fill="#fff" d="M489.235 435.5c-.88.67-1.789 1.3-2.725 1.914a48.047 48.047 0 0 1-12.172 5.716 48.365 48.365 0 0 1-14.297 2.152 48.238 48.238 0 0 1-20.082-4.346 71.753 71.753 0 0 1-2.334-1.132v-.014c.07-.405.126-.81.182-1.202a45.117 45.117 0 0 1 2.767-3.83c5.003-6.386 12.046-12.828 15.61-15.945.992 1.23 2.683 2.278 5.436 2.823 4.584.895 9.825-1.244 14.171-3.829 1.957 1.943 4.905 5.031 7.617 8.4 2.04 2.542 3.926 5.24 5.156 7.741.252.531.475 1.048.671 1.551z"/></g></g><g><path fill="#9f5b53" d="M480.529 413.064s-5.692 7.022-16.548 7.509c-9.411.415-6.264-7.023-6.264-7.023 3.446-.9 5.364-2.517 6.335-4.49 1.216-2.532.86-5.664.087-8.739l-.172-.644 13.744-12.242c-1.273 7.365-2.416 20.838 2.818 25.629z"/></g><g opacity=".2"><path d="M475.451 398.232c-.73 4.72-6.465 9.369-11.399 10.828 1.216-2.532.86-5.664.087-8.739l11.384-8.724a17.835 17.835 0 0 1-.072 6.635z"/></g><g><g><path fill="#263238" d="M466.545 371.537c3.263 3.682.308 7.762-10.43 12.584-2.423-5.627-.695-14.91 2.772-16.47 3.467-1.559 4.81.69 7.658 3.886z"/></g><g><path fill="#9f5b53" d="M481.638 383.219c-2.888 9.533-4.1 15.25-10.155 19.063-9.116 5.724-20.01-1.534-20.03-11.743-.005-9.166 4.713-23.227 15.09-24.824 7.412-1.18 14.376 3.871 15.555 11.282a13.58 13.58 0 0 1-.46 6.222z"/></g><g><path fill="#263238" d="M466.563 382.444c-.187.787-.759 1.327-1.273 1.202-.513-.124-.773-.852-.587-1.639.187-.787.748-1.326 1.262-1.213.513.113.728.862.598 1.65z"/></g><g><path fill="#263238" d="M457.61 380.334c-.188.787-.76 1.326-1.272 1.202-.515-.124-.787-.852-.6-1.65.189-.798.76-1.327 1.273-1.202.513.126.786.863.598 1.65z"/></g><g><path fill="#892b29" d="M460.442 381.398a28.932 28.932 0 0 1-5.362 5.843c1.115 1.636 3.601 1.593 3.601 1.593z"/></g><g><path fill="#263238" d="M469.677 380.201c.1.038.208.04.309.007a.48.48 0 0 0 .253-.626 4.695 4.695 0 0 0-3.314-2.802.457.457 0 0 0-.54.357l-.006.033a.493.493 0 0 0 .39.547 3.744 3.744 0 0 1 2.592 2.239c.066.122.18.212.316.245z"/></g><g><path fill="#263238" d="M454.25 376.351a.493.493 0 0 0 .483-.163 3.78 3.78 0 0 1 3.1-1.475.483.483 0 0 0 .524-.426.48.48 0 0 0-.414-.522 4.738 4.738 0 0 0-3.942 1.825.468.468 0 0 0 .062.66l.005.005a.541.541 0 0 0 .182.096z"/></g><g><path fill="#263238" d="M479.817 373.73c-4.89.478-5.492 5.485-.889 16.31 5.606-2.48 10.652-10.472 9.15-13.961-1.501-3.49-3.99-2.759-8.26-2.35z"/></g><g><path fill="#9f5b53" d="M484.41 392.05a9.475 9.475 0 0 1-5.688 4.472c-3.202.866-4.773-2.006-3.867-5.013.82-2.711 3.48-6.43 6.681-5.966 3.2.462 4.372 3.82 2.875 6.507z"/></g><g><path fill="#263238" d="M470.422 369.7s-1.025 10.026 8.117 13.01c9.14 2.985 12.61-2.251 12.61-2.251s-1.485-.151-2.337-.393c0 0 3.914-3.996 2.353-9.22-1.561-5.228-9.627-12.313-17.128-11.636 0 0-5.936-4.162-13.34-2.062-7.403 2.1-8.34 10.546-8.34 10.546s.979-5.026 4.336-5.645c0 0-6.321 9.25-1.437 13.393 0 0 3.114-9.893 15.166-5.741z"/></g><g><g><path fill="#263238" d="M456.965 392.463c.825 1.152 1.856 3.409 1.856 3.409.222-.058.443-.114.661-.182 2.982-.843 4.088-2.22 4.41-3.49.171-.695.101-1.365-.026-1.892-.14-.61-.38-1.013-.38-1.013-1.314 1.39-4.033 2.391-5.509 2.865a15.5 15.5 0 0 1-1.012.303z"/></g><g><path fill="#fff" d="M457.977 392.16l.574.99c2.808-.8 4.676-1.74 5.315-2.842-.14-.61-.38-1.013-.38-1.013-1.314 1.39-4.033 2.391-5.509 2.865z"/></g><g><path fill="#de5753" d="M459.482 395.69c2.982-.843 4.088-2.22 4.41-3.49-1.007.326-2.182.832-3.127 1.592a3.746 3.746 0 0 0-1.283 1.898z"/></g></g></g></g></g><g><g transform="rotate(2.738 303 146.5)"><path fill="#407bff" d="M292.1 161.013a3.692 3.692 0 0 1-3.691-3.692V135.22a3.692 3.692 0 0 1 3.692-3.693h22.101a3.692 3.692 0 0 1 3.692 3.693v22.1a3.692 3.692 0 0 1-3.692 3.693z"/></g><g opacity=".6"><path fill="#fff" d="M311.536 140.862c-1.918-3.479-5.954-2.37-8.133.156-1.929-2.722-5.84-4.21-8.082-.932-3.779 5.527 3.196 11.15 6.511 13.378.375.256.686.467.945.633.274-.14.604-.32 1.002-.54 3.512-1.903 10.991-6.833 7.757-12.695z"/></g><g><path fill="#407bff" d="M305.721 158.867s-4.289 8.65-13.072 10.998c0 0 4.918-2.532 4.99-11.753z"/></g></g><g><g><path fill="#ebb376" d="M328.177 250.078s11.094-11.1 14.67-19.003c0 0-1.35-4.42-.085-6.705 1.268-2.287 8.658-8.854 10.63-7.462 1.972 1.392 4.828 6.9 3.647 9.21-1.18 2.309-8.425 7.035-8.425 7.035s-8.982 18.015-14.547 22.08c-5.563 4.067-5.89-5.155-5.89-5.155z"/></g><g><path fill="#263238" d="M300.12 216.717c6.464.841 13.835 32.169 18.995 35.118 5.16 2.949 18.55-14.368 18.55-14.368l6.144 7.009s-17.691 24.65-24.694 22.455c-7.003-2.196-20.173-26.52-20.173-26.52z"/></g><g opacity=".05"><path fill="#fff" d="M300.12 216.717c6.464.841 13.835 32.169 18.995 35.118 5.16 2.949 18.55-14.368 18.55-14.368l6.144 7.009s-17.691 24.65-24.694 22.455c-7.003-2.196-20.173-26.52-20.173-26.52z"/></g><g><path fill="#ebb376" d="M339.337 505.708l-8.488 1.498-3.482-11.573-3.176-10.623 9.787-3.419 2.842 12.767z"/></g><g><path fill="#263238" d="M328.934 506.983c-.144-.939 11.483-2.236 11.483-2.236s8.345 5.945 15.501 6.35c7.157.403 4.045 5.204-3.634 6.56l-18.998 3.353c-5.456.964-2.866-4.286-4.352-14.027z"/></g><g><g><path fill="#407bff" d="M344.678 502.08c.115 0 .232.018.354.051.17.046.458.148.478.312.061.522-1.426 1.706-3.015 2.655.245-.939.75-2.317 1.538-2.82a1.18 1.18 0 0 1 .645-.199zm-1.696 3.548zm0 0c1.238-.516 3.16-1.156 4.07-.826.198.071.329.183.402.344.194.43.071.573.03.62-.463.542-2.68.281-4.502-.138zm3.148 1.06c.801 0 1.491-.135 1.823-.52.19-.223.355-.624.061-1.277-.142-.314-.395-.54-.752-.67-.673-.24-1.673-.09-2.628.176.848-.666 1.56-1.416 1.488-2.027-.048-.397-.36-.678-.927-.834-.535-.143-1.037-.071-1.495.223-1.442.921-1.935 3.768-1.958 3.9a.327.327 0 0 0 .008.138h.002v.001a.27.27 0 0 0 .032.074l.001.002a.301.301 0 0 0 .18.132c.549.154 2.576.682 4.165.682z"/></g></g><g opacity=".2"><path d="M336.867 494.62l-9.458 1.246-3.197-10.74 9.777-3.476z"/></g><g><path fill="#ebb376" d="M282.668 509.345h-8.62l-1.416-12.003-1.28-11.013 10.232-1.664.579 13.066z"/></g><g><path fill="#263238" d="M272.2 508.793c.023-.95 11.7-.205 11.7-.205s7.181 7.306 14.159 8.947c6.978 1.642 3.079 5.829-4.72 5.829h-19.29c-5.542 0-2.079-4.721-1.848-14.57z"/></g><g><g><path fill="#407bff" d="M288.36 506.684c.179 0 .358.044.538.13.16.074.425.227.417.39-.031.524-1.701 1.433-3.431 2.09.404-.882 1.14-2.151 2.004-2.51.16-.066.316-.1.472-.1zm-2.09 3.216zm0 0c1.312-.29 3.313-.588 4.154-.105.182.105.29.238.334.408.116.457-.03.577-.077.616-.55.455-2.69-.191-4.41-.92zm4.801 1.396c.227-.186.46-.553.284-1.245-.085-.336-.295-.601-.625-.79-.619-.356-1.63-.384-2.617-.286.949-.508 1.782-1.122 1.815-1.736.024-.4-.235-.73-.767-.982a1.802 1.802 0 0 0-1.51-.042c-1.584.66-2.564 3.384-2.606 3.5a.313.313 0 0 0 .053.3h.002a.278.278 0 0 0 .103.08c.614.293 3.207 1.48 4.838 1.48.427 0 .789-.08 1.03-.279z"/></g></g><g opacity=".2"><path d="M282.163 497.998l-9.53-.419-1.281-11.131 10.232-1.724z"/></g><g><g><path fill="#407bff" d="M337.666 487.885l-13.955 2.46c-14.08-35.083-24.097-64.368-31.17-88.67-3.81-13.114-6.78-24.774-9.061-35.122l.637 38.193v86.759h-14.17c-34.473-164.393-10.043-201.961-10.043-201.961l41.24-7.048c1.566 6.155 2.75 16.134 3.452 23.079l1.86 13.635 16.12 83.243z"/></g></g><g><path fill="#407bff" d="M321.524 488.62l17.309-5.738-.234 7.363-14.315 4.565z"/></g><g><path fill="#407bff" d="M268.097 489.421l18.043-2.64-1.51 7.209-14.892 2.007z"/></g><g><path fill="#263238" d="M297.426 199.576a.344.344 0 0 1-.18-.051c-5.26-3.178-9.952-14.849-10.15-15.345a.35.35 0 0 1 .65-.257c.047.119 4.801 11.947 9.861 15.005.165.1.218.314.118.48a.348.348 0 0 1-.3.168z"/></g><g><path fill="#263238" d="M255.125 168.917s2.051-6.973 15.743-8.163c13.69-1.192 20.507 12.302 17.278 22.328 0 0 2.88 13.65 8.405 17.654 0 0-26.347 11.91-39.653 11.976-2.961.015-9.288-14.683-10.104-25.279-.787-10.201 2.293-18.19 8.33-18.517z"/></g><g><path fill="#263238" d="M259.904 283.381v6.157l42.054-3.225v-7.28z"/></g><g opacity=".3"><path fill="#fff" d="M259.904 283.381v6.157l42.054-3.225v-7.28z"/></g><g transform="rotate(-5.118 288 284.5)"><path fill="#fff" d="M283.334 287.932v-7.001h9.232v7.001z"/></g><g><g transform="rotate(-2.927 273 286)"><path fill="#407bff" d="M272.206 291.477v-10.639h2.088v10.64z"/></g></g><g><g transform="rotate(-2.92 299 283.5)"><path fill="#407bff" d="M297.898 288.656v-10.639h2.088v10.64z"/></g></g><g><path fill="#263238" d="M302.133 279.772l-42.065 3.634c-.406-6.359-.811-11.809-1.775-17.916-.615-3.913-1.468-8.106-2.697-12.983-.95-3.815-2.139-8.064-3.648-12.927a17.22 17.22 0 0 0-.238-.797c-.866-2.78-7.029-.656-7.588-3.996-2.432-14.87 13.612-15.96 19.523-16.938a133.886 133.886 0 0 1 18.894-1.985c8.176-.07 17.581.853 17.581.853s1.342.321 2.18 9c.769 8.133 1.524 24.428-.167 54.055z"/></g><g><path fill="#ebb376" d="M279.065 225.148c-10.366-1.326-13.481-5.755-13.481-5.755 6.578-6.205 1.112-16.959 1.112-16.959l12.478 2.33c-.328 2.061-.468 3.791-.487 5.253-.095 7.573 3.33 7.647 3.33 7.647 2.19 4.103-2.952 7.484-2.952 7.484z"/></g><g opacity=".2"><path d="M279.174 204.764c-.328 2.061-.468 3.791-.487 5.253-8.429 0-11.991-7.583-11.991-7.583z"/></g><g><g><path fill="#ebb376" d="M269.607 169.84c10.594-2.4 15.29 2.5 18.54 13.242 4.06 13.424 3.229 23.803-10.678 23.89-18.887.117-25.457-33.147-7.862-37.132z"/></g><g><path fill="#d58745" d="M281.163 184.042s2.095 2.434 4.078 3.695c0 0-.58 1.646-2.521 1.83z"/></g><g><g><path fill="#263238" d="M274.481 184.644c.219.865-.074 1.684-.65 1.83-.577.145-1.222-.44-1.439-1.306-.218-.865.074-1.684.651-1.83.578-.145 1.222.44 1.438 1.306z"/></g><g><path fill="#263238" d="M272.813 183.44l1.698-1.21"/></g></g><g><g><path fill="#263238" d="M285.199 181.76c.217.866-.074 1.685-.651 1.83-.577.144-1.222-.44-1.44-1.305-.216-.866.074-1.685.652-1.83.577-.145 1.221.44 1.439 1.305z"/></g><g><path fill="#263238" d="M283.529 180.558l1.698-1.212"/></g></g><g><path fill="#263238" d="M268.486 180.5a.506.506 0 0 1-.453-.73c1.278-2.58 4.502-2.91 4.639-2.923a.506.506 0 0 1 .095 1.008c-.028.004-2.802.296-3.827 2.363a.505.505 0 0 1-.454.282z"/></g><g><path fill="#263238" d="M280.32 175.665a.505.505 0 0 1-.278-.93c.078-.05 1.965-1.243 4.876-.133a.505.505 0 1 1-.36.946c-2.41-.92-3.904-.002-3.967.037a.509.509 0 0 1-.27.08z"/></g><g><path fill="#263238" d="M282.119 194.086c-.323 1.417-.403 3.959-.403 3.959-.232.035-.464.07-.697.092-3.154.386-4.744-.477-5.552-1.55-.44-.59-.639-1.25-.727-1.798-.11-.633-.045-1.11-.045-1.11 1.795.794 4.764.66 6.346.523a15.72 15.72 0 0 0 1.078-.116z"/></g><g><path fill="#fff" d="M281.041 194.202l-.15 1.164c-2.97.356-5.111.21-6.151-.577-.11-.633-.045-1.11-.045-1.11 1.795.794 4.764.66 6.346.523z"/></g><g><path fill="#de5753" d="M281.019 198.137c-3.154.386-4.745-.477-5.552-1.55 1.08-.09 2.392-.08 3.587.264a3.83 3.83 0 0 1 1.965 1.286z"/></g><g><path fill="#263238" d="M262.073 190.32s2.982-9.828.71-16.378c0 0 19.052-13.332 24.915 7.744 0 0-2.235-19.388-20.544-15.685-18.278 3.698-12.194 30.33-.99 36.14 0 0-5.923-5.684-4.091-11.822z"/></g><g><path fill="#ebb376" d="M264.31 192.163c-.458-1.69-2.871-4.177-5.966-3.114-3.201 1.103-3.239 8.196 5.294 7.967 1.224-.032 1.626-1.327.672-4.853z"/></g></g><g><path fill="#263238" d="M262.783 173.942s10.979-4.04 17.16-.995c0 0-6.662-5.979-17.94-.35z"/></g><g><path fill="#ebb376" d="M255.973 220.543s12.17 9.876 23.503 9.717c11.331-.16 15.314-12.903 15.314-12.903s-17.576-5.203-38.817 3.186z"/></g><g opacity=".2"><path d="M292.54 401.674c-3.81-13.113-6.78-24.773-9.06-35.12 0 0 .23-20.11 2.664-36.626 0 0 6.04 47.24 6.396 71.746z"/></g><g><path fill="#ebb376" d="M221.917 242.424s-8.34-13.296-10.062-21.797c0 0 2.303-4.008 1.576-6.518-.725-2.51-6.463-10.56-8.696-9.643-2.234.917-6.246 5.649-5.61 8.163.635 2.514 6.645 8.737 6.645 8.737s4.738 19.565 9.255 24.77c4.516 5.204 6.892-3.712 6.892-3.712z"/></g><g><path fill="#263238" d="M244.628 227.496c4.241-.587 12.797 7.688 11.494 14.846-1.302 7.156-13.286 27.276-22.534 25.71-13.067-2.211-27.424-36.654-27.424-36.654l7.17-6.25s16.92 29.309 20.254 28.734c3.335-.573 11.04-26.386 11.04-26.386z"/></g><g opacity=".05"><path fill="#fff" d="M244.628 227.496c4.241-.587 12.797 7.688 11.494 14.846-1.302 7.156-13.286 27.276-22.534 25.71-13.067-2.211-27.424-36.654-27.424-36.654l7.17-6.25s16.92 29.309 20.254 28.734c3.335-.573 11.04-26.386 11.04-26.386z"/></g><g><path fill="#263238" d="M203.237 229.293l10.466-6.28 1.659 2.709-9.876 8.74z"/></g><g><path fill="#263238" d="M335.332 237.277l8.477 10.49 1.475-3.292-7.618-8.857z"/></g><g><g><path fill="#407bff" d="M339.569 223.084l13.396-16.317a1.263 1.263 0 0 1 1.842-.116l5.972 5.637c.48.454.53 1.202.112 1.715l-13.604 16.692a1.262 1.262 0 0 1-1.889.077l-5.765-6.014a1.261 1.261 0 0 1-.064-1.674z"/></g><g opacity=".3"><path d="M339.569 223.084l13.396-16.317a1.263 1.263 0 0 1 1.842-.116l5.972 5.637c.48.454.53 1.202.112 1.715l-13.604 16.692a1.262 1.262 0 0 1-1.889.077l-5.765-6.014a1.261 1.261 0 0 1-.064-1.674z"/></g><g><path fill="#407bff" d="M339.03 222.427l13.396-16.316a1.262 1.262 0 0 1 1.842-.117l5.972 5.637c.48.454.53 1.202.111 1.715l-13.603 16.692a1.262 1.262 0 0 1-1.89.077l-5.764-6.012a1.262 1.262 0 0 1-.064-1.676z"/></g><g opacity=".6"><path fill="#fff" d="M352.965 206.767l6.622 6.404-12.955 15.938-6.447-6.77z"/></g></g></g></g></g></svg>