<svg xmlns="http://www.w3.org/2000/svg" width="759" height="395" viewBox="0 0 759 395"><g><g><g><g><path fill="#f0f6ff" d="M.633 367.824c0-15.01 169.577-27.177 378.762-27.177 209.184 0 378.761 12.167 378.761 27.177 0 15.009-169.577 27.176-378.761 27.176C170.21 395 .633 382.833.633 367.824z"/></g></g><g><path fill="#6d89cf" d="M25.657 311.08c1.967-9.887 5.288-18.605 9.636-26.369 6.63-4.539 15.248-8.521 21.796-4.806 12.302 6.976-21.443 10.09-26.438 20.633-1.816 3.835-2.78 7.211-3.271 9.955 1.795-.53 4.724-1.172 7.463-.766 2.881.427 7.738 3.982 10.693 6.338-1.375-2.328-2.639-5.245-2.956-8.434-.768-7.724 2.257-16.442 7.093-10.684 3.504 4.173 1.93 15.189.796 20.938 1.872.734 3.754 1.533 5.636 2.4 7.2-25.362 24.11-65.677 57.039-67.06 0 0 12.995 4.951-1.4 21.23-12.25 13.852-31.82 19.402-50.372 48.446a92.18 92.18 0 0 1 3.421 1.927c8.897-8.52 25.546-22.046 39.474-19.599 14.874 2.612-17.423 15.7-35.175 22.314 4.038 2.72 7.927 5.848 11.526 9.446 0 0 5.8 7.738 31.43 3.87 25.632-3.87 47.874 22.751 47.874 22.751H26.866c-4.082-20.566-4.136-37.84-1.21-52.53z"/></g><g opacity=".4"><path fill="#9ec5fd" d="M425.834.875c20.987 0 38.002 17.013 38.002 38 0 20.988-17.015 38.001-38.002 38.001-20.987 0-38-17.013-38-38 0-20.988 17.013-38 38-38z"/></g><g><g><path fill="#b3caf7" d="M251.385 320.276V15.45h62.683v304.825z"/></g><g><path fill="#dde8fd" d="M237.306 320.276V15.45h62.684v304.825z"/></g><g><path fill="#b3caf7" d="M237.306 32.984V15.37h62.668v17.614z"/></g><g><path fill="#b3caf7" d="M237.306 71.188V53.573h62.668v17.615z"/></g><g><path fill="#b3caf7" d="M237.306 109.39V91.778h62.668v17.614z"/></g><g><path fill="#b3caf7" d="M237.306 147.594V129.98h62.668v17.614z"/></g><g><path fill="#b3caf7" d="M237.306 185.797v-17.614h62.668v17.614z"/></g><g><path fill="#b3caf7" d="M237.306 224v-17.614h62.668V224z"/></g><g><path fill="#b3caf7" d="M237.306 262.204v-17.615h62.668v17.615z"/></g><g><path fill="#b3caf7" d="M237.306 300.407v-17.614h62.668v17.614z"/></g></g><g><g><path fill="#b3caf7" d="M151.177 320.276V58.584h62.684v261.692z"/></g><g><path fill="#dde8fd" d="M137.099 320.276V58.584h62.683v261.692z"/></g><g><path fill="#b3caf7" d="M137.099 73.637V58.515h62.667v15.122z"/></g><g><path fill="#b3caf7" d="M137.099 106.434V91.312h62.667v15.122z"/></g><g><path fill="#b3caf7" d="M137.099 139.232V124.11h62.667v15.122z"/></g><g><path fill="#b3caf7" d="M137.099 172.03v-15.123h62.667v15.122z"/></g><g><path fill="#b3caf7" d="M137.099 204.827v-15.122h62.667v15.122z"/></g><g><path fill="#b3caf7" d="M137.099 237.624v-15.122h62.667v15.122z"/></g><g><path fill="#b3caf7" d="M137.099 270.421V255.3h62.667v15.122z"/></g><g><path fill="#b3caf7" d="M137.099 303.219v-15.122h62.667v15.122z"/></g></g><g><path fill="#dde8fd" d="M321.743 349.203v-38.277h26.249v38.277z"/></g><g><path fill="#d0dff7" d="M339.977 258.708v106.27h278.05l1.894-.017 70.961-.666c.059-.104.13-.229.214-.37l.414-.722c.052-.097.111-.197.173-.304.21-.377.45-.801.715-1.29.326-.59.688-1.263 1.088-2.013v-.003a242.498 242.498 0 0 0 5.721-11.497 288.597 288.597 0 0 0 3.244-7.224v-.004c.31-.715.622-1.444.933-2.19l.031-.072c.214-.512.432-1.03.65-1.558.227-.54.452-1.085.68-1.637a301.84 301.84 0 0 0 3.53-9.08l.094-.252v-.003a287.467 287.467 0 0 0 3.558-10.198c.024-.076.052-.152.076-.235.183-.56.363-1.12.545-1.686a346.933 346.933 0 0 0 1.382-4.429c.395-1.295.785-2.611 1.168-3.94a272.546 272.546 0 0 0 1.962-7.2 298.196 298.196 0 0 0 1.673-6.803c.083-.346.162-.69.242-1.036a263.424 263.424 0 0 0 3.45-17.94c.467-2.995.889-6.038 1.251-9.124.346-2.912.64-5.859.877-8.84.568-6.975.826-14.136.716-21.43-.193-12.698-1.524-25.801-4.384-39.067a185.543 185.543 0 0 0-2.705-10.933 183.12 183.12 0 0 0-2.186-7.252 190.359 190.359 0 0 0-1.797-5.261 181.032 181.032 0 0 0-4.75-11.916l-1.486-3.296c-9.486-20.468-23.47-40.742-43.372-59.923l-1.116-1.07h-1.165v40.65h-35.975V68.908h-39.697v43h-9.052V60.571h-39.696v96.249h-50.206v56.123h-18.758v14.14h-43.09v-24.348h-24.738v-66.159h-30.56v122.131z"/></g><g><path fill="#b3caf7" d="M537.865 76.876V67.07h39.718v9.806z"/></g><g><path fill="#b3caf7" d="M537.865 95.3v-9.807h39.718v9.806z"/></g><g><path fill="#b3caf7" d="M537.865 111.874v-9.807h39.718v9.807z"/></g><g><path fill="#b3caf7" d="M586.603 111.874v-9.807h39.72v9.807z"/></g><g><path fill="#b3caf7" d="M586.603 95.3v-9.807h39.72v9.806z"/></g><g><path fill="#b3caf7" d="M586.603 78.75v-9.807h39.72v9.807z"/></g><g><path fill="#b3caf7" d="M537.865 127.945v-9.807h88.468v9.807z"/></g><g><path fill="#b3caf7" d="M537.865 144.016v-9.807h88.468v9.807z"/></g><g><path fill="#b3caf7" d="M370.55 151.722v-15.137h30.828v15.137z"/></g><g><path fill="#b3caf7" d="M370.55 174.234v-15.137h30.828v15.137z"/></g><g><path fill="#b3caf7" d="M370.55 196.746V181.61h30.828v15.137z"/></g><g><path fill="#b3caf7" d="M370.55 220.344v-15.137h30.828v15.137z"/></g><g><path fill="#b3caf7" d="M370.55 243.21v-15.137h30.828v15.138z"/></g><g><path fill="#b3caf7" d="M370.55 266.078V250.94h30.828v15.138z"/></g><g><path fill="#b3caf7" d="M370.55 290v-15.137h30.828V290z"/></g><g><path fill="#b3caf7" d="M537.865 156.14v-6.225h88.468v6.226z"/></g><g><path fill="#b3caf7" d="M400.95 202.737v-66.152h11.368v66.152z"/></g><g><path fill="#b3caf7" d="M425.835 227.084v-24.347H448.7v24.347z"/></g><g><path fill="#b3caf7" d="M626.323 68.943v9.807l.007 39.386.003 9.808v7.203h7.88V69.724a538.08 538.08 0 0 0-1.061-.781z"/></g><g><path fill="#b3caf7" d="M577.584 111.874V60.572h4.844v51.302z"/></g><g opacity=".8"><g opacity=".8"><g opacity=".8"><g opacity=".8"><g opacity=".8"><path fill="#b3caf7" d="M495.885 175.963v-9.486h6.73v9.486z"/></g><g opacity=".8"><path fill="#b3caf7" d="M508.47 175.963v-9.486h6.73v9.486z"/></g><g opacity=".8"><path fill="#b3caf7" d="M520.773 175.963v-9.486h6.73v9.486z"/></g><g opacity=".8"><path fill="#b3caf7" d="M532.437 175.963v-9.486h6.73v9.486z"/></g><g opacity=".8"><path fill="#b3caf7" d="M544.326 175.963v-9.486h6.73v9.486z"/></g></g><g opacity=".8"><g opacity=".8"><path fill="#b3caf7" d="M556.35 175.963v-9.486h6.73v9.486z"/></g><g opacity=".8"><path fill="#b3caf7" d="M568.935 175.963v-9.486h6.73v9.486z"/></g><g opacity=".8"><path fill="#b3caf7" d="M581.238 175.963v-9.486h6.73v9.486z"/></g><g opacity=".8"><path fill="#b3caf7" d="M592.903 175.963v-9.486h6.73v9.486z"/></g><g opacity=".8"><path fill="#b3caf7" d="M604.792 175.963v-9.486h6.73v9.486z"/></g></g></g><g opacity=".8"><g opacity=".8"><g opacity=".8"><path fill="#b3caf7" d="M617.18 175.963v-9.486h6.73v9.486z"/></g><g opacity=".8"><path fill="#b3caf7" d="M629.765 175.963v-9.486h6.73v9.486z"/></g><g opacity=".8"><path fill="#b3caf7" d="M642.068 175.963v-9.486h6.73v9.486z"/></g><g opacity=".8"><path fill="#b3caf7" d="M653.733 175.963v-9.486h6.73v9.486z"/></g><g opacity=".8"><path fill="#b3caf7" d="M665.621 175.963v-9.486h6.73v9.486z"/></g></g><g opacity=".8"><g opacity=".8"><path fill="#b3caf7" d="M677.646 175.963v-9.486h6.73v9.486z"/></g><g opacity=".8"><path fill="#b3caf7" d="M690.23 175.963v-9.486h6.73v9.486z"/></g><g opacity=".8"><path fill="#b3caf7" d="M702.534 175.963v-9.486h6.73v9.486z"/></g><g opacity=".8"><path fill="#b3caf7" d="M714.197 170.702v5.26h1.797c-.57-1.75-1.168-3.506-1.797-5.26z"/></g></g></g></g><g opacity=".8"><g opacity=".8"><g opacity=".8"><g opacity=".8"><path fill="#b3caf7" d="M495.885 192.701v-9.485h6.73v9.485z"/></g><g opacity=".8"><path fill="#b3caf7" d="M508.47 192.701v-9.485h6.73v9.485z"/></g><g opacity=".8"><path fill="#b3caf7" d="M520.773 192.701v-9.485h6.73v9.485z"/></g><g opacity=".8"><path fill="#b3caf7" d="M532.437 192.701v-9.485h6.73v9.485z"/></g><g opacity=".8"><path fill="#b3caf7" d="M544.326 192.701v-9.485h6.73v9.485z"/></g></g><g opacity=".8"><g opacity=".8"><path fill="#b3caf7" d="M556.35 192.701v-9.485h6.73v9.485z"/></g><g opacity=".8"><path fill="#b3caf7" d="M568.935 192.701v-9.485h6.73v9.485z"/></g><g opacity=".8"><path fill="#b3caf7" d="M581.238 192.701v-9.485h6.73v9.485z"/></g><g opacity=".8"><path fill="#b3caf7" d="M592.903 192.701v-9.485h6.73v9.485z"/></g><g opacity=".8"><path fill="#b3caf7" d="M604.792 192.701v-9.485h6.73v9.485z"/></g></g></g><g opacity=".8"><g opacity=".8"><g opacity=".8"><path fill="#b3caf7" d="M617.18 192.701v-9.485h6.73v9.485z"/></g><g opacity=".8"><path fill="#b3caf7" d="M629.765 192.701v-9.485h6.73v9.485z"/></g><g opacity=".8"><path fill="#b3caf7" d="M642.068 192.701v-9.485h6.73v9.485z"/></g><g opacity=".8"><path fill="#b3caf7" d="M653.733 192.701v-9.485h6.73v9.485z"/></g><g opacity=".8"><path fill="#b3caf7" d="M665.621 192.701v-9.485h6.73v9.485z"/></g></g><g opacity=".8"><g opacity=".8"><path fill="#b3caf7" d="M677.646 192.701v-9.485h6.73v9.485z"/></g><g opacity=".8"><path fill="#b3caf7" d="M690.23 192.701v-9.485h6.73v9.485z"/></g><g opacity=".8"><path fill="#b3caf7" d="M702.534 192.701v-9.485h6.73v9.485z"/></g><g opacity=".8"><path fill="#b3caf7" d="M714.197 183.214v9.487h6.37a185.74 185.74 0 0 0-2.387-9.487z"/></g></g></g></g><g opacity=".8"><g opacity=".8"><g opacity=".8"><g opacity=".8"><path fill="#b3caf7" d="M495.885 209.183v-9.485h6.73v9.485z"/></g><g opacity=".8"><path fill="#b3caf7" d="M508.47 209.183v-9.485h6.73v9.485z"/></g><g opacity=".8"><path fill="#b3caf7" d="M520.773 209.183v-9.485h6.73v9.485z"/></g><g opacity=".8"><path fill="#b3caf7" d="M532.437 209.183v-9.485h6.73v9.485z"/></g><g opacity=".8"><path fill="#b3caf7" d="M544.326 209.183v-9.485h6.73v9.485z"/></g></g><g opacity=".8"><g opacity=".8"><path fill="#b3caf7" d="M556.35 209.183v-9.485h6.73v9.485z"/></g><g opacity=".8"><path fill="#b3caf7" d="M568.935 209.183v-9.485h6.73v9.485z"/></g><g opacity=".8"><path fill="#b3caf7" d="M581.238 209.183v-9.485h6.73v9.485z"/></g><g opacity=".8"><path fill="#b3caf7" d="M592.903 209.183v-9.485h6.73v9.485z"/></g><g opacity=".8"><path fill="#b3caf7" d="M604.792 209.183v-9.485h6.73v9.485z"/></g></g></g><g opacity=".8"><g opacity=".8"><g opacity=".8"><path fill="#b3caf7" d="M617.18 209.183v-9.485h6.73v9.485z"/></g><g opacity=".8"><path fill="#b3caf7" d="M629.765 209.183v-9.485h6.73v9.485z"/></g><g opacity=".8"><path fill="#b3caf7" d="M642.068 209.183v-9.485h6.73v9.485z"/></g><g opacity=".8"><path fill="#b3caf7" d="M653.733 209.183v-9.485h6.73v9.485z"/></g><g opacity=".8"><path fill="#b3caf7" d="M665.621 209.183v-9.485h6.73v9.485z"/></g></g><g opacity=".8"><g opacity=".8"><path fill="#b3caf7" d="M677.646 209.183v-9.485h6.73v9.485z"/></g><g opacity=".8"><path fill="#b3caf7" d="M690.23 209.183v-9.485h6.73v9.485z"/></g><g opacity=".8"><path fill="#b3caf7" d="M702.534 209.183v-9.485h6.73v9.485z"/></g><g opacity=".8"><path fill="#b3caf7" d="M714.198 209.183v-9.485h6.73v9.485z"/></g></g></g></g><g opacity=".8"><g opacity=".8"><g opacity=".8"><g opacity=".8"><g opacity=".8"><path fill="#b3caf7" d="M495.885 226.695v-9.486h6.73v9.486z"/></g><g opacity=".8"><path fill="#b3caf7" d="M508.47 226.695v-9.486h6.73v9.486z"/></g><g opacity=".8"><path fill="#b3caf7" d="M520.773 226.695v-9.486h6.73v9.486z"/></g><g opacity=".8"><path fill="#b3caf7" d="M532.437 226.695v-9.486h6.73v9.486z"/></g><g opacity=".8"><path fill="#b3caf7" d="M544.326 226.695v-9.486h6.73v9.486z"/></g></g><g opacity=".8"><g opacity=".8"><path fill="#b3caf7" d="M556.35 226.695v-9.486h6.73v9.486z"/></g><g opacity=".8"><path fill="#b3caf7" d="M568.935 226.695v-9.486h6.73v9.486z"/></g><g opacity=".8"><path fill="#b3caf7" d="M581.238 226.695v-9.486h6.73v9.486z"/></g><g opacity=".8"><path fill="#b3caf7" d="M592.903 226.695v-9.486h6.73v9.486z"/></g><g opacity=".8"><path fill="#b3caf7" d="M604.792 226.695v-9.486h6.73v9.486z"/></g></g></g><g opacity=".8"><g opacity=".8"><g opacity=".8"><path fill="#b3caf7" d="M617.18 226.695v-9.486h6.73v9.486z"/></g><g opacity=".8"><path fill="#b3caf7" d="M629.765 226.695v-9.486h6.73v9.486z"/></g><g opacity=".8"><path fill="#b3caf7" d="M642.068 226.695v-9.486h6.73v9.486z"/></g><g opacity=".8"><path fill="#b3caf7" d="M653.733 226.695v-9.486h6.73v9.486z"/></g><g opacity=".8"><path fill="#b3caf7" d="M665.621 226.695v-9.486h6.73v9.486z"/></g></g><g opacity=".8"><g opacity=".8"><path fill="#b3caf7" d="M677.646 226.695v-9.486h6.73v9.486z"/></g><g opacity=".8"><path fill="#b3caf7" d="M690.23 226.695v-9.486h6.73v9.486z"/></g><g opacity=".8"><path fill="#b3caf7" d="M702.534 226.695v-9.486h6.73v9.486z"/></g><g opacity=".8"><path fill="#b3caf7" d="M714.198 226.695v-9.486h6.73v9.486z"/></g></g></g></g><g opacity=".8"><g opacity=".8"><g opacity=".8"><g opacity=".8"><path fill="#b3caf7" d="M495.885 243.432v-9.485h6.73v9.485z"/></g><g opacity=".8"><path fill="#b3caf7" d="M508.47 243.432v-9.485h6.73v9.485z"/></g><g opacity=".8"><path fill="#b3caf7" d="M520.773 243.432v-9.485h6.73v9.485z"/></g><g opacity=".8"><path fill="#b3caf7" d="M532.437 243.432v-9.485h6.73v9.485z"/></g><g opacity=".8"><path fill="#b3caf7" d="M544.326 243.432v-9.485h6.73v9.485z"/></g></g><g opacity=".8"><g opacity=".8"><path fill="#b3caf7" d="M556.35 243.432v-9.485h6.73v9.485z"/></g><g opacity=".8"><path fill="#b3caf7" d="M568.935 243.432v-9.485h6.73v9.485z"/></g><g opacity=".8"><path fill="#b3caf7" d="M581.238 243.432v-9.485h6.73v9.485z"/></g><g opacity=".8"><path fill="#b3caf7" d="M592.903 243.432v-9.485h6.73v9.485z"/></g><g opacity=".8"><path fill="#b3caf7" d="M604.792 243.432v-9.485h6.73v9.485z"/></g></g></g><g opacity=".8"><g opacity=".8"><g opacity=".8"><path fill="#b3caf7" d="M617.18 243.432v-9.485h6.73v9.485z"/></g><g opacity=".8"><path fill="#b3caf7" d="M629.765 243.432v-9.485h6.73v9.485z"/></g><g opacity=".8"><path fill="#b3caf7" d="M642.068 243.432v-9.485h6.73v9.485z"/></g><g opacity=".8"><path fill="#b3caf7" d="M653.733 243.432v-9.485h6.73v9.485z"/></g><g opacity=".8"><path fill="#b3caf7" d="M665.621 243.432v-9.485h6.73v9.485z"/></g></g><g opacity=".8"><g opacity=".8"><path fill="#b3caf7" d="M677.646 243.432v-9.485h6.73v9.485z"/></g><g opacity=".8"><path fill="#b3caf7" d="M690.23 243.432v-9.485h6.73v9.485z"/></g><g opacity=".8"><path fill="#b3caf7" d="M702.534 243.432v-9.485h6.73v9.485z"/></g><g opacity=".8"><path fill="#b3caf7" d="M714.198 243.432v-9.485h6.73v9.485z"/></g></g></g></g><g opacity=".8"><g opacity=".8"><g opacity=".8"><g opacity=".8"><path fill="#b3caf7" d="M495.885 259.914v-9.485h6.73v9.485z"/></g><g opacity=".8"><path fill="#b3caf7" d="M508.47 259.914v-9.485h6.73v9.485z"/></g><g opacity=".8"><path fill="#b3caf7" d="M520.773 259.914v-9.485h6.73v9.485z"/></g><g opacity=".8"><path fill="#b3caf7" d="M532.437 259.914v-9.485h6.73v9.485z"/></g><g opacity=".8"><path fill="#b3caf7" d="M544.326 259.914v-9.485h6.73v9.485z"/></g></g><g opacity=".8"><g opacity=".8"><path fill="#b3caf7" d="M556.35 259.914v-9.485h6.73v9.485z"/></g><g opacity=".8"><path fill="#b3caf7" d="M568.935 259.914v-9.485h6.73v9.485z"/></g><g opacity=".8"><path fill="#b3caf7" d="M581.238 259.914v-9.485h6.73v9.485z"/></g><g opacity=".8"><path fill="#b3caf7" d="M592.903 259.914v-9.485h6.73v9.485z"/></g><g opacity=".8"><path fill="#b3caf7" d="M604.792 259.914v-9.485h6.73v9.485z"/></g></g></g><g opacity=".8"><g opacity=".8"><g opacity=".8"><path fill="#b3caf7" d="M617.18 259.914v-9.485h6.73v9.485z"/></g><g opacity=".8"><path fill="#b3caf7" d="M629.765 259.914v-9.485h6.73v9.485z"/></g><g opacity=".8"><path fill="#b3caf7" d="M642.068 259.914v-9.485h6.73v9.485z"/></g><g opacity=".8"><path fill="#b3caf7" d="M653.733 259.914v-9.485h6.73v9.485z"/></g><g opacity=".8"><path fill="#b3caf7" d="M665.621 259.914v-9.485h6.73v9.485z"/></g></g><g opacity=".8"><g opacity=".8"><path fill="#b3caf7" d="M677.646 259.914v-9.485h6.73v9.485z"/></g><g opacity=".8"><path fill="#b3caf7" d="M690.23 259.914v-9.485h6.73v9.485z"/></g><g opacity=".8"><path fill="#b3caf7" d="M702.534 259.914v-9.485h6.73v9.485z"/></g><g opacity=".8"><path fill="#b3caf7" d="M714.198 259.914v-9.485h6.73v9.485z"/></g></g></g></g></g></g><g><path fill="#b3caf7" d="M448.7 364.293v-84.147h155.977v84.147z"/></g><g><path fill="#dde8fd" d="M459.119 305.585V290h29.06v15.585z"/></g><g><path fill="#dde8fd" d="M496.424 305.585V290h29.06v15.585z"/></g><g><path fill="#dde8fd" d="M533.015 305.585V290h29.061v15.585z"/></g><g><path fill="#dde8fd" d="M568.906 305.585V290h29.06v15.585z"/></g><g><path fill="#93b3f4" d="M603.055 365.018v-84.872h14.971v84.872z"/></g><g><path fill="#dde8fd" d="M376.687 136.585v-6.588h.81v6.588z"/></g><g><path fill="#dde8fd" d="M405.816 136.585v-6.588h.81v6.588z"/></g><g><path fill="#dde8fd" d="M723.676 263.485a252.021 252.021 0 0 1-2.93 18.69 263.632 263.632 0 0 1-1.772 8.374c-.08.346-.158.69-.242 1.037a297.475 297.475 0 0 1-2.114 8.488 272.459 272.459 0 0 1-1.52 5.513 284.616 284.616 0 0 1-2.097 6.937c-.148.48-.3.957-.453 1.433-.182.567-.362 1.126-.545 1.686-.024.083-.052.16-.076.235a288.487 288.487 0 0 1-3.558 10.198v.004l-.093.252a302.16 302.16 0 0 1-3.531 9.078c-.228.553-.453 1.099-.68 1.638-.218.528-.436 1.047-.65 1.558l-.031.073v-75.194z"/></g><g><g><path fill="#dde8fd" d="M703.383 291.586v47.093c.01-.025.02-.049.032-.073.213-.512.431-1.03.649-1.558.228-.54.452-1.085.68-1.638 1.16-2.853 2.35-5.883 3.531-9.079l.093-.252v-.003a285.825 285.825 0 0 0 3.558-10.198c.025-.076.052-.152.076-.235.183-.56.363-1.12.546-1.686a360.059 360.059 0 0 0 1.382-4.429c.394-1.295.784-2.611 1.168-3.94a273.195 273.195 0 0 0 1.962-7.2 299.183 299.183 0 0 0 1.672-6.802z"/></g><g><path fill="#b3caf7" d="M703.383 282.175v23.412h11.715a273.969 273.969 0 0 0 1.962-7.2 297.934 297.934 0 0 0 1.914-7.838c.625-2.74 1.22-5.531 1.772-8.374z"/></g><g><g><g><g><path fill="#b3caf7" d="M710.676 312.524v7.078c.421-1.223.836-2.463 1.25-3.724.025-.076.052-.152.076-.235.183-.56.363-1.12.546-1.686.152-.476.304-.953.453-1.433z"/></g></g></g></g><g><path fill="#93b3f4" d="M711.553 296.75v-7.997h4.621v7.996z"/></g></g><g><g><path fill="#dde8fd" d="M252.856 363.61v-72.024h107.096v72.024z"/></g><g><path fill="#b3caf7" d="M252.856 305.585v-23.41h107.096v23.41z"/></g><g><g><g><g><path fill="#b3caf7" d="M260.148 320.276v-7.753h5.5v7.753z"/></g><g><path fill="#b3caf7" d="M270.433 320.276v-7.753h5.501v7.753z"/></g><g><path fill="#b3caf7" d="M280.489 320.276v-7.753h5.5v7.753z"/></g><g><path fill="#b3caf7" d="M290.023 320.276v-7.753h5.5v7.753z"/></g><g><path fill="#b3caf7" d="M299.74 320.276v-7.753h5.5v7.753z"/></g></g><g><g><path fill="#b3caf7" d="M309.568 320.276v-7.753h5.5v7.753z"/></g><g><path fill="#b3caf7" d="M319.854 320.276v-7.753h5.5v7.753z"/></g><g><path fill="#b3caf7" d="M329.909 320.276v-7.753h5.5v7.753z"/></g><g><path fill="#b3caf7" d="M339.443 320.276v-7.753h5.5v7.753z"/></g><g><path fill="#b3caf7" d="M349.16 320.276v-7.753h5.5v7.753z"/></g></g></g><g><g><g><path fill="#b3caf7" d="M260.148 333.957v-7.753h5.5v7.753z"/></g><g><path fill="#b3caf7" d="M270.433 333.957v-7.753h5.501v7.753z"/></g><g><path fill="#b3caf7" d="M280.489 333.957v-7.753h5.5v7.753z"/></g><g><path fill="#b3caf7" d="M290.023 333.957v-7.753h5.5v7.753z"/></g><g><path fill="#b3caf7" d="M299.74 333.957v-7.753h5.5v7.753z"/></g></g><g><g><path fill="#b3caf7" d="M309.568 333.957v-7.753h5.5v7.753z"/></g><g><path fill="#b3caf7" d="M319.854 333.957v-7.753h5.5v7.753z"/></g><g><path fill="#b3caf7" d="M329.909 333.957v-7.753h5.5v7.753z"/></g><g><path fill="#b3caf7" d="M339.443 333.957v-7.753h5.5v7.753z"/></g><g><path fill="#b3caf7" d="M349.16 333.957v-7.753h5.5v7.753z"/></g></g></g><g><g><g><path fill="#b3caf7" d="M260.148 347.427v-7.752h5.5v7.752z"/></g><g><path fill="#b3caf7" d="M270.433 347.427v-7.752h5.501v7.752z"/></g><g><path fill="#b3caf7" d="M280.489 347.427v-7.752h5.5v7.752z"/></g><g><path fill="#b3caf7" d="M290.023 347.427v-7.752h5.5v7.752z"/></g><g><path fill="#b3caf7" d="M299.74 347.427v-7.752h5.5v7.752z"/></g></g><g><g><path fill="#b3caf7" d="M309.568 347.427v-7.752h5.5v7.752z"/></g><g><path fill="#b3caf7" d="M319.854 347.427v-7.752h5.5v7.752z"/></g><g><path fill="#b3caf7" d="M329.909 347.427v-7.752h5.5v7.752z"/></g><g><path fill="#b3caf7" d="M339.443 347.427v-7.752h5.5v7.752z"/></g><g><path fill="#b3caf7" d="M349.16 347.427v-7.752h5.5v7.752z"/></g></g></g></g><g><path fill="#93b3f4" d="M261.026 296.75v-7.997h4.623v7.996z"/></g><g><path fill="#93b3f4" d="M306.913 296.75v-7.997h4.622v7.996z"/></g><g><path fill="#93b3f4" d="M343.415 296.75v-7.997h4.622v7.996z"/></g></g><g><g><path fill="#dde8fd" d="M139.033 363.61v-72.024H246.13v72.024z"/></g><g><path fill="#b3caf7" d="M139.033 305.585v-23.41H246.13v23.41z"/></g><g><g><g><g><path fill="#b3caf7" d="M146.325 320.276v-7.753h5.5v7.753z"/></g><g><path fill="#b3caf7" d="M156.611 320.276v-7.753h5.5v7.753z"/></g><g><path fill="#b3caf7" d="M166.666 320.276v-7.753h5.5v7.753z"/></g><g><path fill="#b3caf7" d="M176.2 320.276v-7.753h5.5v7.753z"/></g><g><path fill="#b3caf7" d="M185.917 320.276v-7.753h5.5v7.753z"/></g></g><g><g><path fill="#b3caf7" d="M195.745 320.276v-7.753h5.5v7.753z"/></g><g><path fill="#b3caf7" d="M206.031 320.276v-7.753h5.5v7.753z"/></g><g><path fill="#b3caf7" d="M216.086 320.276v-7.753h5.5v7.753z"/></g><g><path fill="#b3caf7" d="M225.62 320.276v-7.753h5.5v7.753z"/></g><g><path fill="#b3caf7" d="M235.337 320.276v-7.753h5.5v7.753z"/></g></g></g><g><g><g><path fill="#b3caf7" d="M146.325 333.957v-7.753h5.5v7.753z"/></g><g><path fill="#b3caf7" d="M156.611 333.957v-7.753h5.5v7.753z"/></g><g><path fill="#b3caf7" d="M166.666 333.957v-7.753h5.5v7.753z"/></g><g><path fill="#b3caf7" d="M176.2 333.957v-7.753h5.5v7.753z"/></g><g><path fill="#b3caf7" d="M185.917 333.957v-7.753h5.5v7.753z"/></g></g><g><g><path fill="#b3caf7" d="M195.745 333.957v-7.753h5.5v7.753z"/></g><g><path fill="#b3caf7" d="M206.031 333.957v-7.753h5.5v7.753z"/></g><g><path fill="#b3caf7" d="M216.086 333.957v-7.753h5.5v7.753z"/></g><g><path fill="#b3caf7" d="M225.62 333.957v-7.753h5.5v7.753z"/></g><g><path fill="#b3caf7" d="M235.337 333.957v-7.753h5.5v7.753z"/></g></g></g><g><g><g><path fill="#b3caf7" d="M146.325 347.427v-7.752h5.5v7.752z"/></g><g><path fill="#b3caf7" d="M156.611 347.427v-7.752h5.5v7.752z"/></g><g><path fill="#b3caf7" d="M166.666 347.427v-7.752h5.5v7.752z"/></g><g><path fill="#b3caf7" d="M176.2 347.427v-7.752h5.5v7.752z"/></g><g><path fill="#b3caf7" d="M185.917 347.427v-7.752h5.5v7.752z"/></g></g><g><g><path fill="#b3caf7" d="M195.745 347.427v-7.752h5.5v7.752z"/></g><g><path fill="#b3caf7" d="M206.031 347.427v-7.752h5.5v7.752z"/></g><g><path fill="#b3caf7" d="M216.086 347.427v-7.752h5.5v7.752z"/></g><g><path fill="#b3caf7" d="M225.62 347.427v-7.752h5.5v7.752z"/></g><g><path fill="#b3caf7" d="M235.337 347.427v-7.752h5.5v7.752z"/></g></g></g></g><g><path fill="#93b3f4" d="M147.203 296.75v-7.997h4.622v7.996z"/></g><g><path fill="#93b3f4" d="M193.09 296.75v-7.997h4.622v7.996z"/></g><g><path fill="#93b3f4" d="M229.592 296.75v-7.997h4.622v7.996z"/></g></g><g><path fill="#7f97d5" d="M618.645 364.965l44.568-.139h.003l12.064-.03h.003l1.312-.004 7.052-.024h.003l4.83-.018 2.131-.007s.17-.276.484-.818l.414-.722c.052-.097.111-.197.173-.304.21-.377.45-.801.715-1.29.325-.59.687-1.263 1.088-2.013v-.004a242.378 242.378 0 0 0 5.721-11.496 287.238 287.238 0 0 0 3.244-7.224v-.004c.321-.739.643-1.492.964-2.262.214-.512.432-1.03.65-1.558.227-.54.452-1.085.68-1.638 1.16-2.853 2.349-5.883 3.53-9.078l.093-.253v-.003c1.2-3.237 2.391-6.64 3.559-10.198.024-.076.052-.152.075-.235.184-.56.364-1.12.546-1.686.464-1.454.927-2.93 1.383-4.429a273.556 273.556 0 0 0 3.13-11.14c-2.989-.287-5.78-.367-8.392-.267-4.352.17-8.208.84-11.652 1.903-4.992 1.545-9.12 3.918-12.65 6.792-7.522 6.119-12.317 14.5-16.952 21.947-2.736 4.402-5.42 8.478-8.571 11.563-3.054 2.988-6.547 5.05-10.965 5.579-3.043.367-5.783.943-8.25 1.676-15.37 4.55-20.113 15.076-20.983 17.384z"/></g><g><path fill="#e7651d" d="M534.734 313.138l5.084-.992s-12.153-48.064-10.487-52.032c1.35-3.295 15.358-5.675 22.224-11.43 1.468-1.23 2.58-2.579 3.215-4.127 3.65-8.929-2.302-15.556-2.302-15.556s-12.461 2.857-23.771 7.698c-8.056 3.454-15.517 7.937-17.58 13.136-4.96 12.581 23.617 63.303 23.617 63.303z"/></g><g><path fill="#4a72c7" d="M520.901 320.547c.078-.5.415-.95.905-1.219 1.208-.666 3.684-1.62 5.538-4.096 1.043-1.39 5.351-5.505 5.351-5.505l.026-.012c.11-.027.674-.02 3.406 1.098 1.412.576 2.88-2.074 2.88-2.074s.45.179.866.622c.333.348.643.866.69 1.59.07 1.02 1.125 2.675 1.91 3.777.476.667.852 1.13.852 1.13s.295.575-2.107 1.488l-2.874.743c-.997.114-1.771.052-2.788.193-1.545.214-2.094.936-2.2 1.096l-.02.032-12.208 3.156c-.407-.308-.344-1.283-.227-2.019z"/></g><g><g><path fill="#2e2e53" d="M531.264 320.382l-37.3-59.752 46.82 29.975zm-3.388 3.283l2.946-1.9-1.24 3.876 4.394 1.405 10.828-33.867 39.487 25.28-48.526 4.22.4 4.596 61.49-5.347-51.016-34.492 13.389-41.878-4.393-1.404-12.977 40.59-58.208-39.355-.013-.02-.007.007-.816-.551.454.926-5.14 5.32z"/></g><g><path fill="#4a72c7" d="M469.01 262.854a4.466 4.466 0 0 1 5.323-2.658c6.721-17.439 8.956-23.177 9.757-25.15l-5.471-3.481a4.653 4.653 0 0 1-2.39-.864 4.678 4.678 0 0 1 5.466-7.595 4.676 4.676 0 0 1 1.762 5.08l10.874 6.92a4.677 4.677 0 1 1-.391 7.844 4.656 4.656 0 0 1-1.833-2.802l-4.096-2.606c-1.465 3.646-6.46 15.924-9.66 24.227L452 318.16l-4.27-1.743z"/></g><g><path fill="#4a72c7" d="M507.606 333.86h4.239l20.16-9.187.743 1.633-16.578 7.555h1.43c1.174 0 2.135.96 2.135 2.135 0 1.174-.96 2.135-2.135 2.135h-9.994a2.142 2.142 0 0 1-2.135-2.135c0-1.175.96-2.135 2.135-2.135z"/></g><g><g><path fill="#4a72c7" d="M583.413 320.194c0-.25.013-.498.037-.742l-32.28-5.416.17-1.01 32.28 5.415a7.556 7.556 0 0 1 2.609-4.13l-19.593-27.99.84-.587 18.798 26.854-10.138-30.413.973-.325 10.521 31.563a7.53 7.53 0 0 1 2.83-.76v-33.715h1.025v33.715c.586.04 1.154.145 1.695.31l10.464-29.159.965.347-9.958 27.75 20.022-23.05.774.673-20.87 24.024a7.597 7.597 0 0 1 2.702 2.479l1.18-.203 29.182-14.793.463.914-26.213 13.289 29.226-5.027.174 1.01-32.505 5.59-.853.433a7.535 7.535 0 0 1 .574 3.553l32.26 4.787-.151 1.014-32.258-4.786a7.568 7.568 0 0 1-.253.892l29.457 12.654-.404.942-29.459-12.654-.015.03 23.122 23.323-.728.722-22.945-23.145a7.599 7.599 0 0 1-1.682 1.711l16.967 26.692-.866.55-16.965-26.69a7.463 7.463 0 0 1-.457.227c4.239 11.16 12 31.604 12.191 32.175l-.972.325c-.168-.506-7.005-18.52-12.176-32.135a7.566 7.566 0 0 1-2.576.317l2.68 32.383-1.021.084-2.698-32.592a7.572 7.572 0 0 1-.952-.246c-5.333 13.115-12.335 30.357-12.522 30.908l-.973-.324c.191-.573 8.142-20.142 12.545-30.97a8.162 8.162 0 0 1-.282-.144l-18.005 28.475-.867-.548 18.007-28.476a7.608 7.608 0 0 1-1.832-1.917l-26.725 18.532-.584-.843 26.798-18.582a7.527 7.527 0 0 1-.753-3.29z"/></g><g><g><path fill="#06061c" d="M590.973 282.012c21.053 0 38.18 17.129 38.18 38.182s-17.127 38.181-38.18 38.181a38.144 38.144 0 0 1-19.313-5.237 38.415 38.415 0 0 1-13.71-13.765 38.157 38.157 0 0 1-5.158-19.18c0-21.052 17.127-38.18 38.18-38.18zm0 82.513c24.444 0 44.33-19.887 44.33-44.331 0-24.445-19.886-44.331-44.33-44.331-24.445 0-44.331 19.886-44.331 44.33a44.315 44.315 0 0 0 5.994 22.274 44.578 44.578 0 0 0 15.908 15.973 44.296 44.296 0 0 0 22.429 6.085z"/></g></g></g><g><g><path fill="#4a72c7" d="M440.768 320.194c0-.25.012-.498.036-.742l-32.28-5.416.17-1.01 32.28 5.415a7.558 7.558 0 0 1 2.61-4.13l-19.593-27.99.84-.587 18.798 26.854-10.138-30.413.973-.325 10.52 31.563a7.525 7.525 0 0 1 2.83-.76v-33.715h1.026v33.715c.586.04 1.154.145 1.695.31l10.464-29.159.965.347-9.959 27.75 20.023-23.05.774.673-20.87 24.024a7.599 7.599 0 0 1 2.702 2.479l1.18-.203 29.181-14.793.463.914-26.213 13.289 29.227-5.027.173 1.01-32.504 5.59-.854.433a7.537 7.537 0 0 1 .574 3.553l32.26 4.787-.15 1.014-32.258-4.786a7.57 7.57 0 0 1-.254.892l29.458 12.654-.405.942-29.458-12.654-.016.03 23.122 23.323-.728.722-22.945-23.145a7.595 7.595 0 0 1-1.682 1.711l16.967 26.692-.865.55-16.966-26.69c-.15.08-.301.155-.456.227 4.238 11.16 12 31.604 12.19 32.175l-.971.325c-.169-.506-7.006-18.52-12.177-32.135a7.561 7.561 0 0 1-2.575.317l2.68 32.383-1.022.084-2.697-32.592a7.528 7.528 0 0 1-.952-.246c-5.334 13.115-12.335 30.357-12.523 30.908l-.972-.324c.19-.573 8.142-20.142 12.545-30.97a7.464 7.464 0 0 1-.282-.144l-18.006 28.475-.866-.548 18.006-28.476a7.607 7.607 0 0 1-1.831-1.917l-26.725 18.532-.584-.843 26.797-18.582a7.529 7.529 0 0 1-.752-3.29z"/></g><g><g><path fill="#06061c" d="M448.328 282.012c21.053 0 38.18 17.129 38.18 38.182s-17.127 38.181-38.18 38.181a38.145 38.145 0 0 1-19.313-5.237 38.41 38.41 0 0 1-13.71-13.765 38.154 38.154 0 0 1-5.159-19.18c0-21.052 17.128-38.18 38.181-38.18zm0 82.513c24.444 0 44.33-19.887 44.33-44.331 0-24.445-19.886-44.331-44.33-44.331-24.445 0-44.332 19.886-44.332 44.33a44.302 44.302 0 0 0 5.995 22.274 44.569 44.569 0 0 0 15.908 15.973 44.296 44.296 0 0 0 22.429 6.085z"/></g></g></g><g><path fill="#ea8888" d="M545.965 269.668a2.802 2.802 0 0 1 3.573-1.714l2.557.897a7.86 7.86 0 0 0 6.113-.377c9.317-4.644 20.657-6.993 33.786-6.993h.474c5.862.026 16.353 1.462 20.843 2.13a2.5 2.5 0 0 1 2.134 2.475v1.622c0 .467-.43.816-.888.72l-.013-.002c-8.302-1.743-36.999-6.452-57.74 6.08-.59.356-1.308.43-1.958.201l-7.774-2.73a1.81 1.81 0 0 1-1.107-2.309z"/></g><g><path fill="#4a72c7" d="M542.798 240.244c2.114-2.05 14.158-.064 16.464.192 2.306.256 10.955-1.602 13.325-1.345 2.37.256 1.537 4.036 1.537 4.036-3.651 9.097-15.246 5.124-16.848 3.78-1.601-1.346-7.24-2.05-11.467-2.435-4.228-.385-5.125-2.178-3.011-4.228z"/></g><g><path fill="#06061c" d="M531.78 314.812c6.368 0 11.53 5.163 11.53 11.532s-5.162 11.53-11.53 11.53c-6.369 0-11.532-5.161-11.532-11.53s5.163-11.532 11.531-11.532z"/></g></g><g><path fill="#fc9290" d="M485.755 224.409c.018-.005.037-.006.055-.011 3.842-2.096 24.276-13.35 25.175-16.046.555-1.667 3.135-8.69 5.952-14.921.714-1.548 1.663-1.39 2.377-2.779 1.548-2.976 7.363-.518 8.474-1.034 3.652-1.666 7.682-3.092 7.682.558 0 0-1.032 2.66-2.619 6.35a651.889 651.889 0 0 1-2.104 4.802c-3.174 6.945-7.301 14.882-10.159 16.31-4.63 2.281-22.167 9.703-29.004 10.953a.28.28 0 0 1 .01.012s-3.294 3.244-4.025 3.857c-.73.613-2.375 1.3-3.956.741-1.582-.56-1.54-3.178-1.627-3.842-.086-.664.205-3.92 3.77-4.95z"/></g><g><path fill="#fdb2b0" d="M517.497 177.097s1.127 2.521 2.756 5.38c.089.149.177.304.266.458 1.26 2.168 2.786 4.46 4.304 5.934l13.69-6.391s-6.251-4.85-9.193-9.671a11.983 11.983 0 0 1-.788-1.482l-2.662-.096z"/></g><g><path fill="#fc9290" d="M517.497 177.097s1.128 2.521 2.756 5.38c.089.149.178.304.266.458 4.77-2.565 7.637-7.644 8.802-10.128a11.998 11.998 0 0 1-.79-1.482l-2.66-.096z"/></g><g><path fill="#fdb2b0" d="M513.465 176.905s15.757 2.471 17.145-7.366 4.357-16.142-5.646-18.136c-10.002-1.994-12.49 1.484-13.753 4.654-1.261 3.171-1.81 19.952 2.254 20.848z"/></g><g><path fill="#0b0754" d="M535.681 149.611s-.715.145-1.29.747l-.008-.012c-.04-2.121-2.124-4.267-2.124-4.267 1.001 1.257.676 3.585.676 3.585-2.967-5.076-17.415-1.083-18.769-.746-1.354.337-2.31-1.695-2.31-1.695-2.14 1.853-2.953 6.388-1.18 9.351 1.772 2.963 7.521 7.323 9.177 6.494 1.655-.83 1.659.884 1.572 3.291-.087 2.408 4.084 6.454 7.024 7.042 2.368.474 2.554-1.147 3.2-2.181.16-.257.352-.494.577-.697 3.225-2.911 5.001-8.73 4.28-14.463-.288-2.278-1.23-4.191-1.757-5.117.21-.362.628-1.044.932-1.332z"/></g><g><path fill="#294b7f" d="M516.792 192.69c1.23.396 4.207 1.507 5 2.856.834 1.35 9.564-2.42 10.596-5.952-2.5-2.739-6.786-5.08-9.286-4.287-1.468.438-3.85 3.572-6.31 7.382z"/></g><g><path fill="#fd9168" d="M521.343 265.865c1.418-2.836 18.063-34.205 18.063-34.205.167.01 25.082-15.67 25.082-15.67s4.312 4.979 5.62 12.394a39.073 39.073 0 0 1 1.087 6.376c.744 8.681-36.668 43.419-37.528 48.24-2.033 11.411-14.34 34.915-20.128 46.573l-4.613-1.768s9.11-55.327 12.417-61.94z"/></g><g><path fill="#7794bf" d="M521.588 198.3l3.974 5.66.318.714 8.254 18.85 2.244 8.84a.89.89 0 0 0 .715.657c3.107.525 9.45.253 11.645-.528 9.833-3.36 16.492-8.933 19.04-11.323a2.391 2.391 0 0 0 .574-2.635c-7.457-18.57-19.033-30.748-21.082-33.029-3.651-3.969-13.215-7.222-13.215-7.222-2.62 2.698-11.985 7.42-11.985 7.42-2.064 1.628-.482 12.596-.482 12.596z"/></g><g><path fill="#294b7f" d="M525.88 204.674l8.254 18.85c6.27-12.66 2.302-31.033 2.302-31.033s-10.08 8.73-10.437 9.405c-.04.12-.12 1.151-.12 2.778z"/></g><g><path fill="#fdb2b0" d="M488.546 227.2c.016-.004.033-.005.05-.009 3.83-2.09 24.28-13.352 25.179-16.048.556-1.667 3.135-8.692 5.953-14.922a118.375 118.375 0 0 1 2.143-4.445c1.547-2.976 3.016-5.238 4.127-5.754 3.651-1.667 12.263 3.293 12.263 6.945 0 0-1.032 2.659-2.62 6.35a675.883 675.883 0 0 1-2.103 4.801c-3.175 6.945-7.301 14.882-10.16 16.311-4.63 2.28-22.167 9.703-29.004 10.952l.01.012s-3.293 3.245-4.024 3.857c-.73.613-2.375 1.301-3.957.741-1.582-.56-1.931-2.698-2.018-3.363-.087-.664-.747-4.201 4.16-5.428z"/></g><g><path fill="#7794bf" d="M519.362 196.273c3.465 1.568 9.694 4.62 14.355 8.209a688.635 688.635 0 0 0 2.186-4.992c1.65-3.836 2.723-6.6 2.723-6.6 0-3.794-8.952-8.951-12.746-7.218-1.155.536-2.681 2.887-4.29 5.981a122.627 122.627 0 0 0-2.228 4.62z"/></g><g><g><path fill="#2e2e53" d="M515.646 334.154h-2.968c-.995-.139-1.729-.394-2.749-.511-1.548-.18-2.261.381-2.403.51a.525.525 0 0 0-.028.027H494.89c-.317-.4-.013-1.328.286-2.012.2-.464.639-.815 1.18-.954 1.337-.342 3.974-.647 6.387-2.58 1.359-1.085 6.559-3.99 6.559-3.99l.028-.006c.114.002.658.15 3.023 1.916 1.223.91 3.306-1.287 3.306-1.287s.392.286.684.82c.235.42.406.998.27 1.71-.188 1.006.42 2.873.905 4.136.293.765.541 1.308.541 1.308s.141.63-2.412.913z"/></g><g><path fill="#4a72c7" d="M516.342 326.086c-.71.442-2.205 1.312-3.197 1.426-1.34.156-3.844-2.868-3.844-2.868l.027-.006c.115.002.658.15 3.024 1.916 1.223.91 3.306-1.287 3.306-1.287s.392.286.684.82z"/></g><g><path fill="#4a72c7" d="M515.646 334.154h-2.968c-.995-.139-1.729-.393-2.749-.511-1.548-.18-2.261.381-2.403.51l-.028.027H494.89c-.317-.4-.013-1.328.286-2.011.383-.302.49 1.308.702 1.563.211.257 10.287.094 10.869-.28.58-.375 2.326-1.029 4.76-.514 2.117.446 5.238-.7 6.01-1.005.294.765.542 1.308.542 1.308s.141.63-2.412.913z"/></g></g><g><g><path fill="#06061c" d="M154.147 318.41c0-.26.013-.517.038-.772l-33.579-5.632.177-1.052 33.579 5.633a7.865 7.865 0 0 1 2.713-4.297l-20.38-29.115.873-.611 19.555 27.935-10.545-31.636 1.01-.338 10.945 32.833a7.802 7.802 0 0 1 2.944-.791v-35.072h1.066v35.072c.61.041 1.2.15 1.764.322l10.885-30.332 1.003.36-10.358 28.866 20.827-23.975.805.699-21.708 24.99a7.906 7.906 0 0 1 2.81 2.58l1.227-.212 30.356-15.389.482.951-27.269 13.824 30.403-5.228.18 1.05-33.812 5.815-.888.45a7.842 7.842 0 0 1 .597 3.696l33.559 4.98-.158 1.055-33.556-4.98a7.749 7.749 0 0 1-.263.929l30.643 13.163-.42.98-30.644-13.164c-.006.01-.01.021-.017.032l24.052 24.26-.757.752-23.867-24.076a7.911 7.911 0 0 1-1.75 1.78l17.65 27.766-.9.572-17.65-27.765a7.737 7.737 0 0 1-.474.237c4.41 11.609 12.483 32.876 12.681 33.47l-1.011.337c-.175-.525-7.288-19.266-12.666-33.427a7.877 7.877 0 0 1-2.68.33l2.789 33.685-1.063.087-2.806-33.902a7.86 7.86 0 0 1-.99-.256c-5.548 13.642-12.831 31.578-13.026 32.15l-1.012-.337c.199-.595 8.47-20.951 13.05-32.214a8.926 8.926 0 0 1-.294-.15l-18.73 29.62-.901-.57 18.731-29.623a7.88 7.88 0 0 1-1.906-1.993l-27.8 19.277-.608-.876 27.877-19.33a7.827 7.827 0 0 1-.783-3.422z"/></g><g><g><path fill="#06061c" d="M162.011 278.694c21.9 0 39.717 17.816 39.717 39.717 0 21.9-17.818 39.716-39.717 39.716a39.688 39.688 0 0 1-20.09-5.447 39.962 39.962 0 0 1-14.26-14.318 39.69 39.69 0 0 1-5.367-19.951c0-21.9 17.817-39.717 39.717-39.717zm0 85.83c25.427 0 46.114-20.685 46.114-46.113s-20.687-46.115-46.114-46.115c-25.428 0-46.115 20.687-46.115 46.115a46.084 46.084 0 0 0 6.236 23.17 46.357 46.357 0 0 0 16.548 16.614 46.077 46.077 0 0 0 23.331 6.33z"/></g></g><g><g><path fill="#af4e4e" d="M161.657 279.705c21.493 0 38.979 17.486 38.979 38.979 0 21.492-17.486 38.978-38.979 38.978s-38.979-17.486-38.979-38.978c0-21.493 17.486-38.98 38.98-38.98zm0 79.598c22.397 0 40.62-18.222 40.62-40.62 0-22.396-18.223-40.618-40.62-40.618s-40.618 18.222-40.618 40.619 18.22 40.619 40.618 40.619z"/></g></g></g><g><path fill="#e7651d" d="M182.678 258.676c.685-1.725 2.29-2.797 4.027-2.908 19.907-45.733 20.12-46.092 20.421-46.583l2.88 5.702c.152-.25-10.87 24.25-18.736 42.21l1.124.45-27.41 58.66-4.443-1.812z"/></g><g><path fill="#0b0754" d="M246.72 111.178c.043-.557.7-6.56 9.88-6.53 0 0-4.528.368-5.382 2.32 0 0 3.161-2.333 5.632-1.452 2.47.881 3.774 5.315 3.735 6.757-.04 1.441-1.602 6.032-3.204 6.368-.606.127-1.297.061-1.922-.07.398.675.785 1.418 1.15 2.245 3.376 7.645-.671 14.843-3.738 13.916-1.966-.594-2.656 2.773-2.656 2.773l-18.71-16.345s7.637-14.4 15.216-9.982z"/></g><g><path fill="#fc9290" d="M253.162 209.928s-3.447 7.17-7.804 17.106c-4.886 11.14-10.913 25.763-14.503 37.65-1.898 6.288-3.116 11.81-3.12 15.65-.001 1.317 5.08 6.668 6.545 8.71 9.259 12.883 21.903 30.089 21.903 30.089l3.452-.867s-4.835-21.52-11.879-32.263c-1.384-2.112-5.286-4.683-5.1-4.916a285.39 285.39 0 0 0 4.2-5.402c5.709-7.513 15.622-21.205 22.26-33.942.413-.794.815-1.584 1.2-2.37 3.501-7.109 5.81-13.77 5.585-18.707z"/></g><g><g><path fill="#af4e4e" d="M262.697 319.098l-2.376 1.503c-.875.378-1.608.52-2.491.93-1.342.621-1.591 1.49-1.63 1.678l-.008.038-10.09 6.384c-.483-.2-.77-1.196-.922-1.964a1.698 1.698 0 0 1 .398-1.461c.874-.987 2.809-2.598 3.634-5.568.465-1.67 2.962-6.933 2.962-6.933l.02-.019c.092-.056.612-.197 3.516.203 1.5.206 1.909-2.838 1.909-2.838s.476.06 1.016.395c.429.262.897.698 1.197 1.412.424 1.004 1.979 2.386 3.09 3.284.673.544 1.182.909 1.182.909s.474.498-1.407 2.047z"/></g><g><path fill="#a83f3f" d="M258.634 311.446c-.314.758-1.012 2.303-1.742 2.908-.982.819-4.718-.649-4.718-.649l.02-.019c.092-.056.612-.197 3.516.203 1.5.206 1.909-2.838 1.909-2.838s.477.06 1.015.395z"/></g><g><path fill="#a83f3f" d="M262.696 319.098l-2.375 1.503c-.875.378-1.608.52-2.492.93-1.341.62-1.59 1.49-1.63 1.678a.5.5 0 0 0-.007.038l-10.09 6.384c-.483-.201-.77-1.195-.922-1.964.133-.467 1.14.935 1.457 1.06.316.124 8.284-5.124 8.535-5.757.252-.634 1.274-2.11 3.514-2.876 1.952-.668 3.792-3.286 4.236-3.952.672.543 1.181.909 1.181.909s.475.498-1.407 2.047z"/></g></g><g><path fill="#e7651d" d="M247.436 318.518l-38.8-62.156 48.703 31.181zm-3.523 3.414l3.064-1.976-1.29 4.033 4.57 1.46 11.263-35.228 41.076 26.297-50.477 4.39.415 4.78 63.964-5.563-53.068-35.88 13.927-43.561-4.57-1.46-13.498 42.222-60.55-40.938-.013-.02-.008.007-.848-.574.471.964-5.346 5.533z"/></g><g><path fill="#4a72c7" d="M181.438 202.06a6.006 6.006 0 0 1 11.76 1.432l26.775 6.72a6.009 6.009 0 1 1 2.705 9.831 5.987 5.987 0 0 1-3.527-2.82l-30.438-7.64a6.007 6.007 0 0 1-7.275-7.524z"/></g><g><path fill="#4a72c7" d="M237.193 310.69l-9.004 5.197a2.228 2.228 0 0 0-.813 3.034 2.228 2.228 0 0 0 3.034.813l9.004-5.198a2.228 2.228 0 0 0 .812-3.034 2.227 2.227 0 0 0-3.033-.813z"/></g><g><g><path fill="#4a72c7" d="M235.408 314.043l11.352 12.561 1.047-.91-11.352-12.561z"/></g></g><g><path fill="#e7651d" d="M262.728 265.764a2.916 2.916 0 0 1 3.717-1.784l2.659.934a8.18 8.18 0 0 0 6.36-.392c9.692-4.83 21.487-7.275 35.144-7.275l.493.001c6.097.026 17.01 1.52 21.682 2.216a2.602 2.602 0 0 1 2.22 2.574v1.687c0 .486-.448.849-.924.75l-.014-.004c-8.636-1.812-38.487-6.711-60.063 6.325a2.4 2.4 0 0 1-2.036.21l-8.086-2.842a1.882 1.882 0 0 1-1.152-2.4z"/></g><g><path fill="#4a72c7" d="M292.02 238.155s.866-3.932-1.6-4.199c-2.465-.266-11.462 1.666-13.86 1.4-2.4-.267-14.928-2.333-17.126-.2-2.2 2.132-1.267 3.998 3.131 4.398 4.398.4 10.263 1.133 11.929 2.532 1.666 1.4 13.727 5.532 17.526-3.931z"/></g><g><path fill="#4a72c7" d="M259.967 324.72c0-6.626-5.37-11.996-11.994-11.996-6.625 0-11.995 5.37-11.995 11.995 0 6.625 5.37 11.995 11.995 11.995 6.624 0 11.994-5.37 11.994-11.995z"/></g><g><g><path fill="#06061c" d="M304.528 318.41c0-.26.013-.517.038-.772l-33.58-5.632.177-1.052 33.58 5.633a7.862 7.862 0 0 1 2.713-4.297l-20.38-29.115.873-.611 19.555 27.935-10.546-31.636 1.012-.338 10.944 32.833a7.806 7.806 0 0 1 2.944-.791v-35.072h1.067v35.072c.609.041 1.2.15 1.763.322l10.885-30.332 1.003.36-10.359 28.866 20.828-23.975.805.699-21.709 24.99a7.899 7.899 0 0 1 2.81 2.58l1.228-.212 30.355-15.389.482.951-27.269 13.824 30.403-5.228.18 1.05-33.811 5.815-.888.45a7.829 7.829 0 0 1 .597 3.696l33.558 4.98-.157 1.055-33.556-4.98a7.794 7.794 0 0 1-.263.929l30.643 13.163-.421.98-30.644-13.164-.016.032 24.051 24.26-.756.752-23.868-24.076a7.894 7.894 0 0 1-1.75 1.78l17.65 27.766-.9.572-17.649-27.765a7.67 7.67 0 0 1-.474.237c4.409 11.609 12.483 32.876 12.681 33.47l-1.012.337c-.174-.525-7.286-19.266-12.666-33.427a7.88 7.88 0 0 1-2.678.33l2.787 33.685-1.062.087-2.806-33.902c-.34-.065-.67-.15-.991-.256-5.548 13.642-12.83 31.578-13.026 32.15l-1.011-.337c.198-.595 8.47-20.951 13.05-32.214a8.95 8.95 0 0 1-.294-.15l-18.73 29.62-.902-.57 18.732-29.623a7.885 7.885 0 0 1-1.906-1.993l-27.8 19.277-.607-.876 27.875-19.33a7.837 7.837 0 0 1-.782-3.422z"/></g><g><g><path fill="#06061c" d="M312.39 278.694c21.902 0 39.718 17.816 39.718 39.717 0 21.9-17.817 39.716-39.717 39.716a39.683 39.683 0 0 1-20.09-5.447 39.96 39.96 0 0 1-14.26-14.318 39.685 39.685 0 0 1-5.367-19.951c0-21.9 17.817-39.717 39.717-39.717zm0 85.83c25.429 0 46.115-20.685 46.115-46.113s-20.686-46.115-46.114-46.115c-25.428 0-46.114 20.687-46.114 46.115a46.086 46.086 0 0 0 6.235 23.17 46.357 46.357 0 0 0 16.549 16.614 46.077 46.077 0 0 0 23.33 6.33z"/></g></g><g><g><path fill="#af4e4e" d="M312.038 279.705c21.493 0 38.978 17.486 38.978 38.979 0 21.492-17.485 38.978-38.978 38.978-21.493 0-38.979-17.486-38.979-38.978 0-21.493 17.486-38.98 38.979-38.98zm0 79.598c22.397 0 40.619-18.222 40.619-40.62 0-22.396-18.222-40.618-40.619-40.618-22.398 0-40.62 18.222-40.62 40.619s18.222 40.619 40.62 40.619z"/></g></g></g><g><path fill="#fc9290" d="M194.118 201.31s2.959-.97 5.287-.872c2.328.096 5.622-2.06 5.622-2.06s12.082-7.889 14.695-10.582c5.607-5.78 10.946-35.528 15.842-33.282 0 0 6.518 3.668 5.751 12.957-.767 9.29-9.292 23.933-15.773 27.567-4.753 2.666-17.835 6.715-19.745 7.3-2.153.827-4.87 2.878-5.664 3.144-.874.29-3.186-.536-4.51 0-4.833 1.952-4.9.436-4.9.436.292-3.686 3.395-4.608 3.395-4.608z"/></g><g><path fill="#fdb2b0" d="M236.214 175.403c.297 2.094.848 3.897 1.53 5.61.567 1.436 1.224 2.804 1.9 4.23 1.979 4.19 6.643 6.252 6.801 14.305.053 2.775 2.367 9.02 1.057 13.546-6.448 22.31 35.746 2.024 33.46-3.904-4.54-11.777-11.027-18.586-10.89-28.287-.002-.026.003-.05.006-.075.042-.47.105-1.73.178-3.393.175-4.072.404-10.566.488-13.853.003-.077.003-.152.006-.225.034-1.408.077-2.426.131-2.694-3.136-13.348-10.355-13.405-12.818-13.363-.913.014-1.872.074-2.66.141-1.548-.88-4.226-4.987-5.615-11.738l-.562.239-9.46 4.021s.875 3.06 1.494 5.984c.484 2.286.81 4.488.445 5.09-.744.27-1.19.44-1.19.44l-.002.009c-.167.376-5.81 13.301-4.3 23.917z"/></g><g><path fill="#fc9290" d="M237.744 181.013c.567 1.436 1.224 2.804 1.9 4.23 1.978 4.19 6.643 6.252 6.8 14.305.143.015.288.028.435.04 17.303 1.352 23.199-18.76 23.199-18.76.041-.47.105-1.73.177-3.393l-31.224.05s-.643 1.414-1.287 3.528z"/></g><g><path fill="#fc9290" d="M239.763 139.964s.876 3.06 1.495 5.984c5.49-1.313 7.355-6.963 7.966-10.006z"/></g><g><path fill="#7794bf" d="M229.827 161.881c.521-1.387 3.053-6.704 3.053-6.704s2.04-1.743 7.635-3.7l-.003.009c-.1.32-2.763 8.728-1.977 10.572.803 1.878 17.493-3.46 18.443-4.784.762-1.062.999-6.826 1.063-9.075.016-.558.022-.9.022-.9s6.18-.603 9.582.927c0 0-1.475 2.911-2.1 6.164-.06.307-.11.617-.153.927-.09.658-.136 1.318-.123 1.96.036 1.637 1.514 2.965 3.5 4.531.62.487 1.29.998 1.98 1.55l-.006.224c-.117 4.632-.522 15.626-.665 17.246l-.007.075c-2.947-.141-9.8-.32-16.777.546-2.254.279-4.522.67-6.673 1.206-2.561.633-4.959 1.477-6.977 2.587-.084.046-.169.092-.25.139 0 0-2.752-5.973-5.75-13.123-.108-.26-.206-.517-.292-.775-.954-2.848-.652-5.728-.194-8.292-1.545-1.297-3.33-1.31-3.33-1.31z"/></g><g><path fill="#fdb2b0" d="M238.5 143.12s13.113-2.52 11.417-10.662c-1.695-8.142-1.145-13.95-9.589-12.685-8.443 1.266-9.417 4.71-9.512 7.565-.095 2.855 4.23 16.23 7.685 15.783z"/></g><g><path fill="#396ab3" d="M239.393 185.38c.081-.046.166-.092.25-.138 2.018-1.11 4.416-1.954 6.977-2.587 2.151-.536 4.42-.927 6.672-1.206 6.978-.867 13.83-.687 16.778-.546l.006-.075c.143-1.62.549-12.614.666-17.246l.006-.225c-.69-.55-1.36-1.062-1.98-1.549-8.495 4.125-24.483 13.007-29.375 23.573z"/></g><g><path fill="#0b0754" d="M230.256 122.731c1.507-2.87 3.146-2.653 4.155-2.096 6.32-5.423 12.14-.581 12.14-.581 2.096 5.657 7.008 8.12 7.008 8.12s-2.074 1.97-7.86 1.709c-1.768-.08-3.515-.96-5.09-2.138 3.002 3.26 6.588 5.31 6.588 5.31-7.193-1.659-11.737-10.23-12.202-11.139-.647.884-1.894 2.77-2.054 4.395-.217 2.21.384 6.538-.89 6.653 0 0-4.056-5.927-1.795-10.233z"/></g><g><path fill="#fdb2b0" d="M281.387 210.07s9.754 15.46-2.299 23.965c-12.053 8.504-52.632 12.571-50.642 14.22 6.086 5.046 11.615 12.806 11.324 59.267l-3.007 1.553s-28.938-62.952-26.997-70.453c1.284-4.966 43.49-31.845 71.621-28.552z"/></g><g><path fill="#fd9168" d="M257.99 242.244s24.588-4.074 27.124-12.754c1.895-6.484 2.455-9.13-8.688-30.08 0 0-4.656 8.845-28.96 6.797 0 0 .125 1.148.125 2.7-.031 2.576-.435 6.24-2.451 7.295-.032.03-.094.03-.125.062-3.197 1.459-8.15 4.402-8.895 4.681-.03 0 14.916 2.861 21.87 21.299z"/></g><g><path fill="#e7651d" d="M245.14 216.202c10.832-3.197 23.34-3.942 23.34-4.035-9.187-2.36-15.922-3.26-20.888-3.26-.031 2.577-.435 6.24-2.452 7.295z"/></g><g><g><path fill="#af4e4e" d="M243.844 309.778l-2.534 1.216c-.913.274-1.658.33-2.583.634-1.405.461-1.753 1.296-1.815 1.478l-.011.037-10.763 5.17c-.456-.256-.626-1.277-.688-2.059-.044-.53.167-1.05.565-1.405.983-.878 3.091-2.254 4.256-5.109.656-1.604 3.747-6.54 3.747-6.54l.021-.017c.098-.045.631-.125 3.47.61 1.465.377 2.225-2.598 2.225-2.598s.467.115.963.51c.396.31.81.798 1.025 1.541.305 1.047 1.69 2.6 2.688 3.62.606.619 1.069 1.041 1.069 1.041s.413.55-1.635 1.87z"/></g><g><path fill="#a83f3f" d="M240.697 301.705c-.4.717-1.274 2.17-2.068 2.687-1.07.699-4.61-1.193-4.61-1.193l.02-.016c.098-.045.631-.125 3.47.61 1.465.377 2.225-2.598 2.225-2.598s.466.115.963.51z"/></g><g><path fill="#a83f3f" d="M243.843 309.778l-2.533 1.216c-.913.274-1.658.33-2.583.634-1.405.461-1.753 1.296-1.815 1.478l-.011.037-10.763 5.17c-.456-.256-.626-1.278-.688-2.059.187-.448 1.025 1.061 1.325 1.222.299.16 8.823-4.128 9.146-4.727.323-.6 1.509-1.947 3.824-2.448 2.016-.437 4.147-2.823 4.665-3.434.606.618 1.068 1.04 1.068 1.04s.414.55-1.635 1.87z"/></g></g><g><path fill="#fdb2b0" d="M211.736 205.482s2.959-.97 5.287-.874c2.327.098 5.622-2.06 5.622-2.06s22.602-10.8 25.096-14.77c3.247-5.17 8.711-22.635 13.6-32.585 2.331-4.743 4.532-7.78 6.303-6.967 0 0 4.424 1.397 4.163 10.38a27.46 27.46 0 0 1-.088 1.58c-.86 10.403-11.747 35.009-18.94 39.194-7.192 4.186-29.192 7.19-29.192 7.19-2.311-.074-4.964 2.791-5.837 3.082-.872.291-3.442-.329-4.51 0-4.884 1.507-4.898.437-4.898.437.29-3.686 3.394-4.607 3.394-4.607z"/></g><g><path fill="#7794bf" d="M261.342 155.193c6.033-1.422 10.465 3.413 10.465 3.413.26-8.983-4.163-10.38-4.163-10.38-1.771-.812-3.972 2.224-6.302 6.967z"/></g><g><g><path fill="#6d89cf" d="M694.967 274.861c5.269-.607 9.95 10.023 13.701 23.26 1.437 5.058 2.736 10.496 3.88 15.836-.183.567-.363 1.126-.546 1.686-.024.083-.052.16-.076.235a287.334 287.334 0 0 1-3.558 10.198v.003l-.093.253c-3.838-8.164-8.067-17.684-11.259-26.307-4.94-13.356-7.393-24.549-2.049-25.164z"/></g><g><path fill="#6d89cf" d="M652.248 283.55c10.975-3.044 22.361 8.384 32.117 23.267 7.179 10.944 13.477 23.757 18.085 34.051v.004a287.158 287.158 0 0 1-3.244 7.224 242.553 242.553 0 0 1-5.721 11.497c-8.014-8.824-17.646-19.882-26.071-30.83-16.192-21.045-27.934-41.679-15.166-45.213z"/></g><g><path fill="#6d89cf" d="M625.672 335.538c.334-2.097 2.197-3.623 4.321-3.644 9.414-.094 19.38 3.375 28.85 8.432 12.398 6.62 23.936 15.964 32.252 23.599-.315.542-.484.818-.484.818l-2.132.007-4.83.018h-.002l-7.052.024c-13.033-5.942-27.747-12.727-36.967-17.211-2.76-1.34-5.03-2.477-6.612-3.32-6.44-3.434-7.697-6.508-7.344-8.723z"/></g></g></g></g></svg>