<svg xmlns="http://www.w3.org/2000/svg" width="610" height="316" viewBox="0 0 610 316"><g><g clip-path="url(#clip-a3d2972f-3dd5-47d9-99f3-117d1c32c0f9)"><path fill="#e3eeff" d="M14.931 136.797C43.363 90.332 115.74 76.165 162.867 96.216c70.81 30.126 97.64-62.945 151.72-84.936 44.201-17.974 113.716-15.21 138.12 27.238 23.688 41.202-11.057 92.086 17.093 118.705 33.744 31.91 102.85-10.573 131.449 34.347 2.206 3.29 3.954 6.756 5.214 10.338 19.031 47.989-68.032 74.833-143.78 105.4-13.722 5.538-235.389 84.457-358.752-1.671-125.493-87.615-110.285-134.055-89-168.84"/></g><g><path fill="#3f3d56" d="M426 254.657c0-20.508 8.148-37.133 18.199-37.133 10.051 0 18.2 16.625 18.2 37.133 0 20.509-8.149 37.134-18.2 37.134s-18.2-16.625-18.2-37.134z"/></g><g><path fill="#396ab3" d="M442.518 315.439c7.29-43.732.074-87.307 0-87.741l-1.418.24c.074.432 7.248 43.778 0 87.265z"/></g><g><path fill="#396ab3" d="M443.953 256.744l-16.457-8.803.679-1.268 16.456 8.803z"/></g><g><path fill="#396ab3" d="M445.546 261.159l-.678-1.268 16.455-8.808.678 1.268z"/></g><g><path fill="#e6e6e6" d="M452.33 195.888c0-40.112 15.937-72.629 35.596-72.629s35.595 32.517 35.595 72.63c0 40.11-15.936 72.628-35.595 72.628S452.331 236 452.331 195.888z"/></g><g><path fill="#396ab3" d="M483.961 314.657c14.237-85.422.144-170.533 0-171.383l-1.418.24c.144.848 14.196 85.73 0 170.907z"/></g><g><path fill="#396ab3" d="M487.772 199.363l-32.189-17.217.679-1.268 32.188 17.217z"/></g><g><path fill="#396ab3" d="M490.238 207.993l-.679-1.268 32.184-17.226.679 1.268z"/></g><g><path fill="#e6e6e6" d="M405.256 314.885H215.922a2.63 2.63 0 0 1-2.626-2.626V192.622a2.63 2.63 0 0 1 2.626-2.626h189.334a2.63 2.63 0 0 1 2.627 2.626V312.26a2.63 2.63 0 0 1-2.627 2.626z"/></g><g><path fill="#fff" d="M233.334 204.493c-.621 0-1.125.504-1.125 1.126v93.643c0 .622.504 1.125 1.125 1.126h154.51c.622 0 1.125-.504 1.126-1.126V205.62c0-.622-.504-1.125-1.126-1.126z"/></g><g><path fill="#e6e6e6" d="M230.045 228.612v-5.934h159.3v5.934z"/></g><g><path fill="#e6e6e6" d="M230.045 257.623v-5.934h159.3v5.934z"/></g><g><path fill="#e6e6e6" d="M253.76 241.799v-5.934h66.592v5.934z"/></g><g><path fill="#e6e6e6" d="M230.045 288.282v-5.934h159.3v5.934z"/></g><g><path fill="#e6e6e6" d="M250.792 285.975v-81.857h5.934v81.857z"/></g><g><path fill="#e6e6e6" d="M361.56 254.986v-50.868h5.935v50.868z"/></g><g><path fill="#e6e6e6" d="M316.726 300.763v-96.645h5.934v96.645z"/></g><g><path fill="#e6e6e6" d="M282.77 300.763v-48.085h5.934v48.085z"/></g><g><path fill="#396ab3" d="M312.11 255.407a7.582 7.582 0 1 1 15.165 0 7.582 7.582 0 0 1-15.164 0z"/></g><g><path fill="#3f3d56" d="M609.788 315.527H121.702v-.818H610z"/></g><g><path fill="#396ab3" d="M273.829 163.59c0-25.832 20.94-46.773 46.773-46.773 25.832 0 46.773 20.941 46.773 46.773 0 25.832-20.941 46.773-46.773 46.773-25.832 0-46.773-20.94-46.773-46.773z"/></g><g><path fill="#396ab3" d="M321.06 239.625l-14.778-25.243-14.776-25.242 29.249-.176 29.248-.176-14.472 25.418z"/></g><g><path fill="#fff" d="M304.196 163.296c0-9.268 7.513-16.781 16.781-16.781 9.268 0 16.782 7.513 16.782 16.781 0 9.268-7.514 16.782-16.782 16.782s-16.781-7.514-16.781-16.782z"/></g><g><path fill="#2f2e41" d="M319.52 51.24s-10.008-2.819-12.969 10.854c-2.96 13.674-.704 20.581-.704 20.581l22.342-2.608s6.344-24.668-8.669-28.827z"/></g><g><path fill="#ffb9b9" d="M304.546 110.463s-14.68 1.462-12.066 7.39c2.615 5.926 2.615 6.45 2.615 6.45l12.9 23.01 4.184-4.358s-4.707-10.285-4.707-13.598c0-3.312-4.881-9.064-4.881-9.064l8.542-.698z"/></g><g><path fill="#ffb9b9" d="M344.777 117.503l4.88 10.634s3.661 3.66 7.67 18.304c4.01 14.643 4.882 14.12 4.882 14.12l-6.102 1.22s-6.798-15.863-9.064-17.083c-2.266-1.22-5.056-12.377-5.056-12.377l-8.018-10.11 2.44-5.405z"/></g><g><path fill="#2f2e41" d="M338.85 105.301l7.496 13.946s-9.414-4.358-10.808 5.23l-8.542-6.625s-11.854 3.835-19.001 2.44c0 0 2.092-6.624-5.404-9.587l16.909-2.092-.697-3.66 1.743-3.487z"/></g><g><path fill="#2f2e41" d="M309.04 144.175s-4.706-.698-3.486 3.486l2.44 8.367s-3.137 8.542 1.744 6.625c4.881-1.918 8.019-13.772 8.019-13.772s2.092-9.064 0-9.064-8.716-1.395-8.019 0c.697 1.394-.697 4.358-.697 4.358z"/></g><g><path fill="#2f2e41" d="M361.686 158.12s-6.101-1.569-7.496.872c-1.395 2.44-1.046 10.46-1.046 10.634 0 .174 2.092 1.917 2.79 1.917.696 0 5.055 7.845 10.981 5.055 5.927-2.789-5.23-18.478-5.23-18.478z"/></g><g><path fill="#ffb9b9" d="M316.668 72.44a6.799 6.799 0 1 1 2.178-13.421 6.799 6.799 0 0 1-2.178 13.421z"/></g><g><path fill="#ffb9b9" d="M323.335 67.125s1.395 7.321 2.615 8.367c1.22 1.046-9.24 2.615-9.24 2.615s1.57-5.055-.348-7.67c-1.917-2.615 6.973-3.312 6.973-3.312z"/></g><g><path fill="#d0cde1" d="M341.639 108.613c-1.187 0-4.21-.491-7.599-1.124a451.735 451.735 0 0 1-8.672-1.724c-2.711-.565-4.648-.987-4.648-.987s-.697 4.358-2.963 3.835c-1.953-.45-7.787-20.83-9.365-26.462a1.96 1.96 0 0 1 .867-2.201l8.013-4.894 2.054.785s3.469-2.681 5.482-2.735c2.014-.054 5.5-.577 5.5-.577s4.01.348 4.707 3.312c.697 2.963 1.046 21.441 3.66 24.753 2.615 3.313 6.276 8.02 2.964 8.02z"/></g><g><path fill="#ffb9b9" d="M317.234 118.375s0 6.799 4.532 5.753c4.533-1.046.349-7.322.349-7.322z"/></g><g><path fill="#ffb9b9" d="M329.785 119.073s-1.569 8.018-4.881 6.798c-3.312-1.22 0-8.367 0-8.367z"/></g><g opacity=".15"><path d="M337.107 100.071s-1.707 4.073-3.067 7.418a451.592 451.592 0 0 1-8.672-1.724c.181-.482.437-.932.756-1.336 1.22-1.394.523-1.743.523-1.743-1.046-2.092-.174-4.88-.174-4.88-2.092-5.579 1.046-12.552 1.046-12.552z"/></g><g><path fill="#d0cde1" d="M328.042 85.254s-3.138 6.973-1.046 12.551c0 0-.872 2.79.174 4.881 0 0 .697.349-.523 1.743-1.22 1.395-2.266 6.276-1.394 7.322.871 1.046-1.22 2.963-.698 4.01.523 1.045-.871 2.44-.871 2.44s5.23 1.046 6.101 2.615c0 0 1.046-1.22.523-2.615-.523-1.395-.174-1.918.349-2.79.523-.871 2.091-2.788 2.266-3.66.174-.872 4.706-11.68 4.706-11.68l-2.125-19.695z"/></g><g><path fill="#d0cde1" d="M309.912 80.373l-.325.06a1.96 1.96 0 0 0-1.61 1.942c.012 1.75.11 4.856.54 9.155.698 6.972 3.139 17.432 3.662 18.478a55.64 55.64 0 0 0 2.789 5.404c1.569 2.614 1.917 1.743 1.569 2.963a1.836 1.836 0 0 0 .523 1.918s3.137-3.487 6.275-1.57a3.884 3.884 0 0 0 .349-1.568c0-.872.523-1.743-.349-2.266-.871-.523.523-2.79-.871-4.01-1.395-1.22-1.57-1.046-1.395-2.266a5.193 5.193 0 0 0-.349-2.44z"/></g><g><path fill="#2f2e41" d="M320.299 56.997s-2.82 7.471-9.727 10.572l-1.128-6.625z"/></g><g><path fill="#ffb9b9" d="M323.422 63.116c0-1.011.43-1.83.959-1.83.53 0 .959.819.959 1.83 0 1.01-.43 1.83-.959 1.83-.53 0-.959-.82-.959-1.83z"/></g></g></svg>