<svg xmlns="http://www.w3.org/2000/svg" width="81" height="27" viewBox="0 0 81 27"><g><g><g><path fill="#d20017" d="M5.69 13.788L.71 6.583h3.658l3.166 4.584 3.223-4.584h3.613l-5.023 7.205 8.922 13.038h-3.395l-7.34-10.368-3.563 5.107H.226z"/></g><g><path fill="#d20017" d="M17.699 9.098h-3.253l1.621-2.538H17.7s-.176-2.962.448-3.986c.65-.998 1.743-1.866 4.282-1.744.632.03 1.352.307 1.853.398v2.569c-.343-.108-.837-.245-1.303-.245-1.046.019-1.589.12-1.896.734-.308.624-.112 2.274-.112 2.274h3.311v2.538h-3.311v12.389h-3.272z"/></g><g><path fill="#d20017" d="M33.148 6.545h3.353V7.86s1.212-1.608 3.436-1.627c3.118-.027 5.754 1.656 5.708 5.802v9.492h-3.186v-8.23c.073-3.405-1.22-4.353-2.793-4.38-2.657-.046-3.165 2.545-3.165 4.38v8.23h-3.353z"/></g><g><path fill="#d20017" d="M49.008 6.528h3.331v15.034h-3.33z"/></g><g><path fill="#d20017" d="M26.437 6.558h3.239v15.034h-3.239z"/></g><g><path fill="#d20017" d="M64.023 9.035h-3.739v7.607c0 .886-.084 3.334 3.433 2.325l-.275 2.6c-.307.078-1.707.183-2.172.183-3.11.02-4.07-1.545-4.129-4.557V9.035h-2.477V6.572h2.477V2.726l3.143-1.56v5.406h2.821z"/></g><g><path fill="#d20017" d="M69.62 19.609l-5.108-13.08h3.38L71.639 16l5.078-9.47h3.639L69.13 26.734h-3.365z"/></g><g><g><path fill="#d20017" d="M76.03 21.536V19.85h-.606v-.225h1.457v.225h-.608v1.686z"/></g><g><path fill="#d20017" d="M77.329 21.536v-1.91h.4l.479 1.352.096.283c.023-.07.059-.173.107-.307l.483-1.329h.36v1.91h-.257v-1.597l-.588 1.598h-.24l-.584-1.626v1.626z"/></g></g></g></g></svg>